<svg id="Layer_1" data-name="Layer 1" xmlns="http://www.w3.org/2000/svg" viewBox="0 0 310 230"><defs><style>.cls-1{fill:#5e5e5e;}</style></defs><path class="cls-1" d="M298.12,10.13V221h-288V10.13h288m6-6H4.12V227h300V4.13Z"/><path class="cls-1" d="M78.6,51.7A13.44,13.44,0,1,1,65,65.14,13.57,13.57,0,0,1,78.6,51.7m0-6A19.44,19.44,0,1,0,98.26,65.14,19.55,19.55,0,0,0,78.6,45.7Z"/><path class="cls-1" d="M181.72,77.11,245,166.67c-24.35.18-82.39.59-124.18.59-19.16,0-30.59-.09-37.4-.2l43.31-63.43,12.49,14.54a6,6,0,0,0,4.55,2.08h.08a6,6,0,0,0,4.57-2.21l33.29-40.93m.33-9.92-38.27,47.06L126.19,93.79,72.4,172.58c.51.51,21.14.68,48.43.68,54.55,0,135.7-.68,135.7-.68L182.05,67.19Z"/></svg>