<?xml version="1.0" encoding="utf-8"?>
<!-- Generator: Adobe Illustrator 19.2.1, SVG Export Plug-In . SVG Version: 6.00 Build 0)  -->
<svg version="1.1" id="Layer_1" xmlns="http://www.w3.org/2000/svg" xmlns:xlink="http://www.w3.org/1999/xlink" x="0px" y="0px"
	 width="310px" height="230px" viewBox="0 0 310 230" enable-background="new 0 0 310 230" xml:space="preserve">
<g>
	<g>
		<path fill="#5E5E5E" d="M301,7.6v214.9H9V7.6H301 M305,3.6H5v222.9h300V3.6L305,3.6z"/>
	</g>
	<g>
		<path fill="#5E5E5E" d="M79.5,49.1c8.6,0,15.7,6.9,15.7,15.4S88.1,80,79.5,80s-15.7-6.9-15.7-15.4S70.9,49.1,79.5,49.1 M79.5,45.1
			c-10.9,0-19.7,8.7-19.7,19.4c0,10.7,8.8,19.4,19.7,19.4c10.9,0,19.7-8.7,19.7-19.4C99.1,53.8,90.3,45.1,79.5,45.1L79.5,45.1z"/>
	</g>
	<g>
		<path fill="#5E5E5E" d="M182.7,73.2l67,94.8c-21.5,0.2-83.8,0.6-128,0.6c-22.9,0-34.9-0.1-41.1-0.3l46.9-68.6l14.2,16.5l3.1,3.6
			l3-3.7L182.7,73.2 M182.9,66.6l-38.3,47.1l-17.6-20.5L73.3,172c0.5,0.5,21.1,0.7,48.4,0.7c54.6,0,135.7-0.7,135.7-0.7L182.9,66.6
			L182.9,66.6z"/>
	</g>
</g>
</svg>
