<svg id="Layer_1" data-name="Layer 1" xmlns="http://www.w3.org/2000/svg" viewBox="0 0 1329.86 239.59">
  <title>animation</title>
  <g>
    <g>
      <path d="M115.35,153.42A14.54,14.54,0,1,1,129.91,168,14.54,14.54,0,0,1,115.35,153.42Z" style="fill: #ee8b21"/>
      <path d="M96.86,138.91a14.54,14.54,0,1,1,14.55,14.52A14.53,14.53,0,0,1,96.86,138.91Z" style="fill: #cd4d3f"/>
      <path d="M82.34,153.47A14.54,14.54,0,1,1,96.89,168,14.53,14.53,0,0,1,82.34,153.47Z" style="fill: #ee8b21"/>
      <path d="M14.92,151.23c0-23.9,42.78-43.34,95.62-43.4s95.71,19.24,95.75,43.14-42.78,43.33-95.63,43.4S15,175.13,14.92,151.23Z" style="fill: none;stroke: #f6f6f1;stroke-miterlimit: 10;stroke-width: 4px"/>
      <path d="M188.25,155.24a14.54,14.54,0,1,1,14.56,14.52A14.54,14.54,0,0,1,188.25,155.24Z" style="fill: #5691b6"/>
      <path d="M5.88,154.48A14.54,14.54,0,1,1,20.44,169,14.54,14.54,0,0,1,5.88,154.48Z" style="fill: #5691b6"/>
      <path d="M98.83,165.65a14.54,14.54,0,1,1,14.56,14.52A14.55,14.55,0,0,1,98.83,165.65Z" style="fill: #cd4d3f"/>
    </g>
    <g>
      <path d="M240.37,113.85a14.45,14.45,0,1,1-15,13.91A14.45,14.45,0,0,1,240.37,113.85Z" style="fill: #ee8b21"/>
      <path d="M226.15,99.57a14.45,14.45,0,1,1-15,13.91A14.46,14.46,0,0,1,226.15,99.57Z" style="fill: #cd4d3f"/>
      <path d="M212.28,110.44a14.45,14.45,0,1,1-15,13.91A14.45,14.45,0,0,1,212.28,110.44Z" style="fill: #ee8b21"/>
      <path d="M227.24,75.86c49.47.84,88,23.22,86,50s-43.68,47.78-93.15,46.93-88-23.22-86-50S177.77,75,227.24,75.86Z" style="fill: none;stroke: #f6f6f1;stroke-miterlimit: 10;stroke-width: 4px"/>
      <path d="M302.21,123a14.45,14.45,0,1,1-15,13.91A14.45,14.45,0,0,1,302.21,123Z" style="fill: #5691b6"/>
      <path d="M147.12,103.32a14.45,14.45,0,1,1-15,13.91A14.45,14.45,0,0,1,147.12,103.32Z" style="fill: #5691b6"/>
      <path d="M225,122.53a14.45,14.45,0,1,1-15,13.91A14.46,14.46,0,0,1,225,122.53Z" style="fill: #cd4d3f"/>
    </g>
    <g>
      <path d="M355.57,93a14.39,14.39,0,1,1-15.43,13.26A14.39,14.39,0,0,1,355.57,93Z" style="fill: #ee8b21"/>
      <path d="M345.62,79a14.39,14.39,0,1,1-15.43,13.26A14.4,14.4,0,0,1,345.62,79Z" style="fill: #cd4d3f"/>
      <path d="M332.4,86.14A14.39,14.39,0,1,1,317,99.4,14.37,14.37,0,0,1,332.4,86.14Z" style="fill: #ee8b21"/>
      <path d="M348.64,48.06c46.09,1.75,80.23,27.19,76.25,56.82s-44.57,52.22-90.67,50.46S254,128.15,258,98.52,302.54,46.3,348.64,48.06Z" style="fill: none;stroke: #f6f6f1;stroke-miterlimit: 10;stroke-width: 4px"/>
      <path d="M406.35,109.49a14.39,14.39,0,1,1-15.43,13.26A14.4,14.4,0,0,1,406.35,109.49Z" style="fill: #5691b6"/>
      <path d="M278.54,70.89A14.38,14.38,0,1,1,263.1,84.14,14.38,14.38,0,0,1,278.54,70.89Z" style="fill: #5691b6"/>
      <path d="M341.43,98.13A14.39,14.39,0,1,1,326,111.39,14.38,14.38,0,0,1,341.43,98.13Z" style="fill: #cd4d3f"/>
    </g>
    <g>
      <path d="M491.19,75.4A14.34,14.34,0,1,1,475.3,88,14.34,14.34,0,0,1,491.19,75.4Z" style="fill: #ee8b21"/>
      <path d="M485.52,61.59A14.34,14.34,0,1,1,469.63,74.2,14.34,14.34,0,0,1,485.52,61.59Z" style="fill: #cd4d3f"/>
      <path d="M472.94,65.08a14.34,14.34,0,1,1-15.89,12.61A14.34,14.34,0,0,1,472.94,65.08Z" style="fill: #ee8b21"/>
      <path d="M490.46,23.5C533.18,26.17,563,54.67,557,87.17s-45.47,56.66-88.19,54S396.28,110,402.27,77.5,447.74,20.83,490.46,23.5Z" style="fill: none;stroke: #f6f6f1;stroke-miterlimit: 10;stroke-width: 4px"/>
      <path d="M530.91,99.23A14.34,14.34,0,1,1,515,111.84,14.35,14.35,0,0,1,530.91,99.23Z" style="fill: #5691b6"/>
      <path d="M430.38,41.7a14.34,14.34,0,1,1-15.89,12.61A14.33,14.33,0,0,1,430.38,41.7Z" style="fill: #5691b6"/>
      <path d="M478.23,77a14.34,14.34,0,1,1-15.88,12.61A14.34,14.34,0,0,1,478.23,77Z" style="fill: #cd4d3f"/>
    </g>
    <g>
      <path d="M632.85,68.09a14.32,14.32,0,1,1-16.35,12A14.33,14.33,0,0,1,632.85,68.09Z" style="fill: #ee8b21"/>
      <path d="M631.44,54.51a14.32,14.32,0,1,1-16.34,12A14.31,14.31,0,0,1,631.44,54.51Z" style="fill: #cd4d3f"/>
      <path d="M619.51,54.32a14.32,14.32,0,1,1-16.35,12A14.31,14.31,0,0,1,619.51,54.32Z" style="fill: #ee8b21"/>
      <path d="M638.31,9.24c39.34,3.58,64.75,35.15,56.76,70.51s-46.36,61.11-85.71,57.52-64.76-35.15-56.76-70.5S599,5.66,638.31,9.24Z" style="fill: none;stroke: #f6f6f1;stroke-miterlimit: 10;stroke-width: 4px"/>
      <path d="M661.5,99.27a14.32,14.32,0,1,1-16.35,12A14.32,14.32,0,0,1,661.5,99.27Z" style="fill: #5691b6"/>
      <path d="M588.25,22.8a14.32,14.32,0,1,1-16.35,12A14.33,14.33,0,0,1,588.25,22.8Z" style="fill: #5691b6"/>
      <path d="M621.07,66.13a14.32,14.32,0,1,1-16.34,12A14.32,14.32,0,0,1,621.07,66.13Z" style="fill: #cd4d3f"/>
    </g>
    <g>
      <path d="M758.51,73.22A14.32,14.32,0,1,1,741.7,84.53,14.33,14.33,0,0,1,758.51,73.22Z" style="fill: #ee8b21"/>
      <path d="M761.38,59.87a14.32,14.32,0,1,1-16.8,11.31A14.33,14.33,0,0,1,761.38,59.87Z" style="fill: #cd4d3f"/>
      <path d="M750.09,56a14.32,14.32,0,1,1-16.8,11.3A14.31,14.31,0,0,1,750.09,56Z" style="fill: #ee8b21"/>
      <path d="M770.16,7.42c36,4.49,57,39.12,47,77.34S769.92,150.32,734,145.82s-57-39.13-47-77.34S734.19,2.92,770.16,7.42Z" style="fill: none;stroke: #f6f6f1;stroke-miterlimit: 10;stroke-width: 4px"/>
      <path d="M776.1,111.73A14.32,14.32,0,1,1,759.3,123,14.32,14.32,0,0,1,776.1,111.73Z" style="fill: #5691b6"/>
      <path d="M730.12,16.35a14.32,14.32,0,1,1-16.8,11.31A14.3,14.3,0,0,1,730.12,16.35Z" style="fill: #5691b6"/>
      <path d="M747.92,67.71A14.32,14.32,0,1,1,731.12,79,14.3,14.3,0,0,1,747.92,67.71Z" style="fill: #cd4d3f"/>
    </g>
    <g>
      <path d="M894.06,85A14.34,14.34,0,1,1,876.8,95.63,14.35,14.35,0,0,1,894.06,85Z" style="fill: #ee8b21"/>
      <path d="M901.21,71.86A14.34,14.34,0,1,1,884,82.52,14.35,14.35,0,0,1,901.21,71.86Z" style="fill: #cd4d3f"/>
      <path d="M890.56,64.29A14.34,14.34,0,1,1,873.3,75,14.35,14.35,0,0,1,890.56,64.29Z" style="fill: #ee8b21"/>
      <path d="M911.92,12.22c32.59,5.41,49.28,43.09,37.27,84.18S901,166.4,868.44,161s-49.28-43.1-37.28-84.18S879.32,6.8,911.92,12.22Z" style="fill: none;stroke: #f6f6f1;stroke-miterlimit: 10;stroke-width: 4px"/>
      <path d="M900.59,130.83a14.34,14.34,0,1,1-17.26,10.65A14.34,14.34,0,0,1,900.59,130.83Z" style="fill: #5691b6"/>
      <path d="M881.89,16.51a14.34,14.34,0,1,1-17.25,10.66A14.35,14.35,0,0,1,881.89,16.51Z" style="fill: #5691b6"/>
      <path d="M884.66,75.91a14.34,14.34,0,1,1-17.25,10.66A14.35,14.35,0,0,1,884.66,75.91Z" style="fill: #cd4d3f"/>
    </g>
    <g>
      <path d="M1026.89,99.68a14.38,14.38,0,1,1-17.71,10A14.38,14.38,0,0,1,1026.89,99.68Z" style="fill: #ee8b21"/>
      <path d="M1038.31,86.8a14.38,14.38,0,1,1-17.71,10A14.38,14.38,0,0,1,1038.31,86.8Z" style="fill: #cd4d3f"/>
      <path d="M1028.31,75.55a14.38,14.38,0,1,1-17.71,10A14.38,14.38,0,0,1,1028.31,75.55Z" style="fill: #ee8b21"/>
      <path d="M1051,20c29.21,6.32,41.54,47.07,27.53,91s-49.06,74.45-78.27,68.13-41.55-47.08-27.54-91S1021.73,13.64,1051,20Z" style="fill: none;stroke: #f6f6f1;stroke-miterlimit: 10;stroke-width: 4px"/>
      <path d="M1022.36,152.87a14.39,14.39,0,1,1-17.71,10A14.4,14.4,0,0,1,1022.36,152.87Z" style="fill: #5691b6"/>
      <path d="M1030.94,19.63a14.38,14.38,0,1,1-17.71,10A14.39,14.39,0,0,1,1030.94,19.63Z" style="fill: #5691b6"/>
      <path d="M1018.68,87.07a14.38,14.38,0,1,1-17.71,10A14.37,14.37,0,0,1,1018.68,87.07Z" style="fill: #cd4d3f"/>
    </g>
    <g>
      <path d="M1142.52,115.87a14.45,14.45,0,1,1-18.17,9.36A14.46,14.46,0,0,1,1142.52,115.87Z" style="fill: #ee8b21"/>
      <path d="M1158.21,103.22a14.45,14.45,0,1,1-18.17,9.36A14.46,14.46,0,0,1,1158.21,103.22Z" style="fill: #cd4d3f"/>
      <path d="M1148.86,88.28a14.45,14.45,0,1,1-18.17,9.36A14.46,14.46,0,0,1,1148.86,88.28Z" style="fill: #ee8b21"/>
      <path d="M1172.77,29.21c25.84,7.24,33.81,51.05,17.79,97.86s-50,78.9-75.79,71.65S1081,147.67,1097,100.86,1146.93,22,1172.77,29.21Z" style="fill: none;stroke: #f6f6f1;stroke-miterlimit: 10;stroke-width: 4px"/>
      <path d="M1126.93,176.4a14.45,14.45,0,1,1-18.18,9.36A14.45,14.45,0,0,1,1126.93,176.4Z" style="fill: #5691b6"/>
      <path d="M1162.79,24.24a14.45,14.45,0,1,1-18.17,9.36A14.45,14.45,0,0,1,1162.79,24.24Z" style="fill: #5691b6"/>
      <path d="M1135.5,99.71a14.45,14.45,0,1,1-18.17,9.36A14.45,14.45,0,0,1,1135.5,99.71Z" style="fill: #cd4d3f"/>
    </g>
    <g>
      <path d="M1268,135.3a14.54,14.54,0,1,1-18.63,8.71A14.54,14.54,0,0,1,1268,135.3Z" style="fill: #ee8b21"/>
      <path d="M1288,122.89a14.54,14.54,0,1,1-18.62,8.71A14.55,14.55,0,0,1,1288,122.89Z" style="fill: #cd4d3f"/>
      <path d="M1279.27,104.26a14.54,14.54,0,1,1-18.63,8.71A14.54,14.54,0,0,1,1279.27,104.26Z" style="fill: #ee8b21"/>
      <path d="M1304.46,41.68c22.46,8.16,26.06,55,8,104.71s-50.85,83.34-73.32,75.19-26.07-55-8-104.71S1282,33.53,1304.46,41.68Z" style="fill: none;stroke: #f6f6f1;stroke-miterlimit: 10;stroke-width: 4px"/>
      <path d="M1241.35,203.18a14.54,14.54,0,1,1-18.63,8.7A14.53,14.53,0,0,1,1241.35,203.18Z" style="fill: #5691b6"/>
      <path d="M1304.49,32.08a14.54,14.54,0,1,1-18.62,8.71A14.54,14.54,0,0,1,1304.49,32.08Z" style="fill: #5691b6"/>
      <path d="M1262.17,115.59a14.54,14.54,0,1,1-18.62,8.71A14.54,14.54,0,0,1,1262.17,115.59Z" style="fill: #cd4d3f"/>
    </g>
  </g>
</svg>
