<?xml version="1.0" encoding="utf-8"?>
<!-- Generator: Adobe Illustrator 19.2.1, SVG Export Plug-In . SVG Version: 6.00 Build 0)  -->
<svg version="1.1" id="Layer_1" xmlns="http://www.w3.org/2000/svg" xmlns:xlink="http://www.w3.org/1999/xlink" x="0px" y="0px"
	 width="1177.7px" height="70.7px" viewBox="0 0 1177.7 70.7" enable-background="new 0 0 1177.7 70.7" xml:space="preserve">
<g>
	<path fill="#F1F2F3" d="M1177.7,60.4L4.4,60.4c-2.5,0-4.5-2-4.5-4.5l0-51.4C-0.2,2,1.9,0,4.4,0l1173.4,0V60.4z"/>
	<ellipse fill="#4A809A" cx="18" cy="15" rx="5.4" ry="5.4"/>
	<ellipse fill="#ECBC18" cx="38.1" cy="15" rx="5.4" ry="5.4"/>
	<ellipse fill="#39AD4A" cx="58.1" cy="15" rx="5.4" ry="5.4"/>
	<polygon fill="#DEDFDE" points="1177.7,64.7 1177.7,70.7 -0.2,70.7 -0.2,64.7 -0.2,34.8 -0.2,28.8 1177.7,28.8 1177.7,34.8 	"/>
	<path fill="#DEDFDE" d="M245.6,29.4c0,0.5-0.4,0.9-0.9,0.9l-172.6,0c-0.5,0-0.9-0.4-0.9-0.9l9.1-18.8c0-0.5,0.4-0.9,0.9-0.9
		l152.6,0c0.5,0,0.9,0.4,0.9,0.9L245.6,29.4z"/>
	<path fill="#DEDFDE" d="M264.7,25.4c0,1-0.8,1.8-1.8,1.8l-14.8,0c-1,0-1.8-0.8-1.8-1.8l-6.3-10.6c0-1,0.8-1.8,1.8-1.8l14.8,0
		c1,0,1.8,0.8,1.8,1.8L264.7,25.4z"/>
	<path fill="#5E5E5E" d="M26,50.1l-9.6,0l4.1-3.4c0.4-0.3,0.4-0.9,0.1-1.3c-0.3-0.4-0.9-0.4-1.3-0.1l-6,5c0,0,0,0,0,0
		c-0.1,0.1-0.1,0.1-0.2,0.2c0,0,0,0.1-0.1,0.1c0,0.1-0.1,0.2-0.1,0.3c0,0,0,0,0,0.1c0,0,0,0,0,0l0,0c0,0.1,0,0.3,0.1,0.4
		c0,0,0,0,0.1,0.1c0,0.1,0.1,0.2,0.2,0.2c0,0,0,0,0,0l6,5.2c0.2,0.1,0.4,0.2,0.6,0.2c0.3,0,0.5-0.1,0.7-0.3c0.3-0.4,0.3-1-0.1-1.3
		l-4.2-3.6l9.7,0c0.5,0,0.9-0.4,0.9-0.9C26.9,50.5,26.5,50.1,26,50.1z"/>
	<path fill="#5E5E5E" d="M36.8,50.1l9.6,0l-4.1-3.4c-0.4-0.3-0.4-0.9-0.1-1.3c0.3-0.4,0.9-0.4,1.3-0.1l6,5c0,0,0,0,0,0
		c0.1,0.1,0.1,0.1,0.2,0.2c0,0,0,0.1,0.1,0.1c0,0.1,0.1,0.2,0.1,0.3c0,0,0,0,0,0.1c0,0,0,0,0,0l0,0c0,0.1,0,0.3-0.1,0.4
		c0,0,0,0,0,0.1c0,0.1-0.1,0.2-0.2,0.2c0,0,0,0,0,0l-6,5.2c-0.2,0.1-0.4,0.2-0.6,0.2c-0.3,0-0.5-0.1-0.7-0.3c-0.3-0.4-0.3-1,0.1-1.3
		l4.2-3.6l-9.6,0c-0.5,0-0.9-0.4-0.9-0.9C35.9,50.5,36.3,50.1,36.8,50.1z"/>
	<path fill="#5E5E5E" d="M72.8,53.2c-0.4-0.2-1,0-1.2,0.4c-0.8,1.6-2.4,2.6-4.2,2.6c-2.6,0-4.7-2.1-4.7-4.7c0-2.6,2.1-4.7,4.7-4.7
		c1,0,2,0.3,2.8,0.9L68,50.2l5.9-0.1l-0.1-5.9l-2.3,2.4c-1.1-0.9-2.6-1.4-4-1.4c-3.6,0-6.5,2.9-6.5,6.5c0,3.6,2.9,6.5,6.5,6.5
		c2.5,0,4.8-1.4,5.8-3.7C73.5,54,73.3,53.4,72.8,53.2z"/>
	<path fill="#FFFFFF" stroke="#BDBFC0" stroke-width="1.2012" stroke-miterlimit="10" d="M1137.4,63.6l-1045.8,0
		c-1.3,0-2.4-1.1-2.4-2.4V41c0-1.3,1.1-2.4,2.4-2.4l1045.8,0V63.6z"/>
	<g>
		<rect x="1145.4" y="43.2" fill="#5E5E5E" width="18.9" height="3.8"/>
		<rect x="1145.4" y="49.2" fill="#5E5E5E" width="18.9" height="3.8"/>
		<rect x="1145.4" y="55.2" fill="#5E5E5E" width="18.9" height="3.8"/>
	</g>
	<polygon fill="none" stroke="#BDBFC0" stroke-width="1.2012" stroke-linejoin="round" stroke-miterlimit="10" points="1122.1,43.2 
		1124.6,48.4 1130.4,49.2 1126.2,53.3 1127.2,59 1122.1,56.3 1116.9,59 1117.9,53.3 1113.8,49.2 1119.5,48.4 	"/>
</g>
</svg>
