<?xml version="1.0" encoding="UTF-8"?>
<svg width="893px" height="200px" viewBox="0 0 893 200" version="1.1" xmlns="http://www.w3.org/2000/svg" xmlns:xlink="http://www.w3.org/1999/xlink">
    <!-- Generator: Sketch 64 (93537) - https://sketch.com -->
    <title>Group 22</title>
    <desc>Created with Sketch.</desc>
    <g id="Page-1" stroke="none" stroke-width="1" fill="none" fill-rule="evenodd">
        <g id="Cell-Analytics" transform="translate(-274.000000, -15346.000000)">
            <g id="Group-22" transform="translate(274.000000, 15346.000000)">
                <polygon id="Fill-1" fill="#EFC700" points="592.5 11 618.921108 64.6552373 678 73.2601103 635.249409 115.026958 645.342216 174 592.5 146.157013 539.657784 174 549.749409 115.026958 507 73.2601103 566.078892 64.6552373"></polygon>
                <path d="M346,62.4994076 C346,94.8089765 319.809242,121 287.5,121 C255.191943,121 229,94.8089765 229,62.4994076 C229,30.1898387 255.191943,4 287.5,4 C319.809242,4 346,30.1898387 346,62.4994076" id="Fill-2" fill-opacity="0.8" fill="#5691B6"></path>
                <text id="Ideate" font-family="Quicksand-Medium, Quicksand" font-size="16" font-weight="400" fill="#FFFFFF">
                    <tspan x="262.772" y="64">Id</tspan>
                    <tspan x="276.66" y="64" letter-spacing="0.064">e</tspan>
                    <tspan x="285.812" y="64">a</tspan>
                    <tspan x="295.556" y="64" letter-spacing="-0.08">t</tspan>
                    <tspan x="301.204" y="64">e</tspan>
                </text>
                <path d="M447,62.4994076 C447,94.8089765 420.808976,121 388.499408,121 C356.191024,121 330,94.8089765 330,62.4994076 C330,30.1898387 356.191024,4 388.499408,4 C420.808976,4 447,30.1898387 447,62.4994076" id="Fill-4" fill-opacity="0.8" fill="#5691B6"></path>
                <text id="User-Test" font-family="Quicksand-Medium, Quicksand" font-size="16" font-weight="400" fill="#FFFFFF">
                    <tspan x="358" y="63">User </tspan>
                    <tspan x="396.784" y="63" letter-spacing="-1.92">T</tspan>
                    <tspan x="402.72" y="63">est</tspan>
                </text>
                <path d="M395.843246,141.649145 C395.843246,173.876145 369.759346,200.000236 337.581926,200.000236 C305.405686,200.000236 279.321786,173.876145 279.321786,141.649145 C279.321786,109.422145 305.405686,83.2992364 337.581926,83.2992364 C369.759346,83.2992364 395.843246,109.422145 395.843246,141.649145" id="Fill-6" fill-opacity="0.8" fill="#5691B6"></path>
                <text id="Prototype" font-family="Quicksand-Medium, Quicksand" font-size="16" font-weight="400" fill="#FFFFFF">
                    <tspan x="300" y="150">P</tspan>
                    <tspan x="309.584" y="150" letter-spacing="-0.352">r</tspan>
                    <tspan x="315.296" y="150">o</tspan>
                    <tspan x="324.928" y="150" letter-spacing="-0.08">t</tspan>
                    <tspan x="330.576" y="150">otype</tspan>
                </text>
                <polygon id="Fill-9" fill="#EFC700" points="91 0 70.7514232 51.4554741 18.0241717 35.2550378 45.49941 83.2182732 0 114.473218 54.5126759 122.827363 50.5016663 178 91 140.455474 131.498334 178 127.487324 122.827363 182 114.473218 136.49941 83.2182732 163.975828 35.2550378 111.248577 51.4554741"></polygon>
                <text id="Re-Deﬁned-End-Goal" font-family="Quicksand-Medium, Quicksand" font-size="14" font-weight="400" letter-spacing="-0.07" fill="#000000">
                    <tspan x="555.589" y="99">R</tspan>
                    <tspan x="564.913" y="99">e-</tspan>
                    <tspan x="578.297" y="99" letter-spacing="0.112">D</tspan>
                    <tspan x="588.573" y="99">eﬁned </tspan>
                    <tspan x="563.191" y="117">End Goal </tspan>
                </text>
                <text id="End-Goal" font-family="Quicksand-Medium, Quicksand" font-size="14" font-weight="400" fill="#000000">
                    <tspan x="61.691" y="102">End Goal</tspan>
                </text>
                <polygon id="Fill-10" fill="#EFC700" points="791.483834 72.4838336 743 99.000591 791.483834 125.517348 818.000591 174 844.517348 125.517348 893 99.000591 844.517348 72.4838336 818.000591 24"></polygon>
                <text id="MVP" font-family="Quicksand-Medium, Quicksand" font-size="14" font-weight="400" fill="#000000">
                    <tspan x="803.856" y="98">MVP</tspan>
                </text>
                <line x1="178" y1="97.5" x2="207" y2="97.5" id="Stroke-11" stroke="#798A99" stroke-width="6" stroke-linecap="round" stroke-linejoin="round"></line>
                <polygon id="Fill-12" fill="#798A99" points="203 111 228 97 203 83"></polygon>
                <line x1="452" y1="97.5" x2="481" y2="97.5" id="Stroke-13" stroke="#798A99" stroke-width="6" stroke-linecap="round" stroke-linejoin="round"></line>
                <polygon id="Fill-14" fill="#798A99" points="477 111 502 97 477 83"></polygon>
                <line x1="679" y1="97.5" x2="708" y2="97.5" id="Stroke-15" stroke="#798A99" stroke-width="6" stroke-linecap="round" stroke-linejoin="round"></line>
                <polygon id="Fill-16" fill="#798A99" points="704 111 729 97 704 83"></polygon>
                <g id="Group-21" transform="translate(320.000000, 67.000000)" fill="#FFFFFF">
                    <path d="M31.4013032,20.4818833 C30.1946258,26.75155 24.5742065,31.3003833 18.0371419,31.3003833 C12.7425613,31.3003833 8.06743226,28.3277167 5.83191613,23.8733833 L7.90510968,23.5922167 L5.45952903,20.5227167 L3.01275484,17.4543833 L1.51723871,21.0593833 L0.0217225806,24.6643833 L2.93517419,24.2677167 C5.45475484,30.0917167 11.3317871,34.0513833 18.0371419,34.0513833 C25.9264968,34.0513833 32.7094323,28.5587167 34.1655613,20.99055 L31.4013032,20.4818833 Z" id="Fill-17"></path>
                    <path d="M33.5033806,11.4926 C31.2237032,5.17393333 25.0840903,0.801266667 18.0373806,0.801266667 C10.0668645,0.801266667 3.2708,6.3616 1.87912258,14.0207667 L4.64934839,14.5014333 C5.80231613,8.1571 11.4322839,3.5511 18.0373806,3.5511 C23.6924129,3.5511 28.6432516,6.94843333 30.6651226,11.9172667 L28.1049613,12.2999333 L30.5935097,15.3356 L33.0820581,18.3712667 L34.5262516,14.7464333 L35.9716387,11.1227667 L33.5033806,11.4926 Z" id="Fill-19"></path>
                </g>
            </g>
        </g>
    </g>
</svg>