<svg id="Layer_1" data-name="Layer 1" xmlns="http://www.w3.org/2000/svg" viewBox="0 0 2350.12 2200.92"><defs><style>.cls-1,.cls-6{fill:#3d4752;}.cls-1,.cls-10,.cls-11,.cls-5,.cls-7,.cls-9{stroke:#000;stroke-opacity:0;}.cls-2{fill:#fff;}.cls-3{fill:none;stroke:#666;}.cls-4{fill:#666;}.cls-5{fill:#d7dde0;}.cls-10,.cls-7{fill:#d7e4f3;}.cls-8{fill:#f8f9fb;stroke:#d7dde0;}.cls-10,.cls-8{stroke-width:4px;}.cls-9{fill:#c0cacf;}.cls-11{fill:#bac3c6;}</style></defs><path class="cls-1" d="M975,8a8,8,0,0,1,8-8h383.44a8,8,0,0,1,8,8V82.05a8,8,0,0,1-8,8H983a8,8,0,0,1-8-8Z"/><g id="a"><path id="aU" class="cls-2" d="M1077.55,52.26l.18-18.89-5.92,18.89h-3.43l-5.83-18.89.18,18.89h-4.26v-23H1065l5.18,17.13,5.28-17.13h6.39v23h-4.26"/><path id="aV" class="cls-2" d="M1101.07,47.82a7.46,7.46,0,0,1-7.6,4.81c-5.55-.18-8.24-3.43-8.24-9.26s2.78-9.07,8.34-9.07c5.74,0,7.68,4.16,7.77,10h-11.29c0,2.87.74,5.09,3.61,5.18,1.67,0,2.78-.65,3.15-2Zm-4.17-6.39c.46-4.26-5.28-5.84-6.48-2a6,6,0,0,0-.37,2h6.85"/><path id="aW" class="cls-2" d="M1114.77,49.11c-1.48,1.76-2.78,3.61-5.93,3.52-3.42-.09-5.37-1.85-5.37-5.37-.09-5.56,5.1-5.83,10.74-5.65.1-2.41-.27-4.35-2.59-4.35a2.4,2.4,0,0,0-2.59,2.5l-4.82-.18c.65-3.52,3.34-5.38,7.6-5.28s6.85,2,6.94,6.29l.09,7.6c-.09,1.29,1.12,1.66,2.32,1.39v2.5C1118.38,52.82,1114.59,52.54,1114.77,49.11Zm-4.44.28c2.68,0,4-2.22,3.88-5.28-3,0-6.11-.28-6,2.78,0,1.57.74,2.5,2.13,2.5"/><path id="aX" class="cls-2" d="M1133.66,39.48c.09-2.68-6.48-3.15-6.57-.37,1.38,4.26,10.92.65,11,8,.1,7.68-15.18,7-15.92.83l4-.65c.37,1.76,1.85,2.32,4.07,2.32,3.06.74,5.28-2.78,2.23-3.8-4-1.3-9.45-1-9.63-6.11-.19-7.41,14.26-6.85,14.9-.65"/><path id="aY" class="cls-2" d="M1147.36,52.63c-8,.09-5.37-10.46-5.83-18h4.63c.65,5.28-2.13,13.89,3,14.53,5.56-.46,3.25-9,3.71-14.53h4.63l.09,17.59h-4.35c-.19-1.11.09-2.59-.28-3.52-1.11,2.32-2.59,3.89-5.65,3.89"/><path id="aZ" class="cls-2" d="M1172.27,38.37c-3.61-1.11-5.56,1.21-5.56,5.28v8.61h-4.62l-.1-17.59h4.35c.19,1.2-.09,2.68.28,3.7.56-2.59,2.5-4.91,5.65-3.79v3.79"/><path id="aV-2" data-name="aV" class="cls-2" d="M1189.86,47.82a7.43,7.43,0,0,1-7.59,4.81c-5.56-.18-8.24-3.43-8.24-9.26s2.78-9.07,8.33-9.07c5.74,0,7.69,4.16,7.78,10h-11.3c0,2.87.75,5.09,3.62,5.18,1.66,0,2.77-.65,3.14-2Zm-4.16-6.39c.46-4.26-5.28-5.84-6.49-2a6.26,6.26,0,0,0-.37,2h6.86"/><path id="ba" class="cls-2" d="M1199.4,34.3c2.87-.1,4.26,1.39,5.37,3.15l-.09-9.36h4.63l.09,24.17H1205a25.62,25.62,0,0,0-.28-2.87c-1,2.13-2.69,3.24-5.65,3.24-4.82,0-6.3-4.17-6.39-9.17C1192.64,38.28,1194.4,34.48,1199.4,34.3ZM1201,49.48c3.06,0,3.71-2.78,3.8-6.11s-.83-5.92-3.8-5.92-3.51,2.77-3.61,6c0,4,1.21,6,3.61,6"/></g><g id="b"><path id="bb" class="cls-2" d="M1223,29.3c11.11-.65,20.65.46,20.46,11.29-.09,7.41-4.07,11.67-11.2,11.67H1223Zm4.82,19.26c6.85.64,10.83-1.67,10.83-8s-4.17-8.14-10.83-7.59V48.56"/><path id="aW-2" data-name="aW" class="cls-2" d="M1257.08,49.11c-1.48,1.76-2.77,3.61-5.92,3.52-3.43-.09-5.37-1.85-5.37-5.37-.09-5.56,5.09-5.83,10.74-5.65.09-2.41-.28-4.35-2.59-4.35a2.41,2.41,0,0,0-2.6,2.5l-4.81-.18c.65-3.52,3.33-5.38,7.59-5.28s6.85,2,7,6.29l.09,7.6c-.09,1.29,1.11,1.66,2.31,1.39v2.5C1260.7,52.82,1256.9,52.54,1257.08,49.11Zm-4.44.28c2.69,0,4-2.22,3.89-5.28-3,0-6.11-.28-6,2.78,0,1.57.74,2.5,2.13,2.5"/><path id="bc" class="cls-2" d="M1273.94,52c-3.34,1.3-8.06.65-8.06-3.89V37.72h-2.22v-3h2.5l1.39-4.17h2.87v4.17h3.33v3h-3.33v9.17c-.09,2.13,1.48,2.87,3.52,2.31V52"/><path id="aW-3" data-name="aW" class="cls-2" d="M1286.62,49.11c-1.48,1.76-2.78,3.61-5.92,3.52-3.43-.09-5.37-1.85-5.37-5.37-.1-5.56,5.09-5.83,10.74-5.65.09-2.41-.28-4.35-2.6-4.35a2.41,2.41,0,0,0-2.59,2.5l-4.81-.18c.64-3.52,3.33-5.38,7.59-5.28s6.85,2,6.94,6.29l.1,7.6c-.1,1.29,1.11,1.66,2.31,1.39v2.5C1290.23,52.82,1286.44,52.54,1286.62,49.11Zm-4.44.28c2.68,0,4-2.22,3.89-5.28-3,0-6.11-.28-6,2.78,0,1.57.74,2.5,2.13,2.5"/></g><path class="cls-3" d="M1174.75,231.86V280h894.93v39.5"/><path class="cls-4" d="M1175.25,231.87h-1v-.5h1ZM2070.18,320h-1v-.5h1Z"/><path class="cls-5" d="M1034.35,587.45a8,8,0,0,1,8-8h158a8,8,0,0,1,8,8v74a8,8,0,0,1-8,8h-158a8,8,0,0,1-8-8Z"/><g id="c"><path id="bd" class="cls-6" d="M1115.59,626.48v3.8h-2v-3.8h-7.94v-1.7l7.74-11.34h2.24v11.34H1118v1.7Zm-2-10.59c-1.83,3.12-3.94,6.11-6,8.89h6v-8.89"/><path id="be" class="cls-6" d="M1128.35,630.55c-5.56,0-8.21-3.25-8.48-8.75-.34-7.27,6.79-10.46,13.1-7.54a5.58,5.58,0,0,1,2.51,2.92l-2.17.61c-.88-1.7-2.51-2.72-5.16-2.72-4.14,0-6,2.65-6,6.73s2,6.79,6.18,6.85a7.72,7.72,0,0,0,5.37-1.83v-3.06h-5v-1.9h7.13v5.84a10.15,10.15,0,0,1-7.47,2.85"/></g><path class="cls-7" d="M1037.73,692.73a8,8,0,0,1,8-8H1197a8,8,0,0,1,8,8v58.7a8,8,0,0,1-8,8H1045.73a8,8,0,0,1-8-8Z"/><g id="d"><path id="bf" class="cls-6" d="M1069.69,725.94V710.63h2v13.65h7.71v1.66h-9.75"/><path id="bg" class="cls-6" d="M1086.35,712.36v13.58h-2.09V712.36H1079v-1.73h12.59v1.73h-5.25"/><path id="bh" class="cls-6" d="M1093.89,725.94V710.63h11.54v1.73h-9.51v4.88h8.89v1.67h-8.89v5.37h10v1.66h-12"/></g><g id="e"><path id="bi" class="cls-6" d="M1127.4,715a4.07,4.07,0,0,1-3.7,4.32l4.32,6.6h-2.34l-4-6.35h-4.75v6.35h-2V710.63C1120.31,710.82,1127.53,709.34,1127.4,715Zm-10.49,3c3.7-.12,8.46.8,8.46-2.9s-4.94-2.59-8.46-2.78V718"/><path id="bj" class="cls-6" d="M1140.43,714.28c-.31-3-7.59-3.34-7.66.12.87,4.63,9.76.86,10.07,7.35.18,4.81-7.47,5.37-10.81,3.39a4.4,4.4,0,0,1-2-2.84l2-.43c.31,3.46,8.71,3.89,8.71-.06,0-4.82-9.57-.87-10-7.29-.31-5.06,9-5.18,11-2.1a6.07,6.07,0,0,1,.68,1.55"/><path id="bi-2" data-name="bi" class="cls-6" d="M1158.21,715a4.07,4.07,0,0,1-3.71,4.32l4.32,6.6h-2.34l-4-6.35h-4.76v6.35h-2V710.63C1151.11,710.82,1158.33,709.34,1158.21,715Zm-10.5,3c3.71-.12,8.46.8,8.46-2.9s-4.94-2.59-8.46-2.78V718"/><path id="bk" class="cls-6" d="M1161.66,710.63c5.37.07,11.79-.92,11.79,4.63,0,4.82-4.75,4.94-9.75,4.7v6h-2Zm2,7.72c3.52,0,7.65.68,7.65-3.09s-4.19-2.9-7.65-3v6.05"/></g><path class="cls-5" d="M1214,587.45a8,8,0,0,1,8-8h158a8,8,0,0,1,8,8v74a8,8,0,0,1-8,8H1222a8,8,0,0,1-8-8Z"/><g id="f"><path id="bl" class="cls-6" d="M1293.23,621.66c2.24.41,3.94,1.36,3.94,4,0,6-9.44,6.24-11.13,2a6.82,6.82,0,0,1-.41-1.7l2.17-.21a3.37,3.37,0,0,0,3.67,3c2.17,0,3.53-1,3.53-3.12,0-2.58-2.45-3.13-5.36-2.92v-1.9c2.64.06,4.88-.27,4.88-2.85,0-1.84-1.15-2.92-3.12-2.92s-3.19,1-3.33,2.78l-2.17-.2c.41-2.86,2.38-4.28,5.5-4.35s5.36,1.43,5.36,4.41c0,2.45-1.42,3.53-3.53,4"/><path id="be-2" data-name="be" class="cls-6" d="M1308,630.55c-5.57,0-8.22-3.25-8.49-8.75-.34-7.27,6.79-10.46,13.11-7.54a5.67,5.67,0,0,1,2.51,2.92l-2.17.61c-.89-1.7-2.52-2.72-5.17-2.72-4.14,0-6,2.65-6,6.73s2,6.79,6.18,6.85a7.67,7.67,0,0,0,5.36-1.83v-3.06h-5v-1.9h7.13v5.84a10.16,10.16,0,0,1-7.47,2.85"/></g><path class="cls-1" d="M1055.32,328a8,8,0,0,1,8-8h222.86a8,8,0,0,1,8,8v74.05a8,8,0,0,1-8,8H1063.32a8,8,0,0,1-8-8Z"/><g id="g"><path id="bm" class="cls-2" d="M1079.73,370.84V369h4.35V356.1l-3.81,2.65v-2l3.94-2.78h2v15h4.14v1.84h-10.59"/></g><g id="h"><path id="bn" class="cls-2" d="M1105.06,357.66c4.21-.06,5.77,2.52,5.77,6.73s-1.84,6.72-5.84,6.72-5.64-2.65-5.7-6.72C1099.29,359.9,1101.19,357.66,1105.06,357.66Zm-.07,11.82c3,.07,3.6-2.11,3.6-5.09s-.55-5.1-3.47-5.1-3.59,2.18-3.59,5.1.67,5,3.46,5.09"/><path id="bo" class="cls-2" d="M1119.59,359.77c-5.3-1.09-3.6,6.18-3.87,11.07h-2.18l-.06-12.9h2a17,17,0,0,0,.14,2.64c.41-1.83,1.56-3.32,3.94-2.78v2"/></g><g id="i"><path id="bp" class="cls-2" d="M1133.58,353.79c5.56-.47,6.31,5.91,2.91,9l-4.2,3.73a7.76,7.76,0,0,0-2,2.51h8.76v1.84h-11.14c.14-6.73,8.69-6.39,8.69-12.36,0-1.9-1.09-2.92-3.05-2.92a3,3,0,0,0-3.33,2.78l-2.17-.2c.4-2.78,2.3-4.07,5.5-4.35"/></g><g id="j"><path id="bq" class="cls-2" d="M1156.59,353.79c5.5,0,8.36,3.13,8.36,8.56s-3,8.76-8.36,8.76-8.35-3.33-8.35-8.76S1151.09,353.79,1156.59,353.79Zm0,15.42c4.28,0,6.05-2.79,6.05-6.86s-2-6.72-6.05-6.72-6,2.65-6,6.72,1.9,6.79,6,6.86"/><path id="br" class="cls-2" d="M1173.91,357.66c3.73.07,4.75,2.79,4.75,6.66s-1.08,6.65-4.75,6.79a4.17,4.17,0,0,1-4.08-2.31l.07,7.13h-2.17l-.07-18h2.11l.13,2A4,4,0,0,1,1173.91,357.66Zm-.54,11.82c2.71,0,3.05-2.31,3.05-5.09s-.41-5-3.05-5c-2.86,0-3.47,2.17-3.47,5.16s.68,5,3.47,5"/><path id="bs" class="cls-2" d="M1186.47,357.66c4.28,0,5.84,2.86,5.7,7.2H1183c0,2.72,1,4.55,3.6,4.62a3.15,3.15,0,0,0,3.32-2l1.9.54c-.74,1.9-2.51,3.06-5.22,3.06-3.94,0-6-2.51-5.91-6.79S1182.46,357.66,1186.47,357.66Zm3.53,5.5c.41-4.07-5.16-5.22-6.59-1.9a5.05,5.05,0,0,0-.4,1.9h7"/><path id="bo-2" data-name="bo" class="cls-2" d="M1201,359.77c-5.3-1.09-3.6,6.18-3.87,11.07H1195l-.07-12.9h2a15.93,15.93,0,0,0,.13,2.64c.41-1.83,1.56-3.32,3.94-2.78v2"/><path id="bt" class="cls-2" d="M1210.91,368.39c-1,1.43-2.1,2.79-4.61,2.72s-3.94-1.43-3.94-3.87c-.07-4.35,4.28-4.28,8.49-4.28.2-2.38-.61-3.67-2.79-3.67-1.63.07-2.78.48-2.85,2.11l-2.24-.21c.34-2.51,2.24-3.53,5.16-3.53S1213,359,1213,362v5.57c-.07,1.36.47,2.17,1.9,1.83v1.36C1212.82,371.38,1210.78,370.63,1210.91,368.39Zm-6.31-1.15a2,2,0,0,0,2.17,2.24c2.79-.2,4.28-2,4.08-5-2.92.14-6.25-.34-6.25,2.79"/><path id="bu" class="cls-2" d="M1218.93,367.65c-.14,1.63,1.22,2,2.58,1.49v1.63c-2.24.68-4.76.34-4.76-2.65V359.5h-1.49v-1.56h1.63l.61-2.92h1.43v2.92h2.37v1.56h-2.37v8.15"/><path id="bn-2" data-name="bn" class="cls-2" d="M1228.5,357.66c4.21-.06,5.77,2.52,5.77,6.73s-1.83,6.72-5.84,6.72-5.63-2.65-5.7-6.72C1222.73,359.9,1224.63,357.66,1228.5,357.66Zm-.07,11.82c3,.07,3.6-2.11,3.6-5.09s-.54-5.1-3.46-5.1-3.6,2.18-3.6,5.1.68,5,3.46,5.09"/><path id="bo-3" data-name="bo" class="cls-2" d="M1243,359.77c-5.29-1.09-3.6,6.18-3.87,11.07H1237l-.07-12.9h2a17.1,17.1,0,0,0,.13,2.64c.41-1.83,1.57-3.32,3.94-2.78v2"/><path id="bv" class="cls-2" d="M1249.28,375.93a17,17,0,0,1,0-22.82h2.1a17.17,17.17,0,0,0,0,22.82h-2.1"/><path id="bw" class="cls-2" d="M1260.62,361.13c-.21-2.31-5.84-2.58-5.91,0,1,3.6,7.81.81,8.08,6.11s-10.18,5-10.66.54l1.9-.34c.27,2.45,6.59,3.06,6.66,0-.68-3.8-7.68-1-8-6.11-.27-3.87,5.57-4.28,8.29-2.85a3.43,3.43,0,0,1,1.63,2.38"/><path id="bx" class="cls-2" d="M1265.91,353.11a16.94,16.94,0,0,1,0,22.82h-2.1a17.14,17.14,0,0,0,0-22.82h2.1"/></g><path class="cls-5" d="M1393.58,587.45a8,8,0,0,1,8-8h158a8,8,0,0,1,8,8v74a8,8,0,0,1-8,8h-158a8,8,0,0,1-8-8Z"/><g id="k"><path id="by" class="cls-6" d="M1471.15,613.24c5.57-.48,6.32,5.91,2.92,9l-4.21,3.74a7.79,7.79,0,0,0-2,2.51h8.76v1.83h-11.13c.13-6.72,8.69-6.38,8.69-12.35,0-1.91-1.09-2.92-3.06-2.92a3,3,0,0,0-3.33,2.78l-2.17-.2c.41-2.79,2.31-4.08,5.5-4.35"/><path id="be-3" data-name="be" class="cls-6" d="M1487.58,630.55c-5.56,0-8.21-3.25-8.48-8.75-.34-7.27,6.79-10.46,13.1-7.54a5.62,5.62,0,0,1,2.51,2.92l-2.17.61c-.88-1.7-2.51-2.72-5.16-2.72-4.14,0-6,2.65-6,6.73s2,6.79,6.18,6.85a7.72,7.72,0,0,0,5.37-1.83v-3.06h-5v-1.9h7.13v5.84a10.16,10.16,0,0,1-7.47,2.85"/></g><path class="cls-7" d="M1037.73,781.22a8,8,0,0,1,8-8H1197a8,8,0,0,1,8,8v58.72a8,8,0,0,1-8,8H1045.73a8,8,0,0,1-8-8Z"/><path class="cls-3" d="M1121.34,759.94v12.78"/><path class="cls-4" d="M1121.84,760h-1v-.52h1Zm0,13.26h-1v-.5h1Z"/><path class="cls-3" d="M1121.34,848.44v12.78"/><path class="cls-4" d="M1121.84,848.45h-1V848h1Zm0,13.27h-1v-.5h1Z"/><path class="cls-1" d="M1950.24,328a8,8,0,0,1,8-8h222.87a8,8,0,0,1,8,8v74.05a8,8,0,0,1-8,8H1958.25a8,8,0,0,1-8-8Z"/><g id="m"><path id="bA-2" data-name="bA" class="cls-2" d="M2012.51,348.57l-1.9-4.89h-7.68l-1.9,4.89h-2.37l6.85-16.84h2.58l6.73,16.84Zm-2.58-6.73-3.19-8.35c-.82,3.06-2.11,5.57-3.13,8.35h6.32"/><path id="bB-2" data-name="bB" class="cls-2" d="M2016.51,348.57V330.84h2.18v17.73h-2.18"/><path id="bB-3" data-name="bB" class="cls-2" d="M2021.88,348.57V330.84h2.17v17.73h-2.17"/></g><g id="n"><path id="bq-2" data-name="bq" class="cls-2" d="M2041.91,331.52c5.5,0,8.35,3.13,8.35,8.56s-3,8.76-8.35,8.76-8.35-3.33-8.35-8.76S2036.41,331.52,2041.91,331.52Zm0,15.42c4.28,0,6-2.79,6-6.86s-2-6.72-6-6.72-6,2.64-6,6.72,1.9,6.79,6,6.86"/><path id="br-2" data-name="br" class="cls-2" d="M2059.22,335.39c3.74.07,4.76,2.79,4.76,6.66s-1.09,6.65-4.76,6.79a4.18,4.18,0,0,1-4.07-2.31l.07,7.13h-2.17l-.07-18h2.1l.14,2A4,4,0,0,1,2059.22,335.39Zm-.54,11.82c2.72,0,3.06-2.31,3.06-5.1s-.41-4.95-3.06-5c-2.85,0-3.46,2.17-3.46,5.16s.68,5,3.46,5"/><path id="bs-2" data-name="bs" class="cls-2" d="M2071.79,335.39c4.27,0,5.84,2.85,5.7,7.2h-9.17c0,2.72.95,4.55,3.6,4.62a3.16,3.16,0,0,0,3.33-2l1.9.54c-.75,1.9-2.51,3.06-5.23,3.06-3.94,0-6-2.52-5.91-6.79S2067.78,335.39,2071.79,335.39Zm3.53,5.5c.4-4.07-5.16-5.23-6.59-1.9a5,5,0,0,0-.41,1.9h7"/><path id="bo-4" data-name="bo" class="cls-2" d="M2086.32,337.5c-5.3-1.09-3.6,6.18-3.87,11.07h-2.18l-.06-12.91h2a16,16,0,0,0,.14,2.65c.41-1.83,1.56-3.32,3.94-2.78v2"/><path id="bt-2" data-name="bt" class="cls-2" d="M2096.23,346.12c-1,1.43-2.1,2.79-4.62,2.72s-3.94-1.43-3.94-3.87c-.06-4.35,4.28-4.28,8.49-4.28.21-2.38-.61-3.67-2.78-3.67-1.63.07-2.79.48-2.85,2.11l-2.24-.21c.34-2.51,2.24-3.53,5.16-3.53s4.89,1.36,4.89,4.35v5.57c-.07,1.35.47,2.17,1.9,1.83v1.36C2098.13,349.11,2096.09,348.36,2096.23,346.12Zm-6.31-1.15a2.05,2.05,0,0,0,2.17,2.24c2.78-.21,4.28-2,4.07-5-2.92.14-6.24-.34-6.24,2.79"/><path id="bu-2" data-name="bu" class="cls-2" d="M2104.24,345.37c-.13,1.63,1.23,2,2.58,1.5v1.63c-2.24.68-4.75.34-4.75-2.65v-8.62h-1.49v-1.57h1.63l.61-2.92h1.42v2.92h2.38v1.57h-2.38v8.14"/><path id="bn-3" data-name="bn" class="cls-2" d="M2113.82,335.39c4.21-.07,5.77,2.52,5.77,6.72s-1.83,6.73-5.84,6.73-5.64-2.65-5.7-6.73C2108.05,337.63,2110,335.39,2113.82,335.39Zm-.07,11.82c3,.07,3.6-2.11,3.6-5.1s-.55-5.09-3.47-5.09-3.59,2.18-3.59,5.09.68,5,3.46,5.1"/><path id="bo-5" data-name="bo" class="cls-2" d="M2128.35,337.5c-5.3-1.09-3.6,6.18-3.87,11.07h-2.18l-.06-12.91h2a17.11,17.11,0,0,0,.14,2.65c.41-1.83,1.56-3.32,3.94-2.78v2"/><path id="bw-2" data-name="bw" class="cls-2" d="M2137.85,338.86c-.2-2.31-5.84-2.58-5.9,0,1,3.59,7.81.81,8.08,6.11s-10.19,5-10.66.54l1.9-.34c.27,2.44,6.58,3.06,6.65,0-.68-3.8-7.67-1-8-6.11-.27-3.87,5.57-4.28,8.28-2.85a3.38,3.38,0,0,1,1.63,2.37"/></g><g id="o"><path id="bC-2" data-name="bC" class="cls-2" d="M2027.21,365.74c-.68-1.9-2.38-3.05-5-3.05-4,0-5.91,2.72-5.91,6.72s2,6.86,6.05,6.86c2.92,0,4.21-1.63,5.29-3.53l1.84.95a7.48,7.48,0,0,1-7.27,4.48c-5.43,0-7.94-3.39-8.21-8.76-.41-7.06,6.72-10.39,12.69-7.54a5.53,5.53,0,0,1,2.65,3.13"/><path id="bn-4" data-name="bn" class="cls-2" d="M2037.19,364.73c4.21-.07,5.77,2.51,5.77,6.72s-1.83,6.72-5.84,6.72-5.63-2.65-5.7-6.72C2031.42,367,2033.32,364.73,2037.19,364.73Zm-.07,11.81c3,.07,3.6-2.1,3.6-5.09s-.54-5.09-3.46-5.09-3.6,2.17-3.6,5.09.68,5,3.46,5.09"/><path id="bD-2" data-name="bD" class="cls-2" d="M2058.24,366.42c-4.55.21-2.58,7.13-3,11.48h-2.1v-8.22c0-2-.34-3.39-2.38-3.26-4.48.28-2.58,7.07-3,11.48h-2.1l-.07-12.9h2a11.41,11.41,0,0,0,.13,2.17c.68-3,6.73-3.39,7.27,0a4.14,4.14,0,0,1,3.94-2.44c5.77-.14,3.19,8.08,3.73,13.17h-2.1v-8.22c0-2-.34-3.32-2.38-3.26"/><path id="br-3" data-name="br" class="cls-2" d="M2072.09,364.73c3.74.06,4.75,2.78,4.75,6.65s-1.08,6.65-4.75,6.79a4.15,4.15,0,0,1-4.07-2.31l.07,7.13h-2.18l-.07-18H2068l.14,2A4,4,0,0,1,2072.09,364.73Zm-.54,11.81c2.71,0,3-2.31,3-5.09s-.4-5-3-5c-2.85,0-3.46,2.18-3.46,5.16s.67,5,3.46,5"/><path id="bt-3" data-name="bt" class="cls-2" d="M2087.44,375.45c-1,1.43-2.11,2.79-4.62,2.72s-3.94-1.43-3.94-3.87c-.07-4.35,4.28-4.28,8.49-4.28.2-2.37-.61-3.66-2.78-3.66-1.63.06-2.79.47-2.86,2.1l-2.24-.2c.34-2.52,2.24-3.53,5.16-3.53s4.89,1.35,4.89,4.34v5.57c-.07,1.36.48,2.17,1.9,1.83v1.36C2089.34,378.44,2087.3,377.7,2087.44,375.45Zm-6.32-1.15a2.05,2.05,0,0,0,2.18,2.24c2.78-.2,4.27-2,4.07-5-2.92.13-6.25-.34-6.25,2.78"/><path id="bo-6" data-name="bo" class="cls-2" d="M2099.18,366.83c-5.29-1.09-3.59,6.18-3.87,11.07h-2.17l-.07-12.9h2a16,16,0,0,0,.14,2.65c.4-1.84,1.56-3.33,3.93-2.79v2"/><path id="bs-3" data-name="bs" class="cls-2" d="M2106.31,364.73c4.28,0,5.84,2.85,5.71,7.19h-9.17c0,2.72,1,4.55,3.6,4.62a3.15,3.15,0,0,0,3.33-2l1.9.54c-.75,1.91-2.51,3.06-5.23,3.06-3.94,0-6-2.51-5.91-6.79S2102.31,364.73,2106.31,364.73Zm3.53,5.5c.41-4.08-5.16-5.23-6.58-1.91a4.87,4.87,0,0,0-.41,1.91h7"/><path id="bE-4" data-name="bE" class="cls-2" d="M2118.88,364.73A4.3,4.3,0,0,1,2123,367l-.07-6.79h2.17l.07,17.72h-2a18.14,18.14,0,0,0-.21-2.11c-.68,1.57-1.9,2.38-4,2.38-3.6,0-4.69-2.65-4.76-6.65C2114.12,367,2115.68,364.73,2118.88,364.73Zm.61,1.63c-2.72,0-3.13,2.3-3.13,5.09s.41,5,3.06,5c2.85,0,3.46-2.17,3.46-5.16s-.61-5-3.39-4.95"/></g><path class="cls-7" d="M2165.38,652.8a8,8,0,0,1,8-8h158a8,8,0,0,1,8,8v63.47a8,8,0,0,1-8,8h-158a8,8,0,0,1-8-8Z"/><path class="cls-8" d="M876.62,128c0-4.42,3.12-8,6.93-8h573c3.81,0,6.93,3.58,6.93,8v93.36c0,4.42-3.12,8-6.93,8h-573c-3.81,0-6.93-3.58-6.93-8Z"/><g id="s"><path id="bO-7" data-name="bO" class="cls-6" d="M1140.22,150v5.7h9.41v3h-9.41v6.74h-3.85V147h13.56v3h-9.71"/><path id="bP-2" data-name="bP" class="cls-6" d="M1152.67,148.8v-2.74h3.7v2.74Zm0,16.6V151.32h3.7V165.4h-3.7"/><path id="bQ-3" data-name="bQ" class="cls-6" d="M1160.07,165.4V146.06h3.71V165.4h-3.71"/><path id="bR-4" data-name="bR" class="cls-6" d="M1174.15,165.17c-2.67,1-6.45.52-6.45-3.11v-8.29h-1.77v-2.45h2L1169,148h2.29v3.33H1174v2.45h-2.67v7.33c-.07,1.7,1.19,2.3,2.82,1.85v2.22"/><path id="bS-4" data-name="bS" class="cls-6" d="M1188.15,161.84a5.94,5.94,0,0,1-6.08,3.85c-4.44-.15-6.59-2.74-6.59-7.41s2.22-7.25,6.67-7.25,6.15,3.33,6.22,8h-9c0,2.29.6,4.07,2.89,4.14a2.27,2.27,0,0,0,2.52-1.63Zm-3.34-5.11c.38-3.41-4.22-4.67-5.18-1.56a4.86,4.86,0,0,0-.3,1.56h5.48"/><path id="bT-4" data-name="bT" class="cls-6" d="M1199.26,154.28c-2.89-.88-4.45,1-4.45,4.23v6.89h-3.7l-.07-14.08h3.48a18.28,18.28,0,0,0,.22,3c.45-2.07,2-3.92,4.52-3v3"/><path id="bU-3" data-name="bU" class="cls-6" d="M1209.78,155.17c.07-2.14-5.19-2.51-5.26-.29,1.11,3.4,8.74.52,8.81,6.37.08,6.15-12.14,5.63-12.74.66l3.19-.51c.29,1.4,1.48,1.85,3.26,1.85,2.44.59,4.22-2.22,1.77-3-3.18-1-7.55-.81-7.7-4.89-.15-5.92,11.41-5.48,11.93-.52"/></g><g id="t"><path id="bV-2" data-name="bV" class="cls-6" d="M948.9,198.82V182h2.31v16.84H948.9"/><path id="bK-2" data-name="bK" class="cls-6" d="M961.4,185.65c6-.28,3.6,7.87,4.07,13.17H963.3V190.6c0-2.1-.54-3.33-2.65-3.26-4.89.14-3,6.93-3.33,11.48h-2.17l-.07-12.9h2a10.6,10.6,0,0,0,.14,2.17,4.28,4.28,0,0,1,4.14-2.44"/><path id="bW-3" data-name="bW" class="cls-6" d="M972.81,185.65a4.3,4.3,0,0,1,4.07,2.24l-.07-6.79H979l.07,17.72h-2a18.14,18.14,0,0,0-.21-2.11,3.87,3.87,0,0,1-4,2.38c-3.6,0-4.69-2.65-4.76-6.65C968.05,188,969.61,185.65,972.81,185.65Zm.61,1.62c-2.72,0-3.13,2.31-3.13,5.1s.41,5,3.06,5c2.85,0,3.46-2.17,3.46-5.16s-.61-5-3.39-5"/><path id="bX-2" data-name="bX" class="cls-6" d="M987.4,185.65c4.21-.07,5.78,2.51,5.78,6.72s-1.84,6.72-5.84,6.72-5.64-2.65-5.71-6.72C981.63,187.89,983.53,185.65,987.4,185.65Zm-.06,11.81c3,.07,3.6-2.1,3.6-5.09s-.55-5.1-3.47-5.1-3.6,2.18-3.6,5.1.68,5,3.47,5.09"/><path id="bX-3" data-name="bX" class="cls-6" d="M1001,185.65c4.21-.07,5.78,2.51,5.78,6.72s-1.84,6.72-5.84,6.72-5.64-2.65-5.71-6.72C995.21,187.89,997.11,185.65,1001,185.65Zm-.06,11.81c3,.07,3.6-2.1,3.6-5.09s-.55-5.1-3.47-5.1-3.6,2.18-3.6,5.1.68,5,3.47,5.09"/><path id="bI-3" data-name="bI" class="cls-6" d="M1015.52,187.75c-5.3-1.09-3.6,6.18-3.88,11.07h-2.17l-.07-12.9h2a15.83,15.83,0,0,0,.14,2.64c.4-1.83,1.56-3.32,3.94-2.78v2"/><path id="bY-2" data-name="bY" class="cls-6" d="M1015.85,199.09l4.89-18h1.9l-4.88,18h-1.91"/><path id="bZ" class="cls-6" d="M1032.15,181.77c5.5,0,8.35,3.13,8.35,8.56s-3,8.76-8.35,8.76-8.35-3.33-8.35-8.76S1026.65,181.77,1032.15,181.77Zm0,15.42c4.28,0,6-2.79,6-6.86s-2-6.72-6-6.72-6,2.65-6,6.72,1.9,6.79,6,6.86"/><path id="ca" class="cls-6" d="M1047.36,199.09c-6,.27-3.67-7.88-4.14-13.17h2.17v8.14c0,2.11.48,3.4,2.65,3.33,4.89-.13,3.06-6.86,3.4-11.47h2.1l.07,12.9h-2a12.17,12.17,0,0,0-.13-2.24,4.26,4.26,0,0,1-4.08,2.51"/><path id="bM-2" data-name="bM" class="cls-6" d="M1059.24,195.63c-.13,1.63,1.23,2,2.58,1.49v1.63c-2.24.68-4.75.34-4.75-2.65v-8.62h-1.49v-1.56h1.63l.61-2.92h1.42v2.92h2.38v1.56h-2.38v8.15"/><path id="bW-4" data-name="bW" class="cls-6" d="M1067.8,185.65a4.29,4.29,0,0,1,4.07,2.24l-.06-6.79H1074l.07,17.72h-2a20.77,20.77,0,0,0-.2-2.11,3.88,3.88,0,0,1-4,2.38c-3.6,0-4.69-2.65-4.75-6.65C1063.05,188,1064.61,185.65,1067.8,185.65Zm.61,1.62c-2.72,0-3.12,2.31-3.12,5.1s.4,5,3,5c2.85,0,3.47-2.17,3.47-5.16s-.62-5-3.4-5"/><path id="bX-4" data-name="bX" class="cls-6" d="M1082.4,185.65c4.21-.07,5.77,2.51,5.77,6.72s-1.83,6.72-5.84,6.72-5.64-2.65-5.7-6.72C1076.63,187.89,1078.53,185.65,1082.4,185.65Zm-.07,11.81c3,.07,3.6-2.1,3.6-5.09s-.54-5.1-3.46-5.1-3.6,2.18-3.6,5.1.68,5,3.46,5.09"/><path id="bX-5" data-name="bX" class="cls-6" d="M1096,185.65c4.21-.07,5.77,2.51,5.77,6.72s-1.83,6.72-5.84,6.72-5.64-2.65-5.7-6.72C1090.21,187.89,1092.11,185.65,1096,185.65Zm-.07,11.81c3,.07,3.6-2.1,3.6-5.09s-.54-5.1-3.46-5.1-3.6,2.18-3.6,5.1.68,5,3.46,5.09"/><path id="bI-4" data-name="bI" class="cls-6" d="M1110.51,187.75c-5.3-1.09-3.6,6.18-3.87,11.07h-2.17l-.07-12.9h2a15.88,15.88,0,0,0,.13,2.64c.41-1.83,1.56-3.32,3.94-2.78v2"/><path id="cb" class="cls-6" d="M1114.11,196.24c.07,2.31,0,4.41-.95,5.7h-1.5a5.12,5.12,0,0,0,1.16-3.12h-1.09v-2.58h2.38"/></g><g id="u"><path id="bJ-2" data-name="bJ" class="cls-6" d="M1125.11,182c8-.48,14.66.54,14.46,8.28-.2,5.3-2.92,8.56-8.22,8.56h-6.24Zm2.24,15c6,.55,9.91-1.08,9.91-6.72s-4.07-6.86-9.91-6.45V197"/><path id="cc" class="cls-6" d="M1150.23,196.37c-1,1.43-2.1,2.79-4.62,2.72s-3.93-1.43-3.93-3.87c-.07-4.35,4.27-4.28,8.48-4.28.21-2.38-.61-3.67-2.78-3.67-1.63.07-2.78.48-2.85,2.11l-2.24-.2c.34-2.52,2.24-3.53,5.16-3.53s4.89,1.35,4.89,4.34v5.57c-.07,1.36.47,2.17,1.9,1.83v1.36C1152.13,199.36,1150.1,198.61,1150.23,196.37Zm-6.31-1.15a2,2,0,0,0,2.17,2.24c2.78-.2,4.28-2,4.07-5-2.92.13-6.24-.34-6.24,2.78"/><path id="bM-3" data-name="bM" class="cls-6" d="M1158.24,195.63c-.13,1.63,1.23,2,2.58,1.49v1.63c-2.24.68-4.75.34-4.75-2.65v-8.62h-1.49v-1.56h1.63l.61-2.92h1.42v2.92h2.38v1.56h-2.38v8.15"/><path id="bH-2" data-name="bH" class="cls-6" d="M1167.82,185.65c4.28,0,5.84,2.85,5.7,7.19h-9.17c0,2.72,1,4.55,3.6,4.62a3.15,3.15,0,0,0,3.33-2l1.9.54c-.74,1.91-2.51,3.06-5.23,3.06-3.93,0-6-2.51-5.9-6.79S1163.81,185.65,1167.82,185.65Zm3.53,5.5c.41-4.08-5.16-5.23-6.59-1.91a5.05,5.05,0,0,0-.41,1.91h7"/><path id="cb-2" data-name="cb" class="cls-6" d="M1179.23,196.24c.06,2.31,0,4.41-1,5.7h-1.49a5.12,5.12,0,0,0,1.16-3.12h-1.09v-2.58h2.38"/></g><g id="v"><path id="bg-2" data-name="bg" class="cls-6" d="M1196.81,183.88v14.94h-2.31V183.88h-5.77V182h13.85v1.9h-5.77"/><path id="bH-3" data-name="bH" class="cls-6" d="M1207.13,185.65c4.28,0,5.84,2.85,5.71,7.19h-9.17c0,2.72.95,4.55,3.6,4.62a3.16,3.16,0,0,0,3.33-2l1.9.54c-.75,1.91-2.52,3.06-5.23,3.06-3.94,0-6-2.51-5.91-6.79S1203.13,185.65,1207.13,185.65Zm3.53,5.5c.41-4.08-5.16-5.23-6.58-1.91a4.87,4.87,0,0,0-.41,1.91h7"/><path id="cd" class="cls-6" d="M1220.44,187.34c-2.71,0-3.26,2.24-3.26,5s.61,5.09,3.26,5.09a2.7,2.7,0,0,0,2.92-2.58l2.17.14a4.65,4.65,0,0,1-5,4.14c-4,0-5.16-2.78-5.57-6.72-.68-6.32,6.86-8.9,10-4.35a5.72,5.72,0,0,1,.48,1.5l-2.17.2a2.61,2.61,0,0,0-2.79-2.38"/><path id="ce" class="cls-6" d="M1233.34,187.34c-4.89,0-3,6.93-3.32,11.48h-2.18V181.1H1230l-.07,7a4.28,4.28,0,0,1,4.14-2.44c6,0,3.6,7.87,4.07,13.17H1236V190.6c.14-2.17-.54-3.33-2.65-3.26"/><path id="bK-3" data-name="bK" class="cls-6" d="M1247.67,185.65c6-.28,3.6,7.87,4.07,13.17h-2.17V190.6c0-2.1-.54-3.33-2.65-3.26-4.89.14-3,6.93-3.32,11.48h-2.18l-.07-12.9h2a10.6,10.6,0,0,0,.14,2.17,4.28,4.28,0,0,1,4.14-2.44"/><path id="bX-6" data-name="bX" class="cls-6" d="M1260.1,185.65c4.21-.07,5.77,2.51,5.77,6.72s-1.84,6.72-5.84,6.72-5.64-2.65-5.71-6.72C1254.32,187.89,1256.23,185.65,1260.1,185.65Zm-.07,11.81c3,.07,3.6-2.1,3.6-5.09s-.55-5.1-3.47-5.1-3.6,2.18-3.6,5.1.68,5,3.47,5.09"/><path id="cf" class="cls-6" d="M1268.52,198.82V181.1h2.17v17.72h-2.17"/><path id="bX-7" data-name="bX" class="cls-6" d="M1279,185.65c4.21-.07,5.77,2.51,5.77,6.72s-1.83,6.72-5.84,6.72-5.63-2.65-5.7-6.72C1273.27,187.89,1275.17,185.65,1279,185.65Zm-.07,11.81c3,.07,3.6-2.1,3.6-5.09s-.54-5.1-3.46-5.1-3.6,2.18-3.6,5.1.68,5,3.46,5.09"/><path id="cg" class="cls-6" d="M1297.85,185.92c-.68,8.48,2.78,19.89-7.47,17.72a3.89,3.89,0,0,1-3-2.92l2.17-.34c1,3.19,6.79,2.17,6-1.9v-2a4.3,4.3,0,0,1-4.14,2.45c-3.67,0-4.62-2.79-4.62-6.52s1.09-6.59,4.82-6.66a4.39,4.39,0,0,1,4,2.38,21.27,21.27,0,0,1,.13-2.17Zm-5.64,11.4c2.45,0,3.4-2.17,3.4-4.95s-.95-5.1-3.4-5.1c-2.65,0-3.12,2.31-3.12,5.1s.41,4.95,3.12,4.95"/><path id="bN-5" data-name="bN" class="cls-6" d="M1311.56,185.92l-5.83,15c-1,1.9-2.52,3.47-5.5,2.85v-1.62c2.64.4,3.59-1.36,4.34-3.4l-5.09-12.83h2.31l3.87,10.59,3.66-10.59h2.24"/><path id="cb-3" data-name="cb" class="cls-6" d="M1314.42,196.24c.06,2.31,0,4.41-1,5.7H1312a5.12,5.12,0,0,0,1.16-3.12H1312v-2.58h2.38"/></g><g id="w"><path id="ch" class="cls-6" d="M1334.24,189.92c2.38.34,4.15,1.56,4.15,4.14,0,5.91-7.2,4.62-13,4.76V182c5.16.2,12-1.16,12,4.07A3.72,3.72,0,0,1,1334.24,189.92Zm-6.58-.74c3.39-.07,7.47.61,7.47-2.86,0-3.19-4.28-2.44-7.47-2.51Zm0,7.8c3.73-.13,8.42,1,8.42-3,0-3.8-4.76-2.85-8.42-3v6"/><path id="cc-2" data-name="cc" class="cls-6" d="M1349.25,196.37c-1,1.43-2.11,2.79-4.62,2.72s-3.94-1.43-3.94-3.87c-.06-4.35,4.28-4.28,8.49-4.28.21-2.38-.61-3.67-2.78-3.67-1.63.07-2.79.48-2.85,2.11l-2.24-.2c.33-2.52,2.24-3.53,5.16-3.53s4.88,1.35,4.88,4.34v5.57c-.06,1.36.48,2.17,1.91,1.83v1.36C1351.15,199.36,1349.11,198.61,1349.25,196.37Zm-6.32-1.15a2.05,2.05,0,0,0,2.18,2.24c2.78-.2,4.28-2,4.07-5-2.92.13-6.25-.34-6.25,2.78"/><path id="bK-4" data-name="bK" class="cls-6" d="M1361.2,185.65c6-.28,3.6,7.87,4.07,13.17h-2.17V190.6c0-2.1-.54-3.33-2.65-3.26-4.89.14-3,6.93-3.32,11.48H1355l-.06-12.9h2a10.6,10.6,0,0,0,.14,2.17,4.29,4.29,0,0,1,4.14-2.44"/><path id="bW-5" data-name="bW" class="cls-6" d="M1372.61,185.65a4.29,4.29,0,0,1,4.07,2.24l-.07-6.79h2.18l.06,17.72h-2a18.14,18.14,0,0,0-.21-2.11,3.87,3.87,0,0,1-4,2.38c-3.6,0-4.69-2.65-4.76-6.65C1367.85,188,1369.42,185.65,1372.61,185.65Zm.61,1.62c-2.72,0-3.12,2.31-3.12,5.1s.4,5,3.05,5c2.85,0,3.46-2.17,3.46-5.16s-.61-5-3.39-5"/><path id="bG-3" data-name="bG" class="cls-6" d="M1389.58,189.11c-.2-2.31-5.84-2.58-5.9,0,1,3.6,7.8.81,8.08,6.11s-10.19,5-10.66.54l1.9-.34c.27,2.45,6.58,3.06,6.65,0-.68-3.8-7.67-1-8-6.11-.27-3.87,5.57-4.28,8.28-2.85a3.4,3.4,0,0,1,1.63,2.38"/></g><path class="cls-7" d="M1982.7,649.26a8,8,0,0,1,8-8h158a8,8,0,0,1,8,8v67a8,8,0,0,1-8,8h-158a8,8,0,0,1-8-8Z"/><path class="cls-7" d="M1982.7,835.3a8,8,0,0,1,8-8h158a8,8,0,0,1,8,8v67a8,8,0,0,1-8,8h-158a8,8,0,0,1-8-8Z"/><path class="cls-7" d="M1982.7,742.27a8,8,0,0,1,8-8h158a8,8,0,0,1,8,8v67a8,8,0,0,1-8,8h-158a8,8,0,0,1-8-8Z"/><path class="cls-7" d="M1220.7,1417.23a8,8,0,0,1,8-8h151.24a8,8,0,0,1,8,8V1474a8,8,0,0,1-8,8H1228.7a8,8,0,0,1-8-8Z"/><path class="cls-3" d="M1301,670v369.36h3.38v369.37"/><path class="cls-4" d="M1301.45,670h-1v-.5h1Zm3.38,739.23h-1v-.5h1Z"/><path class="cls-9" d="M665.42,468a8,8,0,0,1,8-8h158a8,8,0,0,1,8,8v74a8,8,0,0,1-8,8h-158a8,8,0,0,1-8-8Z"/><g id="D-2" data-name="D"><path id="cm" class="cls-6" d="M746.17,510.84h-2.71l-3.8-14.26-3.74,14.26H733.2l-5-16.84h2.37l4,14.8,1-4.35L738.57,494h2.17l4,14.8,4-14.8h2.38"/><path id="bL-2" data-name="bL" class="cls-6" d="M752.76,495.15v-2h2.17v2Zm0,15.69v-12.9h2.17v12.9h-2.17"/><path id="cn" class="cls-6" d="M760.77,495.9v6.25h9.37v1.9h-9.37v6.79h-2.24V494h11.88v1.9h-9.64"/><path id="bL-3" data-name="bL" class="cls-6" d="M773,495.15v-2h2.17v2Zm0,15.69v-12.9h2.17v12.9H773"/></g><path class="cls-7" d="M668.8,614a8,8,0,0,1,8-8H828a8,8,0,0,1,8,8v56.76a8,8,0,0,1-8,8H676.8a8,8,0,0,1-8-8Z"/><g id="E-2" data-name="E"><path id="cm-2" data-name="cm" class="cls-6" d="M720.1,632.77h-2.47l-3.45-13-3.4,13h-2.47l-4.51-15.31H706l3.64,13.46.92-3.95,2.66-9.51h2l3.64,13.46,3.65-13.46h2.16"/><path id="bL-4" data-name="bL" class="cls-6" d="M726.09,618.51v-1.85h2v1.85Zm0,14.26V621h2v11.73h-2"/><path id="cn-2" data-name="cn" class="cls-6" d="M733.37,619.19v5.68h8.52v1.73h-8.52v6.17h-2V617.46h10.8v1.73h-8.77"/><path id="bL-5" data-name="bL" class="cls-6" d="M744.48,618.51v-1.85h2v1.85Zm0,14.26V621h2v11.73h-2"/></g><g id="F-2" data-name="F"><path id="bJ-3" data-name="bJ" class="cls-6" d="M755.9,617.46c7.29-.43,13.34.5,13.15,7.53-.18,4.82-2.65,7.78-7.47,7.78H755.9Zm2,13.64c5.49.5,9-1,9-6.11s-3.7-6.23-9-5.86v12"/><path id="cc-3" data-name="cc" class="cls-6" d="M778.74,630.55c-.92,1.3-1.91,2.53-4.19,2.47s-3.58-1.3-3.58-3.52c-.07-4,3.88-3.89,7.71-3.89.19-2.16-.55-3.33-2.53-3.33-1.48.06-2.53.43-2.59,1.91l-2-.18c.31-2.29,2-3.21,4.69-3.21s4.45,1.23,4.45,4v5.06c-.07,1.23.43,2,1.73,1.66v1.24C780.47,633.26,778.62,632.59,778.74,630.55Zm-5.74-1a1.87,1.87,0,0,0,2,2c2.53-.19,3.89-1.79,3.7-4.57-2.65.12-5.68-.31-5.68,2.53"/><path id="bM-4" data-name="bM" class="cls-6" d="M786,629.87c-.13,1.48,1.11,1.79,2.34,1.36v1.48c-2,.62-4.32.31-4.32-2.41v-7.84h-1.36V621h1.49l.55-2.65H786V621h2.16v1.42H786v7.41"/><path id="cc-4" data-name="cc" class="cls-6" d="M797.26,630.55c-.92,1.3-1.91,2.53-4.2,2.47s-3.58-1.3-3.58-3.52c-.06-4,3.89-3.89,7.72-3.89.19-2.16-.56-3.33-2.53-3.33-1.48.06-2.53.43-2.59,1.91l-2-.18c.31-2.29,2-3.21,4.69-3.21s4.45,1.23,4.45,4v5.06c-.07,1.23.43,2,1.72,1.66v1.24C799,633.26,797.14,632.59,797.26,630.55Zm-5.74-1a1.87,1.87,0,0,0,2,2c2.53-.19,3.89-1.79,3.7-4.57-2.65.12-5.68-.31-5.68,2.53"/></g><g id="G-2" data-name="G"><path id="bF-2" data-name="bF" class="cls-6" d="M734.55,653.7c-.07,4-2.47,6-6.42,6-3.77,0-6.18-2-6.18-5.8v-9.75h2c.49,5.49-2,13.83,4.14,13.83s4-8.21,4.38-13.83h2v9.57"/><path id="bG-4" data-name="bG" class="cls-6" d="M744.55,650.61c-.19-2.1-5.31-2.35-5.37,0,.92,3.27,7.09.74,7.34,5.56s-9.26,4.56-9.69.49l1.73-.31c.24,2.22,6,2.78,6.05,0-.62-3.46-7-.92-7.29-5.55-.24-3.52,5.07-3.89,7.53-2.6a3.16,3.16,0,0,1,1.49,2.16"/><path id="cc-5" data-name="cc" class="cls-6" d="M756,657.22c-.93,1.29-1.92,2.53-4.2,2.46s-3.58-1.29-3.58-3.51c-.06-3.95,3.89-3.89,7.72-3.89.18-2.16-.56-3.34-2.54-3.34-1.48.07-2.53.44-2.59,1.92l-2-.19c.31-2.28,2-3.21,4.7-3.21s4.44,1.24,4.44,3.95v5.06c-.06,1.24.43,2,1.73,1.67v1.24C757.76,659.93,755.9,659.25,756,657.22Zm-5.74-1.05a1.86,1.86,0,0,0,2,2c2.53-.18,3.89-1.79,3.71-4.56-2.66.12-5.68-.31-5.68,2.53"/><path id="cg-2" data-name="cg" class="cls-6" d="M770.59,647.71c-.61,7.72,2.54,18.09-6.79,16.11a3.52,3.52,0,0,1-2.71-2.65l2-.31c.93,2.9,6.18,2,5.5-1.73v-1.85a3.92,3.92,0,0,1-3.77,2.22c-3.33,0-4.2-2.53-4.2-5.93s1-6,4.39-6.05a4,4,0,0,1,3.64,2.16c.06-.61,0-1.42.12-2Zm-5.12,10.37c2.22,0,3.09-2,3.09-4.51s-.87-4.63-3.09-4.63c-2.41,0-2.84,2.1-2.84,4.63s.37,4.51,2.84,4.51"/><path id="bH-4" data-name="bH" class="cls-6" d="M778.19,647.46c3.89,0,5.31,2.59,5.18,6.55H775c0,2.46.86,4.13,3.27,4.19a2.88,2.88,0,0,0,3-1.79l1.72.5c-.67,1.73-2.28,2.77-4.75,2.77-3.58,0-5.43-2.28-5.37-6.17S774.55,647.46,778.19,647.46Zm3.21,5c.37-3.7-4.69-4.75-6-1.73a4.44,4.44,0,0,0-.37,1.73h6.36"/></g><path class="cls-3" d="M752.4,550.55v54.93"/><path class="cls-4" d="M752.9,550.56h-1v-.5h1Zm0,55.42h-1v-.5h1Z"/><path class="cls-7" d="M197.52,448a8,8,0,0,1,8-8H387.3a8,8,0,0,1,8,8V554.84a8,8,0,0,1-8,8H205.5a8,8,0,0,1-8-8Z"/><g id="H-2" data-name="H"><path id="bg-5" data-name="bg" class="cls-6" d="M240.22,478.79v13.58h-2.09V478.79h-5.25v-1.73h12.59v1.73h-5.25"/><path id="bX-8" data-name="bX" class="cls-6" d="M249.61,480.4c3.82-.07,5.24,2.28,5.24,6.11s-1.66,6.11-5.31,6.11-5.12-2.41-5.18-6.11C244.36,482.43,246.09,480.4,249.61,480.4Zm-.07,10.74c2.72.06,3.28-1.92,3.28-4.63s-.5-4.63-3.15-4.63-3.27,2-3.27,4.63.61,4.57,3.14,4.63"/><path id="co" class="cls-6" d="M262.88,480.4c3.39.06,4.32,2.53,4.32,6.05s-1,6-4.32,6.17a3.79,3.79,0,0,1-3.71-2.1l.07,6.48h-2l-.06-16.36h1.91l.13,1.85A3.63,3.63,0,0,1,262.88,480.4Zm-.5,10.74c2.47,0,2.78-2.1,2.78-4.63s-.37-4.51-2.78-4.57c-2.59,0-3.14,2-3.14,4.69s.61,4.51,3.14,4.51"/></g><g id="I-2" data-name="I"><path id="bl-6" data-name="bl" class="cls-6" d="M282.08,484.53c2,.37,3.58,1.24,3.58,3.64,0,5.44-8.58,5.68-10.13,1.79a6.31,6.31,0,0,1-.37-1.54l2-.18a3.06,3.06,0,0,0,3.33,2.71c2,0,3.21-.92,3.21-2.84,0-2.34-2.22-2.84-4.88-2.65v-1.73c2.41.06,4.45-.25,4.45-2.59a2.52,2.52,0,0,0-2.84-2.66,2.72,2.72,0,0,0-3,2.53l-2-.18c.37-2.59,2.16-3.89,5-3.95s4.88,1.29,4.88,4c0,2.22-1.3,3.21-3.21,3.64"/><path id="cp" class="cls-6" d="M292.88,476.88c4.2,0,5.25,3.39,5.25,7.84s-1.24,7.9-5.31,7.9-5.31-3.46-5.31-7.9S288.56,476.88,292.88,476.88ZM292.82,491c2.9,0,3.33-3,3.33-6.29s-.25-6.3-3.27-6.3-3.4,3-3.4,6.3.31,6.29,3.34,6.29"/></g><g id="J-2" data-name="J"><path id="bj-4" data-name="bj" class="cls-6" d="M316.58,480.7c-.31-3-7.59-3.33-7.65.13.86,4.63,9.75.86,10.06,7.34.18,4.82-7.47,5.37-10.8,3.4a4.44,4.44,0,0,1-2-2.84l2-.43c.31,3.45,8.7,3.89,8.7-.06,0-4.82-9.57-.87-10-7.29-.31-5.06,8.95-5.18,11.05-2.1a6.07,6.07,0,0,1,.68,1.55"/><path id="cc-6" data-name="cc" class="cls-6" d="M328.68,490.15c-.93,1.3-1.91,2.53-4.2,2.47s-3.58-1.3-3.58-3.52c-.06-4,3.89-3.89,7.72-3.89.18-2.16-.56-3.33-2.53-3.33-1.48.06-2.53.43-2.59,1.91l-2-.18c.31-2.29,2-3.21,4.69-3.21s4.44,1.23,4.44,4v5.06c-.06,1.23.44,2,1.73,1.67v1.23C330.41,492.87,328.56,492.19,328.68,490.15Zm-5.74-1a1.87,1.87,0,0,0,2,2c2.53-.19,3.88-1.79,3.7-4.57-2.66.12-5.68-.31-5.68,2.53"/><path id="cf-2" data-name="cf" class="cls-6" d="M333.8,492.37V476.26h2v16.11h-2"/><path id="bH-5" data-name="bH" class="cls-6" d="M343.37,480.4c3.89,0,5.31,2.59,5.19,6.54h-8.34c0,2.47.87,4.14,3.28,4.2a2.87,2.87,0,0,0,3-1.79l1.73.49c-.68,1.73-2.29,2.78-4.75,2.78-3.58,0-5.44-2.29-5.37-6.17S339.73,480.4,343.37,480.4Zm3.21,5c.37-3.71-4.69-4.76-6-1.73a4.58,4.58,0,0,0-.37,1.73h6.36"/><path id="bG-6" data-name="bG" class="cls-6" d="M357.88,483.54c-.19-2.09-5.31-2.34-5.37,0,.92,3.28,7.1.75,7.34,5.56s-9.26,4.57-9.69.49l1.73-.3c.25,2.22,6,2.77,6.05,0-.62-3.46-7-.93-7.28-5.56-.25-3.52,5.06-3.89,7.53-2.59a3.11,3.11,0,0,1,1.48,2.16"/></g><g id="K-2" data-name="K"><path id="bZ-2" data-name="bZ" class="cls-6" d="M239.21,503.54c5,0,7.59,2.84,7.59,7.78s-2.72,8-7.59,8-7.6-3-7.6-8S234.21,503.54,239.21,503.54Zm0,14c3.88,0,5.49-2.53,5.49-6.24s-1.79-6.11-5.49-6.11-5.5,2.41-5.5,6.11,1.73,6.17,5.5,6.24"/><path id="co-2" data-name="co" class="cls-6" d="M255,507.06c3.39.06,4.32,2.53,4.32,6.05s-1,6-4.32,6.18a3.8,3.8,0,0,1-3.71-2.1l.06,6.48h-2l-.06-16.36h1.91l.12,1.85A3.66,3.66,0,0,1,255,507.06Zm-.5,10.74c2.47,0,2.78-2.1,2.78-4.63s-.37-4.5-2.78-4.56c-2.59,0-3.15,2-3.15,4.69s.62,4.5,3.15,4.5"/><path id="co-3" data-name="co" class="cls-6" d="M267.29,507.06c3.4.06,4.32,2.53,4.32,6.05s-1,6-4.32,6.18a3.8,3.8,0,0,1-3.7-2.1l.06,6.48h-2l-.06-16.36h1.92l.12,1.85A3.65,3.65,0,0,1,267.29,507.06Zm-.49,10.74c2.47,0,2.78-2.1,2.78-4.63s-.37-4.5-2.78-4.56c-2.59,0-3.15,2-3.15,4.69s.62,4.5,3.15,4.5"/><path id="bX-9" data-name="bX" class="cls-6" d="M278.71,507.06c3.83-.06,5.25,2.29,5.25,6.11s-1.67,6.12-5.31,6.12-5.12-2.41-5.19-6.12C273.46,509.1,275.19,507.06,278.71,507.06Zm-.06,10.74c2.72.07,3.27-1.91,3.27-4.63s-.49-4.63-3.15-4.63-3.27,2-3.27,4.63.62,4.57,3.15,4.63"/><path id="bI-5" data-name="bI" class="cls-6" d="M291.92,509c-4.81-1-3.27,5.61-3.52,10.06h-2l-.06-11.73h1.85a15.43,15.43,0,0,0,.12,2.41c.37-1.67,1.42-3,3.58-2.53V509"/><path id="bM-5" data-name="bM" class="cls-6" d="M295.87,516.14c-.12,1.48,1.11,1.79,2.35,1.35V519c-2,.61-4.32.31-4.32-2.41v-7.84h-1.36v-1.42H294l.56-2.65h1.29v2.65H298v1.42h-2.16v7.41"/><path id="ca-2" data-name="ca" class="cls-6" d="M303.59,519.29c-5.5.24-3.34-7.17-3.77-12h2v7.41c0,1.91.43,3.08,2.41,3,4.44-.12,2.77-6.23,3.08-10.43h1.92l.06,11.73h-1.85a10.88,10.88,0,0,0-.13-2,3.87,3.87,0,0,1-3.7,2.29"/><path id="bK-5" data-name="bK" class="cls-6" d="M318,507.06c5.49-.24,3.27,7.16,3.7,12h-2v-7.47c0-1.91-.49-3-2.41-3-4.44.12-2.71,6.29-3,10.43h-2l-.06-11.73h1.85a9.55,9.55,0,0,0,.13,2,3.89,3.89,0,0,1,3.76-2.23"/><path id="bL-7" data-name="bL" class="cls-6" d="M324.58,504.78v-1.85h2v1.85Zm0,14.26V507.31h2V519h-2"/><path id="bM-6" data-name="bM" class="cls-6" d="M331.61,516.14c-.12,1.48,1.11,1.79,2.35,1.35V519c-2,.61-4.32.31-4.32-2.41v-7.84h-1.36v-1.42h1.48l.56-2.65h1.29v2.65h2.16v1.42h-2.16v7.41"/><path id="bL-8" data-name="bL" class="cls-6" d="M335.63,504.78v-1.85h2v1.85Zm0,14.26V507.31h2V519h-2"/><path id="bH-6" data-name="bH" class="cls-6" d="M345.19,507.06c3.89,0,5.31,2.6,5.19,6.55H342c0,2.47.87,4.13,3.28,4.19a2.86,2.86,0,0,0,3-1.79l1.73.5c-.68,1.73-2.28,2.78-4.75,2.78-3.58,0-5.44-2.29-5.37-6.18S341.55,507.06,345.19,507.06Zm3.21,5c.37-3.7-4.69-4.75-6-1.73a4.43,4.43,0,0,0-.38,1.73h6.36"/><path id="bG-7" data-name="bG" class="cls-6" d="M359.7,510.21c-.19-2.1-5.31-2.34-5.37,0,.92,3.27,7.1.74,7.34,5.56s-9.25,4.56-9.69.49l1.73-.31c.25,2.22,6,2.78,6.05,0-.62-3.46-7-.92-7.28-5.55-.25-3.52,5.06-3.89,7.53-2.6a3.15,3.15,0,0,1,1.48,2.16"/></g><path class="cls-7" d="M197.52,780.62a8,8,0,0,1,8-8h184a8,8,0,0,1,8,8v159a8,8,0,0,1-8,8h-184a8,8,0,0,1-8-8Z"/><path class="cls-7" d="M199.74,972.25a8,8,0,0,1,8-8H387.3a8,8,0,0,1,8,8v116.1a8,8,0,0,1-8,8H207.73a8,8,0,0,1-8-8Z"/><path class="cls-1" d="M67.46,328a8,8,0,0,1,8-8H298.32a8,8,0,0,1,8,8v74.05a8,8,0,0,1-8,8H75.46a8,8,0,0,1-8-8Z"/><g id="g-3" data-name="g"><path id="bm-7" data-name="bm" class="cls-2" d="M102,370.84V369h4.35V356.1l-3.8,2.65v-2l3.94-2.78h2v15h4.15v1.84H102"/></g><g id="Q"><path id="bq-4" data-name="bq" class="cls-2" d="M130,353.79c5.5,0,8.35,3.13,8.35,8.56s-3,8.76-8.35,8.76-8.35-3.33-8.35-8.76S124.53,353.79,130,353.79Zm0,15.42c4.28,0,6-2.79,6-6.86s-2-6.72-6-6.72-6,2.65-6,6.72,1.91,6.79,6,6.86"/><path id="br-5" data-name="br" class="cls-2" d="M147.34,357.66c3.74.07,4.76,2.79,4.76,6.66s-1.09,6.65-4.76,6.79a4.16,4.16,0,0,1-4.07-2.31l.07,7.13h-2.18l-.06-18h2.1l.14,2A4,4,0,0,1,147.34,357.66Zm-.54,11.82c2.72,0,3-2.31,3-5.09s-.4-5-3-5c-2.85,0-3.46,2.17-3.46,5.16s.68,5,3.46,5"/><path id="bs-5" data-name="bs" class="cls-2" d="M159.9,357.66c4.28,0,5.84,2.86,5.71,7.2h-9.17c0,2.72.95,4.55,3.6,4.62a3.16,3.16,0,0,0,3.33-2l1.9.54c-.75,1.9-2.51,3.06-5.23,3.06-3.94,0-6-2.51-5.91-6.79S155.9,357.66,159.9,357.66Zm3.53,5.5c.41-4.07-5.16-5.22-6.58-1.9a4.86,4.86,0,0,0-.41,1.9h7"/><path id="bo-8" data-name="bo" class="cls-2" d="M174.43,359.77c-5.29-1.09-3.59,6.18-3.87,11.07h-2.17l-.07-12.9h2a15.89,15.89,0,0,0,.14,2.64c.4-1.83,1.56-3.32,3.93-2.78v2"/><path id="bt-5" data-name="bt" class="cls-2" d="M184.35,368.39c-1,1.43-2.11,2.79-4.62,2.72s-3.94-1.43-3.94-3.87c-.06-4.35,4.28-4.28,8.49-4.28.2-2.38-.61-3.67-2.78-3.67-1.63.07-2.79.48-2.86,2.11l-2.24-.21c.34-2.51,2.24-3.53,5.16-3.53s4.89,1.36,4.89,4.35v5.57c-.06,1.36.48,2.17,1.9,1.83v1.36C186.25,371.38,184.21,370.63,184.35,368.39ZM178,367.24a2.05,2.05,0,0,0,2.18,2.24c2.78-.2,4.27-2,4.07-5-2.92.14-6.25-.34-6.25,2.79"/><path id="bu-4" data-name="bu" class="cls-2" d="M192.36,367.65c-.13,1.63,1.22,2,2.58,1.49v1.63c-2.24.68-4.75.34-4.75-2.65V359.5h-1.5v-1.56h1.63l.61-2.92h1.43v2.92h2.38v1.56h-2.38v8.15"/><path id="bn-6" data-name="bn" class="cls-2" d="M201.93,357.66c4.21-.06,5.78,2.52,5.78,6.73s-1.84,6.72-5.84,6.72-5.64-2.65-5.71-6.72C196.16,359.9,198.06,357.66,201.93,357.66Zm-.06,11.82c3,.07,3.6-2.11,3.6-5.09s-.55-5.1-3.47-5.1-3.6,2.18-3.6,5.1.68,5,3.47,5.09"/><path id="bo-9" data-name="bo" class="cls-2" d="M216.47,359.77c-5.3-1.09-3.6,6.18-3.87,11.07h-2.18l-.07-12.9h2a15.89,15.89,0,0,0,.14,2.64c.4-1.83,1.56-3.32,3.94-2.78v2"/></g><g id="R"><path id="bq-5" data-name="bq" class="cls-2" d="M233.1,353.79c5.5,0,8.35,3.13,8.35,8.56s-3,8.76-8.35,8.76-8.35-3.33-8.35-8.76S227.6,353.79,233.1,353.79Zm0,15.42c4.28,0,6-2.79,6-6.86s-2-6.72-6-6.72-6,2.65-6,6.72,1.9,6.79,6,6.86"/><path id="cu" class="cls-2" d="M250.55,357.66c6.05-.27,3.6,7.88,4.08,13.18h-2.18v-8.22c0-2.1-.54-3.33-2.64-3.26-4.89.14-3,6.93-3.33,11.48h-2.17l-.07-12.9h2a11.42,11.42,0,0,0,.14,2.17,4.3,4.3,0,0,1,4.14-2.45"/><path id="bB-4" data-name="bB" class="cls-2" d="M257.82,370.84V353.11H260v17.73h-2.17"/><path id="cv" class="cls-2" d="M273.71,357.94l-5.84,15c-.95,1.9-2.52,3.46-5.5,2.85v-1.63c2.65.41,3.6-1.35,4.34-3.39l-5.09-12.83h2.31l3.87,10.59,3.67-10.59h2.24"/></g><path class="cls-7" d="M1220.7,1505.57a8,8,0,0,1,8-8h151.24a8,8,0,0,1,8,8v56.76a8,8,0,0,1-8,8H1228.7a8,8,0,0,1-8-8Z"/><path class="cls-7" d="M1397,692.73a8,8,0,0,1,8-8h151.22a8,8,0,0,1,8,8v56.75a8,8,0,0,1-8,8H1405a8,8,0,0,1-8-8Z"/><g id="T-2" data-name="T"><path id="be-5" data-name="be" class="cls-6" d="M1435,725.57c-5.06,0-7.47-3-7.72-8-.31-6.6,6.18-9.5,11.92-6.85a5.07,5.07,0,0,1,2.28,2.65l-2,.56c-.8-1.54-2.28-2.47-4.69-2.47-3.76,0-5.43,2.41-5.43,6.11s1.79,6.17,5.62,6.24a7,7,0,0,0,4.88-1.67v-2.78h-4.57v-1.73h6.48V723a9.23,9.23,0,0,1-6.79,2.6"/><path id="bj-5" data-name="bj" class="cls-6" d="M1454.91,713.65c-.31-3-7.6-3.33-7.66.12.86,4.63,9.75.87,10.06,7.35.19,4.82-7.47,5.37-10.8,3.4a4.44,4.44,0,0,1-2-2.84l2-.44c.31,3.46,8.7,3.89,8.7-.06,0-4.81-9.56-.86-10-7.28-.3-5.06,9-5.19,11-2.1a5.67,5.67,0,0,1,.68,1.54"/><path id="cw" class="cls-6" d="M1473.11,725.32l.13-13.46c-1.42,4.69-3.33,8.95-4.94,13.46h-1.42l-5-13.46.06,13.46h-1.79V710h2.72l4.75,13c1.3-4.63,3.15-8.64,4.69-13H1475v15.31h-1.86"/></g><g id="C-2" data-name="C"><path id="bi-6" data-name="bi" class="cls-6" d="M1497.31,714.39a4.07,4.07,0,0,1-3.7,4.32l4.32,6.61h-2.35l-4-6.36h-4.75v6.36h-2V710C1490.21,710.19,1497.44,708.71,1497.31,714.39Zm-10.49,3c3.7-.13,8.46.8,8.46-2.91s-4.94-2.59-8.46-2.77v5.68"/><path id="bj-6" data-name="bj" class="cls-6" d="M1510.34,713.65c-.31-3-7.6-3.33-7.66.12.87,4.63,9.76.87,10.06,7.35.19,4.82-7.46,5.37-10.8,3.4a4.39,4.39,0,0,1-2-2.84l2-.44c.31,3.46,8.71,3.89,8.71-.06,0-4.81-9.57-.86-10-7.28-.31-5.06,8.95-5.19,11-2.1a6,6,0,0,1,.67,1.54"/><path id="bj-7" data-name="bj" class="cls-6" d="M1525.15,713.65c-.31-3-7.59-3.33-7.65.12.86,4.63,9.75.87,10.06,7.35.18,4.82-7.47,5.37-10.8,3.4a4.44,4.44,0,0,1-2-2.84l2-.44c.31,3.46,8.7,3.89,8.7-.06,0-4.81-9.57-.86-10-7.28-.31-5.06,9-5.19,11-2.1a6,6,0,0,1,.68,1.54"/><path id="bV-3" data-name="bV" class="cls-6" d="M1530.58,725.32V710h2.1v15.31h-2.1"/></g><path class="cls-7" d="M1400.33,1138.94a8,8,0,0,1,8-8h151.22a8,8,0,0,1,8,8v56.75a8,8,0,0,1-8,8H1408.33a8,8,0,0,1-8-8Z"/><path class="cls-3" d="M1304.33,1482.5v14.58"/><path class="cls-4" d="M1304.83,1482.5h-1v-.5h1Zm0,15.07h-1v-.5h1Z"/><path class="cls-3" d="M1480.57,670v14.23"/><path class="cls-4" d="M1481.07,670h-1v-.5h1Zm0,14.73h-1v-.52h1Z"/><path class="cls-3" d="M1480.57,758V944.2h3.37v186.24"/><path class="cls-4" d="M1481.07,758h-1v-.52h1Zm3.37,372.94h-1v-.52h1Z"/><path class="cls-3" d="M1483.94,1204.2v17.6"/><path class="cls-4" d="M1484.44,1204.2h-1v-.5h1Zm0,18.1h-1v-.52h1Z"/><path class="cls-7" d="M1037.73,869.72a8,8,0,0,1,8-8H1197a8,8,0,0,1,8,8v58.72a8,8,0,0,1-8,8H1045.73a8,8,0,0,1-8-8Z"/><path class="cls-7" d="M1220.7,692.4a8,8,0,0,1,8-8h151.24a8,8,0,0,1,8,8v56.76a8,8,0,0,1-8,8H1228.7a8,8,0,0,1-8-8Z"/><g id="V-2" data-name="V"><path id="bF-3" data-name="bF" class="cls-6" d="M1258.17,719.25c-.06,4-2.47,6-6.42,6-3.77,0-6.17-2-6.17-5.8v-9.75h2c.5,5.49-2,13.82,4.14,13.82s4-8.21,4.38-13.82h2v9.56"/><path id="cw-2" data-name="cw" class="cls-6" d="M1274.65,725l.12-13.45c-1.42,4.69-3.33,9-4.94,13.45h-1.41l-5-13.45.06,13.45h-1.79v-15.3h2.71l4.76,13c1.29-4.63,3.14-8.64,4.69-13h2.65V725h-1.85"/><path id="bg-8" data-name="bg" class="cls-6" d="M1286.13,711.41V725H1284V711.41h-5.24v-1.72h12.59v1.72h-5.25"/><path id="bj-8" data-name="bj" class="cls-6" d="M1303.23,713.33c-.31-3-7.59-3.34-7.65.12.86,4.63,9.75.87,10.06,7.35.18,4.81-7.47,5.37-10.81,3.39a4.41,4.41,0,0,1-2-2.84l2-.43c.31,3.46,8.71,3.89,8.71-.06,0-4.82-9.57-.87-10-7.28-.31-5.07,9-5.19,11-2.1a5.85,5.85,0,0,1,.68,1.54"/></g><g id="C-3" data-name="C"><path id="bi-7" data-name="bi" class="cls-6" d="M1327.18,714.07a4.07,4.07,0,0,1-3.7,4.32l4.32,6.6h-2.35l-4-6.35h-4.75V725h-2v-15.3C1320.08,709.87,1327.3,708.39,1327.18,714.07Zm-10.49,3c3.7-.12,8.45.8,8.45-2.9s-4.93-2.59-8.45-2.78V717"/><path id="bj-9" data-name="bj" class="cls-6" d="M1340.21,713.33c-.31-3-7.6-3.34-7.66.12.87,4.63,9.75.87,10.06,7.35.19,4.81-7.47,5.37-10.8,3.39a4.39,4.39,0,0,1-2-2.84l2-.43c.31,3.46,8.7,3.89,8.7-.06,0-4.82-9.56-.87-10-7.28-.3-5.07,9-5.19,11-2.1a5.54,5.54,0,0,1,.68,1.54"/><path id="bj-10" data-name="bj" class="cls-6" d="M1355,713.33c-.31-3-7.59-3.34-7.65.12.86,4.63,9.75.87,10.06,7.35.18,4.81-7.47,5.37-10.81,3.39a4.41,4.41,0,0,1-2-2.84l2-.43c.31,3.46,8.71,3.89,8.71-.06,0-4.82-9.57-.87-10-7.28-.31-5.07,9-5.19,11.05-2.1a5.85,5.85,0,0,1,.68,1.54"/><path id="bV-4" data-name="bV" class="cls-6" d="M1360.45,725v-15.3h2.1V725h-2.1"/></g><path class="cls-7" d="M1400.33,1230.3a8,8,0,0,1,8-8h151.22a8,8,0,0,1,8,8V1287a8,8,0,0,1-8,8H1408.33a8,8,0,0,1-8-8Z"/><path class="cls-7" d="M1220.7,778.54a8,8,0,0,1,8-8h151.24a8,8,0,0,1,8,8v56.75a8,8,0,0,1-8,8H1228.7a8,8,0,0,1-8-8Z"/><path class="cls-7" d="M1037.73,1591.22a8,8,0,0,1,8-8H1197a8,8,0,0,1,8,8v58.72a8,8,0,0,1-8,8H1045.73a8,8,0,0,1-8-8Z"/><path class="cls-7" d="M1037.73,958.22a8,8,0,0,1,8-8H1197a8,8,0,0,1,8,8v58.7a8,8,0,0,1-8,8H1045.73a8,8,0,0,1-8-8Z"/><path class="cls-7" d="M1037.73,1046.7a8,8,0,0,1,8-8H1197a8,8,0,0,1,8,8v58.73a8,8,0,0,1-8,8H1045.73a8,8,0,0,1-8-8Z"/><path class="cls-3" d="M1121.34,1025.43v12.78"/><path class="cls-4" d="M1121.84,1025.45h-1v-.52h1Zm0,13.25h-1v-.5h1Z"/><path class="cls-7" d="M1037.73,1230.47a8,8,0,0,1,8-8H1197a8,8,0,0,1,8,8v58.72a8,8,0,0,1-8,8H1045.73a8,8,0,0,1-8-8Z"/><path class="cls-3" d="M1121.34,1222v-108"/><path class="cls-4" d="M1121.84,1222.47h-1v-.5h1Zm0-108.53h-1v-.5h1Z"/><path class="cls-7" d="M1037.73,1679.72a8,8,0,0,1,8-8H1197a8,8,0,0,1,8,8v58.7a8,8,0,0,1-8,8H1045.73a8,8,0,0,1-8-8Z"/><path class="cls-7" d="M1037.73,1414.23a8,8,0,0,1,8-8H1197a8,8,0,0,1,8,8V1473a8,8,0,0,1-8,8H1045.73a8,8,0,0,1-8-8Z"/><path class="cls-7" d="M1037.73,2122.2a8,8,0,0,1,8-8H1197a8,8,0,0,1,8,8v58.72a8,8,0,0,1-8,8H1045.73a8,8,0,0,1-8-8Z"/><path class="cls-7" d="M1037.73,1768.2a8,8,0,0,1,8-8H1197a8,8,0,0,1,8,8v58.73a8,8,0,0,1-8,8H1045.73a8,8,0,0,1-8-8Z"/><path class="cls-7" d="M1037.73,2033.7a8,8,0,0,1,8-8H1197a8,8,0,0,1,8,8v58.72a8,8,0,0,1-8,8H1045.73a8,8,0,0,1-8-8Z"/><path class="cls-7" d="M1037.73,1945.2a8,8,0,0,1,8-8H1197a8,8,0,0,1,8,8v58.72a8,8,0,0,1-8,8H1045.73a8,8,0,0,1-8-8Z"/><path class="cls-7" d="M1220.7,864.67a8,8,0,0,1,8-8h151.24a8,8,0,0,1,8,8v56.75a8,8,0,0,1-8,8H1228.7a8,8,0,0,1-8-8Z"/><path class="cls-7" d="M1397,778.54a8,8,0,0,1,8-8h151.22a8,8,0,0,1,8,8v56.75a8,8,0,0,1-8,8H1405a8,8,0,0,1-8-8Z"/><path class="cls-7" d="M1220.7,950.8a8,8,0,0,1,8-8h151.24a8,8,0,0,1,8,8v56.75a8,8,0,0,1-8,8H1228.7a8,8,0,0,1-8-8Z"/><path class="cls-7" d="M1400.33,864.67a8,8,0,0,1,8-8h151.22a8,8,0,0,1,8,8v56.75a8,8,0,0,1-8,8H1408.33a8,8,0,0,1-8-8Z"/><path class="cls-7" d="M1220.7,1046.73a8,8,0,0,1,8-8h151.24a8,8,0,0,1,8,8v56.76a8,8,0,0,1-8,8H1228.7a8,8,0,0,1-8-8Z"/><path class="cls-7" d="M1220.7,1138.94a8,8,0,0,1,8-8h151.24a8,8,0,0,1,8,8v56.75a8,8,0,0,1-8,8H1228.7a8,8,0,0,1-8-8Z"/><path class="cls-7" d="M1037.73,1502.73a8,8,0,0,1,8-8H1197a8,8,0,0,1,8,8v58.7a8,8,0,0,1-8,8H1045.73a8,8,0,0,1-8-8Z"/><path class="cls-7" d="M1037.73,1856.7a8,8,0,0,1,8-8H1197a8,8,0,0,1,8,8v58.73a8,8,0,0,1-8,8H1045.73a8,8,0,0,1-8-8Z"/><path class="cls-7" d="M1220.7,1230.3a8,8,0,0,1,8-8h151.24a8,8,0,0,1,8,8V1287a8,8,0,0,1-8,8H1228.7a8,8,0,0,1-8-8Z"/><path class="cls-7" d="M1400.33,950.8a8,8,0,0,1,8-8h151.22a8,8,0,0,1,8,8v56.75a8,8,0,0,1-8,8H1408.33a8,8,0,0,1-8-8Z"/><path class="cls-7" d="M1982.7,556.25a8,8,0,0,1,8-8h158a8,8,0,0,1,8,8v67a8,8,0,0,1-8,8h-158a8,8,0,0,1-8-8Z"/><g id="ar"><path id="cw-3" data-name="cw" class="cls-6" d="M2025.38,581.78l.12-13.46c-1.42,4.69-3.33,8.95-4.94,13.46h-1.42l-5-13.46.06,13.46h-1.79V566.47h2.72l4.75,13c1.3-4.63,3.15-8.64,4.69-13h2.66v15.31h-1.85"/><path id="bX-10" data-name="bX" class="cls-6" d="M2035.19,569.8c3.83-.06,5.25,2.29,5.25,6.11s-1.67,6.11-5.31,6.11-5.12-2.4-5.19-6.11C2029.94,571.84,2031.67,569.8,2035.19,569.8Zm-.06,10.74c2.71.06,3.27-1.91,3.27-4.63s-.49-4.63-3.15-4.63-3.27,2-3.27,4.63.62,4.57,3.15,4.63"/><path id="cA-3" data-name="cA" class="cls-6" d="M2048.46,569.8c3.27,0,4.26,2.41,4.32,6.05,0,4.08-1.42,6.17-4.32,6.17-1.91-.06-3-.67-3.64-2.09l-.12,1.85h-1.92l.06-16.11h2v6.23C2045.44,570.48,2046.55,569.8,2048.46,569.8Zm-.49,10.74c2.47,0,2.78-2.1,2.78-4.63s-.31-4.63-2.78-4.56-3.15,2-3.15,4.69.62,4.5,3.15,4.5"/><path id="bL-9" data-name="bL" class="cls-6" d="M2055.19,567.52v-1.85h2v1.85Zm0,14.26V570.05h2v11.73h-2"/><path id="cf-3" data-name="cf" class="cls-6" d="M2060.07,581.78V565.67h2v16.11h-2"/><path id="bH-7" data-name="bH" class="cls-6" d="M2069.63,569.8c3.89,0,5.31,2.59,5.19,6.55h-8.33c0,2.46.86,4.13,3.27,4.19a2.87,2.87,0,0,0,3-1.79l1.73.5c-.68,1.72-2.28,2.77-4.75,2.77-3.58,0-5.43-2.28-5.37-6.17S2066,569.8,2069.63,569.8Zm3.21,5c.38-3.7-4.69-4.75-6-1.73a4.44,4.44,0,0,0-.37,1.73h6.35"/></g><g id="as"><path id="bJ-11" data-name="bJ" class="cls-6" d="M2083.83,566.47c7.29-.43,13.34.49,13.15,7.53-.18,4.81-2.65,7.78-7.47,7.78h-5.68Zm2,13.64c5.49.49,9-1,9-6.11s-3.7-6.23-9-5.86v12"/><path id="cc-7" data-name="cc" class="cls-6" d="M2106.67,579.56c-.92,1.29-1.91,2.53-4.2,2.46s-3.58-1.29-3.58-3.51c-.06-4,3.89-3.89,7.72-3.89.19-2.16-.56-3.34-2.53-3.34-1.48.07-2.53.44-2.59,1.92l-2-.19c.31-2.28,2-3.21,4.69-3.21s4.45,1.24,4.45,4v5.06c-.07,1.24.43,2,1.72,1.67v1.24C2108.4,582.27,2106.55,581.59,2106.67,579.56Zm-5.74-1a1.86,1.86,0,0,0,2,2c2.53-.18,3.89-1.79,3.7-4.57-2.65.13-5.68-.3-5.68,2.54"/><path id="bM-8" data-name="bM" class="cls-6" d="M2114,578.88c-.13,1.48,1.11,1.79,2.34,1.35v1.49c-2,.61-4.32.3-4.32-2.41v-7.84h-1.36v-1.42h1.48l.56-2.66h1.3v2.66h2.16v1.42H2114v7.41"/><path id="cc-8" data-name="cc" class="cls-6" d="M2125.19,579.56c-.93,1.29-1.91,2.53-4.2,2.46s-3.58-1.29-3.58-3.51c-.06-4,3.89-3.89,7.72-3.89.18-2.16-.56-3.34-2.53-3.34-1.48.07-2.53.44-2.59,1.92l-2-.19c.31-2.28,2-3.21,4.69-3.21s4.44,1.24,4.44,4v5.06c-.06,1.24.44,2,1.73,1.67v1.24C2126.92,582.27,2125.07,581.59,2125.19,579.56Zm-5.74-1a1.86,1.86,0,0,0,2,2c2.53-.18,3.88-1.79,3.7-4.57-2.66.13-5.68-.3-5.68,2.54"/></g><g id="at"><path id="bF-4" data-name="bF" class="cls-6" d="M2052,602.7c-.06,4-2.47,6-6.42,6-3.77,0-6.17-2-6.17-5.8v-9.75h2c.5,5.49-2,13.82,4.14,13.82s4-8.21,4.38-13.82h2v9.56"/><path id="bG-9" data-name="bG" class="cls-6" d="M2062,599.62c-.19-2.1-5.31-2.35-5.37,0,.93,3.27,7.1.74,7.35,5.55s-9.26,4.57-9.7.5l1.73-.31c.25,2.22,6,2.78,6.05,0-.62-3.46-7-.93-7.28-5.56-.25-3.52,5.06-3.89,7.53-2.59a3.11,3.11,0,0,1,1.48,2.16"/><path id="cc-9" data-name="cc" class="cls-6" d="M2073.43,606.22c-.92,1.3-1.91,2.53-4.2,2.47s-3.58-1.3-3.58-3.52c-.06-3.95,3.89-3.89,7.72-3.89.18-2.16-.56-3.33-2.53-3.33-1.48.06-2.53.43-2.59,1.91l-2-.18c.31-2.29,2-3.21,4.69-3.21s4.44,1.23,4.44,3.95v5.06c-.06,1.24.44,2,1.73,1.67v1.23C2075.16,608.94,2073.31,608.26,2073.43,606.22Zm-5.74-1.05a1.87,1.87,0,0,0,2,2c2.53-.19,3.88-1.79,3.7-4.57-2.65.13-5.68-.31-5.68,2.53"/><path id="cg-3" data-name="cg" class="cls-6" d="M2088,596.72c-.62,7.71,2.53,18.08-6.79,16.11a3.53,3.53,0,0,1-2.72-2.66l2-.31c.92,2.91,6.17,2,5.49-1.72v-1.86a3.9,3.9,0,0,1-3.76,2.23c-3.34,0-4.2-2.53-4.2-5.93s1-6,4.38-6.05a4,4,0,0,1,3.64,2.16c.07-.62,0-1.42.13-2Zm-5.12,10.37c2.22,0,3.08-2,3.08-4.51s-.86-4.63-3.08-4.63c-2.41,0-2.84,2.1-2.84,4.63s.37,4.51,2.84,4.51"/><path id="bH-8" data-name="bH" class="cls-6" d="M2095.59,596.47c3.89,0,5.31,2.59,5.19,6.54h-8.34c0,2.47.87,4.14,3.28,4.2a2.87,2.87,0,0,0,3-1.79l1.73.49c-.68,1.73-2.29,2.78-4.75,2.78-3.59,0-5.44-2.28-5.38-6.17S2092,596.47,2095.59,596.47Zm3.21,5c.37-3.7-4.69-4.75-6-1.73a4.58,4.58,0,0,0-.37,1.73h6.36"/></g><path class="cls-7" d="M1800,556.2a8,8,0,0,1,8-8h158a8,8,0,0,1,8,8v70.65a8,8,0,0,1-8,8H1808a8,8,0,0,1-8-8Z"/><g id="au-2" data-name="au"><path id="cm-3" data-name="cm" class="cls-6" d="M1854.81,582.29h-2.47l-3.45-13-3.4,13H1843l-4.5-15.31h2.16l3.64,13.46.93-4,2.65-9.51h2l3.64,13.46,3.64-13.46h2.16"/><path id="bL-10" data-name="bL" class="cls-6" d="M1860.8,568v-1.85h2V568Zm0,14.26V570.56h2v11.73h-2"/><path id="cn-3" data-name="cn" class="cls-6" d="M1868.09,568.71v5.68h8.51v1.73h-8.51v6.17h-2V567h10.8v1.73h-8.76"/><path id="bL-11" data-name="bL" class="cls-6" d="M1879.2,568v-1.85h2V568Zm0,14.26V570.56h2v11.73h-2"/></g><g id="as-2" data-name="as"><path id="bJ-12" data-name="bJ" class="cls-6" d="M1890.62,567c7.28-.43,13.33.5,13.14,7.54-.18,4.81-2.65,7.77-7.46,7.77h-5.68Zm2,13.65c5.5.49,9-1,9-6.11s-3.71-6.24-9-5.87v12"/><path id="cc-10" data-name="cc" class="cls-6" d="M1913.46,580.07c-.93,1.3-1.92,2.53-4.2,2.47s-3.58-1.3-3.58-3.52c-.06-3.95,3.89-3.89,7.71-3.89.19-2.16-.55-3.33-2.53-3.33-1.48.06-2.53.43-2.59,1.91l-2-.18c.31-2.29,2-3.21,4.69-3.21s4.45,1.23,4.45,3.95v5.06c-.06,1.23.43,2,1.73,1.67v1.23C1915.18,582.79,1913.33,582.11,1913.46,580.07Zm-5.75-1.05a1.87,1.87,0,0,0,2,2c2.53-.19,3.89-1.79,3.7-4.57-2.65.12-5.68-.31-5.68,2.53"/><path id="bM-9" data-name="bM" class="cls-6" d="M1920.74,579.39c-.12,1.48,1.11,1.79,2.35,1.36v1.48c-2,.62-4.33.31-4.33-2.41V572h-1.35v-1.42h1.48l.55-2.65h1.3v2.65h2.16V572h-2.16v7.41"/><path id="cc-11" data-name="cc" class="cls-6" d="M1932,580.07c-.92,1.3-1.91,2.53-4.19,2.47s-3.58-1.3-3.58-3.52c-.07-3.95,3.89-3.89,7.71-3.89.19-2.16-.55-3.33-2.53-3.33-1.48.06-2.53.43-2.59,1.91l-2-.18c.31-2.29,2-3.21,4.69-3.21s4.45,1.23,4.45,3.95v5.06c-.06,1.23.43,2,1.73,1.67v1.23C1933.7,582.79,1931.85,582.11,1932,580.07Zm-5.74-1.05a1.87,1.87,0,0,0,2,2c2.53-.19,3.89-1.79,3.7-4.57-2.65.12-5.68-.31-5.68,2.53"/></g><g id="at-2" data-name="at"><path id="bF-5" data-name="bF" class="cls-6" d="M1869.26,603.22c-.06,4-2.47,6-6.42,6-3.77,0-6.17-2-6.17-5.81v-9.75h2c.5,5.49-2,13.83,4.14,13.83s4-8.21,4.38-13.83h2v9.57"/><path id="bG-10" data-name="bG" class="cls-6" d="M1879.26,600.13c-.19-2.1-5.31-2.34-5.37,0,.92,3.27,7.1.74,7.34,5.56s-9.26,4.57-9.69.49l1.73-.31c.25,2.23,6,2.78,6,0-.62-3.45-7-.92-7.28-5.55-.25-3.52,5.06-3.89,7.53-2.59a3.11,3.11,0,0,1,1.48,2.16"/><path id="cc-12" data-name="cc" class="cls-6" d="M1890.74,606.74c-.93,1.29-1.91,2.53-4.2,2.47s-3.58-1.3-3.58-3.52c-.06-4,3.89-3.89,7.72-3.89.18-2.16-.56-3.33-2.53-3.33-1.48.06-2.53.43-2.6,1.91l-2-.19c.31-2.28,2-3.21,4.69-3.21s4.44,1.24,4.44,4V606c-.06,1.23.44,2,1.73,1.66v1.24C1892.47,609.45,1890.62,608.77,1890.74,606.74Zm-5.74-1a1.87,1.87,0,0,0,2,2c2.54-.19,3.89-1.79,3.71-4.57-2.66.12-5.68-.31-5.68,2.53"/><path id="cg-4" data-name="cg" class="cls-6" d="M1905.31,597.23c-.62,7.72,2.53,18.09-6.79,16.11a3.52,3.52,0,0,1-2.72-2.65l2-.31c.92,2.9,6.17,2,5.49-1.73V606.8a3.9,3.9,0,0,1-3.76,2.22c-3.34,0-4.2-2.53-4.2-5.92s1-6,4.38-6.05a3.94,3.94,0,0,1,3.64,2.16,17.79,17.79,0,0,1,.13-2Zm-5.13,10.37c2.23,0,3.09-2,3.09-4.5s-.86-4.63-3.09-4.63c-2.4,0-2.84,2.09-2.84,4.63s.37,4.5,2.84,4.5"/><path id="bH-9" data-name="bH" class="cls-6" d="M1912.9,597c3.89,0,5.31,2.6,5.19,6.55h-8.34c0,2.47.87,4.13,3.27,4.2a2.89,2.89,0,0,0,3-1.79l1.73.49c-.68,1.73-2.29,2.78-4.76,2.78-3.58,0-5.43-2.29-5.37-6.18S1909.26,597,1912.9,597Zm3.21,5c.37-3.7-4.69-4.75-6-1.72a4.57,4.57,0,0,0-.37,1.72h6.36"/></g><path class="cls-7" d="M2165.38,556.2a8,8,0,0,1,8-8h158a8,8,0,0,1,8,8v70.65a8,8,0,0,1-8,8h-158a8,8,0,0,1-8-8Z"/><g id="ar-2" data-name="ar"><path id="cw-4" data-name="cw" class="cls-6" d="M2199.83,582.29l.12-13.45c-1.42,4.69-3.33,8.95-4.94,13.45h-1.42l-5-13.45.06,13.45h-1.79V567h2.72l4.75,13c1.3-4.63,3.15-8.64,4.69-13h2.66v15.31h-1.85"/><path id="bX-11" data-name="bX" class="cls-6" d="M2209.64,570.32c3.83-.06,5.25,2.28,5.25,6.11s-1.67,6.11-5.31,6.11-5.12-2.41-5.19-6.11C2204.39,572.35,2206.12,570.32,2209.64,570.32Zm-.06,10.74c2.72.06,3.27-1.92,3.27-4.63s-.49-4.63-3.15-4.63-3.27,2-3.27,4.63.62,4.57,3.15,4.63"/><path id="cA-4" data-name="cA" class="cls-6" d="M2222.91,570.32c3.27,0,4.26,2.41,4.32,6,0,4.07-1.42,6.17-4.32,6.17-1.91-.06-3-.68-3.64-2.1l-.12,1.85h-1.92l.07-16.11h2v6.24C2219.89,571,2221,570.32,2222.91,570.32Zm-.49,10.74c2.47,0,2.78-2.1,2.78-4.63s-.31-4.63-2.78-4.57-3.15,2-3.15,4.69.62,4.51,3.15,4.51"/><path id="bL-12" data-name="bL" class="cls-6" d="M2229.64,568v-1.85h2V568Zm0,14.26V570.56h2v11.73h-2"/><path id="cf-4" data-name="cf" class="cls-6" d="M2234.52,582.29V566.18h2v16.11h-2"/><path id="bH-10" data-name="bH" class="cls-6" d="M2244.09,570.32c3.88,0,5.3,2.59,5.18,6.54h-8.33c0,2.47.86,4.14,3.27,4.2a2.87,2.87,0,0,0,3-1.79l1.73.49c-.68,1.73-2.28,2.78-4.75,2.78-3.58,0-5.43-2.28-5.37-6.17S2240.44,570.32,2244.09,570.32Zm3.21,5c.37-3.71-4.7-4.76-6-1.73a4.39,4.39,0,0,0-.37,1.73h6.36"/></g><g id="av-3" data-name="av"><path id="cB-4" data-name="cB" class="cls-6" d="M2263.72,575.69v4.63h-1.61v-4.63h-4.57v-1.61h4.57v-4.63h1.61v4.63h4.56v1.61h-4.56"/></g><g id="aw-4" data-name="aw"><path id="cm-4" data-name="cm" class="cls-6" d="M2292,582.29h-2.47l-3.46-13-3.39,13h-2.47L2275.69,567h2.16l3.64,13.46.93-4,2.65-9.51h2l3.64,13.46,3.64-13.46h2.16"/><path id="bL-13" data-name="bL" class="cls-6" d="M2298,568v-1.85h2V568Zm0,14.26V570.56h2v11.73h-2"/><path id="cn-4" data-name="cn" class="cls-6" d="M2305.26,568.71v5.68h8.52v1.73h-8.52v6.17h-2V567H2314v1.73h-8.76"/><path id="bL-14" data-name="bL" class="cls-6" d="M2316.37,568v-1.85h2V568Zm0,14.26V570.56h2v11.73h-2"/></g><g id="ax-2" data-name="ax"><path id="bJ-13" data-name="bJ" class="cls-6" d="M2195.66,593.65c7.28-.43,13.33.49,13.15,7.53-.19,4.82-2.66,7.78-7.47,7.78h-5.68Zm2,13.64c5.49.5,9-1,9-6.11s-3.7-6.23-9-5.86v12"/><path id="cc-13" data-name="cc" class="cls-6" d="M2218.5,606.74c-.93,1.29-1.91,2.53-4.2,2.47s-3.58-1.3-3.58-3.52c-.06-4,3.89-3.89,7.72-3.89.18-2.16-.56-3.33-2.53-3.33-1.48.06-2.53.43-2.6,1.91l-2-.19c.31-2.28,2-3.21,4.69-3.21s4.44,1.24,4.44,4V606c-.06,1.23.44,2,1.73,1.66v1.24C2220.23,609.45,2218.38,608.77,2218.5,606.74Zm-5.74-1a1.87,1.87,0,0,0,2,2c2.53-.19,3.89-1.79,3.71-4.57-2.66.12-5.68-.31-5.68,2.53"/><path id="bM-10" data-name="bM" class="cls-6" d="M2225.78,606.06c-.12,1.48,1.11,1.79,2.35,1.36v1.48c-2,.62-4.32.31-4.32-2.41v-7.84h-1.36v-1.42h1.48l.56-2.65h1.29v2.65h2.16v1.42h-2.16v7.41"/><path id="cc-14" data-name="cc" class="cls-6" d="M2237,606.74c-.93,1.29-1.92,2.53-4.2,2.47s-3.58-1.3-3.58-3.52c-.06-4,3.89-3.89,7.72-3.89.18-2.16-.56-3.33-2.53-3.33-1.49.06-2.54.43-2.6,1.91l-2-.19c.3-2.28,2-3.21,4.69-3.21s4.44,1.24,4.44,4V606c-.06,1.23.43,2,1.73,1.66v1.24C2238.75,609.45,2236.89,608.77,2237,606.74Zm-5.74-1a1.87,1.87,0,0,0,2,2c2.53-.19,3.89-1.79,3.71-4.57-2.66.12-5.68-.31-5.68,2.53"/></g><g id="at-3" data-name="at"><path id="bF-6" data-name="bF" class="cls-6" d="M2261.15,603.22c-.06,4-2.47,6-6.42,6-3.76,0-6.17-2-6.17-5.81v-9.75h2c.49,5.49-2,13.83,4.13,13.83s3.95-8.21,4.39-13.83h2v9.57"/><path id="bG-11" data-name="bG" class="cls-6" d="M2271.15,600.13c-.18-2.1-5.3-2.34-5.37,0,.93,3.27,7.1.74,7.35,5.56s-9.26,4.57-9.69.49l1.73-.31c.24,2.23,6,2.78,6,0-.62-3.45-7-.92-7.29-5.55-.25-3.52,5.06-3.89,7.53-2.59a3.08,3.08,0,0,1,1.48,2.16"/><path id="cc-15" data-name="cc" class="cls-6" d="M2282.64,606.74c-.93,1.29-1.92,2.53-4.2,2.47s-3.58-1.3-3.58-3.52c-.06-4,3.89-3.89,7.71-3.89.19-2.16-.55-3.33-2.53-3.33-1.48.06-2.53.43-2.59,1.91l-2-.19c.31-2.28,2-3.21,4.69-3.21s4.45,1.24,4.45,4V606c-.06,1.23.43,2,1.73,1.66v1.24C2284.36,609.45,2282.51,608.77,2282.64,606.74Zm-5.75-1a1.87,1.87,0,0,0,2,2c2.53-.19,3.89-1.79,3.7-4.57-2.65.12-5.68-.31-5.68,2.53"/><path id="cg-5" data-name="cg" class="cls-6" d="M2297.2,597.23c-.61,7.72,2.53,18.09-6.79,16.11a3.5,3.5,0,0,1-2.71-2.65l2-.31c.93,2.9,6.18,2,5.5-1.73V606.8a3.9,3.9,0,0,1-3.77,2.22c-3.33,0-4.2-2.53-4.2-5.92s1-6,4.39-6.05a3.94,3.94,0,0,1,3.64,2.16c.06-.62,0-1.42.12-2Zm-5.12,10.37c2.22,0,3.09-2,3.09-4.5s-.87-4.63-3.09-4.63c-2.41,0-2.84,2.09-2.84,4.63s.37,4.5,2.84,4.5"/><path id="bH-11" data-name="bH" class="cls-6" d="M2304.8,597c3.88,0,5.3,2.6,5.18,6.55h-8.33c0,2.47.86,4.13,3.27,4.2a2.88,2.88,0,0,0,3-1.79l1.73.49c-.68,1.73-2.28,2.78-4.75,2.78-3.58,0-5.43-2.29-5.37-6.18S2301.15,597,2304.8,597Zm3.21,5c.37-3.7-4.7-4.75-6-1.72a4.38,4.38,0,0,0-.37,1.72H2308"/></g><path class="cls-7" d="M1576.57,694.57a8,8,0,0,1,8-8H1735.8a8,8,0,0,1,8,8v70.65a8,8,0,0,1-8,8H1584.57a8,8,0,0,1-8-8Z"/><g id="ar-3" data-name="ar"><path id="cw-5" data-name="cw" class="cls-6" d="M1615.75,720.66l.13-13.45c-1.42,4.69-3.34,8.95-4.94,13.45h-1.42l-5-13.45.06,13.45h-1.79V705.35h2.72l4.75,13c1.3-4.63,3.15-8.64,4.69-13h2.66v15.31h-1.86"/><path id="bX-12" data-name="bX" class="cls-6" d="M1625.57,708.69c3.83-.06,5.25,2.28,5.25,6.11s-1.67,6.11-5.31,6.11-5.13-2.41-5.19-6.11C1620.32,710.73,1622.05,708.69,1625.57,708.69Zm-.06,10.74c2.71.06,3.27-1.91,3.27-4.63s-.49-4.63-3.15-4.63-3.27,2-3.27,4.63.62,4.57,3.15,4.63"/><path id="cA-5" data-name="cA" class="cls-6" d="M1638.84,708.69c3.27,0,4.26,2.41,4.32,6,0,4.07-1.42,6.17-4.32,6.17-1.91-.06-3-.68-3.64-2.1l-.12,1.85h-1.92l.06-16.11h2v6.24C1635.82,709.37,1636.93,708.69,1638.84,708.69Zm-.49,10.74c2.47,0,2.77-2.1,2.77-4.63s-.3-4.63-2.77-4.57-3.15,2-3.15,4.69.62,4.51,3.15,4.51"/><path id="bL-15" data-name="bL" class="cls-6" d="M1645.57,706.4v-1.85h2v1.85Zm0,14.26V708.94h2v11.72h-2"/><path id="cf-5" data-name="cf" class="cls-6" d="M1650.45,720.66V704.55h2v16.11h-2"/><path id="bH-12" data-name="bH" class="cls-6" d="M1660,708.69c3.89,0,5.31,2.59,5.19,6.54h-8.33c0,2.47.86,4.14,3.27,4.2a2.87,2.87,0,0,0,3-1.79l1.73.49c-.68,1.73-2.28,2.78-4.75,2.78-3.58,0-5.43-2.28-5.37-6.17S1656.37,708.69,1660,708.69Zm3.21,5c.37-3.71-4.69-4.75-6-1.73a4.39,4.39,0,0,0-.37,1.73h6.35"/></g><g id="as-3" data-name="as"><path id="bJ-14" data-name="bJ" class="cls-6" d="M1674.21,705.35c7.29-.43,13.33.5,13.15,7.54-.19,4.81-2.65,7.77-7.47,7.77h-5.68Zm2,13.65c5.49.49,9-1,9-6.11s-3.7-6.24-9-5.87v12"/><path id="cc-16" data-name="cc" class="cls-6" d="M1697.05,718.44c-.93,1.3-1.91,2.53-4.2,2.47s-3.58-1.3-3.58-3.52c-.06-3.95,3.89-3.89,7.72-3.89.18-2.16-.56-3.33-2.53-3.33-1.48.06-2.53.43-2.59,1.91l-2-.18c.31-2.29,2-3.21,4.69-3.21s4.44,1.23,4.44,3.95v5.06c-.06,1.24.44,2,1.73,1.67v1.23C1698.78,721.16,1696.93,720.48,1697.05,718.44Zm-5.74-1.05a1.87,1.87,0,0,0,2,2c2.53-.19,3.88-1.79,3.7-4.57-2.66.12-5.68-.31-5.68,2.53"/><path id="bM-11" data-name="bM" class="cls-6" d="M1704.33,717.76c-.12,1.48,1.12,1.79,2.35,1.36v1.48c-2,.62-4.32.31-4.32-2.41v-7.84H1701v-1.41h1.48l.56-2.66h1.29v2.66h2.17v1.41h-2.17v7.41"/><path id="cc-17" data-name="cc" class="cls-6" d="M1715.57,718.44c-.93,1.3-1.91,2.53-4.2,2.47s-3.58-1.3-3.58-3.52c-.06-3.95,3.89-3.89,7.72-3.89.18-2.16-.56-3.33-2.53-3.33-1.48.06-2.53.43-2.6,1.91l-2-.18c.31-2.29,2-3.21,4.69-3.21s4.44,1.23,4.44,3.95v5.06c-.06,1.24.43,2,1.73,1.67v1.23C1717.3,721.16,1715.45,720.48,1715.57,718.44Zm-5.74-1.05a1.86,1.86,0,0,0,2,2c2.53-.19,3.89-1.79,3.71-4.57-2.66.12-5.68-.31-5.68,2.53"/></g><g id="at-4" data-name="at"><path id="bF-7" data-name="bF" class="cls-6" d="M1642.33,741.59c-.06,4-2.47,6-6.42,6-3.77,0-6.17-2-6.17-5.81V732h2c.5,5.5-2,13.83,4.14,13.83s3.95-8.21,4.38-13.83h2v9.57"/><path id="bG-12" data-name="bG" class="cls-6" d="M1652.33,738.5c-.19-2.1-5.31-2.34-5.37,0,.92,3.27,7.1.74,7.34,5.56s-9.26,4.57-9.69.49l1.73-.31c.25,2.23,6,2.78,6.05,0-.62-3.45-7-.92-7.28-5.55-.25-3.52,5.06-3.89,7.53-2.59a3.11,3.11,0,0,1,1.48,2.16"/><path id="cc-18" data-name="cc" class="cls-6" d="M1663.81,745.11c-.93,1.29-1.91,2.53-4.2,2.47s-3.58-1.3-3.58-3.52c-.06-3.95,3.89-3.89,7.72-3.89.18-2.16-.56-3.33-2.53-3.33-1.48.06-2.53.43-2.6,1.91l-2-.19c.31-2.28,2-3.2,4.69-3.2s4.44,1.23,4.44,3.95v5.06c-.06,1.23.44,2,1.73,1.66v1.24C1665.54,747.82,1663.69,747.15,1663.81,745.11Zm-5.74-1.05a1.87,1.87,0,0,0,2,2c2.54-.19,3.89-1.79,3.71-4.57-2.66.12-5.68-.31-5.68,2.53"/><path id="cg-6" data-name="cg" class="cls-6" d="M1678.38,735.6c-.62,7.72,2.53,18.09-6.79,16.11a3.52,3.52,0,0,1-2.72-2.65l2-.31c.92,2.9,6.17,2,5.49-1.73v-1.85a3.9,3.9,0,0,1-3.76,2.22c-3.34,0-4.2-2.53-4.2-5.92s1-6,4.38-6.05a4,4,0,0,1,3.64,2.16,17.79,17.79,0,0,1,.13-2ZM1673.25,746c2.23,0,3.09-2,3.09-4.5s-.86-4.63-3.09-4.63c-2.4,0-2.84,2.1-2.84,4.63s.38,4.5,2.84,4.5"/><path id="bH-13" data-name="bH" class="cls-6" d="M1686,735.36c3.89,0,5.31,2.59,5.19,6.54h-8.34c0,2.47.87,4.13,3.27,4.2a2.88,2.88,0,0,0,3-1.79l1.73.49c-.68,1.73-2.29,2.78-4.76,2.78-3.58,0-5.43-2.29-5.37-6.18S1682.33,735.36,1686,735.36Zm3.21,5c.37-3.71-4.69-4.76-6-1.73a4.58,4.58,0,0,0-.37,1.73h6.36"/></g><path class="cls-7" d="M483.37,617a8,8,0,0,1,8-8H642.6a8,8,0,0,1,8,8v70.65a8,8,0,0,1-8,8H491.37a8,8,0,0,1-8-8Z"/><g id="ar-4" data-name="ar"><path id="cw-6" data-name="cw" class="cls-6" d="M514.31,643.11l.13-13.46c-1.42,4.69-3.34,9-4.94,13.46h-1.42l-5-13.46.06,13.46h-1.79V627.8h2.72l4.75,13c1.3-4.63,3.15-8.65,4.69-13h2.66v15.31h-1.86"/><path id="bX-13" data-name="bX" class="cls-6" d="M524.13,631.13c3.83-.06,5.25,2.29,5.25,6.12s-1.67,6.11-5.31,6.11-5.13-2.41-5.19-6.11C518.88,633.17,520.61,631.13,524.13,631.13Zm-.06,10.74c2.71.07,3.27-1.91,3.27-4.62s-.49-4.63-3.15-4.63-3.27,2-3.27,4.63.62,4.56,3.15,4.62"/><path id="cA-6" data-name="cA" class="cls-6" d="M537.4,631.13c3.27,0,4.26,2.41,4.32,6,0,4.08-1.42,6.18-4.32,6.18-1.91-.07-3-.68-3.64-2.1l-.12,1.85h-1.92l.06-16.11h2v6.23C534.38,631.81,535.49,631.13,537.4,631.13Zm-.49,10.74c2.47,0,2.78-2.09,2.78-4.62s-.31-4.63-2.78-4.57-3.15,2-3.15,4.69.62,4.5,3.15,4.5"/><path id="bL-16" data-name="bL" class="cls-6" d="M544.13,628.85V627h2v1.85Zm0,14.26V631.38h2v11.73h-2"/><path id="cf-6" data-name="cf" class="cls-6" d="M549,643.11V627h2v16.11h-2"/><path id="bH-14" data-name="bH" class="cls-6" d="M558.57,631.13c3.89,0,5.31,2.6,5.19,6.55h-8.33c0,2.47.86,4.13,3.27,4.19a2.86,2.86,0,0,0,3-1.79l1.73.5c-.68,1.73-2.28,2.78-4.75,2.78-3.58,0-5.43-2.29-5.37-6.18S554.93,631.13,558.57,631.13Zm3.21,5c.37-3.7-4.69-4.75-6-1.72a4.38,4.38,0,0,0-.37,1.72h6.35"/></g><g id="av-4" data-name="av"><path id="cB-5" data-name="cB" class="cls-6" d="M578.2,636.5v4.63h-1.6V636.5H572v-1.6h4.57v-4.63h1.6v4.63h4.57v1.6H578.2"/></g><g id="aw-5" data-name="aw"><path id="cm-5" data-name="cm" class="cls-6" d="M606.48,643.11H604l-3.46-13-3.4,13h-2.46l-4.51-15.31h2.16L596,641.26l.93-4,2.65-9.51h2l3.64,13.46,3.64-13.46H611"/><path id="bL-17" data-name="bL" class="cls-6" d="M612.46,628.85V627h2v1.85Zm0,14.26V631.38h2v11.73h-2"/><path id="cn-5" data-name="cn" class="cls-6" d="M619.75,629.53v5.68h8.52v1.73h-8.52v6.17h-2V627.8h10.8v1.73h-8.76"/><path id="bL-18" data-name="bL" class="cls-6" d="M630.86,628.85V627h2v1.85Zm0,14.26V631.38h2v11.73h-2"/></g><g id="ax-3" data-name="ax"><path id="bJ-15" data-name="bJ" class="cls-6" d="M510.15,654.47c7.28-.43,13.33.49,13.15,7.53-.19,4.81-2.66,7.78-7.47,7.78h-5.68Zm2,13.64c5.49.49,9-1,9-6.11s-3.71-6.24-9-5.87v12"/><path id="cc-19" data-name="cc" class="cls-6" d="M533,667.55c-.93,1.3-1.92,2.53-4.2,2.47s-3.58-1.29-3.58-3.52c-.06-4,3.89-3.88,7.72-3.88.18-2.16-.56-3.34-2.54-3.34-1.48.06-2.53.43-2.59,1.92l-2-.19c.3-2.28,2-3.21,4.69-3.21s4.44,1.24,4.44,4v5.06c-.06,1.24.43,2,1.73,1.67v1.23C534.72,670.27,532.86,669.59,533,667.55Zm-5.74-1a1.86,1.86,0,0,0,2,2c2.53-.18,3.89-1.79,3.71-4.57-2.66.13-5.68-.3-5.68,2.53"/><path id="bM-12" data-name="bM" class="cls-6" d="M540.27,666.87c-.12,1.49,1.11,1.8,2.35,1.36v1.48c-2,.62-4.32.31-4.32-2.4v-7.84h-1.36v-1.42h1.48l.56-2.66h1.29v2.66h2.16v1.42h-2.16v7.4"/><path id="cc-20" data-name="cc" class="cls-6" d="M551.51,667.55c-.93,1.3-1.92,2.53-4.2,2.47s-3.58-1.29-3.58-3.52c-.06-4,3.89-3.88,7.71-3.88.19-2.16-.55-3.34-2.53-3.34-1.48.06-2.53.43-2.59,1.92l-2-.19c.31-2.28,2-3.21,4.7-3.21s4.44,1.24,4.44,4v5.06c-.06,1.24.43,2,1.73,1.67v1.23C553.23,670.27,551.38,669.59,551.51,667.55Zm-5.74-1a1.86,1.86,0,0,0,2,2c2.53-.18,3.89-1.79,3.7-4.57-2.65.13-5.67-.3-5.67,2.53"/></g><g id="at-5" data-name="at"><path id="bF-8" data-name="bF" class="cls-6" d="M575.64,664c-.06,4-2.47,6-6.42,6-3.76,0-6.17-2-6.17-5.8v-9.75h2c.49,5.49-2,13.82,4.13,13.82s3.95-8.21,4.38-13.82h2V664"/><path id="bG-13" data-name="bG" class="cls-6" d="M585.64,661c-.18-2.1-5.31-2.35-5.37,0,.93,3.27,7.1.74,7.35,5.55s-9.26,4.57-9.69.5l1.72-.31c.25,2.22,6,2.78,6.05,0-.61-3.46-7-.93-7.28-5.56-.25-3.51,5.06-3.88,7.53-2.59a3.08,3.08,0,0,1,1.48,2.16"/><path id="cc-21" data-name="cc" class="cls-6" d="M597.12,667.55c-.92,1.3-1.91,2.53-4.19,2.47s-3.58-1.29-3.58-3.52c-.07-4,3.88-3.88,7.71-3.88.19-2.16-.55-3.34-2.53-3.34-1.48.06-2.53.43-2.59,1.92l-2-.19c.31-2.28,2-3.21,4.69-3.21s4.45,1.24,4.45,4v5.06c-.06,1.24.43,2,1.73,1.67v1.23C598.85,670.27,597,669.59,597.12,667.55Zm-5.74-1a1.87,1.87,0,0,0,2,2c2.53-.18,3.89-1.79,3.7-4.57-2.65.13-5.68-.3-5.68,2.53"/><path id="cg-7" data-name="cg" class="cls-6" d="M611.69,658.05c-.62,7.71,2.53,18.08-6.79,16.11a3.52,3.52,0,0,1-2.71-2.66l2-.3c.93,2.9,6.17,2,5.49-1.73v-1.85a3.9,3.9,0,0,1-3.76,2.22c-3.33,0-4.2-2.53-4.2-5.93s1-6,4.38-6a4,4,0,0,1,3.65,2.16c.06-.61,0-1.42.12-2Zm-5.12,10.37c2.22,0,3.08-2,3.08-4.51s-.86-4.63-3.08-4.63c-2.41,0-2.84,2.1-2.84,4.63s.37,4.51,2.84,4.51"/><path id="bH-15" data-name="bH" class="cls-6" d="M619.28,657.8c3.89,0,5.31,2.59,5.19,6.54h-8.33c0,2.47.86,4.14,3.27,4.2a2.87,2.87,0,0,0,3-1.79l1.73.5c-.68,1.72-2.28,2.77-4.75,2.77-3.58,0-5.43-2.28-5.37-6.17S615.64,657.8,619.28,657.8Zm3.21,5c.37-3.7-4.69-4.75-6-1.73a4.39,4.39,0,0,0-.37,1.73h6.35"/></g><path class="cls-7" d="M197.52,590.56a8,8,0,0,1,8-8H385.07a8,8,0,0,1,8,8V744.9a8,8,0,0,1-8,8H205.52a8,8,0,0,1-8-8Z"/><path class="cls-7" d="M1037.73,1138.6a8,8,0,0,1,8-8H1197a8,8,0,0,1,8,8v58.7a8,8,0,0,1-8,8H1045.73a8,8,0,0,1-8-8Z"/><path class="cls-7" d="M1220.7,1321.64a8,8,0,0,1,8-8h153.85a8,8,0,0,1,8,8v65.25a8,8,0,0,1-8,8H1228.7a8,8,0,0,1-8-8Z"/><path class="cls-7" d="M1400.33,1046.73a8,8,0,0,1,8-8h151.22a8,8,0,0,1,8,8v64a8,8,0,0,1-8,8H1408.33a8,8,0,0,1-8-8Z"/><path class="cls-10" d="M1037.73,1322.35a8,8,0,0,1,8-8H1197a8,8,0,0,1,8,8v58.72a8,8,0,0,1-8,8H1045.73a8,8,0,0,1-8-8Z"/><path class="cls-5" d="M854.74,587.45a8,8,0,0,1,8-8h158a8,8,0,0,1,8,8v74a8,8,0,0,1-8,8h-158a8,8,0,0,1-8-8Z"/><g id="aH"><path id="cF-7" data-name="cF" class="cls-6" d="M929.12,620.64c3.25-2.38,9.3-.54,8.89,4.14.75,6.73-10.46,7.74-11.61,1.77l2.17-.27a3.28,3.28,0,0,0,3.53,2.51c2.38-.07,3.47-1.49,3.67-3.94.27-3.73-5-4.41-6.72-2.31h-2.11l.55-9.1h9.57v1.84h-7.6"/><path id="be-6" data-name="be" class="cls-6" d="M948.74,630.55c-5.57,0-8.22-3.25-8.49-8.75-.34-7.27,6.79-10.46,13.11-7.54a5.62,5.62,0,0,1,2.51,2.92l-2.17.61c-.89-1.7-2.52-2.72-5.16-2.72-4.15,0-6,2.65-6,6.73s2,6.79,6.18,6.85a7.67,7.67,0,0,0,5.36-1.83v-3.06h-5v-1.9h7.13v5.84a10.16,10.16,0,0,1-7.47,2.85"/></g><path class="cls-9" d="M1214,468a8,8,0,0,1,8-8h158a8,8,0,0,1,8,8v74a8,8,0,0,1-8,8H1222a8,8,0,0,1-8-8Z"/><g id="aI"><path id="cw-7" data-name="cw" class="cls-6" d="M1281.39,510.84l.13-14.81c-1.56,5.16-3.67,9.85-5.43,14.81h-1.56L1269,496l.06,14.81h-2V494h3l5.23,14.32c1.43-5.09,3.46-9.5,5.16-14.32h2.92v16.84h-2"/><path id="bX-14" data-name="bX" class="cls-6" d="M1292.18,497.66c4.21-.06,5.77,2.52,5.77,6.73s-1.83,6.72-5.84,6.72-5.63-2.65-5.7-6.72C1286.41,499.9,1288.31,497.66,1292.18,497.66Zm-.07,11.82c3,.07,3.6-2.11,3.6-5.09s-.54-5.1-3.46-5.1-3.6,2.18-3.6,5.1.68,5,3.46,5.09"/><path id="cA-7" data-name="cA" class="cls-6" d="M1306.78,497.66c3.6,0,4.69,2.65,4.75,6.66,0,4.48-1.56,6.79-4.75,6.79-2.1-.07-3.33-.75-4-2.31l-.13,2h-2.11l.07-17.73h2.17V500C1303.45,498.41,1304.68,497.66,1306.78,497.66Zm-.54,11.82c2.71,0,3-2.31,3-5.09s-.34-5.1-3-5-3.47,2.17-3.47,5.16.68,5,3.47,5"/><path id="bL-19" data-name="bL" class="cls-6" d="M1314.18,495.15v-2h2.17v2Zm0,15.69v-12.9h2.17v12.9h-2.17"/><path id="cf-8" data-name="cf" class="cls-6" d="M1319.55,510.84V493.11h2.17v17.73h-2.17"/><path id="bH-16" data-name="bH" class="cls-6" d="M1330.07,497.66c4.28,0,5.84,2.86,5.7,7.2h-9.16c0,2.72,1,4.55,3.6,4.62a3.15,3.15,0,0,0,3.32-2l1.9.54c-.74,1.9-2.51,3.06-5.22,3.06-3.94,0-6-2.51-5.91-6.79S1326.06,497.66,1330.07,497.66Zm3.53,5.5c.41-4.07-5.16-5.22-6.59-1.9a5.05,5.05,0,0,0-.4,1.9h7"/></g><path class="cls-7" d="M0,580.83a8,8,0,0,1,8-8H172a8,8,0,0,1,8,8V687.67a8,8,0,0,1-8,8H8a8,8,0,0,1-8-8Z"/><path class="cls-7" d="M0,717.44a8,8,0,0,1,8-8H172a8,8,0,0,1,8,8V824.28a8,8,0,0,1-8,8H8a8,8,0,0,1-8-8Z"/><path class="cls-7" d="M0,448a8,8,0,0,1,8-8H172a8,8,0,0,1,8,8V554.84a8,8,0,0,1-8,8H8a8,8,0,0,1-8-8Z"/><g id="aM"><path id="bd-3" data-name="bd" class="cls-6" d="M29.57,504.29v3.46H27.72v-3.46H20.5v-1.54l7-10.31h2v10.31h2.16v1.54Zm-1.85-9.63c-1.67,2.84-3.58,5.56-5.43,8.09h5.43v-8.09"/><path id="be-7" data-name="be" class="cls-6" d="M41.18,508c-5.06,0-7.47-3-7.72-8-.31-6.6,6.17-9.51,11.92-6.85a5.11,5.11,0,0,1,2.28,2.65l-2,.56c-.8-1.54-2.28-2.47-4.69-2.47-3.76,0-5.43,2.41-5.43,6.11s1.79,6.17,5.62,6.24a7,7,0,0,0,4.87-1.67v-2.78H41.49v-1.73H48v5.31A9.28,9.28,0,0,1,41.18,508"/></g><g id="aK"><path id="cx" class="cls-6" d="M68.46,507.75l-1.73-4.45h-7L58,507.75H55.87l6.23-15.31h2.35l6.11,15.31Zm-2.34-6.11L63.21,494c-.74,2.78-1.91,5.06-2.83,7.6h5.74"/><path id="cr" class="cls-6" d="M76.86,507.75H74.51L70.25,496h2.1l3.33,10.18L79.14,496h2.1"/><path id="cc-22" data-name="cc" class="cls-6" d="M90,505.52c-.93,1.3-1.92,2.54-4.2,2.47s-3.58-1.29-3.58-3.52c-.06-4,3.89-3.88,7.71-3.88.19-2.16-.55-3.34-2.53-3.34-1.48.06-2.53.43-2.59,1.92l-2-.19c.31-2.28,2-3.21,4.69-3.21s4.45,1.24,4.45,4v5.06c-.06,1.24.43,2,1.73,1.67v1.23C91.73,508.24,89.88,507.56,90,505.52Zm-5.75-1a1.87,1.87,0,0,0,2,2c2.53-.18,3.89-1.79,3.7-4.57-2.65.13-5.68-.3-5.68,2.53"/><path id="bL-20" data-name="bL" class="cls-6" d="M95.13,493.49v-1.85h2v1.85Zm0,14.26V496h2v11.73h-2"/><path id="cf-9" data-name="cf" class="cls-6" d="M100,507.75V491.64h2v16.11h-2"/><path id="cc-23" data-name="cc" class="cls-6" d="M112.1,505.52c-.92,1.3-1.91,2.54-4.19,2.47s-3.58-1.29-3.58-3.52c-.07-4,3.88-3.88,7.71-3.88.19-2.16-.55-3.34-2.53-3.34-1.48.06-2.53.43-2.59,1.92l-2-.19c.31-2.28,2-3.21,4.69-3.21s4.45,1.24,4.45,4v5.06c-.06,1.24.43,2,1.73,1.67v1.23C113.83,508.24,112,507.56,112.1,505.52Zm-5.74-1a1.87,1.87,0,0,0,2,2c2.53-.18,3.89-1.79,3.7-4.57-2.65.13-5.68-.3-5.68,2.53"/><path id="cA-8" data-name="cA" class="cls-6" d="M122.84,495.77c3.28,0,4.26,2.41,4.33,6.05,0,4.07-1.42,6.17-4.33,6.17-1.91-.06-3-.68-3.64-2.1l-.12,1.86h-1.91l.06-16.11h2v6.23C119.82,496.45,120.93,495.77,122.84,495.77Zm-.49,10.74c2.47,0,2.78-2.1,2.78-4.63s-.31-4.63-2.78-4.57-3.15,2-3.15,4.7.62,4.5,3.15,4.5"/><path id="bL-21" data-name="bL" class="cls-6" d="M129.57,493.49v-1.85h2v1.85Zm0,14.26V496h2v11.73h-2"/><path id="cf-10" data-name="cf" class="cls-6" d="M134.45,507.75V491.64h2v16.11h-2"/><path id="bL-22" data-name="bL" class="cls-6" d="M139.33,493.49v-1.85h2v1.85Zm0,14.26V496h2v11.73h-2"/><path id="bM-13" data-name="bM" class="cls-6" d="M146.36,504.85c-.12,1.48,1.11,1.79,2.35,1.35v1.48c-2,.62-4.32.31-4.32-2.4v-7.84H143V496h1.48l.56-2.66h1.29V496h2.16v1.42h-2.16v7.41"/><path id="bN-7" data-name="bN" class="cls-6" d="M159.94,496l-5.31,13.64c-.86,1.73-2.28,3.15-5,2.59v-1.48c2.41.37,3.28-1.23,4-3.09L149,496h2.09l3.52,9.63,3.34-9.63h2"/></g><path class="cls-3" d="M1121.34,1389.57v16.16"/><path class="cls-4" d="M1121.84,1389.58h-1v-.5h1Zm0,16.65h-1v-.5h1Z"/><path class="cls-3" d="M1124.22,1481.45v12.78"/><path class="cls-4" d="M1124.72,1481.46h-1v-.5h1Zm0,13.27h-1v-.52h1Z"/><path class="cls-3" d="M1124.62,1569.94v12.78"/><path class="cls-4" d="M1125.12,1570h-1v-.52h1Zm0,13.26h-1v-.5h1Z"/><path class="cls-3" d="M1124.62,1658.44v12.78"/><path class="cls-4" d="M1125.12,1658.45h-1v-.5h1Zm0,13.27h-1v-.52h1Z"/><path class="cls-3" d="M1124.22,1746.93v12.77"/><path class="cls-4" d="M1124.72,1747h-1v-.52h1Zm0,13.25h-1v-.5h1Z"/><path class="cls-3" d="M1125,1835.43v12.77"/><path class="cls-4" d="M1125.52,1835.44h-1v-.5h1Zm0,13.26h-1v-.5h1Z"/><path class="cls-3" d="M1125,1923.93v12.77"/><path class="cls-4" d="M1125.52,1923.94h-1v-.5h1Zm0,13.26h-1v-.5h1Z"/><path class="cls-3" d="M1121.34,2100.92v12.78"/><path class="cls-4" d="M1121.84,2100.93h-1v-.5h1Zm0,13.27h-1v-.5h1Z"/><path class="cls-3" d="M1121.34,2012.42v12.78"/><path class="cls-4" d="M1121.84,2012.44h-1v-.52h1Zm0,13.26h-1v-.5h1Z"/><path class="cls-3" d="M1121.34,1297.7v16.15"/><path class="cls-4" d="M1121.84,1297.7h-1v-.5h1Zm0,16.65h-1v-.5h1Z"/><path class="cls-3" d="M1121.34,936.94v12.78"/><path class="cls-4" d="M1121.84,937h-1v-.5h1Zm0,13.27h-1v-.52h1Z"/><path class="cls-3" d="M1121.34,670v14.23"/><path class="cls-4" d="M1121.84,670h-1v-.5h1Zm0,14.73h-1v-.52h1Z"/><path class="cls-3" d="M1301,550.55v14.2h-179.6V579"/><path class="cls-4" d="M1301.45,550.56h-1v-.5h1Zm-179.61,28.89h-1v-.52h1Z"/><path class="cls-5" d="M1573.2,587.45a8,8,0,0,1,8-8h158a8,8,0,0,1,8,8v74a8,8,0,0,1-8,8h-158a8,8,0,0,1-8-8Z"/><g id="aN"><path id="cx-2" data-name="cx" class="cls-6" d="M1631.45,630.28l-1.9-4.89h-7.68l-1.9,4.89h-2.37l6.85-16.84H1627l6.73,16.84Zm-2.58-6.72-3.19-8.35c-.82,3-2.11,5.57-3.13,8.35h6.32"/><path id="cf-11" data-name="cf" class="cls-6" d="M1635.45,630.28V612.56h2.18v17.72h-2.18"/><path id="cf-12" data-name="cf" class="cls-6" d="M1640.82,630.28V612.56H1643v17.72h-2.17"/></g><g id="aO"><path id="bg-14" data-name="bg" class="cls-6" d="M1660,615.34v14.94h-2.31V615.34h-5.77v-1.9h13.85v1.9H1660"/><path id="bH-17" data-name="bH" class="cls-6" d="M1670.29,617.11c4.28,0,5.84,2.85,5.7,7.2h-9.17c0,2.71,1,4.55,3.6,4.62a3.18,3.18,0,0,0,3.33-2l1.9.54c-.75,1.9-2.51,3-5.23,3-3.94,0-6-2.51-5.9-6.79S1666.28,617.11,1670.29,617.11Zm3.53,5.5c.41-4.07-5.16-5.23-6.59-1.9a5,5,0,0,0-.41,1.9h7"/><path id="cd-2" data-name="cd" class="cls-6" d="M1683.6,618.81c-2.72,0-3.26,2.24-3.26,5s.61,5.1,3.26,5.1a2.71,2.71,0,0,0,2.92-2.58l2.17.13a4.65,4.65,0,0,1-5,4.14c-4,0-5.16-2.78-5.56-6.72-.68-6.31,6.85-8.89,10-4.34a5.29,5.29,0,0,1,.47,1.49l-2.17.2a2.6,2.6,0,0,0-2.78-2.37"/><path id="ce-2" data-name="ce" class="cls-6" d="M1696.5,618.81c-4.89,0-3,6.92-3.33,11.47H1691V612.56h2.17l-.07,7a4.3,4.3,0,0,1,4.14-2.44c6,0,3.6,7.88,4.08,13.17h-2.17v-8.21c.13-2.18-.55-3.33-2.65-3.26"/></g><path class="cls-3" d="M1301,550.55v14.2H941.72V579"/><path class="cls-4" d="M1301.45,550.56h-1v-.5h1ZM942.22,579.45h-1v-.52h1Z"/><path class="cls-3" d="M1301,550.55v14.2h179.62V579"/><path class="cls-4" d="M1301.45,550.56h-1v-.5h1Zm179.62,28.89h-1v-.52h1Z"/><path class="cls-3" d="M1301,550.55v14.2h359.23V579"/><path class="cls-4" d="M1301.45,550.56h-1v-.5h1Zm359.23,28.89h-1v-.52h1Z"/><path class="cls-3" d="M1301,579v-28.4"/><path class="cls-4" d="M1301.45,579.45h-1v-.52h1Zm0-28.89h-1v-.5h1Z"/><path class="cls-9" d="M1804.66,456.2a8,8,0,0,1,8-8h158a8,8,0,0,1,8,8v74.05a8,8,0,0,1-8,8h-158a8,8,0,0,1-8-8Z"/><g id="D-3" data-name="D"><path id="cm-6" data-name="cm" class="cls-6" d="M1885.42,499h-2.71l-3.81-14.26L1875.17,499h-2.72l-5-16.84h2.37l4,14.8,1-4.34,2.92-10.46H1880l4,14.8,4-14.8h2.38"/><path id="bL-23" data-name="bL" class="cls-6" d="M1892,483.35v-2h2.17v2Zm0,15.69v-12.9h2.17V499H1892"/><path id="cn-6" data-name="cn" class="cls-6" d="M1900,484.1v6.25h9.37v1.9H1900V499h-2.24V482.2h11.88v1.9H1900"/><path id="bL-24" data-name="bL" class="cls-6" d="M1912.24,483.35v-2h2.18v2Zm0,15.69v-12.9h2.18V499h-2.18"/></g><path class="cls-9" d="M1982.7,456.2a8,8,0,0,1,8-8h158a8,8,0,0,1,8,8v74.05a8,8,0,0,1-8,8h-158a8,8,0,0,1-8-8Z"/><g id="aI-2" data-name="aI"><path id="cw-8" data-name="cw" class="cls-6" d="M2050.11,499l.13-14.8c-1.56,5.16-3.66,9.84-5.43,14.8h-1.56l-5.5-14.8.07,14.8h-2V482.2h3l5.22,14.33c1.43-5.1,3.47-9.51,5.16-14.33h2.92V499h-2"/><path id="bX-15" data-name="bX" class="cls-6" d="M2060.9,485.87c4.21-.07,5.77,2.51,5.77,6.72s-1.83,6.72-5.83,6.72-5.64-2.65-5.71-6.72C2055.13,488.11,2057,485.87,2060.9,485.87Zm-.06,11.81c3,.07,3.59-2.1,3.59-5.09s-.54-5.09-3.46-5.09-3.6,2.17-3.6,5.09.68,5,3.47,5.09"/><path id="cA-9" data-name="cA" class="cls-6" d="M2075.5,485.87c3.6,0,4.69,2.64,4.76,6.65,0,4.48-1.57,6.79-4.76,6.79-2.1-.07-3.33-.75-4-2.31l-.14,2h-2.1l.06-17.72h2.18v6.86C2072.17,486.61,2073.4,485.87,2075.5,485.87Zm-.54,11.81c2.71,0,3.05-2.31,3.05-5.09s-.34-5.09-3.05-5-3.46,2.18-3.46,5.16.67,5,3.46,5"/><path id="bL-25" data-name="bL" class="cls-6" d="M2082.9,483.35v-2h2.18v2Zm0,15.69v-12.9h2.18V499h-2.18"/><path id="cf-13" data-name="cf" class="cls-6" d="M2088.27,499V481.32h2.17V499h-2.17"/><path id="bH-18" data-name="bH" class="cls-6" d="M2098.79,485.87c4.28,0,5.84,2.85,5.71,7.19h-9.17c0,2.72,1,4.55,3.6,4.62a3.16,3.16,0,0,0,3.33-2l1.9.55c-.75,1.9-2.52,3.05-5.23,3.05-3.94,0-6-2.51-5.91-6.79S2094.79,485.87,2098.79,485.87Zm3.53,5.5c.41-4.08-5.16-5.23-6.58-1.9a4.78,4.78,0,0,0-.41,1.9h7"/></g><path class="cls-9" d="M2165.38,456.2a8,8,0,0,1,8-8h158a8,8,0,0,1,8,8v74.05a8,8,0,0,1-8,8h-158a8,8,0,0,1-8-8Z"/><g id="aP"><path id="ch-2" data-name="ch" class="cls-6" d="M2238.13,490.14c2.38.34,4.14,1.57,4.14,4.15,0,5.9-7.2,4.61-13,4.75V482.2c5.16.2,12-1.15,12,4.07A3.72,3.72,0,0,1,2238.13,490.14Zm-6.59-.74c3.4-.07,7.47.61,7.47-2.85,0-3.2-4.28-2.45-7.47-2.52Zm0,7.81c3.74-.14,8.42,1,8.42-3.06,0-3.8-4.75-2.85-8.42-3v6"/><path id="bX-16" data-name="bX" class="cls-6" d="M2250.35,485.87c4.21-.07,5.77,2.51,5.77,6.72s-1.83,6.72-5.84,6.72-5.63-2.65-5.7-6.72C2244.58,488.11,2246.48,485.87,2250.35,485.87Zm-.07,11.81c3,.07,3.6-2.1,3.6-5.09s-.54-5.09-3.46-5.09-3.6,2.17-3.6,5.09.68,5,3.46,5.09"/><path id="bM-14" data-name="bM" class="cls-6" d="M2261.15,495.85c-.14,1.63,1.22,2,2.58,1.49V499c-2.24.68-4.76.34-4.76-2.65V487.7h-1.49v-1.56h1.63l.61-2.92h1.43v2.92h2.37v1.56h-2.37v8.15"/><path id="ce-3" data-name="ce" class="cls-6" d="M2271.13,487.56c-4.89,0-3,6.93-3.33,11.48h-2.17V481.32h2.17l-.07,7a4.32,4.32,0,0,1,4.15-2.44c6,0,3.59,7.87,4.07,13.17h-2.17v-8.22c.13-2.17-.55-3.32-2.65-3.26"/></g><path class="cls-9" d="M480,468a8,8,0,0,1,8-8H646a8,8,0,0,1,8,8v74a8,8,0,0,1-8,8H488a8,8,0,0,1-8-8Z"/><g id="aP-2" data-name="aP"><path id="ch-3" data-name="ch" class="cls-6" d="M552.75,501.94c2.37.34,4.14,1.56,4.14,4.14,0,5.91-7.2,4.62-13,4.76V494c5.16.2,12-1.16,12,4.07A3.72,3.72,0,0,1,552.75,501.94Zm-6.59-.75c3.39-.06,7.47.62,7.47-2.85,0-3.19-4.28-2.44-7.47-2.51Zm0,7.81c3.73-.13,8.42.95,8.42-3.05,0-3.8-4.75-2.85-8.42-3v6"/><path id="bX-17" data-name="bX" class="cls-6" d="M565,497.66c4.21-.06,5.77,2.52,5.77,6.73s-1.83,6.72-5.84,6.72-5.64-2.65-5.7-6.72C559.2,499.9,561.1,497.66,565,497.66Zm-.07,11.82c3,.07,3.6-2.11,3.6-5.09s-.54-5.1-3.46-5.1-3.6,2.18-3.6,5.1.68,5,3.46,5.09"/><path id="bM-15" data-name="bM" class="cls-6" d="M575.76,507.65c-.13,1.63,1.23,2,2.58,1.49v1.63c-2.24.68-4.75.34-4.75-2.65V499.5H572.1v-1.56h1.63l.61-2.92h1.42v2.92h2.38v1.56h-2.38v8.15"/><path id="ce-4" data-name="ce" class="cls-6" d="M585.75,499.36c-4.89,0-3,6.93-3.33,11.48h-2.17V493.11h2.17l-.07,7a4.3,4.3,0,0,1,4.14-2.45c6,0,3.6,7.88,4.08,13.18h-2.18v-8.22c.14-2.17-.54-3.33-2.64-3.26"/></g><path class="cls-3" d="M567,550.55v58"/><path class="cls-4" d="M567.48,550.56h-1v-.5h1Zm0,58.46h-1v-.5h1Z"/><path class="cls-3" d="M1660.18,686.07V670"/><path class="cls-4" d="M1660.68,686.57h-1v-.5h1Zm0-16.57h-1v-.5h1Z"/><path class="cls-7" d="M854.74,692.4a8,8,0,0,1,8-8H1014a8,8,0,0,1,8,8v58.72a8,8,0,0,1-8,8H862.74a8,8,0,0,1-8-8Z"/><g id="Y"><path id="cw-9" data-name="cw" class="cls-6" d="M929,711.19l.12-13.45c-1.42,4.69-3.33,9-4.94,13.45h-1.42l-5-13.45.06,13.45h-1.79V695.88h2.72l4.75,13c1.3-4.63,3.15-8.64,4.69-13h2.66v15.31H929"/><path id="bX-18" data-name="bX" class="cls-6" d="M938.83,699.22c3.83-.06,5.25,2.28,5.25,6.11s-1.67,6.11-5.31,6.11-5.12-2.41-5.19-6.11C933.58,701.25,935.31,699.22,938.83,699.22ZM938.77,710c2.72.06,3.27-1.92,3.27-4.63s-.49-4.63-3.15-4.63-3.27,2-3.27,4.63.62,4.57,3.15,4.63"/><path id="bG-15" data-name="bG" class="cls-6" d="M953.34,702.37c-.19-2.1-5.31-2.35-5.37,0,.92,3.27,7.1.74,7.34,5.55s-9.26,4.57-9.69.49l1.73-.3c.25,2.22,6,2.77,6,0-.62-3.46-7-.93-7.28-5.56-.25-3.52,5.06-3.89,7.53-2.59a3.11,3.11,0,0,1,1.48,2.16"/><path id="bM-16" data-name="bM" class="cls-6" d="M959.76,708.29c-.13,1.48,1.11,1.79,2.34,1.36v1.48c-2,.62-4.32.31-4.32-2.41v-7.84h-1.36v-1.42h1.49l.55-2.65h1.3v2.65h2.16v1.42h-2.16v7.41"/></g><g id="Z"><path id="cn-7" data-name="cn" class="cls-6" d="M875.62,724.28V730h8.52v1.73h-8.52v6.17h-2V722.55h10.81v1.73h-8.77"/><path id="bI-8" data-name="bI" class="cls-6" d="M892.29,727.8c-4.82-1-3.27,5.61-3.52,10.06h-2l-.06-11.73h1.85a15.38,15.38,0,0,0,.13,2.41c.37-1.67,1.42-3,3.58-2.53v1.79"/><path id="bH-19" data-name="bH" class="cls-6" d="M898.77,725.88c3.89,0,5.31,2.6,5.19,6.55h-8.34c0,2.47.87,4.13,3.27,4.19a2.86,2.86,0,0,0,3-1.79l1.73.5c-.68,1.73-2.29,2.78-4.76,2.78-3.58,0-5.43-2.29-5.37-6.18S895.13,725.88,898.77,725.88Zm3.21,5c.37-3.7-4.69-4.75-6-1.72a4.52,4.52,0,0,0-.37,1.72H902"/><path id="cy" class="cls-6" d="M913.89,736a3.75,3.75,0,0,1-3.7,2.16c-3.27,0-4.26-2.41-4.32-6.05s1-6.11,4.32-6.18a3.85,3.85,0,0,1,3.7,2,6.44,6.44,0,0,1,.13-2h1.85l-.06,16.54h-2Zm-3.21.61c2.53,0,3.15-2,3.15-4.69s-.49-4.5-3.08-4.5-2.84,2.16-2.84,4.62.3,4.57,2.77,4.57"/><path id="ca-10" data-name="ca" class="cls-6" d="M922.47,738.11c-5.49.24-3.33-7.16-3.76-12h2v7.41c0,1.91.44,3.08,2.41,3,4.45-.12,2.78-6.23,3.09-10.43h1.91l.06,11.73H926.3a11,11,0,0,0-.12-2,3.88,3.88,0,0,1-3.71,2.29"/><path id="bH-20" data-name="bH" class="cls-6" d="M935.81,725.88c3.89,0,5.31,2.6,5.18,6.55h-8.33c0,2.47.86,4.13,3.27,4.19a2.87,2.87,0,0,0,3-1.79l1.72.5c-.68,1.73-2.28,2.78-4.75,2.78-3.58,0-5.43-2.29-5.37-6.18S932.16,725.88,935.81,725.88Zm3.21,5c.37-3.7-4.69-4.75-6-1.72a4.34,4.34,0,0,0-.37,1.72H939"/><path id="bK-6" data-name="bK" class="cls-6" d="M949.2,725.88c5.5-.24,3.27,7.16,3.71,12h-2v-7.47c0-1.91-.49-3-2.41-3-4.44.12-2.71,6.29-3,10.43h-2l-.06-11.73h1.85a9.55,9.55,0,0,0,.13,2,3.92,3.92,0,0,1,3.76-2.23"/><path id="bM-17" data-name="bM" class="cls-6" d="M958,735c-.13,1.48,1.11,1.79,2.34,1.36v1.48c-2,.61-4.32.31-4.32-2.41v-7.84h-1.36v-1.42h1.49l.55-2.65H958v2.65h2.16v1.42H958V735"/></g><g id="aa"><path id="cq" class="cls-6" d="M979.76,726.81c-.62-1.73-2.16-2.78-4.51-2.78-3.64,0-5.37,2.47-5.37,6.11s1.79,6.24,5.49,6.24c2.66,0,3.83-1.48,4.82-3.21l1.67.86a6.8,6.8,0,0,1-6.61,4.08c-4.94,0-7.22-3.09-7.47-8-.37-6.42,6.11-9.44,11.55-6.85a5,5,0,0,1,2.4,2.84"/><path id="bH-21" data-name="bH" class="cls-6" d="M988.83,725.88c3.89,0,5.31,2.6,5.19,6.55h-8.34c0,2.47.87,4.13,3.28,4.19a2.86,2.86,0,0,0,3-1.79l1.73.5c-.68,1.73-2.29,2.78-4.75,2.78-3.59,0-5.44-2.29-5.38-6.18S985.19,725.88,988.83,725.88Zm3.21,5c.37-3.7-4.69-4.75-6-1.72a4.52,4.52,0,0,0-.37,1.72H992"/><path id="cf-14" data-name="cf" class="cls-6" d="M996.49,737.86V721.75h2v16.11h-2"/><path id="cf-15" data-name="cf" class="cls-6" d="M1001.36,737.86V721.75h2v16.11h-2"/></g><path class="cls-7" d="M854.74,780.9a8,8,0,0,1,8-8H1014a8,8,0,0,1,8,8v58.72a8,8,0,0,1-8,8H862.74a8,8,0,0,1-8-8Z"/><path class="cls-7" d="M856.46,1046.73a8,8,0,0,1,8-8h151.22a8,8,0,0,1,8,8v58.72a8,8,0,0,1-8,8H864.46a8,8,0,0,1-8-8Z"/><path class="cls-7" d="M856.46,1139.77a8,8,0,0,1,8-8h151.22a8,8,0,0,1,8,8v58.72a8,8,0,0,1-8,8H864.46a8,8,0,0,1-8-8Z"/><path class="cls-7" d="M856.46,1228.27a8,8,0,0,1,8-8h151.22a8,8,0,0,1,8,8V1287a8,8,0,0,1-8,8H864.46a8,8,0,0,1-8-8Z"/><path class="cls-7" d="M853,1322.37a8,8,0,0,1,8-8h151.23a8,8,0,0,1,8,8v58.72a8,8,0,0,1-8,8H861a8,8,0,0,1-8-8Z"/><path class="cls-7" d="M851.3,1410.87a8,8,0,0,1,8-8h151.24a8,8,0,0,1,8,8v58.7a8,8,0,0,1-8,8H859.3a8,8,0,0,1-8-8Z"/><path class="cls-7" d="M851.3,1499.36a8,8,0,0,1,8-8h151.24a8,8,0,0,1,8,8v58.72a8,8,0,0,1-8,8H859.3a8,8,0,0,1-8-8Z"/><path class="cls-7" d="M853,1594.24a8,8,0,0,1,8-8h151.23a8,8,0,0,1,8,8V1653a8,8,0,0,1-8,8H861a8,8,0,0,1-8-8Z"/><path class="cls-7" d="M853,1859.73a8,8,0,0,1,8-8h151.23a8,8,0,0,1,8,8v58.72a8,8,0,0,1-8,8H861a8,8,0,0,1-8-8Z"/><path class="cls-7" d="M853,1771.23a8,8,0,0,1,8-8h151.23a8,8,0,0,1,8,8V1830a8,8,0,0,1-8,8H861a8,8,0,0,1-8-8Z"/><path class="cls-7" d="M853,1682.74a8,8,0,0,1,8-8h151.23a8,8,0,0,1,8,8v58.7a8,8,0,0,1-8,8H861a8,8,0,0,1-8-8Z"/><path class="cls-3" d="M938.35,683.9V670"/><path class="cls-4" d="M938.85,684.4h-1v-.5h1Zm0-14.4h-1v-.5h1Z"/><path class="cls-3" d="M938.35,772.4V759.62"/><path class="cls-4" d="M938.85,772.9h-1v-.5h1Zm0-13.27h-1v-.5h1Z"/><path class="cls-3" d="M940.07,1131.27V1114"/><path class="cls-4" d="M940.57,1131.77h-1v-.5h1Zm0-17.81h-1v-.5h1Z"/><path class="cls-3" d="M940.07,1219.77V1207"/><path class="cls-4" d="M940.57,1220.27h-1v-.5h1Zm0-13.27h-1v-.5h1Z"/><path class="cls-3" d="M936.64,1313.87v-18.38"/><path class="cls-4" d="M937.14,1314.37h-1v-.5h1Zm0-18.87h-1v-.5h1Z"/><path class="cls-3" d="M934.92,1402.37v-12.78"/><path class="cls-4" d="M935.42,1402.87h-1v-.52h1Zm0-13.27h-1v-.5h1Z"/><path class="cls-3" d="M934.92,1490.86v-12.78"/><path class="cls-4" d="M935.42,1491.36h-1v-.5h1Zm0-13.26h-1v-.52h1Z"/><path class="cls-3" d="M936.64,1585.74v-19.16"/><path class="cls-4" d="M937.14,1586.24h-1v-.5h1Zm0-19.64h-1v-.52h1Z"/><path class="cls-3" d="M936.64,1674.24v-12.78"/><path class="cls-4" d="M937.14,1674.74h-1v-.5h1Zm0-13.27h-1v-.5h1Z"/><path class="cls-3" d="M936.64,1762.73V1750"/><path class="cls-4" d="M937.14,1763.23h-1v-.5h1Zm0-13.26h-1v-.52h1Z"/><path class="cls-3" d="M936.64,1838.45v12.78"/><path class="cls-4" d="M937.14,1838.46h-1v-.5h1Zm0,13.27h-1v-.5h1Z"/><path class="cls-7" d="M851.3,869.72a8,8,0,0,1,8-8h151.24a8,8,0,0,1,8,8v58.72a8,8,0,0,1-8,8H859.3a8,8,0,0,1-8-8Z"/><path class="cls-7" d="M851.3,958.22a8,8,0,0,1,8-8h151.24a8,8,0,0,1,8,8v58.7a8,8,0,0,1-8,8H859.3a8,8,0,0,1-8-8Z"/><path class="cls-3" d="M934.92,861.22v-13.1"/><path class="cls-4" d="M935.42,861.72h-1v-.5h1Zm0-13.59h-1v-.5h1Z"/><path class="cls-3" d="M934.92,949.72V936.94"/><path class="cls-4" d="M935.42,950.22h-1v-.52h1Zm0-13.27h-1v-.5h1Z"/><path class="cls-3" d="M933.33,1038.23v-12.8"/><path class="cls-4" d="M933.83,1038.73h-1v-.5h1Zm0-13.28h-1v-.52h1Z"/><path class="cls-3" d="M1174.75,90.55v27"/><path class="cls-4" d="M1175.25,90.56h-1v-.5h1Zm0,27.44h-1v-.5h1Z"/><path class="cls-3" d="M1174.75,231.86V319.5"/><path class="cls-4" d="M1175.25,231.87h-1v-.5h1Zm0,88.13h-1v-.5h1Z"/><path class="cls-3" d="M186.9,319.5v-46h987.35"/><path class="cls-4" d="M187.4,320h-1v-.5h1Z"/><path class="cls-3" d="M1174.24,273.53h.5m0,137V435H1301V459.5"/><path class="cls-4" d="M1175.25,410.56h-1v-.5h1ZM1301.45,460h-1v-.5h1Z"/><path class="cls-3" d="M1174.75,410.55V435H752.4V459.5"/><path class="cls-4" d="M1175.25,410.56h-1v-.5h1ZM752.9,460h-1v-.5h1Z"/><path class="cls-3" d="M1174.75,410.55V435H567V459.5"/><path class="cls-4" d="M1175.25,410.56h-1v-.5h1ZM567.48,460h-1v-.5h1Z"/><path class="cls-3" d="M186.9,410.55V425H296.4V439.5"/><path class="cls-4" d="M187.4,410.56h-1v-.5h1ZM296.9,440h-1v-.5h1Z"/><path class="cls-3" d="M186.9,410.55V425H90V439.5"/><path class="cls-4" d="M187.4,410.56h-1v-.5h1ZM90.5,440h-1v-.5h1Z"/><path class="cls-3" d="M2069.68,410.55V447.7"/><path class="cls-4" d="M2070.18,410.56h-1v-.5h1Zm0,37.64h-1v-.5h1Z"/><path class="cls-3" d="M2069.68,410.55v18.57h182.7V447.7"/><path class="cls-4" d="M2070.18,410.56h-1v-.5h1Zm182.69,37.64h-1v-.5h1Z"/><path class="cls-3" d="M2069.68,410.55v18.57h-178V447.7"/><path class="cls-4" d="M2070.18,410.56h-1v-.5h1Zm-178,37.64h-1v-.5h1Z"/><rect class="cls-11" x="870.2" y="797.26" width="138.4" height="21.8"/><rect class="cls-11" x="863.66" y="975.43" width="138.4" height="21.8"/><rect class="cls-11" x="868.02" y="1065.88" width="138.4" height="21.8"/><rect class="cls-11" x="868.02" y="1157.42" width="138.4" height="21.8"/><rect class="cls-11" x="868.02" y="1245.69" width="138.4" height="21.8"/><rect class="cls-11" x="868.02" y="1339.41" width="138.4" height="21.8"/><rect class="cls-11" x="868.02" y="1429.86" width="138.4" height="21.8"/><rect class="cls-11" x="868.02" y="1517.04" width="138.4" height="21.8"/><rect class="cls-11" x="868.02" y="1610.76" width="138.4" height="21.8"/><rect class="cls-11" x="868.02" y="1700.12" width="138.4" height="21.8"/><rect class="cls-11" x="868.02" y="1788.39" width="138.4" height="21.8"/><rect class="cls-11" x="1052.18" y="1788.39" width="138.4" height="21.8"/><rect class="cls-11" x="868.02" y="1879.93" width="138.4" height="21.8"/><rect class="cls-11" x="1053.27" y="1875.57" width="138.4" height="21.8"/><rect class="cls-11" x="1053.27" y="1962.75" width="138.4" height="21.8"/><rect class="cls-11" x="1053.27" y="2053.2" width="138.4" height="21.8"/><rect class="cls-11" x="1234.17" y="1157.42" width="138.4" height="21.8"/><rect class="cls-11" x="1413.98" y="1157.42" width="138.4" height="21.8"/><rect class="cls-11" x="1413.98" y="1246.78" width="138.4" height="21.8"/><rect class="cls-11" x="1235.26" y="1434.22" width="138.4" height="21.8"/><rect class="cls-11" x="1235.26" y="1522.49" width="138.4" height="21.8"/><rect class="cls-11" x="1051.09" y="1522.49" width="138.4" height="21.8"/><rect class="cls-11" x="1050" y="1065.88" width="138.4" height="21.8"/><rect class="cls-11" x="1233.9" y="966.44" width="138.4" height="21.8"/><rect class="cls-11" x="1052.18" y="797.26" width="138.4" height="21.8"/><rect class="cls-11" x="1052.18" y="886.35" width="138.4" height="21.8"/><rect class="cls-11" x="1234.44" y="797.26" width="138.4" height="21.8"/><rect class="cls-11" x="1413.43" y="881.44" width="138.4" height="21.8"/><rect class="cls-11" x="2000.81" y="857.47" width="138.4" height="21.8"/><rect class="cls-11" x="2000.81" y="763.75" width="138.4" height="21.8"/><rect class="cls-11" x="2000.81" y="671.12" width="138.4" height="21.8"/><rect class="cls-11" x="2181.71" y="671.12" width="138.4" height="21.8"/><rect class="cls-11" x="1424.15" y="811.15" width="114.98" height="21.8"/><rect class="cls-11" x="1446.21" y="781.73" width="70.84" height="21.8"/><rect class="cls-11" x="1424.15" y="982.79" width="114.98" height="21.8"/><rect class="cls-11" x="1446.21" y="953.37" width="70.84" height="21.8"/><rect class="cls-11" x="1424.15" y="1079.78" width="114.98" height="21.8"/><rect class="cls-11" x="1446.21" y="1050.36" width="70.84" height="21.8"/><rect class="cls-11" x="1245.43" y="1079.78" width="114.98" height="21.8"/><rect class="cls-11" x="1267.5" y="1050.36" width="70.84" height="21.8"/><rect class="cls-11" x="1063.44" y="1171.32" width="114.98" height="21.8"/><rect class="cls-11" x="1085.51" y="1141.89" width="70.84" height="21.8"/><rect class="cls-11" x="1063.44" y="1263.95" width="114.98" height="21.8"/><rect class="cls-11" x="1085.51" y="1234.52" width="70.84" height="21.8"/><rect class="cls-11" x="1063.44" y="1355.49" width="114.98" height="21.8"/><rect class="cls-11" x="1085.51" y="1326.06" width="70.84" height="21.8"/><rect class="cls-11" x="1063.44" y="1445.94" width="114.98" height="21.8"/><rect class="cls-11" x="1085.51" y="1416.51" width="70.84" height="21.8"/><rect class="cls-11" x="1063.44" y="1624.65" width="114.98" height="21.8"/><rect class="cls-11" x="1085.51" y="1595.23" width="70.84" height="21.8"/><rect class="cls-11" x="1063.44" y="1712.92" width="114.98" height="21.8"/><rect class="cls-11" x="1085.51" y="1683.5" width="70.84" height="21.8"/><rect class="cls-11" x="1063.44" y="2155.91" width="114.98" height="21.8"/><rect class="cls-11" x="1085.51" y="2126.49" width="70.84" height="21.8"/><rect class="cls-11" x="1244.34" y="1355.49" width="114.98" height="21.8"/><rect class="cls-11" x="1266.41" y="1326.06" width="70.84" height="21.8"/><rect class="cls-11" x="1244.34" y="1263.95" width="114.98" height="21.8"/><rect class="cls-11" x="1266.41" y="1234.52" width="70.84" height="21.8"/><rect class="cls-11" x="1062.89" y="990.15" width="114.98" height="21.8"/><rect class="cls-11" x="1084.96" y="960.72" width="70.84" height="21.8"/><rect class="cls-11" x="1242.7" y="897.79" width="114.98" height="21.8"/><rect class="cls-11" x="1264.77" y="868.37" width="70.84" height="21.8"/><rect class="cls-11" x="875.73" y="904.33" width="114.98" height="21.8"/><rect class="cls-11" x="897.8" y="874.91" width="70.84" height="21.8"/><rect class="cls-11" x="27.43" y="640.34" width="114.98" height="21.8"/><rect class="cls-11" x="49.49" y="610.91" width="70.84" height="21.8"/><rect class="cls-11" x="27.43" y="774.38" width="114.98" height="21.8"/><rect class="cls-11" x="49.49" y="744.95" width="70.84" height="21.8"/><rect class="cls-11" x="234.48" y="1050.08" width="128.81" height="21.8"/><rect class="cls-11" x="241.02" y="1020.66" width="114.98" height="21.8"/><rect class="cls-11" x="263.08" y="991.24" width="70.84" height="21.8"/><rect class="cls-11" x="234.48" y="880.9" width="128.81" height="21.8"/><rect class="cls-11" x="241.02" y="851.48" width="114.98" height="21.8"/><rect class="cls-11" x="263.08" y="822.05" width="70.84" height="21.8"/><rect class="cls-11" x="234.48" y="716.35" width="128.81" height="21.8"/><rect class="cls-11" x="245.92" y="687.33" width="105.98" height="21.8"/><rect class="cls-11" x="234.48" y="658.32" width="128.81" height="21.8"/><rect class="cls-11" x="241.02" y="629.3" width="114.98" height="21.8"/><rect class="cls-11" x="263.08" y="600.29" width="70.84" height="21.8"/></svg>