<?xml version="1.0" encoding="utf-8"?>
<!-- Generator: Adobe Illustrator 19.2.1, SVG Export Plug-In . SVG Version: 6.00 Build 0)  -->
<svg version="1.1" id="Layer_1" xmlns="http://www.w3.org/2000/svg" xmlns:xlink="http://www.w3.org/1999/xlink" x="0px" y="0px"
	 width="175.1px" height="175.1px" viewBox="0 0 175.1 175.1" enable-background="new 0 0 175.1 175.1" xml:space="preserve">
<g>
	<g>
		<circle fill="#FFFFFF" cx="87.6" cy="87.5" r="87.5"/>
	</g>
	<g>
		<path fill="#2B2B2B" d="M87.6,8.8c21,0,40.8,8.2,55.7,23.1c14.9,14.9,23.1,34.6,23.1,55.7c0,21-8.2,40.8-23.1,55.7
			c-14.9,14.9-34.7,23.1-55.7,23.1c-21,0-40.8-8.2-55.7-23.1C17,128.4,8.8,108.6,8.8,87.5c0-21,8.2-40.8,23.1-55.7
			C46.7,17,66.5,8.8,87.6,8.8L87.6,8.8z M87.6,0C39.2,0,0.1,39.2,0.1,87.5c0,48.3,39.2,87.5,87.5,87.5c48.3,0,87.5-39.2,87.5-87.5
			C175.1,39.2,135.9,0,87.6,0L87.6,0z"/>
	</g>
</g>
<g>
	<circle fill="#2B2B2B" cx="87.6" cy="87.5" r="4.4"/>
</g>
<g>
	<g>
		<circle fill="#2B2B2B" cx="147.5" cy="87.5" r="3.8"/>
	</g>
	<g>
		<circle fill="#2B2B2B" cx="27.6" cy="87.5" r="3.8"/>
	</g>
	<g>
		<circle fill="#2B2B2B" cx="87.7" cy="27.5" r="3.8"/>
	</g>
	<g>
		<circle fill="#2B2B2B" cx="87.7" cy="147.6" r="3.8"/>
	</g>
	<g>
		<ellipse transform="matrix(0.5 -0.866 0.866 0.5 -32.0367 179.549)" fill="#2B2B2B" cx="139.5" cy="117.5" rx="1.9" ry="1.9"/>
	</g>
	<g>
		
			<ellipse transform="matrix(0.5002 -0.8659 0.8659 0.5002 -32.0384 59.6248)" fill="#2B2B2B" cx="35.6" cy="57.6" rx="1.9" ry="1.9"/>
	</g>
	<g>
		
			<ellipse transform="matrix(0.4999 -0.8661 0.8661 0.4999 28.0172 119.6986)" fill="#2B2B2B" cx="117.7" cy="35.6" rx="1.9" ry="1.9"/>
	</g>
	<g>
		<ellipse transform="matrix(0.5 -0.8661 0.8661 0.5 -92.0876 119.7001)" fill="#2B2B2B" cx="57.6" cy="139.6" rx="1.9" ry="1.9"/>
	</g>
	<g>
		
			<ellipse transform="matrix(0.8662 -0.4998 0.4998 0.8662 -53.9692 77.4181)" fill="#2B2B2B" cx="117.6" cy="139.5" rx="1.9" ry="1.9"/>
	</g>
	<g>
		
			<ellipse transform="matrix(0.8659 -0.5003 0.5003 0.8659 -10.0987 33.5972)" fill="#2B2B2B" cx="57.6" cy="35.6" rx="1.9" ry="1.9"/>
	</g>
	<g>
		
			<ellipse transform="matrix(0.8662 -0.4998 0.4998 0.8662 -10.1035 77.493)" fill="#2B2B2B" cx="139.6" cy="57.6" rx="1.9" ry="1.9"/>
	</g>
	<g>
		
			<ellipse transform="matrix(0.8663 -0.4996 0.4996 0.8663 -54.0187 33.5337)" fill="#2B2B2B" cx="35.6" cy="117.7" rx="1.9" ry="1.9"/>
	</g>
</g>
</svg>
