<?xml version="1.0" encoding="UTF-8"?>
<svg viewBox="0 0 1443 225" version="1.1" xmlns="http://www.w3.org/2000/svg" xmlns:xlink="http://www.w3.org/1999/xlink">
    <!-- Generator: Sketch 51.3 (57544) - http://www.bohemiancoding.com/sketch -->
    <defs>
        <radialGradient cx="79.3822293%" cy="100%" fx="79.3822293%" fy="100%" r="59.6957758%" gradientTransform="translate(0.793822,1.000000),scale(0.155906,1.000000),rotate(83.526373),scale(1.000000,3.425881),translate(-0.793822,-1.000000)" id="radialGradient-1">
            <stop stop-color="#3C3C49" offset="0%"></stop>
            <stop stop-color="#111116" offset="100%"></stop>
        </radialGradient>
    </defs>
    <g id="line" stroke="none" stroke-width="1" fill="none" fill-rule="evenodd">
        <path d="M1442.905,0 C1430.546,22.428 1407.389,43.617 1383.379,60.987 C1373.926,67.824 1362.39,74.678 1348.528,74.782 C1336.588,74.872 1325.856,69.828 1317.597,64.014 C1309.339,58.198 1302.57,51.393 1293.372,46.259 C1289.393,44.039 1284.448,42.073 1279.353,42.642 C1275.084,43.119 1271.684,45.277 1268.914,47.519 C1260.982,53.936 1255.972,61.724 1249.476,68.837 C1212.083,109.783 1185.368,56.056 1171.088,35.167 C1166.057,27.81 1158.574,19.318 1146.557,19.253 C1138.308,19.209 1131.391,23.378 1126.24,27.724 C1097.704,51.798 1097.982,85.516 1083.873,114.829 C1078.639,125.701 1063.688,143.006 1043.843,133.944 C1032.017,128.545 1029.803,114.188 1013.519,112.874 C1006.81,112.335 1000.293,114.993 995.982,118.494 C991.672,121.995 989.083,126.284 986.124,130.373 C979.553,139.454 970.877,147.841 960.506,155.134 C952.835,160.529 942.347,165.664 931.585,163.876 C920.583,162.049 912.809,152.373 901.168,152.469 C888.791,152.57 884.643,163.229 878.885,169.062 C847.749,200.602 793.287,198.168 753.086,189.7 C710.857,180.805 675.649,139.772 630.193,146.088 C585.96,152.234 547.811,178.386 503.551,185.819 C469.853,191.479 435.059,190.749 401.664,183.479 C387.021,180.291 372.494,176.146 358.992,169.622 C344.891,162.809 333.038,152.423 316.358,157.784 C300.766,162.796 289.265,177.136 273.36,181.04 C260.408,184.221 246.283,179.976 233.657,184.272 C227.366,186.413 221.9,190.55 215.6,192.664 C197.762,198.647 179.257,187.385 160.828,183.597 C106.166,172.359 55.252,227.531 0,219.698" id="Stroke-1" stroke="#F11823" stroke-width="3"></path>
        <path d="M0,219.698 C55.252,227.531 106.166,172.359 160.828,183.596 C179.257,187.385 197.763,198.647 215.601,192.664 C221.9,190.55 227.366,186.413 233.657,184.272 C246.283,179.975 260.408,184.22 273.36,181.04 C289.266,177.135 300.767,162.796 316.358,157.784 C333.038,152.423 344.892,162.808 358.992,169.622 C372.494,176.146 387.021,180.291 401.664,183.478 C435.06,190.749 469.854,191.478 503.551,185.819 C547.812,178.385 585.96,152.234 630.193,146.088 C675.649,139.772 710.857,180.804 753.086,189.7 C793.287,198.168 847.749,200.601 878.886,169.062 C884.644,163.229 888.791,152.57 901.168,152.469 C912.81,152.373 920.583,162.049 931.585,163.876 C942.348,165.664 952.835,160.529 960.506,155.134 C970.877,147.841 979.554,139.454 986.124,130.373 C989.083,126.284 991.672,121.995 995.982,118.494 C1000.293,114.993 1006.811,112.335 1013.52,112.874 C1029.804,114.187 1032.018,128.545 1043.844,133.944 C1063.688,143.006 1078.64,125.701 1083.873,114.829 C1097.982,85.515 1097.704,51.798 1126.24,27.723 C1131.392,23.378 1138.309,19.209 1146.558,19.253 C1158.574,19.318 1166.058,27.809 1171.088,35.167 C1185.368,56.055 1212.083,109.783 1249.477,68.837 C1255.973,61.723 1260.982,53.935 1268.914,47.518 C1271.685,45.277 1275.084,43.119 1279.354,42.641 C1284.448,42.073 1289.394,44.039 1293.372,46.259 C1302.57,51.392 1309.339,58.198 1317.598,64.013 C1325.856,69.828 1336.588,74.872 1348.528,74.782 C1362.391,74.677 1373.927,67.824 1383.379,60.987 C1407.39,43.617 1430.546,22.427 1442.905,0 L1442.905,224.957031 L0,224.957031 L0,219.698 Z" id="Fill-1" fill="url(#radialGradient-1)"></path>
    </g>
</svg>