<?xml version="1.0" encoding="utf-8"?>
<!-- Generator: Adobe Illustrator 26.5.0, SVG Export Plug-In . SVG Version: 6.00 Build 0)  -->
<svg version="1.1" id="Layer_1" xmlns="http://www.w3.org/2000/svg" xmlns:xlink="http://www.w3.org/1999/xlink" x="0px" y="0px"
	 viewBox="0 0 469 358" style="enable-background:new 0 0 469 358;" xml:space="preserve">
<style type="text/css">
	.st0{fill-rule:evenodd;clip-rule:evenodd;fill:#616F77;}
	.st1{fill-rule:evenodd;clip-rule:evenodd;fill:#FF160A;}
	.st2{fill-rule:evenodd;clip-rule:evenodd;fill:#FFFFFF;}
	.st3{filter:url(#Adobe_OpacityMaskFilter);}
	.st4{mask:url(#mask-2_00000089570557863406462160000000677088358746408126_);fill-rule:evenodd;clip-rule:evenodd;fill:#FF160A;}
	.st5{filter:url(#Adobe_OpacityMaskFilter_00000005987087957529332260000001034055751524167591_);}
	.st6{mask:url(#mask-4_00000085966474523939018180000002856206109844606143_);fill-rule:evenodd;clip-rule:evenodd;fill:#FF160A;}
	.st7{filter:url(#Adobe_OpacityMaskFilter_00000069386130074358601240000002194090755861576104_);}
	.st8{mask:url(#mask-6_00000066493113304938888410000000769709755439940787_);fill-rule:evenodd;clip-rule:evenodd;fill:#616F77;}
	.st9{filter:url(#Adobe_OpacityMaskFilter_00000073715718813316882540000017558949180315350157_);}
	.st10{mask:url(#mask-8_00000103253222233171638530000006642074885474532241_);fill-rule:evenodd;clip-rule:evenodd;fill:#616F77;}
	.st11{filter:url(#Adobe_OpacityMaskFilter_00000088091867109295404460000001709639507139649704_);}
	.st12{mask:url(#mask-10_00000134245685164202440190000013369237305300166839_);fill-rule:evenodd;clip-rule:evenodd;fill:#616F77;}
	.st13{fill-rule:evenodd;clip-rule:evenodd;fill:#D7DDE0;stroke:#616F77;}
	.st14{fill-rule:evenodd;clip-rule:evenodd;fill:#E9EEF1;stroke:#616F77;}
	.st15{fill-rule:evenodd;clip-rule:evenodd;fill:#FFB00A;}
	.st16{fill-rule:evenodd;clip-rule:evenodd;fill:#495156;}
	.st17{fill-rule:evenodd;clip-rule:evenodd;fill:#0AAFBE;}
	.st18{fill-rule:evenodd;clip-rule:evenodd;fill:#23232C;}
	.st19{enable-background:new    ;}
	.st20{fill:#5E5E5E;}
	.st21{fill:#FF160A;}
	.st22{fill:#FFB00A;}
	.st23{fill:#FFFFFF;}
	.st24{fill:#0AAFBE;}
</style>
<g id="Page-1">
	<g id="DD" transform="translate(-862.000000, -10973.000000)">
		<g id="Group-36" transform="translate(862.000000, 10973.000000)">
			<g id="Group-26" transform="translate(2.000000, 0.000000)">
				<g id="Logo-Color" transform="translate(0.000000, 0.000000)">
					<path id="Fill-1" class="st0" d="M379.3,2.5c0.3,0,0.5-0.2,0.5-0.4c0-0.3-0.2-0.4-0.5-0.4h-0.6v0.9H379.3z M378.1,1.2h1.2
						c0.6,0,1,0.3,1,0.8c0,0.4-0.3,0.7-0.6,0.8l0.7,1h-0.6L379.2,3h-0.6v0.9h-0.5V1.2z M381.4,2.6L381.4,2.6c0-1.3-1-2.3-2.3-2.3
						c-1.3,0-2.3,1.1-2.3,2.3v0c0,1.3,1,2.3,2.3,2.3C380.4,4.9,381.4,3.9,381.4,2.6L381.4,2.6z M376.5,2.6L376.5,2.6
						c0-1.4,1.2-2.6,2.6-2.6c1.5,0,2.6,1.2,2.6,2.6v0c0,1.4-1.2,2.6-2.6,2.6C377.7,5.2,376.5,4,376.5,2.6L376.5,2.6z"/>
					<path id="Fill-3" class="st1" d="M341.7,20c0-10.5,8.4-19.1,18.7-19.1s18.7,8.6,18.7,19.1s-8.4,19.1-18.7,19.1h-18.7V20z"/>
					<path id="Fill-5" class="st2" d="M361.8,32.8c-1.2,0.3-2.4,0.3-3.7,0c-0.3-0.1-0.5-0.3-0.6-0.7c-0.2-1.4-0.2-2.9,0-4.3
						c0.1-0.3,0.3-0.6,0.6-0.7c1.2-0.3,2.4-0.3,3.7,0c0.3,0.1,0.5,0.3,0.6,0.7c0.2,1.4,0.2,2.9,0,4.3
						C362.4,32.5,362.1,32.8,361.8,32.8"/>
					<path id="Fill-7" class="st2" d="M357.5,23.3l-1-16.6c0-0.6,0.4-1.1,0.9-1.2c1.7-0.3,3.4-0.3,5.1,0c0.5,0.1,0.9,0.6,0.9,1.2
						l-1,16.6c0,0.5-0.3,0.9-0.8,0.9c-1.1,0.2-2.3,0.2-3.4,0C357.9,24.2,357.5,23.8,357.5,23.3"/>
					<g id="Group-11" transform="translate(0.000000, 20.869565)">
						<g id="Clip-10">
						</g>
						<defs>
							<filter id="Adobe_OpacityMaskFilter" filterUnits="userSpaceOnUse" x="0" y="0.4" width="33.8" height="37.9">
								<feColorMatrix  type="matrix" values="1 0 0 0 0  0 1 0 0 0  0 0 1 0 0  0 0 0 1 0"/>
							</filter>
						</defs>
						
							<mask maskUnits="userSpaceOnUse" x="0" y="0.4" width="33.8" height="37.9" id="mask-2_00000089570557863406462160000000677088358746408126_">
							<g class="st3">
								<polygon id="path-1_00000154389296893760927930000015839341774826003858_" class="st2" points="0,0.4 33.8,0.4 33.8,38.2 
									0,38.2 								"/>
							</g>
						</mask>
						<path id="Fill-9" class="st4" d="M14.4,31.1c7.2,0,11.5-5.4,11.5-11.8c0-6.7-4-11.9-11.5-11.9H7.8v23.7H14.4z M0,0.4h14.4
							c11.5,0,19.4,7.5,19.4,19s-8,18.9-19.4,18.9H0V0.4z"/>
					</g>
					<g id="Group-14" transform="translate(36.521739, 30.434783)">
						<g id="Clip-13">
						</g>
						<defs>
							
								<filter id="Adobe_OpacityMaskFilter_00000021115927664823477690000012645826450931942016_" filterUnits="userSpaceOnUse" x="0.5" y="0.6" width="28.2" height="28.9">
								<feColorMatrix  type="matrix" values="1 0 0 0 0  0 1 0 0 0  0 0 1 0 0  0 0 0 1 0"/>
							</filter>
						</defs>
						
							<mask maskUnits="userSpaceOnUse" x="0.5" y="0.6" width="28.2" height="28.9" id="mask-4_00000085966474523939018180000002856206109844606143_">
							<g style="filter:url(#Adobe_OpacityMaskFilter_00000021115927664823477690000012645826450931942016_);">
								<polygon id="path-3_00000057122127813833402780000001326086161925842304_" class="st2" points="0.5,0.6 28.6,0.6 28.6,29.6 
									0.5,29.6 								"/>
							</g>
						</mask>
						<path id="Fill-12" class="st6" d="M21.4,15.1c0-4.3-2.5-8-6.8-8c-4.4,0-6.8,3.7-6.8,8c0,4.3,2.4,8,6.8,8
							C18.9,23.1,21.4,19.4,21.4,15.1 M0.5,15.1c0-7.8,5.3-14.4,14.1-14.4c8.8,0,14.1,6.6,14.1,14.4c0,7.9-5.3,14.5-14.1,14.5
							C5.8,29.6,0.5,22.9,0.5,15.1"/>
					</g>
					<polygon id="Fill-15" class="st1" points="85.2,40.8 79.7,59.1 72.3,59.1 64.3,32.2 71.5,32.2 76.4,50.3 82.1,32.2 88.3,32.2 
						94,50.3 98.9,32.2 106.1,32.2 98.1,59.1 90.8,59.1 					"/>
					<path id="Fill-17" class="st1" d="M128,42.7c0-3.8-1.9-5.1-4.8-5.1c-2.7,0-4.8,1.6-5.9,3.2v18.3h-6.8V32h6.8v3.5
						c1.7-2.1,4.8-4.2,9.1-4.2c5.7,0,8.4,3.4,8.4,8.7v19.2H128V42.7z"/>
					<path id="Fill-19" class="st0" d="M159.1,40.9c-1.2-1.8-3.7-3.1-6-3.1c-4,0-6.7,3.2-6.7,7.9c0,4.7,2.7,7.9,6.7,7.9
						c2.4,0,4.8-1.3,6-3.1V40.9z M159.1,55.9c-2.1,2.6-5,4.1-8.2,4.1c-6.7,0-11.7-5.2-11.7-14.3c0-8.9,5-14.3,11.7-14.3
						c3.1,0,6.1,1.4,8.2,4.2V21.7h7v37.6h-7V55.9z"/>
					<g id="Group-23" transform="translate(167.826087, 30.434783)">
						<g id="Clip-22">
						</g>
						<defs>
							
								<filter id="Adobe_OpacityMaskFilter_00000106836130074772213720000015908804064154776462_" filterUnits="userSpaceOnUse" x="0.5" y="0.6" width="27" height="28.9">
								<feColorMatrix  type="matrix" values="1 0 0 0 0  0 1 0 0 0  0 0 1 0 0  0 0 0 1 0"/>
							</filter>
						</defs>
						
							<mask maskUnits="userSpaceOnUse" x="0.5" y="0.6" width="27" height="28.9" id="mask-6_00000066493113304938888410000000769709755439940787_">
							<g style="filter:url(#Adobe_OpacityMaskFilter_00000106836130074772213720000015908804064154776462_);">
								<polygon id="path-5_00000052819596176209405410000000756595708945354916_" class="st2" points="0.5,0.6 27.5,0.6 27.5,29.6 
									0.5,29.6 								"/>
							</g>
						</mask>
						<path id="Fill-21" class="st8" d="M7.7,12.5h13.1c-0.2-2.6-1.9-6.1-6.5-6.1C9.9,6.4,8,9.8,7.7,12.5 M14.2,0.6
							c7.9,0,13.3,6.2,13.3,15.2v1.6H7.8c0.4,3.5,3.1,6.4,7.6,6.4c2.5,0,5.4-1,7.1-2.7l3.1,4.7c-2.7,2.6-6.8,3.8-10.9,3.8
							c-8.1,0-14.2-5.6-14.2-14.5C0.5,7.1,6.1,0.6,14.2,0.6"/>
					</g>
					<path id="Fill-24" class="st0" d="M201.7,51.8v-14h-4.3v-6.2h4.3v-7.3h6.9v7.3h5.3v6.2h-5.3v12.1c0,1.7,0.9,2.9,2.4,2.9
						c1,0,2-0.4,2.4-0.8l1.5,5.3c-1,0.9-2.9,1.7-5.7,1.7C204.3,59.1,201.7,56.6,201.7,51.8"/>
					<g id="Group-28" transform="translate(215.652174, 30.434783)">
						<g id="Clip-27">
						</g>
						<defs>
							
								<filter id="Adobe_OpacityMaskFilter_00000166655244433777625340000012313134156334839424_" filterUnits="userSpaceOnUse" x="0.4" y="0.6" width="27" height="28.9">
								<feColorMatrix  type="matrix" values="1 0 0 0 0  0 1 0 0 0  0 0 1 0 0  0 0 0 1 0"/>
							</filter>
						</defs>
						
							<mask maskUnits="userSpaceOnUse" x="0.4" y="0.6" width="27" height="28.9" id="mask-8_00000103253222233171638530000006642074885474532241_">
							<g style="filter:url(#Adobe_OpacityMaskFilter_00000166655244433777625340000012313134156334839424_);">
								<polygon id="path-7_00000113342344287209513780000011763439831305735333_" class="st2" points="0.4,0.6 27.4,0.6 27.4,29.6 
									0.4,29.6 								"/>
							</g>
						</mask>
						<path id="Fill-26" class="st10" d="M7.6,12.5h13.1c-0.2-2.6-1.9-6.1-6.5-6.1C9.8,6.4,8,9.8,7.6,12.5 M14.2,0.6
							c7.9,0,13.3,6.2,13.3,15.2v1.6H7.7c0.4,3.5,3.1,6.4,7.6,6.4c2.5,0,5.4-1,7.1-2.7l3.1,4.7c-2.7,2.6-6.8,3.8-10.9,3.8
							c-8.1,0-14.2-5.6-14.2-14.5C0.4,7.1,6.1,0.6,14.2,0.6"/>
					</g>
					<path id="Fill-29" class="st0" d="M260,31.3c5.4,0,8.7,2.4,10.4,5l-4.5,4.4c-1.3-1.9-3.2-2.9-5.6-2.9c-4.2,0-7.1,3.2-7.1,7.9
						c0,4.8,2.9,8,7.1,8c2.4,0,4.3-1.1,5.6-2.9l4.5,4.4c-1.7,2.5-5,5-10.4,5c-8.1,0-13.9-5.9-13.9-14.4
						C246.1,37.2,251.9,31.3,260,31.3"/>
					<path id="Fill-31" class="st0" d="M279.1,51.8v-14h-4.3v-6.2h4.3v-7.3h6.9v7.3h5.3v6.2H286v12.1c0,1.7,0.9,2.9,2.4,2.9
						c1,0,2-0.4,2.4-0.8l1.5,5.3c-1,0.9-2.9,1.7-5.7,1.7C281.7,59.1,279.1,56.6,279.1,51.8"/>
					<g id="Group-35" transform="translate(291.304348, 30.434783)">
						<g id="Clip-34">
						</g>
						<defs>
							
								<filter id="Adobe_OpacityMaskFilter_00000031924608499388906190000013458380545750645401_" filterUnits="userSpaceOnUse" x="0.1" y="0.6" width="28.2" height="28.9">
								<feColorMatrix  type="matrix" values="1 0 0 0 0  0 1 0 0 0  0 0 1 0 0  0 0 0 1 0"/>
							</filter>
						</defs>
						
							<mask maskUnits="userSpaceOnUse" x="0.1" y="0.6" width="28.2" height="28.9" id="mask-10_00000134245685164202440190000013369237305300166839_">
							<g style="filter:url(#Adobe_OpacityMaskFilter_00000031924608499388906190000013458380545750645401_);">
								<polygon id="path-9_00000046335050688779776850000016352706419093175703_" class="st2" points="0.1,0.6 28.3,0.6 28.3,29.6 
									0.1,29.6 								"/>
							</g>
						</mask>
						<path id="Fill-33" class="st12" d="M21,15.1c0-4.3-2.5-8-6.8-8s-6.8,3.7-6.8,8c0,4.3,2.4,8,6.8,8S21,19.4,21,15.1 M0.1,15.1
							c0-7.8,5.3-14.4,14.1-14.4c8.8,0,14.1,6.6,14.1,14.4c0,7.9-5.3,14.5-14.1,14.5C5.4,29.6,0.1,22.9,0.1,15.1"/>
					</g>
					<path id="Fill-36" class="st0" d="M322.6,31.9h7.1v3.7c1.9-2.4,5.2-4.3,8.6-4.3v7c-0.5-0.1-1.2-0.2-1.9-0.2
						c-2.3,0-5.5,1.3-6.6,3v18h-7.1V31.9z"/>
				</g>
				<g id="Group-25" transform="translate(0.000000, 88.000000)">
					<rect id="Rectangle" class="st1" width="34" height="34"/>
					<rect id="Rectangle-Copy-9" x="226" class="st0" width="34" height="34"/>
					<rect id="Rectangle-Copy-12" x="272.5" y="0.5" class="st13" width="33" height="33"/>
					<rect id="Rectangle-Copy-13" x="317.5" y="0.5" class="st14" width="33" height="33"/>
					<rect id="Rectangle-Copy-6" x="45" class="st15" width="34" height="34"/>
					<rect id="Rectangle-Copy-10" x="181" class="st16" width="34" height="34"/>
					<rect id="Rectangle-Copy-7" x="91" class="st17" width="34" height="34"/>
					<rect id="Rectangle-Copy-11" x="136" class="st18" width="34" height="34"/>
				</g>
				<g class="st19">
					<path class="st20" d="M3.2,186v-32h15c7,0,10.8,4.7,10.8,10.3c0,5.6-3.8,10.2-10.8,10.2H10V186H3.2z M17.2,159.8H10v8.8h7.2
						c2.7,0,4.7-1.7,4.7-4.4C21.9,161.6,19.9,159.8,17.2,159.8z"/>
					<path class="st20" d="M33,186v-23.2h6.1v3.2c1.6-2.1,4.5-3.7,7.4-3.7v6c-0.4-0.1-1-0.1-1.7-0.1c-2,0-4.7,1.1-5.7,2.6V186H33z"
						/>
					<path class="st20" d="M48.8,174.4c0-6.6,4.6-12.1,12.2-12.1c7.7,0,12.3,5.6,12.3,12.1c0,6.6-4.6,12.2-12.3,12.2
						C53.4,186.6,48.8,181,48.8,174.4z M67,174.4c0-3.6-2.2-6.7-6-6.7c-3.8,0-5.9,3.1-5.9,6.7c0,3.6,2.1,6.8,5.9,6.8
						C64.8,181.2,67,178,67,174.4z"/>
					<path class="st20" d="M91,186l-5.3-7.8l-5.3,7.8h-6.8l8.2-11.9l-7.7-11.3h6.8l4.8,7.2l4.8-7.2h6.8l-7.8,11.3l8.3,11.9H91z"/>
					<path class="st20" d="M100.2,155.8c0-2,1.7-3.6,3.6-3.6c2,0,3.6,1.6,3.6,3.6c0,2-1.6,3.6-3.6,3.6
						C101.9,159.4,100.2,157.8,100.2,155.8z M100.8,186v-23.2h6.1V186H100.8z"/>
					<path class="st20" d="M141.7,186v-14.6c0-2.2-1-3.7-3.5-3.7c-2.2,0-3.9,1.4-4.8,2.7V186h-6.1v-14.6c0-2.2-1-3.7-3.5-3.7
						c-2.1,0-3.9,1.4-4.8,2.7V186H113v-23.2h6.1v3c1-1.4,4-3.6,7.6-3.6c3.4,0,5.6,1.6,6.4,4.2c1.3-2.1,4.4-4.2,8-4.2
						c4.3,0,6.8,2.3,6.8,7V186H141.7z"/>
					<path class="st20" d="M167.8,186v-2.4c-1.6,1.9-4.3,3-7.3,3c-3.7,0-8.1-2.5-8.1-7.7c0-5.4,4.4-7.4,8.1-7.4c3.1,0,5.8,1,7.3,2.8
						v-3.2c0-2.4-2-3.9-5.1-3.9c-2.5,0-4.8,0.9-6.8,2.7l-2.3-4.1c2.8-2.5,6.5-3.6,10.1-3.6c5.3,0,10.1,2.1,10.1,8.8v15H167.8z
						 M167.8,177.6c-1-1.3-2.9-2-4.9-2c-2.4,0-4.4,1.3-4.4,3.5c0,2.2,2,3.4,4.4,3.4c2,0,3.9-0.7,4.9-2V177.6z"/>
					<path class="st20" d="M214.5,186l-15.3-21.5V186h-6.8v-32h7l14.8,20.7V154h6.8v32H214.5z"/>
					<path class="st20" d="M225.7,174.4c0-6.6,4.6-12.1,12.2-12.1c7.7,0,12.3,5.6,12.3,12.1c0,6.6-4.6,12.2-12.3,12.2
						C230.3,186.6,225.7,181,225.7,174.4z M243.9,174.4c0-3.6-2.2-6.7-6-6.7c-3.8,0-5.9,3.1-5.9,6.7c0,3.6,2.1,6.8,5.9,6.8
						C241.8,181.2,243.9,178,243.9,174.4z"/>
					<path class="st20" d="M260.8,186l-9.3-23.2h6.5l6,16.1l6-16.1h6.6l-9.3,23.2H260.8z"/>
					<path class="st20" d="M293.3,186v-2.4c-1.6,1.9-4.3,3-7.3,3c-3.7,0-8.1-2.5-8.1-7.7c0-5.4,4.4-7.4,8.1-7.4c3.1,0,5.8,1,7.3,2.8
						v-3.2c0-2.4-2-3.9-5.1-3.9c-2.5,0-4.8,0.9-6.8,2.7l-2.3-4.1c2.8-2.5,6.5-3.6,10.1-3.6c5.3,0,10.1,2.1,10.1,8.8v15H293.3z
						 M293.3,177.6c-1-1.3-2.9-2-4.9-2c-2.4,0-4.4,1.3-4.4,3.5c0,2.2,2,3.4,4.4,3.4c2,0,3.9-0.7,4.9-2V177.6z"/>
				</g>
			</g>
			<g id="Group-18" transform="translate(0.000000, 229.000000)">
				<g id="Group-31">
					<g id="D-Logo" transform="translate(0.000000, 3.000000)">
						<g id="Down">
							<path id="Fill-4" class="st1" d="M0,16.1C0,7.4,6.9,0.3,15.4,0.3c8.5,0,15.4,7.1,15.4,15.8s-6.9,15.8-15.4,15.8H0V16.1z"/>
							<path id="Fill-7_00000153698996978896134230000012990129691651315384_" class="st2" d="M17.2,27c-1.2,0.2-2.4,0.2-3.5,0
								c-0.3-0.1-0.5-0.3-0.6-0.6c-0.2-1.2-0.2-2.4,0-3.6c0.1-0.3,0.3-0.5,0.6-0.6c1.2-0.2,2.4-0.2,3.5,0c0.3,0.1,0.5,0.3,0.6,0.6
								c0.2,1.2,0.2,2.4,0,3.6C17.7,26.7,17.5,26.9,17.2,27"/>
							<path id="Fill-9_00000085959025476488422210000006436701637433077944_" class="st2" d="M13.3,19.5L12.4,6.2
								c0-0.5,0.3-0.9,0.8-1c1.5-0.3,2.9-0.3,4.4,0c0.5,0.1,0.8,0.5,0.8,1l-0.9,13.3c0,0.4-0.3,0.7-0.7,0.7c-1,0.2-1.9,0.2-2.9,0
								C13.6,20.2,13.3,19.9,13.3,19.5"/>
						</g>
					</g>
					<g class="st19">
						<path class="st21" d="M45,28V8h9.4c4.4,0,6.7,2.9,6.7,6.4c0,3.5-2.4,6.4-6.7,6.4h-5.1V28H45z M53.8,11.7h-4.5v5.5h4.5
							c1.7,0,2.9-1.1,2.9-2.8C56.7,12.8,55.4,11.7,53.8,11.7z"/>
						<path class="st21" d="M63.6,28V13.5h3.8v2c1-1.3,2.8-2.3,4.6-2.3v3.7c-0.3-0.1-0.6-0.1-1-0.1c-1.3,0-2.9,0.7-3.6,1.6V28H63.6z
							"/>
						<path class="st21" d="M73.5,20.7c0-4.1,2.9-7.6,7.6-7.6c4.8,0,7.7,3.5,7.7,7.6c0,4.1-2.9,7.6-7.7,7.6
							C76.4,28.4,73.5,24.9,73.5,20.7z M84.8,20.7c0-2.2-1.4-4.2-3.7-4.2c-2.4,0-3.7,2-3.7,4.2c0,2.3,1.3,4.2,3.7,4.2
							C83.5,25,84.8,23,84.8,20.7z"/>
						<path class="st21" d="M91.6,28V8h3.8v7.4c1.1-1.5,2.8-2.2,4.5-2.2c3.7,0,6.4,2.9,6.4,7.6c0,4.8-2.8,7.6-6.4,7.6
							c-1.7,0-3.3-0.8-4.5-2.2V28H91.6z M95.4,23.4c0.6,0.9,2,1.6,3.3,1.6c2.2,0,3.7-1.7,3.7-4.2c0-2.5-1.5-4.2-3.7-4.2
							c-1.2,0-2.6,0.7-3.3,1.7V23.4z"/>
						<path class="st21" d="M109.2,28V8h3.8v20H109.2z"/>
						<path class="st21" d="M123.4,13.2c4.3,0,7.3,3.2,7.3,8V22h-10.8c0.2,1.8,1.7,3.4,4.2,3.4c1.4,0,2.9-0.5,3.9-1.4l1.7,2.5
							c-1.5,1.4-3.7,2-6,2c-4.4,0-7.7-3-7.7-7.6C115.9,16.5,119,13.2,123.4,13.2z M119.8,19.4h7.1c-0.1-1.4-1-3.2-3.6-3.2
							C121,16.2,120,18,119.8,19.4z"/>
						<path class="st21" d="M151.4,28v-9.1c0-1.4-0.6-2.3-2.2-2.3c-1.4,0-2.5,0.9-3,1.7V28h-3.8v-9.1c0-1.4-0.6-2.3-2.2-2.3
							c-1.3,0-2.4,0.9-3,1.7V28h-3.8V13.5h3.8v1.9c0.6-0.9,2.5-2.2,4.7-2.2c2.1,0,3.5,1,4,2.6c0.8-1.3,2.8-2.6,5-2.6
							c2.7,0,4.3,1.4,4.3,4.4V28H151.4z"/>
						<path class="st21" d="M159.3,23.4c1.1,1,3.2,2,5,2c1.6,0,2.4-0.6,2.4-1.5c0-1-1.3-1.4-2.9-1.7c-2.5-0.5-5.7-1.1-5.7-4.5
							c0-2.4,2.1-4.6,5.9-4.6c2.5,0,4.4,0.8,5.8,2l-1.5,2.6c-0.9-0.9-2.5-1.7-4.3-1.7c-1.4,0-2.3,0.5-2.3,1.3c0,0.9,1.1,1.2,2.8,1.6
							c2.5,0.5,5.8,1.1,5.8,4.7c0,2.7-2.2,4.7-6.3,4.7c-2.5,0-5-0.8-6.5-2.2L159.3,23.4z"/>
						<path class="st21" d="M189.6,28v-1.5c-1,1.2-2.7,1.9-4.6,1.9c-2.3,0-5-1.6-5-4.8c0-3.4,2.7-4.6,5-4.6c1.9,0,3.6,0.6,4.6,1.8
							v-2c0-1.5-1.3-2.4-3.2-2.4c-1.6,0-3,0.6-4.2,1.7l-1.4-2.5c1.8-1.6,4-2.3,6.3-2.3c3.3,0,6.3,1.3,6.3,5.5V28H189.6z M189.6,22.7
							c-0.6-0.8-1.8-1.3-3.1-1.3c-1.5,0-2.7,0.8-2.7,2.2c0,1.3,1.2,2.1,2.7,2.1c1.2,0,2.4-0.4,3.1-1.3V22.7z"/>
						<path class="st21" d="M198,24.4v-7.6h-2.4v-3.3h2.4v-4h3.8v4h2.9v3.3h-2.9v6.5c0,0.9,0.5,1.6,1.3,1.6c0.6,0,1.1-0.2,1.3-0.4
							l0.8,2.9c-0.6,0.5-1.6,0.9-3.2,0.9C199.4,28.4,198,27,198,24.4z"/>
						<path class="st21" d="M214.2,18c0-6.2,4.6-10.3,10.5-10.3c4.6,0,7.1,2.4,8.5,4.9l-3.7,1.8c-0.8-1.6-2.6-2.9-4.9-2.9
							c-3.5,0-6.1,2.8-6.1,6.6c0,3.8,2.6,6.6,6.1,6.6c2.2,0,4-1.3,4.9-2.9l3.7,1.8c-1.4,2.5-4,4.9-8.5,4.9
							C218.8,28.4,214.2,24.2,214.2,18z"/>
						<path class="st21" d="M234.7,20.7c0-4.1,2.9-7.6,7.6-7.6c4.8,0,7.7,3.5,7.7,7.6c0,4.1-2.9,7.6-7.7,7.6
							C237.6,28.4,234.7,24.9,234.7,20.7z M246.1,20.7c0-2.2-1.4-4.2-3.7-4.2c-2.4,0-3.7,2-3.7,4.2c0,2.3,1.3,4.2,3.7,4.2
							C244.7,25,246.1,23,246.1,20.7z"/>
						<path class="st21" d="M270.8,28v-9.1c0-1.4-0.6-2.3-2.2-2.3c-1.4,0-2.5,0.9-3,1.7V28h-3.8v-9.1c0-1.4-0.6-2.3-2.2-2.3
							c-1.3,0-2.4,0.9-3,1.7V28h-3.8V13.5h3.8v1.9c0.6-0.9,2.5-2.2,4.7-2.2c2.1,0,3.5,1,4,2.6c0.8-1.3,2.8-2.6,5-2.6
							c2.7,0,4.3,1.4,4.3,4.4V28H270.8z"/>
						<path class="st21" d="M282.2,33.5h-3.8v-20h3.8v1.8c1.1-1.4,2.7-2.2,4.5-2.2c3.7,0,6.4,2.8,6.4,7.6s-2.7,7.6-6.4,7.6
							c-1.7,0-3.3-0.7-4.5-2.2V33.5z M285.5,16.5c-1.2,0-2.6,0.7-3.3,1.7v5.1c0.6,0.9,2,1.6,3.3,1.6c2.2,0,3.7-1.7,3.7-4.2
							C289.2,18.2,287.7,16.5,285.5,16.5z"/>
						<path class="st21" d="M304.7,28v-1.5c-1,1.2-2.7,1.9-4.6,1.9c-2.3,0-5-1.6-5-4.8c0-3.4,2.7-4.6,5-4.6c1.9,0,3.6,0.6,4.6,1.8
							v-2c0-1.5-1.3-2.4-3.2-2.4c-1.6,0-3,0.6-4.2,1.7l-1.4-2.5c1.8-1.6,4.1-2.3,6.3-2.3c3.3,0,6.3,1.3,6.3,5.5V28H304.7z
							 M304.7,22.7c-0.6-0.8-1.8-1.3-3.1-1.3c-1.5,0-2.7,0.8-2.7,2.2c0,1.3,1.2,2.1,2.7,2.1c1.2,0,2.4-0.4,3.1-1.3V22.7z"/>
						<path class="st21" d="M322.1,28v-8.8c0-2-1.1-2.7-2.7-2.7c-1.5,0-2.7,0.8-3.3,1.7V28h-3.8V13.5h3.8v1.9
							c0.9-1.1,2.7-2.2,5.1-2.2c3.2,0,4.7,1.8,4.7,4.6V28H322.1z"/>
						<path class="st21" d="M329.7,30.2c0.3,0.2,0.8,0.2,1.2,0.2c1,0,1.7-0.3,2-1.1l0.5-1.2l-5.9-14.7h4.1l3.8,10.1l3.8-10.1h4.1
							l-6.8,16.9c-1.1,2.7-3,3.4-5.5,3.5c-0.5,0-1.4-0.1-1.9-0.2L329.7,30.2z"/>
					</g>
				</g>
				<g id="Group-32" transform="translate(0.000000, 47.000000)">
					<g id="possible-problem" transform="translate(0.000000, 3.000000)">
						<path id="Path" class="st22" d="M34.3,24l-6.1-10.6L22.1,2.7c-2-3.6-7.1-3.6-9.2,0L6.8,13.3L0.7,24c-2,3.6,0.5,8,4.6,8h12.2
							h12.2C33.8,32,36.3,27.5,34.3,24L34.3,24z"/>
						<path id="Combined-Shape" class="st23" d="M19,22.7c0.2,0,0.4,0.2,0.5,0.5c0.2,1,0.2,2.1,0,3.1c0,0.3-0.2,0.5-0.5,0.5
							c-1,0.2-2,0.2-3,0c-0.2,0-0.4-0.2-0.5-0.5c-0.2-1-0.2-2.1,0-3.1c0-0.3,0.2-0.5,0.5-0.5C17,22.5,18,22.5,19,22.7z M19.3,8.2
							C19.7,8.3,20,8.6,20,9l-0.7,11.4c0,0.3-0.2,0.6-0.6,0.6c-0.8,0.2-1.6,0.2-2.4,0c-0.3,0-0.6-0.3-0.6-0.6L15,9
							c0-0.4,0.3-0.8,0.7-0.9C16.9,7.9,18.1,7.9,19.3,8.2z"/>
					</g>
					<g class="st19">
						<path class="st22" d="M49,28V8h9.4c4.4,0,6.7,2.9,6.7,6.4c0,3.5-2.4,6.4-6.7,6.4h-5.1V28H49z M57.8,11.7h-4.5v5.5h4.5
							c1.7,0,2.9-1.1,2.9-2.8C60.7,12.8,59.4,11.7,57.8,11.7z"/>
						<path class="st22" d="M66.2,20.7c0-4.1,2.9-7.6,7.6-7.6c4.8,0,7.7,3.5,7.7,7.6c0,4.1-2.9,7.6-7.7,7.6
							C69,28.4,66.2,24.9,66.2,20.7z M77.5,20.7c0-2.2-1.4-4.2-3.7-4.2c-2.4,0-3.7,2-3.7,4.2c0,2.3,1.3,4.2,3.7,4.2
							C76.2,25,77.5,23,77.5,20.7z"/>
						<path class="st22" d="M84.7,23.4c1.1,1,3.2,2,5,2c1.6,0,2.4-0.6,2.4-1.5c0-1-1.3-1.4-2.9-1.7c-2.5-0.5-5.7-1.1-5.7-4.5
							c0-2.4,2.1-4.6,5.9-4.6c2.5,0,4.4,0.8,5.8,2l-1.5,2.6c-0.9-0.9-2.5-1.7-4.3-1.7c-1.4,0-2.3,0.5-2.3,1.3c0,0.9,1.1,1.2,2.8,1.6
							c2.5,0.5,5.8,1.1,5.8,4.7c0,2.7-2.2,4.7-6.3,4.7c-2.5,0-4.9-0.8-6.5-2.2L84.7,23.4z"/>
						<path class="st22" d="M99,23.4c1.1,1,3.2,2,5,2c1.6,0,2.4-0.6,2.4-1.5c0-1-1.3-1.4-2.9-1.7c-2.5-0.5-5.7-1.1-5.7-4.5
							c0-2.4,2.1-4.6,5.9-4.6c2.5,0,4.4,0.8,5.8,2l-1.5,2.6c-0.9-0.9-2.5-1.7-4.3-1.7c-1.4,0-2.3,0.5-2.3,1.3c0,0.9,1.1,1.2,2.8,1.6
							c2.5,0.5,5.8,1.1,5.8,4.7c0,2.7-2.2,4.7-6.3,4.7c-2.5,0-4.9-0.8-6.5-2.2L99,23.4z"/>
						<path class="st22" d="M112.5,9.1c0-1.3,1-2.3,2.3-2.3c1.3,0,2.3,1,2.3,2.3s-1,2.3-2.3,2.3C113.6,11.4,112.5,10.4,112.5,9.1z
							 M112.9,28V13.5h3.8V28H112.9z"/>
						<path class="st22" d="M120.5,28V8h3.8v7.4c1.1-1.5,2.8-2.2,4.5-2.2c3.7,0,6.4,2.9,6.4,7.6c0,4.8-2.8,7.6-6.4,7.6
							c-1.7,0-3.3-0.8-4.5-2.2V28H120.5z M124.3,23.4c0.6,0.9,2,1.6,3.3,1.6c2.2,0,3.7-1.7,3.7-4.2c0-2.5-1.5-4.2-3.7-4.2
							c-1.2,0-2.6,0.7-3.3,1.7V23.4z"/>
						<path class="st22" d="M138.1,28V8h3.8v20H138.1z"/>
						<path class="st22" d="M152.3,13.2c4.3,0,7.3,3.2,7.3,8V22h-10.8c0.2,1.8,1.7,3.4,4.2,3.4c1.4,0,2.9-0.5,3.9-1.4l1.7,2.5
							c-1.5,1.4-3.7,2-6,2c-4.4,0-7.7-3-7.7-7.6C144.8,16.5,147.9,13.2,152.3,13.2z M148.7,19.4h7.1c-0.1-1.4-1-3.2-3.6-3.2
							C149.9,16.2,148.9,18,148.7,19.4z"/>
						<path class="st22" d="M170.1,28V8h9.4c4.4,0,6.7,2.9,6.7,6.4c0,3.5-2.4,6.4-6.7,6.4h-5.1V28H170.1z M178.8,11.7h-4.5v5.5h4.5
							c1.7,0,2.9-1.1,2.9-2.8C181.8,12.8,180.5,11.7,178.8,11.7z"/>
						<path class="st22" d="M188.7,28V13.5h3.8v2c1-1.3,2.8-2.3,4.6-2.3v3.7c-0.3-0.1-0.6-0.1-1-0.1c-1.3,0-2.9,0.7-3.6,1.6V28
							H188.7z"/>
						<path class="st22" d="M198.6,20.7c0-4.1,2.9-7.6,7.6-7.6c4.8,0,7.7,3.5,7.7,7.6c0,4.1-2.9,7.6-7.7,7.6
							C201.4,28.4,198.6,24.9,198.6,20.7z M209.9,20.7c0-2.2-1.4-4.2-3.7-4.2c-2.4,0-3.7,2-3.7,4.2c0,2.3,1.3,4.2,3.7,4.2
							C208.6,25,209.9,23,209.9,20.7z"/>
						<path class="st22" d="M216.7,28V8h3.8v7.4c1.1-1.5,2.8-2.2,4.5-2.2c3.7,0,6.4,2.9,6.4,7.6c0,4.8-2.8,7.6-6.4,7.6
							c-1.7,0-3.3-0.8-4.5-2.2V28H216.7z M220.5,23.4c0.6,0.9,2,1.6,3.3,1.6c2.2,0,3.7-1.7,3.7-4.2c0-2.5-1.5-4.2-3.7-4.2
							c-1.2,0-2.6,0.7-3.3,1.7V23.4z"/>
						<path class="st22" d="M234.3,28V8h3.8v20H234.3z"/>
						<path class="st22" d="M248.4,13.2c4.3,0,7.3,3.2,7.3,8V22h-10.8c0.2,1.8,1.7,3.4,4.2,3.4c1.4,0,2.9-0.5,3.9-1.4l1.7,2.5
							c-1.5,1.4-3.7,2-6,2c-4.4,0-7.7-3-7.7-7.6C240.9,16.5,244,13.2,248.4,13.2z M244.9,19.4h7.1c-0.1-1.4-1-3.2-3.6-3.2
							C246.1,16.2,245.1,18,244.9,19.4z"/>
						<path class="st22" d="M276.4,28v-9.1c0-1.4-0.6-2.3-2.2-2.3c-1.3,0-2.5,0.9-3,1.7V28h-3.8v-9.1c0-1.4-0.6-2.3-2.2-2.3
							c-1.3,0-2.4,0.9-3,1.7V28h-3.8V13.5h3.8v1.9c0.6-0.9,2.5-2.2,4.7-2.2c2.1,0,3.5,1,4,2.6c0.8-1.3,2.8-2.6,5-2.6
							c2.7,0,4.3,1.4,4.3,4.4V28H276.4z"/>
						<path class="st22" d="M284.4,23.4c1.1,1,3.2,2,5,2c1.7,0,2.4-0.6,2.4-1.5c0-1-1.3-1.4-2.9-1.7c-2.5-0.5-5.7-1.1-5.7-4.5
							c0-2.4,2.1-4.6,5.9-4.6c2.5,0,4.4,0.8,5.8,2l-1.5,2.6c-0.9-0.9-2.5-1.7-4.3-1.7c-1.4,0-2.3,0.5-2.3,1.3c0,0.9,1.1,1.2,2.8,1.6
							c2.5,0.5,5.8,1.1,5.8,4.7c0,2.7-2.2,4.7-6.3,4.7c-2.5,0-5-0.8-6.5-2.2L284.4,23.4z"/>
						<path class="st22" d="M314.7,28v-1.5c-1,1.2-2.7,1.9-4.6,1.9c-2.3,0-5-1.6-5-4.8c0-3.4,2.7-4.6,5-4.6c1.9,0,3.6,0.6,4.6,1.8
							v-2c0-1.5-1.3-2.4-3.2-2.4c-1.6,0-3,0.6-4.2,1.7l-1.4-2.5c1.8-1.6,4.1-2.3,6.3-2.3c3.3,0,6.3,1.3,6.3,5.5V28H314.7z
							 M314.7,22.7c-0.6-0.8-1.8-1.3-3.1-1.3c-1.5,0-2.7,0.8-2.7,2.2c0,1.3,1.2,2.1,2.7,2.1c1.2,0,2.4-0.4,3.1-1.3V22.7z"/>
						<path class="st22" d="M323.1,24.4v-7.6h-2.4v-3.3h2.4v-4h3.8v4h2.9v3.3h-2.9v6.5c0,0.9,0.5,1.6,1.3,1.6c0.6,0,1.1-0.2,1.3-0.4
							l0.8,2.9c-0.6,0.5-1.6,0.9-3.2,0.9C324.5,28.4,323.1,27,323.1,24.4z"/>
						<path class="st22" d="M339.3,18c0-6.2,4.7-10.3,10.5-10.3c4.6,0,7.1,2.4,8.5,4.9l-3.7,1.8c-0.8-1.6-2.6-2.9-4.9-2.9
							c-3.5,0-6.1,2.8-6.1,6.6c0,3.8,2.6,6.6,6.1,6.6c2.2,0,4-1.3,4.9-2.9l3.7,1.8c-1.4,2.5-4,4.9-8.5,4.9
							C343.9,28.4,339.3,24.2,339.3,18z"/>
						<path class="st22" d="M359.8,20.7c0-4.1,2.9-7.6,7.6-7.6c4.8,0,7.7,3.5,7.7,7.6c0,4.1-2.9,7.6-7.7,7.6
							C362.7,28.4,359.8,24.9,359.8,20.7z M371.2,20.7c0-2.2-1.3-4.2-3.7-4.2c-2.4,0-3.7,2-3.7,4.2c0,2.3,1.3,4.2,3.7,4.2
							C369.8,25,371.2,23,371.2,20.7z"/>
						<path class="st22" d="M395.9,28v-9.1c0-1.4-0.6-2.3-2.2-2.3c-1.3,0-2.5,0.9-3,1.7V28h-3.8v-9.1c0-1.4-0.6-2.3-2.2-2.3
							c-1.3,0-2.4,0.9-3,1.7V28H378V13.5h3.8v1.9c0.6-0.9,2.5-2.2,4.7-2.2c2.1,0,3.5,1,4,2.6c0.8-1.3,2.8-2.6,5-2.6
							c2.7,0,4.3,1.4,4.3,4.4V28H395.9z"/>
						<path class="st22" d="M407.3,33.5h-3.8v-20h3.8v1.8c1.1-1.4,2.7-2.2,4.5-2.2c3.7,0,6.4,2.8,6.4,7.6s-2.7,7.6-6.4,7.6
							c-1.7,0-3.3-0.7-4.5-2.2V33.5z M410.6,16.5c-1.2,0-2.6,0.7-3.3,1.7v5.1c0.6,0.9,2,1.6,3.3,1.6c2.2,0,3.7-1.7,3.7-4.2
							C414.3,18.2,412.8,16.5,410.6,16.5z"/>
						<path class="st22" d="M429.8,28v-1.5c-1,1.2-2.7,1.9-4.6,1.9c-2.3,0-5-1.6-5-4.8c0-3.4,2.7-4.6,5-4.6c1.9,0,3.6,0.6,4.6,1.8
							v-2c0-1.5-1.3-2.4-3.2-2.4c-1.6,0-3,0.6-4.2,1.7l-1.4-2.5c1.8-1.6,4-2.3,6.3-2.3c3.3,0,6.3,1.3,6.3,5.5V28H429.8z M429.8,22.7
							c-0.6-0.8-1.8-1.3-3.1-1.3c-1.5,0-2.7,0.8-2.7,2.2c0,1.3,1.2,2.1,2.7,2.1c1.2,0,2.4-0.4,3.1-1.3V22.7z"/>
						<path class="st22" d="M447.1,28v-8.8c0-2-1.1-2.7-2.7-2.7c-1.5,0-2.7,0.8-3.3,1.7V28h-3.8V13.5h3.8v1.9
							c0.9-1.1,2.7-2.2,5.1-2.2c3.2,0,4.7,1.8,4.7,4.6V28H447.1z"/>
						<path class="st22" d="M454.8,30.2c0.3,0.2,0.8,0.2,1.2,0.2c1,0,1.7-0.3,2-1.1l0.5-1.2l-5.9-14.7h4.1l3.8,10.1l3.8-10.1h4.1
							l-6.8,16.9c-1.1,2.7-3,3.4-5.5,3.5c-0.4,0-1.4-0.1-1.9-0.2L454.8,30.2z"/>
					</g>
				</g>
				<g id="Group-33" transform="translate(0.000000, 94.000000)">
					<g id="green-check" transform="translate(0.000000, 3.000000)">
						<path id="Path_00000130640773449915814930000015866679688413665700_" class="st24" d="M16,0C7.2,0,0,7.2,0,16
							c0,8.8,7.2,16,16,16s16-7.2,16-16C32,7.2,24.8,0,16,0"/>
						<path id="Path_00000057846932287347078830000008140611482450434739_" class="st23" d="M26.8,10L12.9,25.8
							c-0.2,0.3-0.7,0.3-0.9,0.1l-6.8-6.2c-0.3-0.2-0.3-0.7,0-1L7.8,16c0.2-0.2,0.7-0.2,0.9,0l3.7,4.1L23.6,7.2
							c0.3-0.2,0.5-0.3,0.9-0.1l2.3,2C27,9.3,27.1,9.8,26.8,10"/>
					</g>
					<g class="st19">
						<path class="st24" d="M62.8,28l-9.5-13.4V28H49V8h4.4l9.3,13V8h4.3v20H62.8z"/>
						<path class="st24" d="M69.8,20.7c0-4.1,2.9-7.6,7.6-7.6c4.8,0,7.7,3.5,7.7,7.6c0,4.1-2.9,7.6-7.7,7.6
							C72.7,28.4,69.8,24.9,69.8,20.7z M81.2,20.7c0-2.2-1.4-4.2-3.7-4.2c-2.4,0-3.7,2-3.7,4.2c0,2.3,1.3,4.2,3.7,4.2
							C79.8,25,81.2,23,81.2,20.7z"/>
						<path class="st24" d="M95.7,28V8h9.4c4.4,0,6.7,2.9,6.7,6.4c0,3.5-2.4,6.4-6.7,6.4H100V28H95.7z M104.5,11.7H100v5.5h4.5
							c1.7,0,2.9-1.1,2.9-2.8C107.5,12.8,106.2,11.7,104.5,11.7z"/>
						<path class="st24" d="M114.4,28V13.5h3.8v2c1-1.3,2.8-2.3,4.6-2.3v3.7c-0.3-0.1-0.6-0.1-1-0.1c-1.3,0-2.9,0.7-3.6,1.6V28
							H114.4z"/>
						<path class="st24" d="M124.2,20.7c0-4.1,2.9-7.6,7.6-7.6c4.8,0,7.7,3.5,7.7,7.6c0,4.1-2.9,7.6-7.7,7.6
							C127.1,28.4,124.2,24.9,124.2,20.7z M135.6,20.7c0-2.2-1.4-4.2-3.7-4.2c-2.4,0-3.7,2-3.7,4.2c0,2.3,1.3,4.2,3.7,4.2
							C134.3,25,135.6,23,135.6,20.7z"/>
						<path class="st24" d="M142.4,28V8h3.8v7.4c1.1-1.5,2.8-2.2,4.5-2.2c3.7,0,6.4,2.9,6.4,7.6c0,4.8-2.8,7.6-6.4,7.6
							c-1.7,0-3.3-0.8-4.5-2.2V28H142.4z M146.2,23.4c0.6,0.9,2,1.6,3.3,1.6c2.2,0,3.7-1.7,3.7-4.2c0-2.5-1.5-4.2-3.7-4.2
							c-1.2,0-2.6,0.7-3.3,1.7V23.4z"/>
						<path class="st24" d="M160,28V8h3.8v20H160z"/>
						<path class="st24" d="M174.1,13.2c4.3,0,7.3,3.2,7.3,8V22h-10.8c0.2,1.8,1.7,3.4,4.2,3.4c1.4,0,2.9-0.5,3.9-1.4l1.7,2.5
							c-1.5,1.4-3.7,2-6,2c-4.4,0-7.7-3-7.7-7.6C166.6,16.5,169.7,13.2,174.1,13.2z M170.6,19.4h7.1c-0.1-1.4-1-3.2-3.6-3.2
							C171.8,16.2,170.7,18,170.6,19.4z"/>
						<path class="st24" d="M202.1,28v-9.1c0-1.4-0.6-2.3-2.2-2.3c-1.4,0-2.5,0.9-3,1.7V28h-3.8v-9.1c0-1.4-0.6-2.3-2.2-2.3
							c-1.3,0-2.4,0.9-3,1.7V28h-3.8V13.5h3.8v1.9c0.6-0.9,2.5-2.2,4.7-2.2c2.1,0,3.5,1,4,2.6c0.8-1.3,2.8-2.6,5-2.6
							c2.7,0,4.3,1.4,4.3,4.4V28H202.1z"/>
						<path class="st24" d="M210.1,23.4c1.1,1,3.2,2,5,2c1.6,0,2.4-0.6,2.4-1.5c0-1-1.3-1.4-2.9-1.7c-2.5-0.5-5.7-1.1-5.7-4.5
							c0-2.4,2.1-4.6,5.9-4.6c2.5,0,4.4,0.8,5.8,2l-1.5,2.6c-0.9-0.9-2.5-1.7-4.3-1.7c-1.4,0-2.3,0.5-2.3,1.3c0,0.9,1.1,1.2,2.8,1.6
							c2.5,0.5,5.8,1.1,5.8,4.7c0,2.7-2.2,4.7-6.3,4.7c-2.5,0-5-0.8-6.5-2.2L210.1,23.4z"/>
						<path class="st24" d="M240.4,28v-1.5c-1,1.2-2.7,1.9-4.6,1.9c-2.3,0-5-1.6-5-4.8c0-3.4,2.7-4.6,5-4.6c1.9,0,3.6,0.6,4.6,1.8
							v-2c0-1.5-1.3-2.4-3.2-2.4c-1.6,0-3,0.6-4.2,1.7l-1.4-2.5c1.8-1.6,4-2.3,6.3-2.3c3.3,0,6.3,1.3,6.3,5.5V28H240.4z M240.4,22.7
							c-0.6-0.8-1.8-1.3-3.1-1.3c-1.5,0-2.7,0.8-2.7,2.2c0,1.3,1.2,2.1,2.7,2.1c1.2,0,2.4-0.4,3.1-1.3V22.7z"/>
						<path class="st24" d="M248.7,24.4v-7.6h-2.4v-3.3h2.4v-4h3.8v4h2.9v3.3h-2.9v6.5c0,0.9,0.5,1.6,1.3,1.6c0.6,0,1.1-0.2,1.3-0.4
							l0.8,2.9c-0.6,0.5-1.6,0.9-3.2,0.9C250.2,28.4,248.7,27,248.7,24.4z"/>
						<path class="st24" d="M264.9,18c0-6.2,4.6-10.3,10.5-10.3c4.6,0,7.1,2.4,8.5,4.9l-3.7,1.8c-0.8-1.6-2.6-2.9-4.9-2.9
							c-3.5,0-6.1,2.8-6.1,6.6c0,3.8,2.6,6.6,6.1,6.6c2.2,0,4-1.3,4.9-2.9l3.7,1.8c-1.4,2.5-4,4.9-8.5,4.9
							C269.6,28.4,264.9,24.2,264.9,18z"/>
						<path class="st24" d="M285.5,20.7c0-4.1,2.9-7.6,7.7-7.6c4.8,0,7.7,3.5,7.7,7.6c0,4.1-2.9,7.6-7.7,7.6
							C288.4,28.4,285.5,24.9,285.5,20.7z M296.9,20.7c0-2.2-1.4-4.2-3.7-4.2c-2.4,0-3.7,2-3.7,4.2c0,2.3,1.3,4.2,3.7,4.2
							C295.5,25,296.9,23,296.9,20.7z"/>
						<path class="st24" d="M321.6,28v-9.1c0-1.4-0.6-2.3-2.2-2.3c-1.3,0-2.5,0.9-3,1.7V28h-3.8v-9.1c0-1.4-0.6-2.3-2.2-2.3
							c-1.3,0-2.4,0.9-3,1.7V28h-3.8V13.5h3.8v1.9c0.6-0.9,2.5-2.2,4.7-2.2c2.1,0,3.5,1,4,2.6c0.8-1.3,2.8-2.6,5-2.6
							c2.7,0,4.3,1.4,4.3,4.4V28H321.6z"/>
						<path class="st24" d="M333,33.5h-3.8v-20h3.8v1.8c1.1-1.4,2.7-2.2,4.5-2.2c3.7,0,6.4,2.8,6.4,7.6s-2.7,7.6-6.4,7.6
							c-1.7,0-3.3-0.7-4.5-2.2V33.5z M336.3,16.5c-1.2,0-2.6,0.7-3.3,1.7v5.1c0.6,0.9,2,1.6,3.3,1.6c2.2,0,3.7-1.7,3.7-4.2
							C339.9,18.2,338.5,16.5,336.3,16.5z"/>
						<path class="st24" d="M355.5,28v-1.5c-1,1.2-2.7,1.9-4.6,1.9c-2.3,0-5-1.6-5-4.8c0-3.4,2.7-4.6,5-4.6c1.9,0,3.6,0.6,4.6,1.8
							v-2c0-1.5-1.3-2.4-3.2-2.4c-1.6,0-3,0.6-4.2,1.7l-1.4-2.5c1.8-1.6,4-2.3,6.3-2.3c3.3,0,6.3,1.3,6.3,5.5V28H355.5z M355.5,22.7
							c-0.6-0.8-1.8-1.3-3.1-1.3c-1.5,0-2.7,0.8-2.7,2.2c0,1.3,1.2,2.1,2.7,2.1c1.2,0,2.4-0.4,3.1-1.3V22.7z"/>
						<path class="st24" d="M372.8,28v-8.8c0-2-1.1-2.7-2.7-2.7c-1.5,0-2.7,0.8-3.3,1.7V28H363V13.5h3.8v1.9
							c0.9-1.1,2.7-2.2,5.1-2.2c3.2,0,4.7,1.8,4.7,4.6V28H372.8z"/>
						<path class="st24" d="M380.5,30.2c0.3,0.2,0.8,0.2,1.2,0.2c1,0,1.7-0.3,2-1.1l0.5-1.2l-5.9-14.7h4.1l3.8,10.1l3.8-10.1h4.1
							l-6.8,16.9c-1.1,2.7-3,3.4-5.5,3.5c-0.4,0-1.4-0.1-1.9-0.2L380.5,30.2z"/>
					</g>
				</g>
			</g>
		</g>
	</g>
</g>
</svg>
