<?xml version="1.0" encoding="UTF-8"?>
<svg width="469px" height="358px" viewBox="0 0 469 358" version="1.1" xmlns="http://www.w3.org/2000/svg" xmlns:xlink="http://www.w3.org/1999/xlink">
    <!-- Generator: Sketch 64 (93537) - https://sketch.com -->
    <title>Group 36</title>
    <desc>Created with Sketch.</desc>
    <defs>
        <polygon id="path-1" points="0 0.375577706 33.8407711 0.375577706 33.8407711 38.2282403 0 38.2282403"></polygon>
        <polygon id="path-3" points="0.474291304 0.642086441 28.6415957 0.642086441 28.6415957 29.5652174 0.474291304 29.5652174"></polygon>
        <polygon id="path-5" points="0.479403727 0.64188058 27.4720023 0.64188058 27.4720023 29.5652174 0.479403727 29.5652174"></polygon>
        <polygon id="path-7" points="0.436453561 0.64188058 27.4270183 0.64188058 27.4270183 29.5652174 0.436453561 29.5652174"></polygon>
        <polygon id="path-9" points="0.124656522 0.642086441 28.2940043 0.642086441 28.2940043 29.5652174 0.124656522 29.5652174"></polygon>
    </defs>
    <g id="Page-1" stroke="none" stroke-width="1" fill="none" fill-rule="evenodd">
        <g id="DD" transform="translate(-862.000000, -10973.000000)">
            <g id="Group-36" transform="translate(862.000000, 10973.000000)">
                <g id="Group-26" transform="translate(2.000000, 0.000000)">
                    <g id="Logo-Color" transform="translate(0.000000, 0.000000)">
                        <path d="M379.265457,2.54842876 C379.609936,2.54842876 379.805545,2.36934998 379.805545,2.11622901 C379.805545,1.83211365 379.609936,1.68402927 379.265457,1.68402927 L378.619774,1.68402927 L378.619774,2.54842876 L379.265457,2.54842876 Z M378.110845,1.23633233 L379.308733,1.23633233 C379.893829,1.23633233 380.330054,1.5204477 380.330054,2.07145932 C380.330054,2.50365906 380.073858,2.77227723 379.71553,2.87559191 L380.420069,3.87602238 L379.805545,3.87602238 L379.175442,2.96685321 L378.619774,2.96685321 L378.619774,3.87602238 L378.110845,3.87602238 L378.110845,1.23633233 Z M381.437927,2.60869565 L381.437927,2.59319845 C381.437927,1.32587172 380.449497,0.282393457 379.130435,0.282393457 C377.825221,0.282393457 376.821211,1.34136892 376.821211,2.60869565 L376.821211,2.62247094 C376.821211,3.88979768 377.811373,4.93499785 379.130435,4.93499785 C380.433917,4.93499785 381.437927,3.87602238 381.437927,2.60869565 L381.437927,2.60869565 Z M376.521739,2.62247094 L376.521739,2.60869565 C376.521739,1.19156263 377.676351,0 379.130435,0 C380.600098,0 381.73913,1.17778734 381.73913,2.59319845 L381.73913,2.60869565 C381.73913,4.02410676 380.584519,5.2173913 379.130435,5.2173913 C377.660771,5.2173913 376.521739,4.03960396 376.521739,2.62247094 L376.521739,2.62247094 Z" id="Fill-1" fill="#616F77"></path>
                        <path d="M341.73913,20 C341.73913,9.47094055 350.145845,0.869565217 360.434783,0.869565217 C370.72372,0.869565217 379.130435,9.47094055 379.130435,20 C379.130435,30.5290594 370.72372,39.1304348 360.434783,39.1304348 L341.73913,39.1304348 L341.73913,20 Z" id="Fill-3" fill="#FF160A"></path>
                        <path d="M361.837429,32.8309352 C360.612476,33.114326 359.387524,33.114326 358.162571,32.8309352 C357.86593,32.7615738 357.632107,32.4920553 357.574524,32.1432666 C357.330231,30.7144222 357.330231,29.2855778 357.574524,27.8567334 C357.632107,27.5079447 357.86593,27.2384262 358.162571,27.1690648 C359.387524,26.885674 360.612476,26.885674 361.837429,27.1690648 C362.13407,27.2384262 362.367893,27.5079447 362.425476,27.8567334 C362.669769,29.2855778 362.669769,30.7144222 362.425476,32.1432666 C362.367893,32.4920553 362.13407,32.7615738 361.837429,32.8309352" id="Fill-5" fill="#FFFFFF"></path>
                        <path d="M357.530298,23.3197593 L356.521739,6.7133334 C356.521739,6.1069838 356.911897,5.58455802 357.450316,5.47545705 C359.149455,5.13136939 360.848594,5.13136939 362.547733,5.47545705 C363.088103,5.58455802 363.478261,6.1069838 363.478261,6.7133334 L362.469702,23.3197593 C362.469702,23.7939289 362.122461,24.1778804 361.691336,24.1778804 C360.563779,24.4044747 359.436221,24.4044747 358.306713,24.1778804 C357.877539,24.1778804 357.530298,23.7939289 357.530298,23.3197593" id="Fill-7" fill="#FFFFFF"></path>
                        <g id="Group-11" transform="translate(0.000000, 20.869565)">
                            <mask id="mask-2" fill="white">
                                <use xlink:href="#path-1"></use>
                            </mask>
                            <g id="Clip-10"></g>
                            <path d="M14.4252852,31.1344498 C21.6656816,31.1344498 25.8887379,25.7444797 25.8887379,19.3305791 C25.8887379,12.6340736 21.9381368,7.46936819 14.4252852,7.46936819 L7.78876343,7.46936819 L7.78876343,31.1344498 L14.4252852,31.1344498 Z M-0.000609974425,0.375577706 L14.4252852,0.375577706 C25.8887379,0.375577706 33.8407711,7.92399333 33.8407711,19.3305791 C33.8407711,30.7371648 25.8887379,38.2282403 14.4252852,38.2282403 L-0.000609974425,38.2282403 L-0.000609974425,0.375577706 Z" id="Fill-9" fill="#FF160A" mask="url(#mask-2)"></path>
                        </g>
                        <g id="Group-14" transform="translate(36.521739, 30.434783)">
                            <mask id="mask-4" fill="white">
                                <use xlink:href="#path-3"></use>
                            </mask>
                            <g id="Clip-13"></g>
                            <path d="M21.3647696,15.0750372 C21.3647696,10.7972349 18.8860304,7.08966905 14.5293348,7.08966905 C10.1746826,7.08966905 7.74907391,10.7972349 7.74907391,15.0750372 C7.74907391,19.4104806 10.1746826,23.1180465 14.5293348,23.1180465 C18.8860304,23.1180465 21.3647696,19.4104806 21.3647696,15.0750372 M0.474291304,15.0750372 C0.474291304,7.26053411 5.76485652,0.642086441 14.5293348,0.642086441 C23.348987,0.642086441 28.6415957,7.26053411 28.6415957,15.0750372 C28.6415957,22.9471814 23.348987,29.5656291 14.5293348,29.5656291 C5.76485652,29.5656291 0.474291304,22.9471814 0.474291304,15.0750372" id="Fill-12" fill="#FF160A" mask="url(#mask-4)"></path>
                        </g>
                        <polygon id="Fill-15" fill="#FF160A" points="85.244556 40.7693882 79.7089851 59.1304348 72.3262117 59.1304348 64.3478261 32.173913 71.5112694 32.173913 76.3968987 50.3114128 82.1497876 32.173913 88.284995 32.173913 94.0378839 50.3114128 98.9235132 32.173913 106.086957 32.173913 98.1085709 59.1304348 90.780127 59.1304348"></polygon>
                        <path d="M127.956451,42.7159649 C127.956451,38.9486097 126.075571,37.6563075 123.172561,37.6563075 C120.484736,37.6563075 118.388671,39.2306034 117.260941,40.8596751 L117.260941,59.1304348 L110.434783,59.1304348 L110.434783,31.9778868 L117.260941,31.9778868 L117.260941,35.5200527 C118.926635,33.4385738 122.098627,31.3043478 126.344553,31.3043478 C132.040988,31.3043478 134.782609,34.6761003 134.782609,39.9609469 L134.782609,59.1304348 L127.956451,59.1304348 L127.956451,42.7159649 Z" id="Fill-17" fill="#FF160A"></path>
                        <path d="M159.059333,40.8980331 C157.852446,39.0943878 155.381686,37.7990979 153.020828,37.7990979 C149.068426,37.7990979 146.322911,41.0119048 146.322911,45.7436779 C146.322911,50.4205487 149.068426,53.6333555 153.020828,53.6333555 C155.381686,53.6333555 157.852446,52.3360322 159.059333,50.5344203 L159.059333,40.8980331 Z M159.059333,55.8884206 C156.975265,58.5359361 154.062862,60 150.879774,60 C144.181857,60 139.130435,54.8168072 139.130435,45.7436779 C139.130435,36.8413561 144.126906,31.4324534 150.879774,31.4324534 C154.009946,31.4324534 156.975265,32.8395815 159.059333,35.6009686 L159.059333,21.7391304 L166.086957,21.7391304 L166.086957,59.3249039 L159.059333,59.3249039 L159.059333,55.8884206 Z" id="Fill-19" fill="#616F77"></path>
                        <g id="Group-23" transform="translate(167.826087, 30.434783)">
                            <mask id="mask-6" fill="white">
                                <use xlink:href="#path-5"></use>
                            </mask>
                            <g id="Clip-22"></g>
                            <path d="M7.66685425,12.5077382 L20.7238527,12.5077382 C20.5591148,9.88506254 18.8039451,6.40394435 14.1953535,6.40394435 C9.86132486,6.40394435 7.99632991,9.7697801 7.66685425,12.5077382 M14.1953535,0.64188058 C22.0946341,0.64188058 27.4720023,6.80331568 27.4720023,15.8159328 L27.4720023,17.4134181 L7.77667947,17.4134181 C8.21598036,20.8945363 10.9046645,23.8033595 15.4013971,23.8033595 C17.8724645,23.8033595 20.7787653,22.7761105 22.4790224,21.0654014 L25.5520948,25.7425749 C22.8634107,28.309668 18.7490325,29.5654233 14.6346543,29.5654233 C6.56860205,29.5654233 0.479403727,23.9165833 0.479403727,15.0748313 C0.479403727,7.08946319 6.13133497,0.64188058 14.1953535,0.64188058" id="Fill-21" fill="#616F77" mask="url(#mask-6)"></path>
                        </g>
                        <path d="M201.698711,51.8075696 L201.698711,37.8284642 L197.391304,37.8284642 L197.391304,31.6706913 L201.698711,31.6706913 L201.698711,24.3478261 L208.590961,24.3478261 L208.590961,31.6706913 L213.866436,31.6706913 L213.866436,37.8284642 L208.590961,37.8284642 L208.590961,49.9218017 C208.590961,51.5853613 209.451245,52.8605568 210.958238,52.8605568 C211.982196,52.8605568 212.95226,52.4741946 213.329508,52.0858305 L214.782609,57.4108226 C213.758651,58.3537066 211.928303,59.1304348 209.073997,59.1304348 C204.281558,59.1304348 201.698711,56.5780419 201.698711,51.8075696" id="Fill-24" fill="#616F77"></path>
                        <g id="Group-28" transform="translate(215.652174, 30.434783)">
                            <mask id="mask-8" fill="white">
                                <use xlink:href="#path-7"></use>
                            </mask>
                            <g id="Clip-27"></g>
                            <path d="M7.62187029,12.5077382 L20.6788687,12.5077382 C20.5141309,9.88506254 18.7609949,6.40394435 14.1503695,6.40394435 C9.81634089,6.40394435 7.95134595,9.7697801 7.62187029,12.5077382 M14.1503695,0.64188058 C22.051684,0.64188058 27.4270183,6.80331568 27.4270183,15.8159328 L27.4270183,17.4134181 L7.73169551,17.4134181 C8.17099639,20.8945363 10.8596805,23.8033595 15.3584469,23.8033595 C17.8274806,23.8033595 20.7337813,22.7761105 22.4360722,21.0654014 L25.5071108,25.7425749 C22.8204605,28.309668 18.7040485,29.5654233 14.5896704,29.5654233 C6.52565189,29.5654233 0.436453561,23.9165833 0.436453561,15.0748313 C0.436453561,7.08946319 6.086351,0.64188058 14.1503695,0.64188058" id="Fill-26" fill="#616F77" mask="url(#mask-8)"></path>
                        </g>
                        <path d="M260.031731,31.3043478 C265.423064,31.3043478 268.692191,33.7370136 270.434783,36.2840617 L265.915755,40.6428432 C264.661816,38.7759612 262.755666,37.6995423 260.358845,37.6995423 C256.164913,37.6995423 253.222901,40.8695652 253.222901,45.6245996 C253.222901,50.3775915 256.164913,53.6048055 260.358845,53.6048055 C262.755666,53.6048055 264.661816,52.4732381 265.915755,50.6615046 L270.434783,55.0202861 C268.692191,57.5673342 265.423064,60 260.031731,60 C251.914443,60 246.086957,54.0582495 246.086957,45.6245996 C246.086957,37.2481408 251.914443,31.3043478 260.031731,31.3043478" id="Fill-29" fill="#616F77"></path>
                        <path d="M279.090015,51.8075696 L279.090015,37.8284642 L274.782609,37.8284642 L274.782609,31.6706913 L279.090015,31.6706913 L279.090015,24.3478261 L285.982265,24.3478261 L285.982265,31.6706913 L291.257741,31.6706913 L291.257741,37.8284642 L285.982265,37.8284642 L285.982265,49.9218017 C285.982265,51.5853613 286.842549,52.8605568 288.349543,52.8605568 C289.3735,52.8605568 290.343565,52.4741946 290.720812,52.0858305 L292.173913,57.4108226 C291.149956,58.3537066 289.319607,59.1304348 286.465302,59.1304348 C281.672863,59.1304348 279.090015,56.5780419 279.090015,51.8075696" id="Fill-31" fill="#616F77"></path>
                        <g id="Group-35" transform="translate(291.304348, 30.434783)">
                            <mask id="mask-10" fill="white">
                                <use xlink:href="#path-9"></use>
                            </mask>
                            <g id="Clip-34"></g>
                            <path d="M21.0171783,15.0750372 C21.0171783,10.7972349 18.5363957,7.08966905 14.1817435,7.08966905 C9.8270913,7.08966905 7.40148261,10.7972349 7.40148261,15.0750372 C7.40148261,19.4104806 9.8270913,23.1180465 14.1817435,23.1180465 C18.5363957,23.1180465 21.0171783,19.4104806 21.0171783,15.0750372 M0.124656522,15.0750372 C0.124656522,7.26053411 5.41726522,0.642086441 14.1817435,0.642086441 C23.0013957,0.642086441 28.2940043,7.26053411 28.2940043,15.0750372 C28.2940043,22.9471814 23.0013957,29.5656291 14.1817435,29.5656291 C5.41726522,29.5656291 0.124656522,22.9471814 0.124656522,15.0750372" id="Fill-33" fill="#616F77" mask="url(#mask-10)"></path>
                        </g>
                        <path d="M322.608696,31.9243315 L329.683148,31.9243315 L329.683148,35.6422008 C331.576689,33.2191827 334.917747,31.3043478 338.26087,31.3043478 L338.26087,38.2888196 C337.759091,38.1770193 337.090054,38.1201028 336.311575,38.1201028 C333.972009,38.1201028 330.851899,39.4169867 329.683148,41.1610719 L329.683148,59.1304348 L322.608696,59.1304348 L322.608696,31.9243315 Z" id="Fill-36" fill="#616F77"></path>
                    </g>
                    <g id="Group-25" transform="translate(0.000000, 88.000000)">
                        <rect id="Rectangle" fill="#FF160A" x="0" y="0" width="34" height="34"></rect>
                        <rect id="Rectangle-Copy-9" fill="#616F77" x="226" y="0" width="34" height="34"></rect>
                        <rect id="Rectangle-Copy-12" stroke="#616F77" fill="#D7DDE0" x="272.5" y="0.5" width="33" height="33"></rect>
                        <rect id="Rectangle-Copy-13" stroke="#616F77" fill="#E9EEF1" x="317.5" y="0.5" width="33" height="33"></rect>
                        <rect id="Rectangle-Copy-6" fill="#FFB00A" x="45" y="0" width="34" height="34"></rect>
                        <rect id="Rectangle-Copy-10" fill="#495156" x="181" y="0" width="34" height="34"></rect>
                        <rect id="Rectangle-Copy-7" fill="#0AAFBE" x="91" y="0" width="34" height="34"></rect>
                        <rect id="Rectangle-Copy-11" fill="#23232C" x="136" y="0" width="34" height="34"></rect>
                    </g>
                    <text id="Proxima-Nova" font-family="ProximaNova-Bold, Proxima Nova" font-size="48" font-weight="bold" letter-spacing="0.004" fill="#5E5E5E">
                        <tspan x="0" y="186">Proxima Nova</tspan>
                    </text>
                </g>
                <g id="Group-18" transform="translate(0.000000, 229.000000)">
                    <g id="Group-31">
                        <g id="D-Logo" transform="translate(0.000000, 3.000000)">
                            <g id="Down">
                                <path d="M0.000123438914,16.1123385 C0.000123438914,7.41356923 6.93739041,0.307723077 15.4299877,0.307723077 C23.9222764,0.307723077 30.8598519,7.41356923 30.8598519,16.1123385 C30.8598519,24.8111077 23.9222764,31.9169538 15.4299877,31.9169538 L0.000123438914,31.9169538 L0.000123438914,16.1123385 Z" id="Fill-4" fill="#FF160A"></path>
                                <path d="M17.2041135,26.9956 C16.0212601,27.2356 14.8384067,27.2356 13.6558619,26.9956 C13.3682492,26.9371385 13.143899,26.7072923 13.0868085,26.4128308 C12.8525832,25.2014462 12.8525832,23.9900615 13.0868085,22.7783692 C13.143899,22.4842154 13.3682492,22.2543692 13.6558619,22.1959077 C14.8384067,21.9562154 16.0212601,21.9562154 17.2041135,22.1959077 C17.4914176,22.2543692 17.7157678,22.4842154 17.7728583,22.7783692 C18.0070836,23.9900615 18.0070836,25.2014462 17.7728583,26.4128308 C17.7157678,26.7072923 17.4914176,26.9371385 17.2041135,26.9956" id="Fill-7" fill="#FFFFFF"></path>
                                <path d="M13.2975187,19.5432308 L12.4257314,6.24692308 C12.4257314,5.76169231 12.7627196,5.34323077 13.2283929,5.25553846 C14.6960816,4.98015385 16.1637703,4.98015385 17.6311504,5.25553846 C18.0971323,5.34323077 18.4341205,5.76169231 18.4341205,6.24692308 L17.5623332,19.5432308 C17.5623332,19.9226154 17.2620681,20.23 16.8914427,20.23 C15.9172011,20.4121538 14.9426509,20.4121538 13.9681006,20.23 C13.5977839,20.23 13.2975187,19.9226154 13.2975187,19.5432308" id="Fill-9" fill="#FFFFFF"></path>
                            </g>
                        </g>
                        <text id="Problems-at-Company" font-family="ProximaNova-Bold, Proxima Nova" font-size="30" font-weight="bold" letter-spacing="0.0025" fill="#FF160A">
                            <tspan x="43" y="28">Problems at Company</tspan>
                        </text>
                    </g>
                    <g id="Group-32" transform="translate(0.000000, 47.000000)">
                        <g id="possible-problem" transform="translate(0.000000, 3.000000)" fill-rule="nonzero">
                            <path d="M34.2814196,23.9712719 L28.187782,13.3236426 L22.0941444,2.67738953 C20.0520187,-0.892463177 14.9460224,-0.892463177 12.9038967,2.67738953 L6.81025903,13.3236426 L0.719349699,23.9712719 C-1.32414015,27.5397484 1.22954009,32 5.31379149,32 L17.4997026,32 L29.6856137,32 C33.7698651,32 36.3235453,27.5397484 34.2814196,23.9712719 L34.2814196,23.9712719 Z" id="Path" fill="#FFB00A"></path>
                            <path d="M18.9768772,22.7238751 C19.2155644,22.7737999 19.403282,22.9721853 19.4505222,23.2244369 C19.6444555,24.2649749 19.6444555,25.3055128 19.4505222,26.344737 C19.403282,26.5983024 19.2155644,26.795374 18.9768772,26.8452988 C17.9922924,27.0515671 17.0077077,27.0515671 16.0231229,26.8452988 C15.7831925,26.795374 15.5979613,26.5983024 15.5507211,26.344737 C15.3555445,25.3055128 15.3555445,24.2649749 15.5507211,23.2244369 C15.5979613,22.9721853 15.7831925,22.7737999 16.0231229,22.7238751 C17.0077077,22.5176068 17.9922924,22.5176068 18.9768772,22.7238751 Z M19.3324217,8.17736444 C19.7190452,8.25356542 20,8.61223573 20,9.03002752 L19.2752362,20.4470414 C19.2752362,20.7728663 19.0253606,21.0356285 18.7170562,21.0356285 C17.905271,21.191972 17.094729,21.191972 16.284187,21.0356285 C15.9758827,21.0356285 15.726007,20.7728663 15.726007,20.4470414 L15,9.03002752 C15,8.61223573 15.2797116,8.25356542 15.6688215,8.17736444 C16.8896071,7.94087852 18.1103929,7.94087852 19.3324217,8.17736444 Z" id="Combined-Shape" fill="#FFFFFF"></path>
                        </g>
                        <text id="Possible-Problems-at" font-family="ProximaNova-Bold, Proxima Nova" font-size="30" font-weight="bold" letter-spacing="0.0025" fill="#FFB00A">
                            <tspan x="47" y="28">Possible Problems at Company</tspan>
                        </text>
                    </g>
                    <g id="Group-33" transform="translate(0.000000, 94.000000)">
                        <g id="green-check" transform="translate(0.000000, 3.000000)" fill-rule="nonzero">
                            <path d="M15.999314,0 C7.16278671,0 0,7.16415863 0,15.999314 C0,24.8358413 7.16278671,32 15.999314,32 C24.8358413,32 32,24.8358413 32,15.999314 C32,7.16415863 24.8358413,0 15.999314,0" id="Path" fill="#0AAFBE"></path>
                            <path d="M26.8466999,10.0433299 L12.9219092,25.7878225 C12.6959408,26.0482206 12.254829,26.0728899 12.0004455,25.8399021 L5.20109917,19.608164 C4.94130325,19.3696941 4.93183153,18.9037186 5.18080262,18.6542846 L7.77064319,16.0297456 C8.01826118,15.7830527 8.46749162,15.7926463 8.70293168,16.0516739 L12.4266732,20.109773 L23.6073695,7.20499045 C23.9429393,6.98707834 24.1377862,6.90758839 24.5193615,7.14331721 L26.7858102,9.11000826 C27.0442531,9.33751399 27.0740213,9.78567286 26.8466999,10.0433299" id="Path" fill="#FFFFFF"></path>
                        </g>
                        <text id="No-Problems-at-Compa" font-family="ProximaNova-Bold, Proxima Nova" font-size="30" font-weight="bold" letter-spacing="0.0025" fill="#0AAFBE">
                            <tspan x="47" y="28">No Problems at Company</tspan>
                        </text>
                    </g>
                </g>
            </g>
        </g>
    </g>
</svg>