<?xml version="1.0" encoding="UTF-8"?>
<svg width="494px" height="358px" viewBox="0 0 494 358" version="1.1" xmlns="http://www.w3.org/2000/svg" xmlns:xlink="http://www.w3.org/1999/xlink">
    <!-- Generator: Sketch 64 (93537) - https://sketch.com -->
    <title>Group 34</title>
    <desc>Created with Sketch.</desc>
    <defs>
        <polygon id="path-1" points="0 0 493.220339 0 493.220339 60 0 60"></polygon>
    </defs>
    <g id="Page-1" stroke="none" stroke-width="1" fill="none" fill-rule="evenodd">
        <g id="DD" transform="translate(-199.000000, -10973.000000)">
            <g id="Group-34" transform="translate(199.000000, 10973.000000)">
                <g id="Group-27">
                    <g id="Group-19">
                        <mask id="mask-2" fill="white">
                            <use xlink:href="#path-1"></use>
                        </mask>
                        <g id="Clip-2"></g>
                        <path d="M19.2529351,43.1558372 C19.0527029,42.1661195 18.7070104,41.2937311 18.2234173,40.5367703 C17.736053,39.7817112 17.1070082,39.1704697 16.3381729,38.6992592 C15.5655578,38.2280572 14.5946004,37.9933986 13.4215208,37.9933986 C12.2484327,37.9933986 11.260475,38.2280572 10.4557492,38.6992592 C9.65102342,39.1704697 9.00686824,39.7911688 8.51950051,40.5613738 C8.03402093,41.3353652 7.68266232,42.2153266 7.46542467,43.2050442 C7.246298,44.1966552 7.13862326,45.2299002 7.13862326,46.3028861 C7.13862326,47.3115276 7.25385406,48.3182758 7.48998187,49.3250327 C7.72422066,50.3317809 8.10202635,51.2306661 8.62150564,52.0197931 C9.13909934,52.8089193 9.79459374,53.446655 10.5823192,53.9329986 C11.3681463,54.419343 12.3164424,54.663461 13.4215208,54.663461 C14.5946004,54.663461 15.5750072,54.4288049 16.3627327,53.9576004 C17.1485683,53.4882874 17.777613,52.8581221 18.2479771,52.068995 C18.7164512,51.2798645 19.0527029,50.3828726 19.2529351,49.3761244 C19.4531759,48.3674829 19.5551776,47.3285581 19.5551776,46.253679 C19.5551776,45.1788085 19.4531759,44.1455635 19.2529351,43.1558372 L19.2529351,43.1558372 Z M19.5551776,56.0221972 C18.7164512,57.4320277 17.6189323,58.4482404 16.2626123,59.0689447 C14.9044023,59.6896481 13.3724013,60 11.6628379,60 C9.71903312,60 8.00946373,59.6234144 6.53602471,58.8683507 C5.05880766,58.111395 3.84605365,57.0895051 2.89020748,55.7951107 C1.93625032,54.504501 1.21464294,53.0189744 0.729163447,51.3385292 C0.243684126,49.6618747 0,47.9151962 0,46.1022886 C0,44.3575118 0.243684126,42.6694979 0.729163447,41.0401487 C1.21464294,39.4126927 1.93625032,37.9782613 2.89020748,36.7349611 C3.84605365,35.4935542 5.04369554,34.4943703 6.48502129,33.7393113 C7.92445802,32.9842437 9.60191244,32.6057675 11.5117166,32.6057675 C13.0531585,32.6057675 14.5190397,32.9331519 15.9093604,33.5879208 C17.2996895,34.2426811 18.3972085,35.2078039 19.2038241,36.4832719 L19.3039445,36.4832719 L19.3039445,23.3898305 L26.440678,23.3898305 L26.440678,59.3471256 L19.655298,59.3471256 L19.655298,56.0221972 L19.5551776,56.0221972 Z" id="Fill-1" fill="#7A7C7F" mask="url(#mask-2)"></path>
                        <path d="M38.8389981,49.3750376 C39.0358633,50.3669772 39.3738703,51.2602904 39.8530189,52.0492932 C40.3303179,52.8420885 40.9654724,53.4717719 41.7547746,53.9421385 C42.5459348,54.4144009 43.5339518,54.6495846 44.7206922,54.6495846 C45.9074325,54.6495846 46.9028816,54.4144009 47.7107555,53.9421385 C48.5167714,53.4717719 49.1593495,52.8420885 49.6385065,52.0492932 C50.1157971,51.2602904 50.4538041,50.3669772 50.6506693,49.3750376 C50.8493842,48.3830895 50.9478168,47.3645936 50.9478168,46.3214476 C50.9478168,45.278293 50.8493842,44.2522158 50.6506693,43.2432074 C50.4538041,42.2341905 50.1157971,41.3427748 49.6385065,40.5670458 C49.1593495,39.7932228 48.5167714,39.1635317 47.7107555,38.6742031 C46.9028816,38.1886609 45.9074325,37.9439966 44.7206922,37.9439966 C43.5339518,37.9439966 42.5459348,38.1886609 41.7547746,38.6742031 C40.9654724,39.1635317 40.3303179,39.7932228 39.8530189,40.5670458 C39.3738703,41.3427748 39.0358633,42.2341905 38.8389981,43.2432074 C38.6421412,44.2522158 38.5418506,45.278293 38.5418506,46.3214476 C38.5418506,47.3645936 38.6421412,48.3830895 38.8389981,49.3750376 M32.4632997,40.6429109 C33.0891724,38.9454236 33.9787569,37.496387 35.1320698,36.3034081 C36.2853743,35.1085232 37.6689799,34.1829613 39.2847277,33.5267311 C40.8986175,32.8704923 42.7093642,32.5423729 44.7206922,32.5423729 C46.7301621,32.5423729 48.5501988,32.8704923 50.1808024,33.5267311 C51.8114059,34.1829613 53.2042931,35.1085232 54.3575976,36.3034081 C55.5109105,37.496387 56.4005034,38.9454236 57.0263677,40.6429109 C57.6522405,42.3423043 57.9661017,44.235147 57.9661017,46.3214476 C57.9661017,48.4077482 57.6522405,50.2930095 57.0263677,51.9753247 C56.4005034,53.6576424 55.5109105,55.0952942 54.3575976,56.2901765 C53.2042931,57.4831613 51.8114059,58.4011341 50.1808024,59.0403016 C48.5501988,59.6794682 46.7301621,60 44.7206922,60 C42.7093642,60 40.8986175,59.6794682 39.2847277,59.0403016 C37.6689799,58.4011341 36.2853743,57.4831613 35.1320698,56.2901765 C33.9787569,55.0952942 33.0891724,53.6576424 32.4632997,51.9753247 C31.8374269,50.2930095 31.5254237,48.4077482 31.5254237,46.3214476 C31.5254237,44.235147 31.8374269,42.3423043 32.4632997,40.6429109" id="Fill-3" fill="#7A7C7F" mask="url(#mask-2)"></path>
                        <polygon id="Fill-4" fill="#7A7C7F" mask="url(#mask-2)" points="85.0049042 58.9830508 80.3390046 41.236776 80.2379841 41.236776 75.7741169 58.9830508 68.3178149 58.9830508 60 32.5423729 67.6087818 32.5423729 72.4271613 50.4923642 72.5281818 50.4923642 76.8910371 32.5423729 83.8898908 32.5423729 88.3537753 50.4423914 88.4548131 50.4423914 93.2731321 32.5423729 100.677966 32.5423729 92.4097813 58.9830508"></polygon>
                        <path d="M110.523098,33.2402969 L110.523098,36.825344 L110.674358,36.825344 C111.580206,35.3321969 112.754503,34.2450767 114.195368,33.5640003 C115.638201,32.8847788 117.115018,32.5423729 118.624023,32.5423729 C120.535787,32.5423729 122.105312,32.8005834 123.328746,33.315141 C124.552265,33.8296901 125.518548,34.5444617 126.223829,35.4556864 C126.927311,36.3687914 127.422694,37.482102 127.706381,38.7918827 C127.991952,40.1035353 128.135593,41.5555164 128.135593,43.1497064 L128.135593,58.9830508 L120.989653,58.9830508 L120.989653,44.4445114 C120.989653,42.3207967 120.653063,40.7340945 119.98365,39.6881487 C119.31047,38.6440664 118.121021,38.1201575 116.409738,38.1201575 C114.463903,38.1201575 113.05514,38.6927117 112.183362,39.8378369 C111.31167,40.9829537 110.87484,42.8690324 110.87484,45.4885937 L110.87484,58.9830508 L103.728814,58.9830508 L103.728814,33.2402969 L110.523098,33.2402969 Z" id="Fill-5" fill="#7A7C7F" mask="url(#mask-2)"></path>
                        <path d="M151.456335,43.1558372 C151.25606,42.1661195 150.910411,41.2937311 150.426828,40.5367703 C149.939397,39.7817112 149.312235,39.1704697 148.54158,38.6992592 C147.768958,38.2280572 146.798029,37.9933986 145.624944,37.9933986 C144.451859,37.9933986 143.463827,38.2280572 142.659137,38.6992592 C141.854448,39.1704697 141.210268,39.7911688 140.722923,40.5613738 C140.237458,41.3353652 139.88608,42.2153266 139.668788,43.2050442 C139.4497,44.1966552 139.342038,45.2299002 139.342038,46.3028861 C139.342038,47.3115276 139.457225,48.3182758 139.693416,49.3250327 C139.92764,50.3317809 140.305442,51.2306661 140.824941,52.0197931 C141.342474,52.8089193 141.998026,53.446655 142.785698,53.9329986 C143.571575,54.419343 144.519843,54.663461 145.624944,54.663461 C146.798029,54.663461 147.778365,54.4288049 148.566123,53.9576004 C149.351913,53.4882874 149.980957,52.8581221 150.451371,52.068995 C150.919818,51.2798645 151.25606,50.3828726 151.456335,49.3761244 C151.656524,48.3674829 151.758542,47.3285581 151.758542,46.253679 C151.758542,45.1788085 151.656524,44.1455635 151.456335,43.1558372 L151.456335,43.1558372 Z M151.758542,56.0221972 C150.919818,57.4320277 149.822328,58.4482404 148.465985,59.0689447 C147.107762,59.6896481 145.575773,60 143.866257,60 C141.922432,60 140.21283,59.6234144 138.739418,58.8683507 C137.262244,58.111395 136.049481,57.0895051 135.093602,55.7951107 C134.13969,54.504501 133.418035,53.0189744 132.93257,51.3385292 C132.447106,49.6618747 132.20339,47.9151962 132.20339,46.1022886 C132.20339,44.3575118 132.447106,42.6694979 132.93257,41.0401487 C133.418035,39.4126927 134.13969,37.9782613 135.093602,36.7349611 C136.049481,35.4935542 137.247108,34.4943703 138.688452,33.7393113 C140.127829,32.9842437 141.805277,32.6057675 143.715068,32.6057675 C145.256548,32.6057675 146.722434,32.9331519 148.112726,33.5879208 C149.503103,34.2426811 150.600593,35.2078039 151.407164,36.4832719 L151.507301,36.4832719 L151.507301,23.3898305 L158.644068,23.3898305 L158.644068,59.3471256 L151.85868,59.3471256 L151.85868,56.0221972 L151.758542,56.0221972 Z" id="Fill-6" fill="#414142" mask="url(#mask-2)"></path>
                        <path d="M180.010063,39.3569899 C179.137528,38.4143592 177.814295,37.9439969 176.036528,37.9439969 C174.875125,37.9439969 173.910166,38.1374548 173.141652,38.5243706 C172.373137,38.9112778 171.756774,39.3911275 171.296398,39.9620224 C170.83419,40.5348061 170.508701,41.13983 170.321848,41.779 C170.134994,42.420059 170.023301,42.9909538 169.988598,43.4954537 L181.828287,43.4954537 C181.487365,41.6784761 180.88068,40.2996206 180.010063,39.3569899 M171.783716,53.0848573 C172.875802,54.1299052 174.447533,54.6495841 176.498823,54.6495841 C177.966446,54.6495841 179.231957,54.2892229 180.291259,53.5647071 C181.350647,52.8420879 181.999708,52.0758463 182.238528,51.2678814 L188.64665,51.2678814 C187.621964,54.3973307 186.048402,56.6353643 183.931631,57.9800805 C181.812854,59.3266935 179.249222,60 176.242651,60 C174.156659,60 172.278708,59.6718816 170.604961,59.0156452 C168.929297,58.359408 167.511635,57.4262622 166.350231,56.2143101 C165.188828,55.0042555 164.291269,53.5571206 163.659472,51.8748027 C163.027763,50.1924866 162.711864,48.3413628 162.711864,46.3214484 C162.711864,44.3716981 163.035436,42.5547205 163.684496,40.8705069 C164.333644,39.1900883 165.256227,37.7334702 166.452334,36.5063451 C167.64844,35.2773225 169.073688,34.310033 170.732088,33.6025877 C172.38857,32.89704 174.225977,32.5423729 176.242651,32.5423729 C178.498059,32.5423729 180.462679,32.9710076 182.136513,33.8301918 C183.810259,34.6874699 185.187377,35.8406274 186.264116,37.287758 C187.33885,38.7348973 188.115038,40.3849733 188.594683,42.234191 C189.072324,44.0853063 189.243744,46.0198766 189.107026,48.0379021 L169.988598,48.0379021 C170.092619,50.3593883 170.689713,52.041707 171.783716,53.0848573" id="Fill-7" fill="#414142" mask="url(#mask-2)"></path>
                        <path d="M207.457627,32.3234737 L207.457627,37.1751993 L202.359907,37.1751993 L202.359907,50.2487779 C202.359907,51.4751484 202.556912,52.2927264 202.947422,52.7015155 C203.341517,53.1103045 204.124204,53.3156586 205.301069,53.3156586 C205.69333,53.3156586 206.069,53.2983859 206.428162,53.2638405 C206.787241,53.2292951 207.129812,53.1793961 207.457627,53.1103045 L207.457627,58.7277975 C206.870112,58.8314342 206.214482,58.8986061 205.498075,58.9331517 C204.778,58.9657781 204.076349,58.9830508 203.389372,58.9830508 C202.311968,58.9830508 201.28984,58.9062829 200.326655,58.7527471 C199.361635,58.5992112 198.512668,58.3017352 197.777836,57.86032 C197.043004,57.4169856 196.462825,56.7874881 196.037383,55.9699101 C195.613858,55.1542504 195.402012,54.0795002 195.402012,52.7533336 L195.402012,37.1751993 L191.186441,37.1751993 L191.186441,32.3234737 L195.402012,32.3234737 L195.402012,24.4067797 L202.359907,24.4067797 L202.359907,32.3234737 L207.457627,32.3234737 Z" id="Fill-8" fill="#414142" mask="url(#mask-2)"></path>
                        <path d="M226.789055,39.3569899 C225.918477,38.4143592 224.593383,37.9439969 222.815694,37.9439969 C221.654254,37.9439969 220.689338,38.1374548 219.920857,38.5243706 C219.152376,38.9112778 218.53604,39.3911275 218.075771,39.9620224 C217.615415,40.5348061 217.289939,41.13983 217.103094,41.779 C216.914418,42.420059 216.802642,42.9909538 216.768028,43.4954537 L228.609118,43.4954537 C228.266292,41.6784761 227.659547,40.2996206 226.789055,39.3569899 M218.563068,53.0848573 C219.655106,54.1299052 221.228599,54.6495841 223.277881,54.6495841 C224.747446,54.6495841 226.010896,54.2892229 227.070239,53.5647071 C228.129493,52.8420879 228.778613,52.0758463 229.019341,51.2678814 L235.425265,51.2678814 C234.400624,54.3973307 232.828961,56.6353643 230.710364,57.9800805 C228.591768,59.3266935 226.028247,60 223.021721,60 C220.937825,60 219.058038,59.6718816 217.384365,59.0156452 C215.710604,58.359408 214.291173,57.4262622 213.12982,56.2143101 C211.96838,55.0042555 211.070861,53.5571206 210.439179,51.8748027 C209.80741,50.1924866 209.491525,48.3413628 209.491525,46.3214484 C209.491525,44.3716981 209.815082,42.5547205 210.464202,40.8705069 C211.113234,39.1900883 212.035777,37.7334702 213.231831,36.5063451 C214.427885,35.2773225 215.855076,34.310033 217.513404,33.6025877 C219.169727,32.89704 221.005222,32.5423729 223.021721,32.5423729 C225.277117,32.5423729 227.241651,32.9710076 228.915325,33.8301918 C230.588998,34.6874699 231.966143,35.8406274 233.042748,37.287758 C234.117435,38.7348973 234.893676,40.3849733 235.375131,42.234191 C235.852838,44.0853063 236.022246,46.0198766 235.887452,48.0379021 L216.768028,48.0379021 C216.872044,50.3593883 217.469112,52.041707 218.563068,53.0848573" id="Fill-9" fill="#414142" mask="url(#mask-2)"></path>
                        <path d="M252.093943,37.943997 C250.964403,37.943997 250.016505,38.2057302 249.2522,38.7273075 C248.487979,39.2488848 247.866054,39.920295 247.382777,40.745333 C246.901281,41.570371 246.560383,42.4788556 246.361781,43.4707953 C246.161398,44.464641 246.062097,45.4489907 246.062097,46.4238616 C246.062097,47.3645949 246.161398,48.3242944 246.361781,49.2991653 C246.560383,50.2759337 246.88449,51.159768 247.332151,51.948771 C247.781762,52.7415663 248.388678,53.3883194 249.152983,53.8928254 C249.917204,54.3973313 250.848226,54.6495839 251.944101,54.6495839 C253.639344,54.6495839 254.943149,54.1697341 255.859162,53.2119321 C256.771444,52.2522334 257.344694,50.9644127 257.576962,49.3503803 L264.40678,49.3503803 C263.940378,52.8174315 262.612235,55.4575514 260.418706,57.2745308 C258.225091,59.0915102 255.417098,60 251.994642,60 C250.067131,60 248.296839,59.6718816 246.685888,59.015645 C245.072986,58.3594079 243.703715,57.4433317 242.572224,56.2655197 C241.442684,55.087707 240.562202,53.6822987 239.930949,52.0492932 C239.299695,50.4200826 238.983051,48.6277551 238.983051,46.6761159 C238.983051,44.6580903 239.275358,42.7823163 239.855985,41.0487937 C240.436698,39.3152626 241.292842,37.8188143 242.422382,36.5556541 C243.551922,35.2943914 244.932556,34.3100331 246.560383,33.6025878 C248.190076,32.89704 250.050255,32.5423729 252.144569,32.5423729 C253.673095,32.5423729 255.143617,32.7453096 256.556051,33.1492942 C257.968485,33.5532788 259.230992,34.1677902 260.343742,34.9909307 C261.458357,35.8159687 262.363092,36.842046 263.061847,38.0691711 C263.760516,39.2981938 264.157636,40.7529144 264.256937,42.437128 L257.327819,42.437128 C256.861332,39.4423427 255.119279,37.943997 252.093943,37.943997" id="Fill-10" fill="#414142" mask="url(#mask-2)"></path>
                        <path d="M282.711864,32.3234737 L282.711864,37.1751993 L277.614061,37.1751993 L277.614061,50.2487779 C277.614061,51.4751484 277.81115,52.2927264 278.20341,52.7015155 C278.595671,53.1103045 279.378441,53.3156586 280.555223,53.3156586 C280.947484,53.3156586 281.323237,53.2983859 281.682316,53.2638405 C282.041478,53.2292951 282.38405,53.1793961 282.711864,53.1103045 L282.711864,58.7277975 C282.124349,58.8314342 281.470553,58.8986061 280.752312,58.9331517 C280.032237,58.9657781 279.330503,58.9830508 278.643609,58.9830508 C277.566206,58.9830508 276.544077,58.9062829 275.580892,58.7527471 C274.615872,58.5992112 273.768656,58.3017352 273.03199,57.86032 C272.297158,57.4169856 271.717062,56.7874881 271.29162,55.9699101 C270.868012,55.1542504 270.65625,54.0795002 270.65625,52.7533336 L270.65625,37.1751993 L266.440678,37.1751993 L266.440678,32.3234737 L270.65625,32.3234737 L270.65625,24.4067797 L277.614061,24.4067797 L277.614061,32.3234737 L282.711864,32.3234737 Z" id="Fill-11" fill="#414142" mask="url(#mask-2)"></path>
                        <path d="M293.076298,49.3750376 C293.273113,50.3669772 293.61117,51.2602904 294.088452,52.0492932 C294.567584,52.8420885 295.202754,53.4717719 295.992031,53.9421385 C296.783241,54.4144009 297.771266,54.6495846 298.957955,54.6495846 C300.142879,54.6495846 301.140152,54.4144009 301.946159,53.9421385 C302.754015,53.4717719 303.396668,52.8420885 303.87395,52.0492932 C304.353082,51.2602904 304.691055,50.3669772 304.887954,49.3750376 C305.084768,48.3830895 305.185067,47.3645936 305.185067,46.3214476 C305.185067,45.278293 305.084768,44.2522158 304.887954,43.2432074 C304.691055,42.2341905 304.353082,41.3427748 303.87395,40.5670458 C303.396668,39.7932228 302.754015,39.1635317 301.946159,38.6742031 C301.140152,38.1886609 300.142879,37.9439966 298.957955,37.9439966 C297.771266,37.9439966 296.783241,38.1886609 295.992031,38.6742031 C295.202754,39.1635317 294.567584,39.7932228 294.088452,40.5670458 C293.61117,41.3427748 293.273113,42.2341905 293.076298,43.2432074 C292.8794,44.2522158 292.779101,45.278293 292.779101,46.3214476 C292.779101,47.3645936 292.8794,48.3830895 293.076298,49.3750376 M286.700629,40.6429109 C287.326468,38.9454236 288.216043,37.496387 289.369356,36.3034081 C290.522668,35.1085232 291.906256,34.1829613 293.521969,33.5267311 C295.134067,32.8704923 296.946679,32.5423729 298.957955,32.5423729 C300.967466,32.5423729 302.787476,32.8704923 304.41807,33.5267311 C306.048664,34.1829613 307.439735,35.1085232 308.594896,36.3034081 C309.748209,37.496387 310.637784,38.9454236 311.263623,40.6429109 C311.889546,42.3423043 312.20339,44.235147 312.20339,46.3214476 C312.20339,48.4077482 311.889546,50.2930095 311.263623,51.9753247 C310.637784,53.6576424 309.748209,55.0952942 308.594896,56.2901765 C307.439735,57.4831613 306.048664,58.4011341 304.41807,59.0403016 C302.787476,59.6794682 300.967466,60 298.957955,60 C296.946679,60 295.134067,59.6794682 293.521969,59.0403016 C291.906256,58.4011341 290.522668,57.4831613 289.369356,56.2901765 C288.216043,55.0952942 287.326468,53.6576424 286.700629,51.9753247 C286.074706,50.2930095 285.762712,48.4077482 285.762712,46.3214476 C285.762712,44.235147 286.074706,42.3423043 286.700629,40.6429109" id="Fill-12" fill="#414142" mask="url(#mask-2)"></path>
                        <path d="M323.884059,33.2402969 L323.884059,38.0209865 L323.983229,38.0209865 C324.306342,37.2238915 324.747079,36.4848015 325.301616,35.8055886 C325.854324,35.1245036 326.48966,34.5444617 327.207707,34.0617103 C327.923842,33.5808393 328.689521,33.2084822 329.504826,32.9409119 C330.318302,32.6770855 331.164862,32.5423729 332.044424,32.5423729 C332.50162,32.5423729 333.004785,32.6265683 333.559322,32.7930956 L333.559322,39.3644453 C333.234297,39.2989525 332.843187,39.2409474 332.385991,39.1904302 C331.930541,39.1399129 331.491716,39.1155861 331.067521,39.1155861 C329.796849,39.1155861 328.722605,39.3326306 327.843043,39.7629928 C326.963481,40.1952185 326.254662,40.7846202 325.716667,41.5311895 C325.180417,42.2777672 324.796622,43.1497064 324.568939,44.1451349 C324.341255,45.1405635 324.227372,46.2201959 324.227372,47.3821602 L324.227372,58.9830508 L317.288136,58.9830508 L317.288136,33.2402969 L323.884059,33.2402969 Z" id="Fill-13" fill="#414142" mask="url(#mask-2)"></path>
                        <polygon id="Fill-14" fill="#7A7C7F" mask="url(#mask-2)" points="332.542373 58.9830508 340.677966 58.9830508 340.677966 50.8474576 332.542373 50.8474576"></polygon>
                        <path d="M358.873519,37.943997 C357.742114,37.943997 356.796166,38.2057302 356.031861,38.7273075 C355.267555,39.2488848 354.643764,39.920295 354.162353,40.745333 C353.680942,41.570371 353.339959,42.4788556 353.141442,43.4707953 C352.940974,44.464641 352.841673,45.4489907 352.841673,46.4238616 C352.841673,47.3645949 352.940974,48.3242944 353.141442,49.2991653 C353.339959,50.2759337 353.664066,51.159768 354.111727,51.948771 C354.561338,52.7415663 355.166389,53.3883194 355.93256,53.8928254 C356.696865,54.3973313 357.627888,54.6495839 358.723677,54.6495839 C360.419005,54.6495839 361.72281,54.1697341 362.636957,53.2119321 C363.55102,52.2522334 364.12427,50.9644127 364.356538,49.3503803 L371.186441,49.3503803 C370.72182,52.8174315 369.391812,55.4575514 367.198282,57.2745308 C365.004667,59.0915102 362.196674,60 358.774303,60 C356.846707,60 355.0765,59.6718816 353.465464,59.015645 C351.852647,58.3594079 350.483291,57.4433317 349.351885,56.2655197 C348.22226,55.087707 347.341863,53.6822987 346.710525,52.0492932 C346.079271,50.4200826 345.762712,48.6277551 345.762712,46.6761159 C345.762712,44.6580903 346.054934,42.7823163 346.635646,41.0487937 C347.216359,39.3152626 348.072418,37.8188143 349.201958,36.5556541 C350.331583,35.2943914 351.712133,34.3100331 353.339959,33.6025878 C354.967871,32.89704 356.829832,32.5423729 358.924145,32.5423729 C360.452671,32.5423729 361.921328,32.7453096 363.335627,33.1492942 C364.748061,33.5532788 366.010653,34.1677902 367.123318,34.9909307 C368.237934,35.8159687 369.142668,36.842046 369.839557,38.0691711 C370.538312,39.2981938 370.937297,40.7529144 371.036599,42.437128 L364.107395,42.437128 C363.640993,39.4423427 361.89699,37.943997 358.873519,37.943997" id="Fill-15" fill="#7A7C7F" mask="url(#mask-2)"></path>
                        <path d="M381.550875,49.3750376 C381.747689,50.3669772 382.085746,51.2602904 382.563028,52.0492932 C383.04031,52.8420885 383.675481,53.4717719 384.466607,53.9421385 C385.257733,54.4144009 386.245758,54.6495846 387.432531,54.6495846 C388.617371,54.6495846 389.614728,54.4144009 390.420735,53.9421385 C391.228591,53.4717719 391.871161,52.8420885 392.348527,52.0492932 C392.827658,51.2602904 393.165631,50.3669772 393.36253,49.3750376 C393.559345,48.3830895 393.659644,47.3645936 393.659644,46.3214476 C393.659644,45.278293 393.559345,44.2522158 393.36253,43.2432074 C393.165631,42.2341905 392.827658,41.3427748 392.348527,40.5670458 C391.871161,39.7932228 391.228591,39.1635317 390.420735,38.6742031 C389.614728,38.1886609 388.617371,37.9439966 387.432531,37.9439966 C386.245758,37.9439966 385.257733,38.1886609 384.466607,38.6742031 C383.675481,39.1635317 383.04031,39.7932228 382.563028,40.5670458 C382.085746,41.3427748 381.747689,42.2341905 381.550875,43.2432074 C381.353976,44.2522158 381.253677,45.278293 381.253677,46.3214476 C381.253677,47.3645936 381.353976,48.3830895 381.550875,49.3750376 M375.175121,40.6429109 C375.801044,38.9454236 376.69062,37.496387 377.843932,36.3034081 C378.997244,35.1085232 380.380832,34.1829613 381.996545,33.5267311 C383.608559,32.8704923 385.421171,32.5423729 387.432531,32.5423729 C389.441958,32.5423729 391.262052,32.8704923 392.892646,33.5267311 C394.523241,34.1829613 395.914311,35.1085232 397.069473,36.3034081 C398.222785,37.496387 399.11236,38.9454236 399.738199,40.6429109 C400.364038,42.3423043 400.677966,44.235147 400.677966,46.3214476 C400.677966,48.4077482 400.364038,50.2930095 399.738199,51.9753247 C399.11236,53.6576424 398.222785,55.0952942 397.069473,56.2901765 C395.914311,57.4831613 394.523241,58.4011341 392.892646,59.0403016 C391.262052,59.6794682 389.441958,60 387.432531,60 C385.421171,60 383.608559,59.6794682 381.996545,59.0403016 C380.380832,58.4011341 378.997244,57.4831613 377.843932,56.2901765 C376.69062,55.0952942 375.801044,53.6576424 375.175121,51.9753247 C374.549283,50.2930095 374.237288,48.4077482 374.237288,46.3214476 C374.237288,44.235147 374.549283,42.3423043 375.175121,40.6429109" id="Fill-16" fill="#7A7C7F" mask="url(#mask-2)"></path>
                        <path d="M412.490139,33.2402969 L412.490139,36.726173 L412.590146,36.726173 C413.525903,35.3995533 414.655867,34.3704465 415.978413,33.6388444 C417.300874,32.9091057 418.815747,32.5423729 420.521239,32.5423729 C422.160629,32.5423729 423.658507,32.8585885 425.014959,33.4891477 C426.369531,34.1215873 427.399573,35.231154 428.103291,36.825344 C428.873026,35.6970663 429.918099,34.7016293 431.240645,33.8371779 C432.563106,32.9745985 434.127,32.5423729 435.934378,32.5423729 C437.30586,32.5423729 438.5793,32.7089002 439.750854,33.0419549 C440.920529,33.373146 441.926061,33.9045427 442.761812,34.6342729 C443.599442,35.3658751 444.250296,36.3201462 444.720011,37.4970692 C445.189811,38.6758726 445.423729,40.0960475 445.423729,41.7557219 L445.423729,58.9830508 L438.294396,58.9830508 L438.294396,44.3939942 C438.294396,43.5314063 438.260491,42.7174722 438.194475,41.9540639 C438.126495,41.192519 437.943562,40.5282731 437.641663,39.9631983 C437.33985,39.3981235 436.896525,38.9509307 436.309808,38.6178675 C435.72497,38.2866848 434.930725,38.1201575 433.925194,38.1201575 C432.92342,38.1201575 432.110301,38.3110032 431.491558,38.6927117 C430.87273,39.0744201 430.387899,39.5721386 430.035101,40.1858587 C429.684181,40.8014593 429.450263,41.4993833 429.333346,42.2777672 C429.214466,43.0580147 429.155965,43.8457584 429.155965,44.6428534 L429.155965,58.9830508 L422.028597,58.9830508 L422.028597,44.5436824 C422.028597,43.7802656 422.011602,43.0243365 421.977611,42.2777672 C421.943706,41.5311895 421.802194,40.8426252 421.551281,40.2120576 C421.300368,39.5814899 420.881553,39.0744201 420.296715,38.6927117 C419.709999,38.3110032 418.847858,38.1201575 417.712088,38.1201575 C417.376284,38.1201575 416.932959,38.1950016 416.380233,38.3446899 C415.827421,38.4943781 415.29169,38.7750436 414.772868,39.1904302 C414.254047,39.6058168 413.810721,40.2045698 413.442892,40.9829537 C413.074977,41.7632097 412.89008,42.784837 412.89008,44.0459639 L412.89008,58.9830508 L405.762712,58.9830508 L405.762712,33.2402969 L412.490139,33.2402969 Z" id="Fill-17" fill="#7A7C7F" mask="url(#mask-2)"></path>
                        <path d="M476.905224,11.3271885 C476.846878,12.4307754 476.79986,13.5343537 476.747136,14.6379406 L476.743388,14.6379406 C476.592881,17.4605294 476.442373,20.2831182 476.29374,23.105707 C476.265461,23.6546457 476.224065,23.7382247 475.686004,23.8161028 C474.203333,24.0288424 472.716829,24.0269421 471.234158,23.8085016 C470.760064,23.740125 470.669691,23.6413522 470.635876,23.1247015 C470.570035,22.095192 470.54363,21.0618906 470.489117,20.0304895 C470.248237,15.5249874 470.005569,11.021377 469.759067,6.51777522 C469.708217,5.61933522 469.785387,5.51486146 470.66407,5.43319135 C472.547497,5.2584407 474.429051,5.26223271 476.31069,5.43508306 C476.453617,5.45028549 476.598502,5.46167872 476.735892,5.49776731 C477.100875,5.58893895 477.208197,5.727601 477.187499,6.11699149 C477.099001,7.85308752 476.997385,9.58919215 476.905224,11.3271885 M476.510089,31.6285564 C476.449869,32.0806226 476.31069,32.2306779 475.855335,32.2857609 C474.389614,32.4453177 472.348099,32.4396168 471.226662,32.2857609 C470.771307,32.2306779 470.632128,32.0806226 470.571909,31.6285564 C470.374299,30.1374793 470.261439,28.6426102 470.474041,27.1401485 C470.539882,26.6823728 470.609557,26.6139963 471.091231,26.5304172 C472.481656,26.2929909 473.902233,26.2853897 475.300239,26.4582401 C475.721693,26.5057305 475.990766,26.5304172 475.990766,26.5304172 C476.472441,26.6139963 476.543989,26.6823728 476.607957,27.1401485 C476.822432,28.6426102 476.707699,30.1374793 476.510089,31.6285564 M493.112991,17.5972912 C493.024577,16.4253277 492.742302,15.2837519 492.41122,14.1516776 C492.008504,12.7764761 491.459114,11.4715514 490.777956,10.2141086 C489.876701,8.5501898 488.747769,7.06481361 487.419438,5.7257007 C485.831318,4.12446611 484.028808,2.82903441 482.004243,1.85271632 C480.869689,1.30756963 479.699361,0.870697317 478.476308,0.557293216 C477.415091,0.287570329 476.348253,0.0653292629 475.253221,0.00644561284 C474.987896,-0.00874822618 471.785506,0.00644561284 471.480659,0.0159471364 C469.962299,0.0767310912 468.500326,0.45662006 467.06842,0.923880052 C465.514285,1.43103785 464.050353,2.16232841 462.675004,3.05696779 C460.927008,4.19284269 459.395445,5.57944602 458.076398,7.19398274 C456.768765,8.79521732 455.726373,10.5617096 454.983121,12.5029526 C454.473253,13.8363732 454.11764,15.2058738 453.857936,16.6171725 C453.506071,18.5299194 453.47413,20.4521679 453.714924,22.3516214 C454.206053,26.1980187 455.630379,29.67402 458.134745,32.656157 C458.441466,33.0208521 458.614545,33.3988408 458.52051,33.892705 C458.34922,34.8177407 458.204334,35.744668 458.050079,36.6735043 C457.971035,37.1540664 457.901445,37.6384292 457.822401,38.1189913 C457.604179,39.4562039 457.380249,40.7934165 457.165774,42.1306291 C457.139369,42.3015878 457.162026,42.4782301 457.162026,42.7118644 C457.361425,42.6548811 457.500689,42.6339863 457.623003,42.5751027 C460.307943,41.2872722 462.991095,39.9994503 465.670414,38.700218 C465.931992,38.5729578 466.176534,38.5387695 466.445608,38.639434 C467.807839,39.1560847 469.211551,39.478999 470.650953,39.7202259 C472.122295,39.969054 473.58989,39.9671537 475.049989,39.8607882 C476.291866,39.7715083 477.528036,39.534082 478.743508,39.186481 C480.692777,38.6318414 482.514196,37.8188721 484.207594,36.7114932 C485.874673,35.6212084 487.344142,34.3105829 488.625455,32.772024 C489.908728,31.233465 490.93417,29.5410502 491.699909,27.6985801 C492.085674,26.7697525 492.339671,25.7839328 492.623821,24.8171163 C493.318096,22.4484939 493.291777,20.0228883 493.112991,17.5972912" id="Fill-18" fill="#BF011F" mask="url(#mask-2)"></path>
                    </g>
                    <g id="Group-25" transform="translate(0.000000, 88.000000)">
                        <rect id="Rectangle" fill="#BF1E2E" x="0" y="0" width="34" height="34"></rect>
                        <rect id="Rectangle-Copy-12" stroke="#616F77" fill="#E3E3E3" x="270.5" y="0.5" width="33" height="33"></rect>
                        <rect id="Rectangle-Copy-13" stroke="#616F77" fill="#F5F5F5" x="315.5" y="0.5" width="33" height="33"></rect>
                        <rect id="Rectangle-Copy-6" fill="#F0AD4E" x="45" y="0" width="34" height="34"></rect>
                        <rect id="Rectangle-Copy-16" fill="#5DB85D" x="90" y="0" width="34" height="34"></rect>
                        <rect id="Rectangle-Copy-10" fill="#333333" x="225" y="0" width="34" height="34"></rect>
                        <rect id="Rectangle-Copy-7" fill="#2677B5" x="135" y="0" width="34" height="34"></rect>
                        <rect id="Rectangle-Copy-11" fill="#171717" x="180" y="0" width="34" height="34"></rect>
                    </g>
                    <text id="Helvetica-Neue" font-family="HelveticaNeue-Bold, Helvetica Neue" font-size="48" font-weight="bold" letter-spacing="0.004" fill="#5E5E5E">
                        <tspan x="0" y="186">Helvetica Neue</tspan>
                    </text>
                </g>
                <g id="Group-16" transform="translate(0.000000, 232.000000)">
                    <rect id="Rectangle" fill="#BF1E2E" x="0" y="0" width="437" height="34" rx="3"></rect>
                    <text id="Problems-at-Company" font-family="HelveticaNeue, Helvetica Neue" font-size="14" font-weight="normal" letter-spacing="0.00116666667" fill="#FFFFFF">
                        <tspan x="18" y="22">Problems at Company</tspan>
                    </text>
                </g>
                <g id="Group-29" transform="translate(0.000000, 278.000000)">
                    <rect id="Rectangle-Copy-14" fill="#F0AD4E" x="0" y="0" width="437" height="34" rx="3"></rect>
                    <text id="Possible-Problems-at" font-family="HelveticaNeue, Helvetica Neue" font-size="14" font-weight="normal" letter-spacing="0.00116666667" fill="#FFFFFF">
                        <tspan x="18" y="22">Possible Problems at Company</tspan>
                    </text>
                </g>
                <g id="Group-30" transform="translate(0.000000, 324.000000)">
                    <rect id="Rectangle-Copy-15" fill="#5DB85D" x="0" y="0" width="437" height="34" rx="3"></rect>
                    <text id="No-Problems-at-Compa" font-family="HelveticaNeue, Helvetica Neue" font-size="14" font-weight="normal" letter-spacing="0.00116666667" fill="#FFFFFF">
                        <tspan x="18" y="22">No Problems at Company</tspan>
                    </text>
                </g>
            </g>
        </g>
    </g>
</svg>