<svg id="Layer_1" data-name="Layer 1" xmlns="http://www.w3.org/2000/svg" viewBox="0 0 277 325"><defs><style>.cls-1,.cls-17{fill:#9e93f4;}.cls-1,.cls-2,.cls-3{fill-rule:evenodd;}.cls-13,.cls-2{fill:#76cb96;}.cls-10,.cls-3,.cls-5,.cls-6{fill:#5691b6;}.cls-19,.cls-4,.cls-5,.cls-6,.cls-8{isolation:isolate;}.cls-5{font-size:35.36px;}.cls-5,.cls-6{font-family:Quicksand-Bold, Quicksand;font-weight:700;}.cls-6{font-size:17.68px;}.cls-7{letter-spacing:-0.01em;}.cls-8{font-size:13.75px;}.cls-19,.cls-8{fill:#5e5e5e;font-family:Quicksand-Medium, Quicksand;font-weight:500;}.cls-9{letter-spacing:-0.01em;}.cls-11{letter-spacing:0.01em;}.cls-12{letter-spacing:-0.01em;}.cls-14{letter-spacing:-0.1em;}.cls-15{letter-spacing:-0.01em;}.cls-16{letter-spacing:0em;}.cls-18{opacity:0;}.cls-19{font-size:14px;}.cls-20{letter-spacing:-0.02em;}.cls-21{letter-spacing:-0.01em;}.cls-22{fill:#9465dc;}</style></defs><g id="Group-6"><g id="pie-chart"><path id="Fill-1" class="cls-1" d="M137.35,32.26V1.19a128.52,128.52,0,0,0-16.86,1.18l4.3,30.77Z"/><path id="Fill-3" class="cls-2" d="M47.1,123A90.66,90.66,0,0,0,62.51,173.7L36.9,191.07C-.52,135.31,14.12,59.62,69.6,22A114,114,0,0,1,120.49,2.37l4.3,30.77A90.56,90.56,0,0,0,47.1,123"/><path id="Fill-5" class="cls-3" d="M137.65,244.75c-41.89,0-77-18.77-100.46-53.68L62.81,173.7a90,90,0,0,0,74.84,40c49.85,0,90.25-40.61,90.25-90.72s-40.4-90.71-90.25-90.71V1.19c66.91,0,121.16,54.53,121.16,121.78S204.56,244.75,137.65,244.75Z"/></g><g id="_65.7_" data-name="65.7%" class="cls-4"><text class="cls-5" transform="translate(89.63 124.94)">65.7%</text></g><g id="Mobile" class="cls-4"><text class="cls-6" transform="translate(104.28 151.45)">Mobi<tspan class="cls-7" x="40.52" y="0">l</tspan><tspan x="45.11" y="0">e</tspan></text></g></g><g id="Group-7"><g id="legend-item"><g id="Organic-Search" class="cls-4"><text class="cls-8" transform="translate(32.19 282.07)">Mobi<tspan class="cls-9" x="31.02" y="0">l</tspan><tspan x="34.22" y="0">e</tspan></text></g><rect id="Rectangle" class="cls-10" x="5.67" y="266.36" width="19.64" height="19.64" rx="1.96"/></g><g id="legend-item-2" data-name="legend-item"><g id="Organic-Search-2" data-name="Organic-Search" class="cls-4"><text class="cls-8" transform="translate(124.51 282.07)"><tspan class="cls-11">D</tspan><tspan x="9.98" y="0">esk</tspan><tspan class="cls-12" x="31.77" y="0">t</tspan><tspan x="36.7" y="0">op</tspan></text></g><rect id="Rectangle-2" data-name="Rectangle" class="cls-13" x="97.99" y="266.36" width="19.64" height="19.64" rx="1.96"/></g><g id="legend-item-3" data-name="legend-item"><g id="Organic-Search-3" data-name="Organic-Search" class="cls-4"><text class="cls-8" transform="translate(229.59 282.07)"><tspan class="cls-14">T</tspan><tspan x="7.03" y="0">ab</tspan><tspan class="cls-15" x="23.77" y="0">l</tspan><tspan class="cls-16" x="26.98" y="0">et</tspan></text></g><rect id="Rectangle-3" data-name="Rectangle" class="cls-17" x="203.07" y="266.36" width="19.64" height="19.64" rx="1.96"/></g></g><g id="legend-item-4" data-name="legend-item" class="cls-18"><g id="Organic-Search-4" data-name="Organic-Search" class="cls-4"><text class="cls-19" transform="translate(32.32 319)">P<tspan class="cls-20" x="8.39" y="0">r</tspan><tspan x="13.69" y="0">ob</tspan><tspan class="cls-21" x="30.65" y="0">l</tspan><tspan x="33.91" y="0">ems</tspan></text></g><rect id="Rectangle-4" data-name="Rectangle" class="cls-22" x="5.32" y="303" width="20" height="20" rx="2"/></g></svg>