<svg xmlns="http://www.w3.org/2000/svg" xmlns:xlink="http://www.w3.org/1999/xlink" xmlns:lucid="lucid" width="1168.45" height="1555.25"><g transform="translate(0 0)" lucid:page-tab-id="0_0"><g filter="url(#a)"><path d="M494.8 138.64c0-4.4 3.57-8 8-8H675.5c4.4 0 8 3.6 8 8v88.85c0 4.4-3.6 8-8 8H502.8c-4.43 0-8-3.6-8-8z" stroke="#000" stroke-opacity="0" stroke-width="4" fill="#495156"/><use xlink:href="#b" transform="matrix(1,0,0,1,509.7863527283781,145.64499999995326) translate(55.48765432098766 27.15277777777778)"/><use xlink:href="#c" transform="matrix(1,0,0,1,509.7863527283781,145.64499999995326) translate(25.240740740740733 56.486111111111114)"/></g><g filter="url(#d)"><path d="M580.43 275.97c3.48-2.72 9.12-2.72 12.6 0l97.8 76.54c3.48 2.73 3.48 7.15 0 9.87l-97.8 76.54c-3.48 2.73-9.12 2.73-12.6 0l-97.8-76.53c-3.48-2.72-3.48-7.14 0-9.86z" stroke="#000" stroke-opacity="0" stroke-width="4" fill="#d7e4f3"/><use xlink:href="#e" transform="matrix(1,0,0,1,491.32635272837786,286.03999999997654) translate(9.968444444444438 74.00752777777778)"/><use xlink:href="#f" transform="matrix(1,0,0,1,491.32635272837786,286.03999999997654) translate(30.965790123456784 74.00752777777778)"/><use xlink:href="#g" transform="matrix(1,0,0,1,491.32635272837786,286.03999999997654) translate(81.74621296296296 74.00752777777778)"/><use xlink:href="#h" transform="matrix(1,0,0,1,491.32635272837786,286.03999999997654) translate(98.32306481481481 74.00752777777778)"/></g><path d="M589.15 236v18.83c0 .03-.02.05-.04.05s-.03 0-.03.04v2.95" stroke="#999" fill="none"/><path d="M589.65 236h-1v-.5h1z" fill="#999"/><path d="M589.07 272.64l-4.64-14.27h9.27z" stroke="#999" fill="#999"/><g filter="url(#i)"><path d="M242.23 317.44c19.38 0 35.08 17.9 35.08 40s-15.7 40-35.07 40H137c-19.38 0-35.1-17.9-35.1-40s15.72-40 35.1-40z" stroke="#000" stroke-opacity="0" stroke-width="4" fill="#495156"/><use xlink:href="#j" transform="matrix(1,0,0,1,116.91073962628971,332.4399999999765) translate(46.48765432098766 30.27777777777778)"/></g><path d="M367.24 357.94H293.7v-1h73.54zm112.38 0H390.2v-1h89.42zM480.12 357.94h-.5v-1h.5zM293.2 362.08l-14.27-4.64 14.26-4.64z" fill="#999"/><path d="M293.7 362.76l-16.4-5.32 16.4-5.32zm-13.15-5.32l12.14 3.95v-7.9z" fill="#999"/><use xlink:href="#k" transform="matrix(1,0,0,1,367.24230777849374,346.6399999999765) translate(0 14.4)"/><g filter="url(#d)"><path d="M580.43 910.52c3.48-2.73 9.12-2.73 12.6 0l97.8 76.53c3.48 2.73 3.48 7.14 0 9.87l-97.8 76.53c-3.48 2.73-9.12 2.73-12.6 0l-97.8-76.53c-3.48-2.73-3.48-7.14 0-9.87z" stroke="#000" stroke-opacity="0" stroke-width="4" fill="#d7e4f3"/><use xlink:href="#e" transform="matrix(1,0,0,1,491.3263527283781,920.5849999999765) translate(61.853990740740734 33.78877777777778)"/><use xlink:href="#l" transform="matrix(1,0,0,1,491.3263527283781,920.5849999999765) translate(82.85133641975308 33.78877777777778)"/><use xlink:href="#m" transform="matrix(1,0,0,1,491.3263527283781,920.5849999999765) translate(98.26780864197531 33.78877777777778)"/><use xlink:href="#n" transform="matrix(1,0,0,1,491.3263527283781,920.5849999999765) translate(22.677364197530874 60.046511111111116)"/><use xlink:href="#o" transform="matrix(1,0,0,1,491.3263527283781,920.5849999999765) translate(55.77581172839507 60.046511111111116)"/><use xlink:href="#p" transform="matrix(1,0,0,1,491.3263527283781,920.5849999999765) translate(78.92814814814815 60.046511111111116)"/><use xlink:href="#q" transform="matrix(1,0,0,1,491.3263527283781,920.5849999999765) translate(113.13171913580247 60.046511111111116)"/><use xlink:href="#r" transform="matrix(1,0,0,1,491.3263527283781,920.5849999999765) translate(34.88897839506172 86.30424444444445)"/><use xlink:href="#s" transform="matrix(1,0,0,1,491.3263527283781,920.5849999999765) translate(98.93088271604938 86.30424444444445)"/><use xlink:href="#t" transform="matrix(1,0,0,1,491.3263527283781,920.5849999999765) translate(49.17269907407408 112.56197777777778)"/></g><path d="M589.65 493.45h-1v-7.3h1zm-2.42-28.9h-1v-23.2h1z" fill="#999"/><path d="M587.23 441.37h-1v-.5l1-.02zM589.15 508.2l-4.63-14.25h9.27z" fill="#999"/><path d="M589.15 509.83l-5.32-16.38h10.64zm-3.95-15.38l3.95 12.14 3.95-12.15z" fill="#999"/><use xlink:href="#u" transform="matrix(1,0,0,1,573.2638527283779,464.5431249371355) translate(0 14.4)"/><g filter="url(#v)"><path d="M708.88 930.94c0-4.42 3.58-8 8-8H914.2c4.43 0 8 3.58 8 8v122.1c0 4.4-3.57 8-8 8H716.9c-4.42 0-8-3.6-8-8z" stroke="#d7dde0" stroke-width="4" fill="#f8f9fb"/><use xlink:href="#w" transform="matrix(1,0,0,1,723.8761675432003,937.9381249999823) translate(0 17.77777777777778)"/><use xlink:href="#x" transform="matrix(1,0,0,1,723.8761675432003,937.9381249999823) translate(71.41975308641975 17.77777777777778)"/><use xlink:href="#y" transform="matrix(1,0,0,1,723.8761675432003,937.9381249999823) translate(0 47.111111111111114)"/><use xlink:href="#z" transform="matrix(1,0,0,1,723.8761675432003,937.9381249999823) translate(0 76.44444444444446)"/><use xlink:href="#A" transform="matrix(1,0,0,1,723.8761675432003,937.9381249999823) translate(0 105.77777777777777)"/><use xlink:href="#B" transform="matrix(1,0,0,1,723.8761675432003,937.9381249999823) translate(64.07407407407406 105.77777777777777)"/><use xlink:href="#C" transform="matrix(1,0,0,1,723.8761675432003,937.9381249999823) translate(0 135.11111111111111)"/></g><path d="M347.37 992.5h-32.4v-1h32.4zm132.25 0h-48.3v-1h48.3zM480.12 992.5h-.5v-1h.5zM314.46 996.62L300.2 992l14.26-4.65z" fill="#999"/><path d="M314.96 997.3l-16.38-5.3 16.38-5.34zM301.8 992l12.16 3.93v-7.9z" fill="#999"/><use xlink:href="#D" transform="matrix(1,0,0,1,347.3743609600542,981.1849999999765) translate(0 14.4)"/><use xlink:href="#E" transform="matrix(1,0,0,1,347.3743609600542,981.1849999999765) translate(58.95 14.4)"/><g filter="url(#F)"><path d="M238.86 938.8c32.98 0 59.72 23.8 59.72 53.18s-26.74 53.2-59.72 53.2H59.72c-32.98 0-59.72-23.82-59.72-53.2 0-29.37 26.74-53.2 59.72-53.2z" stroke="#000" stroke-opacity="0" stroke-width="4" fill="#495156"/><use xlink:href="#G" transform="matrix(1,0,0,1,14.999999999999972,953.7919333333098) translate(6.034398148148179 15.91377777777778)"/><use xlink:href="#H" transform="matrix(1,0,0,1,14.999999999999972,953.7919333333098) translate(80.96176851851855 15.91377777777778)"/><use xlink:href="#I" transform="matrix(1,0,0,1,14.999999999999972,953.7919333333098) translate(158.15464197530866 15.91377777777778)"/><use xlink:href="#J" transform="matrix(1,0,0,1,14.999999999999972,953.7919333333098) translate(198.9336975308642 15.91377777777778)"/><use xlink:href="#K" transform="matrix(1,0,0,1,14.999999999999972,953.7919333333098) translate(215.51054938271605 15.91377777777778)"/><use xlink:href="#L" transform="matrix(1,0,0,1,14.999999999999972,953.7919333333098) translate(16.47281481481481 42.171511111111116)"/><use xlink:href="#M" transform="matrix(1,0,0,1,14.999999999999972,953.7919333333098) translate(39.625151234567895 42.171511111111116)"/><use xlink:href="#N" transform="matrix(1,0,0,1,14.999999999999972,953.7919333333098) translate(114.66303395061728 42.171511111111116)"/><use xlink:href="#O" transform="matrix(1,0,0,1,14.999999999999972,953.7919333333098) translate(196.2764012345679 42.171511111111116)"/><use xlink:href="#P" transform="matrix(1,0,0,1,14.999999999999972,953.7919333333098) translate(88.69763271604938 68.42924444444445)"/></g><g filter="url(#a)"><path d="M494.8 740.38c0-4.42 3.57-8 8-8H675.5c4.4 0 8 3.58 8 8v88.85c0 4.42-3.6 8-8 8H502.8c-4.43 0-8-3.58-8-8z" stroke="#000" stroke-opacity="0" stroke-width="4" fill="#495156"/><use xlink:href="#Q" transform="matrix(1,0,0,1,509.78635272837835,747.3799999999763) translate(17.246913580246925 27.15277777777778)"/><use xlink:href="#R" transform="matrix(1,0,0,1,509.78635272837835,747.3799999999763) translate(88.72839506172839 27.15277777777778)"/><use xlink:href="#S" transform="matrix(1,0,0,1,509.78635272837835,747.3799999999763) translate(110.88888888888889 27.15277777777778)"/><use xlink:href="#T" transform="matrix(1,0,0,1,509.78635272837835,747.3799999999763) translate(32.06172839506173 56.486111111111114)"/></g><path d="M589.57 892.42h-1l.06-15.37h1zm.08-36.97h-1v-17.72h1z" fill="#999"/><path d="M589.65 837.74h-1v-.5h1zM589.07 907.18l-4.64-14.26h9.27z" fill="#999"/><path d="M589.07 908.8l-5.33-16.38h10.65zm-3.95-15.38l3.95 12.15 3.94-12.15z" fill="#999"/><use xlink:href="#U" transform="matrix(1,0,0,1,522.7763527283782,855.4524495268264) translate(0 14.4)"/><use xlink:href="#V" transform="matrix(1,0,0,1,522.7763527283782,855.4524495268264) translate(44.800000000000004 14.4)"/><use xlink:href="#W" transform="matrix(1,0,0,1,522.7763527283782,855.4524495268264) translate(64.80000000000001 14.4)"/><path d="M587.23 1122.85h-1v-4.73h1zm0-26.33h-1v-20.62h1zM587.23 1075.9h-1v-.5h1zM586.73 1137.62l-4.64-14.27h9.26z" fill="#999"/><path d="M586.73 1139.24l-5.33-16.4h10.65zm-3.95-15.4l3.95 12.16 3.94-12.15z" fill="#999"/><use xlink:href="#X" transform="matrix(1,0,0,1,555.251352728378,1096.5199999999766) translate(0 14.4)"/><use xlink:href="#Y" transform="matrix(1,0,0,1,555.251352728378,1096.5199999999766) translate(38 14.4)"/><g filter="url(#Z)"><path d="M708.88 740.38c0-4.42 3.58-8 8-8h154.95c4.42 0 8 3.58 8 8V805c0 4.43-3.58 8-8 8H716.88c-4.42 0-8-3.57-8-8z" stroke="#d7dde0" stroke-width="4" fill="#f8f9fb"/><use xlink:href="#aa" transform="matrix(1,0,0,1,723.8761675432004,747.3799999999767) translate(0 17.77777777777778)"/><use xlink:href="#ab" transform="matrix(1,0,0,1,723.8761675432004,747.3799999999767) translate(0 47.111111111111114)"/><use xlink:href="#ac" transform="matrix(1,0,0,1,723.8761675432004,747.3799999999767) translate(90.06172839506173 47.111111111111114)"/><use xlink:href="#C" transform="matrix(1,0,0,1,723.8761675432004,747.3799999999767) translate(0 76.44444444444446)"/></g><g filter="url(#ad)"><path d="M711.35 1181.24c0-4.42 3.58-8 8-8h150c4.42 0 8 3.58 8 8v91.37c0 4.43-3.58 8-8 8h-150c-4.42 0-8-3.57-8-8z" stroke="#d7dde0" stroke-width="4" fill="#f8f9fb"/><use xlink:href="#ae" transform="matrix(1,0,0,1,726.3530425432007,1188.2424999999766) translate(0 17.77777777777778)"/><use xlink:href="#af" transform="matrix(1,0,0,1,726.3530425432007,1188.2424999999766) translate(0 47.111111111111114)"/><use xlink:href="#ag" transform="matrix(1,0,0,1,726.3530425432007,1188.2424999999766) translate(0 76.44444444444446)"/><use xlink:href="#C" transform="matrix(1,0,0,1,726.3530425432007,1188.2424999999766) translate(0 105.77777777777777)"/></g><g filter="url(#ah)"><path d="M582.7 511.7c3.57-2.63 9.34-2.63 12.9 0l97.5 71.67c3.57 2.62 3.57 6.86 0 9.48l-97.5 71.68c-3.56 2.62-9.33 2.62-12.9 0l-97.5-71.68c-3.56-2.62-3.56-6.86 0-9.48z" stroke="#000" stroke-opacity="0" stroke-width="4" fill="#d7e4f3"/><use xlink:href="#e" transform="matrix(1,0,0,1,493.7513527283778,521.9524999999762) translate(55.24818364197531 45.00752777777778)"/><use xlink:href="#ai" transform="matrix(1,0,0,1,493.7513527283778,521.9524999999762) translate(76.24552932098766 45.00752777777778)"/><use xlink:href="#aj" transform="matrix(1,0,0,1,493.7513527283778,521.9524999999762) translate(112.65934722222222 45.00752777777778)"/><use xlink:href="#ak" transform="matrix(1,0,0,1,493.7513527283778,521.9524999999762) translate(18.864688271604926 71.26526111111112)"/><use xlink:href="#al" transform="matrix(1,0,0,1,493.7513527283778,521.9524999999762) translate(89.42682098765432 71.26526111111112)"/><use xlink:href="#am" transform="matrix(1,0,0,1,493.7513527283778,521.9524999999762) translate(166.61969444444446 71.26526111111112)"/><use xlink:href="#an" transform="matrix(1,0,0,1,493.7513527283778,521.9524999999762) translate(47.48738580246914 97.52299444444445)"/><use xlink:href="#ao" transform="matrix(1,0,0,1,493.7513527283778,521.9524999999762) translate(85.06158333333335 97.52299444444445)"/></g><path d="M587.23 716h-1v-5.82h1zm2.42-27.42h-1v-21.7h1z" fill="#999"/><path d="M589.65 666.4v.5h-1v-.52zM586.73 730.76l-4.64-14.26h9.26z" fill="#999"/><path d="M586.73 732.38L581.4 716h10.65zM582.78 717l3.95 12.14 3.94-12.14z" fill="#999"/><use xlink:href="#k" transform="matrix(1,0,0,1,576.4638527283779,688.5845033728697) translate(0 14.4)"/><g filter="url(#ap)"><path d="M239.04 532.67c26.93 0 48.77 24.82 48.77 55.44 0 30.63-21.83 55.45-48.76 55.45H92.7c-26.93 0-48.77-24.82-48.77-55.44 0-30.6 21.84-55.43 48.78-55.43z" stroke="#000" stroke-opacity="0" stroke-width="4" fill="#495156"/><use xlink:href="#aq" transform="matrix(1,0,0,1,58.931352728378016,547.6724999999766) translate(11.537037037037038 30.43402777777778)"/><use xlink:href="#ar" transform="matrix(1,0,0,1,58.931352728378016,547.6724999999766) translate(47.21604938271605 30.43402777777778)"/><use xlink:href="#as" transform="matrix(1,0,0,1,58.931352728378016,547.6724999999766) translate(139.62345679012344 30.43402777777778)"/><use xlink:href="#at" transform="matrix(1,0,0,1,58.931352728378016,547.6724999999766) translate(55.82716049382716 59.767361111111114)"/></g><path d="M370.55 588.6H304.2v-1h66.35zm111.6 0H399.9v-1h82.24z" fill="#999"/><path d="M482.6 588.6h-.47v-1h.54zM303.7 592.75l-14.27-4.64 14.27-4.63z" fill="#999"/><path d="M304.2 593.43l-16.4-5.32 16.4-5.3zm-13.15-5.32l12.15 3.96v-7.9z" fill="#999"/><use xlink:href="#u" transform="matrix(1,0,0,1,370.5497070368061,577.3099999999762) translate(0 14.4)"/><g filter="url(#au)"><path d="M722.14 324.76c0-4.42 3.58-8 8-8h141.7c4.4 0 8 3.58 8 8V430.8c0 4.42-3.6 8-8 8h-141.7c-4.42 0-8-3.58-8-8z" stroke="#d7dde0" stroke-width="4" fill="#f8f9fb"/><use xlink:href="#av" transform="matrix(1,0,0,1,737.1361675431936,331.7599999999765) translate(0 17.77777777777778)"/><use xlink:href="#aw" transform="matrix(1,0,0,1,737.1361675431936,331.7599999999765) translate(18.51851851851852 17.77777777777778)"/><use xlink:href="#ax" transform="matrix(1,0,0,1,737.1361675431936,331.7599999999765) translate(0 47.111111111111114)"/><use xlink:href="#ay" transform="matrix(1,0,0,1,737.1361675431936,331.7599999999765) translate(0 76.44444444444446)"/></g><g filter="url(#az)"><path d="M238.86 1164.7c32.98 0 59.72 25.95 59.72 57.95s-26.74 57.96-59.72 57.96H59.72c-32.98 0-59.72-25.94-59.72-57.95 0-32 26.74-57.95 59.72-57.95z" stroke="#000" stroke-opacity="0" stroke-width="4" fill="#495156"/><use xlink:href="#G" transform="matrix(1,0,0,1,14.999999999999972,1179.6974999999768) translate(27.551677469135797 21.28877777777778)"/><use xlink:href="#aA" transform="matrix(1,0,0,1,14.999999999999972,1179.6974999999768) translate(102.47904783950617 21.28877777777778)"/><use xlink:href="#O" transform="matrix(1,0,0,1,14.999999999999972,1179.6974999999768) translate(185.1975385802469 21.28877777777778)"/><use xlink:href="#aB" transform="matrix(1,0,0,1,14.999999999999972,1179.6974999999768) translate(25.81110802469135 47.546511111111116)"/><use xlink:href="#aC" transform="matrix(1,0,0,1,14.999999999999972,1179.6974999999768) translate(131.7371913580247 47.546511111111116)"/><use xlink:href="#O" transform="matrix(1,0,0,1,14.999999999999972,1179.6974999999768) translate(186.93810802469136 47.546511111111116)"/><use xlink:href="#P" transform="matrix(1,0,0,1,14.999999999999972,1179.6974999999768) translate(88.69263271604939 73.80424444444445)"/></g><g filter="url(#d)"><path d="M580.43 1141.2c3.48-2.74 9.12-2.74 12.6 0l97.8 76.52c3.48 2.73 3.48 7.14 0 9.87l-97.8 76.52c-3.48 2.73-9.12 2.73-12.6 0l-97.8-76.53c-3.48-2.74-3.48-7.15 0-9.88z" stroke="#000" stroke-opacity="0" stroke-width="4" fill="#d7e4f3"/><use xlink:href="#aD" transform="matrix(1,0,0,1,491.32635272837786,1151.2549999999762) translate(43.69964351851852 47.19502777777778)"/><use xlink:href="#aE" transform="matrix(1,0,0,1,491.32635272837786,1151.2549999999762) translate(85.6390787037037 47.19502777777778)"/><use xlink:href="#aF" transform="matrix(1,0,0,1,491.32635272837786,1151.2549999999762) translate(96.69031327160494 47.19502777777778)"/><use xlink:href="#aG" transform="matrix(1,0,0,1,491.32635272837786,1151.2549999999762) translate(2.785141975308642 73.45276111111112)"/><use xlink:href="#aH" transform="matrix(1,0,0,1,491.32635272837786,1151.2549999999762) translate(35.938845679012346 73.45276111111112)"/><use xlink:href="#aI" transform="matrix(1,0,0,1,491.32635272837786,1151.2549999999762) translate(83.40389814814814 73.45276111111112)"/><use xlink:href="#aJ" transform="matrix(1,0,0,1,491.32635272837786,1151.2549999999762) translate(116.55760185185186 73.45276111111112)"/><use xlink:href="#aK" transform="matrix(1,0,0,1,491.32635272837786,1151.2549999999762) translate(82.82370833333334 99.71049444444445)"/></g><path d="M374.67 1223.15h-59.7v-1h59.7zm104.95 0h-75.6v-1h75.6zM480.12 1223.15h-.5v-1h.5zM314.46 1227.3l-14.27-4.64 14.26-4.64z" fill="#999"/><path d="M314.96 1227.98l-16.38-5.33 16.38-5.32zm-13.15-5.33l12.16 3.95v-7.9z" fill="#999"/><use xlink:href="#u" transform="matrix(1,0,0,1,374.6743609653489,1211.8549999999764) translate(0 14.4)"/><path d="M587.23 1353.52h-1v-4.73h1zm0-26.33h-1v-20.63h1z" fill="#999"/><path d="M587.23 1306.58h-1v-.5h1zM586.73 1368.3L582.1 1354h9.26z" fill="#999"/><path d="M586.73 1369.9l-5.33-16.38h10.65zm-3.95-15.38l3.95 12.15 3.94-12.15z" fill="#999"/><use xlink:href="#k" transform="matrix(1,0,0,1,575.2513527283778,1327.1899999999764) translate(0 14.4)"/><g filter="url(#d)"><path d="M580.43 1371.86c3.48-2.73 9.12-2.73 12.6 0l97.8 76.53c3.48 2.72 3.48 7.13 0 9.86l-97.8 76.53c-3.48 2.72-9.12 2.72-12.6 0l-97.8-76.54c-3.48-2.73-3.48-7.14 0-9.87z" stroke="#000" stroke-opacity="0" stroke-width="4" fill="#d7e4f3"/><use xlink:href="#e" transform="matrix(1,0,0,1,491.3263527283781,1381.9249999999765) translate(37.04396913580247 60.60127777777778)"/><use xlink:href="#f" transform="matrix(1,0,0,1,491.3263527283781,1381.9249999999765) translate(58.04131481481481 60.60127777777778)"/><use xlink:href="#aL" transform="matrix(1,0,0,1,491.3263527283781,1381.9249999999765) translate(108.82173765432098 60.60127777777778)"/><use xlink:href="#aM" transform="matrix(1,0,0,1,491.3263527283781,1381.9249999999765) translate(142.9147962962963 60.60127777777778)"/><use xlink:href="#h" transform="matrix(1,0,0,1,491.3263527283781,1381.9249999999765) translate(54.14575462962963 86.85901111111112)"/></g><g filter="url(#F)"><path d="M238.86 1400.13c32.98 0 59.72 23.82 59.72 53.2 0 29.37-26.74 53.2-59.72 53.2H59.72c-32.98 0-59.72-23.83-59.72-53.2 0-29.38 26.74-53.2 59.72-53.2z" stroke="#000" stroke-opacity="0" stroke-width="4" fill="#495156"/><use xlink:href="#aN" transform="matrix(1,0,0,1,14.999999999999972,1415.13193333331) translate(26.921231481481477 15.91377777777778)"/><use xlink:href="#aO" transform="matrix(1,0,0,1,14.999999999999972,1415.13193333331) translate(111.90522530864197 15.91377777777778)"/><use xlink:href="#aP" transform="matrix(1,0,0,1,14.999999999999972,1415.13193333331) translate(134.00769444444444 15.91377777777778)"/><use xlink:href="#aQ" transform="matrix(1,0,0,1,14.999999999999972,1415.13193333331) translate(210.09544444444444 15.91377777777778)"/><use xlink:href="#aR" transform="matrix(1,0,0,1,14.999999999999972,1415.13193333331) translate(4.0954320987654285 42.171511111111116)"/><use xlink:href="#aS" transform="matrix(1,0,0,1,14.999999999999972,1415.13193333331) translate(90.29506172839505 42.171511111111116)"/><use xlink:href="#aT" transform="matrix(1,0,0,1,14.999999999999972,1415.13193333331) translate(128.97438271604938 42.171511111111116)"/><use xlink:href="#aU" transform="matrix(1,0,0,1,14.999999999999972,1415.13193333331) translate(210.75351851851852 42.171511111111116)"/><use xlink:href="#aV" transform="matrix(1,0,0,1,14.999999999999972,1415.13193333331) translate(237.27648148148148 42.171511111111116)"/><use xlink:href="#aW" transform="matrix(1,0,0,1,14.999999999999972,1415.13193333331) translate(77.12146450617284 68.42924444444445)"/><use xlink:href="#aX" transform="matrix(1,0,0,1,14.999999999999972,1415.13193333331) translate(124.58651697530864 68.42924444444445)"/></g><path d="M377.87 1453.83h-62.9v-1h62.9zm101.75 0h-78.8v-1h78.8zM480.12 1453.83h-.5v-1h.5zM314.46 1457.96l-14.27-4.63 14.26-4.64z" fill="#999"/><path d="M314.96 1458.65l-16.38-5.33 16.38-5.32zm-13.15-5.33l12.16 3.95v-7.9z" fill="#999"/><use xlink:href="#k" transform="matrix(1,0,0,1,377.8743609600542,1442.5249999999767) translate(0 14.4)"/><g filter="url(#aY)"><path d="M885.64 1381.87c0-4.4 3.58-8 8-8h211.76c4.42 0 8 3.6 8 8v142.9c0 4.42-3.58 8-8 8H893.64c-4.42 0-8-3.58-8-8z" stroke="#000" stroke-opacity="0" stroke-width="4" fill="#495156"/><use xlink:href="#aN" transform="matrix(1,0,0,1,900.6413527283777,1388.8741999999766) translate(10.175702160493842 15.91377777777778)"/><use xlink:href="#aO" transform="matrix(1,0,0,1,900.6413527283777,1388.8741999999766) translate(95.15969598765433 15.91377777777778)"/><use xlink:href="#aZ" transform="matrix(1,0,0,1,900.6413527283777,1388.8741999999766) translate(117.2621651234568 15.91377777777778)"/><use xlink:href="#ba" transform="matrix(1,0,0,1,900.6413527283777,1388.8741999999766) translate(51.5349475308642 42.171511111111116)"/><use xlink:href="#bb" transform="matrix(1,0,0,1,900.6413527283777,1388.8741999999766) translate(101.26550308641976 42.171511111111116)"/><use xlink:href="#bc" transform="matrix(1,0,0,1,900.6413527283777,1388.8741999999766) translate(4.677712962962957 68.42924444444445)"/><use xlink:href="#bd" transform="matrix(1,0,0,1,900.6413527283777,1388.8741999999766) translate(108.33829320987655 68.42924444444445)"/><use xlink:href="#be" transform="matrix(1,0,0,1,900.6413527283777,1388.8741999999766) translate(172.38019753086422 68.42924444444445)"/><use xlink:href="#bf" transform="matrix(1,0,0,1,900.6413527283777,1388.8741999999766) translate(14.54093981481482 94.6869777777778)"/><use xlink:href="#bg" transform="matrix(1,0,0,1,900.6413527283777,1388.8741999999766) translate(58.69062191358025 94.6869777777778)"/><use xlink:href="#aO" transform="matrix(1,0,0,1,900.6413527283777,1388.8741999999766) translate(102.84030401234568 94.6869777777778)"/><use xlink:href="#bh" transform="matrix(1,0,0,1,900.6413527283777,1388.8741999999766) translate(124.94277314814815 94.6869777777778)"/><use xlink:href="#bi" transform="matrix(1,0,0,1,900.6413527283777,1388.8741999999766) translate(162.51697067901233 94.6869777777778)"/><use xlink:href="#bj" transform="matrix(1,0,0,1,900.6413527283777,1388.8741999999766) translate(177.93344290123457 94.6869777777778)"/><use xlink:href="#bk" transform="matrix(1,0,0,1,900.6413527283777,1388.8741999999766) translate(16.226253086419746 120.94471111111113)"/><use xlink:href="#bl" transform="matrix(1,0,0,1,900.6413527283777,1388.8741999999766) translate(84.6333950617284 120.94471111111113)"/></g><path d="M774.8 1453.83h-80.97v-1h80.98zm94.46 0h-65.1v-1h65.1z" fill="#999"/><path d="M693.84 1453.83h-.52l.02-1h.5zM884.02 1453.33l-14.26 4.63v-9.27z" fill="#999"/><path d="M885.64 1453.33l-16.38 5.32V1448zm-15.38 3.94l12.15-3.94-12.14-3.95z" fill="#999"/><use xlink:href="#u" transform="matrix(1,0,0,1,774.810196127218,1442.5249999999767) translate(0 14.4)"/><path d="M1150.18 587.9l2.68 1.95 1.04 3.18v855.34l-.28 1.73-1.96 2.7-3.18 1.03h-34.58v-1h34.42l2.73-.9 1.62-2.22.23-1.42v-855.1l-.9-2.7-2.22-1.64-1.42-.23h-436.3v-1h436.38z" fill="#999"/><path d="M1113.9 1453.83h-.5v-1h.5zM711.55 592.75l-14.27-4.64 14.27-4.63z" fill="#999"/><path d="M712.05 593.43l-16.4-5.32 16.4-5.3zm-13.15-5.32l12.15 3.96v-7.9z" fill="#999"/><g filter="url(#i)"><path d="M641.77 0c19.38 0 35.08 17.9 35.08 40s-15.7 40-35.08 40H536.53c-19.37 0-35.08-17.9-35.08-40s15.7-40 35.08-40z" stroke="#000" stroke-opacity="0" stroke-width="4" fill="#495156"/><use xlink:href="#bm" transform="matrix(1,0,0,1,516.4512478913712,15) translate(38.46296296296296 30.27777777777778)"/><use xlink:href="#bn" transform="matrix(1,0,0,1,516.4512478913712,15) translate(89.0185185185185 30.27777777777778)"/></g><path d="M589.15 80.5v33.76" stroke="#999" fill="none"/><path d="M589.65 80.5h-1V80h1z" fill="#999"/><path d="M589.15 129.03l-4.63-14.27h9.27z" stroke="#999" fill="#999"/><defs><path fill="#fff" d="M240 0l2-218c-23 76-54 145-80 218h-23L58-218 59 0H30v-248h44l77 211c21-75 51-140 76-211h43V0h-30" id="bo"/><path fill="#fff" d="M141-36C126-15 110 5 73 4 37 3 15-17 15-53c-1-64 63-63 125-63 3-35-9-54-41-54-24 1-41 7-42 31l-33-3c5-37 33-52 76-52 45 0 72 20 72 64v82c-1 20 7 32 28 27v20c-31 9-61-2-59-35zM48-53c0 20 12 33 32 33 41-3 63-29 60-74-43 2-92-5-92 41" id="bp"/><path fill="#fff" d="M24-231v-30h32v30H24zM24 0v-190h32V0H24" id="bq"/><path fill="#fff" d="M117-194c89-4 53 116 60 194h-32v-121c0-31-8-49-39-48C34-167 62-67 57 0H25l-1-190h30c1 10-1 24 2 32 11-22 29-35 61-36" id="br"/><g id="b"><use transform="matrix(0.06172839506172839,0,0,0.06172839506172839,0,0)" xlink:href="#bo"/><use transform="matrix(0.06172839506172839,0,0,0.06172839506172839,18.456790123456788,0)" xlink:href="#bp"/><use transform="matrix(0.06172839506172839,0,0,0.06172839506172839,30.80246913580247,0)" xlink:href="#bq"/><use transform="matrix(0.06172839506172839,0,0,0.06172839506172839,35.67901234567901,0)" xlink:href="#br"/></g><path fill="#fff" d="M30-248c118-7 216 8 213 122C240-48 200 0 122 0H30v-248zM63-27c89 8 146-16 146-99s-60-101-146-95v194" id="bs"/><path fill="#fff" d="M135-143c-3-34-86-38-87 0 15 53 115 12 119 90S17 21 10-45l28-5c4 36 97 45 98 0-10-56-113-15-118-90-4-57 82-63 122-42 12 7 21 19 24 35" id="bt"/><path fill="#fff" d="M106-169C34-169 62-67 57 0H25v-261h32l-1 103c12-21 28-36 61-36 89 0 53 116 60 194h-32v-121c2-32-8-49-39-48" id="bu"/><path fill="#fff" d="M115-194c53 0 69 39 70 98 0 66-23 100-70 100C84 3 66-7 56-30L54 0H23l1-261h32v101c10-23 28-34 59-34zm-8 174c40 0 45-34 45-75 0-40-5-75-45-74-42 0-51 32-51 76 0 43 10 73 51 73" id="bv"/><path fill="#fff" d="M100-194c62-1 85 37 85 99 1 63-27 99-86 99S16-35 15-95c0-66 28-99 85-99zM99-20c44 1 53-31 53-75 0-43-8-75-51-75s-53 32-53 75 10 74 51 75" id="bw"/><path fill="#fff" d="M114-163C36-179 61-72 57 0H25l-1-190h30c1 12-1 29 2 39 6-27 23-49 58-41v29" id="bx"/><path fill="#fff" d="M85-194c31 0 48 13 60 33l-1-100h32l1 261h-30c-2-10 0-23-3-31C134-8 116 4 85 4 32 4 16-35 15-94c0-66 23-100 70-100zm9 24c-40 0-46 34-46 75 0 40 6 74 45 74 42 0 51-32 51-76 0-42-9-74-50-73" id="by"/><g id="c"><use transform="matrix(0.06172839506172839,0,0,0.06172839506172839,0,0)" xlink:href="#bs"/><use transform="matrix(0.06172839506172839,0,0,0.06172839506172839,15.987654320987653,0)" xlink:href="#bp"/><use transform="matrix(0.06172839506172839,0,0,0.06172839506172839,28.333333333333332,0)" xlink:href="#bt"/><use transform="matrix(0.06172839506172839,0,0,0.06172839506172839,39.44444444444444,0)" xlink:href="#bu"/><use transform="matrix(0.06172839506172839,0,0,0.06172839506172839,51.79012345679012,0)" xlink:href="#bv"/><use transform="matrix(0.06172839506172839,0,0,0.06172839506172839,64.1358024691358,0)" xlink:href="#bw"/><use transform="matrix(0.06172839506172839,0,0,0.06172839506172839,76.48148148148148,0)" xlink:href="#bp"/><use transform="matrix(0.06172839506172839,0,0,0.06172839506172839,88.82716049382717,0)" xlink:href="#bx"/><use transform="matrix(0.06172839506172839,0,0,0.06172839506172839,96.17283950617285,0)" xlink:href="#by"/></g><filter id="a" filterUnits="objectBoundingBox" x="-.05" y="-.04" width="1.11" height="1.19"><feOffset result="offOut" in="SourceAlpha" dy="6"/><feGaussianBlur result="blurOut" in="offOut" stdDeviation="5"/><feColorMatrix result="colorOut" in="blurOut" values="0 0 0 0 0 0 0 0 0 0 0 0 0 0 0 0 0 0 0.16862745098039217 0"/><feBlend in="SourceGraphic" in2="colorOut"/></filter><path fill="#3d4752" d="M33 0v-248h34V0H33" id="bz"/><path fill="#3d4752" d="M135-143c-3-34-86-38-87 0 15 53 115 12 119 90S17 21 10-45l28-5c4 36 97 45 98 0-10-56-113-15-118-90-4-57 82-63 122-42 12 7 21 19 24 35" id="bA"/><g id="e"><use transform="matrix(0.05525617283950617,0,0,0.05525617283950617,0,0)" xlink:href="#bz"/><use transform="matrix(0.05525617283950617,0,0,0.05525617283950617,5.525617283950617,0)" xlink:href="#bA"/></g><path fill="#3d4752" d="M59-47c-2 24 18 29 38 22v24C64 9 27 4 27-40v-127H5v-23h24l9-43h21v43h35v23H59v120" id="bB"/><path fill="#3d4752" d="M106-169C34-169 62-67 57 0H25v-261h32l-1 103c12-21 28-36 61-36 89 0 53 116 60 194h-32v-121c2-32-8-49-39-48" id="bC"/><path fill="#3d4752" d="M100-194c63 0 86 42 84 106H49c0 40 14 67 53 68 26 1 43-12 49-29l28 8c-11 28-37 45-77 45C44 4 14-33 15-96c1-61 26-98 85-98zm52 81c6-60-76-77-97-28-3 7-6 17-6 28h103" id="bD"/><path fill="#3d4752" d="M114-163C36-179 61-72 57 0H25l-1-190h30c1 12-1 29 2 39 6-27 23-49 58-41v29" id="bE"/><g id="f"><use transform="matrix(0.05525617283950617,0,0,0.05525617283950617,0,0)" xlink:href="#bB"/><use transform="matrix(0.05525617283950617,0,0,0.05525617283950617,5.525617283950617,0)" xlink:href="#bC"/><use transform="matrix(0.05525617283950617,0,0,0.05525617283950617,16.576851851851853,0)" xlink:href="#bD"/><use transform="matrix(0.05525617283950617,0,0,0.05525617283950617,27.62808641975309,0)" xlink:href="#bE"/><use transform="matrix(0.05525617283950617,0,0,0.05525617283950617,34.203570987654324,0)" xlink:href="#bD"/></g><path fill="#3d4752" d="M141-36C126-15 110 5 73 4 37 3 15-17 15-53c-1-64 63-63 125-63 3-35-9-54-41-54-24 1-41 7-42 31l-33-3c5-37 33-52 76-52 45 0 72 20 72 64v82c-1 20 7 32 28 27v20c-31 9-61-2-59-35zM48-53c0 20 12 33 32 33 41-3 63-29 60-74-43 2-92-5-92 41" id="bF"/><use transform="matrix(0.05525617283950617,0,0,0.05525617283950617,0,0)" xlink:href="#bF" id="g"/><path fill="#3d4752" d="M115-194c55 1 70 41 70 98S169 2 115 4C84 4 66-9 55-30l1 105H24l-1-265h31l2 30c10-21 28-34 59-34zm-8 174c40 0 45-34 45-75s-6-73-45-74c-42 0-51 32-51 76 0 43 10 73 51 73" id="bG"/><path fill="#3d4752" d="M100-194c62-1 85 37 85 99 1 63-27 99-86 99S16-35 15-95c0-66 28-99 85-99zM99-20c44 1 53-31 53-75 0-43-8-75-51-75s-53 32-53 75 10 74 51 75" id="bH"/><path fill="#3d4752" d="M115-194c53 0 69 39 70 98 0 66-23 100-70 100C84 3 66-7 56-30L54 0H23l1-261h32v101c10-23 28-34 59-34zm-8 174c40 0 45-34 45-75 0-40-5-75-45-74-42 0-51 32-51 76 0 43 10 73 51 73" id="bI"/><path fill="#3d4752" d="M24 0v-261h32V0H24" id="bJ"/><path fill="#3d4752" d="M210-169c-67 3-38 105-44 169h-31v-121c0-29-5-50-35-48C34-165 62-65 56 0H25l-1-190h30c1 10-1 24 2 32 10-44 99-50 107 0 11-21 27-35 58-36 85-2 47 119 55 194h-31v-121c0-29-5-49-35-48" id="bK"/><path fill="#3d4752" d="M103-251c84 0 111 97 45 133-19 10-37 24-39 52H78c0-63 77-55 77-114 0-30-21-42-52-43-32 0-53 17-56 46l-32-2c7-45 34-72 88-72zM77 0v-35h34V0H77" id="bL"/><g id="h"><use transform="matrix(0.05525617283950617,0,0,0.05525617283950617,0,0)" xlink:href="#bG"/><use transform="matrix(0.05525617283950617,0,0,0.05525617283950617,11.051234567901234,0)" xlink:href="#bE"/><use transform="matrix(0.05525617283950617,0,0,0.05525617283950617,17.626719135802468,0)" xlink:href="#bH"/><use transform="matrix(0.05525617283950617,0,0,0.05525617283950617,28.677953703703704,0)" xlink:href="#bI"/><use transform="matrix(0.05525617283950617,0,0,0.05525617283950617,39.72918827160493,0)" xlink:href="#bJ"/><use transform="matrix(0.05525617283950617,0,0,0.05525617283950617,44.09442592592592,0)" xlink:href="#bD"/><use transform="matrix(0.05525617283950617,0,0,0.05525617283950617,55.14566049382715,0)" xlink:href="#bK"/><use transform="matrix(0.05525617283950617,0,0,0.05525617283950617,71.6672561728395,0)" xlink:href="#bL"/></g><filter id="d" filterUnits="objectBoundingBox" x="-.05" y="-.02" width="1.09" height="1.12"><feOffset result="offOut" in="SourceAlpha" dy="6"/><feGaussianBlur result="blurOut" in="offOut" stdDeviation="5"/><feColorMatrix result="colorOut" in="blurOut" values="0 0 0 0 0 0 0 0 0 0 0 0 0 0 0 0 0 0 0.16862745098039217 0"/><feBlend in="SourceGraphic" in2="colorOut"/></filter><path fill="#fff" d="M100-194c63 0 86 42 84 106H49c0 40 14 67 53 68 26 1 43-12 49-29l28 8c-11 28-37 45-77 45C44 4 14-33 15-96c1-61 26-98 85-98zm52 81c6-60-76-77-97-28-3 7-6 17-6 28h103" id="bM"/><g id="j"><use transform="matrix(0.06172839506172839,0,0,0.06172839506172839,0,0)" xlink:href="#bs"/><use transform="matrix(0.06172839506172839,0,0,0.06172839506172839,15.987654320987653,0)" xlink:href="#bw"/><use transform="matrix(0.06172839506172839,0,0,0.06172839506172839,28.333333333333332,0)" xlink:href="#br"/><use transform="matrix(0.06172839506172839,0,0,0.06172839506172839,40.67901234567901,0)" xlink:href="#bM"/></g><filter id="i" filterUnits="objectBoundingBox" x="-.06" y="-.05" width="1.11" height="1.25"><feOffset result="offOut" in="SourceAlpha" dy="6"/><feGaussianBlur result="blurOut" in="offOut" stdDeviation="5"/><feColorMatrix result="colorOut" in="blurOut" values="0 0 0 0 0 0 0 0 0 0 0 0 0 0 0 0 0 0 0.16862745098039217 0"/><feBlend in="SourceGraphic" in2="colorOut"/></filter><path d="M190 0L58-211 59 0H30v-248h39L202-35l-2-213h31V0h-41" id="bN"/><path d="M100-194c62-1 85 37 85 99 1 63-27 99-86 99S16-35 15-95c0-66 28-99 85-99zM99-20c44 1 53-31 53-75 0-43-8-75-51-75s-53 32-53 75 10 74 51 75" id="bO"/><g id="k"><use transform="matrix(0.05,0,0,0.05,0,0)" xlink:href="#bN"/><use transform="matrix(0.05,0,0,0.05,12.950000000000001,0)" xlink:href="#bO"/></g><path fill="#3d4752" d="M24-231v-30h32v30H24zM24 0v-190h32V0H24" id="bP"/><g id="l"><use transform="matrix(0.05525617283950617,0,0,0.05525617283950617,0,0)" xlink:href="#bP"/><use transform="matrix(0.05525617283950617,0,0,0.05525617283950617,4.365237654320987,0)" xlink:href="#bB"/></g><path fill="#3d4752" d="M24-231v-30h32v30H24zM-9 49c24 4 33-6 33-30v-209h32V24c2 40-23 58-65 49V49" id="bQ"/><path fill="#3d4752" d="M84 4C-5 8 30-112 23-190h32v120c0 31 7 50 39 49 72-2 45-101 50-169h31l1 190h-30c-1-10 1-25-2-33-11 22-28 36-60 37" id="bR"/><g id="m"><use transform="matrix(0.05525617283950617,0,0,0.05525617283950617,0,0)" xlink:href="#bQ"/><use transform="matrix(0.05525617283950617,0,0,0.05525617283950617,4.365237654320987,0)" xlink:href="#bR"/><use transform="matrix(0.05525617283950617,0,0,0.05525617283950617,15.416472222222222,0)" xlink:href="#bA"/><use transform="matrix(0.05525617283950617,0,0,0.05525617283950617,25.362583333333333,0)" xlink:href="#bB"/></g><g id="n"><use transform="matrix(0.05525617283950617,0,0,0.05525617283950617,0,0)" xlink:href="#bK"/><use transform="matrix(0.05525617283950617,0,0,0.05525617283950617,16.521595679012346,0)" xlink:href="#bD"/></g><g id="o"><use transform="matrix(0.05525617283950617,0,0,0.05525617283950617,0,0)" xlink:href="#bH"/><use transform="matrix(0.05525617283950617,0,0,0.05525617283950617,11.051234567901234,0)" xlink:href="#bE"/></g><g id="p"><use transform="matrix(0.05525617283950617,0,0,0.05525617283950617,0,0)" xlink:href="#bF"/><use transform="matrix(0.05525617283950617,0,0,0.05525617283950617,11.051234567901234,0)" xlink:href="#bE"/><use transform="matrix(0.05525617283950617,0,0,0.05525617283950617,17.626719135802468,0)" xlink:href="#bD"/></g><g id="q"><use transform="matrix(0.05525617283950617,0,0,0.05525617283950617,0,0)" xlink:href="#bH"/><use transform="matrix(0.05525617283950617,0,0,0.05525617283950617,11.051234567901234,0)" xlink:href="#bB"/><use transform="matrix(0.05525617283950617,0,0,0.05525617283950617,16.576851851851853,0)" xlink:href="#bC"/><use transform="matrix(0.05525617283950617,0,0,0.05525617283950617,27.62808641975309,0)" xlink:href="#bD"/><use transform="matrix(0.05525617283950617,0,0,0.05525617283950617,38.67932098765432,0)" xlink:href="#bE"/><use transform="matrix(0.05525617283950617,0,0,0.05525617283950617,45.254805555555556,0)" xlink:href="#bA"/></g><path fill="#3d4752" d="M108 0H70L1-190h34L89-25l56-165h34" id="bS"/><path fill="#3d4752" d="M117-194c89-4 53 116 60 194h-32v-121c0-31-8-49-39-48C34-167 62-67 57 0H25l-1-190h30c1 10-1 24 2 32 11-22 29-35 61-36" id="bT"/><path fill="#3d4752" d="M177-190C167-65 218 103 67 71c-23-6-38-20-44-43l32-5c15 47 100 32 89-28v-30C133-14 115 1 83 1 29 1 15-40 15-95c0-56 16-97 71-98 29-1 48 16 59 35 1-10 0-23 2-32h30zM94-22c36 0 50-32 50-73 0-42-14-75-50-75-39 0-46 34-46 75s6 73 46 73" id="bU"/><g id="r"><use transform="matrix(0.05525617283950617,0,0,0.05525617283950617,0,0)" xlink:href="#bC"/><use transform="matrix(0.05525617283950617,0,0,0.05525617283950617,11.051234567901234,0)" xlink:href="#bF"/><use transform="matrix(0.05525617283950617,0,0,0.05525617283950617,22.10246913580247,0)" xlink:href="#bS"/><use transform="matrix(0.05525617283950617,0,0,0.05525617283950617,32.04858024691358,0)" xlink:href="#bP"/><use transform="matrix(0.05525617283950617,0,0,0.05525617283950617,36.413817901234566,0)" xlink:href="#bT"/><use transform="matrix(0.05525617283950617,0,0,0.05525617283950617,47.4650524691358,0)" xlink:href="#bU"/></g><g id="s"><use transform="matrix(0.05525617283950617,0,0,0.05525617283950617,0,0)" xlink:href="#bA"/><use transform="matrix(0.05525617283950617,0,0,0.05525617283950617,9.946111111111112,0)" xlink:href="#bP"/><use transform="matrix(0.05525617283950617,0,0,0.05525617283950617,14.311348765432099,0)" xlink:href="#bK"/><use transform="matrix(0.05525617283950617,0,0,0.05525617283950617,30.832944444444443,0)" xlink:href="#bP"/><use transform="matrix(0.05525617283950617,0,0,0.05525617283950617,35.19818209876543,0)" xlink:href="#bJ"/><use transform="matrix(0.05525617283950617,0,0,0.05525617283950617,39.563419753086414,0)" xlink:href="#bF"/><use transform="matrix(0.05525617283950617,0,0,0.05525617283950617,50.61465432098765,0)" xlink:href="#bE"/></g><g id="t"><use transform="matrix(0.05525617283950617,0,0,0.05525617283950617,0,0)" xlink:href="#bG"/><use transform="matrix(0.05525617283950617,0,0,0.05525617283950617,11.051234567901234,0)" xlink:href="#bE"/><use transform="matrix(0.05525617283950617,0,0,0.05525617283950617,17.626719135802468,0)" xlink:href="#bH"/><use transform="matrix(0.05525617283950617,0,0,0.05525617283950617,28.677953703703704,0)" xlink:href="#bI"/><use transform="matrix(0.05525617283950617,0,0,0.05525617283950617,39.72918827160493,0)" xlink:href="#bJ"/><use transform="matrix(0.05525617283950617,0,0,0.05525617283950617,44.09442592592592,0)" xlink:href="#bD"/><use transform="matrix(0.05525617283950617,0,0,0.05525617283950617,55.14566049382715,0)" xlink:href="#bK"/><use transform="matrix(0.05525617283950617,0,0,0.05525617283950617,71.6672561728395,0)" xlink:href="#bA"/><use transform="matrix(0.05525617283950617,0,0,0.05525617283950617,81.61336728395061,0)" xlink:href="#bL"/></g><path d="M137-103V0h-34v-103L8-248h37l75 118 75-118h37" id="bV"/><path d="M100-194c63 0 86 42 84 106H49c0 40 14 67 53 68 26 1 43-12 49-29l28 8c-11 28-37 45-77 45C44 4 14-33 15-96c1-61 26-98 85-98zm52 81c6-60-76-77-97-28-3 7-6 17-6 28h103" id="bW"/><path d="M135-143c-3-34-86-38-87 0 15 53 115 12 119 90S17 21 10-45l28-5c4 36 97 45 98 0-10-56-113-15-118-90-4-57 82-63 122-42 12 7 21 19 24 35" id="bX"/><g id="u"><use transform="matrix(0.05,0,0,0.05,0,0)" xlink:href="#bV"/><use transform="matrix(0.05,0,0,0.05,10.35,0)" xlink:href="#bW"/><use transform="matrix(0.05,0,0,0.05,20.35,0)" xlink:href="#bX"/></g><path fill="#3d4752" d="M240 0l2-218c-23 76-54 145-80 218h-23L58-218 59 0H30v-248h44l77 211c21-75 51-140 76-211h43V0h-30" id="bY"/><g id="w"><use transform="matrix(0.06172839506172839,0,0,0.06172839506172839,0,0)" xlink:href="#bY"/><use transform="matrix(0.06172839506172839,0,0,0.06172839506172839,18.456790123456788,0)" xlink:href="#bH"/><use transform="matrix(0.06172839506172839,0,0,0.06172839506172839,30.80246913580247,0)" xlink:href="#bI"/><use transform="matrix(0.06172839506172839,0,0,0.06172839506172839,43.148148148148145,0)" xlink:href="#bP"/><use transform="matrix(0.06172839506172839,0,0,0.06172839506172839,48.02469135802469,0)" xlink:href="#bJ"/><use transform="matrix(0.06172839506172839,0,0,0.06172839506172839,52.901234567901234,0)" xlink:href="#bD"/></g><path fill="#3d4752" d="M30-248c87 1 191-15 191 75 0 78-77 80-158 76V0H30v-248zm33 125c57 0 124 11 124-50 0-59-68-47-124-48v98" id="bZ"/><path fill="#3d4752" d="M85-194c31 0 48 13 60 33l-1-100h32l1 261h-30c-2-10 0-23-3-31C134-8 116 4 85 4 32 4 16-35 15-94c0-66 23-100 70-100zm9 24c-40 0-46 34-46 75 0 40 6 74 45 74 42 0 51-32 51-76 0-42-9-74-50-73" id="ca"/><g id="x"><use transform="matrix(0.06172839506172839,0,0,0.06172839506172839,0,0)" xlink:href="#bZ"/><use transform="matrix(0.06172839506172839,0,0,0.06172839506172839,14.814814814814813,0)" xlink:href="#bE"/><use transform="matrix(0.06172839506172839,0,0,0.06172839506172839,22.160493827160494,0)" xlink:href="#bH"/><use transform="matrix(0.06172839506172839,0,0,0.06172839506172839,34.50617283950617,0)" xlink:href="#bS"/><use transform="matrix(0.06172839506172839,0,0,0.06172839506172839,45.61728395061728,0)" xlink:href="#bP"/><use transform="matrix(0.06172839506172839,0,0,0.06172839506172839,50.49382716049382,0)" xlink:href="#ca"/><use transform="matrix(0.06172839506172839,0,0,0.06172839506172839,62.8395061728395,0)" xlink:href="#bD"/><use transform="matrix(0.06172839506172839,0,0,0.06172839506172839,75.18518518518518,0)" xlink:href="#bE"/><use transform="matrix(0.06172839506172839,0,0,0.06172839506172839,82.53086419753086,0)" xlink:href="#bA"/></g><path fill="#3d4752" d="M185-189c-5-48-123-54-124 2 14 75 158 14 163 119 3 78-121 87-175 55-17-10-28-26-33-46l33-7c5 56 141 63 141-1 0-78-155-14-162-118-5-82 145-84 179-34 5 7 8 16 11 25" id="cb"/><g id="y"><use transform="matrix(0.06172839506172839,0,0,0.06172839506172839,0,0)" xlink:href="#bz"/><use transform="matrix(0.06172839506172839,0,0,0.06172839506172839,6.172839506172839,0)" xlink:href="#cb"/><use transform="matrix(0.06172839506172839,0,0,0.06172839506172839,20.98765432098765,0)" xlink:href="#bZ"/><use transform="matrix(0.06172839506172839,0,0,0.06172839506172839,35.80246913580247,0)" xlink:href="#bA"/></g><path fill="#3d4752" d="M212-179c-10-28-35-45-73-45-59 0-87 40-87 99 0 60 29 101 89 101 43 0 62-24 78-52l27 14C228-24 195 4 139 4 59 4 22-46 18-125c-6-104 99-153 187-111 19 9 31 26 39 46" id="cc"/><g id="z"><use transform="matrix(0.06172839506172839,0,0,0.06172839506172839,0,0)" xlink:href="#cc"/><use transform="matrix(0.06172839506172839,0,0,0.06172839506172839,15.987654320987653,0)" xlink:href="#bH"/><use transform="matrix(0.06172839506172839,0,0,0.06172839506172839,28.333333333333332,0)" xlink:href="#bK"/><use transform="matrix(0.06172839506172839,0,0,0.06172839506172839,46.79012345679012,0)" xlink:href="#bG"/><use transform="matrix(0.06172839506172839,0,0,0.06172839506172839,59.1358024691358,0)" xlink:href="#bD"/><use transform="matrix(0.06172839506172839,0,0,0.06172839506172839,71.48148148148148,0)" xlink:href="#bB"/><use transform="matrix(0.06172839506172839,0,0,0.06172839506172839,77.65432098765432,0)" xlink:href="#bP"/><use transform="matrix(0.06172839506172839,0,0,0.06172839506172839,82.53086419753086,0)" xlink:href="#bB"/><use transform="matrix(0.06172839506172839,0,0,0.06172839506172839,88.7037037037037,0)" xlink:href="#bP"/><use transform="matrix(0.06172839506172839,0,0,0.06172839506172839,93.58024691358024,0)" xlink:href="#bH"/><use transform="matrix(0.06172839506172839,0,0,0.06172839506172839,105.92592592592592,0)" xlink:href="#bT"/></g><g id="A"><use transform="matrix(0.06172839506172839,0,0,0.06172839506172839,0,0)" xlink:href="#cc"/><use transform="matrix(0.06172839506172839,0,0,0.06172839506172839,15.987654320987653,0)" xlink:href="#bJ"/><use transform="matrix(0.06172839506172839,0,0,0.06172839506172839,20.864197530864196,0)" xlink:href="#bH"/><use transform="matrix(0.06172839506172839,0,0,0.06172839506172839,33.20987654320987,0)" xlink:href="#bR"/><use transform="matrix(0.06172839506172839,0,0,0.06172839506172839,45.55555555555555,0)" xlink:href="#ca"/></g><g id="B"><use transform="matrix(0.06172839506172839,0,0,0.06172839506172839,0,0)" xlink:href="#bG"/><use transform="matrix(0.06172839506172839,0,0,0.06172839506172839,12.345679012345679,0)" xlink:href="#bE"/><use transform="matrix(0.06172839506172839,0,0,0.06172839506172839,19.691358024691358,0)" xlink:href="#bH"/><use transform="matrix(0.06172839506172839,0,0,0.06172839506172839,32.03703703703704,0)" xlink:href="#bS"/><use transform="matrix(0.06172839506172839,0,0,0.06172839506172839,43.14814814814815,0)" xlink:href="#bP"/><use transform="matrix(0.06172839506172839,0,0,0.06172839506172839,48.0246913580247,0)" xlink:href="#ca"/><use transform="matrix(0.06172839506172839,0,0,0.06172839506172839,60.370370370370374,0)" xlink:href="#bD"/><use transform="matrix(0.06172839506172839,0,0,0.06172839506172839,72.71604938271605,0)" xlink:href="#bE"/><use transform="matrix(0.06172839506172839,0,0,0.06172839506172839,80.06172839506173,0)" xlink:href="#bA"/></g><filter id="v" filterUnits="objectBoundingBox" x="-.05" y="-.03" width="1.09" height="1.14"><feOffset result="offOut" in="SourceAlpha" dy="6"/><feGaussianBlur result="blurOut" in="offOut" stdDeviation="5"/><feColorMatrix result="colorOut" in="blurOut" values="0 0 0 0 0 0 0 0 0 0 0 0 0 0 0 0 0 0 0.16862745098039217 0"/><feBlend in="SourceGraphic" in2="colorOut"/></filter><path d="M140-251c81 0 123 46 123 126C263-46 219 4 140 4 59 4 17-45 17-125s42-126 123-126zm0 227c63 0 89-41 89-101s-29-99-89-99c-61 0-89 39-89 99S79-25 140-24" id="cd"/><path d="M59-47c-2 24 18 29 38 22v24C64 9 27 4 27-40v-127H5v-23h24l9-43h21v43h35v23H59v120" id="ce"/><path d="M106-169C34-169 62-67 57 0H25v-261h32l-1 103c12-21 28-36 61-36 89 0 53 116 60 194h-32v-121c2-32-8-49-39-48" id="cf"/><path d="M114-163C36-179 61-72 57 0H25l-1-190h30c1 12-1 29 2 39 6-27 23-49 58-41v29" id="cg"/><g id="D"><use transform="matrix(0.05,0,0,0.05,0,0)" xlink:href="#cd"/><use transform="matrix(0.05,0,0,0.05,14,0)" xlink:href="#ce"/><use transform="matrix(0.05,0,0,0.05,19,0)" xlink:href="#cf"/><use transform="matrix(0.05,0,0,0.05,29,0)" xlink:href="#bW"/><use transform="matrix(0.05,0,0,0.05,39,0)" xlink:href="#cg"/><use transform="matrix(0.05,0,0,0.05,44.95,0)" xlink:href="#bX"/></g><g id="E"><use transform="matrix(0.05,0,0,0.05,0,0)" xlink:href="#ce"/><use transform="matrix(0.05,0,0,0.05,5,0)" xlink:href="#bO"/><use transform="matrix(0.05,0,0,0.05,15,0)" xlink:href="#bO"/></g><path fill="#fff" d="M212-179c-10-28-35-45-73-45-59 0-87 40-87 99 0 60 29 101 89 101 43 0 62-24 78-52l27 14C228-24 195 4 139 4 59 4 22-46 18-125c-6-104 99-153 187-111 19 9 31 26 39 46" id="ch"/><path fill="#fff" d="M101-234c-31-9-42 10-38 44h38v23H63V0H32v-167H5v-23h27c-7-52 17-82 69-68v24" id="ci"/><path fill="#fff" d="M210-169c-67 3-38 105-44 169h-31v-121c0-29-5-50-35-48C34-165 62-65 56 0H25l-1-190h30c1 10-1 24 2 32 10-44 99-50 107 0 11-21 27-35 58-36 85-2 47 119 55 194h-31v-121c0-29-5-49-35-48" id="cj"/><g id="G"><use transform="matrix(0.05525617283950617,0,0,0.05525617283950617,0,0)" xlink:href="#ch"/><use transform="matrix(0.05525617283950617,0,0,0.05525617283950617,14.311348765432099,0)" xlink:href="#bw"/><use transform="matrix(0.05525617283950617,0,0,0.05525617283950617,25.362583333333333,0)" xlink:href="#br"/><use transform="matrix(0.05525617283950617,0,0,0.05525617283950617,36.413817901234566,0)" xlink:href="#ci"/><use transform="matrix(0.05525617283950617,0,0,0.05525617283950617,41.93943518518518,0)" xlink:href="#bq"/><use transform="matrix(0.05525617283950617,0,0,0.05525617283950617,46.30467283950617,0)" xlink:href="#bx"/><use transform="matrix(0.05525617283950617,0,0,0.05525617283950617,52.8801574074074,0)" xlink:href="#cj"/></g><path fill="#fff" d="M115-194c55 1 70 41 70 98S169 2 115 4C84 4 66-9 55-30l1 105H24l-1-265h31l2 30c10-21 28-34 59-34zm-8 174c40 0 45-34 45-75s-6-73-45-74c-42 0-51 32-51 76 0 43 10 73 51 73" id="ck"/><path fill="#fff" d="M24 0v-261h32V0H24" id="cl"/><g id="H"><use transform="matrix(0.05525617283950617,0,0,0.05525617283950617,0,0)" xlink:href="#ck"/><use transform="matrix(0.05525617283950617,0,0,0.05525617283950617,11.051234567901234,0)" xlink:href="#bx"/><use transform="matrix(0.05525617283950617,0,0,0.05525617283950617,17.626719135802468,0)" xlink:href="#bw"/><use transform="matrix(0.05525617283950617,0,0,0.05525617283950617,28.677953703703704,0)" xlink:href="#bv"/><use transform="matrix(0.05525617283950617,0,0,0.05525617283950617,39.72918827160493,0)" xlink:href="#cl"/><use transform="matrix(0.05525617283950617,0,0,0.05525617283950617,44.09442592592592,0)" xlink:href="#bM"/><use transform="matrix(0.05525617283950617,0,0,0.05525617283950617,55.14566049382715,0)" xlink:href="#cj"/></g><path fill="#fff" d="M206 0h-36l-40-164L89 0H53L-1-190h32L70-26l43-164h34l41 164 42-164h31" id="cm"/><path fill="#fff" d="M59-47c-2 24 18 29 38 22v24C64 9 27 4 27-40v-127H5v-23h24l9-43h21v43h35v23H59v120" id="cn"/><g id="I"><use transform="matrix(0.05525617283950617,0,0,0.05525617283950617,0,0)" xlink:href="#cm"/><use transform="matrix(0.05525617283950617,0,0,0.05525617283950617,14.311348765432099,0)" xlink:href="#bq"/><use transform="matrix(0.05525617283950617,0,0,0.05525617283950617,18.676586419753086,0)" xlink:href="#cn"/><use transform="matrix(0.05525617283950617,0,0,0.05525617283950617,24.202203703703702,0)" xlink:href="#bu"/></g><use transform="matrix(0.05525617283950617,0,0,0.05525617283950617,0,0)" xlink:href="#bp" id="J"/><path fill="#fff" d="M96-169c-40 0-48 33-48 73s9 75 48 75c24 0 41-14 43-38l32 2c-6 37-31 61-74 61-59 0-76-41-82-99-10-93 101-131 147-64 4 7 5 14 7 22l-32 3c-4-21-16-35-41-35" id="co"/><path fill="#fff" d="M84 4C-5 8 30-112 23-190h32v120c0 31 7 50 39 49 72-2 45-101 50-169h31l1 190h-30c-1-10 1-25-2-33-11 22-28 36-60 37" id="cp"/><g id="K"><use transform="matrix(0.05525617283950617,0,0,0.05525617283950617,0,0)" xlink:href="#co"/><use transform="matrix(0.05525617283950617,0,0,0.05525617283950617,9.946111111111112,0)" xlink:href="#cl"/><use transform="matrix(0.05525617283950617,0,0,0.05525617283950617,14.311348765432099,0)" xlink:href="#bw"/><use transform="matrix(0.05525617283950617,0,0,0.05525617283950617,25.362583333333333,0)" xlink:href="#cp"/><use transform="matrix(0.05525617283950617,0,0,0.05525617283950617,36.413817901234566,0)" xlink:href="#by"/></g><g id="L"><use transform="matrix(0.05525617283950617,0,0,0.05525617283950617,0,0)" xlink:href="#bw"/><use transform="matrix(0.05525617283950617,0,0,0.05525617283950617,11.051234567901234,0)" xlink:href="#bx"/></g><path fill="#fff" d="M143 0L79-87 56-68V0H24v-261h32v163l83-92h37l-77 82L181 0h-38" id="cq"/><g id="M"><use transform="matrix(0.05525617283950617,0,0,0.05525617283950617,0,0)" xlink:href="#br"/><use transform="matrix(0.05525617283950617,0,0,0.05525617283950617,11.051234567901234,0)" xlink:href="#bM"/><use transform="matrix(0.05525617283950617,0,0,0.05525617283950617,22.10246913580247,0)" xlink:href="#cn"/><use transform="matrix(0.05525617283950617,0,0,0.05525617283950617,27.628086419753085,0)" xlink:href="#cm"/><use transform="matrix(0.05525617283950617,0,0,0.05525617283950617,41.93943518518518,0)" xlink:href="#bw"/><use transform="matrix(0.05525617283950617,0,0,0.05525617283950617,52.990669753086415,0)" xlink:href="#bx"/><use transform="matrix(0.05525617283950617,0,0,0.05525617283950617,59.56615432098766,0)" xlink:href="#cq"/></g><path fill="#fff" d="M108 0H70L1-190h34L89-25l56-165h34" id="cr"/><path fill="#fff" d="M33 0v-38h34V0H33" id="cs"/><g id="N"><use transform="matrix(0.05525617283950617,0,0,0.05525617283950617,0,0)" xlink:href="#ck"/><use transform="matrix(0.05525617283950617,0,0,0.05525617283950617,11.051234567901234,0)" xlink:href="#bx"/><use transform="matrix(0.05525617283950617,0,0,0.05525617283950617,17.626719135802468,0)" xlink:href="#bw"/><use transform="matrix(0.05525617283950617,0,0,0.05525617283950617,28.677953703703704,0)" xlink:href="#cr"/><use transform="matrix(0.05525617283950617,0,0,0.05525617283950617,38.624064814814815,0)" xlink:href="#bq"/><use transform="matrix(0.05525617283950617,0,0,0.05525617283950617,42.9893024691358,0)" xlink:href="#by"/><use transform="matrix(0.05525617283950617,0,0,0.05525617283950617,54.04053703703703,0)" xlink:href="#bM"/><use transform="matrix(0.05525617283950617,0,0,0.05525617283950617,65.09177160493827,0)" xlink:href="#bx"/><use transform="matrix(0.05525617283950617,0,0,0.05525617283950617,70.56213271604938,0)" xlink:href="#cs"/></g><path fill="#fff" d="M33 0v-248h34V0H33" id="ct"/><g id="O"><use transform="matrix(0.05525617283950617,0,0,0.05525617283950617,0,0)" xlink:href="#ct"/><use transform="matrix(0.05525617283950617,0,0,0.05525617283950617,5.525617283950617,0)" xlink:href="#br"/><use transform="matrix(0.05525617283950617,0,0,0.05525617283950617,16.576851851851853,0)" xlink:href="#ci"/><use transform="matrix(0.05525617283950617,0,0,0.05525617283950617,22.10246913580247,0)" xlink:href="#bw"/><use transform="matrix(0.05525617283950617,0,0,0.05525617283950617,33.153703703703705,0)" xlink:href="#bx"/><use transform="matrix(0.05525617283950617,0,0,0.05525617283950617,39.72918827160494,0)" xlink:href="#cj"/></g><g id="P"><use transform="matrix(0.05525617283950617,0,0,0.05525617283950617,0,0)" xlink:href="#co"/><use transform="matrix(0.05525617283950617,0,0,0.05525617283950617,9.946111111111112,0)" xlink:href="#cp"/><use transform="matrix(0.05525617283950617,0,0,0.05525617283950617,20.997345679012348,0)" xlink:href="#bt"/><use transform="matrix(0.05525617283950617,0,0,0.05525617283950617,30.943456790123456,0)" xlink:href="#cn"/><use transform="matrix(0.05525617283950617,0,0,0.05525617283950617,36.46907407407408,0)" xlink:href="#bw"/><use transform="matrix(0.05525617283950617,0,0,0.05525617283950617,47.52030864197531,0)" xlink:href="#cj"/><use transform="matrix(0.05525617283950617,0,0,0.05525617283950617,64.04190432098765,0)" xlink:href="#bM"/><use transform="matrix(0.05525617283950617,0,0,0.05525617283950617,75.09313888888889,0)" xlink:href="#bx"/><use transform="matrix(0.05525617283950617,0,0,0.05525617283950617,81.66862345679013,0)" xlink:href="#bt"/></g><filter id="F" filterUnits="objectBoundingBox" x="-.03" y="-.04" width="1.07" height="1.19"><feOffset result="offOut" in="SourceAlpha" dy="6"/><feGaussianBlur result="blurOut" in="offOut" stdDeviation="5"/><feColorMatrix result="colorOut" in="blurOut" values="0 0 0 0 0 0 0 0 0 0 0 0 0 0 0 0 0 0 0.16862745098039217 0"/><feBlend in="SourceGraphic" in2="colorOut"/></filter><path fill="#fff" d="M266 0h-40l-56-210L115 0H75L2-248h35L96-30l15-64 43-154h32l59 218 59-218h35" id="cu"/><g id="Q"><use transform="matrix(0.06172839506172839,0,0,0.06172839506172839,0,0)" xlink:href="#cu"/><use transform="matrix(0.06172839506172839,0,0,0.06172839506172839,20.925925925925924,0)" xlink:href="#bu"/><use transform="matrix(0.06172839506172839,0,0,0.06172839506172839,33.2716049382716,0)" xlink:href="#bM"/><use transform="matrix(0.06172839506172839,0,0,0.06172839506172839,45.61728395061728,0)" xlink:href="#bx"/><use transform="matrix(0.06172839506172839,0,0,0.06172839506172839,52.962962962962955,0)" xlink:href="#bM"/></g><g id="R"><use transform="matrix(0.06172839506172839,0,0,0.06172839506172839,0,0)" xlink:href="#bq"/><use transform="matrix(0.06172839506172839,0,0,0.06172839506172839,4.876543209876543,0)" xlink:href="#bt"/></g><g id="S"><use transform="matrix(0.06172839506172839,0,0,0.06172839506172839,0,0)" xlink:href="#cn"/><use transform="matrix(0.06172839506172839,0,0,0.06172839506172839,6.172839506172839,0)" xlink:href="#bu"/><use transform="matrix(0.06172839506172839,0,0,0.06172839506172839,18.51851851851852,0)" xlink:href="#bM"/></g><path fill="#fff" d="M30-248c87 1 191-15 191 75 0 78-77 80-158 76V0H30v-248zm33 125c57 0 124 11 124-50 0-59-68-47-124-48v98" id="cv"/><path fill="#fff" d="M103-251c84 0 111 97 45 133-19 10-37 24-39 52H78c0-63 77-55 77-114 0-30-21-42-52-43-32 0-53 17-56 46l-32-2c7-45 34-72 88-72zM77 0v-35h34V0H77" id="cw"/><g id="T"><use transform="matrix(0.06172839506172839,0,0,0.06172839506172839,0,0)" xlink:href="#cv"/><use transform="matrix(0.06172839506172839,0,0,0.06172839506172839,14.814814814814813,0)" xlink:href="#bx"/><use transform="matrix(0.06172839506172839,0,0,0.06172839506172839,22.160493827160494,0)" xlink:href="#bw"/><use transform="matrix(0.06172839506172839,0,0,0.06172839506172839,34.50617283950617,0)" xlink:href="#bv"/><use transform="matrix(0.06172839506172839,0,0,0.06172839506172839,46.85185185185185,0)" xlink:href="#cl"/><use transform="matrix(0.06172839506172839,0,0,0.06172839506172839,51.72839506172839,0)" xlink:href="#bM"/><use transform="matrix(0.06172839506172839,0,0,0.06172839506172839,64.07407407407408,0)" xlink:href="#cj"/><use transform="matrix(0.06172839506172839,0,0,0.06172839506172839,82.53086419753086,0)" xlink:href="#cw"/></g><path d="M63-220v92h138v28H63V0H30v-248h175v28H63" id="cx"/><path d="M24-231v-30h32v30H24zM24 0v-190h32V0H24" id="cy"/><path d="M24 0v-261h32V0H24" id="cz"/><g id="U"><use transform="matrix(0.05,0,0,0.05,0,0)" xlink:href="#cx"/><use transform="matrix(0.05,0,0,0.05,10.950000000000001,0)" xlink:href="#cy"/><use transform="matrix(0.05,0,0,0.05,14.9,0)" xlink:href="#cz"/><use transform="matrix(0.05,0,0,0.05,18.85,0)" xlink:href="#ce"/><use transform="matrix(0.05,0,0,0.05,23.85,0)" xlink:href="#bW"/><use transform="matrix(0.05,0,0,0.05,33.85,0)" xlink:href="#cg"/></g><g id="V"><use transform="matrix(0.05,0,0,0.05,0,0)" xlink:href="#ce"/><use transform="matrix(0.05,0,0,0.05,5,0)" xlink:href="#bO"/></g><path d="M30 0v-248h33v221h125V0H30" id="cA"/><path d="M96-169c-40 0-48 33-48 73s9 75 48 75c24 0 41-14 43-38l32 2c-6 37-31 61-74 61-59 0-76-41-82-99-10-93 101-131 147-64 4 7 5 14 7 22l-32 3c-4-21-16-35-41-35" id="cB"/><path d="M141-36C126-15 110 5 73 4 37 3 15-17 15-53c-1-64 63-63 125-63 3-35-9-54-41-54-24 1-41 7-42 31l-33-3c5-37 33-52 76-52 45 0 72 20 72 64v82c-1 20 7 32 28 27v20c-31 9-61-2-59-35zM48-53c0 20 12 33 32 33 41-3 63-29 60-74-43 2-92-5-92 41" id="cC"/><path d="M117-194c89-4 53 116 60 194h-32v-121c0-31-8-49-39-48C34-167 62-67 57 0H25l-1-190h30c1 10-1 24 2 32 11-22 29-35 61-36" id="cD"/><g id="W"><use transform="matrix(0.05,0,0,0.05,0,0)" xlink:href="#cA"/><use transform="matrix(0.05,0,0,0.05,10,0)" xlink:href="#bO"/><use transform="matrix(0.05,0,0,0.05,20,0)" xlink:href="#cB"/><use transform="matrix(0.05,0,0,0.05,29,0)" xlink:href="#cC"/><use transform="matrix(0.05,0,0,0.05,39,0)" xlink:href="#ce"/><use transform="matrix(0.05,0,0,0.05,44,0)" xlink:href="#cy"/><use transform="matrix(0.05,0,0,0.05,47.95,0)" xlink:href="#bO"/><use transform="matrix(0.05,0,0,0.05,57.95,0)" xlink:href="#cD"/></g><path d="M153-248C145-148 188 4 80 4 36 3 13-21 6-62l32-5c4 25 16 42 43 43 27 0 39-20 39-49v-147H72v-28h81" id="cE"/><path d="M84 4C-5 8 30-112 23-190h32v120c0 31 7 50 39 49 72-2 45-101 50-169h31l1 190h-30c-1-10 1-25-2-33-11 22-28 36-60 37" id="cF"/><g id="X"><use transform="matrix(0.05,0,0,0.05,0,0)" xlink:href="#cE"/><use transform="matrix(0.05,0,0,0.05,9,0)" xlink:href="#cF"/><use transform="matrix(0.05,0,0,0.05,19,0)" xlink:href="#bX"/><use transform="matrix(0.05,0,0,0.05,28,0)" xlink:href="#ce"/></g><path d="M210-169c-67 3-38 105-44 169h-31v-121c0-29-5-50-35-48C34-165 62-65 56 0H25l-1-190h30c1 10-1 24 2 32 10-44 99-50 107 0 11-21 27-35 58-36 85-2 47 119 55 194h-31v-121c0-29-5-49-35-48" id="cG"/><g id="Y"><use transform="matrix(0.05,0,0,0.05,0,0)" xlink:href="#cG"/><use transform="matrix(0.05,0,0,0.05,14.950000000000001,0)" xlink:href="#bW"/></g><g id="aa"><use transform="matrix(0.06172839506172839,0,0,0.06172839506172839,0,0)" xlink:href="#bY"/><use transform="matrix(0.06172839506172839,0,0,0.06172839506172839,18.456790123456788,0)" xlink:href="#bF"/><use transform="matrix(0.06172839506172839,0,0,0.06172839506172839,30.80246913580247,0)" xlink:href="#bG"/></g><path fill="#3d4752" d="M30 0v-248h33v221h125V0H30" id="cH"/><path fill="#3d4752" d="M96-169c-40 0-48 33-48 73s9 75 48 75c24 0 41-14 43-38l32 2c-6 37-31 61-74 61-59 0-76-41-82-99-10-93 101-131 147-64 4 7 5 14 7 22l-32 3c-4-21-16-35-41-35" id="cI"/><g id="ab"><use transform="matrix(0.06172839506172839,0,0,0.06172839506172839,0,0)" xlink:href="#cH"/><use transform="matrix(0.06172839506172839,0,0,0.06172839506172839,12.345679012345679,0)" xlink:href="#bH"/><use transform="matrix(0.06172839506172839,0,0,0.06172839506172839,24.691358024691358,0)" xlink:href="#cI"/><use transform="matrix(0.06172839506172839,0,0,0.06172839506172839,35.80246913580247,0)" xlink:href="#bF"/><use transform="matrix(0.06172839506172839,0,0,0.06172839506172839,48.148148148148145,0)" xlink:href="#bB"/><use transform="matrix(0.06172839506172839,0,0,0.06172839506172839,54.32098765432099,0)" xlink:href="#bP"/><use transform="matrix(0.06172839506172839,0,0,0.06172839506172839,59.19753086419753,0)" xlink:href="#bH"/><use transform="matrix(0.06172839506172839,0,0,0.06172839506172839,71.54320987654322,0)" xlink:href="#bT"/></g><g id="ac"><use transform="matrix(0.06172839506172839,0,0,0.06172839506172839,0,0)" xlink:href="#bJ"/><use transform="matrix(0.06172839506172839,0,0,0.06172839506172839,4.876543209876543,0)" xlink:href="#bP"/><use transform="matrix(0.06172839506172839,0,0,0.06172839506172839,9.753086419753085,0)" xlink:href="#bA"/><use transform="matrix(0.06172839506172839,0,0,0.06172839506172839,20.864197530864196,0)" xlink:href="#bB"/></g><filter id="Z" filterUnits="objectBoundingBox" x="-.06" y="-.05" width="1.12" height="1.25"><feOffset result="offOut" in="SourceAlpha" dy="6"/><feGaussianBlur result="blurOut" in="offOut" stdDeviation="5"/><feColorMatrix result="colorOut" in="blurOut" values="0 0 0 0 0 0 0 0 0 0 0 0 0 0 0 0 0 0 0.16862745098039217 0"/><feBlend in="SourceGraphic" in2="colorOut"/></filter><g id="ae"><use transform="matrix(0.06172839506172839,0,0,0.06172839506172839,0,0)" xlink:href="#bz"/><use transform="matrix(0.06172839506172839,0,0,0.06172839506172839,6.172839506172839,0)" xlink:href="#bT"/><use transform="matrix(0.06172839506172839,0,0,0.06172839506172839,18.51851851851852,0)" xlink:href="#ca"/><use transform="matrix(0.06172839506172839,0,0,0.06172839506172839,30.864197530864196,0)" xlink:href="#bP"/><use transform="matrix(0.06172839506172839,0,0,0.06172839506172839,35.74074074074074,0)" xlink:href="#cI"/><use transform="matrix(0.06172839506172839,0,0,0.06172839506172839,46.85185185185185,0)" xlink:href="#bF"/><use transform="matrix(0.06172839506172839,0,0,0.06172839506172839,59.197530864197525,0)" xlink:href="#bB"/><use transform="matrix(0.06172839506172839,0,0,0.06172839506172839,65.37037037037037,0)" xlink:href="#bH"/><use transform="matrix(0.06172839506172839,0,0,0.06172839506172839,77.71604938271605,0)" xlink:href="#bE"/><use transform="matrix(0.06172839506172839,0,0,0.06172839506172839,85.06172839506173,0)" xlink:href="#bA"/></g><path fill="#3d4752" d="M127-220V0H93v-220H8v-28h204v28h-85" id="cJ"/><path fill="#3d4752" d="M206 0h-36l-40-164L89 0H53L-1-190h32L70-26l43-164h34l41 164 42-164h31" id="cK"/><g id="af"><use transform="matrix(0.06172839506172839,0,0,0.06172839506172839,0,0)" xlink:href="#cJ"/><use transform="matrix(0.06172839506172839,0,0,0.06172839506172839,12.28395061728395,0)" xlink:href="#cK"/><use transform="matrix(0.06172839506172839,0,0,0.06172839506172839,28.2716049382716,0)" xlink:href="#bD"/><use transform="matrix(0.06172839506172839,0,0,0.06172839506172839,40.61728395061728,0)" xlink:href="#bD"/><use transform="matrix(0.06172839506172839,0,0,0.06172839506172839,52.962962962962955,0)" xlink:href="#bB"/><use transform="matrix(0.06172839506172839,0,0,0.06172839506172839,59.1358024691358,0)" xlink:href="#bA"/></g><g id="ag"><use transform="matrix(0.06172839506172839,0,0,0.06172839506172839,0,0)" xlink:href="#cc"/><use transform="matrix(0.06172839506172839,0,0,0.06172839506172839,15.987654320987653,0)" xlink:href="#bH"/><use transform="matrix(0.06172839506172839,0,0,0.06172839506172839,28.333333333333332,0)" xlink:href="#bK"/><use transform="matrix(0.06172839506172839,0,0,0.06172839506172839,46.79012345679012,0)" xlink:href="#bK"/><use transform="matrix(0.06172839506172839,0,0,0.06172839506172839,65.24691358024691,0)" xlink:href="#bD"/><use transform="matrix(0.06172839506172839,0,0,0.06172839506172839,77.5925925925926,0)" xlink:href="#bT"/><use transform="matrix(0.06172839506172839,0,0,0.06172839506172839,89.93827160493828,0)" xlink:href="#bB"/><use transform="matrix(0.06172839506172839,0,0,0.06172839506172839,96.11111111111111,0)" xlink:href="#bA"/></g><filter id="ad" filterUnits="objectBoundingBox" x="-.06" y="-.04" width="1.12" height="1.19"><feOffset result="offOut" in="SourceAlpha" dy="6"/><feGaussianBlur result="blurOut" in="offOut" stdDeviation="5"/><feColorMatrix result="colorOut" in="blurOut" values="0 0 0 0 0 0 0 0 0 0 0 0 0 0 0 0 0 0 0.16862745098039217 0"/><feBlend in="SourceGraphic" in2="colorOut"/></filter><g id="ai"><use transform="matrix(0.05525617283950617,0,0,0.05525617283950617,0,0)" xlink:href="#bB"/><use transform="matrix(0.05525617283950617,0,0,0.05525617283950617,5.525617283950617,0)" xlink:href="#bC"/><use transform="matrix(0.05525617283950617,0,0,0.05525617283950617,16.576851851851853,0)" xlink:href="#bP"/><use transform="matrix(0.05525617283950617,0,0,0.05525617283950617,20.94208950617284,0)" xlink:href="#bA"/></g><g id="aj"><use transform="matrix(0.05525617283950617,0,0,0.05525617283950617,0,0)" xlink:href="#bF"/><use transform="matrix(0.05525617283950617,0,0,0.05525617283950617,11.051234567901234,0)" xlink:href="#bT"/></g><g id="ak"><use transform="matrix(0.05525617283950617,0,0,0.05525617283950617,0,0)" xlink:href="#bP"/><use transform="matrix(0.05525617283950617,0,0,0.05525617283950617,4.365237654320987,0)" xlink:href="#bT"/><use transform="matrix(0.05525617283950617,0,0,0.05525617283950617,15.416472222222222,0)" xlink:href="#bB"/><use transform="matrix(0.05525617283950617,0,0,0.05525617283950617,20.942089506172838,0)" xlink:href="#bD"/><use transform="matrix(0.05525617283950617,0,0,0.05525617283950617,31.993324074074074,0)" xlink:href="#bE"/><use transform="matrix(0.05525617283950617,0,0,0.05525617283950617,38.56880864197531,0)" xlink:href="#bT"/><use transform="matrix(0.05525617283950617,0,0,0.05525617283950617,49.62004320987654,0)" xlink:href="#bF"/><use transform="matrix(0.05525617283950617,0,0,0.05525617283950617,60.671277777777775,0)" xlink:href="#bJ"/></g><g id="al"><use transform="matrix(0.05525617283950617,0,0,0.05525617283950617,0,0)" xlink:href="#bG"/><use transform="matrix(0.05525617283950617,0,0,0.05525617283950617,11.051234567901234,0)" xlink:href="#bE"/><use transform="matrix(0.05525617283950617,0,0,0.05525617283950617,17.626719135802468,0)" xlink:href="#bH"/><use transform="matrix(0.05525617283950617,0,0,0.05525617283950617,28.677953703703704,0)" xlink:href="#bI"/><use transform="matrix(0.05525617283950617,0,0,0.05525617283950617,39.72918827160493,0)" xlink:href="#bJ"/><use transform="matrix(0.05525617283950617,0,0,0.05525617283950617,44.09442592592592,0)" xlink:href="#bD"/><use transform="matrix(0.05525617283950617,0,0,0.05525617283950617,55.14566049382715,0)" xlink:href="#bK"/></g><use transform="matrix(0.05525617283950617,0,0,0.05525617283950617,0,0)" xlink:href="#bz" id="am"/><g id="an"><use transform="matrix(0.05525617283950617,0,0,0.05525617283950617,0,0)" xlink:href="#cI"/><use transform="matrix(0.05525617283950617,0,0,0.05525617283950617,9.946111111111112,0)" xlink:href="#bF"/><use transform="matrix(0.05525617283950617,0,0,0.05525617283950617,20.997345679012348,0)" xlink:href="#bT"/></g><path fill="#3d4752" d="M101-234c-31-9-42 10-38 44h38v23H63V0H32v-167H5v-23h27c-7-52 17-82 69-68v24" id="cL"/><path fill="#3d4752" d="M179-190L93 31C79 59 56 82 12 73V49c39 6 53-20 64-50L1-190h34L92-34l54-156h33" id="cM"/><g id="ao"><use transform="matrix(0.05525617283950617,0,0,0.05525617283950617,0,0)" xlink:href="#bS"/><use transform="matrix(0.05525617283950617,0,0,0.05525617283950617,9.946111111111112,0)" xlink:href="#bD"/><use transform="matrix(0.05525617283950617,0,0,0.05525617283950617,20.997345679012348,0)" xlink:href="#bE"/><use transform="matrix(0.05525617283950617,0,0,0.05525617283950617,27.572830246913583,0)" xlink:href="#bP"/><use transform="matrix(0.05525617283950617,0,0,0.05525617283950617,31.938067901234568,0)" xlink:href="#cL"/><use transform="matrix(0.05525617283950617,0,0,0.05525617283950617,37.463685185185184,0)" xlink:href="#cM"/><use transform="matrix(0.05525617283950617,0,0,0.05525617283950617,47.40979629629629,0)" xlink:href="#bL"/></g><filter id="ah" filterUnits="objectBoundingBox" x="-.05" y="-.02" width="1.09" height="1.12"><feOffset result="offOut" in="SourceAlpha" dy="6"/><feGaussianBlur result="blurOut" in="offOut" stdDeviation="5"/><feColorMatrix result="colorOut" in="blurOut" values="0 0 0 0 0 0 0 0 0 0 0 0 0 0 0 0 0 0 0.16862745098039217 0"/><feBlend in="SourceGraphic" in2="colorOut"/></filter><path fill="#fff" d="M63-220v92h138v28H63V0H30v-248h175v28H63" id="cN"/><path fill="#fff" d="M141 0L90-78 38 0H4l68-98-65-92h35l48 74 47-74h35l-64 92 68 98h-35" id="cO"/><g id="aq"><use transform="matrix(0.06172839506172839,0,0,0.06172839506172839,0,0)" xlink:href="#cN"/><use transform="matrix(0.06172839506172839,0,0,0.06172839506172839,13.518518518518517,0)" xlink:href="#bq"/><use transform="matrix(0.06172839506172839,0,0,0.06172839506172839,18.39506172839506,0)" xlink:href="#cO"/></g><g id="ar"><use transform="matrix(0.06172839506172839,0,0,0.06172839506172839,0,0)" xlink:href="#ck"/><use transform="matrix(0.06172839506172839,0,0,0.06172839506172839,12.345679012345679,0)" xlink:href="#bx"/><use transform="matrix(0.06172839506172839,0,0,0.06172839506172839,19.691358024691358,0)" xlink:href="#bw"/><use transform="matrix(0.06172839506172839,0,0,0.06172839506172839,32.03703703703704,0)" xlink:href="#bv"/><use transform="matrix(0.06172839506172839,0,0,0.06172839506172839,44.382716049382715,0)" xlink:href="#cl"/><use transform="matrix(0.06172839506172839,0,0,0.06172839506172839,49.25925925925926,0)" xlink:href="#bM"/><use transform="matrix(0.06172839506172839,0,0,0.06172839506172839,61.60493827160494,0)" xlink:href="#cj"/><use transform="matrix(0.06172839506172839,0,0,0.06172839506172839,80.06172839506172,0)" xlink:href="#cs"/></g><g id="as"><use transform="matrix(0.06172839506172839,0,0,0.06172839506172839,0,0)" xlink:href="#ct"/><use transform="matrix(0.06172839506172839,0,0,0.06172839506172839,6.172839506172839,0)" xlink:href="#br"/><use transform="matrix(0.06172839506172839,0,0,0.06172839506172839,18.51851851851852,0)" xlink:href="#ci"/><use transform="matrix(0.06172839506172839,0,0,0.06172839506172839,24.691358024691358,0)" xlink:href="#bw"/><use transform="matrix(0.06172839506172839,0,0,0.06172839506172839,37.03703703703704,0)" xlink:href="#bx"/><use transform="matrix(0.06172839506172839,0,0,0.06172839506172839,44.382716049382715,0)" xlink:href="#cj"/></g><g id="at"><use transform="matrix(0.06172839506172839,0,0,0.06172839506172839,0,0)" xlink:href="#co"/><use transform="matrix(0.06172839506172839,0,0,0.06172839506172839,11.11111111111111,0)" xlink:href="#cp"/><use transform="matrix(0.06172839506172839,0,0,0.06172839506172839,23.45679012345679,0)" xlink:href="#bt"/><use transform="matrix(0.06172839506172839,0,0,0.06172839506172839,34.5679012345679,0)" xlink:href="#cn"/><use transform="matrix(0.06172839506172839,0,0,0.06172839506172839,40.74074074074074,0)" xlink:href="#bw"/><use transform="matrix(0.06172839506172839,0,0,0.06172839506172839,53.08641975308642,0)" xlink:href="#cj"/><use transform="matrix(0.06172839506172839,0,0,0.06172839506172839,71.5432098765432,0)" xlink:href="#bM"/><use transform="matrix(0.06172839506172839,0,0,0.06172839506172839,83.88888888888889,0)" xlink:href="#bx"/><use transform="matrix(0.06172839506172839,0,0,0.06172839506172839,91.23456790123457,0)" xlink:href="#bt"/></g><filter id="ap" filterUnits="objectBoundingBox" x="-.04" y="-.04" width="1.08" height="1.18"><feOffset result="offOut" in="SourceAlpha" dy="6"/><feGaussianBlur result="blurOut" in="offOut" stdDeviation="5"/><feColorMatrix result="colorOut" in="blurOut" values="0 0 0 0 0 0 0 0 0 0 0 0 0 0 0 0 0 0 0.16862745098039217 0"/><feBlend in="SourceGraphic" in2="colorOut"/></filter><path fill="#3d4752" d="M158-156l-14 65h45v19h-49L124 0h-19l15-72H56L41 0H22l15-72H2v-19h39l14-65H11v-19h48l15-71h20l-16 71h64l16-71h19l-16 71h37v19h-40zm-83 0L61-91h63l14-65H75" id="cP"/><use transform="matrix(0.06172839506172839,0,0,0.06172839506172839,0,0)" xlink:href="#cP" id="av"/><path fill="#3d4752" d="M233-177c-1 41-23 64-60 70L243 0h-38l-65-103H63V0H30v-248c88 3 205-21 203 71zM63-129c60-2 137 13 137-47 0-61-80-42-137-45v92" id="cQ"/><g id="aw"><use transform="matrix(0.06172839506172839,0,0,0.06172839506172839,0,0)" xlink:href="#cQ"/><use transform="matrix(0.06172839506172839,0,0,0.06172839506172839,15.987654320987653,0)" xlink:href="#bD"/><use transform="matrix(0.06172839506172839,0,0,0.06172839506172839,28.333333333333332,0)" xlink:href="#bG"/><use transform="matrix(0.06172839506172839,0,0,0.06172839506172839,40.67901234567901,0)" xlink:href="#bH"/><use transform="matrix(0.06172839506172839,0,0,0.06172839506172839,53.02469135802469,0)" xlink:href="#bE"/><use transform="matrix(0.06172839506172839,0,0,0.06172839506172839,60.37037037037037,0)" xlink:href="#bB"/><use transform="matrix(0.06172839506172839,0,0,0.06172839506172839,66.5432098765432,0)" xlink:href="#bA"/></g><g id="ax"><use transform="matrix(0.06172839506172839,0,0,0.06172839506172839,0,0)" xlink:href="#cJ"/><use transform="matrix(0.06172839506172839,0,0,0.06172839506172839,13.518518518518517,0)" xlink:href="#bC"/><use transform="matrix(0.06172839506172839,0,0,0.06172839506172839,25.864197530864196,0)" xlink:href="#bE"/><use transform="matrix(0.06172839506172839,0,0,0.06172839506172839,33.20987654320987,0)" xlink:href="#bD"/><use transform="matrix(0.06172839506172839,0,0,0.06172839506172839,45.55555555555555,0)" xlink:href="#bA"/><use transform="matrix(0.06172839506172839,0,0,0.06172839506172839,56.66666666666666,0)" xlink:href="#bC"/><use transform="matrix(0.06172839506172839,0,0,0.06172839506172839,69.01234567901234,0)" xlink:href="#bH"/><use transform="matrix(0.06172839506172839,0,0,0.06172839506172839,81.35802469135803,0)" xlink:href="#bJ"/><use transform="matrix(0.06172839506172839,0,0,0.06172839506172839,86.23456790123457,0)" xlink:href="#ca"/></g><g id="ay"><use transform="matrix(0.06172839506172839,0,0,0.06172839506172839,0,0)" xlink:href="#cJ"/><use transform="matrix(0.06172839506172839,0,0,0.06172839506172839,12.716049382716047,0)" xlink:href="#bE"/><use transform="matrix(0.06172839506172839,0,0,0.06172839506172839,20.061728395061728,0)" xlink:href="#bD"/><use transform="matrix(0.06172839506172839,0,0,0.06172839506172839,32.407407407407405,0)" xlink:href="#bT"/><use transform="matrix(0.06172839506172839,0,0,0.06172839506172839,44.75308641975308,0)" xlink:href="#ca"/><use transform="matrix(0.06172839506172839,0,0,0.06172839506172839,57.09876543209876,0)" xlink:href="#bP"/><use transform="matrix(0.06172839506172839,0,0,0.06172839506172839,61.9753086419753,0)" xlink:href="#bT"/><use transform="matrix(0.06172839506172839,0,0,0.06172839506172839,74.32098765432099,0)" xlink:href="#bU"/></g><filter id="au" filterUnits="objectBoundingBox" x="-.06" y="-.03" width="1.13" height="1.16"><feOffset result="offOut" in="SourceAlpha" dy="6"/><feGaussianBlur result="blurOut" in="offOut" stdDeviation="5"/><feColorMatrix result="colorOut" in="blurOut" values="0 0 0 0 0 0 0 0 0 0 0 0 0 0 0 0 0 0 0.16862745098039217 0"/><feBlend in="SourceGraphic" in2="colorOut"/></filter><path fill="#fff" d="M68-38c1 34 0 65-14 84H32c9-13 17-26 17-46H33v-38h35" id="cR"/><g id="aA"><use transform="matrix(0.05525617283950617,0,0,0.05525617283950617,0,0)" xlink:href="#ck"/><use transform="matrix(0.05525617283950617,0,0,0.05525617283950617,11.051234567901234,0)" xlink:href="#bx"/><use transform="matrix(0.05525617283950617,0,0,0.05525617283950617,17.626719135802468,0)" xlink:href="#bw"/><use transform="matrix(0.05525617283950617,0,0,0.05525617283950617,28.677953703703704,0)" xlink:href="#bv"/><use transform="matrix(0.05525617283950617,0,0,0.05525617283950617,39.72918827160493,0)" xlink:href="#cl"/><use transform="matrix(0.05525617283950617,0,0,0.05525617283950617,44.09442592592592,0)" xlink:href="#bM"/><use transform="matrix(0.05525617283950617,0,0,0.05525617283950617,55.14566049382715,0)" xlink:href="#cj"/><use transform="matrix(0.05525617283950617,0,0,0.05525617283950617,71.6672561728395,0)" xlink:href="#cR"/></g><g id="aB"><use transform="matrix(0.05525617283950617,0,0,0.05525617283950617,0,0)" xlink:href="#bp"/><use transform="matrix(0.05525617283950617,0,0,0.05525617283950617,11.051234567901234,0)" xlink:href="#ck"/><use transform="matrix(0.05525617283950617,0,0,0.05525617283950617,22.10246913580247,0)" xlink:href="#ck"/><use transform="matrix(0.05525617283950617,0,0,0.05525617283950617,33.153703703703705,0)" xlink:href="#bx"/><use transform="matrix(0.05525617283950617,0,0,0.05525617283950617,39.72918827160494,0)" xlink:href="#bw"/><use transform="matrix(0.05525617283950617,0,0,0.05525617283950617,50.78042283950617,0)" xlink:href="#ck"/><use transform="matrix(0.05525617283950617,0,0,0.05525617283950617,61.831657407407405,0)" xlink:href="#bx"/><use transform="matrix(0.05525617283950617,0,0,0.05525617283950617,68.40714197530863,0)" xlink:href="#bq"/><use transform="matrix(0.05525617283950617,0,0,0.05525617283950617,72.77237962962963,0)" xlink:href="#bp"/><use transform="matrix(0.05525617283950617,0,0,0.05525617283950617,83.82361419753086,0)" xlink:href="#cn"/><use transform="matrix(0.05525617283950617,0,0,0.05525617283950617,89.34923148148148,0)" xlink:href="#bM"/></g><g id="aC"><use transform="matrix(0.05525617283950617,0,0,0.05525617283950617,0,0)" xlink:href="#cn"/><use transform="matrix(0.05525617283950617,0,0,0.05525617283950617,5.525617283950617,0)" xlink:href="#bM"/><use transform="matrix(0.05525617283950617,0,0,0.05525617283950617,16.576851851851853,0)" xlink:href="#bp"/><use transform="matrix(0.05525617283950617,0,0,0.05525617283950617,27.62808641975309,0)" xlink:href="#cj"/><use transform="matrix(0.05525617283950617,0,0,0.05525617283950617,44.14968209876544,0)" xlink:href="#cs"/></g><filter id="az" filterUnits="objectBoundingBox" x="-.03" y="-.03" width="1.07" height="1.17"><feOffset result="offOut" in="SourceAlpha" dy="6"/><feGaussianBlur result="blurOut" in="offOut" stdDeviation="5"/><feColorMatrix result="colorOut" in="blurOut" values="0 0 0 0 0 0 0 0 0 0 0 0 0 0 0 0 0 0 0.16862745098039217 0"/><feBlend in="SourceGraphic" in2="colorOut"/></filter><g id="aD"><use transform="matrix(0.05525617283950617,0,0,0.05525617283950617,0,0)" xlink:href="#cc"/><use transform="matrix(0.05525617283950617,0,0,0.05525617283950617,14.311348765432099,0)" xlink:href="#bF"/><use transform="matrix(0.05525617283950617,0,0,0.05525617283950617,25.362583333333333,0)" xlink:href="#bT"/></g><use transform="matrix(0.05525617283950617,0,0,0.05525617283950617,0,0)" xlink:href="#bz" id="aE"/><g id="aF"><use transform="matrix(0.05525617283950617,0,0,0.05525617283950617,0,0)" xlink:href="#cL"/><use transform="matrix(0.05525617283950617,0,0,0.05525617283950617,5.525617283950617,0)" xlink:href="#bP"/><use transform="matrix(0.05525617283950617,0,0,0.05525617283950617,9.890854938271605,0)" xlink:href="#bU"/><use transform="matrix(0.05525617283950617,0,0,0.05525617283950617,20.94208950617284,0)" xlink:href="#bR"/><use transform="matrix(0.05525617283950617,0,0,0.05525617283950617,31.993324074074074,0)" xlink:href="#bE"/><use transform="matrix(0.05525617283950617,0,0,0.05525617283950617,38.56880864197531,0)" xlink:href="#bD"/></g><g id="aG"><use transform="matrix(0.05525617283950617,0,0,0.05525617283950617,0,0)" xlink:href="#bH"/><use transform="matrix(0.05525617283950617,0,0,0.05525617283950617,11.051234567901234,0)" xlink:href="#bR"/><use transform="matrix(0.05525617283950617,0,0,0.05525617283950617,22.10246913580247,0)" xlink:href="#bB"/></g><g id="aH"><use transform="matrix(0.05525617283950617,0,0,0.05525617283950617,0,0)" xlink:href="#cK"/><use transform="matrix(0.05525617283950617,0,0,0.05525617283950617,14.311348765432099,0)" xlink:href="#bC"/><use transform="matrix(0.05525617283950617,0,0,0.05525617283950617,25.362583333333333,0)" xlink:href="#bF"/><use transform="matrix(0.05525617283950617,0,0,0.05525617283950617,36.413817901234566,0)" xlink:href="#bB"/></g><g id="aI"><use transform="matrix(0.05525617283950617,0,0,0.05525617283950617,0,0)" xlink:href="#bB"/><use transform="matrix(0.05525617283950617,0,0,0.05525617283950617,5.525617283950617,0)" xlink:href="#bC"/><use transform="matrix(0.05525617283950617,0,0,0.05525617283950617,16.576851851851853,0)" xlink:href="#bD"/></g><g id="aJ"><use transform="matrix(0.05525617283950617,0,0,0.05525617283950617,0,0)" xlink:href="#bG"/><use transform="matrix(0.05525617283950617,0,0,0.05525617283950617,11.051234567901234,0)" xlink:href="#bE"/><use transform="matrix(0.05525617283950617,0,0,0.05525617283950617,17.626719135802468,0)" xlink:href="#bH"/><use transform="matrix(0.05525617283950617,0,0,0.05525617283950617,28.677953703703704,0)" xlink:href="#bI"/><use transform="matrix(0.05525617283950617,0,0,0.05525617283950617,39.72918827160493,0)" xlink:href="#bJ"/><use transform="matrix(0.05525617283950617,0,0,0.05525617283950617,44.09442592592592,0)" xlink:href="#bD"/><use transform="matrix(0.05525617283950617,0,0,0.05525617283950617,55.14566049382715,0)" xlink:href="#bK"/></g><g id="aK"><use transform="matrix(0.05525617283950617,0,0,0.05525617283950617,0,0)" xlink:href="#bP"/><use transform="matrix(0.05525617283950617,0,0,0.05525617283950617,4.365237654320987,0)" xlink:href="#bA"/><use transform="matrix(0.05525617283950617,0,0,0.05525617283950617,14.311348765432099,0)" xlink:href="#bL"/></g><g id="aL"><use transform="matrix(0.05525617283950617,0,0,0.05525617283950617,0,0)" xlink:href="#bA"/><use transform="matrix(0.05525617283950617,0,0,0.05525617283950617,9.946111111111112,0)" xlink:href="#bB"/><use transform="matrix(0.05525617283950617,0,0,0.05525617283950617,15.471728395061728,0)" xlink:href="#bP"/><use transform="matrix(0.05525617283950617,0,0,0.05525617283950617,19.836966049382717,0)" xlink:href="#bJ"/><use transform="matrix(0.05525617283950617,0,0,0.05525617283950617,24.202203703703702,0)" xlink:href="#bJ"/></g><use transform="matrix(0.05525617283950617,0,0,0.05525617283950617,0,0)" xlink:href="#bF" id="aM"/><g id="aN"><use transform="matrix(0.05525617283950617,0,0,0.05525617283950617,0,0)" xlink:href="#ch"/><use transform="matrix(0.05525617283950617,0,0,0.05525617283950617,14.311348765432099,0)" xlink:href="#bw"/><use transform="matrix(0.05525617283950617,0,0,0.05525617283950617,25.362583333333333,0)" xlink:href="#br"/><use transform="matrix(0.05525617283950617,0,0,0.05525617283950617,36.413817901234566,0)" xlink:href="#cn"/><use transform="matrix(0.05525617283950617,0,0,0.05525617283950617,41.93943518518518,0)" xlink:href="#bq"/><use transform="matrix(0.05525617283950617,0,0,0.05525617283950617,46.30467283950617,0)" xlink:href="#br"/><use transform="matrix(0.05525617283950617,0,0,0.05525617283950617,57.35590740740741,0)" xlink:href="#cp"/><use transform="matrix(0.05525617283950617,0,0,0.05525617283950617,68.40714197530863,0)" xlink:href="#bM"/></g><g id="aO"><use transform="matrix(0.05525617283950617,0,0,0.05525617283950617,0,0)" xlink:href="#cn"/><use transform="matrix(0.05525617283950617,0,0,0.05525617283950617,5.525617283950617,0)" xlink:href="#bw"/></g><g id="aP"><use transform="matrix(0.05525617283950617,0,0,0.05525617283950617,0,0)" xlink:href="#cj"/><use transform="matrix(0.05525617283950617,0,0,0.05525617283950617,16.521595679012346,0)" xlink:href="#bw"/><use transform="matrix(0.05525617283950617,0,0,0.05525617283950617,27.572830246913583,0)" xlink:href="#br"/><use transform="matrix(0.05525617283950617,0,0,0.05525617283950617,38.624064814814815,0)" xlink:href="#bq"/><use transform="matrix(0.05525617283950617,0,0,0.05525617283950617,42.9893024691358,0)" xlink:href="#cn"/><use transform="matrix(0.05525617283950617,0,0,0.05525617283950617,48.51491975308642,0)" xlink:href="#bw"/><use transform="matrix(0.05525617283950617,0,0,0.05525617283950617,59.56615432098766,0)" xlink:href="#bx"/><use transform="matrix(0.05525617283950617,0,0,0.05525617283950617,65.03651543209875,0)" xlink:href="#cR"/></g><g id="aQ"><use transform="matrix(0.05525617283950617,0,0,0.05525617283950617,0,0)" xlink:href="#ci"/><use transform="matrix(0.05525617283950617,0,0,0.05525617283950617,5.525617283950617,0)" xlink:href="#bM"/><use transform="matrix(0.05525617283950617,0,0,0.05525617283950617,16.576851851851853,0)" xlink:href="#bM"/><use transform="matrix(0.05525617283950617,0,0,0.05525617283950617,27.62808641975309,0)" xlink:href="#cl"/></g><g id="aR"><use transform="matrix(0.05525617283950617,0,0,0.05525617283950617,0,0)" xlink:href="#co"/><use transform="matrix(0.05525617283950617,0,0,0.05525617283950617,9.946111111111112,0)" xlink:href="#bw"/><use transform="matrix(0.05525617283950617,0,0,0.05525617283950617,20.997345679012348,0)" xlink:href="#br"/><use transform="matrix(0.05525617283950617,0,0,0.05525617283950617,32.04858024691358,0)" xlink:href="#ci"/><use transform="matrix(0.05525617283950617,0,0,0.05525617283950617,37.5741975308642,0)" xlink:href="#cp"/><use transform="matrix(0.05525617283950617,0,0,0.05525617283950617,48.62543209876543,0)" xlink:href="#bt"/><use transform="matrix(0.05525617283950617,0,0,0.05525617283950617,58.571543209876545,0)" xlink:href="#bM"/><use transform="matrix(0.05525617283950617,0,0,0.05525617283950617,69.62277777777777,0)" xlink:href="#by"/></g><g id="aS"><use transform="matrix(0.05525617283950617,0,0,0.05525617283950617,0,0)" xlink:href="#bp"/><use transform="matrix(0.05525617283950617,0,0,0.05525617283950617,11.051234567901234,0)" xlink:href="#br"/><use transform="matrix(0.05525617283950617,0,0,0.05525617283950617,22.10246913580247,0)" xlink:href="#by"/></g><path fill="#fff" d="M179-190L93 31C79 59 56 82 12 73V49c39 6 53-20 64-50L1-190h34L92-34l54-156h33" id="cS"/><g id="aT"><use transform="matrix(0.05525617283950617,0,0,0.05525617283950617,0,0)" xlink:href="#bp"/><use transform="matrix(0.05525617283950617,0,0,0.05525617283950617,11.051234567901234,0)" xlink:href="#br"/><use transform="matrix(0.05525617283950617,0,0,0.05525617283950617,22.10246913580247,0)" xlink:href="#br"/><use transform="matrix(0.05525617283950617,0,0,0.05525617283950617,33.153703703703705,0)" xlink:href="#bw"/><use transform="matrix(0.05525617283950617,0,0,0.05525617283950617,44.20493827160494,0)" xlink:href="#cS"/><use transform="matrix(0.05525617283950617,0,0,0.05525617283950617,54.15104938271605,0)" xlink:href="#bM"/><use transform="matrix(0.05525617283950617,0,0,0.05525617283950617,65.20228395061729,0)" xlink:href="#by"/></g><g id="aU"><use transform="matrix(0.05525617283950617,0,0,0.05525617283950617,0,0)" xlink:href="#bv"/><use transform="matrix(0.05525617283950617,0,0,0.05525617283950617,11.051234567901234,0)" xlink:href="#cS"/></g><g id="aV"><use transform="matrix(0.05525617283950617,0,0,0.05525617283950617,0,0)" xlink:href="#cn"/><use transform="matrix(0.05525617283950617,0,0,0.05525617283950617,5.525617283950617,0)" xlink:href="#bu"/><use transform="matrix(0.05525617283950617,0,0,0.05525617283950617,16.576851851851853,0)" xlink:href="#bM"/></g><g id="aW"><use transform="matrix(0.05525617283950617,0,0,0.05525617283950617,0,0)" xlink:href="#ci"/><use transform="matrix(0.05525617283950617,0,0,0.05525617283950617,5.525617283950617,0)" xlink:href="#bp"/><use transform="matrix(0.05525617283950617,0,0,0.05525617283950617,16.576851851851853,0)" xlink:href="#cl"/><use transform="matrix(0.05525617283950617,0,0,0.05525617283950617,20.94208950617284,0)" xlink:href="#bt"/><use transform="matrix(0.05525617283950617,0,0,0.05525617283950617,30.88820061728395,0)" xlink:href="#bM"/></g><g id="aX"><use transform="matrix(0.05525617283950617,0,0,0.05525617283950617,0,0)" xlink:href="#ck"/><use transform="matrix(0.05525617283950617,0,0,0.05525617283950617,11.051234567901234,0)" xlink:href="#bw"/><use transform="matrix(0.05525617283950617,0,0,0.05525617283950617,22.10246913580247,0)" xlink:href="#bt"/><use transform="matrix(0.05525617283950617,0,0,0.05525617283950617,32.04858024691358,0)" xlink:href="#bq"/><use transform="matrix(0.05525617283950617,0,0,0.05525617283950617,36.413817901234566,0)" xlink:href="#cn"/><use transform="matrix(0.05525617283950617,0,0,0.05525617283950617,41.93943518518518,0)" xlink:href="#bq"/><use transform="matrix(0.05525617283950617,0,0,0.05525617283950617,46.30467283950617,0)" xlink:href="#cr"/><use transform="matrix(0.05525617283950617,0,0,0.05525617283950617,56.250783950617276,0)" xlink:href="#bM"/></g><g id="aZ"><use transform="matrix(0.05525617283950617,0,0,0.05525617283950617,0,0)" xlink:href="#cj"/><use transform="matrix(0.05525617283950617,0,0,0.05525617283950617,16.521595679012346,0)" xlink:href="#bw"/><use transform="matrix(0.05525617283950617,0,0,0.05525617283950617,27.572830246913583,0)" xlink:href="#br"/><use transform="matrix(0.05525617283950617,0,0,0.05525617283950617,38.624064814814815,0)" xlink:href="#bq"/><use transform="matrix(0.05525617283950617,0,0,0.05525617283950617,42.9893024691358,0)" xlink:href="#cn"/><use transform="matrix(0.05525617283950617,0,0,0.05525617283950617,48.51491975308642,0)" xlink:href="#bw"/><use transform="matrix(0.05525617283950617,0,0,0.05525617283950617,59.56615432098766,0)" xlink:href="#bx"/><use transform="matrix(0.05525617283950617,0,0,0.05525617283950617,65.03651543209875,0)" xlink:href="#cR"/></g><g id="ba"><use transform="matrix(0.05525617283950617,0,0,0.05525617283950617,0,0)" xlink:href="#bu"/><use transform="matrix(0.05525617283950617,0,0,0.05525617283950617,11.051234567901234,0)" xlink:href="#bw"/><use transform="matrix(0.05525617283950617,0,0,0.05525617283950617,22.10246913580247,0)" xlink:href="#ck"/><use transform="matrix(0.05525617283950617,0,0,0.05525617283950617,33.153703703703705,0)" xlink:href="#bM"/></g><g id="bb"><use transform="matrix(0.05525617283950617,0,0,0.05525617283950617,0,0)" xlink:href="#cj"/><use transform="matrix(0.05525617283950617,0,0,0.05525617283950617,16.521595679012346,0)" xlink:href="#bw"/><use transform="matrix(0.05525617283950617,0,0,0.05525617283950617,27.572830246913583,0)" xlink:href="#bx"/><use transform="matrix(0.05525617283950617,0,0,0.05525617283950617,34.14831481481482,0)" xlink:href="#bM"/></g><g id="bc"><use transform="matrix(0.05525617283950617,0,0,0.05525617283950617,0,0)" xlink:href="#bq"/><use transform="matrix(0.05525617283950617,0,0,0.05525617283950617,4.365237654320987,0)" xlink:href="#br"/><use transform="matrix(0.05525617283950617,0,0,0.05525617283950617,15.416472222222222,0)" xlink:href="#ci"/><use transform="matrix(0.05525617283950617,0,0,0.05525617283950617,20.942089506172838,0)" xlink:href="#bw"/><use transform="matrix(0.05525617283950617,0,0,0.05525617283950617,31.993324074074074,0)" xlink:href="#bx"/><use transform="matrix(0.05525617283950617,0,0,0.05525617283950617,38.56880864197531,0)" xlink:href="#cj"/><use transform="matrix(0.05525617283950617,0,0,0.05525617283950617,55.09040432098766,0)" xlink:href="#bp"/><use transform="matrix(0.05525617283950617,0,0,0.05525617283950617,66.14163888888889,0)" xlink:href="#cn"/><use transform="matrix(0.05525617283950617,0,0,0.05525617283950617,71.66725617283952,0)" xlink:href="#bq"/><use transform="matrix(0.05525617283950617,0,0,0.05525617283950617,76.03249382716051,0)" xlink:href="#bw"/><use transform="matrix(0.05525617283950617,0,0,0.05525617283950617,87.08372839506174,0)" xlink:href="#br"/></g><g id="bd"><use transform="matrix(0.05525617283950617,0,0,0.05525617283950617,0,0)" xlink:href="#co"/><use transform="matrix(0.05525617283950617,0,0,0.05525617283950617,9.946111111111112,0)" xlink:href="#bw"/><use transform="matrix(0.05525617283950617,0,0,0.05525617283950617,20.997345679012348,0)" xlink:href="#cj"/><use transform="matrix(0.05525617283950617,0,0,0.05525617283950617,37.51894135802469,0)" xlink:href="#bM"/><use transform="matrix(0.05525617283950617,0,0,0.05525617283950617,48.57017592592592,0)" xlink:href="#bt"/></g><g id="be"><use transform="matrix(0.05525617283950617,0,0,0.05525617283950617,0,0)" xlink:href="#bq"/><use transform="matrix(0.05525617283950617,0,0,0.05525617283950617,4.365237654320987,0)" xlink:href="#br"/><use transform="matrix(0.05525617283950617,0,0,0.05525617283950617,15.416472222222222,0)" xlink:href="#cR"/></g><g id="bf"><use transform="matrix(0.05525617283950617,0,0,0.05525617283950617,0,0)" xlink:href="#bt"/><use transform="matrix(0.05525617283950617,0,0,0.05525617283950617,9.946111111111112,0)" xlink:href="#cn"/><use transform="matrix(0.05525617283950617,0,0,0.05525617283950617,15.471728395061728,0)" xlink:href="#bp"/><use transform="matrix(0.05525617283950617,0,0,0.05525617283950617,26.522962962962964,0)" xlink:href="#bx"/><use transform="matrix(0.05525617283950617,0,0,0.05525617283950617,33.0984475308642,0)" xlink:href="#cn"/></g><g id="bg"><use transform="matrix(0.05525617283950617,0,0,0.05525617283950617,0,0)" xlink:href="#bw"/><use transform="matrix(0.05525617283950617,0,0,0.05525617283950617,11.051234567901234,0)" xlink:href="#cr"/><use transform="matrix(0.05525617283950617,0,0,0.05525617283950617,20.997345679012348,0)" xlink:href="#bM"/><use transform="matrix(0.05525617283950617,0,0,0.05525617283950617,32.04858024691358,0)" xlink:href="#bx"/></g><g id="bh"><use transform="matrix(0.05525617283950617,0,0,0.05525617283950617,0,0)" xlink:href="#bt"/><use transform="matrix(0.05525617283950617,0,0,0.05525617283950617,9.946111111111112,0)" xlink:href="#bM"/><use transform="matrix(0.05525617283950617,0,0,0.05525617283950617,20.997345679012348,0)" xlink:href="#bM"/></g><g id="bi"><use transform="matrix(0.05525617283950617,0,0,0.05525617283950617,0,0)" xlink:href="#bq"/><use transform="matrix(0.05525617283950617,0,0,0.05525617283950617,4.365237654320987,0)" xlink:href="#ci"/></g><use transform="matrix(0.05525617283950617,0,0,0.05525617283950617,0,0)" xlink:href="#ct" id="bj"/><g id="bk"><use transform="matrix(0.05525617283950617,0,0,0.05525617283950617,0,0)" xlink:href="#cj"/><use transform="matrix(0.05525617283950617,0,0,0.05525617283950617,16.521595679012346,0)" xlink:href="#bq"/><use transform="matrix(0.05525617283950617,0,0,0.05525617283950617,20.886833333333335,0)" xlink:href="#bt"/><use transform="matrix(0.05525617283950617,0,0,0.05525617283950617,30.832944444444443,0)" xlink:href="#bt"/><use transform="matrix(0.05525617283950617,0,0,0.05525617283950617,40.77905555555556,0)" xlink:href="#bM"/><use transform="matrix(0.05525617283950617,0,0,0.05525617283950617,51.83029012345679,0)" xlink:href="#by"/></g><path fill="#fff" d="M177-190C167-65 218 103 67 71c-23-6-38-20-44-43l32-5c15 47 100 32 89-28v-30C133-14 115 1 83 1 29 1 15-40 15-95c0-56 16-97 71-98 29-1 48 16 59 35 1-10 0-23 2-32h30zM94-22c36 0 50-32 50-73 0-42-14-75-50-75-39 0-46 34-46 75s6 73 46 73" id="cT"/><g id="bl"><use transform="matrix(0.05525617283950617,0,0,0.05525617283950617,0,0)" xlink:href="#bt"/><use transform="matrix(0.05525617283950617,0,0,0.05525617283950617,9.946111111111112,0)" xlink:href="#bw"/><use transform="matrix(0.05525617283950617,0,0,0.05525617283950617,20.997345679012348,0)" xlink:href="#cj"/><use transform="matrix(0.05525617283950617,0,0,0.05525617283950617,37.51894135802469,0)" xlink:href="#bM"/><use transform="matrix(0.05525617283950617,0,0,0.05525617283950617,48.57017592592592,0)" xlink:href="#cn"/><use transform="matrix(0.05525617283950617,0,0,0.05525617283950617,54.09579320987654,0)" xlink:href="#bu"/><use transform="matrix(0.05525617283950617,0,0,0.05525617283950617,65.14702777777778,0)" xlink:href="#bq"/><use transform="matrix(0.05525617283950617,0,0,0.05525617283950617,69.51226543209877,0)" xlink:href="#br"/><use transform="matrix(0.05525617283950617,0,0,0.05525617283950617,80.5635,0)" xlink:href="#cT"/><use transform="matrix(0.05525617283950617,0,0,0.05525617283950617,91.61473456790124,0)" xlink:href="#cs"/></g><filter id="aY" filterUnits="objectBoundingBox" x="-.04" y="-.03" width="1.09" height="1.13"><feOffset result="offOut" in="SourceAlpha" dy="6"/><feGaussianBlur result="blurOut" in="offOut" stdDeviation="5"/><feColorMatrix result="colorOut" in="blurOut" values="0 0 0 0 0 0 0 0 0 0 0 0 0 0 0 0 0 0 0.16862745098039217 0"/><feBlend in="SourceGraphic" in2="colorOut"/></filter><path fill="#fff" d="M185-189c-5-48-123-54-124 2 14 75 158 14 163 119 3 78-121 87-175 55-17-10-28-26-33-46l33-7c5 56 141 63 141-1 0-78-155-14-162-118-5-82 145-84 179-34 5 7 8 16 11 25" id="cU"/><g id="bm"><use transform="matrix(0.06172839506172839,0,0,0.06172839506172839,0,0)" xlink:href="#cU"/><use transform="matrix(0.06172839506172839,0,0,0.06172839506172839,14.814814814814813,0)" xlink:href="#bq"/><use transform="matrix(0.06172839506172839,0,0,0.06172839506172839,19.691358024691354,0)" xlink:href="#cT"/><use transform="matrix(0.06172839506172839,0,0,0.06172839506172839,32.03703703703703,0)" xlink:href="#br"/></g><g id="bn"><use transform="matrix(0.06172839506172839,0,0,0.06172839506172839,0,0)" xlink:href="#ct"/><use transform="matrix(0.06172839506172839,0,0,0.06172839506172839,6.172839506172839,0)" xlink:href="#br"/></g></defs></g></svg>