<?xml version="1.0" encoding="UTF-8"?>
<svg width="1440px" height="275px" viewBox="0 0 1440 275" version="1.1" xmlns="http://www.w3.org/2000/svg" xmlns:xlink="http://www.w3.org/1999/xlink">
    <!-- Generator: Sketch 64 (93537) - https://sketch.com -->
    <title>Group 4</title>
    <desc>Created with Sketch.</desc>
    <g id="DD-Enterprise-PDF" stroke="none" stroke-width="1" fill="none" fill-rule="evenodd">
        <g id="DD-Enterprise-Page-1" transform="translate(0.000000, -619.000000)">
            <g id="Group-4" transform="translate(0.000000, 619.000000)">
                <path d="M0,246.652949 L16.798163,226.674324 L29.29274,155.510572 L48.0346055,176.802216 L60.5291825,204.690596 L79.271048,189.852827 L91.765625,155.510572 L116.754779,0 L135.496645,155.510572 L154.23851,140.392144 L179.227664,159.290178 C186.403167,171.66317 190.568026,177.500515 191.722241,176.802216 C192.876456,176.103916 199.123744,187.688477 210.464107,211.555897 L225.203125,176.802216 L239.195313,126.221291 L256.439568,180.581823 L279.18428,221.004914 L291.678857,238.013145 L310.420723,234.233538 L329.162588,238.013145 L347.904454,230.453931 L379.140896,230.453931 L397.882762,226.674324 L422.871916,241.792752 L435.366493,234.233538 L447.86107,241.792752 L472.850224,241.792752 L499.78308,269.33059 L516.581243,256.101966 L543.5141,263.66118 L580.997831,234.233538 L616.101563,256.101966 L662.212581,256.101966 L687.201735,269.33059 L712.190889,256.101966 L724.685466,263.66118 L749.423828,224.986824 L775.009766,249.124352 L794.023438,238.013145 L816.921875,263.66118 L855.171875,256.101966 L876.515625,246.652949 C887.746712,257.991769 893.362256,263.66118 893.362256,263.66118 C893.362256,263.66118 903.774403,263.66118 924.598698,263.66118 L938.703125,238.013145 L977.5625,246.652949 L998.609375,263.66118 L1028.40735,244.763146 L1051.12325,221.004914 L1069.86512,232.343735 L1101.10156,221.004914 L1126.09072,226.674324 L1147.10583,263.66118 L1176.06902,226.674324 L1211.80248,234.233538 L1224.29706,213.445701 L1255.5335,228.564128 L1293.01723,217.225307 L1311.7591,232.343735 L1342.99554,221.004914 L1355.49012,232.343735 L1374.23199,202.10688 L1400.97141,232.343735 L1419.71328,232.343735 L1440,275 L0,275" id="Path-2-Copy" fill="#FF160A" transform="translate(720.000000, 137.500000) scale(-1, 1) translate(-720.000000, -137.500000) "></path>
                <path d="M724.816422,272.00986 L720.714005,273.5 L733.021258,273.5 L724.816422,272.00986 Z M782.411063,273.5 L793.526934,273.5 L782.411063,272.154111 L782.411063,273.5 Z M1380.63241,218.473791 L1362.20427,242.273744 L1349.12722,232.773678 L1317.93916,241.836543 L1299.16322,229.711975 L1261.84856,238.747956 L1231.23324,226.886045 L1219.01522,243.15874 L1181.04329,246.223788 L1149.3473,256.969326 L1130.2419,246.174173 L1105.8495,241.744093 L1074.39862,250.883329 L1055.44764,241.705128 L1031.14672,241.705128 L999.910278,256.833333 L980.560307,256.833333 L943.85678,243.501346 L925.334347,267.423077 L893.626244,267.423077 L880.95446,272.025906 L862.100504,267.460301 L833.002297,273.5 L1437.33413,273.5 L1423.53778,250.782051 L1404.89041,250.782051 L1380.63241,218.473791 Z M81.510123,230.17118 L62.5106778,254.708973 L49.7662975,239.27831 L31.6027072,253.939739 L19.3634992,250.975937 L2.94916687,273.5 L695.537527,273.5 L687.066628,271.961538 L543.250112,271.961538 L518.608447,263.010835 L499.866581,272.087758 L474.529938,262.884615 L449.460655,262.884615 L437.310195,256.999994 L424.815618,263.051276 L399.598451,250.838282 L381.204898,253.807692 L350.08431,253.807692 L331.223627,259.897338 L312.364425,256.852754 L293.063801,259.9686 L280.468623,246.24359 L255.588677,246.24359 L243.36553,235.883896 L225.105569,243.253505 L212.317331,241.705128 L194.37253,241.705128 L181.502867,257.28748 L156.102559,241.910366 L137.33513,250.99967 L118.256263,238.679487 L93.2219879,238.679487 L81.510123,230.17118 Z" id="Path-2" stroke="#FFAD00" stroke-width="3" fill="#FFB00A"></path>
            </g>
        </g>
    </g>
</svg>