<svg id="Layer_1" data-name="Layer 1" xmlns="http://www.w3.org/2000/svg" xmlns:xlink="http://www.w3.org/1999/xlink" viewBox="0 0 416 220"><defs><style>.cls-1{fill:url(#linear-gradient);}.cls-2{fill:url(#linear-gradient-2);}.cls-3{fill:#bae4f3;}.cls-4{fill:url(#linear-gradient-3);}.cls-5{fill:#e9905d;}.cls-6{fill:#cc5558;}.cls-7{fill:#798a99;}.cls-8{fill:#b8bfc2;}.cls-9{fill:#5e5f5f;}.cls-10{fill:#5fb2d8;}.cls-11{fill:#e36967;}.cls-12{fill:#d3d6da;}.cls-13{fill:#fff;}.cls-14{fill:#52a1ca;}.cls-15{fill:#7bc2db;}.cls-16{fill:url(#linear-gradient-4);}</style><linearGradient id="linear-gradient" x1="1133.34" y1="145.67" x2="1311.44" y2="254.64" gradientTransform="translate(-912.34)" gradientUnits="userSpaceOnUse"><stop offset="0.5" stop-color="#bae4f3"/><stop offset="1" stop-color="#7ac5e5"/></linearGradient><linearGradient id="linear-gradient-2" x1="1162.76" y1="146.73" x2="1334.88" y2="252.04" gradientTransform="matrix(-1, 0, 0, 1, 1351, 0)" xlink:href="#linear-gradient"/><linearGradient id="linear-gradient-3" x1="206.56" y1="112.45" x2="207.11" y2="218.16" gradientUnits="userSpaceOnUse"><stop offset="0.26" stop-color="#e1f1f7"/><stop offset="0.47" stop-color="#dceff6"/><stop offset="0.69" stop-color="#cfe9f2"/><stop offset="0.92" stop-color="#b9dfec"/><stop offset="0.99" stop-color="#b1dbea"/></linearGradient><linearGradient id="linear-gradient-4" x1="206.5" y1="220" x2="206.5" y2="188.01" gradientUnits="userSpaceOnUse"><stop offset="0" stop-color="#d7ecf4"/><stop offset="0.86" stop-color="#fff"/></linearGradient></defs><path class="cls-1" d="M405.4,220a19.12,19.12,0,0,0,10.51-16.76c0-8.54-6-15.77-14.28-18.33,0,0,0-.1,0-.16a12.26,12.26,0,0,0-12.32-12.19,12.71,12.71,0,0,0-2.64.28c0-.3.05-.61.05-.93a9.69,9.69,0,0,0-9.72-9.63,11.7,11.7,0,0,0-1.2.08A21.48,21.48,0,0,0,343.33,152,12.33,12.33,0,0,0,332,153.83a12.32,12.32,0,0,0-7.9-7.09c-1.88-9.79-9.92-17.2-20.36-17.2s-18.47,7.41-20.35,17.2a12.3,12.3,0,0,0-7.9,7.09A12.33,12.33,0,0,0,264.2,152a21.48,21.48,0,0,0-32.48,10.35,11.89,11.89,0,0,0-1.2-.08,9.68,9.68,0,0,0-9.72,9.63c0,.32,0,.63,0,.93a12.86,12.86,0,0,0-2.64-.28,12.25,12.25,0,0,0-12.32,12.19,12,12,0,0,0,.26,2.5l-.26.07V220ZM279.34,168.53l.18-.36c.1.08.22.15.33.23Zm48.33-.13.34-.23c.05.12.12.24.17.36Z"/><path class="cls-2" d="M203,218.87V187.55l-.25-.07A12.85,12.85,0,0,0,203,185a12,12,0,0,0-11.88-12.2,11.26,11.26,0,0,0-2.55.29c0-.31.05-.62.05-.93a9.51,9.51,0,0,0-9.38-9.63,8.92,8.92,0,0,0-1.16.08,20.68,20.68,0,0,0-19.48-14.2,20.1,20.1,0,0,0-11.85,3.85,11.56,11.56,0,0,0-10.92,1.82,12,12,0,0,0-7.62-7.09c-1.81-9.8-9.57-17.2-19.64-17.2s-17.82,7.4-19.64,17.2a12.05,12.05,0,0,0-7.62,7.09,11.54,11.54,0,0,0-10.91-1.82,20.1,20.1,0,0,0-11.85-3.85,20.68,20.68,0,0,0-19.49,14.2,8.77,8.77,0,0,0-1.15-.08,9.51,9.51,0,0,0-9.38,9.63c0,.31,0,.62,0,.93a11.39,11.39,0,0,0-2.55-.29A12,12,0,0,0,14.15,185a.76.76,0,0,0,0,.15A19.44,19.44,0,0,0,.37,203.46c0,7.18,4.09,12.07,10.15,15.41Zm-71.36-50.24c.11-.08.22-.15.33-.24.05.13.11.24.16.37ZM85,168.76c.06-.13.12-.24.17-.37l.32.24Z"/><path class="cls-3" d="M160.75,200c11.05-4.85,17.91-15,22.43-25.74A196.5,196.5,0,0,0,197.81,110H217.5q2,16.4,4.24,32.77c1.22,8.92,3.1,17.89,7.13,26,4.34,8.77,10.91,14.94,18.63,20.72"/><path class="cls-4" d="M375.54,199.9a10,10,0,0,0-1.36.11,10.65,10.65,0,0,0-12.68-12.3,14.71,14.71,0,0,0,.13-2,15.67,15.67,0,0,0-24.41-13,10.34,10.34,0,0,0-18.18-4.8,9.45,9.45,0,0,0-6.8-2.89,9.6,9.6,0,0,0-1.94.2,16.56,16.56,0,0,0-14.92-9.37c-.73,0-1.95,0-2.82.14-.86-.09-2.08-.14-2.81-.14a16.58,16.58,0,0,0-14.93,9.37,9.44,9.44,0,0,0-8.73,2.69,10.34,10.34,0,0,0-18.18,4.8,15.68,15.68,0,0,0-24.42,13,14.71,14.71,0,0,0,.14,2,8.51,8.51,0,0,0-.86-.13,108.75,108.75,0,0,1-3.19-13.34c-.85-4.55-5.37-64-5.37-64h-12.8s-1,51.1-8.33,77.26l-.38,0a10.66,10.66,0,0,0-2.2.23,14.71,14.71,0,0,0,.13-2,15.67,15.67,0,0,0-24.41-13,10.34,10.34,0,0,0-18.18-4.8,9.45,9.45,0,0,0-6.8-2.89,9.6,9.6,0,0,0-1.94.2,16.56,16.56,0,0,0-14.92-9.37c-.73,0-1.95,0-2.82.14-.86-.09-2.08-.14-2.81-.14a16.58,16.58,0,0,0-14.93,9.37,9.44,9.44,0,0,0-8.73,2.69,10.34,10.34,0,0,0-18.18,4.8,15.68,15.68,0,0,0-24.42,13,14.71,14.71,0,0,0,.14,2,10.76,10.76,0,0,0-2.21-.23A10.59,10.59,0,0,0,40,200a10.11,10.11,0,0,0-1.36-.11,9.47,9.47,0,0,0,0,18.93c1.15,0,2.25.38,3.27,0H372.27c1,.38,2.11,0,3.27,0a9.47,9.47,0,0,0,0-18.93Z"/><path class="cls-5" d="M196,107.94a13.31,13.31,0,0,0-.12,10.71c.81,1.87,2,3.53,3,5.32a9.74,9.74,0,0,1,1.5,5.85,5.9,5.9,0,0,0,2.71-5,27.59,27.59,0,0,0-.84,5.26,8.93,8.93,0,0,0,1.14,5.1c1,1.64,2.78,3,2.71,4.95,0-.78.73-1.36,1.26-1.94a5.65,5.65,0,0,0,1.42-4.42,3.12,3.12,0,0,1,.95,3,13.24,13.24,0,0,0,1.17-10.47,6.44,6.44,0,0,1,2.95,4.82,9.54,9.54,0,0,0,1.16-5.34,2.87,2.87,0,0,0,2.74,1.57,7.16,7.16,0,0,1-.43-5.64c.51-1.91,1.43-3.67,2.07-5.54a19.64,19.64,0,0,0,.86-9,45.36,45.36,0,0,0-16.88-2.55,15.29,15.29,0,0,0-4.3.7A5,5,0,0,0,196,107.94Z"/><path class="cls-6" d="M204.82,119.16a6.75,6.75,0,0,1,1,4.32c-.07,1.51-.37,3-.33,4.52a5.59,5.59,0,0,0,1.61,4.09,6.1,6.1,0,0,1,.4-4.38,4.49,4.49,0,0,1,1.07,1.93,13.29,13.29,0,0,0,.84-8.11l3.51,4.38a17.08,17.08,0,0,0-.61-5.73,6.18,6.18,0,0,1,2.81,3.15,5.5,5.5,0,0,1-.31-3.92,13.38,13.38,0,0,0,.56-4,3.73,3.73,0,0,1,1.54,3.39,11.68,11.68,0,0,0-2.81-11.13A10.46,10.46,0,0,0,203,105.36c-2.45,1-4.54,3.28-4.61,5.93-.08,3.06,2.44,5.87,1.89,8.88a14.45,14.45,0,0,0,1.87-4.23,7.25,7.25,0,0,1,1.76,5.25A2.76,2.76,0,0,0,204.82,119.16Z"/><rect class="cls-7" x="204.51" y="92.78" width="5.9" height="28.48" transform="translate(93.8 310.92) rotate(-88.15)"/><polygon class="cls-8" points="218.81 102.12 216.5 102.05 216.28 108.73 213.57 108.64 213.79 101.96 211.48 101.88 211.26 108.57 208.56 108.48 208.78 101.79 206.47 101.72 206.25 108.4 203.55 108.31 203.77 101.63 201.46 101.55 201.24 108.24 198.53 108.15 198.75 101.47 196.44 101.39 196.22 108.07 194.3 108.01 194.25 109.55 206.2 109.94 206.2 109.94 208.51 110.02 208.51 110.02 216.23 110.27 216.23 110.27 218.53 110.35 218.53 110.35 220.46 110.41 220.51 108.87 218.59 108.81 218.81 102.12"/><rect class="cls-8" x="214.62" y="106.16" width="4.28" height="0.82" transform="translate(103.11 319.7) rotate(-88.11)"/><rect class="cls-8" x="209.61" y="105.99" width="4.28" height="0.82" transform="translate(98.43 314.53) rotate(-88.11)"/><rect class="cls-8" x="204.59" y="105.83" width="4.28" height="0.82" transform="translate(93.74 309.36) rotate(-88.11)"/><rect class="cls-8" x="199.58" y="105.66" width="4.28" height="0.82" transform="translate(89.06 304.18) rotate(-88.11)"/><rect class="cls-8" x="194.56" y="105.5" width="4.28" height="0.82" transform="translate(84.38 299.01) rotate(-88.11)"/><rect class="cls-9" x="214.62" y="106.16" width="4.28" height="0.82" transform="translate(103.11 319.7) rotate(-88.11)"/><rect class="cls-9" x="209.61" y="105.99" width="4.28" height="0.82" transform="translate(98.43 314.53) rotate(-88.11)"/><rect class="cls-9" x="204.59" y="105.83" width="4.28" height="0.82" transform="translate(93.74 309.36) rotate(-88.11)"/><rect class="cls-9" x="199.58" y="105.66" width="4.28" height="0.82" transform="translate(89.06 304.18) rotate(-88.11)"/><rect class="cls-9" x="194.56" y="105.5" width="4.28" height="0.82" transform="translate(84.38 299.01) rotate(-88.11)"/><polygon class="cls-10" points="227.26 124.79 220.09 110.4 220.44 107.24 223.33 81.14 223.63 78.43 223.66 78.11 223.82 78.26 235.88 90.13 238.01 92.21 228.84 120.02 227.26 124.79"/><polygon class="cls-10" points="186.57 123.45 186.37 122.68 177.99 90.24 181.41 87.3 192.05 78.13 193.23 77.11 194.68 109.56 191.75 114.58 186.57 123.45"/><polygon class="cls-10" points="220.96 105.08 194.12 104.2 188.06 48.54 190.24 48.62 225.01 49.76 230.66 49.95 221.58 101.51 221.14 104 220.96 105.08"/><path class="cls-11" d="M230.7,49.94l-11.09-.36-31.55-1a61.46,61.46,0,0,1,5.86-24.75A48.85,48.85,0,0,1,206,7.87a30,30,0,0,1,4.83-3.49s17.82,11.1,19.7,38.66A67.86,67.86,0,0,1,230.7,49.94Z"/><path class="cls-12" d="M204.29,65.64a6.06,6.06,0,0,1,.29-8.57,6.29,6.29,0,0,1,1.93-1.22,6.13,6.13,0,0,1,2.46-.41,6.06,6.06,0,0,1-.09,12.12h-.24A6,6,0,0,1,204.29,65.64Z"/><path class="cls-13" d="M207.38,66.34A7,7,0,0,1,209,55.44a6.06,6.06,0,0,1-.09,12.12A7.17,7.17,0,0,1,207.38,66.34Z"/><path class="cls-9" d="M204.18,56.65a6.44,6.44,0,0,1,2.12-1.33,6.63,6.63,0,1,1-2.12,1.33Zm8.29,8.85a5.49,5.49,0,0,0-5.75-9.11A5.54,5.54,0,0,0,205,57.5a5.48,5.48,0,0,0-.25,7.75,5.49,5.49,0,0,0,7.75.25Z"/><path class="cls-12" d="M203.68,84.25a6.07,6.07,0,0,1,.28-8.57,6.33,6.33,0,0,1,1.94-1.22,6.13,6.13,0,0,1,2.46-.41,6.06,6.06,0,0,1-.09,12.12H208A6,6,0,0,1,203.68,84.25Z"/><path class="cls-13" d="M206.77,85a7,7,0,0,1,1.59-10.9,6.06,6.06,0,0,1-.09,12.12A7.17,7.17,0,0,1,206.77,85Z"/><path class="cls-9" d="M203.57,75.26a6.44,6.44,0,0,1,2.12-1.33,6.64,6.64,0,0,1,7,11,6.64,6.64,0,1,1-9.08-9.7Zm8.29,8.85A5.5,5.5,0,1,0,208,85.59,5.49,5.49,0,0,0,211.86,84.11Z"/><path class="cls-14" d="M221,105.08l-26.83-.88-6.06-55.66,2.18.07c.53,11,3.59,21.73,6.64,32.33,1.21,4.22,2.49,8.57,5.26,12a20.37,20.37,0,0,0,12,6.77c2.52.49,5.27.69,7.49,1.82Z"/><path class="cls-15" d="M230.66,50,225,49.76a18.87,18.87,0,0,0-.56,3.75q-1.95,24.92-3.88,49.84a4,4,0,0,0,.57.65l.44-2.49,3.35-19a23,23,0,0,1,5.66,5.94c3,5.16,2.09,11.68.63,17.5-1.16,4.61-2.59,9.38-2.38,14.06L238,92.21l-2.13-2.08L225.4,79.82Z"/><path class="cls-15" d="M186.37,122.68,178,90.24l3.42-2.94,10.64-9.17a4.59,4.59,0,0,1-1.43,2.57l-5,5.57c-1.56,1.74-3.17,3.57-3.78,5.83-.79,3,.28,6.05,1.16,9A79,79,0,0,1,186.37,122.68Z"/><path class="cls-6" d="M219.61,49.58l-31.55-1a61.46,61.46,0,0,1,5.86-24.75,20.6,20.6,0,0,0,3.89,11,34.88,34.88,0,0,0,11.33,9.74A114.72,114.72,0,0,0,219.61,49.58Z"/><path class="cls-16" d="M396.66,204.43a9.3,9.3,0,0,0-6,2.21,14.52,14.52,0,0,0-11.33-7.33,14.52,14.52,0,0,0-24.74-7.57,9.33,9.33,0,0,0-13.57-.87,9.37,9.37,0,0,0-5.05-1.48h0a9.47,9.47,0,0,0,.54-3.12,9.33,9.33,0,0,0-9.09-9.32c-1.26-6.44-7.85-11.38-14.65-11.9V165l-.58,0-.58,0v.05c-6.8.52-13.39,5.46-14.65,11.9a9.33,9.33,0,0,0-9.09,9.32,9.21,9.21,0,0,0,.54,3.12h0a9.36,9.36,0,0,0-5,1.48,9.33,9.33,0,0,0-13.57.87A14.53,14.53,0,0,0,245,199.31a14.52,14.52,0,0,0-11.32,7.33,9.32,9.32,0,0,0-13.9,2.13,7.18,7.18,0,0,0-12.48,1.06,7.2,7.2,0,0,0-6.54-4.21,7.12,7.12,0,0,0-3.44.88,8.48,8.48,0,0,0-12.59-5.6,14.38,14.38,0,0,0-25.92,1,7.17,7.17,0,0,0-11,.95,12.61,12.61,0,0,0-2.69-.57,12.45,12.45,0,0,0-21.22-6.49,8,8,0,0,0-11.65-.74,7.91,7.91,0,0,0-4.32-1.28h0a8.09,8.09,0,0,0,.46-2.67,8,8,0,0,0-7.8-8c-1.08-5.52-6.73-9.76-12.56-10.2v-.05c-.17,0-.33,0-.5,0s-.33,0-.5,0v.05c-5.83.44-11.48,4.68-12.56,10.2a8,8,0,0,0-7.8,8,8.09,8.09,0,0,0,.46,2.67h0A7.91,7.91,0,0,0,62.76,195a8,8,0,0,0-11.65.74,12.45,12.45,0,0,0-21.22,6.49,12.47,12.47,0,0,0-9.71,6.29A8,8,0,0,0,7,214.66,11,11,0,0,0,8.37,220h396a12.85,12.85,0,0,0,1.6-6.23A9.34,9.34,0,0,0,396.66,204.43Z"/></svg>