<?xml version="1.0" encoding="utf-8"?>
<!-- Generator: Adobe Illustrator 19.2.1, SVG Export Plug-In . SVG Version: 6.00 Build 0)  -->
<svg version="1.1" id="Layer_1" xmlns="http://www.w3.org/2000/svg" xmlns:xlink="http://www.w3.org/1999/xlink" x="0px" y="0px"
	 width="231.2px" height="66.4px" viewBox="0 0 231.2 66.4" enable-background="new 0 0 231.2 66.4" xml:space="preserve">
<g>
	<path fill="#5691B6" stroke="#5691B6" stroke-width="0.5" stroke-miterlimit="10" d="M26.1,8.3c-0.2,0.6-0.6,1.5-1.2,2.8
		c-0.5,1.2-1.1,2.6-1.8,4.2c-0.7,1.6-1.4,3.2-2.2,5c-0.8,1.8-1.5,3.5-2.3,5.2c-0.7,1.7-1.4,3.3-2,4.7c-0.6,1.4-1.1,2.6-1.5,3.6
		c-1.1,2.8-2.1,5.5-3.2,8.3c-1.1,2.7-2.3,5.4-3.5,8.1c-0.2,0.5-0.5,1-0.9,1.6c-0.4,0.6-0.8,1.2-1.3,1.7c-0.5,0.5-1,0.9-1.6,1.3
		C4,54.9,3.4,55,2.8,54.9c-0.2,0-0.4-0.2-0.8-0.6c-0.3-0.4-0.6-0.7-0.9-1.1c-0.3-0.4-0.5-0.7-0.7-1.1c-0.2-0.3-0.2-0.5-0.1-0.5
		c0.1,0,0.2,0.2,0.4,0.5c0.2,0.3,0.4,0.7,0.7,1c0.3,0.4,0.5,0.7,0.8,1c0.3,0.3,0.6,0.5,0.9,0.5c0.9-0.1,1.7-0.5,2.5-1.2
		c0.7-0.7,1.4-1.6,2-2.6c0.6-1,1.1-2,1.5-3.1c0.4-1,0.8-1.9,1-2.6c0.9-2.2,1.7-4.3,2.6-6.5c0.9-2.1,1.7-4.3,2.6-6.5
		c1-2.4,2-4.8,3-7.2c1-2.4,2-4.8,3-7.2c0.2-0.3,0.4-0.8,0.6-1.4c0.3-0.6,0.5-1.2,0.9-1.9c0.3-0.7,0.7-1.4,1-2.1c0.3-0.7,0.7-1.4,1-2
		c0.3-0.6,0.5-1.2,0.7-1.6c0.2-0.4,0.3-0.7,0.3-0.8L26.1,8.3z M28.2,6.8c-0.6,2.5-1.1,5-1.7,7.5c-0.6,2.5-1.2,5-1.8,7.5
		c-0.6,2.3-1,4.5-1.3,6.6c-0.3,2.1-0.6,4.2-1,6.5c-0.1,0.7-0.2,1.4-0.3,2.1c-0.1,0.7,0,1.3,0.2,1.9c0.1,0.2,0.2,0.4,0.3,0.6
		c0.1,0.2,0.4,0.3,0.7,0.3c0.3,0,0.7-0.1,1.1-0.3c0.4-0.2,0.8-0.4,1.2-0.7c0.3-0.2,0.5-0.4,0.7-0.5c0.2-0.1,0.3-0.3,0.5-0.4
		c0.1-0.1,0.3-0.2,0.4-0.4c0.2-0.2,0.3-0.4,0.6-0.6c0.6-0.6,1.1-1.1,1.6-1.7c0.5-0.6,1-1.1,1.6-1.7c1-1.2,2-2.5,2.9-3.7
		c0.9-1.2,1.8-2.4,2.6-3.7c0.9-1.2,1.7-2.5,2.4-3.7c0.8-1.2,1.5-2.4,2.2-3.7c0.7-1.2,1.3-2.3,2-3.4c0.7-1.1,1.3-2.3,2-3.4
		c0.2-0.4,0.5-0.8,0.7-1.3c0.2-0.4,0.5-0.8,0.7-1.3c0.9-1.6,1.5-2.5,1.8-2.8c0.3-0.3,0,0.3-0.8,1.6c-0.7,1.3-1.5,2.5-2.2,3.7
		c-0.7,1.2-1.4,2.4-2.1,3.7c-1.4,2.4-2.9,4.8-4.3,7.2c-1.5,2.4-3.1,4.9-5,7.3c-0.9,1.2-1.8,2.3-2.8,3.5c-1,1.2-2.1,2.3-3.2,3.5
		c-0.5,0.5-1,1-1.6,1.5c-0.5,0.5-1.1,1-1.8,1.4c-0.4,0.3-0.8,0.5-1.2,0.7c-0.4,0.2-0.8,0.3-1.2,0.3c-0.3,0.1-0.6,0-0.8-0.1
		c-0.2-0.1-0.4-0.3-0.5-0.5c-0.2-0.2-0.3-0.5-0.3-0.7c-0.1-0.3-0.1-0.6-0.1-0.9c-0.1-0.6-0.1-1.3,0-2c0.1-0.7,0.2-1.4,0.2-2.1
		c0.3-2.4,0.6-4.8,1.1-7.2c0.4-2.4,0.9-4.9,1.4-7.4c0.4-2,0.9-4.1,1.3-6.1c0.4-2,0.9-4.1,1.3-6.1C25.8,7.7,26,7.3,26.3,7
		c0.3-0.3,0.6-0.6,0.9-0.8C27.5,6,27.8,6,28,6.1C28.2,6.1,28.3,6.4,28.2,6.8z M69.8,43c0.2-0.3,0.3-0.4,0.5-0.3
		c0.2,0.2,0.2,0.4,0,0.7c-0.9,1.6-1.9,3.4-2.8,5.2c-0.9,1.8-1.9,3.5-2.9,5.2c-0.4,0.6-0.8,1.2-1.2,1.8c-0.4,0.7-0.9,1.3-1.4,2
		c-0.5,0.7-1,1.3-1.6,1.8c-0.5,0.6-1.1,1.1-1.6,1.5c-1,0.8-2.1,1.5-3.3,2.1c-1.2,0.6-2.5,0.9-3.9,0.9c-1.2,0-2.3-0.2-3.4-0.7
		c-1.1-0.5-2.2-1.1-3.1-2c-1-0.9-1.9-1.9-2.6-3.1c-0.7-1.2-1.3-2.4-1.8-3.6c-1.2-3-1.9-5.9-2.3-9c-0.3-3-0.4-6-0.2-8.9
		c0.2-3.1,0.7-6.2,1.4-9.2c0.7-3,1.6-5.9,2.6-8.8c0.5-1.3,1.1-2.7,1.7-4.1c0.6-1.4,1.3-2.8,2-4.2c0.7-1.4,1.5-2.7,2.3-4.1
		C49,5,49.8,3.8,50.6,2.6c0.4-0.6,1-1.2,1.7-1.6c0.7-0.4,1.3-0.6,1.9-0.8c0.6-0.1,1-0.1,1.2,0.2c0.2,0.2,0.1,0.6-0.4,1.2
		c-1.1,1.4-2.1,2.8-3.1,4.2c-1,1.4-1.9,2.8-2.8,4.3c-1.6,2.6-2.9,5.3-4.2,8.1c-1.2,2.8-2.3,5.7-3.1,8.7c-0.8,2.9-1.4,5.9-1.7,8.9
		c-0.4,3.1-0.4,6.2,0,9.4c0.2,1.5,0.4,2.9,0.8,4.4c0.3,1.5,0.8,2.9,1.4,4.3c0.8,1.6,1.6,3.2,2.4,4.6c0.9,1.4,2,2.5,3.3,3.2
		c1.4,0.7,2.8,1.1,4.1,1c1.3,0,2.6-0.3,3.8-0.8c1.2-0.5,2.3-1.2,3.3-2.1c1-0.9,1.9-1.7,2.7-2.6c0.9-1,1.7-2.1,2.4-3.2
		c0.7-1.1,1.4-2.3,2-3.5c0.6-1.2,1.2-2.4,1.8-3.7C68.7,45.5,69.3,44.2,69.8,43z"/>
	<path fill="#5691B6" stroke="#5691B6" stroke-width="0.5" stroke-miterlimit="10" d="M53.9,34.1c0.1-0.1,0.1-0.1,0.1,0
		C54,34.2,54,34.2,53.9,34.1c0.1,0.1,0,0.2-0.2,0.3c-0.2,0.1-0.3,0.2-0.5,0.4c-0.2,0.1-0.3,0.3-0.5,0.4c-0.1,0.1-0.2,0.2-0.3,0.2
		L52,35.8c-0.2,0.1-0.4,0.3-0.6,0.4c-0.2,0.1-0.4,0.3-0.6,0.4c-0.4,0.3-0.9,0.5-1.4,0.8c-0.5,0.3-1,0.5-1.5,0.6
		c-0.4,0.1-0.9,0.2-1.4,0.3c-0.5,0-0.9-0.1-1.3-0.3c-0.3-0.2-0.5-0.5-0.5-0.9c0-0.2,0-0.5,0-0.7c0-0.3,0.1-0.5,0.1-0.7
		c0.2-0.6,0.4-1.1,0.8-1.7c0.3-0.6,0.7-1,1-1.5c0.2-0.2,0.4-0.4,0.6-0.5c0.2-0.2,0.4-0.3,0.6-0.4c0.3-0.2,0.6-0.3,1-0.4
		c0.4-0.1,0.7-0.1,1,0c0.3,0.1,0.6,0.2,0.8,0.4c0.2,0.2,0.3,0.5,0.4,0.9c0,0.2-0.1,0.4-0.2,0.6c-0.1,0.3-0.3,0.5-0.5,0.7
		c-0.2,0.2-0.4,0.4-0.7,0.6c-0.3,0.2-0.6,0.4-0.9,0.5c-0.3,0.1-0.6,0.3-0.9,0.4c-0.3,0.1-0.6,0.3-1,0.4c-0.4,0.1-0.7,0.2-1,0.4
		c-0.1,0-0.1,0-0.1-0.1c0,0,0-0.1,0.1-0.1c0.4-0.1,0.9-0.3,1.5-0.5c0.6-0.2,1-0.4,1.5-0.6c0.3-0.1,0.5-0.3,0.8-0.5
		c0.3-0.2,0.5-0.4,0.7-0.6c0.1-0.1,0.2-0.2,0.2-0.3c0.1-0.1,0.1-0.2,0.2-0.3c0.1-0.2,0.1-0.4,0-0.6c-0.1-0.1-0.2-0.2-0.3-0.2
		c-0.1,0-0.3,0-0.5,0c-0.5,0.1-0.9,0.3-1.3,0.5c-0.4,0.3-0.9,0.6-1.3,1.1c-0.2,0.2-0.4,0.5-0.6,0.7c-0.2,0.2-0.4,0.5-0.5,0.8
		c-0.2,0.4-0.4,0.8-0.5,1.3c-0.1,0.5,0,0.9,0.2,1.2c0.2,0.2,0.5,0.3,0.8,0.3c0.3,0,0.7-0.1,1.2-0.2c0.5-0.2,0.9-0.4,1.4-0.6
		c0.5-0.3,0.9-0.5,1.4-0.8c0.2-0.1,0.4-0.3,0.6-0.4c0.2-0.1,0.4-0.3,0.6-0.4l0.5-0.4c0,0,0.1-0.1,0.3-0.2c0.2-0.1,0.3-0.2,0.5-0.4
		c0.2-0.1,0.3-0.2,0.5-0.4C53.8,34.2,53.8,34.2,53.9,34.1z"/>
	<path fill="#5691B6" stroke="#5691B6" stroke-width="0.5" stroke-miterlimit="10" d="M64.2,34c0.1,0,0.1,0,0.1,0
		C64.4,34.1,64.3,34.1,64.2,34c-0.3,0.4-0.6,0.7-1,0.9c-0.4,0.3-0.8,0.5-1.2,0.7c-0.4,0.2-0.8,0.4-1.2,0.4c-0.4,0.1-0.8,0.1-1.1,0
		c-0.4-0.1-0.7-0.3-0.9-0.6c-0.2-0.3-0.3-0.7-0.4-1.1c0-0.3,0-0.5,0.1-0.8c0.1-0.3,0.1-0.6,0.2-0.9c0.1-0.3,0.1-0.5,0.2-0.7
		c0-0.2,0-0.2-0.1-0.2c-0.1,0-0.3,0.1-0.6,0.2c-0.3,0.1-0.6,0.2-0.9,0.3c-0.3,0.1-0.6,0.2-0.9,0.2c-0.3,0.1-0.4,0.1-0.4,0.1
		c-0.1,0.4-0.2,0.9-0.4,1.3c-0.2,0.4-0.5,0.9-0.7,1.3c-0.3,0.5-0.6,1-1,1.5c-0.3,0.5-0.7,1-1,1.5c-0.1,0.2-0.3,0.4-0.5,0.5
		c-0.2,0.1-0.4,0.2-0.6,0.3c-0.2,0.1-0.3,0.1-0.4,0c-0.1-0.1,0-0.2,0.1-0.4c0.4-0.6,0.7-1.2,1.1-1.8c0.3-0.6,0.6-1.2,0.9-1.8
		c0.1-0.3,0.3-0.6,0.4-0.9c0.1-0.3,0.2-0.6,0.3-0.9c-0.2,0-0.4-0.1-0.6-0.2c-0.2-0.1-0.3-0.3-0.3-0.6c0-0.3,0.2-0.6,0.5-0.8
		c0.2-0.1,0.4-0.1,0.6-0.1c0.2,0,0.5,0,0.7,0.1s0.4,0.2,0.6,0.4c0.2,0.2,0.3,0.4,0.3,0.7c0.6-0.1,1.1-0.3,1.5-0.5
		c0.5-0.2,0.9-0.4,1.3-0.6c0.4-0.2,0.7-0.3,1-0.4c0.3-0.1,0.5-0.1,0.7,0c0.2,0.1,0.3,0.3,0.2,0.5c-0.1,0.2-0.2,0.4-0.4,0.7
		c-0.2,0.3-0.3,0.5-0.5,0.8c-0.2,0.3-0.3,0.5-0.4,0.8c-0.1,0.4-0.1,0.8,0,1.3c0.1,0.4,0.3,0.7,0.8,0.8c0.6,0.1,1.3,0,2-0.4
		C63,35,63.6,34.5,64.2,34z"/>
	<path fill="#5691B6" stroke="#5691B6" stroke-width="0.5" stroke-miterlimit="10" d="M66.8,32.4c-0.3,0.1-0.6,0.3-1,0.6
		c-0.4,0.3-0.7,0.6-1.1,0.9c-0.3,0.3-0.5,0.5-0.6,0.5c-0.1,0.1-0.1,0.1-0.2,0c-0.1-0.1,0-0.1,0.1-0.2c0.1,0,0.3-0.2,0.6-0.5
		c0.3-0.3,0.7-0.6,1.1-0.9c0.4-0.3,0.9-0.6,1.5-0.9c0.5-0.3,1.1-0.4,1.6-0.4c0.4,0,0.6,0.1,0.5,0.4c0,0.3-0.2,0.6-0.5,1
		c-0.3,0.4-0.6,0.8-1.1,1.3c-0.4,0.5-0.8,0.9-1.2,1.4c-0.3,0.4-0.6,0.8-0.8,1.1c-0.2,0.3-0.2,0.5,0,0.6c0.4,0.2,1.1,0.2,1.9-0.1
		c0.8-0.3,1.6-0.6,2.4-1c0.8-0.4,1.5-0.8,2.1-1.2c0.6-0.4,1-0.7,1-0.8c0.1-0.1,0.1-0.1,0.2-0.1c0,0.1,0,0.1,0,0.2
		c-0.6,0.5-1.3,1-2.1,1.4c-0.8,0.5-1.7,0.9-2.6,1.2c-0.9,0.3-1.7,0.6-2.5,0.8C65.5,38,64.9,38,64.5,38c-0.2,0-0.4-0.1-0.4-0.3
		s0-0.4,0-0.6c0.1-0.3,0.2-0.5,0.4-0.8c0.2-0.3,0.4-0.6,0.6-1c0.5-0.8,1.1-1.6,1.9-2.6C67.1,32.4,67,32.3,66.8,32.4z M71.9,24.8
		c0.2-0.5,0.2-0.8,0-0.9c-0.1-0.1-0.4,0-0.8,0.3c-0.4,0.3-0.8,0.8-1.2,1.4c-0.4,0.6-0.7,1.1-0.8,1.5c-0.2,0.5-0.2,0.8,0,0.9
		c0.2,0.1,0.4,0,0.8-0.4c0.4-0.3,0.8-0.8,1.2-1.4C71.4,25.8,71.7,25.2,71.9,24.8z"/>
	<path fill="#5691B6" stroke="#5691B6" stroke-width="0.5" stroke-miterlimit="10" d="M78.8,32.1c0.1,0.1,0,0.1,0,0.1
		c-0.1,0-0.1,0-0.1,0c-0.1-0.3-0.3-0.5-0.5-0.6c-0.4-0.3-0.8-0.4-1.2-0.4c-0.4,0-0.8,0.2-1,0.4c-0.7,0.6-1,1.4-0.8,2.5
		c0.1,0.5,0.2,0.9,0.4,1.4c0.2,0.5,0.4,0.9,0.5,1.4c0.4,1,0.7,2,0.8,2.9c0.1,0.5,0.2,1,0.2,1.5c0,0.5,0,1-0.2,1.4
		c-0.3,0.9-0.8,1.7-1.6,2.2c-0.6,0.4-1.2,0.6-2,0.7c-0.8,0.1-1.5-0.1-2.3-0.6c-0.8-0.5-1.3-1.2-1.5-2.1c-0.2-0.9-0.2-1.7-0.1-2.4
		c0.1-0.9,0.5-1.6,1-2.3c0.3-0.3,0.6-0.6,0.9-0.8c0.3-0.2,0.7-0.3,1.2-0.4c0.2,0,0.3,0.1,0.3,0.2c0,0.1-0.1,0.2-0.2,0.3
		c-0.4,0.1-0.8,0.2-1.2,0.3c-0.4,0.1-0.7,0.4-0.9,0.8c-0.5,0.7-0.8,1.5-0.9,2.4c-0.1,0.4,0,0.9,0,1.3c0.1,0.4,0.2,0.9,0.4,1.3
		c0.2,0.4,0.5,0.7,0.8,1c0.3,0.3,0.7,0.5,1.1,0.6c0.9,0.3,1.7,0.3,2.4-0.1c0.7-0.3,1.3-0.8,1.7-1.5c0.2-0.4,0.3-0.9,0.3-1.4
		c0-0.5-0.1-1-0.2-1.5c-0.1-0.5-0.3-1-0.5-1.5c-0.2-0.5-0.4-1-0.6-1.5s-0.4-0.9-0.6-1.3c-0.2-0.4-0.4-0.9-0.5-1.3
		c-0.2-0.4-0.3-0.9-0.3-1.3c-0.1-0.5,0-0.9,0.1-1.3c0.1-0.2,0.2-0.4,0.4-0.6c0.2-0.2,0.4-0.4,0.7-0.6c0.3-0.2,0.7-0.3,1.1-0.4
		c0.4-0.1,0.9-0.1,1.4-0.1c0.4,0.1,0.7,0.2,1,0.4C78.4,31.4,78.6,31.7,78.8,32.1z"/>
	<path fill="#5691B6" stroke="#5691B6" stroke-width="0.5" stroke-miterlimit="10" d="M84.3,32.1c0.1,0.1,0,0.1,0,0.1
		c-0.1,0-0.1,0-0.1,0c-0.1-0.3-0.3-0.5-0.5-0.6c-0.4-0.3-0.8-0.4-1.2-0.4c-0.4,0-0.8,0.2-1,0.4c-0.7,0.6-1,1.4-0.8,2.5
		c0.1,0.5,0.2,0.9,0.4,1.4c0.2,0.5,0.4,0.9,0.5,1.4c0.4,1,0.7,2,0.8,2.9c0.1,0.5,0.2,1,0.2,1.5c0,0.5,0,1-0.2,1.4
		c-0.3,0.9-0.8,1.7-1.6,2.2c-0.6,0.4-1.2,0.6-2,0.7c-0.8,0.1-1.5-0.1-2.3-0.6c-0.8-0.5-1.3-1.2-1.5-2.1c-0.2-0.9-0.2-1.7-0.1-2.4
		c0.1-0.9,0.5-1.6,1-2.3c0.3-0.3,0.6-0.6,0.9-0.8c0.3-0.2,0.7-0.3,1.2-0.4c0.2,0,0.3,0.1,0.3,0.2c0,0.1-0.1,0.2-0.2,0.3
		c-0.4,0.1-0.8,0.2-1.2,0.3c-0.4,0.1-0.7,0.4-0.9,0.8c-0.5,0.7-0.8,1.5-0.9,2.4c-0.1,0.4,0,0.9,0,1.3c0.1,0.4,0.2,0.9,0.4,1.3
		c0.2,0.4,0.5,0.7,0.8,1c0.3,0.3,0.7,0.5,1.1,0.6c0.9,0.3,1.7,0.3,2.4-0.1c0.7-0.3,1.3-0.8,1.7-1.5c0.2-0.4,0.3-0.9,0.3-1.4
		c0-0.5-0.1-1-0.2-1.5c-0.1-0.5-0.3-1-0.5-1.5c-0.2-0.5-0.4-1-0.6-1.5s-0.4-0.9-0.6-1.3c-0.2-0.4-0.4-0.9-0.5-1.3
		c-0.2-0.4-0.3-0.9-0.3-1.3c-0.1-0.5,0-0.9,0.1-1.3c0.1-0.2,0.2-0.4,0.4-0.6c0.2-0.2,0.4-0.4,0.7-0.6c0.3-0.2,0.7-0.3,1.1-0.4
		c0.4-0.1,0.9-0.1,1.4-0.1c0.4,0.1,0.7,0.2,1,0.4C83.8,31.4,84.1,31.7,84.3,32.1z"/>
	<path fill="#5691B6" stroke="#5691B6" stroke-width="0.5" stroke-miterlimit="10" d="M94.6,34.1c0.1,0,0.1,0,0.1,0
		c0,0,0,0.1-0.1,0.1c0,0-0.1,0.2-0.3,0.4c-0.2,0.3-0.4,0.6-0.7,0.9c-0.3,0.4-0.6,0.7-0.9,1.1c-0.3,0.4-0.6,0.7-0.9,0.9
		c-0.4,0.3-0.8,0.5-1.2,0.5c-0.4,0.1-0.8,0-1.1-0.2c-0.4-0.2-0.6-0.4-0.6-0.8C89,37,89,36.8,89,36.7c0-0.1,0.1-0.3,0.1-0.5
		c-0.2,0.3-0.5,0.7-0.9,1.1c-0.4,0.4-1,0.7-1.7,0.9c-0.3,0.1-0.6,0.1-0.9,0.1c-0.3,0-0.6,0-0.8-0.1c-0.4-0.1-0.8-0.4-1-0.7
		c-0.2-0.4-0.3-0.7-0.2-1.2c0.1-0.4,0.2-0.8,0.4-1.2c0.4-0.8,0.9-1.5,1.5-2.1c0.6-0.6,1.3-1,2.2-1.4c0.3-0.1,0.6-0.2,1-0.3
		c0.3-0.1,0.7-0.1,1,0c0.3,0.1,0.5,0.2,0.6,0.3c0.2,0.2,0.2,0.4,0.2,0.6c0,0.2,0,0.3-0.1,0.5c-0.1,0.2-0.1,0.3-0.2,0.4
		c-0.2,0.4-0.6,0.9-1,1.3c-0.1,0-0.1,0-0.1,0c0,0,0-0.1,0-0.1l0,0c0.2-0.2,0.3-0.3,0.3-0.4c0.1-0.1,0.1-0.3,0.2-0.5
		c0.1-0.3,0-0.5-0.5-0.5c-0.3,0-0.6,0-1.1,0.1c-0.4,0.1-0.9,0.2-1.3,0.5c-0.2,0.1-0.4,0.2-0.6,0.4c-0.2,0.2-0.4,0.3-0.6,0.4
		c-0.2,0.1-0.3,0.3-0.5,0.5c-0.2,0.2-0.3,0.4-0.4,0.6c-0.2,0.3-0.3,0.6-0.3,1c-0.1,0.4,0,0.8,0.1,1c0.2,0.4,0.5,0.6,0.9,0.7
		c0.6,0.1,1,0,1.5-0.1c0.4-0.1,0.8-0.3,1.1-0.5c0.3-0.2,0.6-0.5,0.8-0.8c0.2-0.3,0.4-0.6,0.6-0.9c0.1-0.2,0.3-0.3,0.4-0.4
		c0.2-0.1,0.3-0.1,0.5-0.1c0.1,0,0.2,0,0.3,0.1c0.1,0.1,0,0.2-0.1,0.4c-0.1,0.1-0.1,0.1-0.2,0.3c-0.1,0.2-0.2,0.4-0.3,0.6
		c-0.1,0.2-0.1,0.4,0,0.6c0.1,0.2,0.1,0.3,0.2,0.4c0,0,0,0.1,0.1,0.1c0.1,0.1,0.1,0.1,0.2,0.2c0.2,0.1,0.4,0.1,0.6,0
		c0.3-0.1,0.4-0.2,0.5-0.2c0.4-0.2,0.7-0.5,1-0.9c0.3-0.4,0.6-0.7,0.9-1.1c0.3-0.4,0.5-0.7,0.7-1C94.4,34.3,94.5,34.1,94.6,34.1z"/>
	<path fill="#5691B6" stroke="#5691B6" stroke-width="0.5" stroke-miterlimit="10" d="M132.2,6.2c0.2-0.3,0.5-0.6,0.8-0.7
		c0.3-0.1,0.5-0.2,0.8-0.1c0.2,0.1,0.4,0.2,0.5,0.4c0.1,0.2,0,0.5-0.1,0.9c-0.2,0.4-0.4,0.7-0.7,1.1c-0.2,0.4-0.5,0.7-0.7,1
		c-1.2,1.8-2.3,3.6-3.4,5.4c-1.1,1.8-2.2,3.6-3.3,5.4c-1.5,2.4-2.9,4.9-4.2,7.3c-1.4,2.4-2.7,4.9-3.9,7.5c-0.6,1.2-1.2,2.5-1.8,3.7
		c-0.6,1.2-1.1,2.5-1.7,3.8c-0.5,1.2-1,2.5-1.5,3.7c-0.5,1.2-1,2.5-1.4,3.8c0,0.1-0.1,0.1-0.3,0.2c-0.2,0.1-0.2,0.1-0.2,0
		c0.7-2.5,1.6-4.9,2.5-7.3c0.9-2.3,1.9-4.7,3-7.2c1.2-2.6,2.4-5.1,3.6-7.6c1.2-2.5,2.6-5,3.9-7.4c0.9-1.7,1.9-3.3,2.9-5
		c1-1.7,1.9-3.3,2.9-5c-0.8,0.9-1.6,1.8-2.6,2.6c-0.9,0.8-1.9,1.6-2.8,2.4c-2,1.6-4.1,3-6.2,4.3c-2.1,1.3-4.2,2.8-6.1,4.5
		c-0.2,0.2-0.4,0.4-0.6,0.6c-0.2,0.2-0.4,0.4-0.6,0.7c-0.2,0.2-0.4,0.5-0.8,1c-0.4,0.5-0.7,1.1-0.8,1.7c-0.1,0.3-0.2,0.5-0.2,0.8
		c0,0.3,0,0.5,0,0.8c0,0.2,0.1,0.3,0.3,0.4c0.2,0.1,0.4,0.2,0.6,0.2c0.2,0,0.5,0.1,0.7,0.1c0.2,0,0.4,0,0.6,0c0.4-0.1,0.6,0,0.6,0.3
		c0,0.3-0.2,0.4-0.5,0.5c-0.3,0-0.7,0-1.2-0.1c-0.5-0.1-1-0.3-1.3-0.8c-0.2-0.4-0.3-0.9-0.2-1.4c0.2-0.8,0.4-1.6,0.8-2.2
		c0.4-0.7,0.7-1.2,1-1.5c0.1-0.1,0.2-0.2,0.3-0.3c0.1-0.1,0.2-0.2,0.3-0.3c0.2-0.2,0.4-0.4,0.6-0.6c0.2-0.2,0.4-0.4,0.7-0.6
		c1-0.8,2-1.6,3-2.3c1.1-0.7,2.1-1.4,3.2-2.1c1-0.7,2.1-1.4,3.2-2.1c2.1-1.5,4.1-3.1,5.9-4.8c0.6-0.6,1.2-1.2,1.8-1.9
		c0.6-0.6,1.1-1.3,1.6-2c0.2-0.4,0.5-0.7,0.7-1.1C131.7,6.9,132,6.6,132.2,6.2z M138.7,32.9c0.7,0,1.1,0,1.3,0.1
		c0.2,0.1,0.2,0.2,0.1,0.3c-0.1,0.1-0.3,0.2-0.6,0.3c-0.3,0.1-0.6,0.2-0.8,0.2h-8.1h-1.4h-7.8h-2h-10.6c-0.1,0-0.2,0-0.2-0.1
		c0-0.1,0.1-0.1,0.2-0.1c0.4,0,1.4,0,2.9,0c1.5,0,3.2,0,5.2-0.1c2,0,4.2-0.1,6.5-0.1c2.3,0,4.5-0.1,6.6-0.1c2.1,0,3.9-0.1,5.5-0.1
		C137,33,138.1,32.9,138.7,32.9z M161.7,45.2c0.2-0.4,0.4-0.5,0.6-0.3c0.2,0.2,0.1,0.4-0.1,0.8c-1.2,1.6-2.4,3.4-3.6,5.2
		c-1.2,1.8-2.4,3.5-3.8,5.2c-0.5,0.6-1,1.2-1.5,1.8c-0.5,0.7-1.1,1.3-1.7,2c-0.6,0.7-1.2,1.3-1.8,1.8c-0.6,0.6-1.2,1.1-1.8,1.5
		c-1.1,0.8-2.3,1.5-3.6,2.1c-1.3,0.6-2.6,0.9-4,0.9c-1.2,0-2.3-0.2-3.4-0.7c-1-0.5-2-1.1-2.8-2c-0.9-0.9-1.6-2-2.1-3.1
		c-0.5-1.1-1-2.3-1.3-3.6c-0.7-3-1-5.9-0.8-9c0.2-3,0.6-6,1.2-8.9c0.7-3.1,1.6-6.2,2.8-9.2c1.2-3,2.5-5.9,4.1-8.8
		c0.7-1.3,1.5-2.7,2.4-4.1c0.9-1.4,1.8-2.8,2.7-4.2c0.9-1.4,1.9-2.7,2.9-4.1c1-1.3,2-2.6,2.9-3.7c0.1-0.1,0.1-0.1,0.2,0
		c0.1,0,0.1,0.1,0,0.2c-1.2,1.5-2.3,2.9-3.4,4.4c-1.1,1.5-2.1,3-3.1,4.6c-1.7,2.7-3.3,5.5-4.8,8.4c-1.4,2.9-2.7,5.8-3.8,8.9
		c-1,3-1.8,6-2.4,9.1c-0.6,3.1-0.8,6.2-0.7,9.3c0.1,1.5,0.2,2.9,0.4,4.3c0.2,1.4,0.6,2.8,1.1,4.1c0.5,1.2,1.1,2.2,1.8,3.3
		c0.7,1,1.7,1.8,2.7,2.5c1.3,0.7,2.6,1.1,3.9,1c1.3,0,2.6-0.3,3.9-0.8c1.3-0.5,2.5-1.2,3.7-2.1c1.2-0.9,2.2-1.7,3.1-2.6
		c2.1-2,3.9-4.3,5.5-6.7C158.7,50.1,160.2,47.6,161.7,45.2z"/>
	<path fill="#5691B6" stroke="#5691B6" stroke-width="0.5" stroke-miterlimit="10" d="M149.3,34.1c0.1-0.1,0.1-0.1,0.1,0
		C149.5,34.2,149.5,34.2,149.3,34.1c0.1,0.1,0,0.2-0.2,0.3c-0.2,0.1-0.3,0.2-0.5,0.4c-0.2,0.1-0.3,0.3-0.5,0.4
		c-0.1,0.1-0.2,0.2-0.3,0.2l-0.5,0.4c-0.2,0.1-0.4,0.3-0.6,0.4c-0.2,0.1-0.4,0.3-0.6,0.4c-0.4,0.3-0.9,0.5-1.4,0.8
		c-0.5,0.3-1,0.5-1.5,0.6c-0.4,0.1-0.9,0.2-1.4,0.3c-0.5,0-0.9-0.1-1.3-0.3c-0.3-0.2-0.5-0.5-0.5-0.9c0-0.2,0-0.5,0-0.7
		c0-0.3,0.1-0.5,0.1-0.7c0.2-0.6,0.4-1.1,0.8-1.7c0.3-0.6,0.7-1,1-1.5c0.2-0.2,0.4-0.4,0.6-0.5c0.2-0.2,0.4-0.3,0.6-0.4
		c0.3-0.2,0.6-0.3,1-0.4c0.4-0.1,0.7-0.1,1,0c0.3,0.1,0.6,0.2,0.8,0.4c0.2,0.2,0.3,0.5,0.4,0.9c0,0.2-0.1,0.4-0.2,0.6
		c-0.1,0.3-0.3,0.5-0.5,0.7c-0.2,0.2-0.4,0.4-0.7,0.6c-0.3,0.2-0.6,0.4-0.9,0.5c-0.3,0.1-0.6,0.3-0.9,0.4c-0.3,0.1-0.6,0.3-1,0.4
		c-0.4,0.1-0.7,0.2-1,0.4c-0.1,0-0.1,0-0.1-0.1c0,0,0-0.1,0.1-0.1c0.4-0.1,0.9-0.3,1.5-0.5c0.6-0.2,1-0.4,1.5-0.6
		c0.3-0.1,0.5-0.3,0.8-0.5c0.3-0.2,0.5-0.4,0.7-0.6c0.1-0.1,0.2-0.2,0.2-0.3c0.1-0.1,0.1-0.2,0.2-0.3c0.1-0.2,0.1-0.4,0-0.6
		c-0.1-0.1-0.2-0.2-0.3-0.2c-0.1,0-0.3,0-0.5,0c-0.5,0.1-0.9,0.3-1.3,0.5c-0.4,0.3-0.9,0.6-1.3,1.1c-0.2,0.2-0.4,0.5-0.6,0.7
		c-0.2,0.2-0.4,0.5-0.5,0.8c-0.3,0.4-0.4,0.8-0.5,1.3c-0.1,0.5,0,0.9,0.2,1.2c0.2,0.2,0.5,0.3,0.8,0.3c0.3,0,0.7-0.1,1.2-0.2
		c0.5-0.2,0.9-0.4,1.4-0.6c0.5-0.3,0.9-0.5,1.4-0.8c0.2-0.1,0.4-0.3,0.6-0.4c0.2-0.1,0.4-0.3,0.6-0.4l0.5-0.4c0,0,0.1-0.1,0.3-0.2
		c0.2-0.1,0.3-0.2,0.5-0.4c0.2-0.1,0.3-0.2,0.5-0.4C149.2,34.2,149.3,34.2,149.3,34.1z"/>
	<path fill="#5691B6" stroke="#5691B6" stroke-width="0.5" stroke-miterlimit="10" d="M159.7,34c0.1,0,0.1,0,0.1,0
		C159.8,34.1,159.8,34.1,159.7,34c-0.3,0.4-0.6,0.7-1,0.9c-0.4,0.3-0.8,0.5-1.1,0.7c-0.4,0.2-0.8,0.4-1.2,0.4
		c-0.4,0.1-0.8,0.1-1.1,0c-0.4-0.1-0.7-0.3-0.9-0.6c-0.2-0.3-0.3-0.7-0.4-1.1c0-0.3,0-0.5,0.1-0.8c0.1-0.3,0.1-0.6,0.2-0.9
		c0.1-0.3,0.1-0.5,0.2-0.7c0-0.2,0-0.2-0.1-0.2c-0.1,0-0.3,0.1-0.6,0.2c-0.3,0.1-0.6,0.2-0.9,0.3c-0.3,0.1-0.6,0.2-0.9,0.2
		c-0.3,0.1-0.4,0.1-0.4,0.1c-0.1,0.4-0.2,0.9-0.4,1.3c-0.2,0.4-0.5,0.9-0.7,1.3c-0.3,0.5-0.6,1-1,1.5c-0.3,0.5-0.7,1-1,1.5
		c-0.1,0.2-0.3,0.4-0.5,0.5c-0.2,0.1-0.4,0.2-0.6,0.3c-0.2,0.1-0.3,0.1-0.4,0c-0.1-0.1,0-0.2,0.1-0.4c0.4-0.6,0.7-1.2,1.1-1.8
		c0.3-0.6,0.6-1.2,0.9-1.8c0.1-0.3,0.3-0.6,0.4-0.9c0.1-0.3,0.2-0.6,0.3-0.9c-0.2,0-0.4-0.1-0.6-0.2c-0.2-0.1-0.3-0.3-0.3-0.6
		c0-0.3,0.2-0.6,0.5-0.8c0.2-0.1,0.4-0.1,0.6-0.1c0.2,0,0.5,0,0.7,0.1c0.2,0.1,0.4,0.2,0.6,0.4c0.2,0.2,0.3,0.4,0.3,0.7
		c0.6-0.1,1.1-0.3,1.5-0.5c0.5-0.2,0.9-0.4,1.3-0.6c0.4-0.2,0.7-0.3,1-0.4c0.3-0.1,0.5-0.1,0.7,0c0.2,0.1,0.3,0.3,0.2,0.5
		c-0.1,0.2-0.2,0.4-0.4,0.7c-0.2,0.3-0.3,0.5-0.5,0.8c-0.2,0.3-0.3,0.5-0.4,0.8c-0.1,0.4-0.1,0.8,0,1.3c0.1,0.4,0.3,0.7,0.8,0.8
		c0.6,0.1,1.3,0,2-0.4C158.5,35,159.1,34.5,159.7,34z"/>
	<path fill="#5691B6" stroke="#5691B6" stroke-width="0.5" stroke-miterlimit="10" d="M173.3,40.4c0.1-0.1,0.2-0.2,0.3-0.1
		c0.1,0,0.1,0.1-0.1,0.3c-0.3,0.3-0.5,0.5-0.8,0.8c-0.3,0.3-0.5,0.5-0.8,0.8c-0.2,0.1-0.4,0.3-0.6,0.4c-0.2,0.1-0.4,0.3-0.6,0.3
		c-0.2,0.1-0.3,0.1-0.5,0.1c-0.2,0-0.4,0-0.5-0.1c-0.2-0.1-0.4-0.3-0.5-0.5c-0.1-0.2-0.2-0.4-0.2-0.6c-0.1-0.7-0.1-1.4,0-2.1
		c0.1-0.8,0.3-1.5,0.6-2.2c0.3-0.7,0.6-1.4,1-2c0.7-1.2,1.5-2.2,2.3-3.2c-0.2,0.1-0.5,0.3-0.8,0.5c-0.3,0.2-0.5,0.4-0.7,0.7
		c-0.1,0.2-0.3,0.4-0.5,0.6c-0.2,0.2-0.4,0.4-0.6,0.6c-0.2,0.2-0.4,0.4-0.5,0.6c-0.2,0.2-0.3,0.3-0.4,0.4c-0.2,0.3-0.4,0.5-0.7,0.8
		c-0.2,0.3-0.4,0.5-0.7,0.7c-0.2,0.2-0.4,0.4-0.7,0.7c-0.2,0.2-0.5,0.4-0.7,0.6c-0.2,0.1-0.4,0.3-0.6,0.4c-0.2,0.1-0.5,0.2-0.7,0.3
		c-0.1,0-0.3,0-0.5,0c-0.2,0-0.3-0.1-0.4-0.2c-0.1-0.1-0.2-0.2-0.2-0.4c0-0.2-0.1-0.3-0.1-0.4c0-0.2,0-0.4,0-0.6
		c0-0.2,0.1-0.4,0.1-0.6c0.1-0.5,0.3-0.9,0.5-1.4c0.2-0.5,0.4-0.9,0.6-1.4l0,0c-0.1,0.1-0.1,0.1-0.1,0.2c0,0.1-0.1,0.1-0.1,0.2
		c-0.4,0.5-0.7,0.9-1.1,1.4c-0.4,0.5-0.8,0.9-1.2,1.3c-0.4,0.4-0.8,0.7-1.3,1c-0.2,0.1-0.4,0.2-0.6,0.3c-0.2,0.1-0.4,0.1-0.7,0.2
		c-0.5,0-0.9-0.1-1.3-0.3c-0.3-0.2-0.5-0.4-0.6-0.8c-0.1-0.2-0.1-0.3-0.1-0.5c0-0.2,0-0.4,0.1-0.5c0.1-0.2,0.1-0.4,0.2-0.6
		c0.1-0.2,0.2-0.4,0.3-0.6c0.2-0.4,0.5-0.8,0.8-1.2c0.3-0.4,0.6-0.7,1-1.1c0.1-0.2,0.3-0.3,0.4-0.5c0.2-0.2,0.3-0.3,0.4-0.4
		c0.2-0.2,0.5-0.4,0.7-0.6c0.3-0.2,0.6-0.3,1-0.2c0.4,0.1,0.7,0.2,0.9,0.4c0.3,0.2,0.4,0.4,0.5,0.6c0.1,0.2-0.1,0.4-0.4,0.5
		c-0.5,0.2-0.9,0.5-1.3,0.8c-0.8,0.5-1.6,1.1-2.3,1.8c-0.3,0.3-0.6,0.6-0.9,1c-0.1,0.1-0.2,0.3-0.3,0.5c-0.1,0.2-0.1,0.3-0.2,0.5
		c-0.1,0.3,0,0.6,0.2,0.8c0.1,0.1,0.2,0.2,0.3,0.2c0.1,0,0.2,0,0.3,0c0.4,0,0.8-0.1,1.2-0.3c0.5-0.3,0.9-0.6,1.3-0.9
		c0.9-0.8,1.7-1.7,2.4-2.7c0.3-0.4,0.5-0.7,0.8-1.1c0.3-0.4,0.5-0.8,0.8-1.2c0,0,0-0.1,0.1-0.1c0,0,0-0.1,0.1-0.1
		c0.2-0.3,0.4-0.4,0.7-0.5c0.3-0.1,0.6,0,0.9,0c0.3,0.1,0.5,0.2,0.6,0.4c0.1,0.2,0.1,0.3-0.1,0.5l-0.1,0.1c-0.1,0.1-0.2,0.2-0.3,0.2
		c-0.7,0.7-1.3,1.4-1.8,2c-0.1,0.2-0.3,0.4-0.4,0.6c-0.1,0.2-0.3,0.4-0.4,0.6c-0.3,0.4-0.5,0.8-0.6,1.2c0,0.1,0,0.1-0.1,0.2
		c0,0.1,0,0.2-0.1,0.3v0.2v0.1v0v0c0,0,0,0.1,0,0.1v0l0,0l0,0.1c0,0,0,0,0,0c0.1,0.1,0.1,0.1,0.2,0.1c0.1,0.1,0.1,0.1,0.2,0.1
		c0.2,0.1,0.4,0.1,0.5,0c0.1,0,0.3-0.1,0.4-0.3c0.3-0.2,0.5-0.4,0.8-0.6c0.2-0.2,0.4-0.4,0.7-0.6c0.2-0.2,0.4-0.5,0.6-0.7
		c0.2-0.3,0.4-0.5,0.6-0.8c0.1-0.1,0.2-0.3,0.5-0.5c0.2-0.3,0.5-0.5,0.7-0.8c0.2-0.3,0.5-0.5,0.7-0.8c0.2-0.2,0.4-0.4,0.5-0.5
		c0.3-0.3,0.5-0.6,0.8-0.8c0.3-0.2,0.6-0.4,1-0.5c0.3-0.1,0.5-0.2,0.8-0.2c0.3,0,0.6,0,0.8,0c0.2,0.1,0.4,0.1,0.4,0.3
		c0.1,0.1,0,0.3-0.2,0.4c-0.4,0.3-0.7,0.6-1,0.9c-0.3,0.3-0.7,0.6-1,1c-0.5,0.6-1,1.2-1.4,1.8c-0.5,0.6-0.9,1.3-1.2,2
		c-0.3,0.6-0.6,1.3-0.7,2c-0.1,0.3-0.1,0.7-0.1,1c0,0.3,0,0.6,0.1,0.8c0,0.1,0,0.2,0.1,0.3c0,0.1,0.1,0.1,0.1,0.2
		c0.1,0.1,0.2,0.2,0.5,0.2c0.2,0,0.4,0,0.5,0c0.1-0.1,0.3-0.1,0.4-0.3c0.4-0.2,0.7-0.4,0.9-0.7C172.5,41.4,172.8,41,173.3,40.4z"/>
	<path fill="#5691B6" stroke="#5691B6" stroke-width="0.5" stroke-miterlimit="10" d="M186.3,34.1c0.1,0,0.1,0,0.1,0
		c0,0,0,0.1-0.1,0.1c0,0-0.1,0.2-0.3,0.4c-0.2,0.3-0.4,0.6-0.7,0.9c-0.3,0.4-0.6,0.7-0.9,1.1c-0.3,0.4-0.6,0.7-0.9,0.9
		c-0.4,0.3-0.8,0.5-1.2,0.5c-0.4,0.1-0.8,0-1.1-0.2c-0.4-0.2-0.6-0.4-0.6-0.8c-0.1-0.2-0.1-0.3,0-0.4c0-0.1,0.1-0.3,0.1-0.5
		c-0.2,0.3-0.5,0.7-0.9,1.1c-0.4,0.4-1,0.7-1.7,0.9c-0.3,0.1-0.6,0.1-0.9,0.1c-0.3,0-0.6,0-0.8-0.1c-0.4-0.1-0.8-0.4-1-0.7
		c-0.2-0.4-0.3-0.7-0.2-1.2c0.1-0.4,0.2-0.8,0.4-1.2c0.4-0.8,0.9-1.5,1.5-2.1c0.6-0.6,1.3-1,2.2-1.4c0.3-0.1,0.6-0.2,1-0.3
		c0.3-0.1,0.7-0.1,1,0c0.3,0.1,0.5,0.2,0.6,0.3c0.2,0.2,0.2,0.4,0.2,0.6c0,0.2,0,0.3-0.1,0.5c-0.1,0.2-0.1,0.3-0.2,0.4
		c-0.3,0.4-0.6,0.9-1,1.3c-0.1,0-0.1,0-0.1,0c0,0,0-0.1,0-0.1l0,0c0.2-0.2,0.3-0.3,0.3-0.4c0.1-0.1,0.1-0.3,0.2-0.5
		c0.1-0.3,0-0.5-0.5-0.5c-0.3,0-0.6,0-1.1,0.1c-0.4,0.1-0.9,0.2-1.3,0.5c-0.2,0.1-0.4,0.2-0.6,0.4c-0.2,0.2-0.4,0.3-0.6,0.4
		c-0.2,0.1-0.3,0.3-0.5,0.5c-0.2,0.2-0.3,0.4-0.4,0.6c-0.2,0.3-0.3,0.6-0.3,1c-0.1,0.4,0,0.8,0.1,1c0.2,0.4,0.5,0.6,0.9,0.7
		c0.6,0.1,1,0,1.5-0.1c0.4-0.1,0.8-0.3,1.1-0.5c0.3-0.2,0.6-0.5,0.8-0.8c0.2-0.3,0.4-0.6,0.6-0.9c0.1-0.2,0.3-0.3,0.4-0.4
		c0.2-0.1,0.3-0.1,0.5-0.1c0.1,0,0.2,0,0.3,0.1c0.1,0.1,0,0.2-0.1,0.4c-0.1,0.1-0.1,0.1-0.2,0.3c-0.1,0.2-0.2,0.4-0.3,0.6
		c-0.1,0.2-0.1,0.4,0,0.6c0.1,0.2,0.1,0.3,0.2,0.4c0,0,0,0.1,0.1,0.1c0.1,0.1,0.1,0.1,0.3,0.2c0.2,0.1,0.4,0.1,0.6,0
		c0.3-0.1,0.4-0.2,0.5-0.2c0.4-0.2,0.7-0.5,1-0.9c0.3-0.4,0.6-0.7,0.9-1.1c0.3-0.4,0.5-0.7,0.7-1C186.1,34.3,186.3,34.1,186.3,34.1z
		"/>
	<path fill="#5691B6" stroke="#5691B6" stroke-width="0.5" stroke-miterlimit="10" d="M203.4,42.7c0.1-0.2,0.3-0.2,0.4-0.1
		c0.1,0.1,0.1,0.2,0,0.4c-0.2,0.2-0.4,0.4-0.6,0.6c-0.2,0.2-0.4,0.4-0.6,0.6c-1,0.9-2.1,1.7-3.3,2.5c-1.2,0.8-2.5,1.3-3.9,1.5
		c-0.3,0.1-0.7,0.1-1.1,0.1c-0.4,0-0.9,0-1.3,0c-0.4,0-0.9-0.1-1.3-0.2c-0.4-0.1-0.8-0.2-1.1-0.4c-0.4-0.3-0.8-0.6-1-1
		c-0.3-0.5-0.5-1-0.7-1.6c-0.1-0.6-0.2-1.2-0.1-1.8c0.1-0.7,0.2-1.3,0.4-2c0.2-0.7,0.5-1.3,0.8-1.9c0.6-1.3,1.3-2.6,2.1-3.8
		c0.1-0.3,0.3-0.5,0.6-0.9c0.2-0.3,0.5-0.7,0.7-1c0.3-0.4,0.5-0.7,0.7-1c0.2-0.3,0.4-0.6,0.6-0.9c-0.1,0-0.1,0-0.2,0.1
		c-0.1,0-0.2,0-0.2,0.1c-0.4,0.1-0.8,0.4-1.2,0.6c-0.4,0.3-0.9,0.6-1.3,0.9c-0.4,0.3-0.8,0.7-1.2,1c-0.4,0.3-0.7,0.6-1,0.9
		c-0.6,0.4-1.2,0.9-1.8,1.3c-0.6,0.4-1.2,0.8-1.9,1.1c-0.1,0.1-0.2,0.1-0.4,0.2c-0.2,0.1-0.3,0.1-0.4,0.1c-0.1,0-0.2,0-0.3-0.1
		c-0.1-0.1-0.1-0.2,0-0.3c0.1-0.4,0.3-0.8,0.4-1c0.2-0.4,0.5-0.9,0.9-1.5c0.4-0.6,0.7-1.1,1-1.5c0.1-0.2,0.2-0.3,0.3-0.5
		c0.1-0.1,0.2-0.3,0.2-0.4c0.1-0.1,0.2-0.2,0.2-0.4c0.1-0.1,0.2-0.2,0.4-0.4c0.2-0.1,0.4-0.2,0.6-0.3c0.2-0.1,0.4-0.2,0.6-0.3
		c0.2-0.1,0.3-0.1,0.4-0.1c0.2,0,0.3-0.1,0.5-0.1c0.2,0,0.3-0.1,0.4,0c0.1,0,0.1,0.1,0.1,0.2c0,0.1-0.1,0.3-0.3,0.5
		c-0.1,0.2-0.3,0.4-0.6,0.7c-0.3,0.3-0.5,0.6-0.8,1c-0.3,0.3-0.5,0.7-0.7,1c-0.2,0.3-0.4,0.6-0.6,0.8c-0.1,0.1-0.2,0.3-0.3,0.5
		c-0.1,0.2-0.2,0.4-0.3,0.5c-0.1,0.2-0.1,0.3,0,0.3c0.1,0.1,0.2,0,0.5-0.1c0.3-0.2,0.8-0.4,1.3-0.9c0.6-0.4,1.4-1.1,2.4-1.9
		c0.6-0.5,1.2-0.9,1.7-1.3c0.6-0.4,1.2-0.7,2-0.9c0.4-0.1,0.8-0.2,1.2-0.3c0.4-0.1,0.6-0.1,0.9-0.1c0.2,0,0.3,0.1,0.4,0.3
		c0,0.1-0.1,0.4-0.3,0.7c-0.2,0.3-0.4,0.5-0.6,0.8c-0.2,0.3-0.4,0.5-0.6,0.8c-0.2,0.3-0.5,0.6-0.8,0.9c-0.3,0.3-0.6,0.7-1,1.1
		c-0.3,0.4-0.7,0.7-1,1.1c-0.3,0.4-0.6,0.7-0.8,1c-0.4,0.6-0.8,1.2-1.2,1.8c-0.4,0.6-0.7,1.3-1,1.9c-0.2,0.6-0.4,1.1-0.5,1.7
		c-0.1,0.6-0.1,1.2,0,1.8c0.1,0.6,0.3,1.1,0.5,1.5c0.1,0.2,0.3,0.4,0.5,0.6c0.2,0.2,0.4,0.4,0.6,0.5c0.7,0.3,1.4,0.4,2.2,0.5
		c0.7,0,1.5,0,2.1-0.1c0.7-0.1,1.3-0.3,1.9-0.5c0.6-0.2,1.1-0.5,1.5-0.8c1-0.7,2-1.4,2.9-2.1C202.2,44,202.8,43.4,203.4,42.7z
		 M186.2,34.6c-0.1,0-0.2,0-0.3-0.1c-0.1-0.1-0.1-0.1,0-0.2c0-0.1,0.2-0.2,0.4-0.3c0.2-0.1,0.4-0.3,0.5-0.5c0.1-0.2,0.3-0.3,0.4-0.5
		c0.1-0.2,0.2-0.3,0.4-0.5l0.4,0.6L186.2,34.6z M203,32.1c0.1,0.1,0,0.1,0,0.1c-0.1,0-0.1,0-0.1,0c-0.1-0.3-0.3-0.5-0.5-0.6
		c-0.4-0.3-0.8-0.4-1.2-0.4c-0.4,0-0.8,0.2-1,0.4c-0.7,0.6-1,1.4-0.8,2.5c0.1,0.5,0.2,0.9,0.4,1.4c0.2,0.5,0.4,0.9,0.5,1.4
		c0.4,1,0.7,2,0.8,2.9c0.1,0.5,0.2,1,0.2,1.5c0,0.5,0,1-0.2,1.4c-0.3,0.9-0.8,1.7-1.6,2.2c-0.6,0.4-1.2,0.6-2,0.7
		c-0.8,0.1-1.5-0.1-2.3-0.6c-0.8-0.5-1.3-1.2-1.5-2.1c-0.2-0.9-0.2-1.7-0.1-2.4c0.1-0.9,0.5-1.6,1-2.3c0.3-0.3,0.5-0.6,0.9-0.8
		c0.3-0.2,0.7-0.3,1.2-0.4c0.2,0,0.3,0.1,0.3,0.2c0,0.1-0.1,0.2-0.2,0.3c-0.4,0.1-0.8,0.2-1.2,0.3c-0.4,0.1-0.7,0.4-0.9,0.8
		c-0.5,0.7-0.8,1.5-0.9,2.4c-0.1,0.4,0,0.9,0,1.3c0.1,0.4,0.2,0.9,0.4,1.3c0.2,0.4,0.5,0.7,0.8,1c0.3,0.3,0.7,0.5,1.1,0.6
		c0.9,0.3,1.7,0.3,2.4-0.1c0.7-0.3,1.3-0.8,1.7-1.5c0.2-0.4,0.3-0.9,0.3-1.4c0-0.5-0.1-1-0.2-1.5c-0.1-0.5-0.3-1-0.5-1.5
		c-0.2-0.5-0.4-1-0.6-1.5c-0.2-0.5-0.4-0.9-0.6-1.3c-0.2-0.4-0.4-0.9-0.5-1.3c-0.2-0.4-0.3-0.9-0.3-1.3c-0.1-0.5,0-0.9,0.1-1.3
		c0.1-0.2,0.2-0.4,0.4-0.6c0.2-0.2,0.4-0.4,0.7-0.6c0.3-0.2,0.7-0.3,1.1-0.4c0.4-0.1,0.9-0.1,1.4-0.1c0.4,0.1,0.7,0.2,1,0.4
		C202.5,31.4,202.8,31.7,203,32.1z"/>
	<path fill="#5691B6" stroke="#5691B6" stroke-width="0.5" stroke-miterlimit="10" d="M209,32.8c0.8,0.4,0.8,1.1,0.1,2.2
		c-0.3,0.5-0.8,0.9-1.3,1.4c-0.5,0.4-1,0.8-1.6,1.1c-0.5,0.3-1.1,0.6-1.7,0.8c-0.6,0.2-1.1,0.3-1.6,0.3c-0.5-0.1-0.8-0.3-0.9-0.8
		c-0.1-0.4,0-0.9,0.1-1.5c0.1-0.4,0.3-0.8,0.5-1.3c0.2-0.4,0.5-0.9,0.8-1.3c0.6-0.7,1.3-1.2,2.1-1.6c0.9-0.4,1.7-0.6,2.5-0.6
		c0.8,0,1.5,0,2.1,0.1c0.1,0,0,0.1-0.1,0.4c-0.1,0.2-0.2,0.3-0.3,0.3c-0.4-0.1-1-0.2-1.5-0.2c-0.6,0-1.2,0-1.7,0.1
		c-0.6,0.1-1.2,0.4-1.7,0.7c-0.6,0.3-1,0.8-1.5,1.5c-0.3,0.4-0.5,0.8-0.6,1c-0.1,0.3-0.2,0.6-0.3,0.9c-0.1,0.4,0,0.8,0.2,1
		c0.1,0.2,0.4,0.3,0.7,0.2c0.3,0,0.7-0.2,1.1-0.4c0.6-0.3,1-0.5,1.3-0.8c0.3-0.3,0.7-0.6,1.1-1c0.2-0.2,0.4-0.5,0.5-0.7
		c0.1-0.3,0.2-0.5,0.3-0.7c0.1-0.2,0-0.4-0.3-0.5c-0.2-0.1-0.4-0.2-0.6-0.4c-0.1-0.1-0.1-0.2,0.1-0.2c0.2-0.1,0.4-0.1,0.6-0.2
		c0.3,0,0.5-0.1,0.8,0C208.6,32.7,208.8,32.8,209,32.8z M215.6,34.3C215.7,34.3,215.7,34.3,215.6,34.3c0,0.1-0.1,0.1-0.1,0.1
		c-0.2,0.1-0.4,0.1-0.6,0.1c-0.2,0-0.4,0-0.7,0H213c-0.8-0.1-1.5-0.2-2-0.3c-0.3-0.1-0.6-0.2-0.8-0.3c-0.2-0.1-0.5-0.3-0.8-0.5
		c-0.1-0.1-0.3-0.1-0.5-0.2c-0.2-0.1-0.3-0.2-0.4-0.4l0,0c0.2,0,0.3,0.1,0.4,0.2c0.3,0.1,0.5,0.2,0.6,0.3c0.2,0.1,0.5,0.2,0.7,0.4
		c0.3,0.1,0.6,0.2,0.9,0.4c0.6,0.2,1.2,0.3,2,0.3c0.2,0,0.4,0,0.6,0s0.4,0,0.6,0C214.8,34.2,215.2,34.2,215.6,34.3z"/>
	<path fill="#5691B6" stroke="#5691B6" stroke-width="0.5" stroke-miterlimit="10" d="M230.5,41.8c0.1-0.2,0.3-0.2,0.4-0.1
		c0.1,0.1,0.1,0.2,0,0.4c-0.2,0.2-0.4,0.4-0.6,0.6c-0.2,0.2-0.4,0.4-0.6,0.6c-0.4,0.4-0.9,0.8-1.3,1.1c-0.4,0.3-0.9,0.7-1.4,1
		c-0.5,0.4-1,0.7-1.5,1c-0.5,0.3-1,0.6-1.6,0.9c-0.5,0.2-1,0.4-1.5,0.5c-0.5,0.1-1,0.2-1.5,0.2c-0.5-0.1-0.9-0.2-1.3-0.4
		c-0.4-0.3-0.8-0.6-1-1c-0.3-0.5-0.5-1-0.7-1.6c-0.1-0.6-0.2-1.2-0.1-1.8c0.1-0.7,0.2-1.3,0.4-2c0.2-0.7,0.5-1.3,0.8-1.9
		c0.6-1.3,1.3-2.6,2.1-3.8c0.1-0.3,0.3-0.5,0.6-0.9c0.2-0.3,0.5-0.7,0.7-1c0.3-0.4,0.5-0.7,0.7-1c0.2-0.3,0.4-0.6,0.6-0.9
		c-0.1,0-0.1,0-0.2,0.1c-0.1,0-0.2,0-0.2,0.1c-0.4,0.1-0.8,0.4-1.2,0.6c-0.4,0.3-0.9,0.6-1.3,0.9c-0.4,0.3-0.8,0.7-1.2,1
		c-0.4,0.3-0.7,0.6-1,0.9c-0.6,0.4-1.2,0.9-1.8,1.3c-0.6,0.4-1.2,0.8-1.9,1.1c-0.1,0.1-0.2,0.1-0.4,0.2c-0.2,0.1-0.3,0.1-0.4,0.1
		c-0.1,0-0.2,0-0.3-0.1c-0.1-0.1-0.1-0.2,0-0.3c0.1-0.4,0.3-0.8,0.4-1c0.2-0.4,0.5-0.9,0.9-1.5c0.4-0.6,0.7-1.1,1-1.5
		c0.1-0.2,0.2-0.3,0.3-0.5c0.1-0.1,0.2-0.3,0.2-0.4c0.1-0.1,0.2-0.2,0.2-0.4c0.1-0.1,0.2-0.2,0.4-0.4c0.2-0.1,0.4-0.2,0.6-0.3
		c0.2-0.1,0.4-0.2,0.6-0.3c0.2-0.1,0.3-0.1,0.4-0.1c0.2,0,0.3-0.1,0.5-0.1c0.2,0,0.3-0.1,0.4,0c0.1,0,0.1,0.1,0.1,0.2
		c0,0.1-0.1,0.3-0.3,0.5c-0.1,0.2-0.3,0.4-0.6,0.7c-0.3,0.3-0.5,0.6-0.8,1c-0.3,0.3-0.5,0.7-0.7,1c-0.2,0.3-0.4,0.6-0.6,0.8
		c-0.1,0.1-0.2,0.3-0.3,0.5c-0.1,0.2-0.2,0.4-0.3,0.5c-0.1,0.2-0.1,0.3,0,0.3c0.1,0.1,0.2,0,0.5-0.1c0.3-0.2,0.8-0.4,1.3-0.9
		c0.6-0.4,1.4-1.1,2.4-1.9c0.6-0.5,1.2-0.9,1.7-1.3c0.6-0.4,1.2-0.7,2-0.9c0.4-0.1,0.8-0.2,1.2-0.3c0.4-0.1,0.6-0.1,0.9-0.1
		c0.2,0,0.3,0.1,0.4,0.3c0,0.1-0.1,0.4-0.3,0.7c-0.2,0.3-0.4,0.5-0.6,0.8c-0.2,0.3-0.4,0.5-0.6,0.8c-0.2,0.3-0.5,0.6-0.8,0.9
		c-0.3,0.3-0.6,0.7-1,1.1c-0.3,0.4-0.7,0.7-1,1.1c-0.3,0.4-0.6,0.7-0.8,1c-0.4,0.6-0.8,1.2-1.2,1.8c-0.4,0.6-0.7,1.3-1,1.9
		c-0.2,0.6-0.4,1.1-0.5,1.7c-0.1,0.6-0.1,1.2,0,1.8c0.1,0.6,0.3,1.1,0.6,1.5c0.1,0.2,0.3,0.4,0.5,0.6c0.2,0.2,0.4,0.4,0.6,0.5
		c0.4,0.1,0.9,0.2,1.3,0.1c0.4,0,0.9-0.1,1.3-0.3c0.6-0.2,1.1-0.4,1.6-0.7c0.5-0.3,1-0.6,1.5-0.9c1-0.7,2-1.4,2.9-2.1
		C229.3,43.2,229.9,42.6,230.5,41.8z M215.2,34.6c-0.1,0-0.2,0-0.3-0.1c-0.1-0.1-0.1-0.1,0-0.2c0-0.1,0.2-0.2,0.4-0.3
		c0.2-0.1,0.4-0.3,0.5-0.5c0.1-0.2,0.3-0.3,0.4-0.5c0.1-0.2,0.2-0.3,0.4-0.5l0.4,0.6L215.2,34.6z"/>
	<g>
		<path fill="#7B7D7D" d="M86.6,49c2,0,3.6,0.6,4.7,1.7c1.2,1.2,1.8,2.7,1.8,4.5c0,1.7-0.6,3.2-1.8,4.5c-1.1,1.1-2.7,1.7-4.7,1.7
			h-2.3V49H86.6z M85,49.7v10.9h1.6c1.8,0,3.2-0.5,4.2-1.5c1.1-1.1,1.6-2.4,1.6-4c0-1.5-0.5-2.9-1.6-4c-1-1-2.4-1.5-4.2-1.5H85z"/>
		<path fill="#7B7D7D" d="M110,49v0.7h-5.5v5.1h5.5v0.7h-5.5v5.1h5.5v0.7h-6.2V49H110z"/>
		<path fill="#7B7D7D" d="M124.5,54.5c-0.9-0.3-1.6-0.7-2.1-1.2c-0.5-0.5-0.8-1.1-0.8-1.9c0-0.7,0.3-1.3,0.8-1.8
			c0.5-0.5,1.1-0.8,1.9-0.8c0.7,0,1.3,0.3,1.8,0.8c0.3,0.3,0.5,0.6,0.6,0.9l-0.6,0.2c-0.1-0.2-0.2-0.5-0.5-0.7
			c-0.4-0.4-0.8-0.6-1.4-0.6c-0.5,0-1,0.2-1.4,0.6c-0.4,0.4-0.6,0.8-0.6,1.4c0,0.5,0.2,1,0.6,1.4c0.3,0.3,0.8,0.7,1.4,0.9
			c1,0.3,1.8,0.8,2.5,1.5c0.7,0.7,1.1,1.6,1.1,2.6c0,1-0.4,1.9-1.1,2.6c-0.7,0.7-1.6,1.1-2.6,1.1c-1,0-1.9-0.4-2.6-1.1
			c-0.6-0.6-0.9-1.2-1-2l0.7-0.2c0.1,0.7,0.4,1.2,0.9,1.7c0.6,0.6,1.3,0.9,2.1,0.9c0.8,0,1.5-0.3,2.1-0.9c0.6-0.6,0.9-1.3,0.9-2.1
			c0-0.8-0.3-1.5-0.9-2.1C125.9,55.2,125.3,54.8,124.5,54.5z"/>
		<path fill="#7B7D7D" d="M139.4,49v12.3h-0.7V49H139.4z"/>
		<path fill="#7B7D7D" d="M160.9,59.7c-1.2,1.1-2.6,1.7-4.2,1.7c-1.7,0-3.2-0.6-4.5-1.8s-1.8-2.7-1.8-4.5c0-1.7,0.6-3.2,1.8-4.5
			c1.2-1.2,2.7-1.9,4.5-1.9c1.6,0,3,0.5,4.2,1.6l-0.5,0.5c-1.1-0.9-2.3-1.4-3.7-1.4c-1.5,0-2.9,0.5-4,1.6c-1.1,1.1-1.6,2.4-1.6,4
			c0,1.6,0.5,2.9,1.6,4c1.1,1.1,2.4,1.6,4,1.6c1.3,0,2.5-0.4,3.5-1.2v-3.8h0.7V59.7z"/>
		<path fill="#7B7D7D" d="M172.6,49l8.2,11.5V49h0.7v12.3h-1.1l-8-11.2v11.2h-0.7V49H172.6z"/>
	</g>
</g>
</svg>
