<?xml version="1.0" encoding="UTF-8"?>
<svg width="94px" height="117px" viewBox="0 0 94 117" version="1.1" xmlns="http://www.w3.org/2000/svg" xmlns:xlink="http://www.w3.org/1999/xlink">
    <!-- Generator: Sketch 64 (93537) - https://sketch.com -->
    <title>Combined Shape</title>
    <desc>Created with Sketch.</desc>
    <g id="Page-1" stroke="none" stroke-width="1" fill="none" fill-rule="evenodd">
        <g id="painting" transform="translate(-41.000000, -30.000000)" fill="#5E5E5E" fill-rule="nonzero">
            <path d="M133.404697,46 C134.284006,46 135,46.7150374 135,47.5946757 L135,47.5946757 L135,116.404883 C135,117.284779 134.284189,118 133.404697,118 L133.404697,118 L111.771,118 L123.159179,145.52034 L120.840821,146.47966 L109.056,118 L68.981,118 L59.1859704,146.408955 L56.8140296,145.591045 L66.328,118 L42.5953035,118 C41.7646713,118 41.0800397,117.362041 41.0065332,116.549913 L41,116.404883 L41,47.5946757 C41,46.7150374 41.7159936,46 42.5953035,46 L42.5953035,46 Z M133,48 L43,48 L43,116 L133,116 L133,48 Z M88.7545,30 L88.754,37.245 L96,37.2455 L96,39.7545 L80,39.7545 L80,37.2455 L86.245,37.245 L86.2455,30 L88.7545,30 Z" id="Combined-Shape"></path>
        </g>
    </g>
</svg>