<svg version="1.1" id="Layer_1" xmlns="http://www.w3.org/2000/svg" xmlns:xlink="http://www.w3.org/1999/xlink" x="0px" y="0px" viewBox="0 0 304.7 269" enable-background="new 0 0 304.7 269" xml:space="preserve">
	<circle fill="none" stroke="#5E5E5E" stroke-width="3" stroke-miterlimit="10" cx="147.7" cy="158.6" r="57.2"/>
	<circle fill="#5E5E5E" cx="237.7" cy="90.2" r="10"/>
	<rect x="29.9" y="47.5" fill="#5E5E5E" width="32.9" height="12.4"/>
	<path fill="#5E5E5E" d="M179.2,41.7l12.2,21.2l0.9,1.8h1.7h89.3c8.8,0,15.7,8,15.7,18v161.7c0,8.8-5.8,18.3-15.7,18.3H24.9
			c-9.4,0-17.9-8.9-17.9-18.3V82.7c0-9.3,8.5-18,17.9-18h89.5h1.8l0.8-1.9l11-21.1h51 M180.9,38.7h-54.8l-11.8,23H24.9
			c-11,0-20.9,10-20.9,21v161.7c0,11,9.8,21.3,20.9,21.3h258.5c11,0,18.7-10.3,18.7-21.3V82.7c0-11-7.7-21-18.7-21H194L180.9,38.7
			L180.9,38.7z"/>
</svg>
