<?xml version="1.0" encoding="UTF-8"?>
<svg width="117px" height="89px" viewBox="0 0 117 89" version="1.1" xmlns="http://www.w3.org/2000/svg" xmlns:xlink="http://www.w3.org/1999/xlink">
    <!-- Generator: Sketch 64 (93537) - https://sketch.com -->
    <title>Combined Shape</title>
    <desc>Created with Sketch.</desc>
    <g id="Page-1" stroke="none" stroke-width="1" fill="none" fill-rule="evenodd">
        <g id="Camera" transform="translate(-29.000000, -43.000000)" fill="#5E5E5E" fill-rule="nonzero">
            <path d="M98.7825476,42.9998469 L103.808,51.576 L137.582577,51.5761847 C142.173239,51.5761847 145.747099,55.6007776 145.87554,60.3891723 L145.87554,60.3891723 L145.879115,60.6559593 L145.879115,122.5778 C145.879115,127.493152 142.251965,131.717683 137.582577,131.717683 L137.582577,131.717683 L38.1775769,131.717683 C33.3917707,131.717683 28.9998846,127.346035 28.9998846,122.5778 L28.9998846,122.5778 L28.9998846,60.6559593 C28.9998846,55.8959582 33.3833342,51.5761847 38.1775769,51.5761847 L38.1775769,51.5761847 L71.999,51.576 L76.5466922,42.9998469 L98.7825476,42.9998469 Z M97.636,44.999 L77.749,44.999 L73.2026924,53.5761847 L38.1775769,53.5761847 C34.4814058,53.5761847 30.9998846,57.0071316 30.9998846,60.6559593 L30.9998846,60.6559593 L30.9998846,122.5778 C30.9998846,126.239393 34.4942775,129.717683 38.1775769,129.717683 L38.1775769,129.717683 L137.582577,129.717683 C141.073956,129.717683 143.879115,126.450523 143.879115,122.5778 L143.879115,122.5778 L143.879115,60.6559593 C143.879115,56.7975083 141.085371,53.5761847 137.582577,53.5761847 L137.582577,53.5761847 L102.662222,53.5761847 L97.636,44.999 Z M85.4210769,66.7559668 C98.1699321,66.7559668 108.507038,77.0457638 108.507038,89.7411574 C108.507038,102.436551 98.1699321,112.726348 85.4210769,112.726348 C72.6722217,112.726348 62.3351154,102.436551 62.3351154,89.7411574 C62.3351154,77.0457638 72.6722217,66.7559668 85.4210769,66.7559668 Z M85.4210769,68.8909668 C73.8491629,68.8909668 64.4701154,78.2270896 64.4701154,89.7411574 C64.4701154,101.255225 73.8491629,110.591348 85.4210769,110.591348 C96.992991,110.591348 106.372038,101.255225 106.372038,89.7411574 C106.372038,78.2270896 96.992991,68.8909668 85.4210769,68.8909668 Z" id="Combined-Shape"></path>
        </g>
    </g>
</svg>