<svg version="1.1" id="Layer_1" xmlns="http://www.w3.org/2000/svg" xmlns:xlink="http://www.w3.org/1999/xlink" x="0px" y="0px" viewBox="0 0 310 269" enable-background="new 0 0 310 269" xml:space="preserve">
		<path fill="#5E5E5E" d="M53.8,47.9l202.3,0l0,152.6l-202.3,0L53.8,47.9 M52.2,44.9c-0.7,0-1.3,0.6-1.3,1.3l0,155.9c0,0.7,0.6,1.3,1.3,1.3l205.6,0c0.7,0,1.3-0.6,1.3-1.3l0-155.9c0-0.7-0.6-1.3-1.3-1.3L52.2,44.9L52.2,44.9z"/>
	<line fill="none" stroke="#5E5E5E" stroke-width="3" stroke-miterlimit="10" x1="87.7" y1="267.1" x2="110.8" y2="201.1"/>
	<line fill="none" stroke="#5E5E5E" stroke-width="3" stroke-miterlimit="10" x1="230.8" y1="267.1" x2="203.8" y2="201.1"/>
	<line fill="none" stroke="#5E5E5E" stroke-width="3" stroke-miterlimit="10" x1="137.1" y1="26.4" x2="172.9" y2="26.4"/>
	<line fill="none" stroke="#5E5E5E" stroke-width="3" stroke-miterlimit="10" x1="155" y1="6.7" x2="155" y2="25.2"/>
</svg>
