<?xml version="1.0" encoding="utf-8"?>
<!-- Generator: Adobe Illustrator 24.1.0, SVG Export Plug-In . SVG Version: 6.00 Build 0)  -->
<svg version="1.1" id="Layer_1" xmlns="http://www.w3.org/2000/svg" xmlns:xlink="http://www.w3.org/1999/xlink" x="0px" y="0px"
	 viewBox="0 0 121 121" style="enable-background:new 0 0 121 121;" xml:space="preserve">
<style type="text/css">
	.st0{fill:#5E5E5E;}
	.st1{fill:#FFFFFF;}
</style>
<g id="Group-22" transform="translate(27.000000, 27.000000)">
	<path id="Fill-1" class="st0" d="M84.1,40.2c-3.9,0-7.1-3.2-7.1-7.1s3.2-7.1,7.1-7.1c3.9,0,7.1,3.2,7.1,7.1S88,40.2,84.1,40.2
		 M33.4,56.2C12.1,56.2-7,50.4-15,41.7c3.6-1.2,6.2-4.6,6.2-8.6s-2.6-7.4-6.2-8.6C-7,15.8,12.1,10,33.4,10
		c21.1,0,40.2,5.7,48.3,14.3c-3.8,1.1-6.6,4.6-6.6,8.7s2.8,7.7,6.6,8.7C73.5,50.4,54.5,56.2,33.4,56.2 M-25,33.1
		c0-3.9,3.2-7.1,7.1-7.1c3.9,0,7.1,3.2,7.1,7.1s-3.2,7.1-7.1,7.1C-21.8,40.2-25,37-25,33.1 M84.1,24c0,0-0.1,0-0.1,0
		C76,14.4,55.8,8,33.4,8C10.9,8-9.3,14.4-17.3,24c-0.2,0-0.4,0-0.6,0c-5,0-9.1,4.1-9.1,9.1s4.1,9.1,9.1,9.1c0.2,0,0.4,0,0.6,0
		c7.9,9.6,28.1,16,50.6,16c22.5,0,42.7-6.4,50.6-16c0,0,0.1,0,0.1,0c5,0,9.1-4.1,9.1-9.1S89.1,24,84.1,24"/>
	<path id="Fill-4" class="st0" d="M26,84.1c0-3.9,3.2-7.1,7.1-7.1c3.9,0,7.1,3.2,7.1,7.1c0,3.9-3.2,7.1-7.1,7.1
		C29.2,91.2,26,88,26,84.1 M10,33.4C10,12.1,15.8-7,24.5-15c1.2,3.6,4.6,6.2,8.6,6.2c4,0,7.4-2.6,8.6-6.2c8.7,8,14.5,27.1,14.5,48.4
		c0,21.1-5.7,40.2-14.3,48.3c-1.1-3.8-4.6-6.6-8.7-6.6c-4.2,0-7.7,2.8-8.7,6.6C15.7,73.5,10,54.5,10,33.4 M33.1-25
		c3.9,0,7.1,3.2,7.1,7.1c0,3.9-3.2,7.1-7.1,7.1c-3.9,0-7.1-3.2-7.1-7.1C26-21.8,29.2-25,33.1-25 M42.2,84.1c0,0,0-0.1,0-0.1
		c9.6-7.9,16-28.2,16-50.6c0-22.5-6.4-42.7-16-50.6c0-0.2,0-0.4,0-0.6c0-5-4.1-9.1-9.1-9.1S24-22.9,24-17.9c0,0.2,0,0.4,0,0.6
		C14.4-9.3,8,10.9,8,33.4C8,55.8,14.4,76,24,84c0,0,0,0.1,0,0.1c0,5,4.1,9.1,9.1,9.1S42.2,89.1,42.2,84.1"/>
	<path id="Fill-6" class="st1" d="M31,32.4c0,3.9-3.2,7.1-7.1,7.1c-3.9,0-7.1-3.2-7.1-7.1s3.2-7.1,7.1-7.1
		C27.8,25.4,31,28.5,31,32.4"/>
	<path class="st0" d="M42.3,23.4c-0.1,0-0.3,0-0.4,0c-1-3.9-4.6-6.8-8.8-6.8c-4.2,0-7.8,2.9-8.8,6.8c-0.1,0-0.3,0-0.4,0
		c-5,0-9.1,4.1-9.1,9.1c0,5,4.1,9.1,9.1,9.1c0.4,0,0.8,0,1.2-0.1c0.5,4.6,4.3,8.2,9,8.2c4.7,0,8.6-3.6,9-8.1c4.6-0.5,8.1-4.3,8.1-9
		C51.4,27.4,47.3,23.4,42.3,23.4z M33.1,18.6c3.9,0,7.1,3.2,7.1,7.1c0,3.9-3.2,7.1-7.1,7.1c-3.9,0-7.1-3.2-7.1-7.1
		C26,21.7,29.2,18.6,33.1,18.6z M23.9,39.5c-3.9,0-7.1-3.2-7.1-7.1c0-3.9,3.2-7.1,7.1-7.1c0,0,0.1,0,0.1,0c0,0.1,0,0.2,0,0.3
		c0,3.3,1.8,6.2,4.5,7.8c-1.8,1.4-3,3.5-3.3,5.9C24.8,39.5,24.3,39.5,23.9,39.5z M34.2,47.6c-3.8,0-6.9-3-7.1-6.7c0,0,0,0,0,0
		c0-0.1,0-0.3,0-0.4c0-0.3,0-0.6,0.1-0.9c0,0,0-0.1,0-0.1c0-0.3,0.1-0.6,0.2-0.9c0.5-1.8,1.7-3.3,3.3-4.2c0.8,0.2,1.6,0.3,2.5,0.3
		c0.1,0,0.3,0,0.4,0c0.9,3.6,4,6.3,7.7,6.7C40.7,44.9,37.8,47.6,34.2,47.6z M43.2,39.5c-0.3,0-0.6,0.1-0.9,0.1c0,0,0,0,0,0
		c-0.4,0-0.7,0-1.1-0.1c-2.7-0.4-4.9-2.4-5.7-5c3.9-1.1,6.7-4.6,6.7-8.8c0-0.1,0-0.2,0-0.3c0,0,0.1,0,0.1,0c3.9,0,7.1,3.2,7.1,7.1
		C49.4,36,46.7,39,43.2,39.5z"/>
</g>
</svg>
