<?xml version="1.0" encoding="UTF-8"?>
<svg width="1082px" height="198px" viewBox="0 0 1082 198" version="1.1" xmlns="http://www.w3.org/2000/svg" xmlns:xlink="http://www.w3.org/1999/xlink">
    <!-- Generator: Sketch 64 (93537) - https://sketch.com -->
    <title>Group 34</title>
    <desc>Created with Sketch.</desc>
    <g id="DD-Enterprise-PDF" stroke="none" stroke-width="1" fill="none" fill-rule="evenodd">
        <g id="DD-Enterprise-Page-2" transform="translate(-171.000000, -3837.000000)">
            <g id="Group-34" transform="translate(171.000000, 3837.000000)">
                <polygon id="Fill-1" fill="#FF1269" points="670.5 20 695.685262 71.0231866 752 79.2044246 711.25 118.920442 720.870523 175 670.5 148.523718 620.130541 175 629.75 118.920442 589 79.2044246 645.315802 71.0231866"></polygon>
                <g id="Group-6" transform="translate(625.000000, 78.000000)" fill="#FFFFFF" font-family="Quicksand-Bold, Quicksand" font-size="15.6942" font-weight="bold">
                    <text id="Re-Deﬁned-" letter-spacing="-0.078471">
                        <tspan x="0" y="16">R</tspan>
                        <tspan x="10.6249734" y="16">e-</tspan>
                        <tspan x="25.9425126" y="16" letter-spacing="0.1255536">D</tspan>
                        <tspan x="37.4149728" y="16">eﬁned </tspan>
                    </text>
                    <text id="End-Goal">
                        <tspan x="12" y="36">End Goal</tspan>
                    </text>
                </g>
                <polygon id="Fill-2" fill="#FF1269" points="221.5 21 239.190186 65.8061167 285.254235 51.6996404 261.25 93.4659992 301 120.681299 253.376585 127.95736 256.880372 176 221.5 143.306117 186.119628 176 189.623415 127.95736 142 120.681299 181.75 93.4659992 157.745765 51.6996404 203.809814 65.8061167"></polygon>
                <text id="End-Goal" font-family="Quicksand-Bold, Quicksand" font-size="15.6942" font-weight="bold" fill="#FFFFFF">
                    <tspan x="186" y="107">End Goal</tspan>
                </text>
                <polygon id="Fill-3" fill="#FF1269" points="850.500532 15 877.901085 65.0999787 928 92.5005318 877.901085 119.901085 850.500532 170 823.099979 119.901085 773 92.5005318 823.099979 65.0999787"></polygon>
                <text id="MVP" font-family="Quicksand-Bold, Quicksand" font-size="15.6942" font-weight="bold" fill="#FFFFFF">
                    <tspan x="833" y="99">MVP</tspan>
                </text>
                <path d="M325.615411,93.0471459 L314.28872,86.5135604 L314.28872,91.4089658 L302.661999,91.4089658 C301.756587,91.4089658 301.02247,92.1424793 301.02247,93.0471459 C301.02247,93.9528757 301.756587,94.6853261 302.661999,94.6853261 L314.28872,94.6853261 L314.28872,99.5817946 L325.615411,93.0471459 Z" id="Fill-4" fill="#798A99"></path>
                <path d="M149.097248,93.7053946 L137.770558,87.1707459 L137.770558,92.0672144 L126.143836,92.0672144 C125.238425,92.0672144 124.504307,92.7996649 124.504307,93.7053946 C124.504307,94.6111243 125.238425,95.3435748 126.143836,95.3435748 L137.770558,95.3435748 L137.770558,100.240043 L149.097248,93.7053946 Z" id="Fill-6" fill="#798A99"></path>
                <path d="M584.428906,94.3635369 L573.102216,87.8288883 L573.102216,92.7253568 L561.475495,92.7253568 C560.570083,92.7253568 559.835965,93.4578072 559.835965,94.3635369 C559.835965,95.2682036 560.570083,96.0017171 561.475495,96.0017171 L573.102216,96.0017171 L573.102216,100.898186 L584.428906,94.3635369 Z" id="Fill-8" fill="#798A99"></path>
                <path d="M955.355998,95.0217856 L944.029307,88.4871369 L944.029307,93.3836054 L932.402586,93.3836054 C931.49611,93.3836054 930.763057,94.1160559 930.763057,95.0217856 C930.763057,95.9264523 931.49611,96.6599658 932.402586,96.6599658 L944.029307,96.6599658 L944.029307,101.555371 L955.355998,95.0217856 Z" id="Fill-10" fill="#798A99"></path>
                <path d="M774.066603,95.6788649 L762.739912,89.1452793 L762.739912,94.0406847 L751.113191,94.0406847 C750.207779,94.0406847 749.473661,94.7741982 749.473661,95.6788649 C749.473661,96.5845946 750.207779,97.317045 751.113191,97.317045 L762.739912,97.317045 L762.739912,102.213514 L774.066603,95.6788649 Z" id="Fill-12" fill="#798A99"></path>
                <path d="M450.774813,58.8394775 C450.774813,91.3341261 424.410414,117.677892 391.887939,117.677892 C359.364399,117.677892 333,91.3341261 333,58.8394775 C333,26.3437658 359.364399,0 391.887939,0 C424.410414,0 450.774813,26.3437658 450.774813,58.8394775" id="Fill-14" fill-opacity="0.8" fill="#5691B6"></path>
                <text id="Ideate" font-family="Quicksand-Bold, Quicksand" font-size="15.6942" font-weight="bold" fill="#FFFFFF">
                    <tspan x="366" y="65">Id</tspan>
                    <tspan x="380.093392" y="65" letter-spacing="0.0627768">e</tspan>
                    <tspan x="389.321581" y="65">a</tspan>
                    <tspan x="399.099068" y="65" letter-spacing="-0.078471">t</tspan>
                    <tspan x="405.361054" y="65">e</tspan>
                </text>
                <path d="M554,59.000533 C554,91.584126 527.585192,118 494.999467,118 C462.414808,118 436,91.584126 436,59.000533 C436,26.415874 462.414808,0 494.999467,0 C527.585192,0 554,26.415874 554,59.000533" id="Fill-17" fill-opacity="0.8" fill="#5691B6"></path>
                <text id="User-Test" font-family="Quicksand-Bold, Quicksand" font-size="15.6942" font-weight="bold" fill="#FFFFFF">
                    <tspan x="459" y="65">User </tspan>
                    <tspan x="497.93731" y="65" letter-spacing="-1.883304">T</tspan>
                    <tspan x="503.995271" y="65">est</tspan>
                </text>
                <path d="M502.615563,138.839477 C502.615563,171.335189 476.286812,197.678955 443.80725,197.678955 C411.32875,197.678955 385,171.335189 385,138.839477 C385,106.343766 411.32875,80 443.80725,80 C476.286812,80 502.615563,106.343766 502.615563,138.839477" id="Fill-19" fill-opacity="0.8" fill="#5691B6"></path>
                <text id="Prototype" font-family="Quicksand-Bold, Quicksand" font-size="15.6942" font-weight="bold" fill="#FFFFFF">
                    <tspan x="403" y="145">P</tspan>
                    <tspan x="412.463603" y="145" letter-spacing="-0.3452724">r</tspan>
                    <tspan x="418.584341" y="145">o</tspan>
                    <tspan x="428.220579" y="145" letter-spacing="-0.078471">t</tspan>
                    <tspan x="434.482565" y="145">otype</tspan>
                </text>
                <g id="Group-26" transform="translate(426.000000, 63.576577)" fill="#FFFFFF">
                    <path d="M32.2431974,20.2045766 C31.0385815,26.6074054 25.4259008,31.2561802 18.8988603,31.2561802 C13.6115216,31.2561802 8.94190729,28.2179459 6.70916823,23.6690991 L8.78029951,23.381009 L6.33704506,20.2470991 L3.89485381,17.1131892 L2.40210827,20.7945766 L0.908299514,24.477027 L3.81723955,24.072 C6.33385543,30.0209009 12.2006431,34.0647928 18.8988603,34.0647928 C26.7761763,34.0647928 33.5498814,28.455009 35.0043514,20.7233514 L32.2431974,20.2045766 Z" id="Fill-22"></path>
                    <path d="M34.34261,11.0221568 C32.0662794,4.5683009 25.9358159,0.102372973 18.898435,0.102372973 C10.9381887,0.102372973 4.15278833,5.78019279 2.76317407,13.6043369 L5.52964408,14.0965351 C6.6800363,7.61503964 12.3033491,2.90992252 18.898435,2.90992252 C24.5451384,2.90992252 29.4890606,6.38188649 31.5080947,11.4558865 L28.9510768,11.8470937 L31.4368596,14.9480486 L33.9215793,18.0479405 L35.364354,14.346355 L36.8071287,10.6447694 L34.34261,11.0221568 Z" id="Fill-24"></path>
                </g>
                <path d="M1081.69406,95.8394775 C1081.69406,128.335189 1055.34773,154.678955 1022.8465,154.678955 C990.346321,154.678955 964,128.335189 964,95.8394775 C964,63.3437658 990.346321,37 1022.8465,37 C1055.34773,37 1081.69406,63.3437658 1081.69406,95.8394775" id="Fill-27" fill="#5691B6"></path>
                <text id="Measure" font-family="Quicksand-Bold, Quicksand" font-size="15.6942" font-weight="bold" fill="#FFFFFF">
                    <tspan x="989" y="102">M</tspan>
                    <tspan x="1001.85355" y="102" letter-spacing="0.0627768">e</tspan>
                    <tspan x="1011.08174" y="102">asu</tspan>
                    <tspan x="1037.63633" y="102" letter-spacing="-0.34370298">r</tspan>
                    <tspan x="1043.75863" y="102">e</tspan>
                </text>
                <path d="M117.677892,96.8083125 C117.677892,129.28575 91.3351892,155.615563 58.8384144,155.615563 C26.3427027,155.615563 0,129.28575 0,96.8083125 C0,64.3298125 26.3427027,38 58.8384144,38 C91.3351892,38 117.677892,64.3298125 117.677892,96.8083125" id="Fill-31" fill="#5691B6"></path>
                <text id="Research" font-family="Quicksand-Bold, Quicksand" font-size="15.6942" font-weight="bold" letter-spacing="-0.078471" fill="#FFFFFF">
                    <tspan x="22" y="103">R</tspan>
                    <tspan x="32.6249734" y="103">es</tspan>
                    <tspan x="49.2922138" y="103" letter-spacing="0.0627768">e</tspan>
                    <tspan x="58.5204034" y="103">a</tspan>
                    <tspan x="68.29789" y="103" letter-spacing="-0.3452724">r</tspan>
                    <tspan x="74.418628" y="103">ch</tspan>
                </text>
            </g>
        </g>
    </g>
</svg>