<?xml version="1.0" encoding="utf-8"?>
<!-- Generator: Adobe Illustrator 24.3.0, SVG Export Plug-In . SVG Version: 6.00 Build 0)  -->
<svg version="1.1" id="Layer_1" xmlns="http://www.w3.org/2000/svg" xmlns:xlink="http://www.w3.org/1999/xlink" x="0px" y="0px"
	 viewBox="0 0 1082 198" style="enable-background:new 0 0 1082 198;" xml:space="preserve">
<style type="text/css">
	.st0{fill-rule:evenodd;clip-rule:evenodd;fill:#FF1269;}
	.st1{enable-background:new    ;}
	.st2{fill:#FFFFFF;}
	.st3{font-family:'Quicksand-Bold';}
	.st4{font-size:15.6942px;}
	.st5{fill-rule:evenodd;clip-rule:evenodd;fill:#798A99;}
	.st6{fill-rule:evenodd;clip-rule:evenodd;fill:#5691B6;fill-opacity:0.8;}
	.st7{fill-rule:evenodd;clip-rule:evenodd;fill:#FFFFFF;}
	.st8{fill-rule:evenodd;clip-rule:evenodd;fill:#5691B6;}
</style>
<desc>Created with Sketch.</desc>
<g id="DD-Enterprise-Page-2" transform="translate(-171.000000, -3837.000000)">
	<g id="Group-34" transform="translate(171.000000, 3837.000000)">
		<polygon id="Fill-1" class="st0" points="670.5,20 695.7,71 752,79.2 711.2,118.9 720.9,175 670.5,148.5 620.1,175 629.8,118.9 
			589,79.2 645.3,71 		"/>
		<g id="Group-6" transform="translate(625.000000, 78.000000)">
			<g class="st1">
				<path class="st2" d="M2.3,16c-0.3,0-0.6-0.1-0.8-0.3c-0.2-0.2-0.3-0.4-0.3-0.7V6c0-0.3,0.1-0.5,0.3-0.7C1.6,5.1,1.9,5,2.1,5h4.5
					c0.5,0,1.1,0.1,1.5,0.4C8.7,5.7,9,6.1,9.3,6.6s0.4,1.1,0.4,1.8c0,0.4-0.1,0.8-0.2,1.2s-0.4,0.7-0.7,1c-0.3,0.3-0.6,0.5-0.9,0.7
					l0-0.4c0.3,0.2,0.5,0.3,0.7,0.6c0.2,0.2,0.3,0.4,0.5,0.7c0.1,0.2,0.2,0.5,0.2,0.8c0,0.3,0.1,0.5,0.1,0.7c0,0.2,0,0.4,0.1,0.5
					s0.1,0.2,0.3,0.3c0.2,0.1,0.4,0.3,0.4,0.6c0.1,0.3,0,0.5-0.2,0.7C9.9,15.9,9.8,16,9.6,16c-0.2,0-0.4,0-0.5,0
					c-0.2,0-0.3-0.1-0.4-0.1c-0.2-0.1-0.4-0.3-0.5-0.5s-0.3-0.5-0.4-0.8c-0.1-0.3-0.2-0.8-0.2-1.3c0-0.2,0-0.3-0.1-0.5
					c-0.1-0.2-0.2-0.3-0.3-0.4c-0.1-0.1-0.3-0.2-0.4-0.3C6.5,12,6.3,12,6.1,12H2.9l0.2-0.4V15c0,0.3-0.1,0.5-0.2,0.7
					C2.8,15.9,2.6,16,2.3,16z M2.9,10.4h3.7c0.2,0,0.4-0.1,0.5-0.3C7.3,10,7.4,9.7,7.6,9.4c0.1-0.3,0.2-0.6,0.2-1
					c0-0.5-0.1-0.8-0.4-1.2C7.1,7,6.9,6.8,6.6,6.8H3l0.2-0.5v4.4L2.9,10.4z"/>
			</g>
			<text transform="matrix(1 0 0 1 10.7034 16)" class="st2 st3 st4"> </text>
			<g class="st1">
				<path class="st2" d="M15.5,16.2c-0.9,0-1.7-0.2-2.3-0.6c-0.7-0.4-1.2-0.9-1.5-1.5c-0.4-0.6-0.5-1.4-0.5-2.2
					c0-0.9,0.2-1.7,0.6-2.4c0.4-0.7,0.9-1.2,1.5-1.5s1.3-0.5,2-0.5c0.5,0,1,0.1,1.5,0.3C17.2,8,17.6,8.3,18,8.7s0.7,0.8,0.9,1.3
					s0.3,1,0.3,1.6c0,0.3-0.1,0.5-0.3,0.6c-0.2,0.2-0.4,0.2-0.7,0.2h-6l-0.5-1.6h5.8l-0.3,0.3v-0.4c0-0.3-0.1-0.6-0.3-0.8
					c-0.2-0.2-0.4-0.4-0.7-0.6s-0.6-0.2-0.9-0.2c-0.3,0-0.6,0-0.9,0.1c-0.3,0.1-0.5,0.2-0.7,0.4c-0.2,0.2-0.4,0.5-0.5,0.8
					C13,10.9,13,11.3,13,11.8c0,0.6,0.1,1,0.4,1.4c0.2,0.4,0.5,0.7,0.9,0.9c0.4,0.2,0.8,0.3,1.2,0.3c0.4,0,0.7,0,0.9-0.1
					c0.2-0.1,0.4-0.1,0.6-0.2c0.1-0.1,0.3-0.2,0.4-0.2c0.2-0.1,0.4-0.1,0.5-0.1c0.2,0,0.4,0.1,0.6,0.2s0.2,0.3,0.2,0.5
					c0,0.3-0.1,0.5-0.4,0.8c-0.3,0.2-0.7,0.4-1.1,0.6C16.6,16.1,16,16.2,15.5,16.2z"/>
				<path class="st2" d="M21.4,12.1c-0.3,0-0.5-0.1-0.7-0.3c-0.2-0.2-0.3-0.4-0.3-0.7c0-0.3,0.1-0.5,0.3-0.7
					c0.2-0.2,0.4-0.3,0.7-0.3h2.7c0.3,0,0.5,0.1,0.7,0.3c0.2,0.2,0.3,0.4,0.3,0.7c0,0.3-0.1,0.5-0.3,0.7c-0.2,0.2-0.4,0.3-0.7,0.3
					H21.4z"/>
			</g>
			<text transform="matrix(1 0 0 1 25.7853 16)" class="st2 st3 st4"> </text>
			<g class="st1">
				<path class="st2" d="M31.8,5c0.8,0,1.4,0.1,2,0.4c0.6,0.3,1.1,0.7,1.5,1.2c0.4,0.5,0.7,1.1,0.9,1.8c0.2,0.7,0.3,1.4,0.3,2.1
					c0,1-0.2,1.9-0.5,2.8c-0.4,0.8-0.9,1.5-1.6,2c-0.7,0.5-1.6,0.7-2.6,0.7h-3.8c-0.3,0-0.5-0.1-0.7-0.3c-0.2-0.2-0.3-0.4-0.3-0.7V6
					c0-0.3,0.1-0.5,0.3-0.7C27.6,5.1,27.8,5,28.1,5H31.8z M31.7,14.2c0.7,0,1.2-0.2,1.6-0.5c0.4-0.3,0.7-0.8,0.9-1.4
					c0.2-0.6,0.3-1.2,0.3-1.8c0-0.5-0.1-1-0.2-1.4c-0.1-0.4-0.3-0.8-0.5-1.2c-0.2-0.3-0.5-0.6-0.9-0.8c-0.4-0.2-0.8-0.3-1.3-0.3
					h-2.7l0.2-0.1v7.7L29,14.2H31.7z"/>
			</g>
			<text transform="matrix(1 0 0 1 37.2894 16)" class="st2 st3 st4"> </text>
			<g class="st1">
				<path class="st2" d="M42.3,16.2c-0.9,0-1.7-0.2-2.3-0.6c-0.7-0.4-1.2-0.9-1.5-1.5c-0.4-0.6-0.5-1.4-0.5-2.2
					c0-0.9,0.2-1.7,0.6-2.4C38.9,8.8,39.4,8.3,40,8c0.6-0.4,1.3-0.5,2-0.5c0.5,0,1,0.1,1.5,0.3C44,8,44.4,8.3,44.8,8.7
					s0.7,0.8,0.9,1.3c0.2,0.5,0.3,1,0.3,1.6c0,0.3-0.1,0.5-0.3,0.6s-0.4,0.2-0.7,0.2h-6l-0.5-1.6h5.8L44,11.2v-0.4
					c0-0.3-0.1-0.6-0.3-0.8c-0.2-0.2-0.4-0.4-0.7-0.6c-0.3-0.1-0.6-0.2-0.9-0.2c-0.3,0-0.6,0-0.9,0.1c-0.3,0.1-0.5,0.2-0.7,0.4
					c-0.2,0.2-0.4,0.5-0.5,0.8c-0.1,0.3-0.2,0.8-0.2,1.3c0,0.6,0.1,1,0.4,1.4c0.2,0.4,0.5,0.7,0.9,0.9c0.4,0.2,0.8,0.3,1.2,0.3
					c0.4,0,0.7,0,0.9-0.1c0.2-0.1,0.4-0.1,0.6-0.2c0.1-0.1,0.3-0.2,0.4-0.2c0.2-0.1,0.4-0.1,0.5-0.1c0.2,0,0.4,0.1,0.6,0.2
					c0.2,0.2,0.2,0.3,0.2,0.5c0,0.3-0.1,0.5-0.4,0.8c-0.3,0.2-0.7,0.4-1.1,0.6C43.3,16.1,42.8,16.2,42.3,16.2z"/>
				<path class="st2" d="M51.9,7.8c0.3,0,0.5,0.1,0.6,0.2c0.2,0.2,0.3,0.4,0.3,0.6s-0.1,0.5-0.3,0.6c-0.2,0.2-0.4,0.2-0.6,0.2h-4.2
					c-0.3,0-0.5-0.1-0.6-0.2c-0.2-0.2-0.3-0.4-0.3-0.6S47,8.2,47.2,8c0.2-0.2,0.4-0.2,0.6-0.2H51.9z M51.8,4.4c0.2,0,0.5,0,0.7,0.1
					s0.4,0.2,0.5,0.3c0.1,0.1,0.2,0.3,0.2,0.6c0,0.3-0.1,0.5-0.2,0.6c-0.2,0.2-0.3,0.2-0.5,0.2c-0.1,0-0.2,0-0.4-0.1
					c-0.2,0-0.4-0.1-0.5-0.1c-0.3,0-0.5,0.1-0.6,0.2c-0.1,0.1-0.2,0.2-0.3,0.4c-0.1,0.2-0.1,0.3-0.1,0.4v8c0,0.3-0.1,0.5-0.3,0.7
					c-0.2,0.2-0.4,0.3-0.7,0.3c-0.3,0-0.5-0.1-0.7-0.3c-0.2-0.2-0.3-0.4-0.3-0.7V7c0-0.7,0.3-1.4,0.8-1.9
					C49.9,4.6,50.7,4.4,51.8,4.4z M54.8,6.6c-0.4,0-0.6-0.1-0.8-0.2s-0.2-0.3-0.2-0.6V5.5c0-0.3,0.1-0.5,0.2-0.6
					c0.2-0.1,0.4-0.2,0.7-0.2c0.4,0,0.6,0.1,0.8,0.2c0.1,0.1,0.2,0.3,0.2,0.6v0.3c0,0.3-0.1,0.5-0.2,0.6C55.4,6.5,55.2,6.6,54.8,6.6
					z M55.8,15c0,0.3-0.1,0.5-0.3,0.7c-0.2,0.2-0.4,0.3-0.7,0.3s-0.5-0.1-0.7-0.3c-0.2-0.2-0.3-0.4-0.3-0.7V8.6
					c0-0.3,0.1-0.5,0.3-0.7c0.2-0.2,0.4-0.3,0.7-0.3s0.5,0.1,0.7,0.3c0.2,0.2,0.3,0.4,0.3,0.7V15z"/>
				<path class="st2" d="M62.1,7.4c0.8,0,1.4,0.2,1.8,0.5s0.7,0.8,0.8,1.3c0.2,0.5,0.2,1.1,0.2,1.8v4c0,0.3-0.1,0.5-0.3,0.7
					C64.5,15.9,64.3,16,64,16c-0.3,0-0.5-0.1-0.7-0.3c-0.2-0.2-0.3-0.4-0.3-0.7v-4c0-0.3,0-0.7-0.1-0.9c-0.1-0.3-0.2-0.5-0.5-0.7
					c-0.2-0.2-0.6-0.3-1-0.3c-0.4,0-0.8,0.1-1.1,0.3c-0.3,0.2-0.5,0.4-0.7,0.7c-0.2,0.3-0.2,0.6-0.2,0.9v4c0,0.3-0.1,0.5-0.3,0.7
					c-0.2,0.2-0.4,0.3-0.7,0.3s-0.5-0.1-0.7-0.3c-0.2-0.2-0.3-0.4-0.3-0.7V8.6c0-0.3,0.1-0.5,0.3-0.7c0.2-0.2,0.4-0.3,0.7-0.3
					s0.5,0.1,0.7,0.3c0.2,0.2,0.3,0.4,0.3,0.7v0.7l-0.2,0c0.1-0.2,0.2-0.4,0.4-0.6s0.4-0.4,0.6-0.6c0.2-0.2,0.5-0.3,0.8-0.4
					C61.4,7.5,61.8,7.4,62.1,7.4z"/>
				<path class="st2" d="M70.8,16.2c-0.9,0-1.7-0.2-2.3-0.6c-0.7-0.4-1.2-0.9-1.5-1.5c-0.4-0.6-0.5-1.4-0.5-2.2
					c0-0.9,0.2-1.7,0.6-2.4c0.4-0.7,0.9-1.2,1.5-1.5c0.6-0.4,1.3-0.5,2-0.5c0.5,0,1,0.1,1.5,0.3c0.5,0.2,0.9,0.5,1.3,0.9
					s0.7,0.8,0.9,1.3c0.2,0.5,0.3,1,0.3,1.6c0,0.3-0.1,0.5-0.3,0.6s-0.4,0.2-0.7,0.2h-6L67,10.9h5.8l-0.3,0.3v-0.4
					c0-0.3-0.1-0.6-0.3-0.8c-0.2-0.2-0.4-0.4-0.7-0.6c-0.3-0.1-0.6-0.2-0.9-0.2c-0.3,0-0.6,0-0.9,0.1c-0.3,0.1-0.5,0.2-0.7,0.4
					c-0.2,0.2-0.4,0.5-0.5,0.8c-0.1,0.3-0.2,0.8-0.2,1.3c0,0.6,0.1,1,0.4,1.4c0.2,0.4,0.5,0.7,0.9,0.9c0.4,0.2,0.8,0.3,1.2,0.3
					c0.4,0,0.7,0,0.9-0.1c0.2-0.1,0.4-0.1,0.6-0.2c0.1-0.1,0.3-0.2,0.4-0.2c0.2-0.1,0.4-0.1,0.5-0.1c0.2,0,0.4,0.1,0.6,0.2
					c0.2,0.2,0.2,0.3,0.2,0.5c0,0.3-0.1,0.5-0.4,0.8c-0.3,0.2-0.7,0.4-1.1,0.6C71.8,16.1,71.3,16.2,70.8,16.2z"/>
				<path class="st2" d="M82.7,4.4c0.3,0,0.5,0.1,0.7,0.3c0.2,0.2,0.3,0.4,0.3,0.7V15c0,0.3-0.1,0.5-0.3,0.7
					C83.2,15.9,83,16,82.7,16c-0.3,0-0.5-0.1-0.7-0.3c-0.2-0.2-0.3-0.4-0.3-0.7v-0.8l0.3,0.1c0,0.1-0.1,0.3-0.2,0.5
					s-0.3,0.4-0.6,0.6s-0.5,0.3-0.9,0.5s-0.7,0.2-1.1,0.2c-0.7,0-1.4-0.2-2-0.6c-0.6-0.4-1-0.9-1.4-1.5c-0.3-0.7-0.5-1.4-0.5-2.3
					c0-0.9,0.2-1.6,0.5-2.3s0.8-1.2,1.4-1.5s1.2-0.6,1.9-0.6c0.4,0,0.9,0.1,1.2,0.2c0.4,0.1,0.7,0.3,1,0.5c0.3,0.2,0.5,0.4,0.6,0.6
					c0.2,0.2,0.2,0.4,0.2,0.5l-0.6,0.2V5.3c0-0.3,0.1-0.5,0.3-0.7C82.2,4.5,82.5,4.4,82.7,4.4z M79.6,14.4c0.5,0,0.9-0.1,1.2-0.3
					c0.3-0.2,0.6-0.5,0.8-0.9s0.3-0.8,0.3-1.3c0-0.5-0.1-1-0.3-1.3s-0.5-0.7-0.8-0.9c-0.3-0.2-0.7-0.3-1.2-0.3
					c-0.5,0-0.8,0.1-1.2,0.3c-0.3,0.2-0.6,0.5-0.8,0.9s-0.3,0.8-0.3,1.3c0,0.5,0.1,0.9,0.3,1.3s0.5,0.7,0.8,0.9
					C78.7,14.3,79.1,14.4,79.6,14.4z"/>
			</g>
			<g class="st1">
				<path class="st2" d="M14.1,25h5.3c0.3,0,0.5,0.1,0.7,0.3c0.2,0.2,0.3,0.4,0.3,0.7c0,0.3-0.1,0.5-0.3,0.6
					c-0.2,0.2-0.4,0.2-0.7,0.2H15l0.1-0.3v3.1L15,29.5h3.7c0.3,0,0.5,0.1,0.7,0.3c0.2,0.2,0.3,0.4,0.3,0.7c0,0.3-0.1,0.5-0.3,0.6
					c-0.2,0.2-0.4,0.2-0.7,0.2h-3.6l0.1-0.1v3.2L15,34.2h4.4c0.3,0,0.5,0.1,0.7,0.3c0.2,0.2,0.3,0.4,0.3,0.6c0,0.3-0.1,0.5-0.3,0.6
					c-0.2,0.2-0.4,0.3-0.7,0.3h-5.3c-0.3,0-0.5-0.1-0.7-0.3c-0.2-0.2-0.3-0.4-0.3-0.7V26c0-0.3,0.1-0.5,0.3-0.7
					C13.6,25.1,13.9,25,14.1,25z"/>
				<path class="st2" d="M26.5,27.4c0.8,0,1.4,0.2,1.8,0.5c0.4,0.3,0.7,0.8,0.8,1.3c0.2,0.5,0.2,1.1,0.2,1.8v4
					c0,0.3-0.1,0.5-0.3,0.7c-0.2,0.2-0.4,0.3-0.7,0.3c-0.3,0-0.5-0.1-0.7-0.3c-0.2-0.2-0.3-0.4-0.3-0.7v-4c0-0.3,0-0.7-0.1-0.9
					c-0.1-0.3-0.2-0.5-0.5-0.7c-0.2-0.2-0.6-0.3-1-0.3c-0.4,0-0.8,0.1-1.1,0.3c-0.3,0.2-0.5,0.4-0.7,0.7c-0.2,0.3-0.2,0.6-0.2,0.9v4
					c0,0.3-0.1,0.5-0.3,0.7c-0.2,0.2-0.4,0.3-0.7,0.3c-0.3,0-0.5-0.1-0.7-0.3C22.1,35.5,22,35.3,22,35v-6.5c0-0.3,0.1-0.5,0.3-0.7
					c0.2-0.2,0.4-0.3,0.7-0.3c0.3,0,0.5,0.1,0.7,0.3c0.2,0.2,0.3,0.4,0.3,0.7v0.7l-0.2,0c0.1-0.2,0.2-0.4,0.4-0.6s0.4-0.4,0.6-0.6
					s0.5-0.3,0.8-0.4C25.8,27.5,26.1,27.4,26.5,27.4z"/>
				<path class="st2" d="M38.1,24.4c0.3,0,0.5,0.1,0.7,0.3c0.2,0.2,0.3,0.4,0.3,0.7V35c0,0.3-0.1,0.5-0.3,0.7
					c-0.2,0.2-0.4,0.3-0.7,0.3c-0.3,0-0.5-0.1-0.7-0.3c-0.2-0.2-0.3-0.4-0.3-0.7v-0.8l0.3,0.1c0,0.1-0.1,0.3-0.2,0.5
					s-0.3,0.4-0.6,0.6c-0.3,0.2-0.5,0.3-0.9,0.5c-0.3,0.1-0.7,0.2-1.1,0.2c-0.7,0-1.4-0.2-2-0.6c-0.6-0.4-1-0.9-1.4-1.5
					c-0.3-0.7-0.5-1.4-0.5-2.3c0-0.9,0.2-1.6,0.5-2.3c0.3-0.7,0.8-1.2,1.4-1.5c0.6-0.4,1.2-0.6,1.9-0.6c0.4,0,0.9,0.1,1.2,0.2
					c0.4,0.1,0.7,0.3,1,0.5c0.3,0.2,0.5,0.4,0.6,0.6c0.2,0.2,0.2,0.4,0.2,0.5l-0.6,0.2v-4.2c0-0.3,0.1-0.5,0.3-0.7
					C37.6,24.5,37.9,24.4,38.1,24.4z M35,34.4c0.5,0,0.9-0.1,1.2-0.3c0.3-0.2,0.6-0.5,0.8-0.9s0.3-0.8,0.3-1.3c0-0.5-0.1-1-0.3-1.3
					s-0.5-0.7-0.8-0.9s-0.7-0.3-1.2-0.3c-0.5,0-0.8,0.1-1.2,0.3s-0.6,0.5-0.8,0.9s-0.3,0.8-0.3,1.3c0,0.5,0.1,0.9,0.3,1.3
					s0.5,0.7,0.8,0.9C34.1,34.3,34.5,34.4,35,34.4z"/>
				<path class="st2" d="M50.9,36.2c-0.8,0-1.5-0.1-2.2-0.4c-0.7-0.3-1.3-0.7-1.8-1.2c-0.5-0.5-0.9-1.1-1.2-1.8
					c-0.3-0.7-0.4-1.4-0.4-2.2c0-0.8,0.1-1.5,0.4-2.2c0.3-0.7,0.7-1.3,1.2-1.8c0.5-0.5,1.1-0.9,1.8-1.2c0.7-0.3,1.4-0.4,2.2-0.4
					c0.5,0,1,0.1,1.4,0.2c0.5,0.1,0.9,0.3,1.3,0.5c0.2,0.1,0.3,0.2,0.4,0.3C54,26,54,26.1,54,26.3c0,0.3-0.1,0.5-0.3,0.7
					c-0.2,0.2-0.4,0.3-0.6,0.3c-0.1,0-0.2,0-0.3,0c-0.1,0-0.2-0.1-0.3-0.1c-0.3-0.1-0.5-0.2-0.8-0.3c-0.3-0.1-0.6-0.1-0.9-0.1
					c-0.7,0-1.3,0.2-1.9,0.5c-0.6,0.3-1,0.8-1.3,1.4c-0.3,0.6-0.5,1.2-0.5,1.9c0,0.7,0.2,1.3,0.5,1.9c0.3,0.6,0.8,1,1.3,1.4
					c0.6,0.3,1.2,0.5,1.9,0.5c0.3,0,0.7,0,1-0.1c0.4-0.1,0.7-0.1,0.9-0.3l-0.1,0.5v-2.7l0.3,0.2h-1.7c-0.3,0-0.5-0.1-0.7-0.3
					c-0.2-0.2-0.3-0.4-0.3-0.7c0-0.3,0.1-0.5,0.3-0.7c0.2-0.2,0.4-0.3,0.7-0.3h2.6c0.3,0,0.5,0.1,0.7,0.3c0.2,0.2,0.3,0.4,0.3,0.7
					v3.3c0,0.2,0,0.4-0.1,0.5c-0.1,0.1-0.2,0.2-0.3,0.3c-0.5,0.3-1,0.5-1.6,0.7C52.1,36.1,51.5,36.2,50.9,36.2z"/>
				<path class="st2" d="M64.5,31.8c0,0.9-0.2,1.6-0.6,2.3c-0.4,0.7-0.9,1.2-1.5,1.5s-1.4,0.5-2.2,0.5c-0.8,0-1.5-0.2-2.2-0.5
					c-0.6-0.4-1.2-0.9-1.5-1.5c-0.4-0.7-0.6-1.4-0.6-2.3c0-0.9,0.2-1.6,0.6-2.3c0.4-0.7,0.9-1.2,1.5-1.5c0.6-0.4,1.4-0.6,2.2-0.6
					c0.8,0,1.5,0.2,2.2,0.6s1.2,0.9,1.5,1.5C64.3,30.2,64.5,31,64.5,31.8z M62.6,31.8c0-0.5-0.1-1-0.3-1.4c-0.2-0.4-0.5-0.7-0.9-0.9
					c-0.4-0.2-0.8-0.3-1.2-0.3c-0.4,0-0.8,0.1-1.2,0.3s-0.6,0.5-0.9,0.9s-0.3,0.9-0.3,1.4c0,0.5,0.1,1,0.3,1.4
					c0.2,0.4,0.5,0.7,0.9,0.9s0.8,0.3,1.2,0.3c0.4,0,0.8-0.1,1.2-0.3c0.4-0.2,0.6-0.5,0.9-0.9C62.5,32.8,62.6,32.3,62.6,31.8z"/>
				<path class="st2" d="M72.9,27.4c0.3,0,0.5,0.1,0.7,0.3c0.2,0.2,0.3,0.4,0.3,0.7V35c0,0.3-0.1,0.5-0.3,0.7
					c-0.2,0.2-0.4,0.3-0.7,0.3c-0.3,0-0.5-0.1-0.7-0.3c-0.2-0.2-0.3-0.4-0.3-0.7v-0.8l0.3,0.1c0,0.1-0.1,0.3-0.2,0.5
					s-0.3,0.4-0.6,0.6s-0.5,0.3-0.9,0.5s-0.7,0.2-1.1,0.2c-0.7,0-1.4-0.2-2-0.6c-0.6-0.4-1-0.9-1.4-1.5c-0.3-0.7-0.5-1.4-0.5-2.3
					c0-0.9,0.2-1.6,0.5-2.3s0.8-1.2,1.4-1.5c0.6-0.4,1.2-0.6,1.9-0.6c0.5,0,0.9,0.1,1.2,0.2c0.4,0.1,0.7,0.3,1,0.5
					c0.3,0.2,0.5,0.4,0.6,0.6c0.2,0.2,0.2,0.4,0.2,0.5l-0.6,0.2v-1.1c0-0.3,0.1-0.5,0.3-0.7C72.4,27.5,72.6,27.4,72.9,27.4z
					 M69.7,34.4c0.5,0,0.9-0.1,1.2-0.3c0.3-0.2,0.6-0.5,0.8-0.9c0.2-0.4,0.3-0.8,0.3-1.3c0-0.5-0.1-1-0.3-1.3
					c-0.2-0.4-0.5-0.7-0.8-0.9c-0.3-0.2-0.7-0.3-1.2-0.3c-0.5,0-0.8,0.1-1.2,0.3c-0.3,0.2-0.6,0.5-0.8,0.9c-0.2,0.4-0.3,0.8-0.3,1.3
					c0,0.5,0.1,0.9,0.3,1.3c0.2,0.4,0.5,0.7,0.8,0.9C68.9,34.3,69.3,34.4,69.7,34.4z"/>
				<path class="st2" d="M77.9,35c0,0.3-0.1,0.5-0.3,0.7c-0.2,0.2-0.4,0.3-0.7,0.3c-0.3,0-0.5-0.1-0.7-0.3C76.1,35.5,76,35.3,76,35
					v-9.7c0-0.3,0.1-0.5,0.3-0.7c0.2-0.2,0.4-0.3,0.7-0.3c0.3,0,0.5,0.1,0.7,0.3c0.2,0.2,0.3,0.4,0.3,0.7V35z"/>
			</g>
		</g>
		<polygon id="Fill-2" class="st0" points="221.5,21 239.2,65.8 285.3,51.7 261.2,93.5 301,120.7 253.4,128 256.9,176 221.5,143.3 
			186.1,176 189.6,128 142,120.7 181.8,93.5 157.7,51.7 203.8,65.8 		"/>
		<g class="st1">
			<path class="st2" d="M188.1,96h5.3c0.3,0,0.5,0.1,0.7,0.3c0.2,0.2,0.3,0.4,0.3,0.7c0,0.3-0.1,0.5-0.3,0.6
				c-0.2,0.2-0.4,0.2-0.7,0.2H189l0.1-0.3v3.1l-0.1-0.1h3.7c0.3,0,0.5,0.1,0.7,0.3c0.2,0.2,0.3,0.4,0.3,0.7c0,0.3-0.1,0.5-0.3,0.6
				c-0.2,0.2-0.4,0.2-0.7,0.2h-3.6l0.1-0.1v3.2l-0.1-0.1h4.4c0.3,0,0.5,0.1,0.7,0.3c0.2,0.2,0.3,0.4,0.3,0.6c0,0.3-0.1,0.5-0.3,0.6
				s-0.4,0.3-0.7,0.3h-5.3c-0.3,0-0.5-0.1-0.7-0.3c-0.2-0.2-0.3-0.4-0.3-0.7V97c0-0.3,0.1-0.5,0.3-0.7C187.6,96.1,187.9,96,188.1,96
				z"/>
			<path class="st2" d="M200.5,98.4c0.8,0,1.4,0.2,1.8,0.5c0.4,0.3,0.7,0.8,0.8,1.3c0.2,0.5,0.2,1.1,0.2,1.8v4
				c0,0.3-0.1,0.5-0.3,0.7c-0.2,0.2-0.4,0.3-0.7,0.3c-0.3,0-0.5-0.1-0.7-0.3c-0.2-0.2-0.3-0.4-0.3-0.7v-4c0-0.3,0-0.7-0.1-0.9
				c-0.1-0.3-0.2-0.5-0.5-0.7c-0.2-0.2-0.6-0.3-1-0.3c-0.4,0-0.8,0.1-1.1,0.3c-0.3,0.2-0.5,0.4-0.7,0.7c-0.2,0.3-0.2,0.6-0.2,0.9v4
				c0,0.3-0.1,0.5-0.3,0.7c-0.2,0.2-0.4,0.3-0.7,0.3c-0.3,0-0.5-0.1-0.7-0.3c-0.2-0.2-0.3-0.4-0.3-0.7v-6.5c0-0.3,0.1-0.5,0.3-0.7
				c0.2-0.2,0.4-0.3,0.7-0.3c0.3,0,0.5,0.1,0.7,0.3c0.2,0.2,0.3,0.4,0.3,0.7v0.7l-0.2,0c0.1-0.2,0.2-0.4,0.4-0.6
				c0.2-0.2,0.4-0.4,0.6-0.6s0.5-0.3,0.8-0.4C199.8,98.5,200.1,98.4,200.5,98.4z"/>
			<path class="st2" d="M212.1,95.4c0.3,0,0.5,0.1,0.7,0.3c0.2,0.2,0.3,0.4,0.3,0.7v9.7c0,0.3-0.1,0.5-0.3,0.7
				c-0.2,0.2-0.4,0.3-0.7,0.3c-0.3,0-0.5-0.1-0.7-0.3c-0.2-0.2-0.3-0.4-0.3-0.7v-0.8l0.3,0.1c0,0.1-0.1,0.3-0.2,0.5
				s-0.3,0.4-0.6,0.6s-0.5,0.3-0.9,0.5c-0.3,0.1-0.7,0.2-1.1,0.2c-0.7,0-1.4-0.2-2-0.6c-0.6-0.4-1-0.9-1.4-1.5
				c-0.3-0.7-0.5-1.4-0.5-2.3c0-0.9,0.2-1.6,0.5-2.3c0.3-0.7,0.8-1.2,1.4-1.5c0.6-0.4,1.2-0.6,1.9-0.6c0.4,0,0.9,0.1,1.2,0.2
				c0.4,0.1,0.7,0.3,1,0.5c0.3,0.2,0.5,0.4,0.6,0.6c0.2,0.2,0.2,0.4,0.2,0.5l-0.6,0.2v-4.2c0-0.3,0.1-0.5,0.3-0.7
				C211.6,95.5,211.9,95.4,212.1,95.4z M209,105.4c0.5,0,0.9-0.1,1.2-0.3c0.3-0.2,0.6-0.5,0.8-0.9c0.2-0.4,0.3-0.8,0.3-1.3
				c0-0.5-0.1-1-0.3-1.3c-0.2-0.4-0.5-0.7-0.8-0.9s-0.7-0.3-1.2-0.3c-0.5,0-0.8,0.1-1.2,0.3s-0.6,0.5-0.8,0.9
				c-0.2,0.4-0.3,0.8-0.3,1.3c0,0.5,0.1,0.9,0.3,1.3c0.2,0.4,0.5,0.7,0.8,0.9C208.1,105.3,208.5,105.4,209,105.4z"/>
			<path class="st2" d="M224.9,107.2c-0.8,0-1.5-0.1-2.2-0.4c-0.7-0.3-1.3-0.7-1.8-1.2c-0.5-0.5-0.9-1.1-1.2-1.8
				c-0.3-0.7-0.4-1.4-0.4-2.2c0-0.8,0.1-1.5,0.4-2.2c0.3-0.7,0.7-1.3,1.2-1.8c0.5-0.5,1.1-0.9,1.8-1.2c0.7-0.3,1.4-0.4,2.2-0.4
				c0.5,0,1,0.1,1.4,0.2c0.5,0.1,0.9,0.3,1.3,0.5c0.2,0.1,0.3,0.2,0.4,0.3s0.1,0.3,0.1,0.4c0,0.3-0.1,0.5-0.3,0.7
				c-0.2,0.2-0.4,0.3-0.6,0.3c-0.1,0-0.2,0-0.3,0c-0.1,0-0.2-0.1-0.3-0.1c-0.3-0.1-0.5-0.2-0.8-0.3c-0.3-0.1-0.6-0.1-0.9-0.1
				c-0.7,0-1.3,0.2-1.9,0.5c-0.6,0.3-1,0.8-1.3,1.4s-0.5,1.2-0.5,1.9c0,0.7,0.2,1.3,0.5,1.9s0.8,1,1.3,1.4c0.6,0.3,1.2,0.5,1.9,0.5
				c0.3,0,0.7,0,1-0.1c0.4-0.1,0.7-0.1,0.9-0.3l-0.1,0.5v-2.7l0.3,0.2h-1.7c-0.3,0-0.5-0.1-0.7-0.3c-0.2-0.2-0.3-0.4-0.3-0.7
				c0-0.3,0.1-0.5,0.3-0.7c0.2-0.2,0.4-0.3,0.7-0.3h2.6c0.3,0,0.5,0.1,0.7,0.3c0.2,0.2,0.3,0.4,0.3,0.7v3.3c0,0.2,0,0.4-0.1,0.5
				c-0.1,0.1-0.2,0.2-0.3,0.3c-0.5,0.3-1,0.5-1.6,0.7C226.1,107.1,225.5,107.2,224.9,107.2z"/>
			<path class="st2" d="M238.5,102.8c0,0.9-0.2,1.6-0.6,2.3c-0.4,0.7-0.9,1.2-1.5,1.5s-1.4,0.5-2.2,0.5c-0.8,0-1.5-0.2-2.2-0.5
				s-1.2-0.9-1.5-1.5c-0.4-0.7-0.6-1.4-0.6-2.3c0-0.9,0.2-1.6,0.6-2.3s0.9-1.2,1.5-1.5s1.4-0.6,2.2-0.6c0.8,0,1.5,0.2,2.2,0.6
				s1.2,0.9,1.5,1.5C238.3,101.2,238.5,102,238.5,102.8z M236.6,102.8c0-0.5-0.1-1-0.3-1.4s-0.5-0.7-0.9-0.9
				c-0.4-0.2-0.8-0.3-1.2-0.3c-0.4,0-0.8,0.1-1.2,0.3c-0.4,0.2-0.6,0.5-0.9,0.9c-0.2,0.4-0.3,0.9-0.3,1.4c0,0.5,0.1,1,0.3,1.4
				c0.2,0.4,0.5,0.7,0.9,0.9c0.4,0.2,0.8,0.3,1.2,0.3c0.4,0,0.8-0.1,1.2-0.3c0.4-0.2,0.6-0.5,0.9-0.9
				C236.5,103.8,236.6,103.3,236.6,102.8z"/>
			<path class="st2" d="M246.9,98.4c0.3,0,0.5,0.1,0.7,0.3c0.2,0.2,0.3,0.4,0.3,0.7v6.6c0,0.3-0.1,0.5-0.3,0.7
				c-0.2,0.2-0.4,0.3-0.7,0.3c-0.3,0-0.5-0.1-0.7-0.3c-0.2-0.2-0.3-0.4-0.3-0.7v-0.8l0.3,0.1c0,0.1-0.1,0.3-0.2,0.5
				s-0.3,0.4-0.6,0.6s-0.5,0.3-0.9,0.5c-0.3,0.1-0.7,0.2-1.1,0.2c-0.7,0-1.4-0.2-2-0.6c-0.6-0.4-1-0.9-1.4-1.5
				c-0.3-0.7-0.5-1.4-0.5-2.3c0-0.9,0.2-1.6,0.5-2.3c0.3-0.7,0.8-1.2,1.4-1.5c0.6-0.4,1.2-0.6,1.9-0.6c0.4,0,0.9,0.1,1.2,0.2
				c0.4,0.1,0.7,0.3,1,0.5c0.3,0.2,0.5,0.4,0.6,0.6c0.2,0.2,0.2,0.4,0.2,0.5l-0.6,0.2v-1.1c0-0.3,0.1-0.5,0.3-0.7
				C246.4,98.5,246.6,98.4,246.9,98.4z M243.7,105.4c0.5,0,0.9-0.1,1.2-0.3c0.3-0.2,0.6-0.5,0.8-0.9c0.2-0.4,0.3-0.8,0.3-1.3
				c0-0.5-0.1-1-0.3-1.3c-0.2-0.4-0.5-0.7-0.8-0.9s-0.7-0.3-1.2-0.3c-0.5,0-0.8,0.1-1.2,0.3s-0.6,0.5-0.8,0.9
				c-0.2,0.4-0.3,0.8-0.3,1.3c0,0.5,0.1,0.9,0.3,1.3c0.2,0.4,0.5,0.7,0.8,0.9C242.9,105.3,243.3,105.4,243.7,105.4z"/>
			<path class="st2" d="M251.9,106c0,0.3-0.1,0.5-0.3,0.7c-0.2,0.2-0.4,0.3-0.7,0.3c-0.3,0-0.5-0.1-0.7-0.3
				c-0.2-0.2-0.3-0.4-0.3-0.7v-9.7c0-0.3,0.1-0.5,0.3-0.7c0.2-0.2,0.4-0.3,0.7-0.3s0.5,0.1,0.7,0.3c0.2,0.2,0.3,0.4,0.3,0.7V106z"/>
		</g>
		<polygon id="Fill-3" class="st0" points="850.5,15 877.9,65.1 928,92.5 877.9,119.9 850.5,170 823.1,119.9 773,92.5 823.1,65.1 		
			"/>
		<g class="st1">
			<path class="st2" d="M835.2,88c0.1,0,0.3,0,0.5,0.1s0.3,0.2,0.4,0.3l3.8,5.9l-0.8,0l3.9-5.8c0.2-0.3,0.5-0.4,0.8-0.4
				c0.3,0,0.5,0.1,0.7,0.3c0.2,0.2,0.3,0.4,0.3,0.7V98c0,0.3-0.1,0.5-0.3,0.7c-0.2,0.2-0.4,0.3-0.7,0.3s-0.5-0.1-0.7-0.3
				c-0.2-0.2-0.3-0.4-0.3-0.7v-7.4l0.6,0.1l-3.2,4.9c-0.1,0.1-0.2,0.2-0.4,0.3c-0.1,0.1-0.3,0.1-0.4,0.1c-0.1,0-0.3,0-0.4-0.1
				c-0.1-0.1-0.3-0.2-0.4-0.3l-3-4.7l0.4-0.8V98c0,0.3-0.1,0.5-0.3,0.7c-0.2,0.2-0.4,0.3-0.7,0.3c-0.3,0-0.5-0.1-0.6-0.3
				c-0.2-0.2-0.2-0.4-0.2-0.7V89c0-0.3,0.1-0.5,0.3-0.7C834.7,88.1,834.9,88,835.2,88z"/>
			<path class="st2" d="M855.1,88c0.3,0,0.5,0.1,0.7,0.3c0.2,0.2,0.3,0.4,0.3,0.7c0,0.1,0,0.3-0.1,0.4l-3.9,9.1
				c-0.1,0.2-0.2,0.4-0.4,0.5c-0.2,0.1-0.3,0.1-0.5,0.1c-0.2,0-0.3-0.1-0.5-0.2c-0.2-0.1-0.3-0.2-0.4-0.4l-3.9-9.1
				c0-0.1-0.1-0.1-0.1-0.2c0-0.1,0-0.1,0-0.2c0-0.3,0.1-0.5,0.3-0.7c0.2-0.2,0.4-0.2,0.6-0.2c0.4,0,0.7,0.2,0.9,0.6l3.4,8.1l-0.5,0
				l3.2-8.1C854.4,88.2,854.7,88,855.1,88z"/>
			<path class="st2" d="M862.2,88c0.5,0,1.1,0.2,1.5,0.5c0.5,0.3,0.9,0.7,1.2,1.3c0.3,0.5,0.4,1.1,0.4,1.8c0,0.6-0.1,1.2-0.4,1.8
				c-0.3,0.5-0.7,1-1.2,1.3s-1,0.5-1.5,0.5h-2.9l0.2-0.3V98c0,0.3-0.1,0.5-0.3,0.7c-0.2,0.2-0.4,0.3-0.7,0.3c-0.3,0-0.5-0.1-0.6-0.3
				c-0.2-0.2-0.3-0.4-0.3-0.7V89c0-0.3,0.1-0.5,0.3-0.7c0.2-0.2,0.4-0.3,0.7-0.3H862.2z M862.2,93.3c0.2,0,0.4-0.1,0.6-0.3
				c0.2-0.2,0.3-0.4,0.5-0.7s0.2-0.5,0.2-0.8c0-0.3-0.1-0.6-0.2-0.8c-0.1-0.3-0.3-0.5-0.5-0.6s-0.4-0.2-0.6-0.2h-2.9l0.2-0.3v4
				l-0.2-0.3H862.2z"/>
		</g>
		<path id="Fill-4" class="st5" d="M325.6,93l-11.3-6.5v4.9h-11.6c-0.9,0-1.6,0.7-1.6,1.6c0,0.9,0.7,1.6,1.6,1.6h11.6v4.9L325.6,93z
			"/>
		<path id="Fill-6" class="st5" d="M149.1,93.7l-11.3-6.5v4.9h-11.6c-0.9,0-1.6,0.7-1.6,1.6c0,0.9,0.7,1.6,1.6,1.6h11.6v4.9
			L149.1,93.7z"/>
		<path id="Fill-8" class="st5" d="M584.4,94.4l-11.3-6.5v4.9h-11.6c-0.9,0-1.6,0.7-1.6,1.6c0,0.9,0.7,1.6,1.6,1.6h11.6v4.9
			L584.4,94.4z"/>
		<path id="Fill-10" class="st5" d="M955.4,95L944,88.5v4.9h-11.6c-0.9,0-1.6,0.7-1.6,1.6c0,0.9,0.7,1.6,1.6,1.6H944v4.9L955.4,95z"
			/>
		<path id="Fill-12" class="st5" d="M774.1,95.7l-11.3-6.5V94h-11.6c-0.9,0-1.6,0.7-1.6,1.6c0,0.9,0.7,1.6,1.6,1.6h11.6v4.9
			L774.1,95.7z"/>
		<path id="Fill-14" class="st6" d="M450.8,58.8c0,32.5-26.4,58.8-58.9,58.8c-32.5,0-58.9-26.3-58.9-58.8C333,26.3,359.4,0,391.9,0
			C424.4,0,450.8,26.3,450.8,58.8"/>
		<g class="st1">
			<path class="st2" d="M369.1,64c0,0.3-0.1,0.5-0.3,0.7c-0.2,0.2-0.4,0.3-0.7,0.3c-0.3,0-0.5-0.1-0.7-0.3c-0.2-0.2-0.3-0.4-0.3-0.7
				V55c0-0.3,0.1-0.5,0.3-0.7c0.2-0.2,0.4-0.3,0.7-0.3c0.3,0,0.5,0.1,0.7,0.3c0.2,0.2,0.3,0.4,0.3,0.7V64z"/>
			<path class="st2" d="M378.1,53.4c0.3,0,0.5,0.1,0.7,0.3c0.2,0.2,0.3,0.4,0.3,0.7V64c0,0.3-0.1,0.5-0.3,0.7
				c-0.2,0.2-0.4,0.3-0.7,0.3c-0.3,0-0.5-0.1-0.7-0.3c-0.2-0.2-0.3-0.4-0.3-0.7v-0.8l0.3,0.1c0,0.1-0.1,0.3-0.2,0.5
				s-0.3,0.4-0.6,0.6s-0.5,0.3-0.9,0.5c-0.3,0.1-0.7,0.2-1.1,0.2c-0.7,0-1.4-0.2-2-0.6c-0.6-0.4-1-0.9-1.4-1.5
				c-0.3-0.7-0.5-1.4-0.5-2.3c0-0.9,0.2-1.6,0.5-2.3c0.3-0.7,0.8-1.2,1.4-1.5c0.6-0.4,1.2-0.6,1.9-0.6c0.4,0,0.9,0.1,1.2,0.2
				c0.4,0.1,0.7,0.3,1,0.5c0.3,0.2,0.5,0.4,0.6,0.6c0.2,0.2,0.2,0.4,0.2,0.5l-0.6,0.2v-4.2c0-0.3,0.1-0.5,0.3-0.7
				C377.6,53.5,377.9,53.4,378.1,53.4z M375,63.4c0.5,0,0.9-0.1,1.2-0.3c0.3-0.2,0.6-0.5,0.8-0.9c0.2-0.4,0.3-0.8,0.3-1.3
				c0-0.5-0.1-1-0.3-1.3c-0.2-0.4-0.5-0.7-0.8-0.9s-0.7-0.3-1.2-0.3c-0.5,0-0.8,0.1-1.2,0.3s-0.6,0.5-0.8,0.9
				c-0.2,0.4-0.3,0.8-0.3,1.3c0,0.5,0.1,0.9,0.3,1.3c0.2,0.4,0.5,0.7,0.8,0.9C374.1,63.3,374.5,63.4,375,63.4z"/>
		</g>
		<text transform="matrix(1 0 0 1 380.0931 65)" class="st2 st3 st4"> </text>
		<g class="st1">
			<path class="st2" d="M385,65.2c-0.9,0-1.7-0.2-2.3-0.6c-0.7-0.4-1.2-0.9-1.5-1.5c-0.4-0.6-0.5-1.4-0.5-2.2c0-0.9,0.2-1.7,0.6-2.4
				c0.4-0.7,0.9-1.2,1.5-1.5c0.6-0.4,1.3-0.5,2-0.5c0.5,0,1,0.1,1.5,0.3s0.9,0.5,1.3,0.9s0.7,0.8,0.9,1.3s0.3,1,0.3,1.6
				c0,0.3-0.1,0.5-0.3,0.6c-0.2,0.2-0.4,0.2-0.7,0.2h-6l-0.5-1.6h5.8l-0.3,0.3v-0.4c0-0.3-0.1-0.6-0.3-0.8c-0.2-0.2-0.4-0.4-0.7-0.6
				c-0.3-0.1-0.6-0.2-0.9-0.2c-0.3,0-0.6,0-0.9,0.1s-0.5,0.2-0.7,0.4c-0.2,0.2-0.4,0.5-0.5,0.8c-0.1,0.3-0.2,0.8-0.2,1.3
				c0,0.6,0.1,1,0.4,1.4c0.2,0.4,0.5,0.7,0.9,0.9c0.4,0.2,0.8,0.3,1.2,0.3c0.4,0,0.7,0,0.9-0.1c0.2-0.1,0.4-0.1,0.6-0.2
				c0.1-0.1,0.3-0.2,0.4-0.2c0.2-0.1,0.4-0.1,0.5-0.1c0.2,0,0.4,0.1,0.6,0.2s0.2,0.3,0.2,0.5c0,0.3-0.1,0.5-0.4,0.8
				c-0.3,0.2-0.7,0.4-1.1,0.6C386,65.1,385.5,65.2,385,65.2z"/>
		</g>
		<text transform="matrix(1 0 0 1 389.2585 65)" class="st2 st3 st4"> </text>
		<g class="st1">
			<path class="st2" d="M397.1,56.4c0.3,0,0.5,0.1,0.7,0.3c0.2,0.2,0.3,0.4,0.3,0.7V64c0,0.3-0.1,0.5-0.3,0.7
				c-0.2,0.2-0.4,0.3-0.7,0.3c-0.3,0-0.5-0.1-0.7-0.3c-0.2-0.2-0.3-0.4-0.3-0.7v-0.8l0.3,0.1c0,0.1-0.1,0.3-0.2,0.5
				s-0.3,0.4-0.6,0.6s-0.5,0.3-0.9,0.5c-0.3,0.1-0.7,0.2-1.1,0.2c-0.7,0-1.4-0.2-2-0.6c-0.6-0.4-1-0.9-1.4-1.5
				c-0.3-0.7-0.5-1.4-0.5-2.3c0-0.9,0.2-1.6,0.5-2.3c0.3-0.7,0.8-1.2,1.4-1.5c0.6-0.4,1.2-0.6,1.9-0.6c0.4,0,0.9,0.1,1.2,0.2
				c0.4,0.1,0.7,0.3,1,0.5c0.3,0.2,0.5,0.4,0.6,0.6c0.2,0.2,0.2,0.4,0.2,0.5l-0.6,0.2v-1.1c0-0.3,0.1-0.5,0.3-0.7
				C396.6,56.5,396.9,56.4,397.1,56.4z M394,63.4c0.5,0,0.9-0.1,1.2-0.3c0.3-0.2,0.6-0.5,0.8-0.9c0.2-0.4,0.3-0.8,0.3-1.3
				c0-0.5-0.1-1-0.3-1.3c-0.2-0.4-0.5-0.7-0.8-0.9s-0.7-0.3-1.2-0.3c-0.5,0-0.8,0.1-1.2,0.3s-0.6,0.5-0.8,0.9
				c-0.2,0.4-0.3,0.8-0.3,1.3c0,0.5,0.1,0.9,0.3,1.3c0.2,0.4,0.5,0.7,0.8,0.9C393.1,63.3,393.5,63.4,394,63.4z"/>
		</g>
		<text transform="matrix(1 0 0 1 399.0989 65)" class="st2 st3 st4"> </text>
		<g class="st1">
			<path class="st2" d="M400.2,56.8h3.7c0.3,0,0.5,0.1,0.6,0.3s0.3,0.4,0.3,0.6c0,0.2-0.1,0.4-0.3,0.6c-0.2,0.2-0.4,0.2-0.6,0.2
				h-3.7c-0.3,0-0.5-0.1-0.6-0.3c-0.2-0.2-0.3-0.4-0.3-0.6c0-0.2,0.1-0.4,0.3-0.6S400,56.8,400.2,56.8z M401.9,54.8
				c0.3,0,0.5,0.1,0.7,0.3c0.2,0.2,0.3,0.4,0.3,0.7v7c0,0.1,0,0.3,0.1,0.4c0.1,0.1,0.1,0.2,0.2,0.2c0.1,0,0.2,0.1,0.3,0.1
				c0.1,0,0.2,0,0.3-0.1c0.1,0,0.2-0.1,0.4-0.1c0.1,0,0.3,0.1,0.4,0.2s0.2,0.3,0.2,0.6c0,0.3-0.2,0.5-0.5,0.7
				c-0.3,0.2-0.7,0.3-1,0.3c-0.2,0-0.5,0-0.7-0.1c-0.3,0-0.5-0.1-0.8-0.3c-0.2-0.1-0.4-0.4-0.6-0.7c-0.2-0.3-0.2-0.7-0.2-1.2v-7.1
				c0-0.3,0.1-0.5,0.3-0.7C401.4,54.9,401.6,54.8,401.9,54.8z"/>
		</g>
		<text transform="matrix(1 0 0 1 405.4395 65)" class="st2 st3 st4"> </text>
		<g class="st1">
			<path class="st2" d="M410.3,65.2c-0.9,0-1.7-0.2-2.3-0.6c-0.7-0.4-1.2-0.9-1.5-1.5c-0.4-0.6-0.5-1.4-0.5-2.2
				c0-0.9,0.2-1.7,0.6-2.4c0.4-0.7,0.9-1.2,1.5-1.5c0.6-0.4,1.3-0.5,2-0.5c0.5,0,1,0.1,1.5,0.3c0.5,0.2,0.9,0.5,1.3,0.9
				s0.7,0.8,0.9,1.3c0.2,0.5,0.3,1,0.3,1.6c0,0.3-0.1,0.5-0.3,0.6s-0.4,0.2-0.7,0.2h-6l-0.5-1.6h5.8l-0.3,0.3v-0.4
				c0-0.3-0.1-0.6-0.3-0.8c-0.2-0.2-0.4-0.4-0.7-0.6c-0.3-0.1-0.6-0.2-0.9-0.2c-0.3,0-0.6,0-0.9,0.1c-0.3,0.1-0.5,0.2-0.7,0.4
				c-0.2,0.2-0.4,0.5-0.5,0.8c-0.1,0.3-0.2,0.8-0.2,1.3c0,0.6,0.1,1,0.4,1.4c0.2,0.4,0.5,0.7,0.9,0.9c0.4,0.2,0.8,0.3,1.2,0.3
				c0.4,0,0.7,0,0.9-0.1c0.2-0.1,0.4-0.1,0.6-0.2c0.1-0.1,0.3-0.2,0.4-0.2c0.2-0.1,0.4-0.1,0.5-0.1c0.2,0,0.4,0.1,0.6,0.2
				c0.2,0.2,0.2,0.3,0.2,0.5c0,0.3-0.1,0.5-0.4,0.8c-0.3,0.2-0.7,0.4-1.1,0.6C411.3,65.1,410.8,65.2,410.3,65.2z"/>
		</g>
		<path id="Fill-17" class="st6" d="M554,59c0,32.6-26.4,59-59,59c-32.6,0-59-26.4-59-59c0-32.6,26.4-59,59-59
			C527.6,0,554,26.4,554,59"/>
		<g class="st1">
			<path class="st2" d="M468,54c0.3,0,0.5,0.1,0.7,0.3c0.2,0.2,0.3,0.4,0.3,0.7v5.7c0,0.9-0.2,1.6-0.6,2.3c-0.4,0.7-0.9,1.2-1.5,1.6
				c-0.6,0.4-1.4,0.6-2.3,0.6s-1.6-0.2-2.3-0.6c-0.7-0.4-1.2-0.9-1.5-1.6c-0.4-0.7-0.6-1.4-0.6-2.3V55c0-0.3,0.1-0.5,0.3-0.7
				c0.2-0.2,0.4-0.3,0.7-0.3c0.2,0,0.5,0.1,0.7,0.3c0.2,0.2,0.3,0.4,0.3,0.7v5.7c0,0.5,0.1,1,0.3,1.4c0.2,0.4,0.5,0.7,0.9,0.9
				c0.4,0.2,0.8,0.3,1.2,0.3c0.4,0,0.9-0.1,1.3-0.3c0.4-0.2,0.7-0.5,0.9-0.9c0.2-0.4,0.4-0.8,0.4-1.4V55c0-0.3,0.1-0.5,0.2-0.7
				C467.5,54.1,467.7,54,468,54z"/>
			<path class="st2" d="M470.6,63.7c-0.1-0.1-0.2-0.3-0.1-0.6c0-0.2,0.1-0.4,0.4-0.6c0.2-0.1,0.3-0.1,0.5-0.1s0.4,0.1,0.5,0.3
				c0.3,0.3,0.6,0.5,1,0.7c0.3,0.2,0.8,0.3,1.3,0.3c0.2,0,0.3,0,0.5-0.1c0.2,0,0.4-0.1,0.5-0.3c0.1-0.1,0.2-0.3,0.2-0.6
				c0-0.2-0.1-0.4-0.2-0.5c-0.2-0.1-0.4-0.3-0.6-0.3c-0.3-0.1-0.5-0.2-0.9-0.3c-0.3-0.1-0.7-0.2-1-0.3c-0.3-0.1-0.7-0.3-0.9-0.4
				c-0.3-0.2-0.5-0.4-0.7-0.7c-0.2-0.3-0.3-0.7-0.3-1.1c0-0.5,0.1-1,0.4-1.3s0.7-0.6,1.1-0.8c0.5-0.2,1-0.3,1.5-0.3
				c0.3,0,0.7,0,1,0.1s0.7,0.2,1,0.4c0.3,0.2,0.6,0.4,0.8,0.7c0.1,0.2,0.2,0.3,0.2,0.6c0,0.2-0.1,0.4-0.3,0.6
				c-0.2,0.1-0.3,0.2-0.5,0.2c-0.2,0-0.4-0.1-0.5-0.2c-0.2-0.2-0.4-0.4-0.7-0.5c-0.3-0.1-0.6-0.2-1-0.2c-0.2,0-0.3,0-0.5,0.1
				c-0.2,0-0.3,0.1-0.5,0.2c-0.1,0.1-0.2,0.3-0.2,0.6c0,0.2,0.1,0.4,0.2,0.6c0.2,0.1,0.4,0.3,0.6,0.3c0.3,0.1,0.6,0.2,0.9,0.3
				c0.3,0.1,0.6,0.2,1,0.3s0.6,0.3,0.9,0.5s0.5,0.4,0.7,0.7c0.2,0.3,0.3,0.7,0.3,1.1c0,0.5-0.2,1-0.5,1.4c-0.3,0.4-0.7,0.7-1.2,0.9
				c-0.5,0.2-1,0.3-1.4,0.3c-0.6,0-1.2-0.1-1.9-0.3C471.5,64.6,471,64.2,470.6,63.7z"/>
			<path class="st2" d="M482.5,65.2c-0.9,0-1.7-0.2-2.3-0.6c-0.7-0.4-1.2-0.9-1.5-1.5c-0.4-0.6-0.5-1.4-0.5-2.2
				c0-0.9,0.2-1.7,0.6-2.4c0.4-0.7,0.9-1.2,1.5-1.5c0.6-0.4,1.3-0.5,2-0.5c0.5,0,1,0.1,1.5,0.3s0.9,0.5,1.3,0.9s0.7,0.8,0.9,1.3
				s0.3,1,0.3,1.6c0,0.3-0.1,0.5-0.3,0.6c-0.2,0.2-0.4,0.2-0.7,0.2h-6l-0.5-1.6h5.8l-0.3,0.3v-0.4c0-0.3-0.1-0.6-0.3-0.8
				c-0.2-0.2-0.4-0.4-0.7-0.6c-0.3-0.1-0.6-0.2-0.9-0.2c-0.3,0-0.6,0-0.9,0.1s-0.5,0.2-0.7,0.4c-0.2,0.2-0.4,0.5-0.5,0.8
				c-0.1,0.3-0.2,0.8-0.2,1.3c0,0.6,0.1,1,0.4,1.4c0.2,0.4,0.5,0.7,0.9,0.9c0.4,0.2,0.8,0.3,1.2,0.3c0.4,0,0.7,0,0.9-0.1
				c0.2-0.1,0.4-0.1,0.6-0.2c0.1-0.1,0.3-0.2,0.4-0.2c0.2-0.1,0.4-0.1,0.5-0.1c0.2,0,0.4,0.1,0.6,0.2s0.2,0.3,0.2,0.5
				c0,0.3-0.1,0.5-0.4,0.8c-0.3,0.2-0.7,0.4-1.1,0.6C483.6,65.1,483,65.2,482.5,65.2z"/>
			<path class="st2" d="M488.7,65c-0.3,0-0.5-0.1-0.7-0.3c-0.2-0.2-0.3-0.4-0.3-0.7v-6.5c0-0.3,0.1-0.5,0.3-0.7
				c0.2-0.2,0.4-0.3,0.7-0.3c0.3,0,0.5,0.1,0.7,0.3c0.2,0.2,0.3,0.4,0.3,0.7V59l-0.1-1.1c0.1-0.3,0.3-0.5,0.4-0.7
				c0.2-0.2,0.4-0.4,0.6-0.5c0.2-0.1,0.5-0.2,0.7-0.3c0.3-0.1,0.5-0.1,0.8-0.1c0.3,0,0.6,0.1,0.8,0.3c0.2,0.2,0.3,0.4,0.3,0.6
				c0,0.3-0.1,0.6-0.3,0.7s-0.4,0.2-0.6,0.2c-0.2,0-0.4,0-0.5-0.1s-0.3-0.1-0.6-0.1c-0.2,0-0.4,0-0.6,0.1c-0.2,0.1-0.4,0.2-0.5,0.4
				s-0.3,0.4-0.4,0.7c-0.1,0.3-0.1,0.6-0.1,1V64c0,0.3-0.1,0.5-0.3,0.7C489.2,64.9,489,65,488.7,65z"/>
		</g>
		<g class="st1">
			<path class="st2" d="M499.4,55.8c-0.3,0-0.5-0.1-0.7-0.3c-0.2-0.2-0.3-0.4-0.3-0.7c0-0.3,0.1-0.5,0.3-0.7
				c0.2-0.2,0.4-0.2,0.7-0.2h7c0.3,0,0.5,0.1,0.7,0.3c0.2,0.2,0.3,0.4,0.3,0.7c0,0.3-0.1,0.5-0.3,0.7c-0.2,0.2-0.4,0.2-0.7,0.2
				H499.4z M502.8,65c-0.3,0-0.5-0.1-0.7-0.3c-0.2-0.2-0.3-0.4-0.3-0.7v-9.1h2V64c0,0.3-0.1,0.5-0.3,0.7
				C503.4,64.9,503.1,65,502.8,65z"/>
		</g>
		<text transform="matrix(1 0 0 1 505.8784 65)" class="st2 st3 st4"> </text>
		<g class="st1">
			<path class="st2" d="M508.9,65.2c-0.9,0-1.7-0.2-2.3-0.6c-0.7-0.4-1.2-0.9-1.5-1.5c-0.4-0.6-0.5-1.4-0.5-2.2
				c0-0.9,0.2-1.7,0.6-2.4c0.4-0.7,0.9-1.2,1.5-1.5c0.6-0.4,1.3-0.5,2-0.5c0.5,0,1,0.1,1.5,0.3s0.9,0.5,1.3,0.9s0.7,0.8,0.9,1.3
				s0.3,1,0.3,1.6c0,0.3-0.1,0.5-0.3,0.6c-0.2,0.2-0.4,0.2-0.7,0.2h-6l-0.5-1.6h5.8l-0.3,0.3v-0.4c0-0.3-0.1-0.6-0.3-0.8
				c-0.2-0.2-0.4-0.4-0.7-0.6c-0.3-0.1-0.6-0.2-0.9-0.2c-0.3,0-0.6,0-0.9,0.1s-0.5,0.2-0.7,0.4c-0.2,0.2-0.4,0.5-0.5,0.8
				c-0.1,0.3-0.2,0.8-0.2,1.3c0,0.6,0.1,1,0.4,1.4c0.2,0.4,0.5,0.7,0.9,0.9c0.4,0.2,0.8,0.3,1.2,0.3c0.4,0,0.7,0,0.9-0.1
				c0.2-0.1,0.4-0.1,0.6-0.2c0.1-0.1,0.3-0.2,0.4-0.2c0.2-0.1,0.4-0.1,0.5-0.1c0.2,0,0.4,0.1,0.6,0.2s0.2,0.3,0.2,0.5
				c0,0.3-0.1,0.5-0.4,0.8c-0.3,0.2-0.7,0.4-1.1,0.6C509.9,65.1,509.4,65.2,508.9,65.2z"/>
			<path class="st2" d="M513.6,63.7c-0.1-0.1-0.2-0.3-0.1-0.6c0-0.2,0.1-0.4,0.4-0.6c0.2-0.1,0.3-0.1,0.5-0.1s0.4,0.1,0.5,0.3
				c0.3,0.3,0.6,0.5,1,0.7c0.3,0.2,0.8,0.3,1.3,0.3c0.2,0,0.3,0,0.5-0.1c0.2,0,0.4-0.1,0.5-0.3c0.1-0.1,0.2-0.3,0.2-0.6
				c0-0.2-0.1-0.4-0.2-0.5c-0.2-0.1-0.4-0.3-0.6-0.3c-0.3-0.1-0.5-0.2-0.9-0.3c-0.3-0.1-0.7-0.2-1-0.3c-0.3-0.1-0.7-0.3-0.9-0.4
				c-0.3-0.2-0.5-0.4-0.7-0.7c-0.2-0.3-0.3-0.7-0.3-1.1c0-0.5,0.1-1,0.4-1.3s0.7-0.6,1.1-0.8c0.5-0.2,1-0.3,1.5-0.3
				c0.3,0,0.7,0,1,0.1s0.7,0.2,1,0.4c0.3,0.2,0.6,0.4,0.8,0.7c0.1,0.2,0.2,0.3,0.2,0.6c0,0.2-0.1,0.4-0.3,0.6
				c-0.2,0.1-0.3,0.2-0.5,0.2c-0.2,0-0.4-0.1-0.5-0.2c-0.2-0.2-0.4-0.4-0.7-0.5c-0.3-0.1-0.6-0.2-1-0.2c-0.2,0-0.3,0-0.5,0.1
				c-0.2,0-0.3,0.1-0.5,0.2c-0.1,0.1-0.2,0.3-0.2,0.6c0,0.2,0.1,0.4,0.2,0.6c0.2,0.1,0.4,0.3,0.6,0.3c0.3,0.1,0.6,0.2,0.9,0.3
				c0.3,0.1,0.6,0.2,1,0.3s0.6,0.3,0.9,0.5s0.5,0.4,0.7,0.7c0.2,0.3,0.3,0.7,0.3,1.1c0,0.5-0.2,1-0.5,1.4c-0.3,0.4-0.7,0.7-1.2,0.9
				c-0.5,0.2-1,0.3-1.4,0.3c-0.6,0-1.2-0.1-1.9-0.3C514.6,64.6,514,64.2,513.6,63.7z"/>
			<path class="st2" d="M521.8,56.8h3.7c0.3,0,0.5,0.1,0.6,0.3s0.3,0.4,0.3,0.6c0,0.2-0.1,0.4-0.3,0.6c-0.2,0.2-0.4,0.2-0.6,0.2
				h-3.7c-0.3,0-0.5-0.1-0.6-0.3c-0.2-0.2-0.3-0.4-0.3-0.6c0-0.2,0.1-0.4,0.3-0.6S521.5,56.8,521.8,56.8z M523.5,54.8
				c0.3,0,0.5,0.1,0.7,0.3c0.2,0.2,0.3,0.4,0.3,0.7v7c0,0.1,0,0.3,0.1,0.4c0.1,0.1,0.1,0.2,0.2,0.2c0.1,0,0.2,0.1,0.3,0.1
				c0.1,0,0.2,0,0.3-0.1c0.1,0,0.2-0.1,0.4-0.1c0.1,0,0.3,0.1,0.4,0.2s0.2,0.3,0.2,0.6c0,0.3-0.2,0.5-0.5,0.7
				c-0.3,0.2-0.7,0.3-1,0.3c-0.2,0-0.5,0-0.7-0.1c-0.3,0-0.5-0.1-0.8-0.3c-0.2-0.1-0.4-0.4-0.6-0.7c-0.2-0.3-0.2-0.7-0.2-1.2v-7.1
				c0-0.3,0.1-0.5,0.3-0.7C523,54.9,523.2,54.8,523.5,54.8z"/>
		</g>
		<path id="Fill-19" class="st6" d="M502.6,138.8c0,32.5-26.3,58.8-58.8,58.8c-32.5,0-58.8-26.3-58.8-58.8S411.3,80,443.8,80
			C476.3,80,502.6,106.3,502.6,138.8"/>
		<g class="st1">
			<path class="st2" d="M408.7,134c0.5,0,1.1,0.2,1.5,0.5c0.5,0.3,0.9,0.7,1.2,1.3c0.3,0.5,0.4,1.1,0.4,1.8c0,0.6-0.1,1.2-0.4,1.8
				c-0.3,0.5-0.7,1-1.2,1.3s-1,0.5-1.5,0.5h-2.9l0.2-0.3v3.2c0,0.3-0.1,0.5-0.3,0.7c-0.2,0.2-0.4,0.3-0.7,0.3
				c-0.3,0-0.5-0.1-0.6-0.3c-0.2-0.2-0.3-0.4-0.3-0.7V135c0-0.3,0.1-0.5,0.3-0.7c0.2-0.2,0.4-0.3,0.7-0.3H408.7z M408.7,139.3
				c0.2,0,0.4-0.1,0.6-0.3c0.2-0.2,0.3-0.4,0.5-0.7s0.2-0.5,0.2-0.8c0-0.3-0.1-0.6-0.2-0.8c-0.1-0.3-0.3-0.5-0.5-0.6
				s-0.4-0.2-0.6-0.2h-2.9l0.2-0.3v4l-0.2-0.3H408.7z"/>
		</g>
		<text transform="matrix(1 0 0 1 412.4636 145)" class="st2 st3 st4"> </text>
		<g class="st1">
			<path class="st2" d="M414.4,145c-0.3,0-0.5-0.1-0.7-0.3c-0.2-0.2-0.3-0.4-0.3-0.7v-6.5c0-0.3,0.1-0.5,0.3-0.7
				c0.2-0.2,0.4-0.3,0.7-0.3c0.3,0,0.5,0.1,0.7,0.3c0.2,0.2,0.3,0.4,0.3,0.7v1.5l-0.1-1.1c0.1-0.3,0.3-0.5,0.4-0.7
				c0.2-0.2,0.4-0.4,0.6-0.5s0.5-0.2,0.7-0.3c0.3-0.1,0.5-0.1,0.8-0.1c0.3,0,0.6,0.1,0.8,0.3c0.2,0.2,0.3,0.4,0.3,0.6
				c0,0.3-0.1,0.6-0.3,0.7s-0.4,0.2-0.6,0.2c-0.2,0-0.4,0-0.5-0.1s-0.3-0.1-0.6-0.1c-0.2,0-0.4,0-0.6,0.1c-0.2,0.1-0.4,0.2-0.5,0.4
				s-0.3,0.4-0.4,0.7c-0.1,0.3-0.1,0.6-0.1,1v3.7c0,0.3-0.1,0.5-0.3,0.7C414.9,144.9,414.7,145,414.4,145z"/>
		</g>
		<text transform="matrix(1 0 0 1 418.9294 145)" class="st2 st3 st4"> </text>
		<g class="st1">
			<path class="st2" d="M427.7,140.8c0,0.9-0.2,1.6-0.6,2.3c-0.4,0.7-0.9,1.2-1.5,1.5s-1.4,0.5-2.2,0.5c-0.8,0-1.5-0.2-2.2-0.5
				s-1.2-0.9-1.5-1.5c-0.4-0.7-0.6-1.4-0.6-2.3c0-0.9,0.2-1.6,0.6-2.3s0.9-1.2,1.5-1.5s1.4-0.6,2.2-0.6c0.8,0,1.5,0.2,2.2,0.6
				s1.2,0.9,1.5,1.5C427.5,139.2,427.7,140,427.7,140.8z M425.8,140.8c0-0.5-0.1-1-0.3-1.4s-0.5-0.7-0.9-0.9
				c-0.4-0.2-0.8-0.3-1.2-0.3c-0.4,0-0.8,0.1-1.2,0.3c-0.4,0.2-0.6,0.5-0.9,0.9c-0.2,0.4-0.3,0.9-0.3,1.4c0,0.5,0.1,1,0.3,1.4
				c0.2,0.4,0.5,0.7,0.9,0.9c0.4,0.2,0.8,0.3,1.2,0.3c0.4,0,0.8-0.1,1.2-0.3c0.4-0.2,0.6-0.5,0.9-0.9
				C425.7,141.8,425.8,141.3,425.8,140.8z"/>
		</g>
		<text transform="matrix(1 0 0 1 428.2206 145)" class="st2 st3 st4"> </text>
		<g class="st1">
			<path class="st2" d="M429.3,136.8h3.7c0.3,0,0.5,0.1,0.6,0.3s0.3,0.4,0.3,0.6c0,0.2-0.1,0.4-0.3,0.6c-0.2,0.2-0.4,0.2-0.6,0.2
				h-3.7c-0.3,0-0.5-0.1-0.6-0.3c-0.2-0.2-0.3-0.4-0.3-0.6c0-0.2,0.1-0.4,0.3-0.6S429.1,136.8,429.3,136.8z M431,134.8
				c0.3,0,0.5,0.1,0.7,0.3c0.2,0.2,0.3,0.4,0.3,0.7v7c0,0.1,0,0.3,0.1,0.4c0.1,0.1,0.1,0.2,0.2,0.2c0.1,0,0.2,0.1,0.3,0.1
				c0.1,0,0.2,0,0.3-0.1c0.1,0,0.2-0.1,0.4-0.1c0.1,0,0.3,0.1,0.4,0.2s0.2,0.3,0.2,0.6c0,0.3-0.2,0.5-0.5,0.7
				c-0.3,0.2-0.7,0.3-1,0.3c-0.2,0-0.5,0-0.7-0.1c-0.3,0-0.5-0.1-0.8-0.3c-0.2-0.1-0.4-0.4-0.6-0.7c-0.2-0.3-0.2-0.7-0.2-1.2v-7.1
				c0-0.3,0.1-0.5,0.3-0.7C430.5,134.9,430.7,134.8,431,134.8z"/>
		</g>
		<text transform="matrix(1 0 0 1 434.561 145)" class="st2 st3 st4"> </text>
		<g class="st1">
			<path class="st2" d="M443.6,140.8c0,0.9-0.2,1.6-0.6,2.3c-0.4,0.7-0.9,1.2-1.5,1.5s-1.4,0.5-2.2,0.5c-0.8,0-1.5-0.2-2.2-0.5
				s-1.2-0.9-1.5-1.5c-0.4-0.7-0.6-1.4-0.6-2.3c0-0.9,0.2-1.6,0.6-2.3s0.9-1.2,1.5-1.5s1.4-0.6,2.2-0.6c0.8,0,1.5,0.2,2.2,0.6
				s1.2,0.9,1.5,1.5C443.4,139.2,443.6,140,443.6,140.8z M441.7,140.8c0-0.5-0.1-1-0.3-1.4s-0.5-0.7-0.9-0.9
				c-0.4-0.2-0.8-0.3-1.2-0.3c-0.4,0-0.8,0.1-1.2,0.3c-0.4,0.2-0.6,0.5-0.9,0.9c-0.2,0.4-0.3,0.9-0.3,1.4c0,0.5,0.1,1,0.3,1.4
				c0.2,0.4,0.5,0.7,0.9,0.9c0.4,0.2,0.8,0.3,1.2,0.3c0.4,0,0.8-0.1,1.2-0.3c0.4-0.2,0.6-0.5,0.9-0.9
				C441.6,141.8,441.7,141.3,441.7,140.8z"/>
			<path class="st2" d="M445.2,136.8h3.7c0.3,0,0.5,0.1,0.6,0.3s0.3,0.4,0.3,0.6c0,0.2-0.1,0.4-0.3,0.6c-0.2,0.2-0.4,0.2-0.6,0.2
				h-3.7c-0.3,0-0.5-0.1-0.6-0.3c-0.2-0.2-0.3-0.4-0.3-0.6c0-0.2,0.1-0.4,0.3-0.6S445,136.8,445.2,136.8z M446.9,134.8
				c0.3,0,0.5,0.1,0.7,0.3c0.2,0.2,0.3,0.4,0.3,0.7v7c0,0.1,0,0.3,0.1,0.4c0.1,0.1,0.1,0.2,0.2,0.2c0.1,0,0.2,0.1,0.3,0.1
				c0.1,0,0.2,0,0.3-0.1c0.1,0,0.2-0.1,0.4-0.1c0.1,0,0.3,0.1,0.4,0.2s0.2,0.3,0.2,0.6c0,0.3-0.2,0.5-0.5,0.7
				c-0.3,0.2-0.7,0.3-1,0.3c-0.2,0-0.5,0-0.7-0.1c-0.3,0-0.5-0.1-0.8-0.3c-0.2-0.1-0.4-0.4-0.6-0.7c-0.2-0.3-0.2-0.7-0.2-1.2v-7.1
				c0-0.3,0.1-0.5,0.3-0.7C446.4,134.9,446.6,134.8,446.9,134.8z"/>
			<path class="st2" d="M457.8,136.6c0.3,0,0.5,0.1,0.7,0.3c0.2,0.2,0.3,0.4,0.3,0.7v6.7c0,1-0.2,1.7-0.5,2.3s-0.8,1-1.5,1.2
				c-0.6,0.3-1.3,0.4-2,0.4c-0.3,0-0.7,0-1.1-0.1c-0.4-0.1-0.7-0.1-0.9-0.2c-0.3-0.1-0.5-0.3-0.7-0.5c-0.1-0.2-0.1-0.4-0.1-0.7
				c0.1-0.3,0.2-0.5,0.5-0.6c0.2-0.1,0.4-0.1,0.7,0c0.2,0.1,0.4,0.1,0.7,0.2c0.3,0.1,0.6,0.2,0.9,0.2c0.5,0,0.9-0.1,1.2-0.2
				c0.3-0.1,0.6-0.4,0.7-0.7c0.2-0.3,0.2-0.7,0.2-1.3v-1.1l0.3,0.4c-0.2,0.3-0.4,0.6-0.7,0.9c-0.3,0.2-0.6,0.4-0.9,0.5
				s-0.8,0.2-1.3,0.2c-0.6,0-1-0.1-1.5-0.4c-0.4-0.3-0.7-0.6-1-1.1s-0.3-1-0.3-1.6v-4.6c0-0.3,0.1-0.5,0.3-0.7
				c0.2-0.2,0.4-0.3,0.7-0.3c0.3,0,0.5,0.1,0.7,0.3c0.2,0.2,0.3,0.4,0.3,0.7v4c0,0.7,0.1,1.2,0.4,1.4c0.3,0.3,0.7,0.4,1.2,0.4
				c0.4,0,0.7-0.1,0.9-0.2s0.4-0.4,0.6-0.6c0.1-0.3,0.2-0.6,0.2-1v-4c0-0.3,0.1-0.5,0.3-0.7C457.3,136.7,457.5,136.6,457.8,136.6z"
				/>
			<path class="st2" d="M465.1,136.4c0.7,0,1.4,0.2,2,0.6s1,0.9,1.4,1.5c0.3,0.6,0.5,1.4,0.5,2.3c0,0.9-0.2,1.6-0.5,2.3
				c-0.3,0.7-0.8,1.2-1.4,1.5c-0.6,0.4-1.2,0.6-1.9,0.6c-0.4,0-0.8-0.1-1.2-0.2s-0.7-0.3-1-0.5c-0.3-0.2-0.5-0.4-0.6-0.6
				c-0.2-0.2-0.2-0.4-0.2-0.5l0.5-0.2v4.1c0,0.3-0.1,0.5-0.3,0.7c-0.2,0.2-0.4,0.3-0.7,0.3c-0.3,0-0.5-0.1-0.7-0.3
				c-0.2-0.2-0.3-0.4-0.3-0.7v-9.6c0-0.3,0.1-0.5,0.3-0.7c0.2-0.2,0.4-0.3,0.7-0.3c0.3,0,0.5,0.1,0.7,0.3c0.2,0.2,0.3,0.4,0.3,0.7
				v0.8l-0.3-0.1c0-0.1,0.1-0.3,0.2-0.5c0.1-0.2,0.3-0.4,0.6-0.6c0.3-0.2,0.5-0.4,0.9-0.5C464.4,136.5,464.8,136.4,465.1,136.4z
				 M464.9,138.2c-0.5,0-0.9,0.1-1.2,0.3c-0.3,0.2-0.6,0.5-0.8,0.9c-0.2,0.4-0.3,0.8-0.3,1.3c0,0.5,0.1,0.9,0.3,1.3
				c0.2,0.4,0.5,0.7,0.8,0.9c0.3,0.2,0.7,0.3,1.2,0.3s0.9-0.1,1.2-0.3c0.3-0.2,0.6-0.5,0.8-0.9c0.2-0.4,0.3-0.8,0.3-1.3
				c0-0.5-0.1-0.9-0.3-1.3c-0.2-0.4-0.5-0.7-0.8-0.9S465.3,138.2,464.9,138.2z"/>
			<path class="st2" d="M474.4,145.2c-0.9,0-1.7-0.2-2.3-0.6c-0.7-0.4-1.2-0.9-1.5-1.5c-0.4-0.6-0.5-1.4-0.5-2.2
				c0-0.9,0.2-1.7,0.6-2.4c0.4-0.7,0.9-1.2,1.5-1.5c0.6-0.4,1.3-0.5,2-0.5c0.5,0,1,0.1,1.5,0.3s0.9,0.5,1.3,0.9s0.7,0.8,0.9,1.3
				s0.3,1,0.3,1.6c0,0.3-0.1,0.5-0.3,0.6c-0.2,0.2-0.4,0.2-0.7,0.2h-6l-0.5-1.6h5.8l-0.3,0.3v-0.4c0-0.3-0.1-0.6-0.3-0.8
				c-0.2-0.2-0.4-0.4-0.7-0.6c-0.3-0.1-0.6-0.2-0.9-0.2c-0.3,0-0.6,0-0.9,0.1s-0.5,0.2-0.7,0.4c-0.2,0.2-0.4,0.5-0.5,0.8
				c-0.1,0.3-0.2,0.8-0.2,1.3c0,0.6,0.1,1,0.4,1.4c0.2,0.4,0.5,0.7,0.9,0.9c0.4,0.2,0.8,0.3,1.2,0.3c0.4,0,0.7,0,0.9-0.1
				c0.2-0.1,0.4-0.1,0.6-0.2c0.1-0.1,0.3-0.2,0.4-0.2c0.2-0.1,0.4-0.1,0.5-0.1c0.2,0,0.4,0.1,0.6,0.2s0.2,0.3,0.2,0.5
				c0,0.3-0.1,0.5-0.4,0.8c-0.3,0.2-0.7,0.4-1.1,0.6C475.5,145.1,474.9,145.2,474.4,145.2z"/>
		</g>
		<g id="Group-26" transform="translate(426.000000, 63.576577)">
			<path id="Fill-22" class="st7" d="M32.2,20.2c-1.2,6.4-6.8,11.1-13.3,11.1c-5.3,0-10-3-12.2-7.6l2.1-0.3l-2.4-3.1l-2.4-3.1
				l-1.5,3.7l-1.5,3.7l2.9-0.4c2.5,5.9,8.4,10,15.1,10c7.9,0,14.7-5.6,16.1-13.3L32.2,20.2z"/>
			<path id="Fill-24" class="st7" d="M34.3,11C32.1,4.6,25.9,0.1,18.9,0.1c-8,0-14.7,5.7-16.1,13.5l2.8,0.5
				C6.7,7.6,12.3,2.9,18.9,2.9c5.6,0,10.6,3.5,12.6,8.5L29,11.8l2.5,3.1l2.5,3.1l1.4-3.7l1.4-3.7L34.3,11z"/>
		</g>
		<path id="Fill-27" class="st8" d="M1081.7,95.8c0,32.5-26.3,58.8-58.8,58.8c-32.5,0-58.8-26.3-58.8-58.8S990.3,37,1022.8,37
			C1055.3,37,1081.7,63.3,1081.7,95.8"/>
		<g class="st1">
			<path class="st2" d="M991.2,91c0.1,0,0.3,0,0.5,0.1s0.3,0.2,0.4,0.3l3.8,5.9l-0.8,0l3.9-5.8c0.2-0.3,0.5-0.4,0.8-0.4
				c0.3,0,0.5,0.1,0.7,0.3c0.2,0.2,0.3,0.4,0.3,0.7v9.1c0,0.3-0.1,0.5-0.3,0.7c-0.2,0.2-0.4,0.3-0.7,0.3s-0.5-0.1-0.7-0.3
				c-0.2-0.2-0.3-0.4-0.3-0.7v-7.4l0.6,0.1l-3.2,4.9c-0.1,0.1-0.2,0.2-0.4,0.3c-0.1,0.1-0.3,0.1-0.4,0.1c-0.1,0-0.3,0-0.4-0.1
				c-0.1-0.1-0.3-0.2-0.4-0.3l-3-4.7l0.4-0.8v7.9c0,0.3-0.1,0.5-0.3,0.7c-0.2,0.2-0.4,0.3-0.7,0.3c-0.3,0-0.5-0.1-0.6-0.3
				c-0.2-0.2-0.2-0.4-0.2-0.7V92c0-0.3,0.1-0.5,0.3-0.7C990.7,91.1,990.9,91,991.2,91z"/>
		</g>
		<text transform="matrix(1 0 0 1 1001.8533 102)" class="st2 st3 st4"> </text>
		<g class="st1">
			<path class="st2" d="M1006.8,102.2c-0.9,0-1.7-0.2-2.3-0.6c-0.7-0.4-1.2-0.9-1.5-1.5c-0.4-0.6-0.5-1.4-0.5-2.2
				c0-0.9,0.2-1.7,0.6-2.4c0.4-0.7,0.9-1.2,1.5-1.5s1.3-0.5,2-0.5c0.5,0,1,0.1,1.5,0.3c0.5,0.2,0.9,0.5,1.3,0.9s0.7,0.8,0.9,1.3
				s0.3,1,0.3,1.6c0,0.3-0.1,0.5-0.3,0.6c-0.2,0.2-0.4,0.2-0.7,0.2h-6l-0.5-1.6h5.8l-0.3,0.3v-0.4c0-0.3-0.1-0.6-0.3-0.8
				c-0.2-0.2-0.4-0.4-0.7-0.6s-0.6-0.2-0.9-0.2c-0.3,0-0.6,0-0.9,0.1c-0.3,0.1-0.5,0.2-0.7,0.4c-0.2,0.2-0.4,0.5-0.5,0.8
				c-0.1,0.3-0.2,0.8-0.2,1.3c0,0.6,0.1,1,0.4,1.4c0.2,0.4,0.5,0.7,0.9,0.9c0.4,0.2,0.8,0.3,1.2,0.3c0.4,0,0.7,0,0.9-0.1
				c0.2-0.1,0.4-0.1,0.6-0.2c0.1-0.1,0.3-0.2,0.4-0.2c0.2-0.1,0.4-0.1,0.5-0.1c0.2,0,0.4,0.1,0.6,0.2s0.2,0.3,0.2,0.5
				c0,0.3-0.1,0.5-0.4,0.8c-0.3,0.2-0.7,0.4-1.1,0.6C1007.8,102.1,1007.3,102.2,1006.8,102.2z"/>
		</g>
		<text transform="matrix(1 0 0 1 1011.0188 102)" class="st2 st3 st4"> </text>
		<g class="st1">
			<path class="st2" d="M1018.9,93.4c0.3,0,0.5,0.1,0.7,0.3s0.3,0.4,0.3,0.7v6.6c0,0.3-0.1,0.5-0.3,0.7c-0.2,0.2-0.4,0.3-0.7,0.3
				s-0.5-0.1-0.7-0.3c-0.2-0.2-0.3-0.4-0.3-0.7v-0.8l0.3,0.1c0,0.1-0.1,0.3-0.2,0.5s-0.3,0.4-0.6,0.6s-0.5,0.3-0.9,0.5
				c-0.3,0.1-0.7,0.2-1.1,0.2c-0.7,0-1.4-0.2-2-0.6c-0.6-0.4-1-0.9-1.4-1.5c-0.3-0.7-0.5-1.4-0.5-2.3c0-0.9,0.2-1.6,0.5-2.3
				c0.3-0.7,0.8-1.2,1.4-1.5c0.6-0.4,1.2-0.6,1.9-0.6c0.5,0,0.9,0.1,1.2,0.2c0.4,0.1,0.7,0.3,1,0.5c0.3,0.2,0.5,0.4,0.6,0.6
				c0.2,0.2,0.2,0.4,0.2,0.5l-0.6,0.2v-1.1c0-0.3,0.1-0.5,0.3-0.7C1018.4,93.5,1018.6,93.4,1018.9,93.4z M1015.7,100.4
				c0.5,0,0.9-0.1,1.2-0.3c0.3-0.2,0.6-0.5,0.8-0.9c0.2-0.4,0.3-0.8,0.3-1.3c0-0.5-0.1-1-0.3-1.3c-0.2-0.4-0.5-0.7-0.8-0.9
				c-0.3-0.2-0.7-0.3-1.2-0.3c-0.5,0-0.8,0.1-1.2,0.3c-0.3,0.2-0.6,0.5-0.8,0.9c-0.2,0.4-0.3,0.8-0.3,1.3c0,0.5,0.1,0.9,0.3,1.3
				c0.2,0.4,0.5,0.7,0.8,0.9C1014.9,100.3,1015.3,100.4,1015.7,100.4z"/>
			<path class="st2" d="M1021.4,100.7c-0.1-0.1-0.2-0.3-0.1-0.6c0-0.2,0.1-0.4,0.4-0.6c0.2-0.1,0.3-0.1,0.5-0.1s0.4,0.1,0.5,0.3
				c0.3,0.3,0.6,0.5,1,0.7c0.3,0.2,0.8,0.3,1.3,0.3c0.2,0,0.3,0,0.5-0.1c0.2,0,0.4-0.1,0.5-0.3c0.1-0.1,0.2-0.3,0.2-0.6
				c0-0.2-0.1-0.4-0.2-0.5c-0.2-0.1-0.4-0.3-0.6-0.3c-0.3-0.1-0.5-0.2-0.9-0.3c-0.3-0.1-0.7-0.2-1-0.3c-0.3-0.1-0.7-0.3-0.9-0.4
				c-0.3-0.2-0.5-0.4-0.7-0.7s-0.3-0.7-0.3-1.1c0-0.5,0.1-1,0.4-1.3s0.7-0.6,1.1-0.8c0.5-0.2,1-0.3,1.5-0.3c0.3,0,0.7,0,1,0.1
				s0.7,0.2,1,0.4c0.3,0.2,0.6,0.4,0.8,0.7c0.1,0.2,0.2,0.3,0.2,0.6c0,0.2-0.1,0.4-0.3,0.6c-0.2,0.1-0.3,0.2-0.5,0.2
				c-0.2,0-0.4-0.1-0.5-0.2c-0.2-0.2-0.4-0.4-0.7-0.5c-0.3-0.1-0.6-0.2-1-0.2c-0.2,0-0.3,0-0.5,0.1c-0.2,0-0.3,0.1-0.5,0.2
				s-0.2,0.3-0.2,0.6c0,0.2,0.1,0.4,0.2,0.6c0.2,0.1,0.4,0.3,0.6,0.3c0.3,0.1,0.6,0.2,0.9,0.3c0.3,0.1,0.6,0.2,1,0.3
				s0.6,0.3,0.9,0.5c0.3,0.2,0.5,0.4,0.7,0.7c0.2,0.3,0.3,0.7,0.3,1.1c0,0.5-0.2,1-0.5,1.4c-0.3,0.4-0.7,0.7-1.2,0.9
				c-0.5,0.2-1,0.3-1.4,0.3c-0.6,0-1.2-0.1-1.9-0.3C1022.3,101.6,1021.8,101.2,1021.4,100.7z"/>
			<path class="st2" d="M1035.7,93.6c0.3,0,0.5,0.1,0.7,0.3c0.2,0.2,0.3,0.4,0.3,0.7v4c0,1.1-0.3,2-0.9,2.6c-0.6,0.6-1.5,1-2.7,1
				c-1.2,0-2-0.3-2.7-1c-0.6-0.6-0.9-1.5-0.9-2.6v-4c0-0.3,0.1-0.5,0.3-0.7c0.2-0.2,0.4-0.3,0.7-0.3c0.3,0,0.5,0.1,0.7,0.3
				c0.2,0.2,0.3,0.4,0.3,0.7v4c0,0.6,0.1,1.1,0.4,1.4c0.3,0.3,0.7,0.5,1.3,0.5c0.6,0,1-0.2,1.3-0.5c0.3-0.3,0.4-0.8,0.4-1.4v-4
				c0-0.3,0.1-0.5,0.3-0.7C1035.2,93.7,1035.4,93.6,1035.7,93.6z"/>
		</g>
		<text transform="matrix(1 0 0 1 1037.6359 102)" class="st2 st3 st4"> </text>
		<text transform="matrix(1 0 0 1 1037.6364 102)" class="st2 st3 st4">r</text>
		<text transform="matrix(1 0 0 1 1044.1038 102)" class="st2 st3 st4"> </text>
		<g class="st1">
			<path class="st2" d="M1048.7,102.2c-0.9,0-1.7-0.2-2.3-0.6c-0.7-0.4-1.2-0.9-1.5-1.5c-0.4-0.6-0.5-1.4-0.5-2.2
				c0-0.9,0.2-1.7,0.6-2.4c0.4-0.7,0.9-1.2,1.5-1.5c0.6-0.4,1.3-0.5,2-0.5c0.5,0,1,0.1,1.5,0.3c0.5,0.2,0.9,0.5,1.3,0.9
				s0.7,0.8,0.9,1.3c0.2,0.5,0.3,1,0.3,1.6c0,0.3-0.1,0.5-0.3,0.6s-0.4,0.2-0.7,0.2h-6l-0.5-1.6h5.8l-0.3,0.3v-0.4
				c0-0.3-0.1-0.6-0.3-0.8c-0.2-0.2-0.4-0.4-0.7-0.6c-0.3-0.1-0.6-0.2-0.9-0.2c-0.3,0-0.6,0-0.9,0.1c-0.3,0.1-0.5,0.2-0.7,0.4
				c-0.2,0.2-0.4,0.5-0.5,0.8c-0.1,0.3-0.2,0.8-0.2,1.3c0,0.6,0.1,1,0.4,1.4c0.2,0.4,0.5,0.7,0.9,0.9c0.4,0.2,0.8,0.3,1.2,0.3
				c0.4,0,0.7,0,0.9-0.1c0.2-0.1,0.4-0.1,0.6-0.2c0.1-0.1,0.3-0.2,0.4-0.2c0.2-0.1,0.4-0.1,0.5-0.1c0.2,0,0.4,0.1,0.6,0.2
				c0.2,0.2,0.2,0.3,0.2,0.5c0,0.3-0.1,0.5-0.4,0.8c-0.3,0.2-0.7,0.4-1.1,0.6C1049.7,102.1,1049.2,102.2,1048.7,102.2z"/>
		</g>
		<path id="Fill-31" class="st8" d="M117.7,96.8c0,32.5-26.3,58.8-58.8,58.8C26.3,155.6,0,129.3,0,96.8C0,64.3,26.3,38,58.8,38
			C91.3,38,117.7,64.3,117.7,96.8"/>
		<g class="st1">
			<path class="st2" d="M24.3,103c-0.3,0-0.6-0.1-0.8-0.3c-0.2-0.2-0.3-0.4-0.3-0.7V93c0-0.3,0.1-0.5,0.3-0.7
				c0.2-0.2,0.4-0.3,0.7-0.3h4.5c0.5,0,1.1,0.1,1.5,0.4c0.5,0.3,0.9,0.7,1.2,1.2s0.4,1.1,0.4,1.8c0,0.4-0.1,0.8-0.2,1.2
				s-0.4,0.7-0.7,1c-0.3,0.3-0.6,0.5-0.9,0.7l0-0.4c0.3,0.2,0.5,0.3,0.7,0.6c0.2,0.2,0.3,0.4,0.5,0.7s0.2,0.5,0.2,0.8
				c0,0.3,0.1,0.5,0.1,0.7c0,0.2,0,0.4,0.1,0.5s0.1,0.2,0.3,0.3c0.2,0.1,0.4,0.3,0.4,0.6c0.1,0.3,0,0.5-0.2,0.7
				c-0.1,0.1-0.3,0.2-0.4,0.3c-0.2,0-0.4,0-0.5,0c-0.2,0-0.3-0.1-0.4-0.1c-0.2-0.1-0.4-0.3-0.5-0.5s-0.3-0.5-0.4-0.8
				c-0.1-0.3-0.2-0.8-0.2-1.3c0-0.2,0-0.3-0.1-0.5c-0.1-0.2-0.2-0.3-0.3-0.4c-0.1-0.1-0.3-0.2-0.4-0.3C28.5,99,28.3,99,28.1,99h-3.2
				l0.2-0.4v3.4c0,0.3-0.1,0.5-0.2,0.7C24.8,102.9,24.6,103,24.3,103z M24.9,97.4h3.7c0.2,0,0.4-0.1,0.5-0.3
				c0.2-0.2,0.3-0.4,0.4-0.7c0.1-0.3,0.2-0.6,0.2-1c0-0.5-0.1-0.8-0.4-1.2c-0.2-0.3-0.5-0.5-0.8-0.5H25l0.2-0.5v4.4L24.9,97.4z"/>
		</g>
		<g class="st1">
			<path class="st2" d="M37.5,103.2c-0.9,0-1.7-0.2-2.3-0.6c-0.7-0.4-1.2-0.9-1.5-1.5c-0.4-0.6-0.5-1.4-0.5-2.2
				c0-0.9,0.2-1.7,0.6-2.4c0.4-0.7,0.9-1.2,1.5-1.5c0.6-0.4,1.3-0.5,2-0.5c0.5,0,1,0.1,1.5,0.3s0.9,0.5,1.3,0.9s0.7,0.8,0.9,1.3
				s0.3,1,0.3,1.6c0,0.3-0.1,0.5-0.3,0.6c-0.2,0.2-0.4,0.2-0.7,0.2h-6l-0.5-1.6h5.8l-0.3,0.3v-0.4c0-0.3-0.1-0.6-0.3-0.8
				c-0.2-0.2-0.4-0.4-0.7-0.6c-0.3-0.1-0.6-0.2-0.9-0.2c-0.3,0-0.6,0-0.9,0.1s-0.5,0.2-0.7,0.4c-0.2,0.2-0.4,0.5-0.5,0.8
				C35,97.9,35,98.3,35,98.8c0,0.6,0.1,1,0.4,1.4c0.2,0.4,0.5,0.7,0.9,0.9c0.4,0.2,0.8,0.3,1.2,0.3c0.4,0,0.7,0,0.9-0.1
				c0.2-0.1,0.4-0.1,0.6-0.2c0.1-0.1,0.3-0.2,0.4-0.2c0.2-0.1,0.4-0.1,0.5-0.1c0.2,0,0.4,0.1,0.6,0.2s0.2,0.3,0.2,0.5
				c0,0.3-0.1,0.5-0.4,0.8c-0.3,0.2-0.7,0.4-1.1,0.6C38.6,103.1,38,103.2,37.5,103.2z"/>
			<path class="st2" d="M42.2,101.7c-0.1-0.1-0.2-0.3-0.1-0.6c0-0.2,0.1-0.4,0.4-0.6c0.2-0.1,0.3-0.1,0.5-0.1s0.4,0.1,0.5,0.3
				c0.3,0.3,0.6,0.5,1,0.7c0.3,0.2,0.8,0.3,1.3,0.3c0.2,0,0.3,0,0.5-0.1c0.2,0,0.4-0.1,0.5-0.3c0.1-0.1,0.2-0.3,0.2-0.6
				c0-0.2-0.1-0.4-0.2-0.5c-0.2-0.1-0.4-0.3-0.6-0.3c-0.3-0.1-0.5-0.2-0.9-0.3c-0.3-0.1-0.7-0.2-1-0.3c-0.3-0.1-0.7-0.3-0.9-0.4
				c-0.3-0.2-0.5-0.4-0.7-0.7c-0.2-0.3-0.3-0.7-0.3-1.1c0-0.5,0.1-1,0.4-1.3s0.7-0.6,1.1-0.8c0.5-0.2,1-0.3,1.5-0.3
				c0.3,0,0.7,0,1,0.1s0.7,0.2,1,0.4c0.3,0.2,0.6,0.4,0.8,0.7c0.1,0.2,0.2,0.3,0.2,0.6c0,0.2-0.1,0.4-0.3,0.6
				C48,96.9,47.8,97,47.6,97c-0.2,0-0.4-0.1-0.5-0.2c-0.2-0.2-0.4-0.4-0.7-0.5c-0.3-0.1-0.6-0.2-1-0.2c-0.2,0-0.3,0-0.5,0.1
				c-0.2,0-0.3,0.1-0.5,0.2c-0.1,0.1-0.2,0.3-0.2,0.6c0,0.2,0.1,0.4,0.2,0.6c0.2,0.1,0.4,0.3,0.6,0.3c0.3,0.1,0.6,0.2,0.9,0.3
				c0.3,0.1,0.6,0.2,1,0.3s0.6,0.3,0.9,0.5s0.5,0.4,0.7,0.7c0.2,0.3,0.3,0.7,0.3,1.1c0,0.5-0.2,1-0.5,1.4c-0.3,0.4-0.7,0.7-1.2,0.9
				c-0.5,0.2-1,0.3-1.4,0.3c-0.6,0-1.2-0.1-1.9-0.3C43.1,102.6,42.6,102.2,42.2,101.7z"/>
		</g>
		<g class="st1">
			<path class="st2" d="M54.2,103.2c-0.9,0-1.7-0.2-2.3-0.6c-0.7-0.4-1.2-0.9-1.5-1.5c-0.4-0.6-0.5-1.4-0.5-2.2
				c0-0.9,0.2-1.7,0.6-2.4c0.4-0.7,0.9-1.2,1.5-1.5c0.6-0.4,1.3-0.5,2-0.5c0.5,0,1,0.1,1.5,0.3s0.9,0.5,1.3,0.9s0.7,0.8,0.9,1.3
				s0.3,1,0.3,1.6c0,0.3-0.1,0.5-0.3,0.6c-0.2,0.2-0.4,0.2-0.7,0.2h-6l-0.5-1.6h5.8l-0.3,0.3v-0.4c0-0.3-0.1-0.6-0.3-0.8
				c-0.2-0.2-0.4-0.4-0.7-0.6c-0.3-0.1-0.6-0.2-0.9-0.2c-0.3,0-0.6,0-0.9,0.1s-0.5,0.2-0.7,0.4c-0.2,0.2-0.4,0.5-0.5,0.8
				c-0.1,0.3-0.2,0.8-0.2,1.3c0,0.6,0.1,1,0.4,1.4c0.2,0.4,0.5,0.7,0.9,0.9c0.4,0.2,0.8,0.3,1.2,0.3c0.4,0,0.7,0,0.9-0.1
				c0.2-0.1,0.4-0.1,0.6-0.2c0.1-0.1,0.3-0.2,0.4-0.2c0.2-0.1,0.4-0.1,0.5-0.1c0.2,0,0.4,0.1,0.6,0.2s0.2,0.3,0.2,0.5
				c0,0.3-0.1,0.5-0.4,0.8c-0.3,0.2-0.7,0.4-1.1,0.6C55.2,103.1,54.7,103.2,54.2,103.2z"/>
		</g>
		<g class="st1">
			<path class="st2" d="M66.3,94.4c0.3,0,0.5,0.1,0.7,0.3c0.2,0.2,0.3,0.4,0.3,0.7v6.6c0,0.3-0.1,0.5-0.3,0.7
				c-0.2,0.2-0.4,0.3-0.7,0.3c-0.3,0-0.5-0.1-0.7-0.3c-0.2-0.2-0.3-0.4-0.3-0.7v-0.8l0.3,0.1c0,0.1-0.1,0.3-0.2,0.5
				s-0.3,0.4-0.6,0.6s-0.5,0.3-0.9,0.5c-0.3,0.1-0.7,0.2-1.1,0.2c-0.7,0-1.4-0.2-2-0.6c-0.6-0.4-1-0.9-1.4-1.5
				c-0.3-0.7-0.5-1.4-0.5-2.3c0-0.9,0.2-1.6,0.5-2.3c0.3-0.7,0.8-1.2,1.4-1.5c0.6-0.4,1.2-0.6,1.9-0.6c0.4,0,0.9,0.1,1.2,0.2
				c0.4,0.1,0.7,0.3,1,0.5c0.3,0.2,0.5,0.4,0.6,0.6c0.2,0.2,0.2,0.4,0.2,0.5l-0.6,0.2v-1.1c0-0.3,0.1-0.5,0.3-0.7
				C65.8,94.5,66.1,94.4,66.3,94.4z M63.2,101.4c0.5,0,0.9-0.1,1.2-0.3c0.3-0.2,0.6-0.5,0.8-0.9c0.2-0.4,0.3-0.8,0.3-1.3
				c0-0.5-0.1-1-0.3-1.3c-0.2-0.4-0.5-0.7-0.8-0.9s-0.7-0.3-1.2-0.3c-0.5,0-0.8,0.1-1.2,0.3s-0.6,0.5-0.8,0.9
				c-0.2,0.4-0.3,0.8-0.3,1.3c0,0.5,0.1,0.9,0.3,1.3c0.2,0.4,0.5,0.7,0.8,0.9C62.3,101.3,62.7,101.4,63.2,101.4z"/>
		</g>
		<g class="st1">
			<path class="st2" d="M70.3,103c-0.3,0-0.5-0.1-0.7-0.3c-0.2-0.2-0.3-0.4-0.3-0.7v-6.5c0-0.3,0.1-0.5,0.3-0.7
				c0.2-0.2,0.4-0.3,0.7-0.3c0.3,0,0.5,0.1,0.7,0.3c0.2,0.2,0.3,0.4,0.3,0.7V97L71.1,96c0.1-0.3,0.3-0.5,0.4-0.7
				c0.2-0.2,0.4-0.4,0.6-0.5c0.2-0.1,0.5-0.2,0.7-0.3c0.3-0.1,0.5-0.1,0.8-0.1c0.3,0,0.6,0.1,0.8,0.3c0.2,0.2,0.3,0.4,0.3,0.6
				c0,0.3-0.1,0.6-0.3,0.7s-0.4,0.2-0.6,0.2c-0.2,0-0.4,0-0.5-0.1s-0.3-0.1-0.6-0.1c-0.2,0-0.4,0-0.6,0.1c-0.2,0.1-0.4,0.2-0.5,0.4
				s-0.3,0.4-0.4,0.7c-0.1,0.3-0.1,0.6-0.1,1v3.7c0,0.3-0.1,0.5-0.3,0.7C70.8,102.9,70.5,103,70.3,103z"/>
		</g>
		<g class="st1">
			<path class="st2" d="M79.1,94.4c0.6,0,1.1,0.1,1.6,0.2c0.4,0.1,0.8,0.3,1,0.5c0.2,0.2,0.4,0.5,0.4,0.8c0,0.2-0.1,0.4-0.2,0.6
				s-0.3,0.3-0.5,0.3c-0.2,0-0.3,0-0.4-0.1s-0.2-0.1-0.3-0.2c-0.1-0.1-0.2-0.1-0.3-0.2c-0.1-0.1-0.3-0.1-0.5-0.1
				c-0.2,0-0.4-0.1-0.5-0.1c-0.5,0-1,0.1-1.4,0.3c-0.4,0.2-0.7,0.5-0.9,0.9c-0.2,0.4-0.3,0.8-0.3,1.4c0,0.5,0.1,0.9,0.3,1.3
				s0.5,0.7,0.8,0.9c0.4,0.2,0.8,0.3,1.2,0.3c0.3,0,0.5,0,0.7,0c0.2,0,0.3-0.1,0.5-0.1c0.1-0.1,0.3-0.2,0.4-0.3
				c0.1-0.1,0.3-0.1,0.5-0.1c0.3,0,0.5,0.1,0.6,0.3c0.1,0.2,0.2,0.4,0.2,0.6c0,0.3-0.1,0.5-0.4,0.7c-0.3,0.2-0.7,0.4-1.2,0.5
				s-1,0.2-1.5,0.2c-0.8,0-1.5-0.2-2.2-0.6s-1.1-0.9-1.4-1.6S75,99.6,75,98.8c0-0.9,0.2-1.6,0.5-2.3c0.4-0.7,0.8-1.2,1.5-1.5
				S78.3,94.4,79.1,94.4z"/>
			<path class="st2" d="M87.9,94.4c0.8,0,1.3,0.2,1.7,0.5c0.4,0.3,0.7,0.8,0.8,1.3c0.1,0.5,0.2,1.1,0.2,1.8v4c0,0.3-0.1,0.5-0.3,0.7
				c-0.2,0.2-0.4,0.3-0.7,0.3s-0.5-0.1-0.7-0.3c-0.2-0.2-0.3-0.4-0.3-0.7v-4c0-0.3,0-0.7-0.1-0.9c-0.1-0.3-0.2-0.5-0.5-0.7
				c-0.2-0.2-0.5-0.3-0.9-0.3c-0.4,0-0.7,0.1-1,0.3c-0.3,0.2-0.5,0.4-0.6,0.7c-0.1,0.3-0.2,0.6-0.2,0.9v4c0,0.3-0.1,0.5-0.3,0.7
				c-0.2,0.2-0.4,0.3-0.7,0.3c-0.3,0-0.5-0.1-0.7-0.3c-0.2-0.2-0.3-0.4-0.3-0.7v-9.7c0-0.3,0.1-0.5,0.3-0.7c0.2-0.2,0.4-0.3,0.7-0.3
				c0.3,0,0.5,0.1,0.7,0.3c0.2,0.2,0.3,0.4,0.3,0.7v3.9l-0.2,0c0.1-0.2,0.2-0.4,0.4-0.6c0.2-0.2,0.4-0.4,0.6-0.6s0.5-0.3,0.8-0.4
				C87.2,94.5,87.5,94.4,87.9,94.4z"/>
		</g>
	</g>
</g>
</svg>
