<svg id="Layer_1" data-name="Layer 1" xmlns="http://www.w3.org/2000/svg" viewBox="0 0 1848 343"><defs><style>.cls-1{fill:#ff1269;}.cls-2{font-size:34.44px;}.cls-2,.cls-5{fill:#fff;font-family:Quicksand-Bold, Quicksand;font-weight:700;}.cls-3{letter-spacing:0em;}.cls-4{letter-spacing:0em;}.cls-5{font-size:35.21px;}.cls-6{fill:#798a99;}</style></defs><polygon class="cls-1" points="903.49 7 955.44 112.26 1071.6 129.14 987.54 211.07 1007.39 326.76 903.49 272.14 799.59 326.76 819.43 211.07 735.38 129.14 851.54 112.26 903.49 7"/><text class="cls-2" transform="translate(853.69 193.82)">S<tspan class="cls-3" x="20.56" y="0">t</tspan><tspan class="cls-4" x="34.47" y="0">ep 2</tspan></text><polygon class="cls-1" points="1640.33 3.41 1677.64 97.92 1774.79 68.17 1724.16 156.26 1808 213.67 1707.56 229.01 1714.95 330.35 1640.33 261.39 1565.7 330.35 1573.09 229.01 1472.65 213.67 1556.49 156.26 1505.86 68.17 1603.01 97.92 1640.33 3.41"/><text class="cls-5" transform="translate(1565.08 195.74)">End Goal</text><polygon class="cls-1" points="166.65 3.41 224.45 109.09 330.13 166.88 224.45 224.68 166.65 330.35 108.86 224.68 3.18 166.88 108.86 109.09 166.65 3.41"/><text class="cls-5" transform="translate(129.68 176.52)">MVP</text><path class="cls-6" d="M509.14,166.88,533,180.67V170.34h24.51a3.46,3.46,0,1,0,0-6.91H533V153.09Z"/><path class="cls-6" d="M1246,166.88l23.88,13.79V170.34h24.52a3.46,3.46,0,1,0,0-6.91h-24.52V153.09Z"/></svg>