<?xml version="1.0" encoding="utf-8"?>
<!-- Generator: Adobe Illustrator 26.5.0, SVG Export Plug-In . SVG Version: 6.00 Build 0)  -->
<svg version="1.1" id="Layer_1" xmlns="http://www.w3.org/2000/svg" xmlns:xlink="http://www.w3.org/1999/xlink" x="0px" y="0px"
	 viewBox="0 0 1120 1365" style="enable-background:new 0 0 1120 1365;" xml:space="preserve">
<style type="text/css">
	.st0{fill:#63707A;}
	.st1{fill:#7FB9D6;}
	.st2{fill:#5792B6;}
	.st3{fill:#45627C;}
	.st4{fill:#1F3349;}
	.st5{fill:#FF1269;}
	.st6{enable-background:new    ;}
	.st7{fill:#FFFFFF;}
	.st8{fill:none;stroke:#1F3349;stroke-width:3;stroke-linecap:round;stroke-miterlimit:10;}
	.st9{fill:none;stroke:#1F3349;stroke-width:3;stroke-linecap:round;stroke-linejoin:round;}
</style>
<path class="st0" d="M562.3,807.7l-38-543.4c12-0.8,26-1.3,38-1.3V807.7z"/>
<path class="st1" d="M562.3,807.7l-204-505c55.8-22.5,106-34.1,166-38.3L562.3,807.7z"/>
<path class="st2" d="M562.3,807.7l-518-168.3c52-160.2,157.7-273.6,314-336.7L562.3,807.7z"/>
<path class="st3" d="M562.3,807.7L170.5,1186C28.4,1038.9-19,833.9,44.2,639.3L562.3,807.7z"/>
<path class="st4" d="M562.3,807.7l264.1,476.4c-221,122.5-480.4,83.8-655.9-98L562.3,807.7z"/>
<path class="st5" d="M562.3,807.7V263c300.8,0,544.7,243.8,544.7,544.7c0,204.6-101.7,377.2-280.6,476.4L562.3,807.7z"/>
<g class="st6">
	<path class="st7" d="M752.9,833.6l8.4,2.7c-1.3,4.7-3.4,8.2-6.4,10.4c-3,2.3-6.8,3.4-11.4,3.4c-5.7,0-10.4-1.9-14.1-5.8
		c-3.7-3.9-5.5-9.2-5.5-16c0-7.1,1.8-12.7,5.5-16.7s8.5-5.9,14.6-5.9c5.3,0,9.5,1.6,12.8,4.7c2,1.8,3.4,4.5,4.4,7.9l-8.6,2.1
		c-0.5-2.2-1.6-4-3.2-5.3s-3.6-1.9-5.9-1.9c-3.2,0-5.8,1.1-7.7,3.4c-2,2.3-3,6-3,11.1c0,5.4,1,9.3,2.9,11.6c2,2.3,4.5,3.5,7.6,3.5
		c2.3,0,4.3-0.7,5.9-2.2C751,839,752.2,836.7,752.9,833.6z"/>
	<path class="st7" d="M766.8,833.4c0-2.7,0.7-5.4,2-7.9s3.3-4.5,5.7-5.9c2.5-1.3,5.2-2,8.3-2c4.7,0,8.6,1.5,11.6,4.6
		c3,3.1,4.5,6.9,4.5,11.6c0,4.7-1.5,8.6-4.6,11.7c-3,3.1-6.9,4.6-11.5,4.6c-2.9,0-5.6-0.6-8.2-1.9c-2.6-1.3-4.6-3.2-5.9-5.7
		S766.8,837,766.8,833.4z M775.2,833.8c0,3.1,0.7,5.4,2.2,7.1s3.3,2.5,5.4,2.5c2.1,0,4-0.8,5.4-2.5c1.5-1.6,2.2-4,2.2-7.1
		c0-3-0.7-5.4-2.2-7c-1.5-1.6-3.3-2.5-5.4-2.5c-2.1,0-4,0.8-5.4,2.5S775.2,830.7,775.2,833.8z"/>
	<path class="st7" d="M804.7,818.3h7.6v4.2c2.7-3.3,5.9-5,9.7-5c2,0,3.7,0.4,5.2,1.2s2.7,2.1,3.6,3.7c1.4-1.7,2.8-2.9,4.4-3.7
		s3.3-1.2,5.1-1.2c2.3,0,4.2,0.5,5.8,1.4s2.8,2.3,3.5,4.1c0.6,1.3,0.8,3.5,0.8,6.4v19.9h-8.2v-17.8c0-3.1-0.3-5.1-0.8-6
		c-0.8-1.2-1.9-1.8-3.5-1.8c-1.2,0-2.2,0.4-3.3,1.1c-1,0.7-1.7,1.7-2.2,3.1c-0.5,1.4-0.7,3.5-0.7,6.4v14.9h-8.2v-17.1
		c0-3-0.1-5-0.4-5.9s-0.7-1.5-1.4-2s-1.5-0.6-2.5-0.6c-1.3,0-2.4,0.3-3.4,1c-1,0.7-1.7,1.7-2.2,3s-0.7,3.4-0.7,6.4v15.1h-8.2V818.3z
		"/>
	<path class="st7" d="M858.5,818.3h7.7v4.6c1-1.6,2.3-2.8,4-3.8s3.6-1.5,5.7-1.5c3.6,0,6.7,1.4,9.2,4.2s3.8,6.8,3.8,11.8
		c0,5.2-1.3,9.2-3.8,12.1c-2.5,2.9-5.6,4.3-9.2,4.3c-1.7,0-3.3-0.3-4.7-1c-1.4-0.7-2.9-1.9-4.4-3.5v15.7h-8.2V818.3z M866.6,833.3
		c0,3.5,0.7,6.1,2.1,7.7c1.4,1.7,3.1,2.5,5.1,2.5c1.9,0,3.5-0.8,4.8-2.3c1.3-1.5,1.9-4,1.9-7.5c0-3.3-0.7-5.7-2-7.3
		c-1.3-1.6-2.9-2.4-4.9-2.4c-2,0-3.7,0.8-5,2.3C867.3,828,866.6,830.3,866.6,833.3z"/>
	<path class="st7" d="M901.5,827.8l-7.5-1.3c0.8-3,2.3-5.2,4.3-6.7s5.1-2.2,9.1-2.2c3.7,0,6.4,0.4,8.2,1.3c1.8,0.9,3.1,2,3.8,3.3
		s1.1,3.8,1.1,7.4l-0.1,9.6c0,2.7,0.1,4.8,0.4,6s0.8,2.7,1.5,4.2h-8.1c-0.2-0.5-0.5-1.4-0.8-2.4c-0.1-0.5-0.2-0.8-0.3-1
		c-1.4,1.4-2.9,2.4-4.5,3.1c-1.6,0.7-3.3,1-5.1,1c-3.2,0-5.7-0.9-7.6-2.6s-2.8-3.9-2.8-6.6c0-1.8,0.4-3.3,1.3-4.7
		c0.8-1.4,2-2.4,3.5-3.2c1.5-0.7,3.7-1.4,6.5-1.9c3.8-0.7,6.5-1.4,8-2v-0.8c0-1.6-0.4-2.7-1.2-3.4c-0.8-0.7-2.3-1-4.4-1
		c-1.5,0-2.6,0.3-3.4,0.9S902,826.3,901.5,827.8z M912.5,834.4c-1.1,0.4-2.7,0.8-5,1.3s-3.8,1-4.5,1.4c-1.1,0.8-1.6,1.7-1.6,2.9
		c0,1.2,0.4,2.1,1.3,3c0.9,0.8,2,1.3,3.3,1.3c1.5,0,2.9-0.5,4.2-1.5c1-0.7,1.7-1.7,2-2.7c0.2-0.7,0.3-2,0.3-4V834.4z"/>
	<path class="st7" d="M936.6,849.4h-8.2v-31.1h7.6v4.4c1.3-2.1,2.5-3.5,3.5-4.1c1-0.7,2.2-1,3.6-1c1.9,0,3.7,0.5,5.4,1.6l-2.5,7.2
		c-1.4-0.9-2.7-1.3-3.9-1.3c-1.2,0-2.1,0.3-2.9,1c-0.8,0.6-1.4,1.8-1.9,3.4c-0.5,1.7-0.7,5.1-0.7,10.4V849.4z"/>
	<path class="st7" d="M970.1,839.5l8.2,1.4c-1.1,3-2.7,5.3-5,6.9c-2.3,1.6-5.1,2.4-8.5,2.4c-5.4,0-9.4-1.8-12-5.3
		c-2.1-2.8-3.1-6.4-3.1-10.7c0-5.2,1.3-9.2,4-12.1s6.1-4.4,10.2-4.4c4.6,0,8.3,1.5,11,4.6c2.7,3.1,4,7.7,3.8,14h-20.6
		c0.1,2.4,0.7,4.3,2,5.7c1.3,1.4,2.9,2,4.7,2c1.3,0,2.4-0.4,3.3-1.1S969.6,841,970.1,839.5z M970.6,831.2c-0.1-2.4-0.7-4.2-1.8-5.4
		s-2.6-1.9-4.3-1.9c-1.8,0-3.3,0.7-4.5,2s-1.7,3.1-1.7,5.3H970.6z"/>
</g>
<g class="st6">
	<path class="st7" d="M424.4,1183.3l6.5-0.6c0.4,2.2,1.2,3.8,2.4,4.8s2.8,1.5,4.8,1.5c2.1,0,3.8-0.5,4.8-1.4c1.1-0.9,1.6-2,1.6-3.2
		c0-0.8-0.2-1.4-0.7-2c-0.5-0.5-1.3-1-2.4-1.4c-0.8-0.3-2.6-0.7-5.3-1.4c-3.6-0.9-6.1-2-7.5-3.3c-2-1.8-3-4-3-6.6
		c0-1.7,0.5-3.2,1.4-4.7c1-1.5,2.3-2.6,4.1-3.3s3.9-1.1,6.5-1.1c4.1,0,7.2,0.9,9.3,2.7s3.2,4.2,3.3,7.3l-6.6,0.3
		c-0.3-1.7-0.9-2.9-1.8-3.7c-0.9-0.7-2.3-1.1-4.2-1.1c-1.9,0-3.4,0.4-4.5,1.2c-0.7,0.5-1.1,1.2-1.1,2c0,0.8,0.3,1.4,1,2
		c0.8,0.7,2.9,1.4,6.1,2.2s5.6,1.6,7.2,2.4c1.5,0.8,2.8,1.9,3.6,3.3c0.9,1.4,1.3,3.2,1.3,5.2c0,1.9-0.5,3.7-1.6,5.3
		c-1,1.6-2.5,2.9-4.4,3.7c-1.9,0.8-4.3,1.2-7.2,1.2c-4.2,0-7.4-1-9.6-2.9C426.2,1189.8,424.8,1187,424.4,1183.3z"/>
	<path class="st7" d="M456.7,1167v-5.8h6.3v5.8H456.7z M456.7,1194v-23.9h6.3v23.9H456.7z"/>
	<path class="st7" d="M491.2,1194h-6.3v-12.2c0-2.6-0.1-4.2-0.4-5c-0.3-0.8-0.7-1.3-1.3-1.8s-1.3-0.6-2.2-0.6
		c-1.1,0-2.1,0.3-2.9,0.9c-0.9,0.6-1.5,1.4-1.8,2.4s-0.5,2.8-0.5,5.5v10.8h-6.3v-23.9h5.9v3.5c2.1-2.7,4.7-4,7.9-4
		c1.4,0,2.7,0.3,3.8,0.8c1.2,0.5,2,1.1,2.6,1.9s1,1.7,1.2,2.7s0.3,2.4,0.3,4.2V1194z"/>
	<path class="st7" d="M497,1195.6l7.2,0.9c0.1,0.8,0.4,1.4,0.8,1.7c0.6,0.4,1.5,0.7,2.8,0.7c1.6,0,2.9-0.2,3.7-0.7
		c0.6-0.3,1-0.9,1.3-1.6c0.2-0.5,0.3-1.5,0.3-2.9v-3.5c-1.9,2.6-4.3,3.9-7.1,3.9c-3.2,0-5.7-1.4-7.6-4.1c-1.5-2.1-2.2-4.8-2.2-8
		c0-4,1-7.1,2.9-9.2s4.3-3.2,7.2-3.2c2.9,0,5.4,1.3,7.3,3.9v-3.3h5.9v21.4c0,2.8-0.2,4.9-0.7,6.3c-0.5,1.4-1.1,2.5-2,3.3
		c-0.8,0.8-2,1.4-3.4,1.9s-3.2,0.7-5.3,0.7c-4,0-6.9-0.7-8.6-2.1c-1.7-1.4-2.5-3.1-2.5-5.3C497,1196.2,497,1195.9,497,1195.6z
		 M502.7,1181.6c0,2.5,0.5,4.4,1.5,5.6c1,1.2,2.2,1.8,3.6,1.8c1.5,0,2.8-0.6,3.9-1.8c1.1-1.2,1.6-3,1.6-5.4c0-2.5-0.5-4.3-1.5-5.5
		c-1-1.2-2.3-1.8-3.9-1.8c-1.5,0-2.8,0.6-3.7,1.8C503.1,1177.4,502.7,1179.2,502.7,1181.6z"/>
	<path class="st7" d="M525.7,1194v-32.9h6.3v32.9H525.7z"/>
	<path class="st7" d="M552.3,1186.5l6.3,1.1c-0.8,2.3-2.1,4.1-3.8,5.3c-1.7,1.2-3.9,1.8-6.5,1.8c-4.1,0-7.2-1.4-9.2-4.1
		c-1.6-2.2-2.4-4.9-2.4-8.2c0-4,1-7,3.1-9.3c2.1-2.2,4.7-3.4,7.8-3.4c3.5,0,6.3,1.2,8.4,3.5c2.1,2.3,3,5.9,2.9,10.8h-15.8
		c0,1.9,0.6,3.3,1.5,4.4c1,1,2.2,1.6,3.6,1.6c1,0,1.8-0.3,2.5-0.8S552,1187.7,552.3,1186.5z M552.7,1180.1c0-1.8-0.5-3.2-1.4-4.2
		c-0.9-1-2-1.4-3.3-1.4c-1.4,0-2.5,0.5-3.4,1.5s-1.3,2.4-1.3,4.1H552.7z"/>
</g>
<g class="st6">
	<path class="st7" d="M426.1,1249.2v-32.9h10.7c4,0,6.7,0.2,7.9,0.5c1.9,0.5,3.5,1.6,4.7,3.2c1.3,1.7,1.9,3.8,1.9,6.4
		c0,2-0.4,3.7-1.1,5.1c-0.7,1.4-1.7,2.5-2.8,3.2c-1.1,0.8-2.3,1.3-3.4,1.6c-1.6,0.3-3.9,0.5-6.9,0.5h-4.3v12.4H426.1z M432.7,1221.9
		v9.3h3.6c2.6,0,4.4-0.2,5.3-0.5c0.9-0.3,1.6-0.9,2.1-1.6s0.8-1.6,0.8-2.6c0-1.2-0.4-2.2-1.1-3c-0.7-0.8-1.6-1.3-2.7-1.5
		c-0.8-0.1-2.4-0.2-4.8-0.2H432.7z"/>
	<path class="st7" d="M462.8,1249.2h-6.3v-23.9h5.9v3.4c1-1.6,1.9-2.7,2.7-3.2s1.7-0.8,2.7-0.8c1.4,0,2.8,0.4,4.2,1.2l-2,5.5
		c-1.1-0.7-2.1-1-3-1c-0.9,0-1.6,0.2-2.2,0.7c-0.6,0.5-1.1,1.4-1.4,2.6s-0.5,3.9-0.5,8V1249.2z"/>
	<path class="st7" d="M473.2,1237c0-2.1,0.5-4.1,1.5-6.1s2.5-3.5,4.4-4.5s4-1.5,6.3-1.5c3.6,0,6.6,1.2,8.9,3.5
		c2.3,2.3,3.5,5.3,3.5,8.9c0,3.6-1.2,6.6-3.5,9c-2.3,2.4-5.3,3.6-8.8,3.6c-2.2,0-4.3-0.5-6.3-1.5s-3.5-2.4-4.5-4.3
		C473.7,1242.1,473.2,1239.7,473.2,1237z M479.6,1237.3c0,2.4,0.6,4.2,1.7,5.4s2.5,1.9,4.2,1.9c1.6,0,3-0.6,4.1-1.9s1.7-3.1,1.7-5.5
		c0-2.3-0.6-4.1-1.7-5.4s-2.5-1.9-4.1-1.9c-1.6,0-3,0.6-4.2,1.9S479.6,1235,479.6,1237.3z"/>
	<path class="st7" d="M509.3,1249.2l-9.6-23.9h6.6l4.5,12.2l1.3,4.1c0.3-1,0.6-1.7,0.7-2c0.2-0.7,0.4-1.3,0.7-2l4.5-12.2h6.5
		l-9.5,23.9H509.3z"/>
	<path class="st7" d="M528.3,1222.2v-5.8h6.3v5.8H528.3z M528.3,1249.2v-23.9h6.3v23.9H528.3z"/>
	<path class="st7" d="M563,1249.2h-5.9v-3.5c-1,1.4-2.1,2.4-3.4,3c-1.3,0.7-2.7,1-4,1c-2.7,0-5.1-1.1-7-3.3c-2-2.2-2.9-5.3-2.9-9.2
		c0-4,1-7.1,2.9-9.2c1.9-2.1,4.3-3.2,7.2-3.2c2.7,0,5,1.1,6.9,3.3v-11.9h6.3V1249.2z M546.1,1236.8c0,2.5,0.4,4.4,1.1,5.5
		c1,1.6,2.4,2.5,4.3,2.5c1.5,0,2.7-0.6,3.7-1.9c1-1.2,1.5-3.1,1.5-5.5c0-2.7-0.5-4.7-1.5-5.9c-1-1.2-2.3-1.8-3.8-1.8
		c-1.5,0-2.8,0.6-3.8,1.8C546.6,1232.7,546.1,1234.4,546.1,1236.8z"/>
	<path class="st7" d="M583,1241.7l6.3,1.1c-0.8,2.3-2.1,4.1-3.8,5.3c-1.7,1.2-3.9,1.8-6.5,1.8c-4.1,0-7.2-1.4-9.2-4.1
		c-1.6-2.2-2.4-4.9-2.4-8.2c0-4,1-7,3.1-9.3c2.1-2.2,4.7-3.4,7.8-3.4c3.5,0,6.3,1.2,8.4,3.5c2.1,2.3,3,5.9,2.9,10.8h-15.8
		c0,1.9,0.6,3.3,1.5,4.4c1,1,2.2,1.6,3.6,1.6c1,0,1.8-0.3,2.5-0.8S582.7,1242.9,583,1241.7z M583.4,1235.3c0-1.8-0.5-3.2-1.4-4.2
		c-0.9-1-2-1.4-3.3-1.4c-1.4,0-2.5,0.5-3.4,1.5s-1.3,2.4-1.3,4.1H583.4z"/>
	<path class="st7" d="M600.8,1249.2h-6.3v-23.9h5.9v3.4c1-1.6,1.9-2.7,2.7-3.2s1.7-0.8,2.7-0.8c1.4,0,2.8,0.4,4.2,1.2l-2,5.5
		c-1.1-0.7-2.1-1-3-1c-0.9,0-1.6,0.2-2.2,0.7c-0.6,0.5-1.1,1.4-1.4,2.6s-0.5,3.9-0.5,8V1249.2z"/>
</g>
<g class="st6">
	<path class="st7" d="M177.8,574.1l6.5-0.6c0.4,2.2,1.2,3.8,2.4,4.8s2.8,1.5,4.8,1.5c2.1,0,3.8-0.5,4.8-1.4c1.1-0.9,1.6-2,1.6-3.2
		c0-0.8-0.2-1.4-0.7-2c-0.5-0.5-1.3-1-2.4-1.4c-0.8-0.3-2.6-0.7-5.3-1.4c-3.6-0.9-6.1-2-7.5-3.3c-2-1.8-3-4-3-6.6
		c0-1.7,0.5-3.2,1.4-4.7c1-1.5,2.3-2.6,4.1-3.3c1.8-0.8,3.9-1.1,6.5-1.1c4.1,0,7.2,0.9,9.3,2.7s3.2,4.2,3.3,7.3l-6.6,0.3
		c-0.3-1.7-0.9-2.9-1.8-3.7c-0.9-0.7-2.3-1.1-4.2-1.1c-1.9,0-3.4,0.4-4.5,1.2c-0.7,0.5-1.1,1.2-1.1,2c0,0.8,0.3,1.4,1,2
		c0.8,0.7,2.9,1.4,6.1,2.2s5.6,1.6,7.2,2.4c1.5,0.8,2.8,1.9,3.6,3.3c0.9,1.4,1.3,3.2,1.3,5.2c0,1.9-0.5,3.7-1.6,5.3
		c-1,1.6-2.5,2.9-4.4,3.7c-1.9,0.8-4.3,1.2-7.2,1.2c-4.2,0-7.4-1-9.6-2.9C179.6,580.6,178.3,577.8,177.8,574.1z"/>
	<path class="st7" d="M210.1,557.7v-5.8h6.3v5.8H210.1z M210.1,584.8V561h6.3v23.9H210.1z"/>
	<path class="st7" d="M244.6,584.8h-6.3v-12.2c0-2.6-0.1-4.2-0.4-5c-0.3-0.8-0.7-1.3-1.3-1.8s-1.3-0.6-2.2-0.6
		c-1.1,0-2.1,0.3-2.9,0.9c-0.9,0.6-1.5,1.4-1.8,2.4c-0.3,1-0.5,2.8-0.5,5.5v10.8h-6.3V561h5.9v3.5c2.1-2.7,4.7-4,7.9-4
		c1.4,0,2.7,0.3,3.8,0.8c1.2,0.5,2,1.1,2.6,1.9c0.6,0.8,1,1.7,1.2,2.7c0.2,1,0.3,2.4,0.3,4.2V584.8z"/>
	<path class="st7" d="M250.4,586.4l7.2,0.9c0.1,0.8,0.4,1.4,0.8,1.7c0.6,0.4,1.5,0.7,2.8,0.7c1.6,0,2.9-0.2,3.7-0.7
		c0.6-0.3,1-0.9,1.3-1.6c0.2-0.5,0.3-1.5,0.3-2.9V581c-1.9,2.6-4.3,3.9-7.1,3.9c-3.2,0-5.7-1.4-7.6-4.1c-1.5-2.1-2.2-4.8-2.2-8
		c0-4,1-7.1,2.9-9.2c1.9-2.1,4.3-3.2,7.2-3.2c2.9,0,5.4,1.3,7.3,3.9V561h5.9v21.4c0,2.8-0.2,4.9-0.7,6.3c-0.5,1.4-1.1,2.5-2,3.3
		c-0.8,0.8-2,1.4-3.4,1.9c-1.4,0.4-3.2,0.7-5.3,0.7c-4,0-6.9-0.7-8.6-2.1c-1.7-1.4-2.5-3.1-2.5-5.3
		C250.4,586.9,250.4,586.7,250.4,586.4z M256.1,572.4c0,2.5,0.5,4.4,1.5,5.6c1,1.2,2.2,1.8,3.6,1.8c1.5,0,2.8-0.6,3.9-1.8
		c1.1-1.2,1.6-3,1.6-5.4c0-2.5-0.5-4.3-1.5-5.5c-1-1.2-2.3-1.8-3.9-1.8c-1.5,0-2.8,0.6-3.7,1.8C256.6,568.2,256.1,570,256.1,572.4z"
		/>
	<path class="st7" d="M279.1,584.8v-32.9h6.3v32.9H279.1z"/>
	<path class="st7" d="M305.7,577.2l6.3,1.1c-0.8,2.3-2.1,4.1-3.8,5.3c-1.7,1.2-3.9,1.8-6.5,1.8c-4.1,0-7.2-1.4-9.2-4.1
		c-1.6-2.2-2.4-4.9-2.4-8.2c0-4,1-7,3.1-9.3c2.1-2.2,4.7-3.4,7.8-3.4c3.5,0,6.3,1.2,8.4,3.5c2.1,2.3,3,5.9,2.9,10.8h-15.8
		c0,1.9,0.6,3.3,1.5,4.4c1,1,2.2,1.6,3.6,1.6c1,0,1.8-0.3,2.5-0.8S305.4,578.4,305.7,577.2z M306.1,570.8c0-1.8-0.5-3.2-1.4-4.2
		c-0.9-1-2-1.4-3.3-1.4c-1.4,0-2.5,0.5-3.4,1.5s-1.3,2.4-1.3,4.1H306.1z"/>
</g>
<g class="st6">
	<path class="st7" d="M179.7,640v-32.7h6.6v27.1h16.5v5.5H179.7z"/>
	<path class="st7" d="M206.1,627.8c0-2.1,0.5-4.1,1.5-6.1s2.5-3.5,4.4-4.5c1.9-1,4-1.5,6.3-1.5c3.6,0,6.6,1.2,8.9,3.5
		c2.3,2.3,3.5,5.3,3.5,8.9c0,3.6-1.2,6.6-3.5,9c-2.3,2.4-5.3,3.6-8.8,3.6c-2.2,0-4.3-0.5-6.3-1.5c-2-1-3.5-2.4-4.5-4.3
		C206.6,632.8,206.1,630.5,206.1,627.8z M212.6,628.1c0,2.4,0.6,4.2,1.7,5.4s2.5,1.9,4.2,1.9c1.6,0,3-0.6,4.1-1.9
		c1.1-1.3,1.7-3.1,1.7-5.5c0-2.3-0.6-4.1-1.7-5.4c-1.1-1.3-2.5-1.9-4.1-1.9c-1.6,0-3,0.6-4.2,1.9S212.6,625.7,212.6,628.1z"/>
	<path class="st7" d="M256.5,623.2l-6.2,1.1c-0.2-1.2-0.7-2.2-1.4-2.8s-1.7-0.9-2.9-0.9c-1.6,0-2.8,0.5-3.8,1.6
		c-0.9,1.1-1.4,2.9-1.4,5.4c0,2.8,0.5,4.8,1.4,6c1,1.2,2.2,1.8,3.8,1.8c1.2,0,2.2-0.3,2.9-1c0.8-0.7,1.3-1.9,1.6-3.5l6.2,1.1
		c-0.6,2.8-1.9,5-3.7,6.4c-1.8,1.5-4.3,2.2-7.3,2.2c-3.5,0-6.3-1.1-8.3-3.3c-2.1-2.2-3.1-5.2-3.1-9.1c0-3.9,1-7,3.1-9.2
		c2.1-2.2,4.9-3.3,8.4-3.3c2.9,0,5.2,0.6,6.9,1.9C254.5,618.8,255.7,620.7,256.5,623.2z"/>
	<path class="st7" d="M266,623.4l-5.7-1c0.6-2.3,1.8-4,3.3-5.1s3.9-1.7,7-1.7c2.8,0,4.9,0.3,6.3,1c1.4,0.7,2.3,1.5,2.9,2.5
		c0.6,1,0.8,2.9,0.8,5.6l-0.1,7.4c0,2.1,0.1,3.6,0.3,4.6c0.2,1,0.6,2.1,1.1,3.2h-6.2c-0.2-0.4-0.4-1-0.6-1.9
		c-0.1-0.4-0.2-0.6-0.2-0.7c-1.1,1-2.2,1.8-3.5,2.4c-1.2,0.5-2.5,0.8-3.9,0.8c-2.5,0-4.4-0.7-5.8-2s-2.1-3-2.1-5.1
		c0-1.3,0.3-2.5,1-3.6c0.6-1.1,1.5-1.9,2.7-2.4c1.2-0.6,2.8-1.1,5-1.5c2.9-0.6,5-1.1,6.1-1.5v-0.6c0-1.2-0.3-2.1-0.9-2.6
		c-0.6-0.5-1.7-0.8-3.4-0.8c-1.1,0-2,0.2-2.6,0.7C266.9,621.6,266.3,622.3,266,623.4z M274.4,628.6c-0.8,0.3-2.1,0.6-3.8,1
		s-2.9,0.7-3.4,1.1c-0.8,0.6-1.2,1.3-1.2,2.2c0,0.9,0.3,1.6,1,2.3c0.7,0.6,1.5,1,2.5,1c1.1,0,2.2-0.4,3.3-1.1
		c0.8-0.6,1.3-1.3,1.5-2.1c0.2-0.5,0.2-1.6,0.2-3.1V628.6z"/>
	<path class="st7" d="M297.8,616.2v5h-4.3v9.6c0,1.9,0,3.1,0.1,3.4c0.1,0.3,0.3,0.6,0.6,0.8s0.6,0.3,1.1,0.3c0.6,0,1.4-0.2,2.5-0.6
		l0.5,4.9c-1.5,0.6-3.1,0.9-5,0.9c-1.1,0-2.2-0.2-3.1-0.6c-0.9-0.4-1.6-0.9-2-1.5c-0.4-0.6-0.7-1.4-0.9-2.5
		c-0.1-0.7-0.2-2.2-0.2-4.4v-10.4h-2.9v-5h2.9v-4.7l6.3-3.7v8.4H297.8z"/>
	<path class="st7" d="M302.1,612.9v-5.8h6.3v5.8H302.1z M302.1,640v-23.9h6.3V640H302.1z"/>
	<path class="st7" d="M313.5,627.8c0-2.1,0.5-4.1,1.5-6.1s2.5-3.5,4.4-4.5c1.9-1,4-1.5,6.3-1.5c3.6,0,6.6,1.2,8.9,3.5
		c2.3,2.3,3.5,5.3,3.5,8.9c0,3.6-1.2,6.6-3.5,9c-2.3,2.4-5.3,3.6-8.8,3.6c-2.2,0-4.3-0.5-6.3-1.5c-2-1-3.5-2.4-4.5-4.3
		C314,632.8,313.5,630.5,313.5,627.8z M319.9,628.1c0,2.4,0.6,4.2,1.7,5.4s2.5,1.9,4.2,1.9c1.6,0,3-0.6,4.1-1.9
		c1.1-1.3,1.7-3.1,1.7-5.5c0-2.3-0.6-4.1-1.7-5.4c-1.1-1.3-2.5-1.9-4.1-1.9c-1.6,0-3,0.6-4.2,1.9S319.9,625.7,319.9,628.1z"/>
	<path class="st7" d="M364.7,640h-6.3v-12.2c0-2.6-0.1-4.2-0.4-5c-0.3-0.8-0.7-1.3-1.3-1.8s-1.3-0.6-2.2-0.6c-1.1,0-2.1,0.3-2.9,0.9
		c-0.9,0.6-1.5,1.4-1.8,2.4c-0.3,1-0.5,2.8-0.5,5.5V640H343v-23.9h5.9v3.5c2.1-2.7,4.7-4,7.9-4c1.4,0,2.7,0.3,3.8,0.8
		c1.2,0.5,2,1.1,2.6,1.9c0.6,0.8,1,1.7,1.2,2.7c0.2,1,0.3,2.4,0.3,4.2V640z"/>
</g>
<g class="st6">
	<path class="st7" d="M100.9,938.1v-32.9h6.6v13h13v-13h6.6v32.9h-6.6v-14.4h-13v14.4H100.9z"/>
	<path class="st7" d="M132.6,925.8c0-2.1,0.5-4.1,1.5-6.1s2.5-3.5,4.4-4.5c1.9-1,4-1.5,6.3-1.5c3.6,0,6.6,1.2,8.9,3.5
		c2.3,2.3,3.5,5.3,3.5,8.9c0,3.6-1.2,6.6-3.5,9c-2.3,2.4-5.3,3.6-8.8,3.6c-2.2,0-4.3-0.5-6.3-1.5c-2-1-3.5-2.4-4.5-4.3
		C133.1,930.9,132.6,928.5,132.6,925.8z M139.1,926.1c0,2.4,0.6,4.2,1.7,5.4s2.5,1.9,4.2,1.9c1.6,0,3-0.6,4.1-1.9
		c1.1-1.3,1.7-3.1,1.7-5.5c0-2.3-0.6-4.1-1.7-5.4c-1.1-1.3-2.5-1.9-4.1-1.9c-1.6,0-3,0.6-4.2,1.9S139.1,923.8,139.1,926.1z"/>
	<path class="st7" d="M161.7,914.2h5.8v3.3c2.1-2.5,4.6-3.8,7.4-3.8c1.5,0,2.9,0.3,4,0.9s2,1.6,2.8,2.9c1-1.3,2.2-2.2,3.4-2.9
		s2.5-0.9,3.9-0.9c1.8,0,3.2,0.4,4.4,1.1c1.2,0.7,2.1,1.8,2.7,3.1c0.4,1,0.7,2.7,0.7,4.9v15.3h-6.3v-13.6c0-2.4-0.2-3.9-0.7-4.6
		c-0.6-0.9-1.5-1.3-2.7-1.3c-0.9,0-1.7,0.3-2.5,0.8c-0.8,0.5-1.3,1.3-1.7,2.4c-0.3,1-0.5,2.7-0.5,4.9v11.5h-6.3V925
		c0-2.3-0.1-3.8-0.3-4.5s-0.6-1.2-1-1.5s-1.1-0.5-1.9-0.5c-1,0-1.8,0.3-2.6,0.8c-0.8,0.5-1.3,1.3-1.7,2.3s-0.5,2.6-0.5,4.9v11.6
		h-6.3V914.2z"/>
	<path class="st7" d="M216.9,930.5l6.3,1.1c-0.8,2.3-2.1,4.1-3.8,5.3c-1.7,1.2-3.9,1.8-6.5,1.8c-4.1,0-7.2-1.4-9.2-4.1
		c-1.6-2.2-2.4-4.9-2.4-8.2c0-4,1-7,3.1-9.3c2.1-2.2,4.7-3.4,7.8-3.4c3.5,0,6.3,1.2,8.4,3.5c2.1,2.3,3,5.9,2.9,10.8h-15.8
		c0,1.9,0.6,3.3,1.5,4.4c1,1,2.2,1.6,3.6,1.6c1,0,1.8-0.3,2.5-0.8S216.6,931.7,216.9,930.5z M217.3,924.1c0-1.8-0.5-3.2-1.4-4.2
		c-0.9-1-2-1.4-3.3-1.4c-1.4,0-2.5,0.5-3.4,1.5s-1.3,2.4-1.3,4.1H217.3z"/>
</g>
<g class="st6">
	<path class="st7" d="M771.1,765.8v-17.3H736v-14.4l37.3-54.6h13.8v54.5h10.7v14.5h-10.7v17.3H771.1z M771.1,734.1v-29.4l-19.7,29.4
		H771.1z"/>
	<path class="st7" d="M861.2,750.5v15.3h-57.7c0.6-5.8,2.5-11.3,5.6-16.4c3.1-5.2,9.3-12,18.5-20.6c7.4-6.9,12-11.6,13.7-14.1
		c2.3-3.4,3.4-6.8,3.4-10.1c0-3.7-1-6.5-3-8.5c-2-2-4.7-3-8.2-3c-3.4,0-6.2,1-8.2,3.1c-2,2.1-3.2,5.5-3.5,10.3l-16.4-1.6
		c1-9.1,4-15.6,9.2-19.5c5.2-3.9,11.6-5.9,19.3-5.9c8.5,0,15.1,2.3,20,6.9c4.8,4.6,7.3,10.3,7.3,17.1c0,3.9-0.7,7.5-2.1,11
		c-1.4,3.5-3.6,7.2-6.6,11c-2,2.5-5.6,6.2-10.8,11c-5.2,4.8-8.5,7.9-9.9,9.5c-1.4,1.6-2.5,3.1-3.4,4.6H861.2z"/>
	<path class="st7" d="M872.4,701.1c0-7.7,1.7-13.4,5.1-17.1c3.4-3.7,8-5.6,13.7-5.6c6,0,10.7,1.8,14,5.5c3.4,3.7,5.1,9.4,5.1,17.1
		c0,7.7-1.7,13.4-5.1,17.1c-3.4,3.7-8,5.6-13.7,5.6c-6,0-10.7-1.8-14-5.5C874.1,714.6,872.4,708.9,872.4,701.1z M885.3,701
		c0,5.6,0.6,9.3,1.9,11.2c1,1.4,2.3,2.1,4,2.1c1.8,0,3.1-0.7,4.1-2.1c1.2-1.9,1.9-5.7,1.9-11.2c0-5.6-0.6-9.3-1.9-11.2
		c-1-1.4-2.3-2.2-4.1-2.2c-1.7,0-3.1,0.7-4,2.1C885.9,691.7,885.3,695.4,885.3,701z M903.8,769.1h-12.2l45.8-90.6h11.8L903.8,769.1z
		 M930.4,746.5c0-7.7,1.7-13.4,5.1-17.1c3.4-3.7,8-5.6,13.9-5.6c5.9,0,10.5,1.9,13.9,5.6c3.4,3.7,5.1,9.4,5.1,17.1
		c0,7.7-1.7,13.5-5.1,17.2c-3.4,3.7-8,5.6-13.7,5.6c-6,0-10.7-1.9-14-5.6C932.1,760,930.4,754.3,930.4,746.5z M943.2,746.5
		c0,5.6,0.6,9.3,1.9,11.2c1,1.4,2.3,2.2,4,2.2c1.8,0,3.1-0.7,4-2.1c1.3-1.9,1.9-5.7,1.9-11.2c0-5.6-0.6-9.3-1.9-11.2
		c-1-1.4-2.3-2.1-4.1-2.1s-3.1,0.7-4,2.1C943.9,737.1,943.2,740.9,943.2,746.5z"/>
</g>
<g class="st6">
	<path class="st7" d="M478.4,1106.8v14h-52.9c0.6-5.3,2.3-10.3,5.2-15.1c2.9-4.7,8.5-11,17-18.9c6.8-6.3,11-10.6,12.5-12.9
		c2.1-3.1,3.1-6.2,3.1-9.2c0-3.4-0.9-6-2.7-7.8c-1.8-1.8-4.3-2.7-7.5-2.7c-3.2,0-5.7,0.9-7.5,2.8c-1.9,1.9-2.9,5-3.2,9.5l-15-1.5
		c0.9-8.3,3.7-14.3,8.4-17.9c4.7-3.6,10.6-5.4,17.7-5.4c7.8,0,13.9,2.1,18.3,6.3c4.4,4.2,6.7,9.4,6.7,15.6c0,3.5-0.6,6.9-1.9,10.1
		c-1.3,3.2-3.3,6.6-6,10.1c-1.8,2.3-5.1,5.7-9.9,10c-4.8,4.4-7.8,7.3-9.1,8.7c-1.3,1.4-2.3,2.8-3.1,4.2H478.4z"/>
	<path class="st7" d="M527.2,1120.8h-15.1v-56.9c-5.5,5.2-12,9-19.5,11.4v-13.7c3.9-1.3,8.2-3.7,12.8-7.3c4.6-3.6,7.8-7.8,9.5-12.6
		h12.2V1120.8z"/>
	<path class="st7" d="M549.9,1061.5c0-7.1,1.5-12.3,4.6-15.7c3.1-3.4,7.3-5.1,12.6-5.1c5.5,0,9.8,1.7,12.9,5.1
		c3.1,3.4,4.6,8.6,4.6,15.7c0,7.1-1.5,12.3-4.6,15.7c-3.1,3.4-7.3,5.1-12.6,5.1c-5.5,0-9.8-1.7-12.9-5.1
		C551.4,1073.8,549.9,1068.6,549.9,1061.5z M561.6,1061.4c0,5.1,0.6,8.6,1.8,10.3c0.9,1.3,2.1,1.9,3.7,1.9c1.6,0,2.9-0.6,3.8-1.9
		c1.1-1.8,1.7-5.2,1.7-10.3c0-5.1-0.6-8.5-1.7-10.3c-0.9-1.3-2.1-2-3.8-2c-1.6,0-2.8,0.6-3.7,1.9
		C562.2,1052.9,561.6,1056.3,561.6,1061.4z M578.6,1123.8h-11.2l41.9-83.1h10.8L578.6,1123.8z M603,1103.1c0-7.1,1.5-12.3,4.6-15.7
		c3.1-3.4,7.3-5.1,12.7-5.1c5.4,0,9.7,1.7,12.8,5.1c3.1,3.4,4.6,8.6,4.6,15.7c0,7.1-1.5,12.3-4.6,15.7c-3.1,3.4-7.3,5.1-12.6,5.1
		c-5.5,0-9.8-1.7-12.9-5.1C604.5,1115.5,603,1110.2,603,1103.1z M614.8,1103.1c0,5.1,0.6,8.5,1.8,10.3c0.9,1.3,2.1,2,3.7,2
		c1.6,0,2.8-0.6,3.7-1.9c1.2-1.8,1.8-5.2,1.8-10.3c0-5.1-0.6-8.6-1.7-10.3c-0.9-1.3-2.1-1.9-3.8-1.9s-2.8,0.6-3.7,1.9
		C615.3,1094.5,614.8,1098,614.8,1103.1z"/>
</g>
<g class="st6">
	<path class="st7" d="M130,876.8h-15.1v-56.9c-5.5,5.2-12,9-19.5,11.4v-13.7c3.9-1.3,8.2-3.7,12.8-7.3c4.6-3.6,7.8-7.8,9.5-12.6H130
		V876.8z"/>
	<path class="st7" d="M152.6,813.2v-14h51.6v11c-4.3,4.2-8.6,10.2-13,18s-7.8,16.2-10.1,25c-2.3,8.8-3.4,16.7-3.4,23.7h-14.6
		c0.2-10.9,2.5-22,6.7-33.3c4.2-11.3,9.9-21.4,17-30.3H152.6z"/>
	<path class="st7" d="M213.9,817.5c0-7.1,1.5-12.3,4.6-15.7c3.1-3.4,7.3-5.1,12.6-5.1c5.5,0,9.8,1.7,12.9,5.1
		c3.1,3.4,4.6,8.6,4.6,15.7c0,7.1-1.5,12.3-4.6,15.7c-3.1,3.4-7.3,5.1-12.6,5.1c-5.5,0-9.8-1.7-12.9-5.1
		C215.4,829.8,213.9,824.6,213.9,817.5z M225.6,817.4c0,5.1,0.6,8.6,1.8,10.3c0.9,1.3,2.1,1.9,3.7,1.9c1.6,0,2.9-0.6,3.8-1.9
		c1.1-1.8,1.7-5.2,1.7-10.3c0-5.1-0.6-8.5-1.7-10.3c-0.9-1.3-2.1-2-3.8-2c-1.6,0-2.8,0.6-3.7,1.9
		C226.2,808.9,225.6,812.3,225.6,817.4z M242.6,879.8h-11.2l41.9-83.1h10.8L242.6,879.8z M267,859.1c0-7.1,1.5-12.3,4.6-15.7
		c3.1-3.4,7.3-5.1,12.7-5.1c5.4,0,9.7,1.7,12.8,5.1c3.1,3.4,4.6,8.6,4.6,15.7c0,7.1-1.5,12.3-4.6,15.7c-3.1,3.4-7.3,5.1-12.6,5.1
		c-5.5,0-9.8-1.7-12.9-5.1C268.5,871.5,267,866.2,267,859.1z M278.8,859.1c0,5.1,0.6,8.5,1.8,10.3c0.9,1.3,2.1,2,3.7,2
		c1.6,0,2.8-0.6,3.7-1.9c1.2-1.8,1.8-5.2,1.8-10.3c0-5.1-0.6-8.6-1.7-10.3c-0.9-1.3-2.1-1.9-3.8-1.9s-2.8,0.6-3.7,1.9
		C279.3,850.5,278.8,854,278.8,859.1z"/>
</g>
<g class="st6">
	<path class="st7" d="M224.1,515.5H209v-56.9c-5.5,5.2-12,9-19.5,11.4v-13.7c3.9-1.3,8.2-3.7,12.8-7.3c4.6-3.6,7.8-7.8,9.5-12.6
		h12.2V515.5z"/>
	<path class="st7" d="M246.8,495.3l15-1.6c0.4,3.4,1.7,6.1,3.8,8.1c2.1,2,4.5,3,7.3,3c3.2,0,5.8-1.3,8-3.8c2.2-2.6,3.3-6.4,3.3-11.6
		c0-4.8-1.1-8.5-3.2-10.9c-2.2-2.4-5-3.6-8.5-3.6c-4.3,0-8.2,1.9-11.7,5.7l-12.2-1.8l7.7-41h39.9V452h-28.5l-2.4,13.4
		c3.4-1.7,6.8-2.5,10.3-2.5c6.7,0,12.4,2.4,17,7.3c4.7,4.9,7,11.2,7,19c0,6.5-1.9,12.3-5.6,17.3c-5.1,6.9-12.2,10.4-21.3,10.4
		c-7.3,0-13.2-2-17.8-5.9C250.5,507.1,247.7,501.8,246.8,495.3z"/>
	<path class="st7" d="M307.9,456.2c0-7.1,1.5-12.3,4.6-15.7c3.1-3.4,7.3-5.1,12.6-5.1c5.5,0,9.8,1.7,12.9,5.1
		c3.1,3.4,4.6,8.6,4.6,15.7c0,7.1-1.5,12.3-4.6,15.7c-3.1,3.4-7.3,5.1-12.6,5.1c-5.5,0-9.8-1.7-12.9-5.1
		C309.4,468.5,307.9,463.3,307.9,456.2z M319.7,456.1c0,5.1,0.6,8.6,1.8,10.3c0.9,1.3,2.1,1.9,3.7,1.9c1.6,0,2.9-0.6,3.8-1.9
		c1.1-1.8,1.7-5.2,1.7-10.3c0-5.1-0.6-8.5-1.7-10.3c-0.9-1.3-2.1-2-3.8-2c-1.6,0-2.8,0.6-3.7,1.9C320.2,447.5,319.7,451,319.7,456.1
		z M336.6,518.5h-11.2l41.9-83.1h10.8L336.6,518.5z M361,497.8c0-7.1,1.5-12.3,4.6-15.7c3.1-3.4,7.3-5.1,12.7-5.1
		c5.4,0,9.7,1.7,12.8,5.1c3.1,3.4,4.6,8.6,4.6,15.7c0,7.1-1.5,12.3-4.6,15.7c-3.1,3.4-7.3,5.1-12.6,5.1c-5.5,0-9.8-1.7-12.9-5.1
		C362.6,510.2,361,504.9,361,497.8z M372.8,497.8c0,5.1,0.6,8.5,1.8,10.3c0.9,1.3,2.1,2,3.7,2c1.6,0,2.8-0.6,3.7-1.9
		c1.2-1.8,1.8-5.2,1.8-10.3c0-5.1-0.6-8.6-1.7-10.3c-0.9-1.3-2.1-1.9-3.8-1.9s-2.8,0.6-3.7,1.9C373.4,489.2,372.8,492.7,372.8,497.8
		z"/>
</g>
<g class="st6">
	<path class="st4" d="M247.4,240.3c0-3.4,0.5-6.2,1.5-8.4c0.7-1.7,1.8-3.2,3.1-4.5c1.3-1.3,2.7-2.3,4.3-3c2.1-0.9,4.4-1.3,7.1-1.3
		c4.9,0,8.7,1.5,11.6,4.5c2.9,3,4.4,7.2,4.4,12.6c0,5.3-1.4,9.5-4.3,12.5c-2.9,3-6.8,4.5-11.6,4.5c-4.9,0-8.8-1.5-11.7-4.5
		C248.9,249.7,247.4,245.5,247.4,240.3z M254.3,240.1c0,3.7,0.9,6.6,2.6,8.5c1.7,1.9,3.9,2.9,6.6,2.9s4.8-1,6.5-2.9
		c1.7-1.9,2.5-4.8,2.5-8.6c0-3.8-0.8-6.6-2.5-8.4c-1.7-1.9-3.9-2.8-6.6-2.8s-4.9,0.9-6.6,2.8C255.1,233.5,254.3,236.3,254.3,240.1z"
		/>
	<path class="st4" d="M295.4,232.7v5h-4.3v9.6c0,1.9,0,3.1,0.1,3.4c0.1,0.3,0.3,0.6,0.6,0.8s0.6,0.3,1.1,0.3c0.6,0,1.4-0.2,2.5-0.6
		l0.5,4.9c-1.5,0.6-3.1,0.9-5,0.9c-1.1,0-2.2-0.2-3.1-0.6c-0.9-0.4-1.6-0.9-2-1.5c-0.4-0.6-0.7-1.4-0.9-2.5
		c-0.1-0.7-0.2-2.2-0.2-4.4v-10.4h-2.9v-5h2.9V228l6.3-3.7v8.4H295.4z"/>
	<path class="st4" d="M306.1,223.6v12.1c2-2.4,4.5-3.6,7.3-3.6c1.5,0,2.8,0.3,3.9,0.8s2,1.2,2.6,2.1c0.6,0.8,1,1.8,1.2,2.8
		c0.2,1,0.3,2.6,0.3,4.7v14h-6.3V244c0-2.5-0.1-4.1-0.4-4.8c-0.2-0.7-0.7-1.2-1.3-1.6c-0.6-0.4-1.4-0.6-2.3-0.6c-1,0-2,0.3-2.8,0.8
		c-0.8,0.5-1.4,1.3-1.8,2.3c-0.4,1-0.6,2.5-0.6,4.5v11.9h-6.3v-32.9H306.1z"/>
	<path class="st4" d="M341.7,249l6.3,1.1c-0.8,2.3-2.1,4.1-3.8,5.3c-1.7,1.2-3.9,1.8-6.5,1.8c-4.1,0-7.2-1.4-9.2-4.1
		c-1.6-2.2-2.4-4.9-2.4-8.2c0-4,1-7,3.1-9.3c2.1-2.2,4.7-3.4,7.8-3.4c3.5,0,6.3,1.2,8.4,3.5c2.1,2.3,3,5.9,2.9,10.8h-15.8
		c0,1.9,0.6,3.3,1.5,4.4c1,1,2.2,1.6,3.6,1.6c1,0,1.8-0.3,2.5-0.8S341.4,250.2,341.7,249z M342.1,242.6c0-1.8-0.5-3.2-1.4-4.2
		c-0.9-1-2-1.4-3.3-1.4c-1.4,0-2.5,0.5-3.4,1.5s-1.3,2.4-1.3,4.1H342.1z"/>
	<path class="st4" d="M359.5,256.6h-6.3v-23.9h5.9v3.4c1-1.6,1.9-2.7,2.7-3.2c0.8-0.5,1.7-0.8,2.7-0.8c1.4,0,2.8,0.4,4.2,1.2l-2,5.5
		c-1.1-0.7-2.1-1-3-1c-0.9,0-1.6,0.2-2.2,0.7c-0.6,0.5-1.1,1.4-1.4,2.6c-0.4,1.3-0.5,3.9-0.5,8V256.6z"/>
</g>
<g class="st6">
	<path class="st4" d="M275.6,197v-15.8h-32.2v-13.2l34.2-50h12.7v50h9.8v13.3h-9.8V197H275.6z M275.6,167.9V141l-18.1,26.9H275.6z"
		/>
	<path class="st4" d="M307.3,137.7c0-7.1,1.5-12.3,4.6-15.7c3.1-3.4,7.3-5.1,12.6-5.1c5.5,0,9.8,1.7,12.9,5.1
		c3.1,3.4,4.6,8.6,4.6,15.7c0,7.1-1.5,12.3-4.6,15.7c-3.1,3.4-7.3,5.1-12.6,5.1c-5.5,0-9.8-1.7-12.9-5.1
		C308.9,150,307.3,144.8,307.3,137.7z M319.1,137.6c0,5.1,0.6,8.6,1.8,10.3c0.9,1.3,2.1,1.9,3.7,1.9c1.6,0,2.9-0.6,3.8-1.9
		c1.1-1.8,1.7-5.2,1.7-10.3c0-5.1-0.6-8.5-1.7-10.3c-0.9-1.3-2.1-2-3.8-2c-1.6,0-2.8,0.6-3.7,1.9C319.7,129,319.1,132.5,319.1,137.6
		z M336.1,200h-11.2l41.9-83.1h10.8L336.1,200z M360.4,179.3c0-7.1,1.5-12.3,4.6-15.7c3.1-3.4,7.3-5.1,12.7-5.1
		c5.4,0,9.7,1.7,12.8,5.1c3.1,3.4,4.6,8.6,4.6,15.7c0,7.1-1.5,12.3-4.6,15.7c-3.1,3.4-7.3,5.1-12.6,5.1c-5.5,0-9.8-1.7-12.9-5.1
		C362,191.7,360.4,186.4,360.4,179.3z M372.2,179.3c0,5.1,0.6,8.5,1.8,10.3c0.9,1.3,2.1,2,3.7,2c1.6,0,2.8-0.6,3.7-1.9
		c1.2-1.8,1.8-5.2,1.8-10.3c0-5.1-0.6-8.6-1.7-10.3c-0.9-1.3-2.1-1.9-3.8-1.9s-2.8,0.6-3.7,1.9C372.8,170.7,372.2,174.1,372.2,179.3
		z"/>
</g>
<g class="st6">
	<path class="st4" d="M484.3,142.4l6.5-0.6c0.4,2.2,1.2,3.8,2.4,4.8s2.8,1.5,4.8,1.5c2.1,0,3.8-0.5,4.8-1.4c1.1-0.9,1.6-2,1.6-3.2
		c0-0.8-0.2-1.4-0.7-2c-0.5-0.5-1.3-1-2.4-1.4c-0.8-0.3-2.6-0.7-5.3-1.4c-3.6-0.9-6.1-2-7.5-3.3c-2-1.8-3-4-3-6.6
		c0-1.7,0.5-3.2,1.4-4.7c1-1.5,2.3-2.6,4.1-3.3c1.8-0.8,3.9-1.1,6.5-1.1c4.1,0,7.2,0.9,9.3,2.7s3.2,4.2,3.3,7.3l-6.6,0.3
		c-0.3-1.7-0.9-2.9-1.8-3.7c-0.9-0.7-2.3-1.1-4.2-1.1c-1.9,0-3.4,0.4-4.5,1.2c-0.7,0.5-1.1,1.2-1.1,2c0,0.8,0.3,1.4,1,2
		c0.8,0.7,2.9,1.4,6.1,2.2s5.6,1.6,7.2,2.4c1.5,0.8,2.8,1.9,3.6,3.3c0.9,1.4,1.3,3.2,1.3,5.2c0,1.9-0.5,3.7-1.6,5.3
		c-1,1.6-2.5,2.9-4.4,3.7c-1.9,0.8-4.3,1.2-7.2,1.2c-4.2,0-7.4-1-9.6-2.9C486,148.9,484.7,146.1,484.3,142.4z"/>
	<path class="st4" d="M516.6,126.1v-5.8h6.3v5.8H516.6z M516.6,153.1v-23.9h6.3v23.9H516.6z"/>
	<path class="st4" d="M551.1,153.1h-6.3V141c0-2.6-0.1-4.2-0.4-5c-0.3-0.8-0.7-1.3-1.3-1.8s-1.3-0.6-2.2-0.6c-1.1,0-2.1,0.3-2.9,0.9
		c-0.9,0.6-1.5,1.4-1.8,2.4c-0.3,1-0.5,2.8-0.5,5.5v10.8h-6.3v-23.9h5.9v3.5c2.1-2.7,4.7-4,7.9-4c1.4,0,2.7,0.3,3.8,0.8
		c1.2,0.5,2,1.1,2.6,1.9c0.6,0.8,1,1.7,1.2,2.7c0.2,1,0.3,2.4,0.3,4.2V153.1z"/>
	<path class="st4" d="M556.9,154.7l7.2,0.9c0.1,0.8,0.4,1.4,0.8,1.7c0.6,0.4,1.5,0.7,2.8,0.7c1.6,0,2.9-0.2,3.7-0.7
		c0.6-0.3,1-0.9,1.3-1.6c0.2-0.5,0.3-1.5,0.3-2.9v-3.5c-1.9,2.6-4.3,3.9-7.1,3.9c-3.2,0-5.7-1.4-7.6-4.1c-1.5-2.1-2.2-4.8-2.2-8
		c0-4,1-7.1,2.9-9.2c1.9-2.1,4.3-3.2,7.2-3.2c2.9,0,5.4,1.3,7.3,3.9v-3.3h5.9v21.4c0,2.8-0.2,4.9-0.7,6.3c-0.5,1.4-1.1,2.5-2,3.3
		c-0.8,0.8-2,1.4-3.4,1.9s-3.2,0.7-5.3,0.7c-4,0-6.9-0.7-8.6-2.1c-1.7-1.4-2.5-3.1-2.5-5.3C556.9,155.3,556.9,155,556.9,154.7z
		 M562.5,140.7c0,2.5,0.5,4.4,1.5,5.6c1,1.2,2.2,1.8,3.6,1.8c1.5,0,2.8-0.6,3.9-1.8c1.1-1.2,1.6-3,1.6-5.4c0-2.5-0.5-4.3-1.5-5.5
		c-1-1.2-2.3-1.8-3.9-1.8c-1.5,0-2.8,0.6-3.7,1.8C563,136.5,562.5,138.3,562.5,140.7z"/>
	<path class="st4" d="M585.6,153.1v-32.9h6.3v32.9H585.6z"/>
	<path class="st4" d="M612.2,145.5l6.3,1.1c-0.8,2.3-2.1,4.1-3.8,5.3c-1.7,1.2-3.9,1.8-6.5,1.8c-4.1,0-7.2-1.4-9.2-4.1
		c-1.6-2.2-2.4-4.9-2.4-8.2c0-4,1-7,3.1-9.3c2.1-2.2,4.7-3.4,7.8-3.4c3.5,0,6.3,1.2,8.4,3.5c2.1,2.3,3,5.9,2.9,10.8H603
		c0,1.9,0.6,3.3,1.5,4.4c1,1,2.2,1.6,3.6,1.6c1,0,1.8-0.3,2.5-0.8S611.8,146.7,612.2,145.5z M612.5,139.2c0-1.8-0.5-3.2-1.4-4.2
		c-0.9-1-2-1.4-3.3-1.4c-1.4,0-2.5,0.5-3.4,1.5s-1.3,2.4-1.3,4.1H612.5z"/>
</g>
<g class="st6">
	<path class="st4" d="M485.9,175.4h12.2c2.7,0,4.8,0.2,6.3,0.6c1.9,0.6,3.6,1.6,5,3c1.4,1.5,2.4,3.2,3.1,5.3
		c0.7,2.1,1.1,4.7,1.1,7.8c0,2.7-0.3,5-1,7c-0.8,2.4-2,4.3-3.5,5.8c-1.2,1.1-2.7,2-4.7,2.6c-1.5,0.5-3.4,0.7-5.9,0.7h-12.5V175.4z
		 M492.6,181v21.8h5c1.9,0,3.2-0.1,4-0.3c1.1-0.3,2-0.7,2.7-1.4c0.7-0.6,1.3-1.7,1.7-3.2c0.4-1.5,0.7-3.5,0.7-6s-0.2-4.5-0.7-5.9
		s-1.1-2.4-1.9-3.2s-1.8-1.3-3.1-1.5c-0.9-0.2-2.7-0.3-5.5-0.3H492.6z"/>
	<path class="st4" d="M533.4,200.7l6.3,1.1c-0.8,2.3-2.1,4.1-3.8,5.3c-1.7,1.2-3.9,1.8-6.5,1.8c-4.1,0-7.2-1.4-9.2-4.1
		c-1.6-2.2-2.4-4.9-2.4-8.2c0-4,1-7,3.1-9.3c2.1-2.2,4.7-3.4,7.8-3.4c3.5,0,6.3,1.2,8.4,3.5c2.1,2.3,3,5.9,2.9,10.8h-15.8
		c0,1.9,0.6,3.3,1.5,4.4c1,1,2.2,1.6,3.6,1.6c1,0,1.8-0.3,2.5-0.8S533,201.9,533.4,200.7z M533.7,194.4c0-1.8-0.5-3.2-1.4-4.2
		c-0.9-1-2-1.4-3.3-1.4c-1.4,0-2.5,0.5-3.4,1.5s-1.3,2.4-1.3,4.1H533.7z"/>
	<path class="st4" d="M552.1,208.3l-9.6-23.9h6.6l4.5,12.2l1.3,4.1c0.3-1,0.6-1.7,0.7-2c0.2-0.7,0.4-1.3,0.7-2l4.5-12.2h6.5
		l-9.5,23.9H552.1z"/>
	<path class="st4" d="M571.5,181.3v-5.8h6.3v5.8H571.5z M571.5,208.3v-23.9h6.3v23.9H571.5z"/>
	<path class="st4" d="M605.5,191.5l-6.2,1.1c-0.2-1.2-0.7-2.2-1.4-2.8s-1.7-0.9-2.9-0.9c-1.6,0-2.8,0.5-3.8,1.6
		c-0.9,1.1-1.4,2.9-1.4,5.4c0,2.8,0.5,4.8,1.4,6c1,1.2,2.2,1.8,3.8,1.8c1.2,0,2.2-0.3,2.9-1c0.8-0.7,1.3-1.9,1.6-3.5l6.2,1.1
		c-0.6,2.8-1.9,5-3.7,6.4s-4.3,2.2-7.3,2.2c-3.5,0-6.3-1.1-8.3-3.3c-2.1-2.2-3.1-5.2-3.1-9.1c0-3.9,1-7,3.1-9.2
		c2.1-2.2,4.9-3.3,8.4-3.3c2.9,0,5.2,0.6,6.9,1.9C603.6,187.1,604.8,189,605.5,191.5z"/>
	<path class="st4" d="M624.6,200.7l6.3,1.1c-0.8,2.3-2.1,4.1-3.8,5.3c-1.7,1.2-3.9,1.8-6.5,1.8c-4.1,0-7.2-1.4-9.2-4.1
		c-1.6-2.2-2.4-4.9-2.4-8.2c0-4,1-7,3.1-9.3c2.1-2.2,4.7-3.4,7.8-3.4c3.5,0,6.3,1.2,8.4,3.5c2.1,2.3,3,5.9,2.9,10.8h-15.8
		c0,1.9,0.6,3.3,1.5,4.4c1,1,2.2,1.6,3.6,1.6c1,0,1.8-0.3,2.5-0.8S624.2,201.9,624.6,200.7z M624.9,194.4c0-1.8-0.5-3.2-1.4-4.2
		c-0.9-1-2-1.4-3.3-1.4c-1.4,0-2.5,0.5-3.4,1.5s-1.3,2.4-1.3,4.1H624.9z"/>
</g>
<g class="st6">
	<path class="st4" d="M538.5,89.8h-15.1V33c-5.5,5.2-12,9-19.5,11.4V30.7c3.9-1.3,8.2-3.7,12.8-7.3c4.6-3.6,7.8-7.8,9.5-12.6h12.2
		V89.8z"/>
	<path class="st4" d="M561.2,30.5c0-7.1,1.5-12.3,4.6-15.7c3.1-3.4,7.3-5.1,12.6-5.1c5.5,0,9.8,1.7,12.9,5.1
		c3.1,3.4,4.6,8.6,4.6,15.7c0,7.1-1.5,12.3-4.6,15.7c-3.1,3.4-7.3,5.1-12.6,5.1c-5.5,0-9.8-1.7-12.9-5.1
		C562.7,42.9,561.2,37.6,561.2,30.5z M572.9,30.4c0,5.1,0.6,8.6,1.8,10.3c0.9,1.3,2.1,1.9,3.7,1.9c1.6,0,2.9-0.6,3.8-1.9
		c1.1-1.8,1.7-5.2,1.7-10.3c0-5.1-0.6-8.5-1.7-10.3c-0.9-1.3-2.1-2-3.8-2c-1.6,0-2.8,0.6-3.7,1.9C573.5,21.9,572.9,25.3,572.9,30.4z
		 M589.9,92.8h-11.2l41.9-83.1h10.8L589.9,92.8z M614.3,72.2c0-7.1,1.5-12.3,4.6-15.7c3.1-3.4,7.3-5.1,12.7-5.1
		c5.4,0,9.7,1.7,12.8,5.1c3.1,3.4,4.6,8.6,4.6,15.7c0,7.1-1.5,12.3-4.6,15.7c-3.1,3.4-7.3,5.1-12.6,5.1c-5.5,0-9.8-1.7-12.9-5.1
		C615.8,84.5,614.3,79.2,614.3,72.2z M626,72.1c0,5.1,0.6,8.5,1.8,10.3c0.9,1.3,2.1,2,3.7,2c1.6,0,2.8-0.6,3.7-1.9
		c1.2-1.8,1.8-5.2,1.8-10.3c0-5.1-0.6-8.6-1.7-10.3c-0.9-1.3-2.1-1.9-3.8-1.9s-2.8,0.6-3.7,1.9C626.6,63.5,626,67,626,72.1z"/>
</g>
<line class="st8" x1="541" y1="284" x2="541" y2="226"/>
<line class="st9" x1="449" y1="324" x2="397.5" y2="250.5"/>
</svg>
