<svg id="Layer_1" data-name="Layer 1" xmlns="http://www.w3.org/2000/svg" viewBox="0 0 1120 1365"><defs><style>.cls-1{fill:#63707a;}.cls-2{fill:#7fb9d6;}.cls-3{fill:#5792b6;}.cls-4{fill:#45627c;}.cls-18,.cls-19,.cls-5{fill:#1f3349;}.cls-6{fill:#ff1269;}.cls-7{font-size:60px;}.cls-10,.cls-16,.cls-17,.cls-7{fill:#fff;}.cls-10,.cls-16,.cls-17,.cls-18,.cls-19,.cls-7{font-family:Quicksand-Bold, Quicksand;font-weight:700;}.cls-8{letter-spacing:-0.02em;}.cls-9{letter-spacing:0em;}.cls-10,.cls-18{font-size:46px;}.cls-11{letter-spacing:-0.01em;}.cls-12{letter-spacing:0em;}.cls-13{letter-spacing:-0.02em;}.cls-14{letter-spacing:0em;}.cls-15{letter-spacing:0em;}.cls-16{font-size:120px;}.cls-17,.cls-19{font-size:110px;}.cls-20{letter-spacing:0.01em;}.cls-21,.cls-22{fill:none;stroke:#1f3349;stroke-linecap:round;stroke-width:3px;}.cls-21{stroke-miterlimit:10;}.cls-22{stroke-linejoin:round;}</style></defs><path class="cls-1" d="M562.29,807.65l-38-543.38c12-.84,26-1.32,38-1.32Z"/><path class="cls-2" d="M562.29,807.65l-204-505c55.79-22.54,106-34.14,166-38.34Z"/><path class="cls-3" d="M562.29,807.65l-518-168.32C96.3,479.11,202,365.72,358.24,302.61Z"/><path class="cls-4" d="M562.29,807.65,170.46,1186C28.36,1038.89-19,833.89,44.24,639.33Z"/><path class="cls-5" d="M562.29,807.65l264.08,476.42c-221,122.51-480.37,83.75-655.91-98Z"/><path class="cls-6" d="M562.29,807.65V263C863.13,263,1107,506.82,1107,807.65c0,204.57-101.71,377.24-280.63,476.42Z"/><text class="cls-7" transform="translate(721.07 849.39)">Compa<tspan class="cls-8" x="204.54" y="0">r</tspan><tspan class="cls-9" x="229.26" y="0">e</tspan></text><text class="cls-10" transform="translate(422.74 1194.05)">Sing<tspan class="cls-11" x="94.85" y="0">l</tspan><tspan class="cls-12" x="106.81" y="0">e </tspan><tspan x="0" y="55.2">P</tspan><tspan class="cls-13" x="27.74" y="55.2">r</tspan><tspan class="cls-14" x="46.69" y="55.2">o</tspan><tspan class="cls-15" x="74.7" y="55.2">vider</tspan></text><text class="cls-10" transform="translate(176.16 584.82)">Sing<tspan class="cls-11" x="94.85" y="0">l</tspan><tspan class="cls-12" x="106.81" y="0">e </tspan><tspan x="0" y="55.2">Location</tspan></text><text class="cls-10" transform="translate(97.57 938.07)">Home</text><text class="cls-16" transform="translate(733.74 765.82)">42%</text><text class="cls-17" transform="translate(422.74 1120.82)">21%</text><text class="cls-17" transform="translate(86.74 876.82)">17%</text><text class="cls-17" transform="translate(180.76 515.51)">15%</text><text class="cls-18" transform="translate(245.41 256.56)">Other</text><text class="cls-19" transform="translate(241.36 196.99)">4%</text><text class="cls-18" transform="translate(482.62 153.14)">Sing<tspan class="cls-11" x="94.85" y="0">l</tspan><tspan class="cls-12" x="106.81" y="0">e </tspan><tspan class="cls-20"><tspan x="0" y="55.2">D</tspan><tspan class="cls-14" x="33.26" y="55.2">e</tspan><tspan class="cls-15" x="59.71" y="55.2">vice</tspan></tspan></text><text class="cls-19" transform="translate(495.21 89.83)">1%</text><line class="cls-21" x1="541" y1="284" x2="541" y2="226"/><line class="cls-22" x1="449" y1="324" x2="397.5" y2="250.5"/></svg>