<svg id="Layer_1" data-name="Layer 1" xmlns="http://www.w3.org/2000/svg" viewBox="0 0 40 40"><defs><style>.cls-1{fill:#fff;}</style></defs><title>sm</title><path class="cls-1" d="M20,1.6A18.4,18.4,0,1,1,1.6,20,18.42,18.42,0,0,1,20,1.6m0-1A19.4,19.4,0,1,0,39.4,20,19.4,19.4,0,0,0,20,.6h0Z"/><path class="cls-1" d="M26.87,10A5.61,5.61,0,0,0,24,8.9a3.45,3.45,0,0,0-2.3.67A3.39,3.39,0,0,0,21.07,12v1.76h5.34l-1.16,4.92H21.07V35H14.36V18.68H11.22V13.76h3.14V11.88a9.18,9.18,0,0,1,.7-4.13,5.88,5.88,0,0,1,2.63-2.67,12.12,12.12,0,0,1,5-.92,19,19,0,0,1,5.39,1.18Z"/></svg>