<svg id="Layer_1" data-name="Layer 1" xmlns="http://www.w3.org/2000/svg" viewBox="0 0 40 40"><defs><style>.cls-1{fill:#fff;}</style></defs><title>sm</title><path class="cls-1" d="M20,1.6A18.4,18.4,0,1,1,1.6,20,18.42,18.42,0,0,1,20,1.6m0-1A19.4,19.4,0,1,0,39.4,20,19.4,19.4,0,0,0,20,.6h0Z"/><polygon id="Plus" class="cls-1" points="33.67 12.27 29.67 12.27 29.67 8.27 28.67 8.27 28.67 12.27 24.67 12.27 24.67 13.27 28.67 13.27 28.67 17.27 29.67 17.27 29.67 13.27 33.67 13.27 33.67 12.27"/><path id="g" class="cls-1" d="M19.4,22.62c-0.66-.46-1.91-1.6-1.91-2.26s0.22-1.16,1.4-2.08a4.89,4.89,0,0,0,2.05-3.8,4.77,4.77,0,0,0-2.34-4.21H20.9l1.63-1H15.26c-3.26,0-6.33,2.39-6.33,5.25a5.22,5.22,0,0,0,5.54,5.24c0.23,0,.45,0,0.67,0a2.92,2.92,0,0,0-.37,1.35,2.81,2.81,0,0,0,1,2H14.5c-4,0-7.15,2.57-7.15,5.24s3.41,4.27,7.45,4.27c4.6,0,7.15-2.61,7.15-5.24A5.07,5.07,0,0,0,19.4,22.62ZM15.52,19c-1.87-.06-3.65-2.1-4-4.56s0.93-4.34,2.81-4.29,3.65,2,4,4.49S17.39,19,15.52,19ZM14.79,31.42C12,31.42,10,29.65,10,27.53s2.5-3.81,5.29-3.78a6.07,6.07,0,0,1,1.81.29c1.51,1.05,2.6,1.65,2.91,2.85a3.24,3.24,0,0,1,.09.75C20.08,29.76,18.71,31.42,14.79,31.42Z"/></svg>