<?xml version="1.0" encoding="utf-8"?>
<!-- Generator: Adobe Illustrator 22.0.1, SVG Export Plug-In . SVG Version: 6.00 Build 0)  -->
<svg version="1.1" id="Layer_1" xmlns="http://www.w3.org/2000/svg" xmlns:xlink="http://www.w3.org/1999/xlink" x="0px" y="0px"
	 width="40px" height="40px" viewBox="0 0 40 40" style="enable-background:new 0 0 40 40;" xml:space="preserve">
<style type="text/css">
	.st0{fill:#FFFFFF;}
</style>
<title>sm</title>
<g>
	<path class="st0" d="M20,1.6c10.2,0,18.4,8.2,18.4,18.4S30.2,38.4,20,38.4S1.6,30.2,1.6,20C1.6,9.8,9.8,1.6,20,1.6 M20,0.6
		C9.3,0.6,0.6,9.3,0.6,20S9.3,39.4,20,39.4S39.4,30.7,39.4,20S30.7,0.6,20,0.6L20,0.6L20,0.6z"/>
	<path class="st0" d="M25.8,37.6c-0.4,0-0.7-0.3-0.8-0.7c0-0.2,0-0.3,0-0.5c0-1.6,0-3.3,0-4.9c0-0.9-0.1-1.8-0.6-2.6
		c-0.2-0.3-0.4-0.6-0.6-0.9c0.8-0.2,1.7-0.3,2.5-0.5c1.8-0.5,3.3-1.3,4.4-2.8c0.6-0.9,1.1-1.8,1.3-2.8c0.4-1.4,0.5-2.9,0.3-4.4
		c-0.2-1.5-0.8-2.8-1.7-3.9c-0.1-0.1-0.1-0.2-0.1-0.4c0.5-1.6,0.4-3.1-0.2-4.6c0-0.1-0.2-0.2-0.3-0.2c-0.8-0.1-1.5,0.1-2.2,0.5
		c-0.9,0.4-1.7,0.9-2.5,1.4c-0.2,0.1-0.3,0.1-0.5,0.1c-3-0.8-6-0.8-9.1,0c-0.1,0-0.3,0-0.5-0.1c-1.1-0.7-2.2-1.3-3.4-1.6
		c-0.4-0.1-0.9-0.1-1.3-0.2c-0.1,0-0.3,0.1-0.3,0.2c-0.6,1.5-0.7,3.1-0.2,4.6c0,0.1,0,0.3-0.1,0.4c-1.2,1.4-1.8,3-1.8,4.8
		c0,1.5,0.1,2.9,0.6,4.3c0.9,2.4,2.6,3.9,5,4.7c0.9,0.3,1.8,0.4,2.7,0.6c0.1,0,0.2,0,0.3,0.1c-0.7,0.7-1,1.5-1.2,2.4
		c0,0.1-0.1,0.2-0.1,0.2c-1.3,0.6-3,0.7-4.3-0.3c-0.4-0.4-0.8-0.8-1.1-1.3c-0.7-1-1.4-1.7-2.6-1.9c-0.3-0.1-0.6,0-0.9,0
		c-0.3,0.1-0.4,0.3-0.2,0.5c0.2,0.2,0.4,0.4,0.6,0.5c1,0.6,1.6,1.5,2,2.5c0.8,1.9,2.2,2.7,4.2,2.8c0.8,0,1.6-0.1,2.4-0.1
		c0,0,0,0,0,0c0,1.2,0.1,2.3,0,3.5c0,0.3-0.8,1.2-1,1.3c-0.1,0.1,3,1.1,5.7,1.1C22.9,39.1,25.8,37.6,25.8,37.6z"/>
</g>
<path d="M44.4,147.7"/>
</svg>
