<?xml version="1.0" encoding="utf-8"?>
<!-- Generator: Adobe Illustrator 22.0.1, SVG Export Plug-In . SVG Version: 6.00 Build 0)  -->
<svg version="1.1" id="Layer_1" xmlns="http://www.w3.org/2000/svg" xmlns:xlink="http://www.w3.org/1999/xlink" x="0px" y="0px"
	 width="40px" height="40px" viewBox="0 0 40 40" style="enable-background:new 0 0 40 40;" xml:space="preserve">
<style type="text/css">
	.st0{fill:#FFFFFF;}
</style>
<title>sm</title>
<g>
	<path class="st0" d="M20,1.6c10.2,0,18.4,8.2,18.4,18.4S30.2,38.4,20,38.4S1.6,30.2,1.6,20C1.6,9.8,9.8,1.6,20,1.6 M20,0.6
		C9.3,0.6,0.6,9.3,0.6,20S9.3,39.4,20,39.4S39.4,30.7,39.4,20S30.7,0.6,20,0.6L20,0.6L20,0.6z"/>
	<g>
		<path class="st0" d="M30.6,28.6c-0.2,0-4.4,0-4.6,0c0-0.1,0-0.1,0-0.2c0-2.4,0-4.8,0-7.2c0-0.5-0.1-1-0.2-1.5
			c-0.1-0.2-0.1-0.3-0.2-0.5c-0.3-0.6-0.9-1-1.6-1c-0.4,0-0.7,0-1.1,0.1c-0.6,0.2-1.1,0.7-1.4,1.3c-0.1,0.3-0.2,0.6-0.2,0.9
			c0,0.3,0,0.5,0,0.8c0,2.3,0,4.7,0,7c0,0.1,0,0.2,0,0.2c-0.2,0-4.3,0.1-4.6,0c0-0.1,0-0.1,0-0.2c0-1.2,0-2.4,0-3.6c0-2.5,0-5,0-7.5
			c0-0.8,0-1.5,0-2.3c0,0,0-0.1,0-0.1c0.1,0,4.3-0.1,4.6,0c0,0.6,0,1.2,0,1.8c0,0,0,0,0,0c0,0,0.1-0.1,0.1-0.1
			c0.3-0.4,0.6-0.8,1-1.1c0.6-0.5,1.3-0.8,2.1-0.9c1-0.1,1.9-0.1,2.8,0.2c1.3,0.5,2.2,1.4,2.7,2.6c0.3,0.6,0.4,1.3,0.5,2
			c0.1,0.5,0.1,1,0.1,1.5c0,2.4,0,4.9,0,7.3C30.6,28.5,30.6,28.6,30.6,28.6z"/>
		<path class="st0" d="M9.7,14.9c1.5,0,3,0,4.5,0c0,0.2,0,13.5,0,13.7c-0.1,0-4.4,0-4.5,0C9.6,28.5,9.6,15.2,9.7,14.9z"/>
		<path class="st0" d="M11.9,13.1c-0.5,0-1-0.1-1.4-0.3c-0.9-0.5-1.3-1.5-1.2-2.3c0.1-1,0.9-1.9,2-2.1c0.6-0.1,1.2-0.1,1.7,0.1
			c0.9,0.4,1.3,1,1.4,1.9c0.1,1.3-0.7,2.4-2,2.6C12.3,13.1,12.1,13.1,11.9,13.1z"/>
	</g>
</g>
</svg>
