<svg id="Layer_1" data-name="Layer 1" xmlns="http://www.w3.org/2000/svg" viewBox="0 0 40 40"><defs><style>.cls-1,.cls-2{fill:#fff;}.cls-1{fill-rule:evenodd;}</style></defs><title>sm</title><path class="cls-1" d="M12.08,37.35c0-.16,0-0.31,0-0.45a23.56,23.56,0,0,1,.26-3.35C13.1,30,14,26.49,14.79,23a1.31,1.31,0,0,0,0-.69,7.51,7.51,0,0,1-.31-4.16A4.38,4.38,0,0,1,16.6,15a2.57,2.57,0,0,1,3.93,2.27,7.26,7.26,0,0,1-.23,2c-0.43,1.68-1,3.34-1.41,5a2.89,2.89,0,0,0,2.42,3.71,4,4,0,0,0,3.06-.78,6.67,6.67,0,0,0,2-2.39,14.16,14.16,0,0,0,1.5-7.89,6.64,6.64,0,0,0-5.07-6,11.08,11.08,0,0,0-3.47-.35,8.94,8.94,0,0,0-8.47,6.78c-0.56,2.23-.52,4.4,1.08,6.3a1.1,1.1,0,0,1,.16.79,13.59,13.59,0,0,1-.38,1.57,0.68,0.68,0,0,1-1.06.51,5.2,5.2,0,0,1-2-1.45,8,8,0,0,1-1.81-4.79,11.28,11.28,0,0,1,4-9.58,14.65,14.65,0,0,1,15.6-2.08,10.43,10.43,0,0,1,6,8,14.78,14.78,0,0,1-2.08,10.1A9.35,9.35,0,0,1,26,30.5a7.74,7.74,0,0,1-6,.32,5,5,0,0,1-2.4-1.88c-0.92,3.2-1.3,6.51-3.28,9.27"/><path class="cls-2" d="M20,1.6A18.4,18.4,0,1,1,1.6,20,18.42,18.42,0,0,1,20,1.6m0-1A19.4,19.4,0,1,0,39.4,20,19.4,19.4,0,0,0,20,.6h0Z"/></svg>