<svg id="Layer_1" data-name="Layer 1" xmlns="http://www.w3.org/2000/svg" viewBox="0 0 40 40"><defs><style>.cls-1{fill:#fff;}</style></defs><title>sm</title><path class="cls-1" d="M20,1.6A18.4,18.4,0,1,1,1.6,20,18.42,18.42,0,0,1,20,1.6m0-1A19.4,19.4,0,1,0,39.4,20,19.4,19.4,0,0,0,20,.6h0Z"/><path class="cls-1" d="M4.52,23.35A9.09,9.09,0,0,0,16.15,23c-1.34-.36-3.31-0.63-1.43-2.6,0,0-2.82-.55-3.53-2a2.54,2.54,0,0,1,2-.74c-0.68-.43-3.31-1.27-3.18-3.12l1.76,0s-2.78-1.95-2.47-4c2.41,0.8,7.33,2.5,10.21,5.5,0.31-1.17,1.7-5.6,4.64-7.52l0,0.71s1.33-1.36,2.13-.93L26,8.84a3.23,3.23,0,0,1,1.64-.18c-0.62.46-2.1,0.71-2.51,1.64,0.65,0,5.44-.31,6.47,5.78,1.7,0.19,2.63.34,3.62-.18-0.46.65-.81,1.24-3.28,1.58a7.67,7.67,0,0,0,3.4.43,3.34,3.34,0,0,1-3.44,1.18C30.83,22,28.11,28.54,17,29.19,15.21,29.1,8.5,29,4.52,23.35Z"/></svg>