<?xml version="1.0" encoding="utf-8"?>
<!-- Generator: Adobe Illustrator 26.5.0, SVG Export Plug-In . SVG Version: 6.00 Build 0)  -->
<svg version="1.1" id="Layer_1" xmlns="http://www.w3.org/2000/svg" xmlns:xlink="http://www.w3.org/1999/xlink" x="0px" y="0px"
	 viewBox="0 0 1828 412" style="enable-background:new 0 0 1828 412;" xml:space="preserve">
<style type="text/css">
	.st0{fill:#FF1269;}
	.st1{enable-background:new    ;}
	.st2{fill:#FFFFFF;}
	.st3{fill:#798A99;}
	.st4{fill:#343333;}
</style>
<polygon class="st0" points="918.5,7 970.4,112.3 1086.6,129.1 1002.5,211.1 1022.4,326.8 918.5,272.1 814.6,326.8 834.4,211.1 
	750.4,129.1 866.5,112.3 "/>
<g class="st1">
	<path class="st2" d="M869.9,185.8l4.8-0.5c0.3,1.6,0.9,2.8,1.8,3.6c0.9,0.8,2.1,1.1,3.6,1.1c1.6,0,2.8-0.3,3.6-1
		c0.8-0.7,1.2-1.5,1.2-2.4c0-0.6-0.2-1.1-0.5-1.5c-0.3-0.4-0.9-0.8-1.8-1.1c-0.6-0.2-1.9-0.6-4-1.1c-2.7-0.7-4.5-1.5-5.6-2.4
		c-1.5-1.4-2.3-3-2.3-5c0-1.3,0.4-2.4,1.1-3.5c0.7-1.1,1.7-1.9,3.1-2.5c1.3-0.6,3-0.9,4.9-0.9c3.1,0,5.4,0.7,7,2s2.4,3.2,2.5,5.4
		l-5,0.2c-0.2-1.3-0.7-2.2-1.4-2.7c-0.7-0.6-1.8-0.8-3.2-0.8c-1.4,0-2.6,0.3-3.4,0.9c-0.5,0.4-0.8,0.9-0.8,1.5
		c0,0.6,0.2,1.1,0.7,1.5c0.6,0.5,2.2,1.1,4.6,1.6c2.4,0.6,4.2,1.2,5.4,1.8c1.2,0.6,2.1,1.4,2.7,2.5s1,2.4,1,3.9c0,1.4-0.4,2.7-1.2,4
		s-1.9,2.1-3.3,2.7s-3.2,0.9-5.4,0.9c-3.1,0-5.5-0.7-7.2-2.2C871.3,190.7,870.3,188.6,869.9,185.8z"/>
	<path class="st2" d="M902.3,176v3.8h-3.2v7.2c0,1.5,0,2.3,0.1,2.5c0.1,0.2,0.2,0.4,0.4,0.6s0.5,0.2,0.8,0.2c0.4,0,1.1-0.2,1.9-0.5
		l0.4,3.7c-1.1,0.5-2.3,0.7-3.7,0.7c-0.9,0-1.6-0.1-2.3-0.4c-0.7-0.3-1.2-0.7-1.5-1.1c-0.3-0.5-0.5-1.1-0.7-1.8
		c-0.1-0.5-0.2-1.7-0.2-3.3v-7.8h-2.2V176h2.2v-3.5l4.7-2.8v6.3H902.3z"/>
	<path class="st2" d="M915.9,188.1l4.7,0.8c-0.6,1.7-1.6,3-2.9,3.9c-1.3,0.9-2.9,1.4-4.9,1.4c-3.1,0-5.4-1-6.9-3
		c-1.2-1.6-1.8-3.7-1.8-6.2c0-3,0.8-5.3,2.3-7c1.5-1.7,3.5-2.5,5.9-2.5c2.7,0,4.8,0.9,6.3,2.6s2.3,4.4,2.2,8.1h-11.8
		c0,1.4,0.4,2.5,1.1,3.3c0.7,0.8,1.6,1.2,2.7,1.2c0.7,0,1.4-0.2,1.9-0.6S915.7,189,915.9,188.1z M916.2,183.4c0-1.4-0.4-2.4-1.1-3.1
		c-0.7-0.7-1.5-1.1-2.5-1.1c-1,0-1.9,0.4-2.6,1.1c-0.7,0.8-1,1.8-1,3.1H916.2z"/>
	<path class="st2" d="M924.6,176h4.4v2.6c0.6-0.9,1.3-1.6,2.3-2.2c1-0.6,2.1-0.8,3.2-0.8c2.1,0,3.8,0.8,5.3,2.4
		c1.4,1.6,2.2,3.9,2.2,6.8c0,3-0.7,5.3-2.2,7c-1.5,1.7-3.2,2.5-5.3,2.5c-1,0-1.9-0.2-2.7-0.6c-0.8-0.4-1.6-1.1-2.5-2v9h-4.7V176z
		 M929.3,184.6c0,2,0.4,3.5,1.2,4.4c0.8,1,1.8,1.4,2.9,1.4c1.1,0,2-0.4,2.7-1.3c0.7-0.9,1.1-2.3,1.1-4.3c0-1.9-0.4-3.3-1.1-4.2
		c-0.8-0.9-1.7-1.4-2.8-1.4c-1.2,0-2.1,0.4-2.9,1.3C929.7,181.5,929.3,182.8,929.3,184.6z"/>
	<path class="st2" d="M970.3,189.4v4.4h-16.6c0.2-1.7,0.7-3.2,1.6-4.7c0.9-1.5,2.7-3.5,5.3-5.9c2.1-2,3.4-3.3,3.9-4
		c0.7-1,1-1.9,1-2.9c0-1.1-0.3-1.9-0.8-2.4c-0.6-0.6-1.3-0.8-2.3-0.8c-1,0-1.8,0.3-2.4,0.9c-0.6,0.6-0.9,1.6-1,3l-4.7-0.5
		c0.3-2.6,1.2-4.5,2.6-5.6c1.5-1.1,3.3-1.7,5.5-1.7c2.4,0,4.3,0.7,5.7,2c1.4,1.3,2.1,2.9,2.1,4.9c0,1.1-0.2,2.2-0.6,3.2
		c-0.4,1-1,2.1-1.9,3.2c-0.6,0.7-1.6,1.8-3.1,3.1s-2.4,2.3-2.8,2.7c-0.4,0.4-0.7,0.9-1,1.3H970.3z"/>
</g>
<polygon class="st0" points="1655.3,3.4 1692.6,97.9 1789.8,68.2 1739.2,156.3 1823,213.7 1722.6,229 1729.9,330.4 1655.3,261.4 
	1580.7,330.4 1588.1,229 1487.7,213.7 1571.5,156.3 1520.9,68.2 1618,97.9 "/>
<g class="st1">
	<path class="st2" d="M1582.6,195.7v-25.2h18.7v4.3h-13.6v5.6h12.7v4.2h-12.7v6.9h14.1v4.2H1582.6z"/>
	<path class="st2" d="M1622.7,195.7h-4.8v-9.3c0-2-0.1-3.2-0.3-3.8c-0.2-0.6-0.5-1-1-1.3c-0.5-0.3-1-0.5-1.7-0.5
		c-0.8,0-1.6,0.2-2.3,0.7c-0.7,0.5-1.1,1.1-1.4,1.8c-0.2,0.8-0.4,2.2-0.4,4.2v8.3h-4.8v-18.3h4.5v2.7c1.6-2.1,3.6-3.1,6-3.1
		c1.1,0,2,0.2,2.9,0.6c0.9,0.4,1.6,0.9,2,1.5c0.5,0.6,0.8,1.3,0.9,2c0.2,0.8,0.3,1.8,0.3,3.2V195.7z"/>
	<path class="st2" d="M1644.3,195.7h-4.5v-2.7c-0.7,1-1.6,1.8-2.6,2.3s-2,0.8-3.1,0.8c-2.1,0-3.9-0.8-5.4-2.5
		c-1.5-1.7-2.2-4-2.2-7.1c0-3.1,0.7-5.4,2.2-7.1c1.5-1.6,3.3-2.4,5.5-2.4c2,0,3.8,0.8,5.3,2.5v-9.1h4.8V195.7z M1631.5,186.2
		c0,1.9,0.3,3.4,0.8,4.2c0.8,1.3,1.9,1.9,3.3,1.9c1.1,0,2.1-0.5,2.8-1.4s1.2-2.4,1.2-4.2c0-2.1-0.4-3.6-1.1-4.5
		c-0.8-0.9-1.7-1.4-2.9-1.4c-1.1,0-2.1,0.5-2.9,1.4S1631.5,184.4,1631.5,186.2z"/>
	<path class="st2" d="M1670.6,186.5v-4.2h11v10c-1.1,1-2.6,1.9-4.6,2.7c-2,0.8-4.1,1.2-6.1,1.2c-2.6,0-4.9-0.6-6.9-1.7
		c-2-1.1-3.4-2.7-4.4-4.7c-1-2.1-1.5-4.3-1.5-6.7c0-2.6,0.5-5,1.7-7c1.1-2,2.7-3.6,4.8-4.7c1.6-0.8,3.6-1.3,6-1.3
		c3.1,0,5.6,0.7,7.3,2c1.8,1.3,2.9,3.1,3.4,5.4l-5.1,0.9c-0.4-1.2-1-2.2-2-2.9c-1-0.7-2.2-1.1-3.7-1.1c-2.2,0-4,0.7-5.3,2.1
		c-1.3,1.4-2,3.5-2,6.3c0,3,0.7,5.2,2,6.7c1.3,1.5,3.1,2.2,5.2,2.2c1.1,0,2.1-0.2,3.2-0.6c1.1-0.4,2-0.9,2.8-1.5v-3.2H1670.6z"/>
	<path class="st2" d="M1685.2,186.4c0-1.6,0.4-3.2,1.2-4.7c0.8-1.5,1.9-2.6,3.4-3.4c1.4-0.8,3.1-1.2,4.9-1.2c2.8,0,5,0.9,6.8,2.7
		c1.8,1.8,2.6,4.1,2.6,6.8c0,2.8-0.9,5.1-2.7,6.9s-4,2.7-6.7,2.7c-1.7,0-3.3-0.4-4.8-1.1c-1.5-0.8-2.7-1.9-3.5-3.3
		S1685.2,188.5,1685.2,186.4z M1690.1,186.6c0,1.8,0.4,3.2,1.3,4.2s1.9,1.4,3.2,1.4s2.3-0.5,3.2-1.4s1.3-2.4,1.3-4.2
		c0-1.8-0.4-3.2-1.3-4.1s-1.9-1.4-3.2-1.4s-2.3,0.5-3.2,1.4S1690.1,184.8,1690.1,186.6z"/>
	<path class="st2" d="M1711.4,183.1l-4.4-0.8c0.5-1.8,1.3-3.1,2.5-3.9c1.2-0.8,3-1.3,5.4-1.3c2.2,0,3.8,0.3,4.8,0.8
		c1.1,0.5,1.8,1.2,2.2,1.9s0.6,2.2,0.6,4.3l-0.1,5.6c0,1.6,0.1,2.8,0.2,3.5c0.2,0.8,0.4,1.6,0.9,2.5h-4.8c-0.1-0.3-0.3-0.8-0.5-1.4
		c-0.1-0.3-0.1-0.5-0.2-0.6c-0.8,0.8-1.7,1.4-2.6,1.8c-0.9,0.4-1.9,0.6-3,0.6c-1.9,0-3.4-0.5-4.4-1.5c-1.1-1-1.6-2.3-1.6-3.9
		c0-1,0.2-2,0.7-2.8c0.5-0.8,1.2-1.4,2.1-1.9c0.9-0.4,2.2-0.8,3.8-1.1c2.3-0.4,3.8-0.8,4.7-1.2v-0.5c0-0.9-0.2-1.6-0.7-2
		c-0.5-0.4-1.3-0.6-2.6-0.6c-0.9,0-1.5,0.2-2,0.5C1712.1,181.6,1711.7,182.2,1711.4,183.1z M1717.9,187c-0.6,0.2-1.6,0.5-2.9,0.7
		c-1.3,0.3-2.2,0.6-2.6,0.8c-0.6,0.4-0.9,1-0.9,1.7c0,0.7,0.3,1.3,0.8,1.8c0.5,0.5,1.1,0.7,1.9,0.7c0.9,0,1.7-0.3,2.5-0.9
		c0.6-0.4,1-1,1.2-1.6c0.1-0.4,0.2-1.2,0.2-2.4V187z"/>
	<path class="st2" d="M1727.4,195.7v-25.2h4.8v25.2H1727.4z"/>
</g>
<polygon class="st0" points="181.6,3.4 239.4,109.1 345.1,166.9 239.4,224.7 181.6,330.4 123.9,224.7 18.2,166.9 123.9,109.1 "/>
<g class="st1">
	<path class="st2" d="M147.2,176.5v-25.2h7.6l4.6,17.2l4.5-17.2h7.6v25.2h-4.7v-19.8l-5,19.8h-4.9l-5-19.8v19.8H147.2z"/>
	<path class="st2" d="M183,176.5l-9-25.2h5.5l6.4,18.7l6.2-18.7h5.4l-9,25.2H183z"/>
	<path class="st2" d="M200.1,176.5v-25.2h8.2c3.1,0,5.1,0.1,6.1,0.4c1.4,0.4,2.7,1.2,3.6,2.5s1.5,2.9,1.5,4.9c0,1.5-0.3,2.8-0.8,3.9
		c-0.6,1.1-1.3,1.9-2.1,2.5s-1.7,1-2.6,1.2c-1.2,0.2-3,0.4-5.3,0.4h-3.3v9.5H200.1z M205.1,155.6v7.2h2.8c2,0,3.3-0.1,4-0.4
		c0.7-0.3,1.2-0.7,1.6-1.2c0.4-0.6,0.6-1.2,0.6-2c0-0.9-0.3-1.7-0.8-2.3c-0.5-0.6-1.2-1-2-1.1c-0.6-0.1-1.8-0.2-3.7-0.2H205.1z"/>
</g>
<path class="st3" d="M524.1,166.9l23.9,13.8v-10.3h24.5c1.9,0.1,3.5-1.4,3.6-3.3c0.1-1.9-1.4-3.5-3.3-3.6c-0.1,0-0.2,0-0.4,0H548
	v-10.3L524.1,166.9z"/>
<path class="st3" d="M1261,166.9l23.9,13.8v-10.3h24.5c1.9,0.1,3.5-1.4,3.6-3.3s-1.4-3.5-3.3-3.6c-0.1,0-0.2,0-0.4,0h-24.5v-10.3
	L1261,166.9z"/>
<g class="st1">
	<path class="st4" d="M2.9,358.6h10.8c2.4,0,4.3,0.2,5.6,0.6c1.7,0.5,3.2,1.4,4.4,2.7c1.2,1.3,2.2,2.9,2.8,4.8c0.6,1.9,1,4.2,1,6.9
		c0,2.4-0.3,4.5-0.9,6.2c-0.7,2.1-1.8,3.9-3.1,5.2c-1,1-2.4,1.8-4.2,2.3c-1.3,0.4-3.1,0.6-5.2,0.6H2.9V358.6z M8.9,363.5V383h4.4
		c1.7,0,2.8-0.1,3.6-0.3c1-0.2,1.8-0.6,2.4-1.2c0.6-0.6,1.2-1.5,1.6-2.8c0.4-1.3,0.6-3.1,0.6-5.4c0-2.3-0.2-4-0.6-5.2
		c-0.4-1.2-1-2.2-1.7-2.8c-0.7-0.7-1.6-1.1-2.7-1.4c-0.8-0.2-2.4-0.3-4.9-0.3H8.9z"/>
	<path class="st4" d="M36.7,373.1l-5.1-0.9c0.6-2.1,1.6-3.6,3-4.6c1.4-1,3.5-1.5,6.2-1.5c2.5,0,4.4,0.3,5.6,0.9
		c1.2,0.6,2.1,1.3,2.6,2.3c0.5,0.9,0.8,2.6,0.8,5l-0.1,6.6c0,1.9,0.1,3.2,0.3,4.1c0.2,0.9,0.5,1.8,1,2.9h-5.6
		c-0.1-0.4-0.3-0.9-0.5-1.7c-0.1-0.3-0.2-0.6-0.2-0.7c-1,0.9-2,1.6-3.1,2.1c-1.1,0.5-2.3,0.7-3.5,0.7c-2.2,0-3.9-0.6-5.2-1.8
		c-1.3-1.2-1.9-2.7-1.9-4.5c0-1.2,0.3-2.3,0.9-3.2c0.6-0.9,1.4-1.7,2.4-2.2c1-0.5,2.5-0.9,4.5-1.3c2.6-0.5,4.5-1,5.5-1.4v-0.6
		c0-1.1-0.3-1.9-0.8-2.3c-0.5-0.5-1.5-0.7-3-0.7c-1,0-1.8,0.2-2.3,0.6C37.5,371.5,37.1,372.1,36.7,373.1z M44.3,377.7
		c-0.7,0.2-1.9,0.5-3.4,0.9c-1.6,0.3-2.6,0.7-3.1,1c-0.7,0.5-1.1,1.2-1.1,2c0,0.8,0.3,1.5,0.9,2c0.6,0.6,1.3,0.9,2.2,0.9
		c1,0,2-0.3,2.9-1c0.7-0.5,1.1-1.1,1.3-1.9c0.1-0.5,0.2-1.4,0.2-2.7V377.7z"/>
	<path class="st4" d="M53.3,381.8L59,381c0.2,1.1,0.7,1.9,1.5,2.5c0.7,0.6,1.8,0.9,3.1,0.9c1.5,0,2.5-0.3,3.3-0.8
		c0.5-0.4,0.7-0.9,0.7-1.5c0-0.4-0.1-0.8-0.4-1.1c-0.3-0.3-0.9-0.5-1.9-0.7c-4.5-1-7.4-1.9-8.6-2.7c-1.7-1.1-2.5-2.7-2.5-4.8
		c0-1.8,0.7-3.4,2.2-4.6c1.5-1.3,3.7-1.9,6.8-1.9c2.9,0,5.1,0.5,6.5,1.4c1.4,0.9,2.4,2.3,2.9,4.2l-5.3,1c-0.2-0.8-0.7-1.5-1.3-1.9
		c-0.6-0.4-1.5-0.7-2.7-0.7c-1.5,0-2.5,0.2-3.2,0.6c-0.4,0.3-0.6,0.7-0.6,1.1c0,0.4,0.2,0.7,0.6,1c0.5,0.4,2.3,0.9,5.3,1.6
		s5.1,1.5,6.3,2.5c1.2,1,1.8,2.4,1.8,4.2c0,1.9-0.8,3.6-2.4,5c-1.6,1.4-4,2.1-7.2,2.1c-2.9,0-5.2-0.6-6.9-1.8
		C55,385.5,53.9,383.9,53.3,381.8z"/>
	<path class="st4" d="M83.7,358.6v10.8c1.8-2.1,4-3.2,6.5-3.2c1.3,0,2.5,0.2,3.5,0.7s1.8,1.1,2.4,1.8c0.5,0.7,0.9,1.6,1.1,2.5
		c0.2,0.9,0.3,2.3,0.3,4.2v12.5h-5.6v-11.2c0-2.2-0.1-3.6-0.3-4.2c-0.2-0.6-0.6-1.1-1.1-1.4c-0.5-0.4-1.2-0.5-2-0.5
		c-0.9,0-1.8,0.2-2.5,0.7c-0.7,0.5-1.3,1.1-1.6,2.1c-0.3,0.9-0.5,2.3-0.5,4.1v10.7h-5.6v-29.3H83.7z"/>
	<path class="st4" d="M102.9,387.9v-29.3h5.6v10.6c1.7-2,3.8-3,6.2-3c2.6,0,4.7,0.9,6.4,2.8c1.7,1.9,2.5,4.6,2.5,8.1
		c0,3.6-0.9,6.4-2.6,8.4c-1.7,2-3.8,2.9-6.3,2.9c-1.2,0-2.4-0.3-3.6-0.9c-1.2-0.6-2.2-1.5-3.1-2.7v3.1H102.9z M108.5,376.8
		c0,2.2,0.3,3.8,1,4.9c1,1.5,2.3,2.2,3.9,2.2c1.2,0,2.3-0.5,3.2-1.6c0.9-1.1,1.3-2.7,1.3-5c0-2.4-0.4-4.2-1.3-5.3s-2-1.6-3.4-1.6
		c-1.3,0-2.5,0.5-3.4,1.6C109,373.1,108.5,374.7,108.5,376.8z"/>
	<path class="st4" d="M126.9,377c0-1.9,0.5-3.7,1.4-5.4c0.9-1.7,2.2-3.1,3.9-4c1.7-0.9,3.6-1.4,5.7-1.4c3.2,0,5.9,1,7.9,3.1
		c2.1,2.1,3.1,4.7,3.1,7.9c0,3.2-1,5.9-3.1,8s-4.7,3.2-7.8,3.2c-1.9,0-3.8-0.4-5.6-1.3s-3.1-2.2-4-3.9
		C127.4,381.5,126.9,379.4,126.9,377z M132.7,377.3c0,2.1,0.5,3.7,1.5,4.8s2.2,1.7,3.7,1.7c1.5,0,2.7-0.6,3.7-1.7s1.5-2.8,1.5-4.9
		c0-2.1-0.5-3.7-1.5-4.8s-2.2-1.7-3.7-1.7c-1.5,0-2.7,0.6-3.7,1.7S132.7,375.2,132.7,377.3z"/>
	<path class="st4" d="M157.5,373.1l-5.1-0.9c0.6-2.1,1.6-3.6,3-4.6c1.4-1,3.5-1.5,6.2-1.5c2.5,0,4.4,0.3,5.6,0.9
		c1.2,0.6,2.1,1.3,2.6,2.3c0.5,0.9,0.8,2.6,0.8,5l-0.1,6.6c0,1.9,0.1,3.2,0.3,4.1c0.2,0.9,0.5,1.8,1,2.9h-5.6
		c-0.1-0.4-0.3-0.9-0.5-1.7c-0.1-0.3-0.2-0.6-0.2-0.7c-1,0.9-2,1.6-3.1,2.1c-1.1,0.5-2.3,0.7-3.5,0.7c-2.2,0-3.9-0.6-5.2-1.8
		c-1.3-1.2-1.9-2.7-1.9-4.5c0-1.2,0.3-2.3,0.9-3.2c0.6-0.9,1.4-1.7,2.4-2.2c1-0.5,2.5-0.9,4.5-1.3c2.6-0.5,4.5-1,5.5-1.4v-0.6
		c0-1.1-0.3-1.9-0.8-2.3c-0.5-0.5-1.5-0.7-3-0.7c-1,0-1.8,0.2-2.3,0.6C158.3,371.5,157.8,372.1,157.5,373.1z M165,377.7
		c-0.7,0.2-1.9,0.5-3.4,0.9c-1.6,0.3-2.6,0.7-3.1,1c-0.7,0.5-1.1,1.2-1.1,2c0,0.8,0.3,1.5,0.9,2c0.6,0.6,1.3,0.9,2.2,0.9
		c1,0,2-0.3,2.9-1c0.7-0.5,1.1-1.1,1.3-1.9c0.1-0.5,0.2-1.4,0.2-2.7V377.7z"/>
	<path class="st4" d="M181.4,387.9h-5.6v-21.3h5.2v3c0.9-1.4,1.7-2.4,2.4-2.8c0.7-0.5,1.5-0.7,2.4-0.7c1.3,0,2.5,0.4,3.7,1.1
		l-1.7,4.9c-0.9-0.6-1.8-0.9-2.6-0.9c-0.8,0-1.5,0.2-2,0.7c-0.5,0.4-1,1.2-1.3,2.4c-0.3,1.1-0.5,3.5-0.5,7.1V387.9z"/>
	<path class="st4" d="M211.5,387.9h-5.2v-3.1c-0.9,1.2-1.9,2.1-3.1,2.7c-1.2,0.6-2.4,0.9-3.6,0.9c-2.4,0-4.5-1-6.3-3
		c-1.7-2-2.6-4.7-2.6-8.2c0-3.6,0.8-6.3,2.5-8.2c1.7-1.9,3.8-2.8,6.4-2.8c2.4,0,4.4,1,6.2,3v-10.6h5.6V387.9z M196.5,376.8
		c0,2.3,0.3,3.9,0.9,4.9c0.9,1.5,2.2,2.2,3.8,2.2c1.3,0,2.4-0.6,3.3-1.7c0.9-1.1,1.4-2.7,1.4-4.9c0-2.4-0.4-4.2-1.3-5.3
		s-2-1.6-3.4-1.6c-1.3,0-2.5,0.5-3.4,1.6C197,373.1,196.5,374.7,196.5,376.8z"/>
	<path class="st4" d="M228.7,387.9v-29.1h5.9V383h14.7v4.9H228.7z"/>
	<path class="st4" d="M257.7,373.1l-5.1-0.9c0.6-2.1,1.6-3.6,3-4.6c1.4-1,3.5-1.5,6.2-1.5c2.5,0,4.4,0.3,5.6,0.9
		c1.2,0.6,2.1,1.3,2.6,2.3c0.5,0.9,0.8,2.6,0.8,5l-0.1,6.6c0,1.9,0.1,3.2,0.3,4.1c0.2,0.9,0.5,1.8,1,2.9h-5.6
		c-0.1-0.4-0.3-0.9-0.5-1.7c-0.1-0.3-0.2-0.6-0.2-0.7c-1,0.9-2,1.6-3.1,2.1c-1.1,0.5-2.3,0.7-3.5,0.7c-2.2,0-3.9-0.6-5.2-1.8
		c-1.3-1.2-1.9-2.7-1.9-4.5c0-1.2,0.3-2.3,0.9-3.2c0.6-0.9,1.4-1.7,2.4-2.2c1-0.5,2.5-0.9,4.5-1.3c2.6-0.5,4.5-1,5.5-1.4v-0.6
		c0-1.1-0.3-1.9-0.8-2.3c-0.5-0.5-1.5-0.7-3-0.7c-1,0-1.8,0.2-2.3,0.6C258.5,371.5,258,372.1,257.7,373.1z M265.2,377.7
		c-0.7,0.2-1.9,0.5-3.4,0.9c-1.6,0.3-2.6,0.7-3.1,1c-0.7,0.5-1.1,1.2-1.1,2c0,0.8,0.3,1.5,0.9,2c0.6,0.6,1.3,0.9,2.2,0.9
		c1,0,2-0.3,2.9-1c0.7-0.5,1.1-1.1,1.3-1.9c0.1-0.5,0.2-1.4,0.2-2.7V377.7z"/>
	<path class="st4" d="M273.6,366.6h6l5.1,15.1l5-15.1h5.8l-7.5,20.5l-1.3,3.7c-0.5,1.2-1,2.2-1.4,2.8c-0.4,0.7-1,1.2-1.5,1.6
		c-0.6,0.4-1.3,0.7-2.1,1c-0.8,0.2-1.8,0.3-2.9,0.3c-1.1,0-2.1-0.1-3.2-0.3l-0.5-4.4c0.9,0.2,1.7,0.3,2.4,0.3c1.3,0,2.3-0.4,2.9-1.2
		c0.6-0.8,1.1-1.7,1.4-2.9L273.6,366.6z"/>
	<path class="st4" d="M297.8,377c0-1.9,0.5-3.7,1.4-5.4c0.9-1.7,2.2-3.1,3.9-4c1.7-0.9,3.6-1.4,5.7-1.4c3.2,0,5.9,1,7.9,3.1
		c2.1,2.1,3.1,4.7,3.1,7.9c0,3.2-1,5.9-3.1,8c-2.1,2.1-4.7,3.2-7.8,3.2c-1.9,0-3.8-0.4-5.6-1.3s-3.1-2.2-4-3.9
		C298.3,381.5,297.8,379.4,297.8,377z M303.6,377.3c0,2.1,0.5,3.7,1.5,4.8s2.2,1.7,3.7,1.7s2.7-0.6,3.7-1.7s1.5-2.8,1.5-4.9
		c0-2.1-0.5-3.7-1.5-4.8s-2.2-1.7-3.7-1.7s-2.7,0.6-3.7,1.7S303.6,375.2,303.6,377.3z"/>
	<path class="st4" d="M338.1,387.9v-3.2c-0.8,1.1-1.8,2-3.1,2.7c-1.3,0.7-2.6,1-4,1c-1.4,0-2.7-0.3-3.8-0.9c-1.1-0.6-2-1.5-2.5-2.6
		c-0.5-1.1-0.8-2.7-0.8-4.7v-13.5h5.6v9.8c0,3,0.1,4.8,0.3,5.5c0.2,0.7,0.6,1.2,1.1,1.6c0.5,0.4,1.2,0.6,2.1,0.6
		c1,0,1.8-0.3,2.6-0.8c0.8-0.5,1.3-1.2,1.6-2c0.3-0.8,0.4-2.7,0.4-5.7v-9h5.6v21.3H338.1z"/>
	<path class="st4" d="M358.9,366.6v4.5h-3.8v8.6c0,1.7,0,2.7,0.1,3c0.1,0.3,0.2,0.5,0.5,0.7c0.3,0.2,0.6,0.3,1,0.3
		c0.5,0,1.3-0.2,2.3-0.5l0.5,4.4c-1.3,0.6-2.8,0.8-4.4,0.8c-1,0-1.9-0.2-2.7-0.5c-0.8-0.3-1.4-0.8-1.8-1.3c-0.4-0.5-0.6-1.3-0.8-2.2
		c-0.1-0.7-0.2-2-0.2-4v-9.3h-2.6v-4.5h2.6v-4.2l5.6-3.3v7.5H358.9z"/>
</g>
<g class="st1">
	<path class="st4" d="M736.5,377.1l5.7,1.8c-0.9,3.2-2.3,5.6-4.4,7.1c-2,1.6-4.6,2.3-7.8,2.3c-3.9,0-7.1-1.3-9.6-4
		c-2.5-2.7-3.8-6.3-3.8-10.9c0-4.9,1.3-8.7,3.8-11.4c2.5-2.7,5.8-4.1,9.9-4.1c3.6,0,6.5,1.1,8.7,3.2c1.3,1.3,2.3,3.1,3,5.4l-5.9,1.4
		c-0.3-1.5-1.1-2.7-2.2-3.6c-1.1-0.9-2.4-1.3-4-1.3c-2.2,0-3.9,0.8-5.3,2.3c-1.4,1.6-2,4.1-2,7.6c0,3.7,0.7,6.4,2,7.9
		c1.3,1.6,3.1,2.4,5.2,2.4c1.6,0,2.9-0.5,4.1-1.5C735.2,380.8,736,379.3,736.5,377.1z"/>
	<path class="st4" d="M761.3,387.9v-3.2c-0.8,1.1-1.8,2-3.1,2.7c-1.3,0.7-2.6,1-4,1c-1.4,0-2.7-0.3-3.8-0.9c-1.1-0.6-2-1.5-2.5-2.6
		c-0.5-1.1-0.8-2.7-0.8-4.7v-13.5h5.6v9.8c0,3,0.1,4.8,0.3,5.5c0.2,0.7,0.6,1.2,1.1,1.6c0.5,0.4,1.2,0.6,2.1,0.6
		c1,0,1.8-0.3,2.6-0.8c0.8-0.5,1.3-1.2,1.6-2c0.3-0.8,0.4-2.7,0.4-5.7v-9h5.6v21.3H761.3z"/>
	<path class="st4" d="M770.3,381.8l5.6-0.9c0.2,1.1,0.7,1.9,1.5,2.5c0.7,0.6,1.8,0.9,3.1,0.9c1.5,0,2.5-0.3,3.3-0.8
		c0.5-0.4,0.7-0.9,0.7-1.5c0-0.4-0.1-0.8-0.4-1.1c-0.3-0.3-0.9-0.5-1.9-0.7c-4.5-1-7.4-1.9-8.6-2.7c-1.7-1.1-2.5-2.7-2.5-4.8
		c0-1.8,0.7-3.4,2.2-4.6c1.5-1.3,3.7-1.9,6.8-1.9c2.9,0,5.1,0.5,6.5,1.4c1.4,0.9,2.4,2.3,2.9,4.2l-5.3,1c-0.2-0.8-0.7-1.5-1.3-1.9
		c-0.6-0.4-1.5-0.7-2.7-0.7c-1.5,0-2.5,0.2-3.2,0.6c-0.4,0.3-0.6,0.7-0.6,1.1c0,0.4,0.2,0.7,0.6,1c0.5,0.4,2.3,0.9,5.3,1.6
		s5.1,1.5,6.3,2.5c1.2,1,1.8,2.4,1.8,4.2c0,1.9-0.8,3.6-2.4,5c-1.6,1.4-4,2.1-7.2,2.1c-2.9,0-5.2-0.6-6.9-1.8
		C772,385.5,770.9,383.9,770.3,381.8z"/>
	<path class="st4" d="M804.9,366.6v4.5H801v8.6c0,1.7,0,2.7,0.1,3c0.1,0.3,0.2,0.5,0.5,0.7c0.3,0.2,0.6,0.3,1,0.3
		c0.5,0,1.3-0.2,2.3-0.5l0.5,4.4c-1.3,0.6-2.8,0.8-4.4,0.8c-1,0-1.9-0.2-2.7-0.5c-0.8-0.3-1.4-0.8-1.8-1.3c-0.4-0.5-0.6-1.3-0.8-2.2
		c-0.1-0.7-0.2-2-0.2-4v-9.3h-2.6v-4.5h2.6v-4.2l5.6-3.3v7.5H804.9z"/>
	<path class="st4" d="M807.5,377c0-1.9,0.5-3.7,1.4-5.4c0.9-1.7,2.2-3.1,3.9-4c1.7-0.9,3.6-1.4,5.7-1.4c3.2,0,5.9,1,7.9,3.1
		c2.1,2.1,3.1,4.7,3.1,7.9c0,3.2-1,5.9-3.1,8s-4.7,3.2-7.8,3.2c-1.9,0-3.8-0.4-5.6-1.3s-3.1-2.2-4-3.9
		C807.9,381.5,807.5,379.4,807.5,377z M813.2,377.3c0,2.1,0.5,3.7,1.5,4.8s2.2,1.7,3.7,1.7c1.5,0,2.7-0.6,3.7-1.7s1.5-2.8,1.5-4.9
		c0-2.1-0.5-3.7-1.5-4.8s-2.2-1.7-3.7-1.7c-1.5,0-2.7,0.6-3.7,1.7S813.2,375.2,813.2,377.3z"/>
	<path class="st4" d="M833.4,366.6h5.2v2.9c1.9-2.3,4.1-3.4,6.6-3.4c1.4,0,2.5,0.3,3.5,0.8s1.8,1.4,2.5,2.5c0.9-1.1,1.9-2,3-2.5
		s2.2-0.8,3.5-0.8c1.6,0,2.9,0.3,4,1s1.9,1.6,2.4,2.8c0.4,0.9,0.6,2.4,0.6,4.4v13.6h-5.6v-12.2c0-2.1-0.2-3.5-0.6-4.1
		c-0.5-0.8-1.3-1.2-2.4-1.2c-0.8,0-1.5,0.2-2.2,0.7c-0.7,0.5-1.2,1.2-1.5,2.1c-0.3,0.9-0.5,2.4-0.5,4.4v10.2h-5.6v-11.7
		c0-2.1-0.1-3.4-0.3-4s-0.5-1-0.9-1.3c-0.4-0.3-1-0.4-1.7-0.4c-0.9,0-1.6,0.2-2.3,0.7c-0.7,0.5-1.2,1.1-1.5,2
		c-0.3,0.9-0.5,2.3-0.5,4.4v10.3h-5.6V366.6z"/>
	<path class="st4" d="M881.7,358.6h10.8c2.4,0,4.3,0.2,5.6,0.6c1.7,0.5,3.2,1.4,4.4,2.7c1.2,1.3,2.2,2.9,2.8,4.8
		c0.6,1.9,1,4.2,1,6.9c0,2.4-0.3,4.5-0.9,6.2c-0.7,2.1-1.8,3.9-3.1,5.2c-1,1-2.4,1.8-4.2,2.3c-1.3,0.4-3.1,0.6-5.2,0.6h-11.2V358.6z
		 M887.6,363.5V383h4.4c1.7,0,2.8-0.1,3.6-0.3c1-0.2,1.8-0.6,2.4-1.2c0.6-0.6,1.2-1.5,1.6-2.8c0.4-1.3,0.6-3.1,0.6-5.4
		c0-2.3-0.2-4-0.6-5.2c-0.4-1.2-1-2.2-1.7-2.8c-0.7-0.7-1.6-1.1-2.7-1.4c-0.8-0.2-2.4-0.3-4.9-0.3H887.6z"/>
	<path class="st4" d="M915.5,373.1l-5.1-0.9c0.6-2.1,1.6-3.6,3-4.6c1.4-1,3.5-1.5,6.2-1.5c2.5,0,4.4,0.3,5.6,0.9
		c1.2,0.6,2.1,1.3,2.6,2.3c0.5,0.9,0.8,2.6,0.8,5l-0.1,6.6c0,1.9,0.1,3.2,0.3,4.1c0.2,0.9,0.5,1.8,1,2.9h-5.6
		c-0.1-0.4-0.3-0.9-0.5-1.7c-0.1-0.3-0.2-0.6-0.2-0.7c-1,0.9-2,1.6-3.1,2.1c-1.1,0.5-2.3,0.7-3.5,0.7c-2.2,0-3.9-0.6-5.2-1.8
		c-1.3-1.2-1.9-2.7-1.9-4.5c0-1.2,0.3-2.3,0.9-3.2c0.6-0.9,1.4-1.7,2.4-2.2c1-0.5,2.5-0.9,4.5-1.3c2.6-0.5,4.5-1,5.5-1.4v-0.6
		c0-1.1-0.3-1.9-0.8-2.3c-0.5-0.5-1.5-0.7-3-0.7c-1,0-1.8,0.2-2.3,0.6C916.3,371.5,915.8,372.1,915.5,373.1z M923,377.7
		c-0.7,0.2-1.9,0.5-3.4,0.9c-1.6,0.3-2.6,0.7-3.1,1c-0.7,0.5-1.1,1.2-1.1,2c0,0.8,0.3,1.5,0.9,2c0.6,0.6,1.3,0.9,2.2,0.9
		c1,0,2-0.3,2.9-1c0.7-0.5,1.1-1.1,1.3-1.9c0.1-0.5,0.2-1.4,0.2-2.7V377.7z"/>
	<path class="st4" d="M932.1,381.8l5.6-0.9c0.2,1.1,0.7,1.9,1.5,2.5c0.7,0.6,1.8,0.9,3.1,0.9c1.5,0,2.5-0.3,3.3-0.8
		c0.5-0.4,0.7-0.9,0.7-1.5c0-0.4-0.1-0.8-0.4-1.1c-0.3-0.3-0.9-0.5-1.9-0.7c-4.5-1-7.4-1.9-8.6-2.7c-1.7-1.1-2.5-2.7-2.5-4.8
		c0-1.8,0.7-3.4,2.2-4.6c1.5-1.3,3.7-1.9,6.8-1.9c2.9,0,5.1,0.5,6.5,1.4c1.4,0.9,2.4,2.3,2.9,4.2l-5.3,1c-0.2-0.8-0.7-1.5-1.3-1.9
		c-0.6-0.4-1.5-0.7-2.7-0.7c-1.5,0-2.5,0.2-3.2,0.6c-0.4,0.3-0.6,0.7-0.6,1.1c0,0.4,0.2,0.7,0.6,1c0.5,0.4,2.3,0.9,5.3,1.6
		s5.1,1.5,6.3,2.5c1.2,1,1.8,2.4,1.8,4.2c0,1.9-0.8,3.6-2.4,5c-1.6,1.4-4,2.1-7.2,2.1c-2.9,0-5.2-0.6-6.9-1.8
		C933.7,385.5,932.6,383.9,932.1,381.8z"/>
	<path class="st4" d="M962.5,358.6v10.8c1.8-2.1,4-3.2,6.5-3.2c1.3,0,2.5,0.2,3.5,0.7s1.8,1.1,2.4,1.8c0.5,0.7,0.9,1.6,1.1,2.5
		c0.2,0.9,0.3,2.3,0.3,4.2v12.5h-5.6v-11.2c0-2.2-0.1-3.6-0.3-4.2c-0.2-0.6-0.6-1.1-1.1-1.4c-0.5-0.4-1.2-0.5-2-0.5
		c-0.9,0-1.8,0.2-2.5,0.7c-0.7,0.5-1.3,1.1-1.6,2.1c-0.3,0.9-0.5,2.3-0.5,4.1v10.7h-5.6v-29.3H962.5z"/>
	<path class="st4" d="M981.7,387.9v-29.3h5.6v10.6c1.7-2,3.8-3,6.2-3c2.6,0,4.7,0.9,6.4,2.8c1.7,1.9,2.5,4.6,2.5,8.1
		c0,3.6-0.9,6.4-2.6,8.4c-1.7,2-3.8,2.9-6.3,2.9c-1.2,0-2.4-0.3-3.6-0.9c-1.2-0.6-2.2-1.5-3.1-2.7v3.1H981.7z M987.3,376.8
		c0,2.2,0.3,3.8,1,4.9c1,1.5,2.3,2.2,3.9,2.2c1.2,0,2.3-0.5,3.2-1.6c0.9-1.1,1.3-2.7,1.3-5c0-2.4-0.4-4.2-1.3-5.3s-2-1.6-3.4-1.6
		c-1.3,0-2.5,0.5-3.4,1.6S987.3,374.7,987.3,376.8z"/>
	<path class="st4" d="M1005.7,377c0-1.9,0.5-3.7,1.4-5.4c0.9-1.7,2.2-3.1,3.9-4c1.7-0.9,3.6-1.4,5.7-1.4c3.2,0,5.9,1,7.9,3.1
		c2.1,2.1,3.1,4.7,3.1,7.9c0,3.2-1,5.9-3.1,8c-2.1,2.1-4.7,3.2-7.8,3.2c-1.9,0-3.8-0.4-5.6-1.3s-3.1-2.2-4-3.9
		C1006.1,381.5,1005.7,379.4,1005.7,377z M1011.4,377.3c0,2.1,0.5,3.7,1.5,4.8c1,1.1,2.2,1.7,3.7,1.7c1.5,0,2.7-0.6,3.7-1.7
		s1.5-2.8,1.5-4.9c0-2.1-0.5-3.7-1.5-4.8s-2.2-1.7-3.7-1.7c-1.5,0-2.7,0.6-3.7,1.7C1011.9,373.6,1011.4,375.2,1011.4,377.3z"/>
	<path class="st4" d="M1036.2,373.1l-5.1-0.9c0.6-2.1,1.6-3.6,3-4.6c1.4-1,3.5-1.5,6.2-1.5c2.5,0,4.4,0.3,5.6,0.9
		c1.2,0.6,2.1,1.3,2.6,2.3s0.8,2.6,0.8,5l-0.1,6.6c0,1.9,0.1,3.2,0.3,4.1s0.5,1.8,1,2.9h-5.6c-0.1-0.4-0.3-0.9-0.5-1.7
		c-0.1-0.3-0.2-0.6-0.2-0.7c-1,0.9-2,1.6-3.1,2.1c-1.1,0.5-2.3,0.7-3.5,0.7c-2.2,0-3.9-0.6-5.2-1.8c-1.3-1.2-1.9-2.7-1.9-4.5
		c0-1.2,0.3-2.3,0.9-3.2c0.6-0.9,1.4-1.7,2.4-2.2c1-0.5,2.5-0.9,4.5-1.3c2.6-0.5,4.5-1,5.5-1.4v-0.6c0-1.1-0.3-1.9-0.8-2.3
		c-0.5-0.5-1.5-0.7-3-0.7c-1,0-1.8,0.2-2.3,0.6C1037,371.5,1036.6,372.1,1036.2,373.1z M1043.8,377.7c-0.7,0.2-1.9,0.5-3.4,0.9
		c-1.6,0.3-2.6,0.7-3.1,1c-0.7,0.5-1.1,1.2-1.1,2c0,0.8,0.3,1.5,0.9,2c0.6,0.6,1.3,0.9,2.2,0.9c1,0,2-0.3,2.9-1
		c0.7-0.5,1.1-1.1,1.3-1.9c0.1-0.5,0.2-1.4,0.2-2.7V377.7z"/>
	<path class="st4" d="M1060.2,387.9h-5.6v-21.3h5.2v3c0.9-1.4,1.7-2.4,2.4-2.8c0.7-0.5,1.5-0.7,2.4-0.7c1.3,0,2.5,0.4,3.7,1.1
		l-1.7,4.9c-0.9-0.6-1.8-0.9-2.6-0.9c-0.8,0-1.5,0.2-2,0.7c-0.5,0.4-1,1.2-1.3,2.4c-0.3,1.1-0.5,3.5-0.5,7.1V387.9z"/>
	<path class="st4" d="M1090.3,387.9h-5.2v-3.1c-0.9,1.2-1.9,2.1-3.1,2.7s-2.4,0.9-3.6,0.9c-2.4,0-4.5-1-6.3-3
		c-1.7-2-2.6-4.7-2.6-8.2c0-3.6,0.8-6.3,2.5-8.2c1.7-1.9,3.8-2.8,6.4-2.8c2.4,0,4.4,1,6.2,3v-10.6h5.6V387.9z M1075.3,376.8
		c0,2.3,0.3,3.9,0.9,4.9c0.9,1.5,2.2,2.2,3.8,2.2c1.3,0,2.4-0.6,3.3-1.7c0.9-1.1,1.4-2.7,1.4-4.9c0-2.4-0.4-4.2-1.3-5.3
		s-2-1.6-3.4-1.6c-1.3,0-2.5,0.5-3.4,1.6C1075.7,373.1,1075.3,374.7,1075.3,376.8z"/>
	<path class="st4" d="M1093.8,381.8l5.6-0.9c0.2,1.1,0.7,1.9,1.5,2.5c0.7,0.6,1.8,0.9,3.1,0.9c1.5,0,2.5-0.3,3.3-0.8
		c0.5-0.4,0.7-0.9,0.7-1.5c0-0.4-0.1-0.8-0.4-1.1c-0.3-0.3-0.9-0.5-1.9-0.7c-4.5-1-7.4-1.9-8.6-2.7c-1.7-1.1-2.5-2.7-2.5-4.8
		c0-1.8,0.7-3.4,2.2-4.6c1.5-1.3,3.7-1.9,6.8-1.9c2.9,0,5.1,0.5,6.5,1.4c1.4,0.9,2.4,2.3,2.9,4.2l-5.3,1c-0.2-0.8-0.7-1.5-1.3-1.9
		c-0.6-0.4-1.5-0.7-2.7-0.7c-1.5,0-2.5,0.2-3.2,0.6c-0.4,0.3-0.6,0.7-0.6,1.1c0,0.4,0.2,0.7,0.6,1c0.5,0.4,2.3,0.9,5.3,1.6
		s5.1,1.5,6.3,2.5c1.2,1,1.8,2.4,1.8,4.2c0,1.9-0.8,3.6-2.4,5c-1.6,1.4-4,2.1-7.2,2.1c-2.9,0-5.2-0.6-6.9-1.8
		C1095.5,385.5,1094.4,383.9,1093.8,381.8z"/>
</g>
<g class="st1">
	<path class="st4" d="M1521.7,387.9v-29.3h20.1v5h-14.2v6.9h12.3v5h-12.3v12.5H1521.7z"/>
	<path class="st4" d="M1560.2,387.9v-3.2c-0.8,1.1-1.8,2-3.1,2.7c-1.3,0.7-2.6,1-4,1c-1.4,0-2.7-0.3-3.8-0.9c-1.1-0.6-2-1.5-2.5-2.6
		c-0.5-1.1-0.8-2.7-0.8-4.7v-13.5h5.6v9.8c0,3,0.1,4.8,0.3,5.5c0.2,0.7,0.6,1.2,1.1,1.6c0.5,0.4,1.2,0.6,2.1,0.6
		c1,0,1.8-0.3,2.6-0.8c0.8-0.5,1.3-1.2,1.6-2c0.3-0.8,0.4-2.7,0.4-5.7v-9h5.6v21.3H1560.2z"/>
	<path class="st4" d="M1570.9,387.9v-29.3h5.6v29.3H1570.9z"/>
	<path class="st4" d="M1581.9,387.9v-29.3h5.6v29.3H1581.9z"/>
	<path class="st4" d="M1590.2,366.6h6l5.1,15.1l5-15.1h5.8l-7.5,20.5l-1.3,3.7c-0.5,1.2-1,2.2-1.4,2.8c-0.4,0.7-1,1.2-1.5,1.6
		c-0.6,0.4-1.3,0.7-2.1,1c-0.8,0.2-1.8,0.3-2.9,0.3c-1.1,0-2.1-0.1-3.2-0.3l-0.5-4.4c0.9,0.2,1.7,0.3,2.4,0.3c1.3,0,2.3-0.4,2.9-1.2
		c0.6-0.8,1.1-1.7,1.4-2.9L1590.2,366.6z"/>
	<path class="st4" d="M1626.2,358.6h10.8c2.4,0,4.3,0.2,5.6,0.6c1.7,0.5,3.2,1.4,4.4,2.7c1.2,1.3,2.2,2.9,2.8,4.8
		c0.6,1.9,1,4.2,1,6.9c0,2.4-0.3,4.5-0.9,6.2c-0.7,2.1-1.8,3.9-3.1,5.2c-1,1-2.4,1.8-4.2,2.3c-1.3,0.4-3.1,0.6-5.2,0.6h-11.2V358.6z
		 M1632.2,363.5V383h4.4c1.7,0,2.8-0.1,3.6-0.3c1-0.2,1.8-0.6,2.4-1.2c0.6-0.6,1.2-1.5,1.6-2.8c0.4-1.3,0.6-3.1,0.6-5.4
		c0-2.3-0.2-4-0.6-5.2c-0.4-1.2-1-2.2-1.7-2.8c-0.7-0.7-1.6-1.1-2.7-1.4c-0.8-0.2-2.4-0.3-4.9-0.3H1632.2z"/>
	<path class="st4" d="M1652.8,366.6h6l5.1,15.1l5-15.1h5.8l-7.5,20.5l-1.3,3.7c-0.5,1.2-1,2.2-1.4,2.8c-0.4,0.7-1,1.2-1.5,1.6
		c-0.6,0.4-1.3,0.7-2.1,1c-0.8,0.2-1.8,0.3-2.9,0.3c-1.1,0-2.1-0.1-3.2-0.3l-0.5-4.4c0.9,0.2,1.7,0.3,2.4,0.3c1.3,0,2.3-0.4,2.9-1.2
		c0.6-0.8,1.1-1.7,1.4-2.9L1652.8,366.6z"/>
	<path class="st4" d="M1697.1,387.9h-5.6v-10.9c0-2.3-0.1-3.8-0.4-4.5s-0.6-1.2-1.2-1.6c-0.5-0.4-1.2-0.6-2-0.6
		c-1,0-1.8,0.3-2.6,0.8c-0.8,0.5-1.3,1.2-1.6,2.1c-0.3,0.9-0.4,2.5-0.4,4.9v9.6h-5.6v-21.3h5.2v3.1c1.9-2.4,4.2-3.6,7-3.6
		c1.2,0,2.4,0.2,3.4,0.7c1,0.4,1.8,1,2.3,1.7c0.5,0.7,0.9,1.5,1.1,2.4c0.2,0.9,0.3,2.1,0.3,3.8V387.9z"/>
	<path class="st4" d="M1706.6,373.1l-5.1-0.9c0.6-2.1,1.6-3.6,3-4.6c1.4-1,3.5-1.5,6.2-1.5c2.5,0,4.4,0.3,5.6,0.9
		c1.2,0.6,2.1,1.3,2.6,2.3c0.5,0.9,0.8,2.6,0.8,5l-0.1,6.6c0,1.9,0.1,3.2,0.3,4.1c0.2,0.9,0.5,1.8,1,2.9h-5.6
		c-0.1-0.4-0.3-0.9-0.5-1.7c-0.1-0.3-0.2-0.6-0.2-0.7c-1,0.9-2,1.6-3.1,2.1c-1.1,0.5-2.3,0.7-3.5,0.7c-2.2,0-3.9-0.6-5.2-1.8
		c-1.3-1.2-1.9-2.7-1.9-4.5c0-1.2,0.3-2.3,0.9-3.2c0.6-0.9,1.4-1.7,2.4-2.2c1-0.5,2.5-0.9,4.5-1.3c2.6-0.5,4.5-1,5.5-1.4v-0.6
		c0-1.1-0.3-1.9-0.8-2.3c-0.5-0.5-1.5-0.7-3-0.7c-1,0-1.8,0.2-2.3,0.6C1707.4,371.5,1707,372.1,1706.6,373.1z M1714.2,377.7
		c-0.7,0.2-1.9,0.5-3.4,0.9c-1.6,0.3-2.6,0.7-3.1,1c-0.7,0.5-1.1,1.2-1.1,2c0,0.8,0.3,1.5,0.9,2c0.6,0.6,1.3,0.9,2.2,0.9
		c1,0,2-0.3,2.9-1c0.7-0.5,1.1-1.1,1.3-1.9c0.1-0.5,0.2-1.4,0.2-2.7V377.7z"/>
	<path class="st4" d="M1724.4,366.6h5.2v2.9c1.9-2.3,4.1-3.4,6.6-3.4c1.4,0,2.5,0.3,3.5,0.8s1.8,1.4,2.5,2.5c0.9-1.1,1.9-2,3-2.5
		s2.2-0.8,3.5-0.8c1.6,0,2.9,0.3,4,1s1.9,1.6,2.4,2.8c0.4,0.9,0.6,2.4,0.6,4.4v13.6h-5.6v-12.2c0-2.1-0.2-3.5-0.6-4.1
		c-0.5-0.8-1.3-1.2-2.4-1.2c-0.8,0-1.5,0.2-2.2,0.7s-1.2,1.2-1.5,2.1c-0.3,0.9-0.5,2.4-0.5,4.4v10.2h-5.6v-11.7c0-2.1-0.1-3.4-0.3-4
		s-0.5-1-0.9-1.3c-0.4-0.3-1-0.4-1.7-0.4c-0.9,0-1.6,0.2-2.3,0.7c-0.7,0.5-1.2,1.1-1.5,2c-0.3,0.9-0.5,2.3-0.5,4.4v10.3h-5.6V366.6z
		"/>
	<path class="st4" d="M1760.9,363.8v-5.2h5.6v5.2H1760.9z M1760.9,387.9v-21.3h5.6v21.3H1760.9z"/>
	<path class="st4" d="M1790.4,372.9l-5.5,1c-0.2-1.1-0.6-1.9-1.3-2.5c-0.7-0.6-1.5-0.8-2.6-0.8c-1.4,0-2.5,0.5-3.4,1.5
		s-1.3,2.6-1.3,4.9c0,2.5,0.4,4.3,1.3,5.3s2,1.6,3.4,1.6c1.1,0,1.9-0.3,2.6-0.9s1.2-1.7,1.4-3.1l5.5,0.9c-0.6,2.5-1.7,4.5-3.3,5.7
		c-1.6,1.3-3.8,1.9-6.5,1.9c-3.1,0-5.6-1-7.4-2.9c-1.8-2-2.8-4.7-2.8-8.1c0-3.5,0.9-6.2,2.8-8.2c1.9-2,4.4-2.9,7.5-2.9
		c2.6,0,4.6,0.6,6.2,1.7S1789.7,370.7,1790.4,372.9z"/>
</g>
</svg>
