<?xml version="1.0" encoding="utf-8"?>
<!-- Generator: Adobe Illustrator 26.5.0, SVG Export Plug-In . SVG Version: 6.00 Build 0)  -->
<svg version="1.1" id="Layer_1" xmlns="http://www.w3.org/2000/svg" xmlns:xlink="http://www.w3.org/1999/xlink" x="0px" y="0px"
	 viewBox="0 0 1520.6 707" style="enable-background:new 0 0 1520.6 707;" xml:space="preserve">
<style type="text/css">
	.st0{fill:#D7E4F3;stroke:#000000;stroke-width:2;stroke-opacity:0;}
	.st1{fill:#333333;}
	.st2{fill:none;stroke:#666666;}
	.st3{fill:#666666;}
	.st4{fill:#666666;stroke:#666666;}
	.st5{enable-background:new    ;}
	.st6{fill:#5E5E5E;}
	.st7{fill:none;stroke:#FF1269;stroke-linecap:round;stroke-miterlimit:10;}
</style>
<path id="Path" class="st0" d="M210.8,77.4c0-4.1,3.3-7.3,7.3-7.3h113.8c4.1,0,7.3,3.3,7.3,7.3v40.4c0,4.1-3.3,7.3-7.3,7.3H218.2
	c-4,0-7.3-3.3-7.3-7.3c0,0,0,0,0,0V77.4z"/>
<g id="i">
	<g id="aL-link">
		<polyline id="aL" class="st1" points="261.1,100.9 261.1,96.1 256.1,96.1 256.1,100.9 253.7,100.9 253.7,89.6 256.1,89.6 
			256.1,94.1 261.1,94.1 261.1,89.6 263.4,89.6 263.4,100.9 261.1,100.9 		"/>
	</g>
	<g id="aM-link">
		<path id="aM" class="st1" d="M269.5,92c2.9,0,4.4,1.7,4.4,4.6s-1.6,4.5-4.5,4.5s-4.4-1.7-4.4-4.5S266.7,92,269.5,92z M269.5,99.5
			c1.6,0,2.1-1.3,2.1-3c0-1.8-0.5-3-2-3s-2.1,1.2-2.1,3S268,99.5,269.5,99.5"/>
	</g>
	<g id="aN-link">
		<path id="aN" class="st1" d="M284.6,93.7c-2.4,0.4-1.3,4.6-1.6,7.2h-2.2V96c0-1.2-0.2-2.2-1.3-2.3c-2.4,0.5-1.2,4.6-1.5,7.2h-2.3
			v-8.7h2.1c0,0.6,0,1.2,0.1,1.7c0.5-2.4,4.6-2.6,5,0c0.6-1,1.1-2,2.7-1.9c3.8,0,2.3,5.3,2.6,8.9H286V96
			C286,94.9,285.8,93.8,284.6,93.7"/>
	</g>
	<g id="aO-link">
		<path id="aO" class="st1" d="M297.7,98.7c-0.6,1.6-2.1,2.5-3.8,2.4c-2.8-0.1-4.1-1.7-4.1-4.6s1.4-4.5,4.1-4.5s3.8,2.1,3.9,5h-5.6
			c0,1.4,0.4,2.5,1.8,2.6c0.7,0.1,1.4-0.3,1.6-1L297.7,98.7z M295.6,95.6c0.2-2.1-2.6-2.9-3.2-1c-0.1,0.3-0.2,0.7-0.2,1H295.6"/>
	</g>
</g>
<line id="Path-2" class="st2" x1="275.1" y1="125.6" x2="275.1" y2="149.5"/>
<polygon id="Path-3" class="st3" points="275.5,125.7 274.6,125.7 274.6,125.2 275.5,125.2 "/>
<polygon id="Path-4" class="st4" points="275.1,163.1 270.8,150 279.3,150 "/>
<path id="Path-5" class="st0" d="M210.8,171.9c0-4,3.3-7.3,7.3-7.3c0,0,0,0,0,0h113.8c4.1,0,7.3,3.3,7.3,7.3v39.7
	c0,4.1-3.3,7.3-7.3,7.3H218.2c-4.1,0-7.3-3.3-7.3-7.3V171.9z"/>
<g id="j">
	<g id="aP-link">
		<path id="aP" class="st1" d="M235.6,195.1c-3.2,0-4.8-1.9-5-5.1c-0.2-4.2,4-6.1,7.6-4.4c0.7,0.4,1.2,1,1.5,1.7l-1.3,0.4
			c-0.6-1.1-1.8-1.7-3-1.6c-2.4,0-3.5,1.6-3.5,3.9s1.1,4,3.6,4c1.1,0.1,2.3-0.3,3.1-1.1v-1.8h-2.9V190h4.2v3.4
			C238.7,194.5,237.2,195.1,235.6,195.1"/>
	</g>
	<g id="aQ-link">
		<polyline id="aQ" class="st1" points="242,195 242,184.6 243.2,184.6 243.2,195 242,195 		"/>
	</g>
	<g id="aR-link">
		<path id="aR" class="st1" d="M248.1,187.3c2.5,0,3.4,1.5,3.4,3.9s-1.1,3.9-3.4,3.9s-3.3-1.5-3.3-3.9
			C244.7,188.6,245.9,187.3,248.1,187.3z M248.1,194.2c1.8,0,2.1-1.2,2.1-3s-0.3-3-2-3s-2.1,1.3-2.1,3S246.5,194.1,248.1,194.2"/>
	</g>
	<g id="aS-link">
		<path id="aS" class="st1" d="M256.6,187.3c2.1,0,2.7,1.6,2.8,3.9c0,2.6-0.9,4-2.8,4c-1,0.1-1.9-0.4-2.3-1.3l-0.1,1.2H253v-10.4
			h1.3v4C254.7,187.7,255.6,187.1,256.6,187.3z M256.3,194.2c1.6,0,1.8-1.4,1.8-3s-0.2-3-1.8-2.9s-2,1.3-2,3
			S254.7,194.1,256.3,194.2"/>
	</g>
	<g id="aT-link">
		<path id="aT" class="st1" d="M265.6,193.5c-0.5,1-1.6,1.6-2.7,1.6c-1.2,0.1-2.2-0.7-2.3-1.9c0-0.1,0-0.2,0-0.4
			c0-2.5,2.5-2.5,5-2.5c0.1-1.4-0.4-2.1-1.6-2.1c-1,0-1.6,0.3-1.7,1.2l-1.3-0.1c0.2-1.5,1.3-2.1,3-2.1s2.9,0.8,2.9,2.5v3.2
			c0,0.8,0.3,1.3,1.1,1.1v0.8C266.7,195.3,265.5,194.8,265.6,193.5z M261.9,192.9c-0.1,0.7,0.4,1.2,1.1,1.3c0.1,0,0.1,0,0.2,0
			c1.6-0.1,2.5-1.1,2.4-2.9C263.9,191.3,261.9,191,261.9,192.9"/>
	</g>
	<g id="aQ-link-2">
		<polyline id="aQ-2" class="st1" points="268.9,195 268.9,184.6 270.1,184.6 270.1,195 268.9,195 		"/>
	</g>
</g>
<g id="k">
	<g id="aU-link">
		<path id="aU" class="st1" d="M282.4,187.5c-0.2-1.9-4.9-2.1-4.9,0.1c0.5,3,6.3,0.6,6.5,4.7c0.1,3.1-4.8,3.4-6.9,2.2
			c-0.7-0.4-1.1-1.1-1.3-1.8l1.3-0.3c0.2,2.2,5.6,2.5,5.6,0c0-3.1-6.1-0.6-6.4-4.7c-0.2-3.2,5.8-3.3,7.1-1.4c0.2,0.3,0.3,0.6,0.4,1"
			/>
	</g>
	<g id="aV-link">
		<path id="aV" class="st1" d="M288.5,187.3c2.5,0,3.4,1.7,3.3,4.2h-5.4c0,1.6,0.5,2.6,2.1,2.7c0.8,0.1,1.6-0.4,1.9-1.1l1.1,0.3
			c-0.5,1.2-1.8,1.9-3,1.8c-2.3,0-3.5-1.5-3.5-4S286.2,187.3,288.5,187.3z M290.6,190.5c0.3-1.1-0.4-2.2-1.5-2.4
			c-1-0.3-2.1,0.3-2.4,1.3c-0.2,0.4-0.2,0.7-0.2,1.1H290.6"/>
	</g>
	<g id="aT-link-2">
		<path id="aT-2" class="st1" d="M298.1,193.5c-0.5,1-1.6,1.6-2.7,1.6c-1.2,0.1-2.2-0.7-2.3-1.9c0-0.1,0-0.2,0-0.4
			c0-2.5,2.5-2.5,5-2.5c0.1-1.4-0.4-2.1-1.6-2.1c-1,0-1.6,0.3-1.7,1.2l-1.3-0.1c0.2-1.5,1.3-2.1,3-2.1s2.9,0.8,2.9,2.5v3.2
			c0,0.8,0.3,1.3,1.1,1.1v0.8C299.2,195.3,298,194.8,298.1,193.5z M294.4,192.9c-0.1,0.7,0.4,1.2,1.1,1.3c0.1,0,0.1,0,0.2,0
			c1.6-0.1,2.5-1.1,2.4-2.9C296.3,191.3,294.4,191,294.4,192.9"/>
	</g>
	<g id="aW-link">
		<path id="aW" class="st1" d="M304.9,188.5c-3.1-0.6-2.1,3.6-2.3,6.5h-1.3v-7.5h1.2c0,0.5,0,1,0.1,1.6c0.2-1.1,0.9-1.9,2.3-1.6
			L304.9,188.5"/>
	</g>
	<g id="aX-link">
		<path id="aX" class="st1" d="M308.9,188.2c-1.6,0-1.9,1.3-1.9,2.9s0.4,3,1.9,3c0.9,0.1,1.6-0.6,1.7-1.4c0,0,0,0,0-0.1l1.3,0.1
			c-0.2,1.5-1.5,2.5-2.9,2.4c-2.3,0-3-1.6-3.2-3.9c-0.4-3.7,4-5.2,5.8-2.5c0.1,0.3,0.2,0.6,0.3,0.9l-1.3,0.1
			C310.5,188.8,309.8,188.2,308.9,188.2"/>
	</g>
	<g id="aY-link">
		<path id="aY" class="st1" d="M316.5,188.2c-2.9,0-1.7,4.1-1.9,6.7h-1.3v-10.4h1.3v4.1c0.4-0.9,1.4-1.5,2.4-1.4
			c3.5,0,2.1,4.6,2.4,7.7H318v-4.8C318.1,188.9,317.7,188.2,316.5,188.2"/>
	</g>
</g>
<path id="Path-6" class="st0" d="M210.8,282c0-4.1,3.3-7.3,7.3-7.4c0,0,0,0,0,0h124.1c4.1,0,7.3,3.3,7.3,7.3c0,0,0,0,0,0v39.7
	c0,4.1-3.3,7.3-7.3,7.3H218.2c-4.1,0-7.3-3.3-7.3-7.3V282z"/>
<g id="l">
	<g id="aU-link-2">
		<path id="aU-2" class="st1" d="M230.9,297.6c-0.2-1.9-4.9-2.1-4.9,0.1c0.6,3,6.3,0.5,6.5,4.7c0.1,3.1-4.8,3.5-6.9,2.2
			c-0.7-0.4-1.1-1.1-1.3-1.8l1.3-0.3c0.2,2.2,5.6,2.5,5.6,0c0-3.1-6.1-0.6-6.4-4.7c-0.2-3.2,5.7-3.3,7.1-1.4c0.2,0.3,0.3,0.6,0.4,1"
			/>
	</g>
	<g id="aZ-link">
		<path id="aZ" class="st1" d="M234,295.9v-1.2h1.3v1.2H234z M234,305.1v-7.5h1.3v7.5H234"/>
	</g>
	<g id="ba-link">
		<path id="ba" class="st1" d="M240.8,297.4c3.5-0.2,2.1,4.6,2.4,7.7h-1.3v-4.8c0-1.2-0.3-2-1.6-1.9c-2.9,0.1-1.7,4-1.9,6.7h-1.3
			v-7.5h1.2c0,0.4,0,0.9,0.1,1.3C238.9,297.9,239.8,297.3,240.8,297.4"/>
	</g>
	<g id="bb-link">
		<path id="bb" class="st1" d="M251.1,297.6c-0.4,5,1.6,11.6-4.4,10.4c-0.9-0.2-1.6-0.8-1.8-1.7l1.3-0.2c0.6,1.9,4,1.3,3.5-1.1v-1.2
			c-0.4,0.9-1.4,1.5-2.4,1.4c-2.1,0-2.7-1.6-2.7-3.8s0.6-3.9,2.8-3.9c1,0,1.9,0.5,2.3,1.4c0-0.4,0-0.8,0.1-1.3L251.1,297.6z
			 M247.9,304.2c1.4,0,2-1.3,2-2.9s-0.6-3-2-3s-1.8,1.4-1.8,3S246.3,304.2,247.9,304.2"/>
	</g>
	<g id="aQ-link-3">
		<polyline id="aQ-3" class="st1" points="253,305.1 253,294.7 254.3,294.7 254.3,305.1 253,305.1 		"/>
	</g>
	<g id="aV-link-2">
		<path id="aV-2" class="st1" d="M259.1,297.4c2.5,0,3.4,1.7,3.3,4.2h-5.4c0,1.6,0.5,2.7,2.1,2.7c0.8,0.1,1.6-0.4,1.9-1.1l1.1,0.3
			c-0.5,1.2-1.7,1.9-3,1.8c-2.3,0-3.5-1.5-3.4-4S256.8,297.4,259.1,297.4z M261.2,300.6c0.3-1.1-0.3-2.2-1.4-2.5
			c-1.1-0.3-2.2,0.3-2.5,1.4c-0.1,0.4-0.2,0.7-0.2,1.1H261.2"/>
	</g>
</g>
<g id="m">
	<g id="aW-link-2">
		<path id="aW-2" class="st1" d="M271.6,298.6c-3.1-0.6-2.1,3.6-2.3,6.5h-1.3v-7.5h1.2c0,0.5,0,1,0.1,1.5c0.1-1,0.9-1.8,1.9-1.7
			c0.1,0,0.3,0,0.4,0.1L271.6,298.6"/>
	</g>
	<g id="aV-link-3">
		<path id="aV-3" class="st1" d="M275.8,297.4c2.5,0,3.4,1.7,3.3,4.2h-5.4c0,1.6,0.5,2.7,2.1,2.7c0.8,0.1,1.6-0.4,1.9-1.1l1.1,0.3
			c-0.5,1.2-1.8,1.9-3,1.8c-2.3,0-3.5-1.5-3.5-4S273.4,297.4,275.8,297.4z M277.8,300.6c0.2-1.1-0.5-2.1-1.6-2.3
			c-0.9-0.2-1.8,0.3-2.2,1.2c-0.1,0.4-0.2,0.7-0.2,1.1H277.8"/>
	</g>
	<g id="bc-link">
		<path id="bc" class="st1" d="M285.1,299.4c-0.1-1.4-3.4-1.5-3.4,0c0.6,2.1,4.5,0.5,4.7,3.6s-5.9,2.9-6.2,0.3l1.1-0.2
			c0.2,1.4,3.8,1.8,3.9,0c-0.4-2.2-4.5-0.6-4.7-3.6c-0.2-2.3,3.2-2.5,4.8-1.7c0.5,0.3,0.9,0.8,1,1.4"/>
	</g>
	<g id="bd-link">
		<path id="bd" class="st1" d="M290.2,305.2c-3.5,0.2-2.1-4.6-2.4-7.7h1.2v4.8c0,1.2,0.3,2,1.5,1.9c2.9-0.1,1.8-4,2-6.7h1.2v7.5
			h-1.2c0-0.4,0-0.9-0.1-1.3C292.1,304.7,291.1,305.3,290.2,305.2"/>
	</g>
	<g id="aQ-link-4">
		<polyline id="aQ-4" class="st1" points="295.7,305.1 295.7,294.7 297,294.7 297,305.1 295.7,305.1 		"/>
	</g>
	<g id="be-link">
		<path id="be" class="st1" d="M300.3,303.2c-0.1,1,0.7,1.1,1.5,0.9v1c-1.3,0.4-2.8,0.2-2.8-1.5v-5h-0.9v-0.9h1l0.4-1.7h0.8v1.7h1.4
			v0.9h-1.4V303.2"/>
	</g>
</g>
<g id="n">
	<g id="bf-link">
		<path id="bf" class="st1" d="M310.4,297.4c2.2,0,2.8,1.6,2.8,3.9s-0.6,3.9-2.8,4c-1,0.1-2-0.5-2.4-1.4v4.2h-1.2v-10.5h1.2l0.1,1.2
			C308.5,297.9,309.4,297.3,310.4,297.4z M310.1,304.3c1.6,0,1.8-1.4,1.8-3s-0.2-2.9-1.8-2.9s-2,1.3-2,3S308.5,304.2,310.1,304.3"/>
	</g>
	<g id="aT-link-3">
		<path id="aT-3" class="st1" d="M319.4,303.7c-0.5,1-1.6,1.6-2.7,1.6c-1.2,0.1-2.2-0.7-2.3-1.9c0-0.1,0-0.2,0-0.4
			c0-2.5,2.5-2.5,5-2.5c0.1-1.4-0.4-2.1-1.6-2.1c-1,0-1.6,0.3-1.7,1.2l-1.3-0.1c0.2-1.5,1.3-2.1,3-2.1s2.9,0.8,2.9,2.5v3.2
			c0,0.8,0.3,1.3,1.1,1.1v0.8C320.5,305.4,319.3,305,319.4,303.7z M315.7,303c-0.1,0.7,0.4,1.2,1.1,1.3c0.1,0,0.2,0,0.2,0
			c1.6-0.1,2.5-1.1,2.4-2.9C317.7,301.4,315.7,301.2,315.7,303"/>
	</g>
	<g id="bb-link-2">
		<path id="bb-2" class="st1" d="M328.7,297.6c-0.4,5,1.6,11.6-4.4,10.4c-0.9-0.2-1.5-0.8-1.7-1.7l1.3-0.2c0.6,1.9,4,1.3,3.5-1.1
			v-1.2c-0.4,0.9-1.4,1.5-2.4,1.4c-2.1,0-2.7-1.6-2.7-3.8s0.6-3.9,2.8-3.9c1,0,1.9,0.5,2.3,1.4c0-0.4,0-0.9,0.1-1.3L328.7,297.6z
			 M325.4,304.2c1.4,0,2-1.3,2-2.9s-0.6-3-2-3s-1.8,1.4-1.8,3S323.8,304.2,325.4,304.2"/>
	</g>
	<g id="aV-link-4">
		<path id="aV-4" class="st1" d="M333.6,297.4c2.5,0,3.4,1.7,3.3,4.2h-5.4c0,1.6,0.5,2.7,2.1,2.7c0.8,0.1,1.6-0.4,1.9-1.1l1.1,0.3
			c-0.5,1.2-1.8,1.9-3,1.8c-2.3,0-3.5-1.5-3.5-4S331.3,297.4,333.6,297.4z M335.7,300.6c0.3-1.1-0.4-2.2-1.5-2.4
			c-1-0.3-2.1,0.3-2.4,1.3c-0.2,0.4-0.2,0.7-0.2,1.1H335.7"/>
	</g>
</g>
<path id="Path-7" class="st0" d="M216,659.5c0-4.1,3.3-7.3,7.3-7.3h0h113.8c4,0,7.3,3.3,7.3,7.3v39.7c0,4.1-3.3,7.3-7.3,7.3H223.4
	c-4.1,0-7.3-3.3-7.3-7.3c0,0,0,0,0,0L216,659.5z"/>
<g id="F">
	<g id="bx-link">
		<path id="bx" class="st1" d="M259.8,675.5c0.1,1.4-1,2.7-2.4,2.8l2.8,4.2h-1.5l-2.6-4.1h-3v4.1h-1.3v-9.8
			C255.2,672.8,259.9,671.8,259.8,675.5z M253,677.4c2.4-0.1,5.4,0.5,5.4-1.9s-3.2-1.7-5.4-1.8V677.4"/>
	</g>
	<g id="aT-link-4">
		<path id="aT-4" class="st1" d="M266.4,681.1c-0.5,1-1.6,1.6-2.7,1.6c-1.2,0.1-2.2-0.7-2.3-1.9c0-0.1,0-0.2,0-0.4
			c0-2.5,2.5-2.5,5-2.5c0.1-1.4-0.4-2.1-1.6-2.1c-1,0-1.6,0.3-1.7,1.2l-1.3-0.1c0.2-1.5,1.3-2.1,3-2.1s2.9,0.8,2.9,2.5v3.2
			c0,0.8,0.3,1.3,1.1,1.1v0.8C267.5,682.8,266.3,682.4,266.4,681.1z M262.7,680.4c-0.1,0.7,0.4,1.2,1.1,1.3c0.1,0,0.1,0,0.2,0
			c1.6-0.1,2.5-1.2,2.4-2.9C264.7,678.9,262.7,678.6,262.7,680.4"/>
	</g>
	<g id="ba-link-2">
		<path id="ba-2" class="st1" d="M273.4,674.8c3.5-0.2,2.1,4.6,2.4,7.7h-1.3v-4.8c0-1.2-0.3-1.9-1.5-1.9c-2.9,0.1-1.7,4-1.9,6.7
			h-1.3V675h1.2c0,0.4,0,0.9,0.1,1.3C271.4,675.3,272.4,674.8,273.4,674.8"/>
	</g>
	<g id="by-link">
		<polyline id="by" class="st1" points="282.3,682.5 279.8,679.1 278.9,679.8 278.9,682.5 277.6,682.5 277.6,672.2 278.9,672.2 
			278.9,678.6 282.2,675 283.6,675 280.6,678.2 283.9,682.5 282.3,682.5 		"/>
	</g>
	<g id="aZ-link-2">
		<path id="aZ-2" class="st1" d="M284.8,673.4v-1.2h1.2v1.2H284.8z M284.8,682.5V675h1.2v7.5L284.8,682.5"/>
	</g>
	<g id="ba-link-3">
		<path id="ba-3" class="st1" d="M291.6,674.8c3.5-0.2,2.1,4.6,2.4,7.7h-1.3v-4.8c0-1.2-0.3-1.9-1.5-1.9c-2.9,0.1-1.7,4-1.9,6.7
			h-1.3V675h1.2c0,0.4,0,0.9,0.1,1.3C289.6,675.3,290.6,674.8,291.6,674.8"/>
	</g>
	<g id="bb-link-3">
		<path id="bb-3" class="st1" d="M301.9,675c-0.4,5,1.6,11.6-4.4,10.3c-0.9-0.2-1.5-0.8-1.7-1.7l1.3-0.2c0.6,1.9,4,1.3,3.5-1.1v-1.2
			c-0.4,0.9-1.4,1.5-2.4,1.4c-2.1,0-2.7-1.6-2.7-3.8s0.6-3.8,2.8-3.9c1,0,1.9,0.5,2.3,1.4c0-0.4,0-0.8,0.1-1.3L301.9,675z
			 M298.6,681.7c1.4,0,2-1.3,2-2.9s-0.6-3-2-3s-1.8,1.3-1.8,3S297,681.7,298.6,681.7"/>
	</g>
	<g id="bc-link-2">
		<path id="bc-2" class="st1" d="M308.1,676.8c-0.1-1.3-3.4-1.5-3.5,0c0.6,2.1,4.6,0.5,4.7,3.6s-6,2.9-6.2,0.3l1.1-0.2
			c0.2,1.4,3.9,1.8,3.9,0c-0.4-2.2-4.5-0.6-4.7-3.6c-0.2-2.3,3.2-2.5,4.8-1.7c0.5,0.3,0.9,0.8,1,1.4"/>
	</g>
</g>
<path id="Path-8" class="st0" d="M441.4,386.8c0-4.1,3.3-7.3,7.3-7.4c0,0,0,0,0,0h113.8c4.1,0,7.3,3.3,7.3,7.3c0,0,0,0,0,0v39.7
	c0,4.1-3.3,7.3-7.3,7.4H448.7c-4.1,0-7.3-3.3-7.3-7.4V386.8z"/>
<g id="G">
	<g id="bz-link">
		<path id="bz" class="st1" d="M484.8,402.8c-0.5-1.2-1.6-1.9-2.9-1.8c-2.3,0-3.5,1.6-3.5,3.9s1.1,4,3.5,4c1.4,0,2.6-0.8,3.1-2.1
			l1.1,0.5c-0.7,1.7-2.4,2.7-4.2,2.6c-3.2,0-4.6-2-4.8-5.1c-0.2-4.1,3.9-6.1,7.4-4.4c0.7,0.4,1.3,1,1.5,1.8"/>
	</g>
	<g id="aR-link-2">
		<path id="aR-2" class="st1" d="M490.6,402.2c2.5,0,3.4,1.5,3.4,3.9s-1.1,3.9-3.4,3.9s-3.3-1.5-3.3-3.9
			C487.2,403.5,488.3,402.2,490.6,402.2z M490.6,409.1c1.7,0,2.1-1.2,2.1-3s-0.3-3-2-3s-2.1,1.3-2.1,3S489,409,490.6,409.1"/>
	</g>
	<g id="bA-link-4">
		<path id="bA-4" class="st1" d="M502.9,403.2c-2.7,0.1-1.5,4.2-1.7,6.7h-1.2v-4.8c0-1.1-0.2-2-1.4-1.9c-2.6,0.2-1.5,4.1-1.8,6.7
			h-1.2v-7.5h1.2c0,0.4,0,0.8,0.1,1.3c0.4-1.7,3.9-2,4.2,0c0.4-0.9,1.3-1.5,2.3-1.4c3.4-0.1,1.9,4.7,2.2,7.7h-1.2v-4.8
			C504.3,403.9,504.1,403.1,502.9,403.2"/>
	</g>
	<g id="bf-link-2">
		<path id="bf-2" class="st1" d="M511,402.2c2.2,0,2.8,1.6,2.8,3.9s-0.6,3.9-2.8,4c-1,0.1-1.9-0.5-2.4-1.4v4.2h-1.3v-10.5h1.2
			l0.1,1.2C509.1,402.6,510,402.1,511,402.2z M510.7,409.1c1.6,0,1.8-1.4,1.8-3s-0.2-2.9-1.8-2.9s-2,1.3-2,3S509.1,409,510.7,409.1"
			/>
	</g>
	<g id="aT-link-5">
		<path id="aT-5" class="st1" d="M519.9,408.4c-0.5,1-1.6,1.6-2.7,1.6c-1.2,0.1-2.2-0.7-2.3-1.9c0-0.1,0-0.2,0-0.4
			c0-2.5,2.5-2.5,5-2.5c0.1-1.4-0.4-2.1-1.6-2.1c-1,0-1.6,0.3-1.7,1.2l-1.3-0.1c0.2-1.5,1.3-2.1,3-2.1s2.9,0.8,2.9,2.5v3.3
			c0,0.8,0.3,1.3,1.1,1.1v0.8C521,410.2,519.8,409.7,519.9,408.4z M516.2,407.8c-0.1,0.7,0.4,1.2,1.1,1.3c0.1,0,0.1,0,0.2,0
			c1.6-0.1,2.5-1.1,2.4-2.9C518.2,406.2,516.2,405.9,516.2,407.8"/>
	</g>
	<g id="aW-link-3">
		<path id="aW-3" class="st1" d="M526.8,403.4c-3.1-0.6-2.1,3.6-2.3,6.5h-1.3v-7.5h1.2c0,0.5,0,1,0.1,1.5c0.1-1,0.9-1.7,1.9-1.7
			c0.1,0,0.3,0,0.4,0.1L526.8,403.4"/>
	</g>
	<g id="aV-link-5">
		<path id="aV-5" class="st1" d="M530.9,402.2c2.5,0,3.4,1.7,3.3,4.2h-5.3c0,1.6,0.5,2.7,2.1,2.7c0.8,0.1,1.6-0.4,1.9-1.1l1.1,0.3
			c-0.5,1.2-1.8,1.9-3.1,1.8c-2.3,0-3.5-1.5-3.5-4S528.6,402.2,530.9,402.2z M533,405.4c0.3-1.1-0.3-2.2-1.4-2.5s-2.2,0.3-2.5,1.4
			l0,0c-0.1,0.4-0.2,0.7-0.2,1.1H533"/>
	</g>
</g>
<path id="Path-9" class="st0" d="M274.8,455.1c3.2-2.7,7.8-2.7,11,0l71.6,63.7c2.7,2.3,3,6.3,0.8,9c-0.2,0.3-0.5,0.5-0.8,0.8
	l-71.6,63.7c-3.2,2.7-7.8,2.7-11,0l-71.6-63.7c-2.7-2.3-3-6.3-0.8-9c0.2-0.3,0.5-0.5,0.8-0.8L274.8,455.1z"/>
<g id="H">
	<g id="bB-link-4">
		<path id="bB-4" class="st1" d="M218.9,516.7c4.7-0.3,8.6,0.3,8.4,4.8c-0.1,3.1-1.7,5-4.8,5h-3.6V516.7z M220.2,525.4
			c3.5,0.3,5.8-0.6,5.8-3.9s-2.4-4-5.8-3.8V525.4"/>
	</g>
	<g id="aV-link-6">
		<path id="aV-6" class="st1" d="M232,518.8c2.5,0,3.4,1.7,3.3,4.2H230c0,1.6,0.6,2.7,2.1,2.7c0.8,0.1,1.6-0.4,1.9-1.2l1.1,0.3
			c-0.5,1.2-1.8,1.9-3.1,1.8c-2.3,0-3.5-1.5-3.4-4S229.6,518.8,232,518.8z M234,522c0.3-1.1-0.4-2.2-1.5-2.4c-1-0.3-2.1,0.3-2.4,1.3
			c-0.2,0.4-0.2,0.7-0.2,1.1H234"/>
	</g>
	<g id="bC-link-3">
		<polyline id="bC-3" class="st1" points="240.2,526.5 238.7,526.5 235.9,519 237.3,519 239.4,525.5 241.7,519 243,519 		"/>
	</g>
	<g id="aZ-link-3">
		<path id="aZ-3" class="st1" d="M244,517.3v-1.2h1.3v1.2H244z M244,526.5V519h1.3v7.5L244,526.5"/>
	</g>
	<g id="aX-link-2">
		<path id="aX-2" class="st1" d="M250,519.8c-1.6,0-1.9,1.3-1.9,2.9s0.4,3,1.9,3c0.9,0.1,1.6-0.6,1.7-1.5c0,0,0,0,0-0.1l1.3,0.1
			c-0.2,1.5-1.5,2.5-2.9,2.4c-2.3,0-3-1.6-3.2-3.9c-0.3-1.8,0.8-3.5,2.6-3.8c1.2-0.2,2.5,0.3,3.2,1.3c0.1,0.3,0.2,0.6,0.3,0.9
			l-1.3,0.1C251.6,520.4,250.8,519.8,250,519.8"/>
	</g>
	<g id="aV-link-7">
		<path id="aV-7" class="st1" d="M257.3,518.8c2.5,0,3.4,1.7,3.3,4.2h-5.4c0,1.6,0.6,2.7,2.1,2.7c0.8,0.1,1.6-0.4,2-1.2l1.1,0.3
			c-0.5,1.2-1.8,1.9-3.1,1.8c-2.3,0-3.5-1.5-3.4-4S254.9,518.8,257.3,518.8z M259.3,522c0.3-1.1-0.4-2.2-1.5-2.4
			c-1-0.3-2.1,0.3-2.4,1.3c-0.2,0.4-0.2,0.7-0.2,1.1H259.3"/>
	</g>
</g>
<g id="I-2">
	<g id="aR-link-3">
		<path id="aR-3" class="st1" d="M269.2,518.8c2.5,0,3.4,1.5,3.4,3.9s-1.1,3.9-3.4,3.9s-3.3-1.5-3.3-3.9
			C265.8,520.1,266.9,518.8,269.2,518.8z M269.2,525.7c1.7,0,2.1-1.2,2.1-3s-0.3-3-2-3s-2.1,1.3-2.1,3S267.6,525.6,269.2,525.7"/>
	</g>
	<g id="aW-link-4">
		<path id="aW-4" class="st1" d="M277.7,520c-3.1-0.6-2.1,3.6-2.3,6.5h-1.3v-7.5h1.2c0,0.5,0,1,0.1,1.5c0.2-1.1,0.9-1.9,2.3-1.6
			L277.7,520"/>
	</g>
</g>
<g id="J-2">
	<g id="bD-link-2">
		<path id="bD-2" class="st1" d="M283,516.7c3.5,0,7.6-0.6,7.6,3c0,3.1-3,3.2-6.3,3v3.8H283V516.7z M284.3,521.7
			c2.3,0,4.9,0.4,4.9-2s-2.7-1.9-4.9-1.9V521.7"/>
	</g>
	<g id="aW-link-5">
		<path id="aW-5" class="st1" d="M295.9,520c-3.1-0.6-2.1,3.6-2.3,6.5h-1.3v-7.5h1.2c0,0.5,0,1,0.1,1.5c0.2-1.1,0.9-1.9,2.3-1.6
			L295.9,520"/>
	</g>
	<g id="aR-link-4">
		<path id="aR-4" class="st1" d="M300,518.8c2.5,0,3.4,1.5,3.4,3.9s-1.1,3.9-3.4,3.9s-3.3-1.5-3.3-3.9
			C296.6,520.1,297.8,518.8,300,518.8z M300,525.7c1.8,0,2.1-1.2,2.1-3s-0.3-3-2-3s-2.1,1.3-2.1,3S298.4,525.6,300,525.7"/>
	</g>
	<g id="bC-link-4">
		<polyline id="bC-4" class="st1" points="308.3,526.5 306.8,526.5 304,519 305.4,519 307.5,525.5 309.7,519 311.1,519 		"/>
	</g>
	<g id="aZ-link-4">
		<path id="aZ-4" class="st1" d="M312.1,517.3v-1.2h1.3v1.2H312.1z M312.1,526.5V519h1.3v7.5L312.1,526.5"/>
	</g>
	<g id="bE-link-2">
		<path id="bE-2" class="st1" d="M317.6,518.8c1-0.1,1.9,0.4,2.4,1.3v-4h1.3v10.3h-1.2c0-0.4-0.1-0.8-0.1-1.2
			c-0.4,0.9-1.3,1.5-2.3,1.4c-2.1,0-2.7-1.5-2.8-3.9C314.9,520.2,315.8,518.8,317.6,518.8z M318,519.8c-1.6,0-1.8,1.3-1.8,3
			s0.2,2.9,1.8,2.9s2-1.3,2-3S319.6,519.8,318,519.8"/>
	</g>
	<g id="aV-link-8">
		<path id="aV-8" class="st1" d="M326.1,518.8c2.5,0,3.4,1.7,3.3,4.2h-5.4c0,1.6,0.6,2.7,2.1,2.7c0.8,0.1,1.6-0.4,1.9-1.2l1.1,0.3
			c-0.5,1.2-1.7,1.9-3,1.8c-2.3,0-3.5-1.5-3.5-4S323.8,518.8,326.1,518.8z M328.2,522c0.3-1.1-0.3-2.2-1.4-2.5
			c-1.1-0.3-2.2,0.3-2.5,1.4c-0.2,0.4-0.2,0.7-0.2,1.1H328.2"/>
	</g>
	<g id="aW-link-6">
		<path id="aW-6" class="st1" d="M334.6,520c-3.1-0.6-2.1,3.6-2.3,6.5h-1.3v-7.5h1.2c0,0.5,0,1,0.1,1.5c0.2-1.1,0.9-1.9,2.3-1.6
			L334.6,520"/>
	</g>
	<g id="bF-link-3">
		<path id="bF-3" class="st1" d="M338.9,516.5c3.3,0,4.4,3.8,1.8,5.3c-0.9,0.3-1.5,1.1-1.5,2.1h-1.2c0-2.5,3-2.2,3-4.5
			c0-1.2-0.8-1.7-2.1-1.7c-1.1-0.1-2.1,0.7-2.2,1.8c0,0,0,0,0,0.1l-1.3-0.1c0.1-1.7,1.6-3,3.4-2.9
			C338.8,516.5,338.9,516.5,338.9,516.5z M337.9,526.5v-1.4h1.4v1.4L337.9,526.5"/>
	</g>
</g>
<polygon id="Path-10" class="st3" points="280.7,637.1 279.8,637.1 279.8,624.9 280.7,624.9 "/>
<polygon id="Path-11" class="st3" points="280.7,607.8 279.8,607.8 279.8,594.6 280.7,594.6 "/>
<polygon id="Path-12" class="st3" points="280.7,594.6 279.8,594.6 279.8,594.2 280.7,594.1 "/>
<polygon id="Path-13" class="st3" points="280.2,650.7 276,637.6 284.5,637.6 "/>
<polygon id="Path-14" class="st3" points="280.2,652.1 275.4,637.1 285.1,637.1 "/>
<polygon id="Path-15" class="st3" points="276.6,638 280.2,649.2 283.9,638 "/>
<g id="K-2">
	<g id="bG-link">
		<polyline id="bG" class="st1" points="274,615.1 274,619.2 272.7,619.2 272.7,615.1 268.9,609.4 270.4,609.4 273.4,614 
			276.3,609.4 277.8,609.4 		"/>
	</g>
	<g id="aV-link-9">
		<path id="aV-9" class="st1" d="M280.8,611.5c2.5,0,3.4,1.7,3.3,4.2h-5.4c0,1.6,0.5,2.7,2.1,2.7c0.8,0.1,1.6-0.4,1.9-1.2l1.1,0.3
			c-0.5,1.2-1.8,1.9-3,1.8c-2.3,0-3.5-1.5-3.5-4S278.4,611.5,280.8,611.5z M282.8,614.7c0.3-1.1-0.4-2.2-1.5-2.4
			c-1-0.3-2.1,0.3-2.4,1.3c-0.1,0.4-0.2,0.7-0.2,1.1L282.8,614.7"/>
	</g>
	<g id="bc-link-5">
		<path id="bc-5" class="st1" d="M290.1,613.5c-0.1-1.3-3.4-1.5-3.5,0c0.6,2.1,4.6,0.5,4.7,3.6s-5.9,2.9-6.2,0.3l1.1-0.2
			c0.2,1.4,3.8,1.8,3.9,0c-0.4-2.2-4.5-0.6-4.7-3.6c-0.2-2.3,3.2-2.5,4.8-1.7c0.5,0.3,0.9,0.8,1,1.4"/>
	</g>
</g>
<path id="Path-16" class="st0" d="M37.7,282c0-4,3.3-7.3,7.3-7.3h113.8c4.1,0,7.3,3.3,7.3,7.3c0,0,0,0,0,0v39.7
	c0,4.1-3.3,7.3-7.3,7.3H45c-4.1,0-7.3-3.3-7.3-7.3L37.7,282z"/>
<g id="T">
	<g id="bz-link-2">
		<path id="bz-2" class="st1" d="M63.6,289.4c-0.5-1.2-1.6-1.9-2.9-1.8c-2.3,0-3.5,1.6-3.5,3.9s1.2,4,3.5,4c1.4,0,2.6-0.8,3.1-2.1
			l1.1,0.6c-0.7,1.7-2.4,2.7-4.2,2.6c-3.2,0-4.6-2-4.8-5.1c-0.2-4.1,3.9-6.1,7.4-4.4c0.7,0.4,1.3,1.1,1.5,1.8"/>
	</g>
	<g id="aY-link-2">
		<path id="aY-2" class="st1" d="M69.7,289.8c-2.8,0-1.7,4-1.9,6.7h-1.3v-10.4h1.3v4.1c0.4-0.9,1.4-1.5,2.4-1.4
			c3.5,0,2.1,4.6,2.4,7.7h-1.3v-4.8C71.3,290.5,70.9,289.8,69.7,289.8"/>
	</g>
	<g id="aT-link-6">
		<path id="aT-6" class="st1" d="M79,295.1c-0.5,1-1.6,1.6-2.7,1.6c-1.2,0.1-2.2-0.7-2.3-1.9c0-0.1,0-0.2,0-0.4c0-2.5,2.5-2.5,5-2.5
			c0.1-1.4-0.4-2.1-1.6-2.1c-1,0-1.6,0.3-1.7,1.2l-1.3-0.1c0.2-1.5,1.3-2.1,3-2.1s2.9,0.8,2.9,2.5v3.2c0,0.8,0.3,1.3,1.1,1.1v0.8
			C80.1,296.9,78.9,296.4,79,295.1z M75.3,294.4c-0.1,0.7,0.4,1.2,1.1,1.3c0.1,0,0.1,0,0.2,0c1.6-0.1,2.5-1.1,2.4-2.9
			C77.3,292.9,75.3,292.6,75.3,294.4"/>
	</g>
	<g id="ba-link-5">
		<path id="ba-5" class="st1" d="M86,288.8c3.5-0.1,2.1,4.6,2.4,7.7h-1.3v-4.8c0-1.2-0.3-1.9-1.6-1.9c-2.8,0.1-1.7,4-1.9,6.7h-1.3
			V289h1.2c0,0.4,0,0.9,0.1,1.3C84,289.3,85,288.8,86,288.8"/>
	</g>
	<g id="bb-link-5">
		<path id="bb-5" class="st1" d="M96.3,289c-0.4,5,1.6,11.6-4.4,10.4c-0.9-0.2-1.5-0.8-1.7-1.7l1.3-0.2c0.6,1.9,4,1.3,3.5-1.1v-1.2
			c-0.4,0.9-1.4,1.5-2.4,1.4c-2.1,0-2.7-1.6-2.7-3.8s0.6-3.9,2.8-3.9c1,0,1.9,0.5,2.3,1.4c0-0.4,0-0.9,0.1-1.3L96.3,289z M93,295.7
			c1.4,0,2-1.3,2-2.9s-0.6-3-2-3s-1.8,1.3-1.8,3S91.4,295.7,93,295.7"/>
	</g>
	<g id="aV-link-10">
		<path id="aV-10" class="st1" d="M101.2,288.8c2.5,0,3.4,1.7,3.3,4.2h-5.4c0,1.6,0.6,2.7,2.1,2.7c0.8,0.1,1.6-0.4,1.9-1.1l1.1,0.3
			c-0.5,1.2-1.7,1.9-3,1.8c-2.3,0-3.5-1.5-3.4-4S98.8,288.8,101.2,288.8z M103.2,292c0.3-1.1-0.4-2.2-1.5-2.4
			c-1-0.3-2.1,0.3-2.4,1.3c-0.2,0.3-0.2,0.7-0.2,1.1H103.2"/>
	</g>
</g>
<g id="U">
	<g id="aU-link-3">
		<path id="aU-3" class="st1" d="M116.4,289c-0.2-1.9-4.9-2.1-4.9,0.1c0.6,3,6.3,0.6,6.5,4.7c0.1,3.1-4.8,3.5-6.9,2.2
			c-0.7-0.4-1.1-1.1-1.3-1.8l1.3-0.3c0.2,2.2,5.6,2.5,5.6,0c0-3.1-6.1-0.5-6.4-4.7c-0.2-3.2,5.8-3.3,7.1-1.4c0.2,0.3,0.3,0.6,0.4,1"
			/>
	</g>
	<g id="aZ-link-5">
		<path id="aZ-5" class="st1" d="M119.6,287.4v-1.2h1.3v1.2H119.6z M119.6,296.5V289h1.3v7.5L119.6,296.5"/>
	</g>
	<g id="ba-link-6">
		<path id="ba-6" class="st1" d="M126.4,288.8c3.5-0.1,2.1,4.6,2.4,7.7h-1.3v-4.8c0-1.2-0.3-1.9-1.6-1.9c-2.8,0.1-1.7,4-1.9,6.7
			h-1.3V289h1.2c0,0.4,0,0.9,0.1,1.3C124.4,289.3,125.4,288.8,126.4,288.8"/>
	</g>
	<g id="bb-link-6">
		<path id="bb-6" class="st1" d="M136.7,289c-0.4,5,1.6,11.6-4.4,10.4c-0.9-0.2-1.5-0.8-1.7-1.7l1.3-0.2c0.6,1.9,4,1.3,3.5-1.1v-1.2
			c-0.4,0.9-1.4,1.5-2.4,1.4c-2.1,0-2.7-1.6-2.7-3.8s0.6-3.9,2.8-3.9c1,0,1.9,0.5,2.3,1.4c0-0.4,0-0.9,0.1-1.3H136.7z M133.4,295.7
			c1.4,0,2-1.3,2-2.9s-0.6-3-2-3s-1.8,1.3-1.8,3S131.8,295.7,133.4,295.7"/>
	</g>
	<g id="aQ-link-5">
		<polyline id="aQ-5" class="st1" points="138.5,296.5 138.5,286.2 139.8,286.2 139.8,296.5 138.5,296.5 		"/>
	</g>
	<g id="aV-link-11">
		<path id="aV-11" class="st1" d="M144.7,288.8c2.5,0,3.4,1.7,3.3,4.2h-5.4c0,1.6,0.6,2.7,2.1,2.7c0.8,0.1,1.6-0.4,1.9-1.1l1.1,0.3
			c-0.5,1.2-1.8,1.9-3.1,1.8c-2.3,0-3.5-1.5-3.4-4S142.3,288.8,144.7,288.8z M146.7,292c0.3-1.1-0.4-2.2-1.5-2.4
			c-1-0.3-2.1,0.3-2.4,1.3c-0.2,0.3-0.2,0.7-0.2,1.1H146.7"/>
	</g>
</g>
<g id="V">
	<g id="bK-link">
		<polyline id="bK" class="st1" points="92.1,313.7 90.7,313.7 86.7,303.8 88.1,303.8 91.4,312.5 94.7,303.8 96.1,303.8 		"/>
	</g>
	<g id="aZ-link-6">
		<path id="aZ-6" class="st1" d="M96.8,304.5v-1.2h1.3v1.2H96.8z M96.8,313.7v-7.5h1.3v7.5H96.8"/>
	</g>
	<g id="aV-link-12">
		<path id="aV-12" class="st1" d="M103,306c2.5,0,3.4,1.7,3.3,4.2H101c0,1.6,0.6,2.7,2.1,2.7c0.9,0.1,1.7-0.3,2-1.1l1.1,0.3
			c-0.5,1.2-1.8,1.9-3.1,1.8c-2.3,0-3.5-1.5-3.4-4S100.6,306,103,306z M105.1,309.2c0.3-1.1-0.3-2.2-1.4-2.5
			c-1.1-0.3-2.2,0.3-2.5,1.4l0,0c-0.2,0.4-0.2,0.7-0.2,1.1H105.1"/>
	</g>
	<g id="bL-link">
		<polyline id="bL" class="st1" points="115.1,313.7 113.7,313.7 112.1,307.2 110.5,313.7 109,313.7 106.9,306.1 108.2,306.1 
			109.7,312.6 111.4,306.1 112.8,306.1 114.4,312.6 116.1,306.1 117.3,306.1 		"/>
	</g>
</g>
<line id="Path-17" class="st2" x1="275.1" y1="219.4" x2="275.1" y2="259.7"/>
<polygon id="Path-18" class="st3" points="275.5,219.4 274.6,219.4 274.6,218.9 275.5,218.9 "/>
<polygon id="Path-19" class="st4" points="275.1,273.2 270.8,260.1 279.3,260.1 "/>
<line id="Path-20" class="st2" x1="280.2" y1="329.5" x2="280.2" y2="438.1"/>
<polygon id="Path-21" class="st3" points="280.7,329.5 279.8,329.5 279.8,329.1 280.7,329.1 "/>
<polygon id="Path-22" class="st4" points="280.2,451.6 276,438.5 284.5,438.5 "/>
<line id="Path-23" class="st2" x1="210.4" y1="301.9" x2="181.2" y2="301.9"/>
<polygon id="Path-24" class="st3" points="210.8,302.3 210.4,302.3 210.4,301.4 210.8,301.4 "/>
<polygon id="Path-25" class="st4" points="167.6,301.9 180.7,297.6 180.7,306.1 "/>
<path id="Path-26" class="st2" d="M101.9,274.2v-71.5c0-6.1,4.9-11,11-11h82.9"/>
<polygon id="Path-27" class="st3" points="102.4,274.7 101.5,274.7 101.5,274.2 102.4,274.2 "/>
<polygon id="Path-28" class="st4" points="209.3,191.7 196.2,196 196.2,187.5 "/>
<path id="Path-29" class="st0" d="M613.7,386.8c0-4,3.3-7.3,7.3-7.3c0,0,0,0,0,0h106.6c4.1,0,7.3,3.3,7.3,7.3c0,0,0,0,0,0v39.7
	c0,4.1-3.3,7.3-7.3,7.4H621c-4.1,0-7.3-3.3-7.3-7.4L613.7,386.8z"/>
<g id="W">
	<g id="bM-link">
		<path id="bM" class="st1" d="M632.9,401.3l-1.1-2.9h-4.5l-1.1,2.9h-1.4l4-9.8h1.5l3.9,9.8H632.9z M631.4,397.4l-1.9-4.9
			c-0.5,1.8-1.2,3.2-1.8,4.9H631.4"/>
	</g>
	<g id="bE-link-3">
		<path id="bE-3" class="st1" d="M637.7,393.6c1-0.1,1.9,0.4,2.4,1.3v-4h1.3v10.4h-1.2c0-0.4-0.1-0.8-0.1-1.2
			c-0.4,0.9-1.3,1.5-2.3,1.4c-2.1,0-2.7-1.5-2.8-3.9C634.9,395,635.8,393.6,637.7,393.6z M638.1,394.6c-1.6,0-1.8,1.4-1.8,3
			s0.2,2.9,1.8,2.9s2-1.3,2-3S639.7,394.5,638.1,394.6"/>
	</g>
	<g id="bE-link-4">
		<path id="bE-4" class="st1" d="M645.6,393.6c1-0.1,1.9,0.4,2.4,1.3v-4h1.3v10.4h-1.2c0-0.4-0.1-0.8-0.1-1.2
			c-0.4,0.9-1.3,1.5-2.3,1.4c-2.1,0-2.7-1.5-2.8-3.9C642.8,395,643.8,393.6,645.6,393.6z M646,394.6c-1.6,0-1.8,1.4-1.8,3
			s0.2,2.9,1.8,2.9s2-1.3,2-3S647.6,394.5,646,394.6"/>
	</g>
</g>
<g id="X">
	<polyline id="bN" class="st1" points="655.2,401.3 655.2,400.2 657.8,400.2 657.8,392.7 655.5,394.2 655.5,393.1 657.8,391.5 
		659,391.5 659,400.2 661.4,400.2 661.4,401.3 655.2,401.3 	"/>
</g>
<g id="Y">
	<g id="bz-link-3">
		<path id="bz-3" class="st1" d="M674.5,394.2c-0.4-1.2-1.6-1.9-2.9-1.8c-2.3,0-3.5,1.6-3.5,3.9s1.2,4,3.5,4c1.4,0,2.6-0.8,3.1-2.1
			l1.1,0.6c-0.7,1.7-2.4,2.7-4.2,2.6c-3.2,0-4.6-2-4.8-5.1c-0.2-4.1,3.9-6.1,7.4-4.4c0.7,0.4,1.3,1,1.5,1.8"/>
	</g>
	<g id="aR-link-5">
		<path id="aR-5" class="st1" d="M680.3,393.6c2.5,0,3.4,1.5,3.4,3.9s-1.1,3.9-3.4,3.9s-3.3-1.5-3.3-3.9
			C676.9,394.9,678,393.6,680.3,393.6z M680.3,400.5c1.7,0,2.1-1.2,2.1-3s-0.3-3-2-3s-2.1,1.3-2.1,3S678.7,400.4,680.3,400.5"/>
	</g>
	<g id="bA-link-7">
		<path id="bA-7" class="st1" d="M692.6,394.6c-2.7,0.1-1.5,4.2-1.7,6.7h-1.2v-4.8c0-1.1-0.2-2-1.4-1.9c-2.6,0.2-1.5,4.1-1.8,6.7
			h-1.2v-7.5h1.2c0,0.4,0,0.9,0.1,1.3c0.4-1.8,3.9-2,4.2,0c0.4-0.9,1.3-1.5,2.3-1.4c3.4-0.1,1.9,4.7,2.2,7.7H694v-4.8
			C694,395.4,693.8,394.5,692.6,394.6"/>
	</g>
	<g id="bf-link-4">
		<path id="bf-4" class="st1" d="M700.7,393.6c2.2,0,2.8,1.6,2.8,3.9s-0.6,3.9-2.8,4c-1,0.1-1.9-0.5-2.4-1.4v4.2H697v-10.5h1.2
			l0.1,1.2C698.7,394.1,699.7,393.5,700.7,393.6z M700.3,400.5c1.6,0,1.8-1.4,1.8-3s-0.2-2.9-1.8-2.9s-2,1.3-2,3
			S698.7,400.5,700.3,400.5"/>
	</g>
	<g id="aT-link-7">
		<path id="aT-7" class="st1" d="M709.6,399.9c-0.5,1-1.6,1.6-2.7,1.6c-1.2,0.1-2.2-0.7-2.3-1.9c0-0.1,0-0.2,0-0.4
			c0-2.5,2.5-2.5,5-2.5c0.1-1.4-0.4-2.1-1.6-2.1c-1,0-1.6,0.3-1.7,1.2l-1.3-0.1c0.2-1.5,1.3-2.1,3-2.1s2.9,0.8,2.9,2.5v3.2
			c0,0.8,0.3,1.3,1.1,1.1v0.8C710.7,401.6,709.5,401.2,709.6,399.9z M705.9,399.2c-0.1,0.7,0.4,1.2,1.1,1.3c0.1,0,0.1,0,0.2,0
			c1.6-0.1,2.5-1.1,2.4-2.9C707.9,397.6,705.9,397.4,705.9,399.2"/>
	</g>
	<g id="aW-link-7">
		<path id="aW-7" class="st1" d="M716.5,394.8c-3.1-0.6-2.1,3.6-2.3,6.5H713v-7.5h1.2c0,0.5,0,1,0.1,1.5c0.1-1,0.9-1.8,1.9-1.7
			c0.1,0,0.3,0,0.4,0.1L716.5,394.8"/>
	</g>
	<g id="aV-link-13">
		<path id="aV-13" class="st1" d="M720.6,393.6c2.5,0,3.4,1.7,3.3,4.2h-5.3c0,1.6,0.5,2.7,2.1,2.7c0.8,0.1,1.6-0.4,1.9-1.1l1.1,0.3
			c-0.5,1.2-1.7,1.9-3,1.8c-2.3,0-3.5-1.5-3.5-4S718.3,393.6,720.6,393.6z M722.7,396.8c0.3-1.1-0.3-2.2-1.4-2.5s-2.2,0.3-2.5,1.4
			c-0.1,0.4-0.2,0.7-0.2,1.1H722.7"/>
	</g>
</g>
<g id="Z">
	<g id="aZ-link-7">
		<path id="aZ-7" class="st1" d="M662.2,409.3v-1.2h1.3v1.2H662.2z M662.2,418.4v-7.5h1.3v7.5H662.2"/>
	</g>
	<g id="be-link-5">
		<path id="be-5" class="st1" d="M666.7,416.6c-0.1,1,0.7,1.1,1.5,0.9v1c-1.3,0.4-2.8,0.2-2.8-1.5v-5h-0.9v-0.9h1l0.4-1.7h0.8v1.7
			h1.4v0.9h-1.4V416.6"/>
	</g>
	<g id="aV-link-14">
		<path id="aV-14" class="st1" d="M672.3,410.7c2.5,0,3.4,1.7,3.3,4.2h-5.3c0,1.6,0.5,2.6,2.1,2.7c0.8,0.1,1.6-0.4,1.9-1.1l1.1,0.3
			c-0.5,1.2-1.8,1.9-3,1.8c-2.3,0-3.5-1.5-3.5-4S670,410.7,672.3,410.7z M674.4,414c0.3-1.1-0.4-2.2-1.5-2.4c-1-0.3-2.1,0.3-2.4,1.3
			c-0.2,0.3-0.2,0.7-0.2,1.1H674.4"/>
	</g>
	<g id="bA-link-8">
		<path id="bA-8" class="st1" d="M684.6,411.7c-2.7,0.1-1.5,4.2-1.7,6.7h-1.2v-4.8c0-1.1-0.2-2-1.4-1.9c-2.6,0.1-1.5,4.1-1.7,6.7
			h-1.2v-7.5h1.2c0,0.4,0,0.9,0.1,1.3c0.4-1.7,3.9-2,4.2,0c0.4-0.9,1.3-1.5,2.3-1.4c3.4-0.1,1.9,4.7,2.2,7.7H686v-4.8
			C686,412.5,685.8,411.7,684.6,411.7"/>
	</g>
</g>
<line id="Path-30" class="st2" x1="570.3" y1="406.6" x2="598.7" y2="406.6"/>
<polygon id="Path-31" class="st3" points="570.3,407.1 569.8,407.1 569.8,406.2 570.3,406.2 "/>
<polygon id="Path-32" class="st4" points="612.2,406.6 599.1,410.9 599.1,402.4 "/>
<path id="Path-33" class="st0" d="M613.7,497c0-4,3.3-7.3,7.3-7.3c0,0,0,0,0,0h106.6c4.1,0,7.3,3.3,7.3,7.3c0,0,0,0,0,0v39.7
	c0,4.1-3.3,7.3-7.3,7.3H621c-4.1,0-7.3-3.3-7.3-7.3L613.7,497z"/>
<g id="aa-link">
	<g id="aa">
		<g id="bO-link">
			<polyline id="bO" class="st1" points="634.5,520 634.5,510.2 642,510.2 642,511.3 635.9,511.3 635.9,514.4 641.6,514.4 
				641.6,515.5 635.9,515.5 635.9,518.9 642.3,518.9 642.3,520 634.5,520 			"/>
		</g>
		<g id="bE-link-6">
			<path id="bE-6" class="st1" d="M646.2,512.3c1-0.1,1.9,0.4,2.4,1.3v-4h1.3V520h-1.2c0-0.4-0.1-0.8-0.1-1.2
				c-0.4,0.9-1.3,1.5-2.3,1.4c-2.1,0-2.7-1.5-2.8-3.9C643.5,513.7,644.4,512.3,646.2,512.3z M646.6,513.3c-1.6,0-1.8,1.3-1.8,3
				s0.2,2.9,1.8,2.9s2-1.3,2-3S648.2,513.3,646.6,513.3"/>
		</g>
		<g id="aZ-link-8">
			<path id="aZ-8" class="st1" d="M651.8,510.8v-1.2h1.2v1.2H651.8z M651.8,520v-7.5h1.2v7.5H651.8"/>
		</g>
		<g id="be-link-7">
			<path id="be-7" class="st1" d="M656.3,518.1c-0.1,1,0.7,1.2,1.5,0.9v1c-1.3,0.4-2.8,0.2-2.8-1.5v-5h-0.9v-0.9h1l0.3-1.7h0.8v1.7
				h1.4v0.9h-1.4L656.3,518.1"/>
		</g>
	</g>
</g>
<g id="ab-link">
	<g id="ab">
		<g id="bP-link">
			<path id="bP" class="st1" d="M666.2,513.7c1.9,0,2.9,1.2,2.9,3.1c0,2.1-1.1,3.4-3.2,3.4c-2.6,0-3.3-2.2-3.4-4.8
				c-0.2-3.6,2-6.4,5.3-4.8c0.6,0.3,1,0.9,1.1,1.6l-1.2,0.2c-0.2-1.6-2.7-1.5-3.2-0.2c-0.4,0.9-0.6,1.9-0.6,2.9
				C664.3,514.1,665.2,513.6,666.2,513.7z M665.9,519.1c1.3,0,1.9-0.9,1.9-2.3s-0.6-2.2-2-2.2c-1-0.1-1.8,0.6-1.9,1.5
				c0,0.1,0,0.3,0,0.4C663.9,518,664.5,519.1,665.9,519.1"/>
		</g>
		<g id="bQ-link">
			<polyline id="bQ" class="st1" points="674.5,515.8 674.5,518.7 673.4,518.7 673.4,515.8 670.5,515.8 670.5,514.7 673.4,514.7 
				673.4,511.8 674.5,511.8 674.5,514.7 677.4,514.7 677.4,515.8 674.5,515.8 			"/>
		</g>
	</g>
</g>
<g id="ac-link">
	<g id="ac">
		<g id="bR-link">
			<path id="bR" class="st1" d="M686.1,510.7c-1.2-0.4-1.7,0.4-1.5,1.7h1.5v0.9h-1.5v6.6h-1.2v-6.6h-1.1v-0.9h1.1
				c-0.3-2.1,0.7-3.2,2.7-2.7V510.7"/>
		</g>
		<g id="aZ-link-9">
			<path id="aZ-9" class="st1" d="M687,510.8v-1.2h1.3v1.2H687z M687,520v-7.5h1.3v7.5H687"/>
		</g>
		<g id="aQ-link-6">
			<polyline id="aQ-6" class="st1" points="690.1,520 690.1,509.6 691.4,509.6 691.4,520 690.1,520 			"/>
		</g>
		<g id="be-link-8">
			<path id="be-8" class="st1" d="M694.7,518.1c-0.1,1,0.7,1.2,1.5,0.9v1c-1.3,0.4-2.8,0.2-2.8-1.5v-5h-0.9v-0.9h1l0.4-1.7h0.8v1.7
				h1.3v0.9h-1.4L694.7,518.1"/>
		</g>
		<g id="aV-link-15">
			<path id="aV-15" class="st1" d="M700.2,512.3c2.5,0,3.4,1.7,3.3,4.2h-5.3c0,1.6,0.5,2.7,2.1,2.7c0.8,0.1,1.6-0.4,1.9-1.2l1.1,0.3
				c-0.5,1.2-1.7,1.9-3,1.8c-2.3,0-3.5-1.5-3.5-4S697.9,512.3,700.2,512.3z M702.3,515.5c0.3-1.1-0.4-2.2-1.5-2.4
				c-1-0.3-2.1,0.3-2.4,1.3c-0.2,0.4-0.2,0.7-0.2,1.1H702.3"/>
		</g>
		<g id="aW-link-8">
			<path id="aW-8" class="st1" d="M708.7,513.5c-3.1-0.6-2.1,3.6-2.3,6.5h-1.3v-7.5h1.2c0,0.5,0,1,0.1,1.5c0.1-1,0.9-1.7,1.9-1.7
				c0.1,0,0.3,0,0.4,0.1L708.7,513.5"/>
		</g>
		<g id="bc-link-6">
			<path id="bc-6" class="st1" d="M714.3,514.3c-0.1-1.3-3.4-1.5-3.5,0c0.6,2.1,4.6,0.5,4.7,3.6s-5.9,2.9-6.2,0.3l1.1-0.2
				c0.2,1.4,3.8,1.8,3.9,0c-0.4-2.2-4.5-0.6-4.7-3.6c-0.2-2.3,3.2-2.5,4.8-1.7c0.5,0.3,0.9,0.8,1,1.4"/>
		</g>
	</g>
</g>
<line id="Path-34" class="st2" x1="674.3" y1="434.3" x2="674.3" y2="474.6"/>
<polygon id="Path-35" class="st3" points="674.8,434.3 673.9,434.3 673.9,433.8 674.8,433.8 "/>
<polygon id="Path-36" class="st4" points="674.3,488.1 670.1,475 678.6,475 "/>
<path id="Path-37" class="st2" d="M613.2,516.8h-96.6c-6.1,0-11-4.9-11-11l0,0v-56.9"/>
<polygon id="Path-38" class="st3" points="613.7,517.2 613.2,517.2 613.2,516.3 613.7,516.3 "/>
<polygon id="Path-39" class="st4" points="505.6,435.3 509.9,448.4 501.4,448.4 "/>
<path id="Path-40" class="st2" d="M280.7,406.1h18.5c0.1,0,0.3,0.1,0.3,0.2c0,0.1,0.1,0.3,0.2,0.3h126.6"/>
<line id="Path-41" class="st2" x1="280.7" y1="406.1" x2="280.2" y2="406.1"/>
<polygon id="Path-42" class="st4" points="439.9,406.6 426.8,410.9 426.8,402.4 "/>
<path id="Path-43" class="st0" d="M445,302.5c0-4.1,3.3-7.3,7.3-7.4c0,0,0,0,0,0h106.6c4.1,0,7.3,3.3,7.3,7.3c0,0,0,0,0,0v39.7
	c0,4.1-3.3,7.3-7.3,7.3H452.3c-4.1,0-7.3-3.3-7.3-7.3L445,302.5z"/>
<g id="ad-link">
	<g id="ad">
		<g id="bB-link-7">
			<path id="bB-7" class="st1" d="M480.6,307.1c4.7-0.3,8.6,0.3,8.5,4.8c-0.1,3.1-1.7,5-4.8,5h-3.6L480.6,307.1z M482,315.9
				c3.5,0.3,5.8-0.6,5.8-3.9s-2.4-4-5.8-3.8V315.9"/>
		</g>
		<g id="aV-link-16">
			<path id="aV-16" class="st1" d="M493.7,309.3c2.5,0,3.4,1.7,3.3,4.2h-5.4c0,1.6,0.6,2.6,2.1,2.7c0.8,0.1,1.6-0.4,1.9-1.1l1.1,0.3
				c-0.5,1.2-1.8,1.9-3,1.8c-2.3,0-3.5-1.5-3.5-4S491.4,309.3,493.7,309.3z M495.8,312.5c0.3-1.1-0.3-2.2-1.4-2.5
				c-1.1-0.3-2.2,0.3-2.5,1.4c-0.2,0.4-0.2,0.7-0.2,1.1H495.8"/>
		</g>
		<g id="aQ-link-7">
			<polyline id="aQ-7" class="st1" points="498.6,317 498.6,306.6 499.9,306.6 499.9,317 498.6,317 			"/>
		</g>
		<g id="aV-link-17">
			<path id="aV-17" class="st1" d="M504.8,309.3c2.5,0,3.4,1.7,3.3,4.2h-5.4c0,1.6,0.5,2.6,2.1,2.7c0.8,0.1,1.6-0.4,1.9-1.1l1.1,0.3
				c-0.5,1.2-1.8,1.9-3,1.8c-2.3,0-3.5-1.5-3.5-4S502.4,309.3,504.8,309.3z M506.8,312.5c0.3-1.1-0.3-2.2-1.4-2.5
				c-1.1-0.3-2.2,0.3-2.5,1.4c-0.1,0.4-0.2,0.7-0.2,1.1H506.8"/>
		</g>
		<g id="be-link-9">
			<path id="be-9" class="st1" d="M511.1,315.1c-0.1,1,0.7,1.1,1.5,0.9v1c-1.3,0.4-2.8,0.2-2.8-1.5v-5h-0.9v-0.9h1l0.4-1.7h0.8v1.7
				h1.4v0.9h-1.4V315.1"/>
		</g>
		<g id="aV-link-18">
			<path id="aV-18" class="st1" d="M516.7,309.3c2.5,0,3.4,1.7,3.3,4.2h-5.3c0,1.6,0.5,2.6,2.1,2.7c0.8,0.1,1.6-0.4,1.9-1.1l1.1,0.3
				c-0.5,1.2-1.7,1.9-3,1.8c-2.3,0-3.5-1.5-3.5-4S514.3,309.3,516.7,309.3z M518.7,312.5c0.3-1.1-0.3-2.2-1.4-2.5
				c-1.1-0.3-2.2,0.3-2.5,1.4l0,0c-0.2,0.4-0.2,0.7-0.2,1.1H518.7"/>
		</g>
	</g>
</g>
<g id="ae-link">
	<g id="ae">
		<polyline id="bN-2" class="st1" points="525.7,317 525.7,315.9 528.2,315.9 528.2,308.4 526,309.9 526,308.8 528.3,307.1 
			529.4,307.1 529.4,315.9 531.8,315.9 531.8,317 525.7,317 		"/>
	</g>
</g>
<g id="af-link">
	<g id="af">
		<g id="bz-link-4">
			<path id="bz-4" class="st1" d="M469.7,327c-0.5-1.2-1.6-1.9-2.9-1.8c-2.3,0-3.5,1.6-3.5,3.9s1.1,4,3.5,4c1.4,0,2.6-0.8,3.1-2.1
				l1.1,0.5c-0.7,1.7-2.4,2.7-4.2,2.6c-3.2,0-4.6-2-4.8-5.1c-0.2-4.1,3.9-6.1,7.4-4.4c0.7,0.4,1.3,1,1.5,1.8"/>
		</g>
		<g id="aR-link-6">
			<path id="aR-6" class="st1" d="M475.5,326.4c2.5,0,3.4,1.5,3.4,3.9s-1.1,3.9-3.4,3.9s-3.3-1.5-3.3-3.9
				C472.1,327.7,473.3,326.4,475.5,326.4z M475.5,333.3c1.7,0,2.1-1.2,2.1-3s-0.3-3-2-3s-2.1,1.3-2.1,3S473.9,333.2,475.5,333.3"/>
		</g>
		<g id="bA-link-9">
			<path id="bA-9" class="st1" d="M487.8,327.4c-2.7,0.1-1.5,4.2-1.7,6.7h-1.2v-4.8c0-1.1-0.2-2-1.4-1.9c-2.6,0.2-1.5,4.1-1.8,6.7
				h-1.2v-7.5h1.2c0,0.4,0,0.8,0.1,1.3c0.4-1.7,3.9-2,4.2,0c0.4-0.9,1.3-1.5,2.3-1.4c3.4-0.1,1.9,4.7,2.2,7.7h-1.3v-4.8
				C489.2,328.2,489,327.4,487.8,327.4"/>
		</g>
		<g id="bf-link-5">
			<path id="bf-5" class="st1" d="M495.9,326.4c2.2,0,2.8,1.6,2.8,3.9s-0.6,3.9-2.8,4c-1,0.1-1.9-0.5-2.4-1.4v4.2h-1.3v-10.5h1.2
				l0.1,1.2C494,326.9,494.9,326.3,495.9,326.4z M495.6,333.3c1.6,0,1.8-1.4,1.8-3s-0.2-2.9-1.8-2.9s-2,1.3-2,3
				S494,333.3,495.6,333.3"/>
		</g>
		<g id="aT-link-8">
			<path id="aT-8" class="st1" d="M504.9,332.7c-0.5,1-1.6,1.6-2.7,1.6c-1.2,0.1-2.2-0.7-2.3-1.9c0-0.1,0-0.2,0-0.4
				c0-2.5,2.5-2.5,5-2.5c0.1-1.4-0.4-2.1-1.6-2.1c-1,0-1.6,0.3-1.7,1.2l-1.3-0.1c0.2-1.5,1.3-2.1,3-2.1s2.9,0.8,2.9,2.5v3.3
				c0,0.8,0.3,1.3,1.1,1.1v0.8C506,334.4,504.8,334,504.9,332.7z M501.2,332c-0.1,0.7,0.4,1.2,1.1,1.3c0.1,0,0.1,0,0.2,0
				c1.6-0.1,2.5-1.1,2.4-2.9C503.1,330.4,501.2,330.2,501.2,332"/>
		</g>
		<g id="aW-link-9">
			<path id="aW-9" class="st1" d="M511.7,327.6c-3.1-0.6-2.1,3.6-2.3,6.5h-1.3v-7.5h1.2c0,0.5,0,1,0.1,1.5c0.1-1,0.9-1.8,1.9-1.7
				c0.1,0,0.3,0,0.4,0.1L511.7,327.6"/>
		</g>
		<g id="aV-link-19">
			<path id="aV-19" class="st1" d="M515.9,326.4c2.5,0,3.4,1.7,3.3,4.2h-5.3c0,1.6,0.5,2.7,2.1,2.7c0.8,0.1,1.6-0.4,1.9-1.1l1.1,0.3
				c-0.5,1.2-1.7,1.9-3,1.8c-2.3,0-3.5-1.5-3.5-4S513.5,326.4,515.9,326.4z M517.9,329.6c0.3-1.1-0.3-2.2-1.4-2.5s-2.2,0.3-2.5,1.4
				l0,0c-0.1,0.4-0.2,0.7-0.2,1.1H517.9"/>
		</g>
	</g>
</g>
<g id="Z-link">
	<g id="Z-2">
		<g id="aZ-link-10">
			<path id="aZ-10" class="st1" d="M524.8,324.9v-1.2h1.2v1.2H524.8z M524.8,334.1v-7.5h1.2v7.5H524.8"/>
		</g>
		<g id="be-link-10">
			<path id="be-10" class="st1" d="M529.3,332.2c-0.1,1,0.7,1.1,1.5,0.9v1c-1.3,0.4-2.8,0.2-2.8-1.5v-5h-0.9v-0.9h1l0.4-1.7h0.8v1.7
				h1.4v0.9h-1.4L529.3,332.2"/>
		</g>
		<g id="aV-link-20">
			<path id="aV-20" class="st1" d="M534.9,326.4c2.5,0,3.4,1.7,3.3,4.2h-5.3c0,1.6,0.5,2.7,2.1,2.7c0.8,0.1,1.6-0.4,1.9-1.1l1.1,0.3
				c-0.5,1.2-1.7,1.9-3,1.8c-2.3,0-3.5-1.5-3.5-4S532.5,326.4,534.9,326.4z M536.9,329.6c0.3-1.1-0.3-2.2-1.4-2.5s-2.2,0.3-2.5,1.4
				l0,0c-0.1,0.4-0.2,0.7-0.2,1.1H536.9"/>
		</g>
		<g id="bA-link-10">
			<path id="bA-10" class="st1" d="M547.2,327.4c-2.7,0.1-1.5,4.2-1.8,6.7h-1.2v-4.8c0-1.1-0.2-2-1.4-1.9c-2.6,0.2-1.5,4.1-1.8,6.7
				h-1.2v-7.5h1.2c0,0.4,0,0.9,0.1,1.3c0.4-1.7,3.9-2,4.2,0c0.4-0.9,1.3-1.5,2.3-1.4c3.4-0.1,1.9,4.7,2.2,7.7h-1.2v-4.8
				C548.6,328.2,548.4,327.4,547.2,327.4"/>
		</g>
	</g>
</g>
<line id="Path-44" class="st2" x1="505.6" y1="379" x2="505.6" y2="364.5"/>
<polygon id="Path-45" class="st3" points="506.1,379.5 505.2,379.5 505.2,379 506.1,379 "/>
<polygon id="Path-46" class="st4" points="505.6,351 509.9,364.1 501.4,364.1 "/>
<line id="Path-47" class="st2" x1="532" y1="350" x2="532" y2="364.4"/>
<polygon id="Path-48" class="st3" points="532.5,350 531.6,350 531.6,349.5 532.5,349.5 "/>
<polygon id="Path-49" class="st4" points="532,378 527.8,364.9 536.3,364.9 "/>
<path id="Path-50" class="st0" d="M613.7,302.5c0-4,3.3-7.3,7.3-7.3c0,0,0,0,0,0h106.6c4.1,0,7.3,3.3,7.3,7.3c0,0,0,0,0,0v39.7
	c0,4.1-3.3,7.3-7.3,7.3H621c-4.1,0-7.3-3.3-7.3-7.3c0,0,0,0,0,0L613.7,302.5z"/>
<g id="ad-link-2">
	<g id="ad-2">
		<g id="bB-link-8">
			<path id="bB-8" class="st1" d="M645.5,315.7c4.7-0.3,8.6,0.3,8.5,4.8c-0.1,3.1-1.7,5-4.8,5h-3.7V315.7z M646.8,324.5
				c3.5,0.3,5.8-0.6,5.8-3.9s-2.4-4-5.8-3.8V324.5"/>
		</g>
		<g id="aV-link-21">
			<path id="aV-21" class="st1" d="M658.5,317.8c2.5,0,3.4,1.7,3.3,4.2h-5.4c0,1.6,0.6,2.7,2.1,2.7c0.8,0.1,1.6-0.4,2-1.1l1.1,0.3
				c-0.5,1.2-1.8,1.9-3.1,1.8c-2.3,0-3.5-1.5-3.5-4S656.2,317.8,658.5,317.8z M660.6,321c0.3-1.1-0.3-2.2-1.4-2.5s-2.2,0.3-2.5,1.4
				l0,0c-0.2,0.4-0.2,0.7-0.2,1.1H660.6"/>
		</g>
		<g id="aQ-link-8">
			<polyline id="aQ-8" class="st1" points="663.4,325.5 663.4,315.2 664.7,315.2 664.7,325.5 663.4,325.5 			"/>
		</g>
		<g id="aV-link-22">
			<path id="aV-22" class="st1" d="M669.6,317.8c2.5,0,3.4,1.7,3.3,4.2h-5.4c0,1.6,0.6,2.7,2.1,2.7c0.8,0.1,1.6-0.4,1.9-1.1l1.1,0.3
				c-0.5,1.2-1.8,1.9-3,1.8c-2.3,0-3.5-1.5-3.5-4S667.2,317.8,669.6,317.8z M671.6,321c0.3-1.1-0.3-2.2-1.4-2.5s-2.2,0.3-2.5,1.4
				l0,0c-0.2,0.4-0.2,0.7-0.2,1.1H671.6"/>
		</g>
		<g id="be-link-11">
			<path id="be-11" class="st1" d="M675.9,323.7c-0.1,1,0.7,1.1,1.5,0.9v1c-1.3,0.4-2.8,0.2-2.8-1.5v-5h-0.9v-1h1l0.4-1.7h0.8v1.7
				h1.4v0.9h-1.4V323.7"/>
		</g>
		<g id="aV-link-23">
			<path id="aV-23" class="st1" d="M681.5,317.8c2.5,0,3.4,1.7,3.3,4.2h-5.3c0,1.6,0.5,2.7,2.1,2.7c0.8,0.1,1.6-0.4,1.9-1.1l1.1,0.3
				c-0.5,1.2-1.8,1.9-3,1.8c-2.3,0-3.5-1.5-3.5-4S679.1,317.8,681.5,317.8z M683.5,321c0.3-1.1-0.4-2.2-1.5-2.4
				c-1-0.3-2.1,0.3-2.4,1.3c-0.2,0.4-0.2,0.7-0.2,1.1H683.5"/>
		</g>
	</g>
</g>
<g id="ag-link">
	<g id="ag">
		<g id="bM-link-2">
			<path id="bM-2" class="st1" d="M697.5,325.5l-1.1-2.9h-4.5l-1.1,2.9h-1.4l4-9.8h1.5l3.9,9.8H697.5z M696,321.6l-1.9-4.9
				c-0.5,1.8-1.2,3.2-1.8,4.9H696"/>
		</g>
		<g id="aQ-link-9">
			<polyline id="aQ-9" class="st1" points="699.8,325.5 699.8,315.2 701.1,315.2 701.1,325.5 699.8,325.5 			"/>
		</g>
		<g id="aQ-link-10">
			<polyline id="aQ-10" class="st1" points="703,325.5 703,315.2 704.2,315.2 704.2,325.5 703,325.5 			"/>
		</g>
	</g>
</g>
<line id="Path-51" class="st2" x1="566.7" y1="322.3" x2="598.7" y2="322.3"/>
<polygon id="Path-52" class="st3" points="566.8,322.8 566.3,322.8 566.3,321.9 566.8,321.9 "/>
<polygon id="Path-53" class="st4" points="612.2,322.3 599.1,326.6 599.1,318.1 "/>
<path id="Path-54" class="st0" d="M613.7,218.2c0-4,3.3-7.3,7.3-7.3c0,0,0,0,0,0h106.6c4,0,7.3,3.3,7.3,7.3c0,0,0,0,0,0v39.7
	c0,4-3.3,7.3-7.3,7.3c0,0,0,0,0,0H621c-4,0-7.3-3.3-7.3-7.3c0,0,0,0,0,0L613.7,218.2z"/>
<g id="ah-link">
	<g id="ah">
		<g id="bS-link">
			<polyline id="bS" class="st1" points="637.5,232.6 632.3,224.3 632.3,232.6 631.2,232.6 631.2,222.8 632.7,222.8 638,231.2 
				637.9,222.8 639.2,222.8 639.2,232.6 637.5,232.6 			"/>
		</g>
		<g id="aR-link-7">
			<path id="aR-7" class="st1" d="M644.2,224.9c2.5,0,3.4,1.5,3.4,3.9s-1.1,3.9-3.4,3.9s-3.3-1.6-3.3-3.9
				C640.8,226.2,642,224.9,644.2,224.9z M644.2,231.9c1.8,0,2.1-1.2,2.1-3s-0.3-3-2-3s-2.1,1.3-2.1,3S642.6,231.8,644.2,231.9"/>
		</g>
	</g>
</g>
<g id="ai-link">
	<g id="ai">
		<g id="bz-link-5">
			<path id="bz-5" class="st1" d="M660.6,225.5c-0.5-1.2-1.6-1.9-2.9-1.8c-2.3,0-3.5,1.6-3.5,3.9s1.2,4,3.5,4c1.4,0,2.6-0.8,3.1-2.1
				l1.1,0.6c-0.7,1.7-2.4,2.7-4.2,2.6c-3.2,0-4.6-2-4.8-5.1c-0.2-4.1,3.9-6.1,7.4-4.4c0.7,0.4,1.3,1,1.5,1.8"/>
		</g>
		<g id="aQ-link-11">
			<polyline id="aQ-11" class="st1" points="663.4,232.6 663.4,222.3 664.6,222.3 664.6,232.6 663.4,232.6 			"/>
		</g>
		<g id="aV-link-24">
			<path id="aV-24" class="st1" d="M669.5,224.9c2.5,0,3.4,1.7,3.3,4.2h-5.4c0,1.6,0.6,2.7,2.1,2.7c0.8,0.1,1.6-0.4,1.9-1.2l1.1,0.3
				c-0.5,1.2-1.7,1.9-3,1.8c-2.3,0-3.5-1.5-3.5-4S667.2,224.9,669.5,224.9z M671.6,228.2c0.3-1.1-0.3-2.2-1.4-2.5
				c-1.1-0.3-2.2,0.3-2.5,1.4c-0.2,0.3-0.2,0.7-0.2,1.1H671.6"/>
		</g>
		<g id="aT-link-9">
			<path id="aT-9" class="st1" d="M679.1,231.2c-0.5,1-1.6,1.6-2.7,1.6c-1.2,0.1-2.2-0.8-2.3-1.9c0-0.1,0-0.2,0-0.3
				c0-2.5,2.5-2.5,5-2.5c0.1-1.4-0.4-2.1-1.6-2.1c-1,0-1.6,0.3-1.7,1.2l-1.3-0.1c0.2-1.5,1.3-2.1,3-2.1s2.8,0.8,2.8,2.5v3.2
				c0,0.8,0.3,1.3,1.1,1.1v0.8C680.2,233,679,232.5,679.1,231.2z M675.4,230.5c-0.1,0.7,0.4,1.2,1.1,1.3c0.1,0,0.1,0,0.2,0
				c1.6-0.1,2.5-1.2,2.4-2.9C677.3,229,675.4,228.7,675.4,230.5"/>
		</g>
		<g id="aW-link-10">
			<path id="aW-10" class="st1" d="M685.9,226.2c-3.1-0.6-2.1,3.6-2.3,6.5h-1.3v-7.5h1.2c0,0.5,0,1,0.1,1.6c0.1-1,0.9-1.8,1.9-1.7
				c0.1,0,0.3,0,0.4,0.1L685.9,226.2"/>
		</g>
	</g>
</g>
<g id="aj-link">
	<g id="aj">
		<g id="bD-link-3">
			<path id="bD-3" class="st1" d="M691.3,222.8c3.5,0,7.6-0.6,7.6,3c0,3.1-3,3.2-6.3,3v3.9h-1.3V222.8z M692.6,227.8
				c2.3,0,4.9,0.4,4.9-2s-2.7-1.9-4.9-1.9V227.8"/>
		</g>
		<g id="aT-link-10">
			<path id="aT-10" class="st1" d="M705.2,231.2c-0.5,1-1.6,1.6-2.7,1.6c-1.2,0.1-2.2-0.8-2.3-1.9c0-0.1,0-0.2,0-0.3
				c0-2.5,2.5-2.5,5-2.5c0.1-1.4-0.4-2.1-1.6-2.1c-1,0-1.6,0.3-1.7,1.2l-1.3-0.1c0.2-1.5,1.3-2.1,3-2.1s2.9,0.8,2.9,2.5v3.2
				c0,0.8,0.3,1.3,1.1,1.1v0.8C706.3,233,705.1,232.5,705.2,231.2z M701.5,230.5c-0.1,0.7,0.4,1.2,1.1,1.3c0.1,0,0.1,0,0.2,0
				c1.6-0.1,2.5-1.2,2.4-2.9C703.5,229,701.5,228.7,701.5,230.5"/>
		</g>
		<g id="be-link-12">
			<path id="be-12" class="st1" d="M709.9,230.8c-0.1,1,0.7,1.1,1.5,0.9v0.9c-1.3,0.4-2.8,0.2-2.8-1.6v-5h-0.9v-0.9h1l0.3-1.7h0.8
				v1.7h1.4v0.9h-1.4L709.9,230.8"/>
		</g>
		<g id="aY-link-3">
			<path id="aY-3" class="st1" d="M715.7,225.9c-2.8,0-1.7,4-1.9,6.7h-1.3v-10.4h1.3v4.1c0.4-0.9,1.4-1.5,2.4-1.4
				c3.5,0,2.1,4.6,2.4,7.7h-1.3v-4.8C717.4,226.6,717,225.9,715.7,225.9"/>
		</g>
	</g>
</g>
<g id="ak-link">
	<g id="ak">
		<g id="bT-link">
			<polyline id="bT" class="st1" points="651.1,241.1 651.1,244.7 656.6,244.7 656.6,245.8 651.1,245.8 651.1,249.8 649.8,249.8 
				649.8,239.9 656.8,239.9 656.8,241.1 651.1,241.1 			"/>
		</g>
		<g id="aR-link-8">
			<path id="aR-8" class="st1" d="M661.3,242.1c2.5,0,3.4,1.5,3.4,3.9s-1.1,3.9-3.4,3.9s-3.3-1.6-3.3-3.9
				C657.9,243.4,659,242.1,661.3,242.1z M661.3,249c1.7,0,2.1-1.2,2.1-3s-0.3-3-2-3s-2.1,1.3-2.1,3S659.7,248.9,661.3,249"/>
		</g>
		<g id="aW-link-11">
			<path id="aW-11" class="st1" d="M669.8,243.3c-3.1-0.6-2.1,3.6-2.3,6.5h-1.3v-7.5h1.2c0,0.5,0,1,0.1,1.5c0.1-1,0.9-1.8,1.9-1.7
				c0.1,0,0.3,0,0.4,0.1L669.8,243.3"/>
		</g>
		<g id="bL-link-2">
			<polyline id="bL-2" class="st1" points="678.1,249.8 676.7,249.8 675.1,243.3 673.5,249.8 672,249.8 669.9,242.2 671.2,242.2 
				672.7,248.7 674.4,242.2 675.8,242.2 677.4,248.7 679.1,242.2 680.3,242.2 			"/>
		</g>
		<g id="aT-link-11">
			<path id="aT-11" class="st1" d="M685.8,248.3c-0.5,1-1.6,1.6-2.7,1.6c-1.2,0.1-2.2-0.8-2.3-1.9c0-0.1,0-0.2,0-0.3
				c0-2.5,2.5-2.5,5-2.5c0.1-1.4-0.4-2.1-1.6-2.1c-1,0-1.6,0.3-1.7,1.2l-1.3-0.1c0.2-1.5,1.3-2.1,3-2.1s2.9,0.8,2.9,2.5v3.2
				c0,0.8,0.3,1.3,1.1,1.1v0.8C686.9,250.1,685.7,249.6,685.8,248.3z M682.1,247.7c-0.1,0.7,0.4,1.2,1.1,1.3c0.1,0,0.1,0,0.2,0
				c1.6-0.1,2.5-1.1,2.4-2.9C684.1,246.1,682.1,245.8,682.1,247.7"/>
		</g>
		<g id="aW-link-12">
			<path id="aW-12" class="st1" d="M692.7,243.3c-3.1-0.6-2.1,3.6-2.3,6.5h-1.3v-7.5h1.2c0,0.5,0,1,0.1,1.5c0.2-1.1,0.9-1.9,2.3-1.6
				L692.7,243.3"/>
		</g>
		<g id="bE-link-13">
			<path id="bE-13" class="st1" d="M696.2,242.1c1-0.1,1.9,0.4,2.4,1.3v-4h1.3v10.4h-1.2c0-0.4,0-0.8-0.1-1.2
				c-0.4,0.9-1.3,1.5-2.3,1.4c-2.1,0-2.7-1.6-2.8-3.9C693.5,243.4,694.4,242.1,696.2,242.1z M696.6,243c-1.6,0-1.8,1.4-1.8,3
				s0.2,2.9,1.8,2.9s2-1.3,2-3S698.2,243,696.6,243"/>
		</g>
	</g>
</g>
<line id="Path-55" class="st2" x1="674.3" y1="294.7" x2="674.3" y2="280.2"/>
<polygon id="Path-56" class="st3" points="674.8,295.1 673.9,295.1 673.9,294.7 674.8,294.7 "/>
<polygon id="Path-57" class="st4" points="674.3,266.6 678.6,279.7 670.1,279.7 "/>
<path id="Path-58" class="st0" d="M37.7,659.5c0-4,3.3-7.3,7.3-7.3h113.8c4.1,0,7.3,3.3,7.3,7.3l0,0v39.7c0,4.1-3.3,7.3-7.3,7.3
	c0,0,0,0,0,0H45c-4.1,0-7.3-3.3-7.3-7.3c0,0,0,0,0,0L37.7,659.5z"/>
<g id="T-link">
	<g id="T-2">
		<g id="bz-link-6">
			<path id="bz-6" class="st1" d="M57.3,666.9c-0.4-1.2-1.6-1.9-2.9-1.8c-2.3,0-3.5,1.6-3.5,3.9s1.2,4,3.5,4c1.4,0,2.6-0.8,3.1-2.1
				l1.1,0.6c-0.7,1.7-2.4,2.7-4.2,2.6c-3.2,0-4.6-2-4.8-5.1c-0.2-4.1,3.9-6.1,7.4-4.4c0.7,0.4,1.3,1,1.5,1.8"/>
		</g>
		<g id="aY-link-4">
			<path id="aY-4" class="st1" d="M63.3,667.2c-2.8,0-1.7,4-1.9,6.7h-1.3v-10.4h1.3v4.1c0.4-0.9,1.4-1.5,2.4-1.4
				c3.5,0,2.1,4.6,2.4,7.7h-1.3v-4.8C65,667.9,64.6,667.2,63.3,667.2"/>
		</g>
		<g id="aT-link-12">
			<path id="aT-12" class="st1" d="M72.7,672.5c-0.5,1-1.6,1.6-2.7,1.6c-1.2,0.1-2.2-0.7-2.3-1.9c0-0.1,0-0.2,0-0.4
				c0-2.5,2.5-2.5,5-2.5c0.1-1.4-0.4-2.2-1.6-2.2c-1,0-1.6,0.3-1.7,1.2l-1.4-0.1c0.2-1.5,1.3-2.1,3-2.1s2.9,0.8,2.9,2.5v3.2
				c0,0.8,0.3,1.3,1.1,1.1v0.8C73.8,674.3,72.6,673.8,72.7,672.5z M69,671.8c-0.1,0.7,0.4,1.2,1.1,1.3c0.1,0,0.1,0,0.2,0
				c1.6-0.1,2.5-1.2,2.4-2.9C70.9,670.3,69,670,69,671.8"/>
		</g>
		<g id="ba-link-11">
			<path id="ba-11" class="st1" d="M79.6,666.3c3.5-0.2,2.1,4.6,2.4,7.7h-1.3v-4.8c0-1.2-0.3-2-1.5-1.9c-2.9,0.1-1.8,4-1.9,6.7H76
				v-7.5h1.2c0,0.4,0,0.9,0.1,1.3C77.7,666.8,78.7,666.2,79.6,666.3"/>
		</g>
		<g id="bb-link-9">
			<path id="bb-9" class="st1" d="M89.9,666.4c-0.4,5,1.6,11.6-4.4,10.3c-0.9-0.2-1.5-0.8-1.7-1.7l1.3-0.2c0.6,1.9,4,1.3,3.5-1.1
				v-1.2c-0.4,0.9-1.4,1.5-2.4,1.4c-2.2,0-2.7-1.6-2.7-3.8s0.6-3.8,2.8-3.9c1,0,1.9,0.5,2.3,1.4c0-0.4,0-0.8,0.1-1.3H89.9z
				 M86.6,673.1c1.4,0,2-1.3,2-2.9s-0.6-3-2-3s-1.8,1.3-1.8,3S85.1,673.1,86.6,673.1"/>
		</g>
		<g id="aV-link-25">
			<path id="aV-25" class="st1" d="M94.8,666.3c2.5,0,3.4,1.7,3.3,4.2h-5.3c0,1.6,0.6,2.7,2.1,2.7c0.8,0.1,1.6-0.4,1.9-1.2l1.1,0.3
				c-0.5,1.2-1.7,1.9-3,1.8c-2.3,0-3.5-1.5-3.4-4S92.5,666.3,94.8,666.3z M96.9,669.5c0.3-1.1-0.3-2.2-1.4-2.5
				c-1.1-0.3-2.2,0.3-2.5,1.4c-0.1,0.4-0.2,0.7-0.2,1.1L96.9,669.5"/>
		</g>
	</g>
</g>
<g id="al-link-2">
	<g id="al-2">
		<g id="bx-link-2">
			<path id="bx-2" class="st1" d="M112,666.9c0.1,1.4-1,2.6-2.4,2.8l2.8,4.2h-1.5l-2.6-4.1h-3.1v4.1h-1.3v-9.8
				C107.4,664.2,112.1,663.3,112,666.9z M105.3,668.8c2.4-0.1,5.4,0.5,5.4-1.9s-3.2-1.7-5.4-1.8V668.8"/>
		</g>
		<g id="aT-link-13">
			<path id="aT-13" class="st1" d="M118.6,672.5c-0.5,1-1.6,1.6-2.7,1.6c-1.2,0.1-2.2-0.7-2.3-1.9c0-0.1,0-0.2,0-0.4
				c0-2.5,2.5-2.5,5-2.5c0.1-1.4-0.4-2.2-1.6-2.2c-1,0-1.6,0.3-1.7,1.2l-1.3-0.1c0.2-1.5,1.3-2.1,3-2.1s2.8,0.8,2.8,2.5v3.2
				c0,0.8,0.3,1.3,1.1,1.1v0.8C119.7,674.3,118.5,673.8,118.6,672.5z M114.9,671.9c-0.1,0.7,0.4,1.2,1.1,1.3c0.1,0,0.1,0,0.2,0
				c1.6-0.1,2.5-1.2,2.4-2.9C116.8,670.3,114.9,670,114.9,671.9"/>
		</g>
		<g id="ba-link-12">
			<path id="ba-12" class="st1" d="M125.6,666.3c3.5-0.2,2.1,4.6,2.4,7.7h-1.3v-4.8c0-1.2-0.3-2-1.5-1.9c-2.9,0.1-1.8,4-2,6.7h-1.3
				v-7.5h1.2c0,0.4,0,0.8,0.1,1.3C123.6,666.8,124.5,666.2,125.6,666.3"/>
		</g>
		<g id="by-link-2">
			<polyline id="by-2" class="st1" points="134.5,674 132,670.5 131.1,671.3 131.1,674 129.8,674 129.8,663.6 131.1,663.6 
				131.1,670.1 134.4,666.4 135.8,666.4 132.8,669.7 136,674 134.5,674 			"/>
		</g>
		<g id="aZ-link-11">
			<path id="aZ-11" class="st1" d="M137,664.8v-1.2h1.3v1.2H137z M137,674v-7.5h1.3v7.6L137,674"/>
		</g>
		<g id="ba-link-13">
			<path id="ba-13" class="st1" d="M143.8,666.3c3.5-0.2,2.1,4.6,2.4,7.7h-1.3v-4.8c0-1.2-0.3-2-1.6-1.9c-2.9,0.1-1.7,4-1.9,6.7
				h-1.3v-7.5h1.2c0,0.4,0,0.9,0.1,1.3C141.8,666.8,142.8,666.2,143.8,666.3"/>
		</g>
		<g id="bb-link-10">
			<path id="bb-10" class="st1" d="M154.1,666.4c-0.4,5,1.6,11.6-4.4,10.3c-0.9-0.2-1.5-0.8-1.8-1.7l1.3-0.2c0.6,1.9,4,1.3,3.5-1.1
				v-1.2c-0.4,0.9-1.4,1.5-2.4,1.4c-2.1,0-2.7-1.6-2.7-3.8s0.6-3.8,2.8-3.9c1,0,1.9,0.5,2.3,1.4c0-0.4,0-0.8,0.1-1.3L154.1,666.4z
				 M150.8,673.1c1.4,0,2-1.3,2-2.9s-0.6-3-2-3s-1.8,1.3-1.8,3S149.2,673.1,150.8,673.1"/>
		</g>
	</g>
</g>
<g id="am-link-2">
	<g id="am-2">
		<g id="bU-link">
			<polyline id="bU" class="st1" points="91.5,682.4 91.5,691.1 90.2,691.1 90.2,682.4 86.8,682.4 86.8,681.2 94.9,681.2 
				94.9,682.4 91.5,682.4 			"/>
		</g>
		<g id="bV-link">
			<path id="bV" class="st1" d="M101.5,683.5l-3.4,8.8c-0.5,1.3-1.9,2-3.2,1.7v-1c1.5,0.2,2.1-0.8,2.5-2l-3-7.5h1.3l2.3,6.2l2.1-6.2
				H101.5"/>
		</g>
		<g id="bf-link-6">
			<path id="bf-6" class="st1" d="M106.1,683.4c2.2,0,2.8,1.6,2.8,3.9s-0.6,3.9-2.8,4c-1,0.1-1.9-0.5-2.4-1.3v4.2h-1.3v-10.5h1.2
				l0.1,1.2C104.1,683.9,105.1,683.3,106.1,683.4z M105.8,690.3c1.6,0,1.8-1.3,1.8-3s-0.2-2.9-1.8-2.9s-2,1.3-2,3
				S104.2,690.3,105.8,690.3"/>
		</g>
		<g id="aV-link-26">
			<path id="aV-26" class="st1" d="M113.4,683.4c2.5,0,3.4,1.7,3.3,4.2h-5.3c0,1.6,0.6,2.7,2.1,2.7c0.8,0.1,1.6-0.4,1.9-1.2l1.1,0.3
				c-0.5,1.2-1.7,1.9-3,1.8c-2.3,0-3.5-1.5-3.4-4S111.1,683.4,113.4,683.4z M115.5,686.6c0.3-1.1-0.4-2.2-1.5-2.4
				c-1-0.3-2.1,0.3-2.4,1.3c-0.2,0.3-0.2,0.7-0.2,1.1H115.5"/>
		</g>
	</g>
</g>
<line id="Path-59" class="st2" x1="215.6" y1="679.3" x2="181.2" y2="679.3"/>
<polygon id="Path-60" class="st3" points="216,679.8 215.5,679.8 215.5,678.8 216,678.8 "/>
<polygon id="Path-61" class="st4" points="167.6,679.3 180.7,675 180.7,683.6 "/>
<path id="Path-62" class="st2" d="M37.2,679.3H12c-6.1,0-11-4.9-11-11V202.8c0-6.1,4.9-11,11-11h183.8"/>
<polygon id="Path-63" class="st3" points="37.7,679.8 37.2,679.8 37.2,678.8 37.7,678.8 "/>
<polygon id="Path-64" class="st4" points="209.3,191.7 196.2,196 196.2,187.5 "/>
<polygon id="Path-65" class="st3" points="250.9,164.6 250,164.6 250,164.1 250.9,164.1 "/>
<g class="st5">
	<path class="st6" d="M152.8,32.9c0-2.2,0.3-4,1-5.5c0.5-1.1,1.2-2.1,2-2.9s1.8-1.5,2.8-1.9c1.3-0.6,2.9-0.8,4.6-0.8
		c3.2,0,5.7,1,7.6,2.9s2.8,4.7,2.8,8.2c0,3.5-0.9,6.2-2.8,8.1s-4.4,2.9-7.6,2.9c-3.2,0-5.7-1-7.6-2.9
		C153.8,39,152.8,36.4,152.8,32.9z M157.3,32.8c0,2.4,0.6,4.3,1.7,5.5c1.1,1.3,2.5,1.9,4.3,1.9s3.1-0.6,4.3-1.9
		c1.1-1.2,1.7-3.1,1.7-5.6c0-2.5-0.5-4.3-1.6-5.5s-2.5-1.8-4.3-1.8s-3.2,0.6-4.3,1.8C157.8,28.5,157.3,30.3,157.3,32.8z"/>
	<path class="st6" d="M181,43.5h-4.1V28h3.8v2.2c0.7-1,1.2-1.7,1.8-2.1s1.1-0.5,1.8-0.5c0.9,0,1.8,0.3,2.7,0.8l-1.3,3.6
		c-0.7-0.4-1.3-0.7-1.9-0.7c-0.6,0-1.1,0.2-1.5,0.5s-0.7,0.9-0.9,1.7s-0.3,2.6-0.3,5.2V43.5z"/>
	<path class="st6" d="M188.7,25.9v-3.8h4.1v3.8H188.7z M188.7,43.5V28h4.1v15.6H188.7z"/>
	<path class="st6" d="M196.6,44.6l4.7,0.6c0.1,0.5,0.3,0.9,0.5,1.1c0.4,0.3,1,0.4,1.8,0.4c1.1,0,1.9-0.2,2.4-0.5
		c0.4-0.2,0.6-0.6,0.8-1c0.1-0.3,0.2-1,0.2-1.9V41c-1.2,1.7-2.8,2.5-4.7,2.5c-2.1,0-3.7-0.9-5-2.7c-1-1.4-1.4-3.1-1.4-5.2
		c0-2.6,0.6-4.6,1.9-6s2.8-2.1,4.7-2.1c1.9,0,3.5,0.8,4.8,2.5V28h3.9v14c0,1.8-0.2,3.2-0.5,4.1s-0.7,1.6-1.3,2.1s-1.3,0.9-2.2,1.2
		s-2.1,0.4-3.5,0.4c-2.6,0-4.5-0.5-5.6-1.4c-1.1-0.9-1.7-2-1.7-3.4C196.6,44.9,196.6,44.8,196.6,44.6z M200.3,35.4
		c0,1.7,0.3,2.9,1,3.6s1.4,1.1,2.4,1.1c1,0,1.9-0.4,2.5-1.2s1-2,1-3.5c0-1.6-0.3-2.8-1-3.6s-1.5-1.2-2.5-1.2c-1,0-1.8,0.4-2.4,1.1
		C200.6,32.7,200.3,33.9,200.3,35.4z"/>
	<path class="st6" d="M215.4,25.9v-3.8h4.1v3.8H215.4z M215.4,43.5V28h4.1v15.6H215.4z"/>
	<path class="st6" d="M237.8,43.5h-4.1v-7.9c0-1.7-0.1-2.8-0.3-3.3c-0.2-0.5-0.5-0.9-0.9-1.1s-0.9-0.4-1.4-0.4
		c-0.7,0-1.4,0.2-1.9,0.6s-1,0.9-1.2,1.6s-0.3,1.8-0.3,3.6v7h-4.1V28h3.8v2.3c1.4-1.8,3.1-2.6,5.1-2.6c0.9,0,1.7,0.2,2.5,0.5
		c0.8,0.3,1.3,0.7,1.7,1.3s0.7,1.1,0.8,1.7s0.2,1.6,0.2,2.8V43.5z"/>
	<path class="st6" d="M245.1,32.7l-3.7-0.7c0.4-1.5,1.1-2.6,2.2-3.3s2.5-1.1,4.6-1.1c1.8,0,3.2,0.2,4.1,0.7s1.5,1,1.9,1.7
		c0.4,0.7,0.5,1.9,0.5,3.7l0,4.8c0,1.4,0.1,2.4,0.2,3c0.1,0.7,0.4,1.3,0.7,2.1h-4.1c-0.1-0.3-0.2-0.7-0.4-1.2
		c-0.1-0.2-0.1-0.4-0.1-0.5c-0.7,0.7-1.5,1.2-2.3,1.5s-1.7,0.5-2.6,0.5c-1.6,0-2.9-0.4-3.8-1.3s-1.4-2-1.4-3.3
		c0-0.9,0.2-1.7,0.6-2.4c0.4-0.7,1-1.2,1.8-1.6c0.8-0.4,1.8-0.7,3.3-1c1.9-0.4,3.3-0.7,4-1V33c0-0.8-0.2-1.4-0.6-1.7
		c-0.4-0.3-1.1-0.5-2.2-0.5c-0.7,0-1.3,0.1-1.7,0.4S245.3,32,245.1,32.7z M250.6,36.1c-0.5,0.2-1.4,0.4-2.5,0.6s-1.9,0.5-2.2,0.7
		c-0.5,0.4-0.8,0.9-0.8,1.5c0,0.6,0.2,1.1,0.6,1.5s1,0.6,1.6,0.6c0.7,0,1.5-0.2,2.1-0.7c0.5-0.4,0.8-0.8,1-1.4c0.1-0.4,0.2-1,0.2-2
		V36.1z"/>
	<path class="st6" d="M258.7,43.5V22.1h4.1v21.5H258.7z"/>
	<path class="st6" d="M275.4,22.1h4.3v11.6c0,1.8,0.1,3,0.2,3.6c0.2,0.9,0.6,1.6,1.3,2.1c0.7,0.5,1.7,0.8,2.9,0.8
		c1.2,0,2.2-0.3,2.8-0.8s1-1.1,1.1-1.9s0.2-1.9,0.2-3.6V22.1h4.3v11.3c0,2.6-0.1,4.4-0.4,5.5s-0.7,2-1.3,2.7s-1.5,1.3-2.5,1.8
		c-1.1,0.4-2.4,0.7-4.1,0.7c-2.1,0-3.6-0.2-4.7-0.7c-1.1-0.5-1.9-1.1-2.5-1.8s-1-1.6-1.2-2.4c-0.3-1.2-0.4-3-0.4-5.4V22.1z"/>
	<path class="st6" d="M295.6,39.1l4.1-0.6c0.2,0.8,0.5,1.4,1.1,1.8s1.3,0.6,2.3,0.6c1.1,0,1.9-0.2,2.4-0.6c0.4-0.3,0.5-0.6,0.5-1.1
		c0-0.3-0.1-0.6-0.3-0.8c-0.2-0.2-0.7-0.4-1.4-0.5c-3.3-0.7-5.4-1.4-6.3-2c-1.2-0.8-1.8-2-1.8-3.5c0-1.3,0.5-2.5,1.6-3.4
		s2.7-1.4,5-1.4c2.1,0,3.7,0.3,4.7,1s1.7,1.7,2.1,3.1l-3.9,0.7c-0.2-0.6-0.5-1.1-0.9-1.4s-1.1-0.5-2-0.5c-1.1,0-1.9,0.2-2.3,0.5
		c-0.3,0.2-0.5,0.5-0.5,0.8c0,0.3,0.1,0.5,0.4,0.7c0.4,0.3,1.7,0.7,3.8,1.2s3.7,1.1,4.6,1.8c0.9,0.7,1.3,1.8,1.3,3.1
		c0,1.4-0.6,2.7-1.8,3.7s-3,1.5-5.3,1.5c-2.1,0-3.8-0.4-5-1.3S296,40.6,295.6,39.1z"/>
	<path class="st6" d="M322.7,38.6l4.1,0.7c-0.5,1.5-1.4,2.6-2.5,3.4c-1.1,0.8-2.6,1.2-4.3,1.2c-2.7,0-4.7-0.9-6-2.7
		c-1-1.4-1.5-3.2-1.5-5.4c0-2.6,0.7-4.6,2-6.1c1.3-1.5,3.1-2.2,5.1-2.2c2.3,0,4.1,0.8,5.5,2.3s2,3.9,1.9,7h-10.3
		c0,1.2,0.4,2.2,1,2.8s1.4,1,2.4,1c0.6,0,1.2-0.2,1.6-0.5S322.5,39.4,322.7,38.6z M323,34.4c0-1.2-0.3-2.1-0.9-2.7s-1.3-0.9-2.1-0.9
		c-0.9,0-1.6,0.3-2.2,1s-0.9,1.5-0.9,2.7H323z"/>
	<path class="st6" d="M334.3,43.5h-4.1V28h3.8v2.2c0.7-1,1.2-1.7,1.8-2.1s1.1-0.5,1.8-0.5c0.9,0,1.8,0.3,2.7,0.8L339,32
		c-0.7-0.4-1.3-0.7-1.9-0.7c-0.6,0-1.1,0.2-1.5,0.5s-0.7,0.9-0.9,1.7s-0.3,2.6-0.3,5.2V43.5z"/>
	<path class="st6" d="M350.5,43.5V22.1h14.7v3.6h-10.4v5.1h9v3.6h-9v9.1H350.5z"/>
	<path class="st6" d="M368.7,43.5V22.1h4.1v21.5H368.7z"/>
	<path class="st6" d="M376.1,35.5c0-1.4,0.3-2.7,1-4s1.6-2.3,2.9-2.9s2.6-1,4.1-1c2.4,0,4.3,0.8,5.8,2.3s2.3,3.5,2.3,5.8
		c0,2.4-0.8,4.3-2.3,5.9c-1.5,1.5-3.4,2.3-5.7,2.3c-1.4,0-2.8-0.3-4.1-1s-2.3-1.6-3-2.8C376.5,38.8,376.1,37.3,376.1,35.5z
		 M380.3,35.8c0,1.5,0.4,2.7,1.1,3.5s1.6,1.2,2.7,1.2s2-0.4,2.7-1.2s1.1-2,1.1-3.6c0-1.5-0.4-2.7-1.1-3.5s-1.6-1.2-2.7-1.2
		s-2,0.4-2.7,1.2S380.3,34.2,380.3,35.8z"/>
	<path class="st6" d="M398.3,43.5L393.4,28h4l2.9,10.2L403,28h4l2.6,10.2l3-10.2h4.1l-5,15.6h-4l-2.7-10l-2.6,10H398.3z"/>
</g>
<path class="st0" d="M1105.3,161c0-5.1,4.1-9.3,9.3-9.3c0,0,0,0,0,0h144c5.1,0,9.3,4.1,9.3,9.3c0,0,0,0,0,0v51.1
	c0,5.1-4.2,9.3-9.3,9.3l0,0h-144c-5.1,0-9.3-4.2-9.3-9.3c0,0,0,0,0,0V161z"/>
<g id="e">
	<path id="G-2" class="st1" d="M1169,190.8v-6.1h-6.4v6.1h-3v-14.4h3v5.7h6.4v-5.7h2.9v14.4H1169"/>
	<path id="H-2" class="st1" d="M1179.7,179.5c3.7,0,5.6,2.1,5.6,5.8s-2,5.8-5.6,5.8s-5.5-2.1-5.5-5.8S1176.1,179.5,1179.7,179.5z
		 M1179.6,189c2,0,2.6-1.6,2.6-3.8c0-2.3-0.6-3.8-2.5-3.8s-2.6,1.5-2.6,3.8C1177.1,187.3,1177.7,189,1179.6,189"/>
	<path id="I-3" class="st1" d="M1198.8,181.6c-3.1,0.5-1.6,5.8-2,9.1h-2.8v-6.2c0.1-1.6-0.3-2.8-1.7-2.9c-3.1,0.6-1.6,5.8-1.9,9.1
		h-2.9l-0.1-11h2.7c0,0.7,0,1.5,0.2,2.2c0.6-3.1,5.9-3.2,6.3,0c0.8-1.3,1.4-2.5,3.4-2.4c4.8,0.1,3,6.7,3.3,11.3h-2.8v-6.2
		C1200.3,183.1,1200.1,181.8,1198.8,181.6"/>
	<path id="J-3" class="st1" d="M1215.3,188c-0.7,1.9-2.7,3.2-4.8,3c-3.5-0.1-5.2-2.1-5.2-5.8s1.7-5.7,5.2-5.7s4.8,2.6,4.9,6.3h-7.1
		c0,1.8,0.5,3.2,2.3,3.2c0.9,0.1,1.8-0.4,2-1.3L1215.3,188z M1212.7,184c0.3-2.7-3.3-3.7-4.1-1.2c-0.1,0.4-0.2,0.8-0.2,1.2H1212.7"
		/>
</g>
<path class="st2" d="M1186.6,222v20.7c0,7.7-6.2,13.9-13.9,13.9c0,0,0,0,0,0h-245c-7.7,0-13.9,6.2-13.9,13.9c0,0,0,0,0,0v2.3"/>
<path class="st3" d="M1187.2,222h-1.2v-0.6h1.2L1187.2,222z"/>
<path class="st4" d="M913.7,290l-5.4-16.6h10.8L913.7,290z"/>
<path class="st0" d="M832.5,301.1c0-5.1,4.1-9.3,9.3-9.3c0,0,0,0,0,0h144c5.1,0,9.3,4.1,9.3,9.3c0,0,0,0,0,0v50.2
	c0,5.1-4.1,9.3-9.3,9.3c0,0,0,0,0,0h-144c-5.1,0-9.3-4.1-9.3-9.3c0,0,0,0,0,0V301.1z"/>
<g id="f-2">
	<path id="K-3" class="st1" d="M855.1,307c4.4,0,9.6-0.8,9.6,3.8c0,3.9-3.9,4-7.9,3.8v4.9h-1.7V307z M856.8,313.3
		c2.9,0,6.2,0.6,6.2-2.5s-3.4-2.4-6.2-2.4V313.3"/>
	<path id="L-2" class="st1" d="M870.7,309.7c3.2,0,4.3,2.1,4.2,5.3h-6.8c0,2,0.7,3.4,2.7,3.4c1.1,0.1,2.1-0.5,2.5-1.5l1.4,0.4
		c-0.5,1.4-1.8,2.3-3.9,2.3c-2.9,0-4.4-1.9-4.4-5S867.7,309.7,870.7,309.7z M873.3,313.8c0.1-1.4-0.9-2.7-2.3-2.8
		c-1.1-0.1-2.1,0.5-2.5,1.4c-0.2,0.4-0.3,0.9-0.3,1.4H873.3"/>
	<path id="M-2" class="st1" d="M881.4,311.3c-3.9-0.8-2.7,4.6-2.9,8.2h-1.6v-9.5h1.5c0,0.7,0,1.3,0.1,2c0.3-1.4,1.2-2.5,2.9-2.1
		L881.4,311.3"/>
	<path id="N-2" class="st1" d="M886.7,307.7c-1.5-0.5-2.1,0.5-1.9,2.2h1.9v1.2h-1.9v8.4h-1.6v-8.4h-1.3v-1.2h1.3
		c-0.3-2.6,0.9-4.1,3.5-3.4V307.7"/>
	<path id="O" class="st1" d="M891.7,309.7c3.1,0,4.3,1.9,4.3,5s-1.4,5-4.3,5s-4.2-2-4.2-5C887.4,311.4,888.8,309.7,891.7,309.7z
		 M891.7,318.5c2.2,0,2.7-1.5,2.7-3.8s-0.4-3.8-2.6-3.8s-2.7,1.6-2.7,3.8S889.6,318.4,891.7,318.5"/>
	<path id="M-3" class="st1" d="M902.4,311.3c-3.9-0.8-2.7,4.6-2.9,8.2H898l0-9.5h1.5c0,0.7,0,1.3,0.1,2c0.3-1.4,1.2-2.5,2.9-2.1
		L902.4,311.3"/>
	<path id="P" class="st1" d="M913.2,311c-3.4,0.1-1.9,5.3-2.2,8.5h-1.6v-6.1c0-1.5-0.2-2.5-1.8-2.4c-3.3,0.2-1.9,5.2-2.2,8.5h-1.6
		v-9.5h1.5c0,0.5,0,1.1,0.1,1.6c0.5-2.2,5-2.5,5.4,0c0.5-1.1,1.7-1.9,2.9-1.8c4.3-0.1,2.4,6,2.8,9.7H915v-6.1
		C915,311.9,914.8,310.9,913.2,311"/>
	<path id="Q" class="st1" d="M924.8,317.6c-0.8,1-1.6,2.1-3.4,2c-1.5,0.1-2.8-1-2.9-2.4c0-0.1,0-0.3,0-0.4c0-3.2,3.2-3.2,6.3-3.2
		c0.2-1.8-0.5-2.7-2.1-2.7c-1.2,0-2.1,0.4-2.1,1.5l-1.7-0.1c0.2-1.9,1.7-2.6,3.8-2.6s3.6,1,3.6,3.2v4.1c0,1,0.3,1.6,1.4,1.4v1
		C926.2,319.9,924.7,319.3,924.8,317.6z M920.1,316.8c-0.1,0.8,0.5,1.6,1.4,1.6c0.1,0,0.2,0,0.3,0c2-0.1,3.2-1.5,3-3.7
		C922.5,314.8,920.1,314.5,920.1,316.8"/>
	<path id="R" class="st1" d="M933.6,309.7c4.5-0.2,2.7,5.8,3,9.7H935v-6.1c0-1.6-0.4-2.5-2-2.4c-3.6,0.1-2.2,5.1-2.5,8.5H929l0-9.5
		h1.5c0,0.5,0,1.1,0.1,1.6C931.1,310.4,932.3,309.6,933.6,309.7"/>
	<path id="S" class="st1" d="M942.6,311c-2,0-2.4,1.6-2.4,3.7s0.5,3.8,2.4,3.8c1.1,0.1,2.1-0.7,2.2-1.8c0,0,0,0,0-0.1l1.6,0.1
		c-0.2,1.9-1.8,3.2-3.7,3.1c-3,0-3.8-2.1-4.1-5c-0.5-4.7,5.1-6.6,7.4-3.2c0.2,0.3,0.3,0.7,0.3,1.1l-1.6,0.1
		C944.5,311.7,943.6,310.9,942.6,311"/>
	<path id="L-3" class="st1" d="M951.8,309.7c3.2,0,4.3,2.1,4.2,5.3h-6.8c0,2,0.7,3.4,2.7,3.4c1.1,0.1,2.1-0.5,2.5-1.5l1.4,0.4
		c-0.7,1.5-2.2,2.4-3.9,2.3c-2.9,0-4.4-1.9-4.4-5S948.8,309.7,951.8,309.7z M954.4,313.8c0.1-1.4-0.9-2.7-2.3-2.8
		c-1.1-0.1-2.1,0.5-2.5,1.4c-0.2,0.4-0.3,0.9-0.3,1.4H954.4"/>
</g>
<g id="g-3">
	<path id="T-3" class="st1" d="M973.6,319.4c-1.4,0.5-2.9,0.1-3.9-0.9c-2,2-7.5,1.6-7.2-2.2c0.2-2.2,1.5-3.1,3-3.8
		c-1.2-2-0.8-5.7,2.4-5.4c1.8,0.1,3,0.8,3,2.5c0,2.2-2,2.7-3.6,3.5c0.7,1.3,1.6,2.5,2.5,3.6c0.7-1.1,1.3-2.3,1.5-3.6l1.3,0.4
		c-0.4,1.5-1,2.9-1.9,4.1c0.7,0.8,1.8,1.1,2.9,0.8L973.6,319.4z M966.7,311.9c1.3-0.5,2.6-0.9,2.8-2.4c0-0.8-0.7-1.5-1.5-1.5
		c-0.1,0-0.1,0-0.1,0C965.7,308,965.9,310.5,966.7,311.9L966.7,311.9z M963.9,316.1c-0.2,2.6,3.6,2.9,4.9,1.4c-1.1-1.2-2-2.6-2.8-4
		C964.9,313.9,964,314.9,963.9,316.1"/>
</g>
<g id="h-3">
	<path id="U-2" class="st1" d="M892.7,328.5c4.1,0,6.2,2.3,6.2,6.3c0,3.6-1.8,5.9-5,6.3c0.4,1.5,1.5,2.4,3.5,2v1.1
		c-2,0.8-4.2-0.2-4.9-2.2c-0.1-0.3-0.2-0.6-0.2-0.9c-3.7-0.3-5.6-2.6-5.6-6.4S888.7,328.5,892.7,328.5z M892.7,339.9
		c3.2,0,4.5-2.1,4.5-5.1s-1.5-5-4.5-5s-4.5,2-4.5,5S889.7,339.9,892.7,339.9"/>
	<path id="V-2" class="st1" d="M904,341.3c-4.5,0.2-2.7-5.8-3.1-9.7h1.6v6c0,1.6,0.4,2.5,2,2.5c3.6-0.1,2.3-5.1,2.5-8.5h1.6l0,9.5
		h-1.5c0-0.6,0-1.1-0.1-1.6C906.5,340.6,905.3,341.4,904,341.3"/>
	<path id="Q-2" class="st1" d="M916.8,339.3c-0.7,1.3-2,2-3.4,2c-1.5,0.1-2.8-1-2.9-2.4c0-0.1,0-0.3,0-0.4c0-3.2,3.2-3.2,6.3-3.2
		c0.2-1.8-0.5-2.7-2-2.7c-1.2,0-2.1,0.4-2.1,1.6L911,334c0.3-1.9,1.7-2.6,3.8-2.6s3.6,1,3.6,3.2v4.1c0,1,0.3,1.6,1.4,1.4v1
		C918.2,341.5,916.7,341,916.8,339.3z M912.2,338.5c-0.1,0.8,0.5,1.6,1.3,1.7c0.1,0,0.2,0,0.3,0c2.1-0.1,3.2-1.5,3-3.7
		C914.6,336.5,912.2,336.2,912.2,338.5"/>
	<path id="W-2" class="st1" d="M921,341.1V328h1.6v13.1L921,341.1"/>
	<path id="X-2" class="st1" d="M925,329.5V328h1.6v1.5L925,329.5z M925,341.1v-9.5h1.6v9.5H925"/>
	<path id="Y-2" class="st1" d="M930.7,338.8c-0.1,1.2,0.9,1.5,1.9,1.1v1.2c-1.7,0.5-3.5,0.2-3.5-2v-6.4H928v-1.1h1.2l0.5-2.2h1v2.2
		h1.8v1.1h-1.8L930.7,338.8"/>
	<path id="Z-3" class="st1" d="M941.7,331.6l-4.3,11.1c-0.6,1.6-2.4,2.6-4.1,2.1v-1.2c2,0.3,2.7-1,3.2-2.5l-3.8-9.5h1.7l2.9,7.8
		l2.7-7.8L941.7,331.6"/>
</g>
<path class="st0" d="M1006.6,301.1c0-5.1,4.1-9.3,9.3-9.3c0,0,0,0,0,0h144c5.1,0,9.3,4.1,9.3,9.3c0,0,0,0,0,0v50.2
	c0,5.1-4.1,9.3-9.3,9.3c0,0,0,0,0,0h-144c-5.1,0-9.3-4.1-9.3-9.3c0,0,0,0,0,0L1006.6,301.1z"/>
<g id="i-4">
	<path id="aa-2" class="st1" d="M1031.8,330.3l0.1-10.9c-1.2,3.8-2.7,7.3-4,10.9h-1.2l-4.1-10.9v10.9h-1.5v-12.4h2.2l3.9,10.6
		c1-3.8,2.6-7,3.8-10.6h2.2v12.4H1031.8"/>
	<path id="O-2" class="st1" d="M1039.8,320.6c3.1,0,4.3,1.9,4.3,5s-1.4,5-4.3,5s-4.2-2-4.2-5C1035.6,322.2,1037,320.6,1039.8,320.6z
		 M1039.8,329.3c2.2,0,2.7-1.5,2.7-3.8s-0.4-3.8-2.6-3.8s-2.7,1.6-2.7,3.8S1037.8,329.2,1039.8,329.3"/>
	<path id="ab-2" class="st1" d="M1050.6,320.6c2.7,0,3.5,2,3.5,4.9c0,3.3-1.2,5-3.5,5c-1.6,0-2.5-0.5-3-1.7l-0.1,1.5h-1.5v-13.1h1.6
		v5.1C1048.1,321.1,1049.3,320.4,1050.6,320.6z M1050.2,329.3c2,0,2.2-1.7,2.2-3.8s-0.2-3.8-2.2-3.7s-2.6,1.6-2.6,3.8
		S1048.1,329.3,1050.2,329.3"/>
	<path id="X-3" class="st1" d="M1056.1,318.7v-1.5h1.6v1.5H1056.1z M1056.1,330.3v-9.5h1.6v9.5H1056.1"/>
	<path id="W-3" class="st1" d="M1060,330.3v-13.1h1.6v13.1H1060"/>
	<path id="L-4" class="st1" d="M1067.8,320.6c3.2,0,4.3,2.1,4.2,5.3h-6.8c0,2,0.7,3.4,2.7,3.4c1.1,0.1,2.1-0.5,2.5-1.5l1.4,0.4
		c-0.6,1.4-1.8,2.2-3.9,2.2c-2.9,0-4.4-1.9-4.4-5S1064.9,320.6,1067.8,320.6z M1070.4,324.6c0.1-1.4-0.9-2.7-2.3-2.8
		c-1.1-0.1-2.1,0.5-2.5,1.4c-0.2,0.4-0.3,0.9-0.3,1.4H1070.4"/>
</g>
<g id="j-4">
	<path id="ac-2" class="st1" d="M1088.5,321.3c-0.6-1.5-2.1-2.4-3.7-2.3c-3,0-4.4,2-4.4,5s1.5,5.1,4.5,5.1c2.2,0,3.1-1.2,3.9-2.6
		l1.4,0.7c-0.9,2.1-3.1,3.4-5.4,3.3c-4,0-5.9-2.5-6.1-6.5c-0.3-5.2,5-7.7,9.4-5.6c0.9,0.5,1.7,1.3,2,2.3"/>
	<path id="O-3" class="st1" d="M1095.9,320.6c3.1,0,4.3,1.9,4.3,5s-1.3,5-4.3,5s-4.2-2-4.2-5C1091.6,322.2,1093,320.6,1095.9,320.6z
		 M1095.9,329.3c2.2,0,2.7-1.5,2.7-3.8s-0.4-3.8-2.6-3.8s-2.7,1.6-2.7,3.8S1093.8,329.2,1095.9,329.3"/>
	<path id="ad-3" class="st1" d="M1106.3,330.3h-1.9l-3.5-9.5h1.7l2.7,8.3l2.8-8.3h1.7"/>
	<path id="L-5" class="st1" d="M1114.9,320.6c3.2,0,4.3,2.1,4.2,5.3h-6.8c0,2,0.7,3.4,2.7,3.4c1.1,0.1,2.1-0.5,2.5-1.5l1.4,0.4
		c-0.6,1.4-1.9,2.2-3.9,2.2c-2.9,0-4.4-1.9-4.4-5S1112,320.6,1114.9,320.6z M1117.5,324.6c0.1-1.4-0.9-2.7-2.3-2.8
		c-1.1-0.1-2.1,0.5-2.5,1.4c-0.2,0.4-0.3,0.9-0.3,1.4H1117.5"/>
	<path id="M-4" class="st1" d="M1125.7,322.1c-3.9-0.8-2.7,4.6-2.9,8.2h-1.6v-9.5h1.5c0,0.7,0,1.3,0.1,2c0.3-1.4,1.2-2.5,2.9-2.1
		L1125.7,322.1"/>
	<path id="Q-3" class="st1" d="M1133,328.5c-0.8,1-1.6,2.1-3.4,2c-1.5,0.1-2.8-1-2.9-2.4c0-0.1,0-0.3,0-0.4
		c-0.1-3.2,3.2-3.2,6.3-3.2c0.2-1.8-0.5-2.7-2.1-2.7c-1.2,0-2.1,0.4-2.1,1.6l-1.7-0.1c0.2-1.9,1.7-2.6,3.8-2.6s3.6,1,3.6,3.2v4.1
		c0,1,0.3,1.6,1.4,1.4v1C1134.4,330.7,1132.9,330.1,1133,328.5z M1128.3,327.6c-0.1,0.8,0.5,1.6,1.3,1.7c0.1,0,0.2,0,0.3,0
		c2.1-0.1,3.2-1.5,3-3.7C1130.8,325.7,1128.3,325.3,1128.3,327.6"/>
	<path id="ae-2" class="st1" d="M1144.8,320.8c-0.5,6.3,2.1,14.7-5.5,13.1c-1.1-0.2-2-1.1-2.2-2.2l1.6-0.2c0.8,2.4,5,1.6,4.5-1.4
		v-1.5c-0.6,1.2-1.8,1.9-3.1,1.8c-2.7,0-3.4-2-3.4-4.8s0.8-4.9,3.6-4.9c1.3-0.1,2.4,0.6,3,1.8c0-0.5,0-1.2,0.1-1.6H1144.8z
		 M1140.7,329.2c1.8,0,2.5-1.6,2.5-3.7s-0.7-3.8-2.5-3.8s-2.3,1.7-2.3,3.8S1138.7,329.2,1140.7,329.2"/>
	<path id="L-6" class="st1" d="M1151,320.6c3.2,0,4.3,2.1,4.2,5.3h-6.8c0,2,0.7,3.4,2.7,3.4c1.1,0.1,2.1-0.5,2.5-1.5l1.4,0.4
		c-0.6,1.4-1.8,2.2-3.9,2.2c-2.9,0-4.4-1.9-4.4-5S1148.1,320.6,1151,320.6z M1153.6,324.6c0.1-1.4-0.9-2.7-2.3-2.8
		c-1.1-0.1-2.1,0.5-2.5,1.4c-0.2,0.4-0.3,0.9-0.3,1.4H1153.6"/>
</g>
<path class="st0" d="M1180.8,301.1c0-5.1,4.1-9.3,9.3-9.3c0,0,0,0,0,0h144c5.1,0,9.3,4.1,9.3,9.3c0,0,0,0,0,0v50.2
	c0,5.1-4.1,9.3-9.3,9.3c0,0,0,0,0,0h-144c-5.1,0-9.3-4.1-9.3-9.3c0,0,0,0,0,0V301.1z"/>
<g id="k-4">
	<path id="af-2" class="st1" d="M1236.2,321.4c0.1,1.8-1.2,3.4-3,3.5l3.5,5.4h-1.9l-3.3-5.2h-3.9v5.2h-1.7v-12.4
		C1230.4,318,1236.3,316.8,1236.2,321.4z M1227.7,323.8c3-0.1,6.9,0.6,6.9-2.4s-4-2.1-6.9-2.2V323.8"/>
	<path id="Q-4" class="st1" d="M1244.6,328.5c-0.7,1.3-2,2-3.4,2c-1.5,0.1-2.8-0.9-2.9-2.4c0-0.1,0-0.3,0-0.4c0-3.2,3.2-3.2,6.3-3.2
		c0.2-1.8-0.4-2.7-2.1-2.7c-1.2,0-2,0.4-2.1,1.6l-1.7-0.1c0.2-1.9,1.7-2.6,3.8-2.6s3.6,1,3.6,3.2v4.1c-0.1,1,0.3,1.6,1.4,1.4v1
		C1246,330.7,1244.5,330.1,1244.6,328.5z M1239.9,327.6c-0.1,0.8,0.5,1.6,1.3,1.7c0.1,0,0.2,0,0.3,0c2.1-0.1,3.2-1.5,3-3.7
		C1242.4,325.7,1239.9,325.3,1239.9,327.6"/>
	<path id="R-2" class="st1" d="M1253.4,320.6c4.5-0.2,2.7,5.8,3,9.7h-1.6v-6.1c0-1.5-0.4-2.5-2-2.4c-3.6,0.1-2.2,5.1-2.5,8.5h-1.6
		v-9.5h1.5c0,0.5,0,1.1,0.1,1.6C1250.9,321.2,1252.1,320.5,1253.4,320.6"/>
	<path id="ag-2" class="st1" d="M1264.8,330.3l-3.2-4.4l-1.2,1v3.4h-1.6v-13.1h1.6v8.2l4.2-4.6h1.9l-3.9,4.1l4.1,5.4H1264.8"/>
	<path id="X-4" class="st1" d="M1267.8,318.7v-1.5h1.6v1.5H1267.8z M1267.8,330.3v-9.5h1.6v9.5H1267.8"/>
	<path id="R-3" class="st1" d="M1276.4,320.6c4.5-0.2,2.7,5.8,3,9.7h-1.6v-6.1c0-1.5-0.4-2.5-2-2.4c-3.6,0.1-2.2,5.1-2.5,8.5h-1.6
		v-9.5h1.5c0,0.5,0,1.1,0.1,1.6C1273.9,321.2,1275.1,320.5,1276.4,320.6"/>
	<path id="ae-3" class="st1" d="M1289.5,320.8c-0.5,6.3,2.1,14.7-5.5,13.1c-1.1-0.2-2-1.1-2.2-2.2l1.6-0.2c0.8,2.4,5,1.6,4.5-1.4
		v-1.5c-0.6,1.2-1.8,1.9-3.1,1.8c-2.7,0-3.4-2-3.4-4.8s0.8-4.9,3.6-4.9c1.3-0.1,2.4,0.6,3,1.8c0-0.5,0-1.2,0.1-1.6H1289.5z
		 M1285.3,329.2c1.8,0,2.5-1.6,2.5-3.7s-0.7-3.8-2.5-3.8s-2.3,1.7-2.3,3.8S1283.3,329.2,1285.3,329.2"/>
	<path id="ah-2" class="st1" d="M1297.4,323.1c-0.2-1.7-4.3-1.9-4.4,0c0.8,2.7,5.8,0.6,6,4.5s-7.5,3.7-7.9,0.4l1.4-0.2
		c0.2,1.8,4.9,2.2,4.9,0c-0.5-2.8-5.7-0.8-5.9-4.5c-0.2-2.9,4.1-3.2,6.1-2.1c0.6,0.4,1.1,1,1.2,1.8"/>
</g>
<path class="st0" d="M1355,301.1c0-5.1,4.1-9.3,9.3-9.3c0,0,0,0,0,0h144c5.1,0,9.3,4.1,9.3,9.3c0,0,0,0,0,0v50.2
	c0,5.1-4.1,9.3-9.3,9.3c0,0,0,0,0,0h-144c-5.1,0-9.3-4.1-9.3-9.3c0,0,0,0,0,0V301.1z"/>
<g id="l-7">
	<path id="ac-3" class="st1" d="M1419.4,321.3c-0.6-1.5-2.1-2.4-3.7-2.3c-3,0-4.4,2-4.4,5s1.5,5.1,4.5,5.1c2.2,0,3.1-1.2,3.9-2.6
		l1.4,0.7c-0.9,2.1-3.1,3.4-5.4,3.3c-4,0-5.9-2.5-6.1-6.5c-0.3-5.2,5-7.7,9.4-5.6c0.9,0.5,1.7,1.3,2,2.3"/>
	<path id="W-4" class="st1" d="M1423,330.3v-13.1h1.6v13.1H1423"/>
	<path id="Q-5" class="st1" d="M1432.8,328.5c-0.7,1.3-2,2-3.4,2c-1.5,0.1-2.8-0.9-2.9-2.4c0-0.1,0-0.3,0-0.4c0-3.2,3.2-3.2,6.3-3.2
		c0.2-1.8-0.4-2.7-2.1-2.7c-1.2,0-2,0.4-2.1,1.6l-1.7-0.1c0.2-1.9,1.7-2.6,3.8-2.6s3.6,1,3.6,3.2v4.1c-0.1,1,0.3,1.6,1.4,1.4v1
		C1434.2,330.7,1432.7,330.1,1432.8,328.5z M1428.1,327.6c-0.1,0.8,0.5,1.6,1.4,1.7c0.1,0,0.2,0,0.2,0c2.1-0.1,3.2-1.5,3-3.7
		C1430.6,325.7,1428.1,325.3,1428.1,327.6"/>
	<path id="X-5" class="st1" d="M1437,318.7v-1.5h1.6v1.5H1437z M1437,330.3v-9.5h1.6v9.5H1437"/>
	<path id="P-2" class="st1" d="M1450.3,321.8c-3.4,0.2-1.9,5.3-2.2,8.5h-1.6v-6.1c0-1.5-0.2-2.5-1.8-2.4c-3.3,0.2-1.9,5.2-2.2,8.5
		h-1.5v-9.5h1.5c0,0.5,0,1.1,0.1,1.6c0.5-2.2,5-2.5,5.4,0c0.5-1.1,1.7-1.9,2.9-1.8c4.3-0.1,2.4,6,2.8,9.7h-1.6v-6.1
		C1452,322.8,1451.8,321.8,1450.3,321.8"/>
	<path id="ah-3" class="st1" d="M1461.5,323.1c-0.2-1.7-4.3-1.9-4.4,0c0.8,2.7,5.8,0.6,6,4.5s-7.5,3.7-7.9,0.4l1.4-0.2
		c0.2,1.8,4.9,2.2,4.9,0c-0.5-2.8-5.7-0.8-5.9-4.5c-0.2-2.9,4.1-3.2,6.1-2.1c0.6,0.4,1.1,1,1.2,1.8"/>
</g>
<path class="st2" d="M1186.6,222v20.7c0,7.7-6.2,13.9-13.9,13.9c0,0,0,0,0,0h-70.8c-7.7,0-13.9,6.2-13.9,13.9c0,0,0,0,0,0v2.3"/>
<path class="st3" d="M1187.2,222h-1.2v-0.6h1.2L1187.2,222z"/>
<path class="st4" d="M1087.9,290l-5.4-16.6h10.8L1087.9,290z"/>
<path class="st2" d="M1186.6,222v20.7c0,7.7,6.2,13.9,13.9,13.9h47.6c7.7,0,13.9,6.2,13.9,13.9c0,0,0,0,0,0v2.3"/>
<path class="st3" d="M1187.2,222h-1.2v-0.6h1.2L1187.2,222z"/>
<path class="st4" d="M1262.1,290l-5.4-16.6h10.8L1262.1,290z"/>
<path class="st2" d="M1186.6,222v20.7c0,7.7,6.2,13.9,13.9,13.9h221.8c7.7,0,13.9,6.2,13.9,13.9c0,0,0,0,0,0v2.3"/>
<path class="st3" d="M1187.2,222h-1.2v-0.6h1.2L1187.2,222z"/>
<path class="st4" d="M1436.3,290l-5.4-16.6h10.8L1436.3,290z"/>
<path class="st0" d="M1355,416c0-5.1,4.1-9.3,9.3-9.3c0,0,0,0,0,0h144c5.1,0,9.3,4.1,9.3,9.3c0,0,0,0,0,0v78.3
	c0,5.1-4.2,9.3-9.3,9.3h-144c-5.1,0-9.3-4.2-9.3-9.3V416z"/>
<g id="m-5">
	<path id="ai-2" class="st1" d="M1395.8,459v-12.4h9.4v1.4h-7.7v4h7.2v1.4h-7.2v4.4h8.1v1.4L1395.8,459"/>
	<path id="aj-2" class="st1" d="M1410.6,449.3c1.2-0.1,2.4,0.6,3,1.7l-0.1-5h1.6v13.1h-1.5c0-0.5-0.1-1-0.2-1.6
		c-0.5,1.2-1.7,1.9-3,1.8c-2.7,0-3.5-2-3.5-4.9C1407.1,451,1408.3,449.3,1410.6,449.3z M1411.1,450.5c-2,0-2.3,1.7-2.3,3.8
		s0.3,3.7,2.3,3.7s2.6-1.6,2.6-3.8S1413.1,450.5,1411.1,450.5"/>
	<path id="X-6" class="st1" d="M1417.6,447.5V446h1.6v1.5L1417.6,447.5z M1417.6,459v-9.5h1.6v9.5H1417.6"/>
	<path id="Y-3" class="st1" d="M1423.3,456.7c-0.1,1.2,0.9,1.5,1.9,1.1v1.2c-1.7,0.5-3.5,0.2-3.5-2v-6.4h-1.1v-1.2h1.2l0.5-2.2h1
		v2.2h1.8v1.2h-1.8L1423.3,456.7"/>
</g>
<g id="n-3">
	<path id="ak-2" class="st1" d="M1433.6,448v4.6h6.9v1.4h-6.9v5h-1.7v-12.4h8.8v1.4H1433.6"/>
	<path id="X-7" class="st1" d="M1442.6,447.5V446h1.6v1.5L1442.6,447.5z M1442.6,459v-9.5h1.6v9.5H1442.6"/>
	<path id="W-5" class="st1" d="M1446.6,459v-13h1.6v13.1L1446.6,459"/>
	<path id="Y-4" class="st1" d="M1452.3,456.7c-0.1,1.2,0.9,1.5,1.9,1.1v1.2c-1.7,0.5-3.5,0.2-3.5-2v-6.4h-1.1v-1.2h1.2l0.4-2.2h1
		v2.2h1.8v1.2h-1.8L1452.3,456.7"/>
	<path id="L-8" class="st1" d="M1459.4,449.3c3.2,0,4.3,2.1,4.2,5.3h-6.8c0,2,0.7,3.4,2.7,3.4c1.1,0.1,2.1-0.5,2.4-1.5l1.4,0.4
		c-0.7,1.5-2.2,2.4-3.9,2.3c-2.9,0-4.4-1.9-4.4-5S1456.4,449.3,1459.4,449.3z M1462,453.4c0.2-1.4-0.9-2.7-2.3-2.8
		c-1.1-0.1-2.1,0.5-2.6,1.4c-0.2,0.4-0.3,0.9-0.3,1.4H1462"/>
	<path id="M-6" class="st1" d="M1470.1,450.9c-3.9-0.8-2.7,4.6-2.9,8.2h-1.6l-0.1-9.5h1.5c0,0.7,0,1.3,0.1,2
		c0.3-1.4,1.2-2.5,2.9-2.1V450.9"/>
	<path id="ah-4" class="st1" d="M1477.1,451.9c-0.2-1.7-4.3-1.9-4.4,0c0.8,2.7,5.8,0.6,6,4.5s-7.5,3.7-7.9,0.4l1.4-0.2
		c0.2,1.8,4.9,2.2,4.9,0c-0.5-2.8-5.7-0.8-5.9-4.5c-0.2-2.9,4.1-3.2,6.1-2.1c0.6,0.4,1.1,1,1.2,1.8"/>
</g>
<path class="st2" d="M1397.1,361.2v26.4"/>
<path class="st3" d="M1397.7,361.2h-1.2v-0.6h1.2V361.2z"/>
<path class="st4" d="M1397.1,404.8l-5.4-16.6h10.8L1397.1,404.8z"/>
<path class="st2" d="M1474.6,406.1v-26.5"/>
<path class="st3" d="M1475.1,406.7h-1.1v-0.6h1.2L1475.1,406.7z"/>
<path class="st4" d="M1474.6,362.5l5.4,16.6h-10.8L1474.6,362.5z"/>
<path class="st0" d="M832.5,416c0-5.1,4.1-9.3,9.3-9.3c0,0,0,0,0,0h144c5.1,0,9.3,4.2,9.3,9.3v78.3c0,5.1-4.2,9.3-9.3,9.3h-144
	c-5.1,0-9.3-4.2-9.3-9.3L832.5,416z"/>
<g id="m-7">
	<path id="ai-3" class="st1" d="M840.2,437.4v-12.4h9.4v1.4h-7.7v4h7.2v1.4h-7.2v4.3h8.1v1.4L840.2,437.4"/>
	<path id="aj-3" class="st1" d="M855,427.6c1.2-0.1,2.4,0.6,3,1.6v-5h1.6v13.1h-1.5c0-0.5-0.1-1-0.2-1.6c-0.5,1.2-1.7,1.9-3,1.8
		c-2.7,0-3.5-2-3.5-4.9C851.5,429.3,852.7,427.6,855,427.6z M855.5,428.8c-2,0-2.3,1.7-2.3,3.8s0.3,3.7,2.3,3.7
		c2.1,0,2.6-1.6,2.6-3.8S857.5,428.8,855.5,428.8"/>
	<path id="X-8" class="st1" d="M862,425.8v-1.5h1.6v1.5H862z M862,437.4v-9.5h1.6v9.5H862"/>
	<path id="Y-5" class="st1" d="M867.7,435c-0.1,1.2,0.9,1.5,1.9,1.1v1.2c-1.7,0.5-3.5,0.2-3.5-2V429H865v-1.1h1.2l0.5-2.2h1v2.2h1.8
		v1.1h-1.8V435"/>
</g>
<g id="o-4">
	<path id="ak-3" class="st1" d="M877.9,426.3v4.7h6.9v1.4h-6.9v5h-1.7v-12.5h8.8v1.4H877.9"/>
	<path id="X-9" class="st1" d="M887,425.8v-1.5h1.6v1.5H887z M887,437.4v-9.5h1.6v9.5H887"/>
	<path id="W-6" class="st1" d="M890.9,437.4v-13.1h1.6v13.1H890.9"/>
	<path id="Y-6" class="st1" d="M896.7,435c-0.1,1.2,0.9,1.5,1.9,1.1v1.2c-1.7,0.5-3.5,0.2-3.5-2V429h-1.1v-1.1h1.2l0.5-2.2h1v2.2
		h1.8v1.1h-1.8L896.7,435"/>
	<path id="L-9" class="st1" d="M903.7,427.6c3.2,0,4.3,2.1,4.2,5.3h-6.8c0,2,0.7,3.4,2.7,3.4c1.1,0.1,2.1-0.5,2.5-1.5l1.4,0.4
		c-0.5,1.4-1.9,2.3-3.9,2.3c-2.9,0-4.4-1.9-4.4-5S900.8,427.6,903.7,427.6z M906.3,431.7c0.1-1.4-0.9-2.7-2.3-2.8
		c-1.1-0.1-2.1,0.5-2.5,1.4c-0.2,0.4-0.3,0.9-0.3,1.4H906.3"/>
	<path id="M-8" class="st1" d="M914.5,429.2c-3.9-0.8-2.7,4.6-2.9,8.2H910v-9.5h1.5c0,0.7,0,1.3,0.1,2c0.3-1.4,1.2-2.5,2.9-2
		L914.5,429.2"/>
	<path id="ah-5" class="st1" d="M921.5,430.2c-0.2-1.7-4.3-1.9-4.4,0c0.8,2.7,5.8,0.6,6,4.5s-7.5,3.7-7.9,0.4l1.4-0.2
		c0.2,1.8,4.9,2.3,4.9,0c-0.5-2.8-5.7-0.8-5.9-4.5c-0.2-2.9,4.1-3.2,6.1-2.1c0.6,0.4,1.1,1,1.2,1.8"/>
</g>
<g id="p-3">
	<path id="N-4" class="st1" d="M933.8,425.6c-1.5-0.5-2.1,0.5-1.9,2.2h1.9v1.2h-1.9v8.4h-1.6V429H929v-1.1h1.3
		c-0.3-2.6,0.8-4.1,3.5-3.4L933.8,425.6"/>
	<path id="O-5" class="st1" d="M938.8,427.6c3.1,0,4.3,1.9,4.3,5s-1.3,5-4.3,5s-4.2-2-4.2-5C934.5,429.3,935.9,427.6,938.8,427.6z
		 M938.8,436.4c2.2,0,2.7-1.6,2.7-3.8s-0.4-3.8-2.6-3.8s-2.7,1.6-2.7,3.8S936.7,436.3,938.8,436.4"/>
	<path id="M-9" class="st1" d="M949.5,429.2c-3.9-0.8-2.7,4.6-2.9,8.2h-1.6l0-9.5h1.5c0,0.7,0,1.3,0.1,2c0.3-1.4,1.2-2.5,2.9-2
		V429.2"/>
</g>
<g id="q-6">
	<path id="ab-3" class="st1" d="M960.6,427.6c2.7,0,3.5,2,3.5,4.9c0,3.3-1.2,5-3.5,5c-1.6,0-2.5-0.5-3-1.7l-0.1,1.5H956v-13.1h1.6
		v5.1C958.1,428.2,959.3,427.5,960.6,427.6z M960.2,436.4c2,0,2.3-1.7,2.3-3.8s-0.2-3.8-2.3-3.7s-2.5,1.6-2.5,3.8
		S958.1,436.4,960.2,436.4"/>
	<path id="O-6" class="st1" d="M969.9,427.6c3.1,0,4.3,1.9,4.3,5s-1.3,5-4.3,5s-4.2-2-4.2-5C965.6,429.3,967,427.6,969.9,427.6z
		 M969.8,436.4c2.2,0,2.7-1.6,2.7-3.8s-0.4-3.8-2.6-3.8s-2.7,1.6-2.7,3.8S967.8,436.3,969.8,436.4"/>
	<path id="Y-7" class="st1" d="M977.8,435c-0.1,1.2,0.9,1.5,1.9,1.1v1.2c-1.7,0.5-3.5,0.2-3.5-2V429h-1.1v-1.1h1.2l0.5-2.2h1.1v2.2
		h1.8v1.1h-1.8L977.8,435"/>
	<path id="al-3" class="st1" d="M985.2,428.9c-3.6,0-2.2,5.1-2.5,8.5h-1.6v-13.1h1.6v5.2c0.6-1.2,1.8-1.9,3.1-1.8
		c4.5,0,2.7,5.8,3,9.7h-1.6v-6.1C987.3,429.7,986.8,428.8,985.2,428.9"/>
</g>
<g id="r-4">
	<path id="am-3" class="st1" d="M850.5,449.6c-0.2-2.4-6.2-2.7-6.2,0.1c0.7,3.8,7.9,0.7,8.2,6c0.2,3.9-6.1,4.4-8.8,2.8
		c-0.8-0.5-1.4-1.3-1.7-2.3l1.7-0.4c0.2,2.8,7.1,3.2,7.1,0c0-3.9-7.8-0.7-8.1-5.9c-0.2-4.1,7.3-4.2,9-1.7c0.2,0.4,0.4,0.8,0.5,1.2"
		/>
	<path id="X-10" class="st1" d="M854.4,447.5V446h1.6v1.5L854.4,447.5z M854.4,459v-9.5h1.6v9.5H854.4"/>
	<path id="R-5" class="st1" d="M863.1,449.3c4.5-0.2,2.7,5.8,3,9.7h-1.6v-6c0-1.5-0.4-2.5-2-2.4c-3.6,0.1-2.2,5.1-2.5,8.5h-1.6
		l0-9.5h1.5c0,0.5,0,1.1,0.1,1.6C860.5,450,861.7,449.3,863.1,449.3"/>
	<path id="ae-4" class="st1" d="M876.1,449.5c-0.5,6.3,2,14.7-5.5,13.1c-1.1-0.2-2-1.1-2.2-2.2l1.6-0.2c0.8,2.4,5,1.6,4.5-1.4v-1.5
		c-0.6,1.2-1.8,1.9-3.1,1.8c-2.7,0-3.4-2.1-3.4-4.8s0.8-4.9,3.6-4.9c1.3-0.1,2.4,0.6,3,1.8c0-0.5,0-1.2,0.1-1.6H876.1z M871.9,457.9
		c1.8,0,2.5-1.6,2.5-3.7s-0.7-3.8-2.5-3.8c-2,0-2.3,1.7-2.3,3.8S869.9,457.9,871.9,457.9"/>
	<path id="W-7" class="st1" d="M878.5,459v-13h1.6v13.1L878.5,459"/>
	<path id="L-10" class="st1" d="M886.2,449.3c3.2,0,4.3,2.1,4.2,5.3h-6.8c0,2,0.7,3.4,2.7,3.4c1.1,0.1,2.1-0.5,2.5-1.5l1.4,0.4
		c-0.7,1.5-2.2,2.4-3.9,2.3c-2.9,0-4.4-1.9-4.4-5S883.3,449.3,886.2,449.3z M888.8,453.4c0.1-1.4-1-2.6-2.4-2.7
		c-1-0.1-2,0.5-2.4,1.4c-0.2,0.4-0.3,0.9-0.3,1.4L888.8,453.4"/>
</g>
<g id="s-2">
	<path id="T-4" class="st1" d="M908,459c-1.4,0.5-2.9,0.1-3.9-0.9c-2,2-7.5,1.6-7.2-2.3c0.2-2.1,1.5-3.1,3-3.8
		c-1.3-2-0.8-5.7,2.4-5.4c1.8,0.1,3,0.8,3,2.5c0,2.2-2,2.7-3.6,3.5c0.7,1.3,1.6,2.5,2.5,3.6c0.7-1.1,1.3-2.3,1.5-3.6l1.3,0.4
		c-0.4,1.5-1,2.9-1.9,4.1c0.7,0.8,1.8,1.1,2.9,0.8L908,459z M901.1,451.5c1.3-0.5,2.6-0.9,2.8-2.4c0-0.8-0.7-1.5-1.5-1.5
		c-0.1,0-0.1,0-0.1,0C900.2,447.6,900.3,450.1,901.1,451.5L901.1,451.5z M898.4,455.8c-0.2,2.6,3.6,2.9,4.9,1.4
		c-1.1-1.2-2-2.6-2.8-4C899.3,453.5,898.5,454.6,898.4,455.8"/>
</g>
<g id="t-5">
	<path id="ac-4" class="st1" d="M924,450.1c-0.6-1.5-2.1-2.4-3.7-2.2c-3,0-4.4,2-4.4,5s1.5,5.1,4.5,5.1c2.2,0,3.1-1.2,3.9-2.6
		l1.4,0.7c-0.9,2.1-3.1,3.4-5.4,3.3c-4,0-5.9-2.5-6.1-6.5c-0.3-5.2,5-7.7,9.4-5.6c0.9,0.5,1.7,1.3,2,2.3"/>
	<path id="O-7" class="st1" d="M931.3,449.3c3.1,0,4.3,1.9,4.3,5s-1.3,5-4.3,5s-4.2-2-4.2-5C927.1,451,928.5,449.3,931.3,449.3z
		 M931.3,458c2.2,0,2.7-1.5,2.7-3.8s-0.4-3.8-2.6-3.8s-2.7,1.6-2.7,3.8S929.2,457.9,931.3,458"/>
	<path id="P-4" class="st1" d="M946.9,450.6c-3.4,0.1-1.9,5.3-2.2,8.5h-1.6V453c0-1.5-0.2-2.5-1.8-2.4c-3.3,0.2-1.9,5.2-2.2,8.5
		h-1.6v-9.5h1.5c0,0.5,0,1.1,0.1,1.6c0.5-2.2,5-2.5,5.4,0c0.5-1.1,1.7-1.9,2.9-1.8c4.3-0.1,2.3,6,2.8,9.7h-1.5V453
		C948.7,451.5,948.5,450.5,946.9,450.6"/>
	<path id="an-2" class="st1" d="M957.1,449.3c2.8,0,3.5,2.1,3.5,4.9s-0.8,4.9-3.5,5c-1.3,0.1-2.4-0.6-3-1.7v5.3h-1.6l0-13.3h1.6
		l0.1,1.5C954.7,449.9,955.9,449.2,957.1,449.3z M956.7,458c2,0,2.3-1.7,2.3-3.8s-0.3-3.7-2.3-3.7c-2.1,0-2.6,1.6-2.6,3.8
		S954.7,458,956.7,458"/>
	<path id="Q-7" class="st1" d="M968.5,457.2c-0.7,1.3-2,2-3.4,2c-1.5,0.1-2.8-1-2.9-2.4c0-0.1,0-0.3,0-0.4c0-3.2,3.2-3.2,6.3-3.2
		c0.2-1.8-0.5-2.7-2.1-2.7c-1.2,0-2.1,0.4-2.1,1.5l-1.7-0.1c0.2-1.9,1.7-2.6,3.8-2.6s3.6,1,3.6,3.2v4.1c0,1,0.4,1.6,1.4,1.4v1
		C969.9,459.5,968.4,458.9,968.5,457.2z M963.8,456.4c-0.1,0.8,0.5,1.6,1.4,1.6c0.1,0,0.2,0,0.3,0c2.1-0.1,3.2-1.5,3-3.7
		C966.3,454.4,963.8,454.1,963.8,456.4"/>
	<path id="M-10" class="st1" d="M977.2,450.9c-3.9-0.8-2.7,4.6-2.9,8.2h-1.6l0-9.5h1.5c0,0.7,0,1.3,0.1,2c0.3-1.4,1.2-2.5,2.9-2.1
		V450.9"/>
	<path id="L-11" class="st1" d="M982.4,449.3c3.2,0,4.3,2.1,4.2,5.3h-6.8c0,2,0.7,3.4,2.7,3.4c1.1,0.1,2.1-0.5,2.5-1.5l1.4,0.4
		c-0.7,1.5-2.2,2.4-3.9,2.3c-2.9,0-4.4-1.9-4.4-5S979.5,449.3,982.4,449.3z M985,453.4c0.1-1.4-0.9-2.7-2.3-2.8
		c-1.1-0.1-2.1,0.5-2.5,1.4c-0.2,0.4-0.3,0.9-0.3,1.4H985"/>
</g>
<g id="u-3">
	<path id="ao-2" class="st1" d="M897.3,480.7h-1.7l-5.1-12.4h1.8l4.2,10.9l4.2-10.9h1.8"/>
	<path id="X-11" class="st1" d="M903.3,469.1v-1.5h1.7v1.5H903.3z M903.3,480.7v-9.5h1.7v9.5H903.3"/>
	<path id="L-12" class="st1" d="M911.1,471c3.2,0,4.3,2.1,4.2,5.3h-6.8c0,2,0.7,3.4,2.7,3.4c1.1,0.1,2.1-0.5,2.5-1.5l1.4,0.4
		c-0.5,1.4-1.8,2.3-3.9,2.3c-2.9,0-4.4-1.9-4.4-5S908.2,471,911.1,471z M913.7,475.1c0.1-1.4-0.9-2.7-2.3-2.8
		c-1.1-0.1-2.1,0.5-2.5,1.4c-0.2,0.4-0.3,0.9-0.3,1.4H913.7"/>
	<path id="ap-2" class="st1" d="M926.5,480.7h-1.8l-2-8.2l-2.1,8.2h-1.8l-2.7-9.5h1.6l2,8.2l2.2-8.2h1.7l2.1,8.2l2.1-8.2h1.5"/>
	<path id="ah-6" class="st1" d="M935.9,473.5c-0.2-1.7-4.3-1.9-4.4,0c0.8,2.7,5.8,0.6,6,4.5s-7.5,3.7-7.9,0.4l1.4-0.2
		c0.2,1.8,4.9,2.3,4.9,0c-0.5-2.8-5.7-0.8-5.9-4.5c-0.2-2.9,4.1-3.2,6.1-2.1c0.6,0.4,1.1,1,1.2,1.8"/>
</g>
<path class="st2" d="M875.4,361.2v26.5"/>
<path class="st3" d="M876,361.2h-1.2v-0.6h1.2V361.2z"/>
<path class="st4" d="M875.4,404.8l-5.4-16.6h10.8L875.4,404.8z"/>
<path class="st2" d="M955.9,406.1v-26.4"/>
<path class="st3" d="M956.5,406.7h-1.2v-0.6h1.2V406.7z"/>
<path class="st4" d="M955.9,362.5l5.4,16.6h-10.8L955.9,362.5z"/>
<path class="st0" d="M1180.8,416c0-5.1,4.1-9.3,9.3-9.3c0,0,0,0,0,0h144c5.1,0,9.3,4.1,9.3,9.3c0,0,0,0,0,0v78.3
	c0,5.1-4.2,9.3-9.3,9.3h-144c-5.1,0-9.3-4.2-9.3-9.3V416z"/>
<g id="m-11">
	<path id="ai-4" class="st1" d="M1221.7,459v-12.4h9.3v1.4h-7.7v4h7.2v1.4h-7.2v4.4h8.1v1.4L1221.7,459"/>
	<path id="aj-4" class="st1" d="M1236.5,449.3c1.2-0.1,2.4,0.6,3,1.7v-5h1.6v13.1h-1.5c0-0.5-0.1-1-0.2-1.6c-0.5,1.2-1.7,1.9-3,1.8
		c-2.7,0-3.5-2-3.5-4.9C1232.9,451,1234.1,449.3,1236.5,449.3z M1236.9,450.5c-2,0-2.3,1.7-2.3,3.8s0.3,3.7,2.3,3.7
		c2.1,0,2.6-1.6,2.6-3.8S1239,450.5,1236.9,450.5"/>
	<path id="X-12" class="st1" d="M1243.4,447.5V446h1.6v1.5L1243.4,447.5z M1243.4,459v-9.5h1.6v9.5H1243.4"/>
	<path id="Y-8" class="st1" d="M1249.2,456.7c-0.1,1.2,0.9,1.5,1.9,1.1v1.2c-1.7,0.5-3.5,0.2-3.5-2v-6.4h-1.1v-1.2h1.2l0.4-2.2h1.1
		v2.2h1.8v1.2h-1.8V456.7"/>
</g>
<g id="n-5">
	<path id="ak-4" class="st1" d="M1259.4,448v4.6h6.9v1.4h-6.9v5h-1.7v-12.4h8.8v1.4H1259.4"/>
	<path id="X-13" class="st1" d="M1268.4,447.5V446h1.6v1.5L1268.4,447.5z M1268.4,459v-9.5h1.6v9.5H1268.4"/>
	<path id="W-8" class="st1" d="M1272.4,459v-13h1.6v13.1L1272.4,459"/>
	<path id="Y-9" class="st1" d="M1278.1,456.7c-0.1,1.2,0.9,1.5,1.9,1.1v1.2c-1.7,0.5-3.5,0.2-3.5-2v-6.4h-1.1v-1.2h1.2l0.4-2.2h1
		v2.2h1.8v1.2h-1.8L1278.1,456.7"/>
	<path id="L-13" class="st1" d="M1285.2,449.3c3.2,0,4.3,2.1,4.2,5.3h-6.8c0,2,0.7,3.4,2.7,3.4c1.1,0.1,2.1-0.5,2.5-1.5l1.4,0.4
		c-0.7,1.5-2.2,2.4-3.9,2.3c-2.9,0-4.4-1.9-4.4-5S1282.2,449.3,1285.2,449.3z M1287.8,453.4c0.1-1.4-0.9-2.7-2.3-2.8
		c-1.1-0.1-2.1,0.5-2.5,1.4c-0.2,0.4-0.3,0.9-0.3,1.4H1287.8"/>
	<path id="M-12" class="st1" d="M1295.9,450.9c-3.9-0.8-2.7,4.6-2.9,8.2h-1.6v-9.5h1.5c0,0.7,0,1.3,0.1,2c0.3-1.4,1.2-2.5,2.9-2.1
		L1295.9,450.9"/>
	<path id="ah-7" class="st1" d="M1302.9,451.9c-0.2-1.7-4.3-1.9-4.4,0c0.8,2.7,5.8,0.6,6,4.5s-7.5,3.7-7.9,0.4l1.4-0.2
		c0.2,1.8,4.9,2.2,4.9,0c-0.5-2.8-5.7-0.8-5.9-4.5c-0.2-2.9,4.1-3.2,6.1-2.1c0.6,0.4,1.1,1,1.2,1.8"/>
</g>
<path class="st2" d="M1298.1,361.2v26.5"/>
<path class="st3" d="M1298.6,361.2h-1.2v-0.6h1.2V361.2z"/>
<path class="st4" d="M1298.1,404.8l-5.4-16.6h10.8L1298.1,404.8z"/>
<path class="st2" d="M1228.4,406.1v-26.4"/>
<path class="st3" d="M1229,406.7h-1.2v-0.6h1.2V406.7z"/>
<path class="st4" d="M1228.4,362.5l5.4,16.6H1223L1228.4,362.5z"/>
<path class="st0" d="M1006.6,416c0-5.1,4.1-9.3,9.3-9.3c0,0,0,0,0,0h144c5.1,0,9.3,4.1,9.3,9.3c0,0,0,0,0,0v78.3
	c0,5.1-4.2,9.3-9.3,9.3h-144c-5.1,0-9.3-4.2-9.3-9.3L1006.6,416z"/>
<g id="m-13">
	<path id="ai-5" class="st1" d="M1014.4,437.4v-12.4h9.4v1.4h-7.8v4h7.2v1.4h-7.2v4.3h8.1v1.4L1014.4,437.4"/>
	<path id="aj-5" class="st1" d="M1029.2,427.6c1.2-0.1,2.4,0.6,3,1.6v-5h1.6v13.1h-1.5c0-0.5-0.1-1-0.2-1.6c-0.5,1.2-1.7,1.9-3,1.8
		c-2.7,0-3.5-2-3.5-4.9C1025.7,429.3,1026.8,427.6,1029.2,427.6z M1029.6,428.8c-2,0-2.3,1.7-2.3,3.8s0.3,3.7,2.3,3.7
		c2.1,0,2.6-1.6,2.6-3.8S1031.7,428.8,1029.6,428.8"/>
	<path id="X-14" class="st1" d="M1036.2,425.8v-1.5h1.6v1.5H1036.2z M1036.2,437.4v-9.5h1.6v9.5H1036.2"/>
	<path id="Y-10" class="st1" d="M1041.9,435c-0.1,1.2,0.9,1.5,1.9,1.1v1.2c-1.7,0.5-3.5,0.2-3.5-2V429h-1.1v-1.1h1.2l0.4-2.2h1.1
		v2.2h1.8v1.1h-1.8V435"/>
</g>
<g id="o-8">
	<path id="ak-5" class="st1" d="M1052.1,426.3v4.7h6.9v1.4h-6.9v5h-1.7v-12.5h8.8v1.4H1052.1"/>
	<path id="X-15" class="st1" d="M1061.2,425.8v-1.5h1.6v1.5H1061.2z M1061.2,437.4v-9.5h1.6v9.5H1061.2"/>
	<path id="W-9" class="st1" d="M1065.1,437.4v-13.1h1.6v13.1H1065.1"/>
	<path id="Y-11" class="st1" d="M1070.8,435c-0.1,1.2,0.9,1.5,1.9,1.1v1.2c-1.7,0.5-3.5,0.2-3.5-2V429h-1.1v-1.1h1.2l0.4-2.2h1v2.2
		h1.8v1.1h-1.8L1070.8,435"/>
	<path id="L-14" class="st1" d="M1077.9,427.6c3.2,0,4.3,2.1,4.2,5.3h-6.8c0,2,0.7,3.4,2.7,3.4c1.1,0.1,2.1-0.5,2.5-1.5l1.4,0.4
		c-0.6,1.4-1.9,2.3-3.9,2.3c-2.9,0-4.4-1.9-4.4-5S1075,427.6,1077.9,427.6z M1080.5,431.7c0.1-1.4-0.9-2.7-2.3-2.8
		c-1.1-0.1-2.1,0.5-2.5,1.4c-0.2,0.4-0.3,0.9-0.3,1.4H1080.5"/>
	<path id="M-14" class="st1" d="M1088.6,429.2c-3.9-0.8-2.7,4.6-2.9,8.2h-1.6v-9.5h1.5c0,0.7,0,1.3,0.1,2c0.3-1.4,1.2-2.5,2.9-2
		L1088.6,429.2"/>
	<path id="ah-8" class="st1" d="M1095.7,430.2c-0.2-1.7-4.3-1.9-4.4,0c0.8,2.7,5.8,0.6,6,4.5s-7.5,3.7-7.9,0.4l1.4-0.2
		c0.2,1.8,4.9,2.3,4.9,0c-0.5-2.8-5.7-0.8-5.9-4.5c-0.2-2.9,4.1-3.2,6.1-2.1c0.6,0.4,1.1,1,1.2,1.8"/>
</g>
<g id="p-5">
	<path id="N-6" class="st1" d="M1108,425.6c-1.6-0.5-2.1,0.5-1.9,2.2h1.9v1.2h-1.9v8.4h-1.6V429h-1.3v-1.1h1.3
		c-0.3-2.6,0.8-4.1,3.5-3.4L1108,425.6"/>
	<path id="O-9" class="st1" d="M1113,427.6c3.1,0,4.3,1.9,4.3,5s-1.3,5-4.3,5s-4.2-2-4.2-5C1108.7,429.3,1110.1,427.6,1113,427.6z
		 M1113,436.4c2.2,0,2.7-1.6,2.7-3.8s-0.4-3.8-2.6-3.8s-2.7,1.6-2.7,3.8S1110.9,436.3,1113,436.4"/>
	<path id="M-15" class="st1" d="M1123.7,429.2c-3.9-0.8-2.7,4.6-2.9,8.2h-1.6v-9.5h1.5c0,0.7,0,1.3,0.1,2c0.3-1.4,1.2-2.5,2.9-2
		L1123.7,429.2"/>
</g>
<g id="q-8">
	<path id="ab-4" class="st1" d="M1134.8,427.6c2.7,0,3.5,2,3.5,4.9c0,3.3-1.2,5-3.5,5c-1.6,0-2.5-0.5-3-1.7l-0.1,1.5h-1.6v-13.1h1.6
		v5.1C1132.2,428.1,1133.5,427.4,1134.8,427.6z M1134.3,436.4c2,0,2.3-1.7,2.3-3.8s-0.2-3.8-2.3-3.7s-2.6,1.6-2.6,3.8
		S1132.3,436.4,1134.3,436.4"/>
	<path id="O-10" class="st1" d="M1144,427.6c3.1,0,4.3,1.9,4.3,5s-1.3,5-4.3,5s-4.2-2-4.2-5C1139.8,429.3,1141.2,427.6,1144,427.6z
		 M1144,436.4c2.2,0,2.7-1.6,2.7-3.8s-0.4-3.8-2.6-3.8s-2.7,1.6-2.7,3.8S1141.9,436.3,1144,436.4"/>
	<path id="Y-12" class="st1" d="M1152,435c-0.1,1.2,0.9,1.5,1.9,1.1v1.2c-1.7,0.5-3.5,0.2-3.5-2V429h-1.1v-1.1h1.2l0.4-2.2h1.1v2.2
		h1.8v1.1h-1.8V435"/>
	<path id="al-4" class="st1" d="M1159.4,428.9c-3.6,0-2.2,5.1-2.5,8.5h-1.6v-13.1h1.6v5.2c0.6-1.2,1.8-1.9,3.1-1.8
		c4.5,0,2.7,5.8,3,9.7h-1.6v-6.1C1161.5,429.7,1161,428.8,1159.4,428.9"/>
</g>
<g id="r-6">
	<path id="am-4" class="st1" d="M1024.7,449.6c-0.2-2.4-6.2-2.7-6.2,0.1c0.7,3.8,7.9,0.7,8.2,6c0.2,3.9-6.1,4.4-8.8,2.8
		c-0.8-0.5-1.4-1.3-1.7-2.3l1.7-0.4c0.2,2.8,7.1,3.2,7.1,0c0-3.9-7.8-0.7-8.1-5.9c-0.2-4.1,7.3-4.2,9-1.7c0.2,0.4,0.4,0.8,0.6,1.2"
		/>
	<path id="X-16" class="st1" d="M1028.6,447.5V446h1.6v1.5L1028.6,447.5z M1028.6,459v-9.5h1.6v9.5H1028.6"/>
	<path id="R-7" class="st1" d="M1037.2,449.3c4.5-0.2,2.7,5.8,3,9.7h-1.6v-6c0-1.5-0.4-2.5-2-2.4c-3.6,0.1-2.2,5.1-2.5,8.5h-1.6
		v-9.5h1.5c0,0.5,0,1.1,0.1,1.6C1034.7,450,1035.9,449.3,1037.2,449.3"/>
	<path id="ae-5" class="st1" d="M1050.3,449.5c-0.5,6.3,2,14.7-5.5,13.1c-1.1-0.2-2-1.1-2.2-2.2l1.6-0.2c0.8,2.4,5,1.6,4.5-1.4v-1.5
		c-0.6,1.2-1.8,1.9-3.1,1.8c-2.7,0-3.4-2.1-3.4-4.8s0.8-4.9,3.6-4.9c1.3-0.1,2.4,0.6,3,1.8c0-0.5,0-1.2,0.1-1.6H1050.3z
		 M1046.1,457.9c1.8,0,2.5-1.6,2.5-3.7s-0.7-3.8-2.5-3.8s-2.3,1.7-2.3,3.8S1044.1,457.9,1046.1,457.9"/>
	<path id="W-10" class="st1" d="M1052.6,459v-13h1.6v13.1L1052.6,459"/>
	<path id="L-15" class="st1" d="M1060.4,449.3c3.2,0,4.3,2.1,4.2,5.3h-6.8c0,2,0.7,3.4,2.7,3.4c1.1,0.1,2.1-0.5,2.5-1.5l1.4,0.4
		c-0.6,1.4-1.8,2.3-3.9,2.3c-2.9,0-4.4-1.9-4.4-5S1057.5,449.3,1060.4,449.3z M1063,453.4c0.1-1.4-0.9-2.7-2.3-2.8
		c-1.1-0.1-2.1,0.5-2.5,1.4c-0.2,0.4-0.3,0.9-0.3,1.4H1063"/>
</g>
<g id="s-3">
	<path id="T-6" class="st1" d="M1082.2,459c-1.4,0.5-2.9,0.1-3.9-0.9c-2,2-7.5,1.6-7.2-2.3c0.2-2.1,1.4-3.1,3-3.8
		c-1.3-2-0.8-5.7,2.4-5.4c1.8,0.1,3,0.8,3,2.5c0,2.2-2,2.7-3.6,3.5c0.7,1.3,1.6,2.5,2.6,3.6c0.7-1.1,1.3-2.3,1.5-3.6l1.3,0.4
		c-0.4,1.5-1,2.9-1.9,4.1c0.7,0.8,1.8,1.1,2.9,0.8L1082.2,459z M1075.3,451.5c1.3-0.5,2.6-0.9,2.8-2.4c0-0.8-0.7-1.5-1.5-1.5
		c-0.1,0-0.1,0-0.2,0C1074.4,447.6,1074.5,450.1,1075.3,451.5L1075.3,451.5z M1072.6,455.8c-0.2,2.6,3.6,2.9,4.9,1.4
		c-1.1-1.2-2-2.6-2.8-4C1073.5,453.5,1072.7,454.6,1072.6,455.8"/>
</g>
<g id="t-7">
	<path id="ac-5" class="st1" d="M1098.2,450.1c-0.6-1.5-2.1-2.4-3.7-2.2c-3,0-4.4,2-4.4,5s1.5,5.1,4.5,5.1c2.2,0,3.1-1.2,3.9-2.6
		l1.4,0.7c-0.9,2.1-3.1,3.4-5.4,3.3c-4,0-5.9-2.5-6.1-6.5c-0.3-5.2,5-7.7,9.4-5.6c0.9,0.5,1.7,1.3,2,2.3"/>
	<path id="O-11" class="st1" d="M1105.5,449.3c3.1,0,4.3,1.9,4.3,5s-1.3,5-4.3,5s-4.2-2-4.2-5C1101.3,451,1102.7,449.3,1105.5,449.3
		z M1105.5,458c2.2,0,2.7-1.5,2.7-3.8s-0.4-3.8-2.6-3.8s-2.7,1.6-2.7,3.8S1103.5,458,1105.5,458"/>
	<path id="P-6" class="st1" d="M1121.1,450.6c-3.4,0.1-1.9,5.3-2.2,8.5h-1.6V453c0-1.5-0.2-2.5-1.8-2.4c-3.3,0.2-1.9,5.2-2.2,8.5
		h-1.6v-9.5h1.5c0,0.5,0,1.1,0.1,1.6c0.5-2.2,5-2.5,5.4,0c0.5-1.1,1.7-1.9,2.9-1.8c4.3-0.1,2.4,6,2.8,9.7h-1.6V453
		C1122.9,451.5,1122.6,450.5,1121.1,450.6"/>
	<path id="an-3" class="st1" d="M1131.3,449.3c2.8,0,3.5,2.1,3.5,4.9s-0.8,4.9-3.5,5c-1.3,0.1-2.4-0.6-3-1.7v5.3h-1.6v-13.3h1.6
		l0.1,1.5C1128.9,449.9,1130.1,449.2,1131.3,449.3z M1130.9,458c2,0,2.2-1.7,2.2-3.8s-0.3-3.7-2.2-3.7c-2.1,0-2.6,1.6-2.6,3.8
		S1128.9,458,1130.9,458"/>
	<path id="Q-9" class="st1" d="M1142.7,457.2c-0.7,1.3-2,2-3.4,2c-1.5,0.1-2.8-1-2.9-2.4c0-0.1,0-0.3,0-0.4c0-3.2,3.2-3.2,6.3-3.2
		c0.2-1.8-0.4-2.7-2.1-2.7c-1.2,0-2.1,0.4-2.1,1.5l-1.7-0.1c0.2-1.9,1.7-2.6,3.8-2.6s3.6,1,3.6,3.2v4.1c0,1,0.3,1.6,1.4,1.4v1
		C1144.1,459.5,1142.6,458.9,1142.7,457.2z M1138,456.4c-0.1,0.8,0.5,1.6,1.4,1.6c0.1,0,0.2,0,0.3,0c2.1-0.1,3.2-1.5,3-3.7
		C1140.4,454.4,1138,454.1,1138,456.4"/>
	<path id="M-16" class="st1" d="M1151.3,450.9c-3.9-0.8-2.7,4.6-2.9,8.2h-1.6v-9.5h1.5c0,0.7,0,1.3,0.1,2c0.3-1.4,1.2-2.5,2.9-2.1
		L1151.3,450.9"/>
	<path id="L-16" class="st1" d="M1156.6,449.3c3.2,0,4.3,2.1,4.2,5.3h-6.8c0,2,0.7,3.4,2.7,3.4c1.1,0.1,2.1-0.5,2.5-1.5l1.4,0.4
		c-0.7,1.5-2.2,2.4-3.9,2.3c-2.9,0-4.4-1.9-4.4-5S1153.7,449.3,1156.6,449.3z M1159.2,453.4c0.1-1.4-0.9-2.7-2.3-2.8
		c-1.1-0.1-2.1,0.5-2.5,1.4c-0.2,0.4-0.3,0.9-0.3,1.4H1159.2"/>
</g>
<g id="u-4">
	<path id="ao-3" class="st1" d="M1071.5,480.7h-1.7l-5.1-12.4h1.8l4.2,10.9l4.2-10.9h1.8"/>
	<path id="X-17" class="st1" d="M1077.5,469.1v-1.5h1.6v1.5H1077.5z M1077.5,480.7v-9.5h1.6v9.5H1077.5"/>
	<path id="L-17" class="st1" d="M1085.3,471c3.2,0,4.3,2.1,4.2,5.3h-6.8c0,2,0.7,3.4,2.7,3.4c1.1,0.1,2.1-0.5,2.5-1.5l1.4,0.4
		c-0.6,1.4-1.8,2.3-3.9,2.3c-2.9,0-4.4-1.9-4.4-5S1082.3,471,1085.3,471z M1087.9,475.1c0.1-1.4-0.9-2.7-2.3-2.8
		c-1.1-0.1-2.1,0.5-2.5,1.4c-0.2,0.4-0.3,0.9-0.3,1.4H1087.9"/>
	<path id="ap-3" class="st1" d="M1100.7,480.7h-1.8l-2-8.2l-2.1,8.2h-1.8l-2.7-9.5h1.6l2,8.2l2.2-8.2h1.7l2.1,8.2l2.1-8.2h1.6"/>
	<path id="ah-9" class="st1" d="M1110.1,473.5c-0.2-1.7-4.3-1.9-4.4,0c0.8,2.7,5.8,0.6,6,4.5s-7.5,3.7-7.9,0.4l1.4-0.2
		c0.2,1.8,4.9,2.3,4.9,0c-0.5-2.8-5.7-0.8-5.9-4.5c-0.2-2.9,4.1-3.2,6.1-2.1c0.6,0.4,1.1,1,1.2,1.8"/>
</g>
<path class="st2" d="M1050.3,361.2v26.5"/>
<path class="st3" d="M1050.9,361.2h-1.2v-0.6h1.2V361.2z"/>
<path class="st4" d="M1050.3,404.8l-5.3-16.6h10.8L1050.3,404.8z"/>
<path class="st2" d="M1124.7,406.1v-26.4"/>
<path class="st3" d="M1125.2,406.7h-1.2v-0.6h1.2V406.7z"/>
<path class="st4" d="M1124.7,362.5l5.4,16.6h-10.8L1124.7,362.5z"/>
<g class="st5">
	<path class="st6" d="M1087.2,43.5V22.1h4.2l8.8,14.3V22.1h4v21.5h-4.4l-8.7-14v14H1087.2z"/>
	<path class="st6" d="M1117.8,38.6l4.1,0.7c-0.5,1.5-1.4,2.6-2.5,3.4c-1.1,0.8-2.6,1.2-4.3,1.2c-2.7,0-4.7-0.9-6-2.7
		c-1-1.4-1.5-3.2-1.5-5.4c0-2.6,0.7-4.6,2-6.1c1.3-1.5,3.1-2.2,5.1-2.2c2.3,0,4.1,0.8,5.5,2.3s2,3.9,1.9,7h-10.3
		c0,1.2,0.4,2.2,1,2.8s1.4,1,2.4,1c0.6,0,1.2-0.2,1.6-0.5S1117.6,39.4,1117.8,38.6z M1118.1,34.4c0-1.2-0.3-2.1-0.9-2.7
		s-1.3-0.9-2.1-0.9c-0.9,0-1.6,0.3-2.2,1s-0.9,1.5-0.9,2.7H1118.1z"/>
	<path class="st6" d="M1128.4,43.5l-4.9-15.6h4l2.9,10.2l2.7-10.2h4l2.6,10.2l3-10.2h4.1l-5,15.6h-4l-2.7-10l-2.6,10H1128.4z"/>
	<path class="st6" d="M1157.2,22.1h4.3v11.6c0,1.8,0.1,3,0.2,3.6c0.2,0.9,0.6,1.6,1.3,2.1c0.7,0.5,1.7,0.8,2.9,0.8
		c1.2,0,2.2-0.3,2.8-0.8s1-1.1,1.1-1.9s0.2-1.9,0.2-3.6V22.1h4.3v11.3c0,2.6-0.1,4.4-0.4,5.5s-0.7,2-1.3,2.7s-1.5,1.3-2.5,1.8
		c-1.1,0.4-2.4,0.7-4.1,0.7c-2.1,0-3.6-0.2-4.7-0.7c-1.1-0.5-1.9-1.1-2.5-1.8s-1-1.6-1.2-2.4c-0.3-1.2-0.4-3-0.4-5.4V22.1z"/>
	<path class="st6" d="M1177.4,39.1l4.1-0.6c0.2,0.8,0.5,1.4,1.1,1.8s1.3,0.6,2.3,0.6c1.1,0,1.9-0.2,2.4-0.6c0.4-0.3,0.5-0.6,0.5-1.1
		c0-0.3-0.1-0.6-0.3-0.8c-0.2-0.2-0.7-0.4-1.4-0.5c-3.3-0.7-5.4-1.4-6.3-2c-1.2-0.8-1.8-2-1.8-3.5c0-1.3,0.5-2.5,1.6-3.4
		s2.7-1.4,5-1.4c2.1,0,3.7,0.3,4.7,1s1.7,1.7,2.1,3.1l-3.9,0.7c-0.2-0.6-0.5-1.1-0.9-1.4s-1.1-0.5-2-0.5c-1.1,0-1.9,0.2-2.3,0.5
		c-0.3,0.2-0.5,0.5-0.5,0.8c0,0.3,0.1,0.5,0.4,0.7c0.4,0.3,1.7,0.7,3.8,1.2s3.7,1.1,4.6,1.8c0.9,0.7,1.3,1.8,1.3,3.1
		c0,1.4-0.6,2.7-1.8,3.7s-3,1.5-5.3,1.5c-2.1,0-3.8-0.4-5-1.3S1177.8,40.6,1177.4,39.1z"/>
	<path class="st6" d="M1204.5,38.6l4.1,0.7c-0.5,1.5-1.4,2.6-2.5,3.4c-1.1,0.8-2.6,1.2-4.3,1.2c-2.7,0-4.7-0.9-6-2.7
		c-1-1.4-1.5-3.2-1.5-5.4c0-2.6,0.7-4.6,2-6.1c1.3-1.5,3.1-2.2,5.1-2.2c2.3,0,4.1,0.8,5.5,2.3s2,3.9,1.9,7h-10.3
		c0,1.2,0.4,2.2,1,2.8s1.4,1,2.4,1c0.6,0,1.2-0.2,1.6-0.5S1204.3,39.4,1204.5,38.6z M1204.8,34.4c0-1.2-0.3-2.1-0.9-2.7
		s-1.3-0.9-2.1-0.9c-0.9,0-1.6,0.3-2.2,1s-0.9,1.5-0.9,2.7H1204.8z"/>
	<path class="st6" d="M1216.2,43.5h-4.1V28h3.8v2.2c0.7-1,1.2-1.7,1.8-2.1s1.1-0.5,1.8-0.5c0.9,0,1.8,0.3,2.7,0.8l-1.3,3.6
		c-0.7-0.4-1.3-0.7-1.9-0.7c-0.6,0-1.1,0.2-1.5,0.5s-0.7,0.9-0.9,1.7s-0.3,2.6-0.3,5.2V43.5z"/>
	<path class="st6" d="M1232.3,43.5V22.1h14.7v3.6h-10.4v5.1h9v3.6h-9v9.1H1232.3z"/>
	<path class="st6" d="M1250.6,43.5V22.1h4.1v21.5H1250.6z"/>
	<path class="st6" d="M1257.9,35.5c0-1.4,0.3-2.7,1-4s1.6-2.3,2.9-2.9s2.6-1,4.1-1c2.4,0,4.3,0.8,5.8,2.3s2.3,3.5,2.3,5.8
		c0,2.4-0.8,4.3-2.3,5.9c-1.5,1.5-3.4,2.3-5.7,2.3c-1.4,0-2.8-0.3-4.1-1s-2.3-1.6-3-2.8C1258.3,38.8,1257.9,37.3,1257.9,35.5z
		 M1262.2,35.8c0,1.5,0.4,2.7,1.1,3.5s1.6,1.2,2.7,1.2s2-0.4,2.7-1.2s1.1-2,1.1-3.6c0-1.5-0.4-2.7-1.1-3.5S1267,31,1266,31
		s-2,0.4-2.7,1.2S1262.2,34.2,1262.2,35.8z"/>
	<path class="st6" d="M1280.1,43.5l-4.9-15.6h4l2.9,10.2l2.7-10.2h4l2.6,10.2l3-10.2h4.1l-5,15.6h-4l-2.7-10l-2.6,10H1280.1z"/>
</g>
<line class="st7" x1="785" y1="687.8" x2="785" y2="19.2"/>
</svg>
