<svg id="Layer_1" data-name="Layer 1" xmlns="http://www.w3.org/2000/svg" viewBox="0 0 1828 412"><defs><style>.cls-1{fill:#ff1269;}.cls-2{font-size:34.44px;}.cls-2,.cls-5{fill:#fff;font-family:Quicksand-Bold, Quicksand;font-weight:700;}.cls-3{letter-spacing:0em;}.cls-4{letter-spacing:0em;}.cls-5{font-size:35.21px;}.cls-6{fill:#798a99;}.cls-7{font-size:41px;fill:#343333;font-family:Quicksand-SemiBold, Quicksand;font-weight:600;}.cls-8{letter-spacing:-0.02em;}.cls-9{letter-spacing:-0.01em;}.cls-10{letter-spacing:0em;}.cls-11{letter-spacing:0em;}.cls-12{letter-spacing:-0.02em;}.cls-13{letter-spacing:-0.01em;}.cls-14{letter-spacing:-0.02em;}</style></defs><polygon class="cls-1" points="918.49 7 970.44 112.26 1086.6 129.14 1002.54 211.07 1022.39 326.76 918.49 272.14 814.59 326.76 834.43 211.07 750.38 129.14 866.54 112.26 918.49 7"/><text class="cls-2" transform="translate(868.69 193.82)">S<tspan class="cls-3" x="20.56" y="0">t</tspan><tspan class="cls-4" x="34.47" y="0">ep 2</tspan></text><polygon class="cls-1" points="1655.33 3.41 1692.64 97.92 1789.79 68.17 1739.16 156.26 1823 213.67 1722.56 229.01 1729.95 330.35 1655.33 261.39 1580.7 330.35 1588.09 229.01 1487.65 213.67 1571.49 156.26 1520.86 68.17 1618.01 97.92 1655.33 3.41"/><text class="cls-5" transform="translate(1580.08 195.74)">End Goal</text><polygon class="cls-1" points="181.65 3.41 239.45 109.09 345.13 166.88 239.45 224.68 181.65 330.35 123.86 224.68 18.18 166.88 123.86 109.09 181.65 3.41"/><text class="cls-5" transform="translate(144.68 176.52)">MVP</text><path class="cls-6" d="M524.14,166.88,548,180.67V170.34h24.51a3.46,3.46,0,1,0,0-6.91H548V153.09Z"/><path class="cls-6" d="M1261,166.88l23.88,13.79V170.34h24.52a3.46,3.46,0,1,0,0-6.91h-24.52V153.09Z"/><text class="cls-7" transform="translate(-0.03 387.91)">Dashboa<tspan class="cls-8" x="173.43" y="0">r</tspan><tspan x="189.66" y="0">d L</tspan><tspan class="cls-9" x="248.95" y="0">a</tspan><tspan class="cls-10" x="273.71" y="0">y</tspan><tspan x="297.33" y="0">out</tspan></text><text class="cls-7" transform="translate(714.73 387.91)">Cus<tspan class="cls-11" x="69.49" y="0">t</tspan><tspan x="85.11" y="0">om Dashboa</tspan><tspan class="cls-12" x="332.55" y="0">r</tspan><tspan x="348.78" y="0">ds</tspan></text><text class="cls-7" transform="translate(1518.67 387.91)"><tspan class="cls-13">F</tspan><tspan x="22.47" y="0">ul</tspan><tspan class="cls-14" x="56.83" y="0">l</tspan><tspan x="66.75" y="0">y Dynamic</tspan></text></svg>