<?xml version="1.0" encoding="utf-8"?>
<!-- Generator: Adobe Illustrator 24.3.0, SVG Export Plug-In . SVG Version: 6.00 Build 0)  -->
<svg version="1.1" id="Layer_1" xmlns="http://www.w3.org/2000/svg" xmlns:xlink="http://www.w3.org/1999/xlink" x="0px" y="0px"
	 viewBox="0 0 736 707" style="enable-background:new 0 0 736 707;" xml:space="preserve">
<style type="text/css">
	.st0{fill:#D7E4F3;stroke:#000000;stroke-width:2;stroke-opacity:0;}
	.st1{fill:#333333;}
	.st2{fill:none;stroke:#666666;}
	.st3{fill:#666666;}
	.st4{fill:#666666;stroke:#666666;}
	.st5{fill:#5E5E5E;}
	.st6{font-family:'Quicksand-Bold';}
	.st7{font-size:30px;}
</style>
<desc>Created with Sketch.</desc>
<path id="Path_2_" class="st0" d="M210.8,77.4c0-4,3.3-7.3,7.3-7.3h113.8c4,0,7.3,3.3,7.3,7.3v40.4c0,4.1-3.3,7.3-7.3,7.3H218.2
	c-4.1,0-7.3-3.3-7.3-7.3V77.4z"/>
<g id="i" transform="translate(252.534910, 108.003590)">
	<g id="aL-link" transform="translate(0.183500, 0.550695)">
		<polyline id="aL" class="st1" points="8.4,-7.6 8.4,-12.5 3.4,-12.5 3.4,-7.6 1,-7.6 1,-19 3.4,-19 3.4,-14.5 8.4,-14.5 8.4,-19 
			10.7,-19 10.7,-7.6 8.4,-7.6 		"/>
	</g>
	<g id="aM-link" transform="translate(11.606375, 3.028824)">
		<path id="aM" class="st1" d="M5.4-19c2.9,0,4.4,1.7,4.4,4.5c0,2.9-1.6,4.5-4.4,4.5C2.6-9.9,1-11.6,1-14.5C1-17.3,2.6-19,5.4-19z
			 M5.4-11.5c1.6,0,2.1-1.3,2.1-3c0-1.8-0.5-3-2-3c-1.6,0-2.1,1.2-2.1,3C3.4-12.8,3.8-11.5,5.4-11.5"/>
	</g>
	<g id="aN-link" transform="translate(22.111750, 2.982933)">
		<path id="aN" class="st1" d="M10-17.3c-2.4,0.4-1.3,4.6-1.6,7.2H6.2V-15c0-1.2-0.2-2.2-1.3-2.3c-2.4,0.5-1.2,4.6-1.5,7.2H1l0-8.7
			h2.2c0.1,0.6,0,1.3,0.1,1.7c0.5-2.4,4.6-2.6,5,0c0.6-1,1.1-2,2.7-1.9c3.8,0,2.3,5.3,2.6,8.9h-2.2V-15C11.3-16.1,11.1-17.2,10-17.3
			"/>
	</g>
	<g id="aO-link" transform="translate(36.333000, 3.028824)">
		<path id="aO" class="st1" d="M8.8-12.3c-0.6,1.4-1.7,2.4-3.8,2.4C2.3-10,1-11.6,1-14.5S2.4-19,5.1-19C8-19,8.9-16.9,9-14H3.4
			c0,1.4,0.4,2.5,1.8,2.6c0.8,0,1.4-0.3,1.6-1L8.8-12.3z M6.8-15.5c0.2-2.1-2.6-2.9-3.2-1c-0.1,0.3-0.2,0.6-0.2,1H6.8"/>
	</g>
</g>
<line id="Path_3_" class="st2" x1="275.1" y1="125.6" x2="275.1" y2="149.5"/>
<polygon id="Path_4_" class="st3" points="275.5,125.6 274.6,125.6 274.6,125.2 275.5,125.2 "/>
<polygon id="Path_5_" class="st4" points="275.1,163.1 270.8,150 279.3,150 "/>
<path id="Path_6_" class="st0" d="M210.8,171.9c0-4.1,3.3-7.3,7.3-7.3h113.8c4,0,7.3,3.3,7.3,7.3v39.7c0,4.1-3.3,7.3-7.3,7.3H218.2
	c-4.1,0-7.3-3.3-7.3-7.3V171.9z"/>
<g id="j" transform="translate(228.914383, 202.941424)">
	<g id="aP-link" transform="translate(0.673966, 1.019806)">
		<path id="aP" class="st1" d="M6-8.8c-3.3,0-4.8-1.9-5-5.1c-0.2-4.2,4-6.1,7.7-4.4c0.7,0.3,1.1,1,1.5,1.7l-1.3,0.4
			c-0.5-1-1.5-1.6-3-1.6c-2.4,0-3.5,1.5-3.5,3.9c0,2.4,1.1,4,3.6,4c1.4,0,2.5-0.4,3.1-1.1v-1.8H6.2v-1.1h4.2v3.4
			C9.4-9.5,7.9-8.8,6-8.8"/>
	</g>
	<g id="aQ-link" transform="translate(12.052099, 0.662874)">
		<polyline id="aQ" class="st1" points="1,-8.6 1,-19 2.3,-19 2.3,-8.6 1,-8.6 		"/>
	</g>
	<g id="aR-link" transform="translate(14.827253, 3.280376)">
		<path id="aR" class="st1" d="M4.4-19c2.5,0,3.4,1.5,3.4,3.9c0,2.5-1.1,3.9-3.4,3.9S1-12.7,1-15C1-17.7,2.1-19,4.4-19z M4.3-12.1
			c1.7,0,2.1-1.2,2.1-3c0-1.7-0.3-3-2-3s-2.1,1.3-2.1,3S2.7-12.1,4.3-12.1"/>
	</g>
	<g id="aS-link" transform="translate(23.073426, 0.662874)">
		<path id="aS" class="st1" d="M4.6-16.3c2.1,0,2.7,1.5,2.8,3.9c0,2.6-0.9,4-2.8,4c-1.2,0-1.9-0.4-2.3-1.3L2.2-8.6H1L1-19h1.3v4
			C2.7-15.9,3.4-16.3,4.6-16.3z M4.3-9.4c1.6,0,1.8-1.3,1.8-3c0-1.6-0.2-3-1.8-2.9c-1.7,0-2,1.3-2,3C2.3-10.6,2.7-9.4,4.3-9.4"/>
	</g>
	<g id="aT-link" transform="translate(30.645633, 3.320036)">
		<path id="aT" class="st1" d="M6-12.7c-0.6,0.8-1.2,1.6-2.7,1.6C1.9-11.2,1-12,1-13.4c0-2.5,2.5-2.5,5-2.5C6.1-17.3,5.6-18,4.4-18
			c-1,0-1.6,0.3-1.7,1.2l-1.3-0.1c0.2-1.5,1.3-2.1,3-2.1c1.8,0,2.9,0.8,2.9,2.5v3.3c0,0.8,0.3,1.3,1.1,1.1v0.8C7.1-11,6-11.4,6-12.7
			z M2.3-13.4c0,0.8,0.5,1.3,1.3,1.3C5.2-12.2,6.1-13.2,6-15C4.3-15,2.3-15.2,2.3-13.4"/>
	</g>
	<g id="aQ-link_1_" transform="translate(38.971096, 0.662874)">
		<polyline id="aQ_1_" class="st1" points="1,-8.6 1,-19 2.3,-19 2.3,-8.6 1,-8.6 		"/>
	</g>
</g>
<g id="k" transform="translate(274.030463, 202.941424)">
	<g id="aU-link" transform="translate(0.634321, 0.980147)">
		<path id="aU" class="st1" d="M7.7-16.5c-0.2-1.9-4.9-2.1-4.9,0.1c0.6,3,6.3,0.6,6.5,4.7c0.1,3.1-4.8,3.5-6.9,2.2
			c-0.7-0.4-1.1-1-1.3-1.8l1.3-0.3c0.2,2.2,5.6,2.5,5.6,0c0-3.1-6.1-0.6-6.4-4.7c-0.2-3.3,5.7-3.3,7.1-1.3c0.2,0.3,0.3,0.6,0.4,1"/>
	</g>
	<g id="aV-link" transform="translate(10.069846, 3.320036)">
		<path id="aV" class="st1" d="M4.4-19c2.5,0,3.4,1.7,3.3,4.2H2.4c0,1.6,0.6,2.7,2.1,2.7c1,0,1.7-0.5,1.9-1.2l1.1,0.3
			c-0.4,1.1-1.5,1.8-3.1,1.8c-2.3,0-3.5-1.5-3.4-4C1.1-17.5,2.1-19,4.4-19z M6.5-15.8c0.2-2.4-3-3.1-3.8-1.1
			c-0.1,0.3-0.2,0.7-0.2,1.1H6.5"/>
	</g>
	<g id="aT-link_1_" transform="translate(17.998858, 3.320036)">
		<path id="aT_1_" class="st1" d="M6-12.7c-0.6,0.8-1.2,1.6-2.7,1.6C1.9-11.2,1-12,1-13.4c0-2.5,2.5-2.5,5-2.5
			C6.1-17.3,5.6-18,4.4-18c-1,0-1.6,0.3-1.7,1.2l-1.3-0.1c0.2-1.5,1.3-2.1,3-2.1c1.8,0,2.9,0.8,2.9,2.5v3.3c0,0.8,0.3,1.3,1.1,1.1
			v0.8C7.1-11,6-11.4,6-12.7z M2.3-13.4c0,0.8,0.5,1.3,1.3,1.3C5.2-12.2,6.1-13.2,6-15C4.3-15,2.3-15.2,2.3-13.4"/>
	</g>
	<g id="aW-link" transform="translate(26.324321, 3.320036)">
		<path id="aW" class="st1" d="M4.6-17.8c-3.1-0.6-2.1,3.6-2.3,6.5H1l0-7.5h1.2c0,0.5,0,1.2,0.1,1.5c0.2-1.1,0.9-1.9,2.3-1.6V-17.8"
			/>
	</g>
	<g id="aX-link" transform="translate(30.645633, 3.359695)">
		<path id="aX" class="st1" d="M4.3-18c-1.6,0-1.9,1.3-1.9,2.9s0.4,3,1.9,3c1,0,1.6-0.6,1.7-1.5l1.3,0.1C7-12.1,6-11.2,4.3-11.2
			c-2.3,0-3-1.6-3.3-3.9c-0.4-3.7,4-5.2,5.8-2.5c0.2,0.3,0.2,0.6,0.3,0.9l-1.3,0.1C5.7-17.5,5.2-18,4.3-18"/>
	</g>
	<g id="aY-link" transform="translate(38.217840, 0.662874)">
		<path id="aY" class="st1" d="M4.2-15.4c-2.9,0-1.7,4-1.9,6.7H1V-19h1.3l0,4.1c0.5-0.8,1.1-1.4,2.4-1.4c3.5,0,2.1,4.6,2.4,7.7H5.8
			v-4.8C5.8-14.7,5.4-15.4,4.2-15.4"/>
	</g>
</g>
<path id="Path_7_" class="st0" d="M210.8,282c0-4.1,3.3-7.3,7.3-7.3h124.1c4.1,0,7.3,3.3,7.3,7.3v39.7c0,4.1-3.3,7.3-7.3,7.3H218.2
	c-4.1,0-7.3-3.3-7.3-7.3V282z"/>
<g id="l" transform="translate(222.545687, 313.080489)">
	<g id="aU-link_1_" transform="translate(0.634321, 0.980147)">
		<path id="aU_1_" class="st1" d="M7.7-16.5c-0.2-1.9-4.9-2.1-4.9,0.1c0.6,3,6.3,0.6,6.5,4.7c0.1,3.1-4.8,3.5-6.9,2.2
			c-0.7-0.4-1.1-1-1.3-1.8l1.3-0.3c0.2,2.2,5.6,2.5,5.6,0c0-3.1-6.1-0.6-6.4-4.7c-0.2-3.3,5.7-3.3,7.1-1.3c0.2,0.3,0.3,0.6,0.4,1"/>
	</g>
	<g id="aZ-link" transform="translate(10.466296, 0.662874)">
		<path id="aZ" class="st1" d="M1-17.8V-19h1.3v1.2H1z M1-8.6v-7.5h1.3v7.5H1"/>
	</g>
	<g id="ba-link" transform="translate(13.598256, 3.280376)">
		<path id="ba" class="st1" d="M4.7-19c3.5-0.2,2.1,4.6,2.4,7.7H5.8v-4.8c0-1.2-0.3-1.9-1.5-1.9c-2.9,0.1-1.7,4-1.9,6.7H1l0-7.5h1.2
			c0,0.4,0,1,0.1,1.3C2.7-18.4,3.4-18.9,4.7-19"/>
	</g>
	<g id="bb-link" transform="translate(21.170463, 3.320036)">
		<path id="bb" class="st1" d="M7.4-18.8C7-13.9,9-7.2,3.1-8.5c-0.9-0.2-1.5-0.8-1.7-1.7l1.3-0.2c0.6,1.9,4,1.3,3.5-1.1v-1.2
			c-0.4,0.8-1.1,1.4-2.4,1.4c-2.1,0-2.7-1.6-2.7-3.8c0-2.2,0.6-3.8,2.8-3.9c1.1,0,1.9,0.6,2.3,1.4c0-0.4,0-0.9,0.1-1.3H7.4z
			 M4.1-12.2c1.4,0,2-1.3,2-2.9c0-1.7-0.6-3-2-3c-1.5,0-1.8,1.3-1.8,3S2.5-12.2,4.1-12.2"/>
	</g>
	<g id="aQ-link_2_" transform="translate(29.456281, 0.662874)">
		<polyline id="aQ_2_" class="st1" points="1,-8.6 1,-19 2.3,-19 2.3,-8.6 1,-8.6 		"/>
	</g>
	<g id="aV-link_1_" transform="translate(32.191790, 3.320036)">
		<path id="aV_1_" class="st1" d="M4.4-19c2.5,0,3.4,1.7,3.3,4.2H2.4c0,1.6,0.6,2.7,2.1,2.7c1,0,1.7-0.5,1.9-1.2l1.1,0.3
			c-0.4,1.1-1.5,1.8-3.1,1.8c-2.3,0-3.5-1.5-3.4-4C1.1-17.5,2.1-19,4.4-19z M6.5-15.8c0.2-2.4-3-3.1-3.8-1.1
			c-0.1,0.3-0.2,0.7-0.2,1.1H6.5"/>
	</g>
</g>
<g id="m" transform="translate(266.993464, 313.080489)">
	<g id="aW-link_1_" transform="translate(0.033981, 3.320036)">
		<path id="aW_1_" class="st1" d="M4.6-17.8c-3.1-0.6-2.1,3.6-2.3,6.5H1l0-7.5h1.2c0,0.5,0,1.2,0.1,1.5c0.2-1.1,0.9-1.9,2.3-1.6
			V-17.8"/>
	</g>
	<g id="aV-link_2_" transform="translate(4.355293, 3.320036)">
		<path id="aV_2_" class="st1" d="M4.4-19c2.5,0,3.4,1.7,3.3,4.2H2.4c0,1.6,0.6,2.7,2.1,2.7c1,0,1.7-0.5,1.9-1.2l1.1,0.3
			c-0.4,1.1-1.5,1.8-3.1,1.8c-2.3,0-3.5-1.5-3.4-4C1.1-17.5,2.1-19,4.4-19z M6.5-15.8c0.2-2.4-3-3.1-3.8-1.1
			c-0.1,0.3-0.2,0.7-0.2,1.1H6.5"/>
	</g>
	<g id="bc-link" transform="translate(12.125725, 3.320036)">
		<path id="bc" class="st1" d="M6-17c-0.1-1.3-3.4-1.5-3.4,0c0.6,2.1,4.6,0.5,4.7,3.6S1.3-10.5,1-13.1l1.1-0.2
			c0.2,1.4,3.8,1.8,3.9,0c-0.4-2.2-4.5-0.6-4.7-3.6c-0.2-2.3,3.3-2.5,4.8-1.7c0.5,0.3,0.8,0.8,1,1.4"/>
	</g>
	<g id="bd-link" transform="translate(19.697932, 3.478672)">
		<path id="bd" class="st1" d="M3.5-11.3C0-11.1,1.4-15.9,1.1-19h1.3v4.8c0,1.2,0.3,2,1.5,1.9c2.9-0.1,1.8-4,2-6.7h1.2l0,7.5H6
			c0-0.4,0-1-0.1-1.3C5.4-11.9,4.8-11.3,3.5-11.3"/>
	</g>
	<g id="aQ-link_3_" transform="translate(27.745880, 0.662874)">
		<polyline id="aQ_3_" class="st1" points="1,-8.6 1,-19 2.3,-19 2.3,-8.6 1,-8.6 		"/>
	</g>
	<g id="be-link" transform="translate(30.124583, 1.773330)">
		<path id="be" class="st1" d="M3.1-11.6c-0.1,1,0.7,1.2,1.5,0.9v1c-1.3,0.4-2.8,0.2-2.8-1.5v-5H1v-0.9h1L2.3-19h0.8v1.7h1.4v0.9
			H3.1V-11.6"/>
	</g>
</g>
<g id="n" transform="translate(304.848835, 315.833965)">
	<g id="bf-link" transform="translate(0.911836, 0.566559)">
		<path id="bf" class="st1" d="M4.6-19c2.2,0,2.8,1.6,2.8,3.9s-0.6,3.9-2.8,4c-1.2,0-1.9-0.5-2.4-1.3l0,4.2H1l0-10.5h1.2l0.1,1.2
			C2.7-18.5,3.4-19,4.6-19z M4.3-12.1c1.6,0,1.8-1.3,1.8-3S5.9-18,4.3-18c-1.7,0-2,1.3-2,3C2.3-13.3,2.7-12.1,4.3-12.1"/>
	</g>
	<g id="aT-link_2_" transform="translate(8.484043, 0.566559)">
		<path id="aT_2_" class="st1" d="M6-12.7c-0.6,0.8-1.2,1.6-2.7,1.6C1.9-11.2,1-12,1-13.4c0-2.5,2.5-2.5,5-2.5
			C6.1-17.3,5.6-18,4.4-18c-1,0-1.6,0.3-1.7,1.2l-1.3-0.1c0.2-1.5,1.3-2.1,3-2.1c1.8,0,2.9,0.8,2.9,2.5v3.3c0,0.8,0.3,1.3,1.1,1.1
			v0.8C7.1-11,6-11.4,6-12.7z M2.3-13.4c0,0.8,0.5,1.3,1.3,1.3C5.2-12.2,6.1-13.2,6-15C4.3-15,2.3-15.2,2.3-13.4"/>
	</g>
	<g id="bb-link_1_" transform="translate(16.452701, 0.566559)">
		<path id="bb_1_" class="st1" d="M7.4-18.8C7-13.9,9-7.2,3.1-8.5c-0.9-0.2-1.5-0.8-1.7-1.7l1.3-0.2c0.6,1.9,4,1.3,3.5-1.1v-1.2
			c-0.4,0.8-1.1,1.4-2.4,1.4c-2.1,0-2.7-1.6-2.7-3.8c0-2.2,0.6-3.8,2.8-3.9c1.1,0,1.9,0.6,2.3,1.4c0-0.4,0-0.9,0.1-1.3H7.4z
			 M4.1-12.2c1.4,0,2-1.3,2-2.9c0-1.7-0.6-3-2-3c-1.5,0-1.8,1.3-1.8,3S2.5-12.2,4.1-12.2"/>
	</g>
	<g id="aV-link_3_" transform="translate(24.342068, 0.566559)">
		<path id="aV_3_" class="st1" d="M4.4-19c2.5,0,3.4,1.7,3.3,4.2H2.4c0,1.6,0.6,2.7,2.1,2.7c1,0,1.7-0.5,1.9-1.2l1.1,0.3
			c-0.4,1.1-1.5,1.8-3.1,1.8c-2.3,0-3.5-1.5-3.4-4C1.1-17.5,2.1-19,4.4-19z M6.5-15.8c0.2-2.4-3-3.1-3.8-1.1
			c-0.1,0.3-0.2,0.7-0.2,1.1H6.5"/>
	</g>
</g>
<path id="Path_9_" class="st0" d="M216,659.5c0-4.1,3.3-7.3,7.3-7.3h113.8c4,0,7.3,3.3,7.3,7.3v39.7c0,4.1-3.3,7.3-7.3,7.3H223.4
	c-4.1,0-7.3-3.3-7.3-7.3V659.5z"/>
<g id="F" transform="translate(250.460992, 690.508706)">
	<g id="bx-link" transform="translate(0.271852, 1.138784)">
		<path id="bx" class="st1" d="M9-16.1c0,1.6-0.9,2.5-2.4,2.8l2.8,4.2H7.9l-2.6-4.1H2.3v4.1H1V-19C4.5-18.8,9.1-19.8,9-16.1z
			 M2.3-14.2c2.4-0.1,5.4,0.5,5.4-1.9c0-2.4-3.2-1.7-5.4-1.8V-14.2"/>
	</g>
	<g id="aT-link_3_" transform="translate(9.905602, 3.320036)">
		<path id="aT_3_" class="st1" d="M6-12.7c-0.6,0.8-1.2,1.6-2.7,1.6C1.9-11.2,1-12,1-13.4c0-2.5,2.5-2.5,5-2.5
			C6.1-17.3,5.6-18,4.4-18c-1,0-1.6,0.3-1.7,1.2l-1.3-0.1c0.2-1.5,1.3-2.1,3-2.1c1.8,0,2.9,0.8,2.9,2.5v3.3c0,0.8,0.3,1.3,1.1,1.1
			v0.8C7.1-11,6-11.4,6-12.7z M2.3-13.4c0,0.8,0.5,1.3,1.3,1.3C5.2-12.2,6.1-13.2,6-15C4.3-15,2.3-15.2,2.3-13.4"/>
	</g>
	<g id="ba-link_1_" transform="translate(18.231065, 3.280376)">
		<path id="ba_1_" class="st1" d="M4.7-19c3.5-0.2,2.1,4.6,2.4,7.7H5.8v-4.8c0-1.2-0.3-1.9-1.5-1.9c-2.9,0.1-1.7,4-1.9,6.7H1l0-7.5
			h1.2c0,0.4,0,1,0.1,1.3C2.7-18.4,3.4-18.9,4.7-19"/>
	</g>
	<g id="by-link" transform="translate(26.160077, 0.662874)">
		<polyline id="by" class="st1" points="5.7,-8.6 3.2,-12.1 2.3,-11.3 2.3,-8.6 1,-8.6 1,-19 2.3,-19 2.3,-12.5 5.6,-16.2 7,-16.2 
			4,-12.9 7.2,-8.6 5.7,-8.6 		"/>
	</g>
	<g id="aZ-link_1_" transform="translate(33.296188, 0.662874)">
		<path id="aZ_1_" class="st1" d="M1-17.8V-19h1.3v1.2H1z M1-8.6v-7.5h1.3v7.5H1"/>
	</g>
	<g id="ba-link_2_" transform="translate(36.428148, 3.280376)">
		<path id="ba_2_" class="st1" d="M4.7-19c3.5-0.2,2.1,4.6,2.4,7.7H5.8v-4.8c0-1.2-0.3-1.9-1.5-1.9c-2.9,0.1-1.7,4-1.9,6.7H1l0-7.5
			h1.2c0,0.4,0,1,0.1,1.3C2.7-18.4,3.4-18.9,4.7-19"/>
	</g>
	<g id="bb-link_2_" transform="translate(44.000355, 3.320036)">
		<path id="bb_2_" class="st1" d="M7.4-18.8C7-13.9,9-7.2,3.1-8.5c-0.9-0.2-1.5-0.8-1.7-1.7l1.3-0.2c0.6,1.9,4,1.3,3.5-1.1v-1.2
			c-0.4,0.8-1.1,1.4-2.4,1.4c-2.1,0-2.7-1.6-2.7-3.8c0-2.2,0.6-3.8,2.8-3.9c1.1,0,1.9,0.6,2.3,1.4c0-0.4,0-0.9,0.1-1.3H7.4z
			 M4.1-12.2c1.4,0,2-1.3,2-2.9c0-1.7-0.6-3-2-3c-1.5,0-1.8,1.3-1.8,3S2.5-12.2,4.1-12.2"/>
	</g>
	<g id="bc-link_1_" transform="translate(51.731142, 3.320036)">
		<path id="bc_1_" class="st1" d="M6-17c-0.1-1.3-3.4-1.5-3.4,0c0.6,2.1,4.6,0.5,4.7,3.6S1.3-10.5,1-13.1l1.1-0.2
			c0.2,1.4,3.8,1.8,3.9,0c-0.4-2.2-4.5-0.6-4.7-3.6c-0.2-2.3,3.3-2.5,4.8-1.7c0.5,0.3,0.8,0.8,1,1.4"/>
	</g>
</g>
<path id="Path_10_" class="st0" d="M441.4,386.8c0-4.1,3.3-7.3,7.3-7.3h113.8c4.1,0,7.3,3.3,7.3,7.3v39.7c0,4-3.3,7.3-7.3,7.3H448.7
	c-4.1,0-7.3-3.3-7.3-7.3V386.8z"/>
<g id="G" transform="translate(475.347122, 418.765040)">
	<g id="bz-link" transform="translate(0.673966, 0.101981)">
		<path id="bz" class="st1" d="M8.7-16.1c-0.4-1.1-1.4-1.8-2.9-1.8c-2.3,0-3.4,1.6-3.4,3.9c0,2.4,1.1,4,3.5,4c1.7,0,2.5-1,3.1-2.1
			l1.1,0.6c-0.7,1.5-2,2.6-4.2,2.6c-3.2,0-4.6-2-4.8-5.1C0.8-18.1,5-20,8.5-18.4c0.8,0.4,1.2,1,1.5,1.8"/>
	</g>
	<g id="aR-link_1_" transform="translate(10.862747, 2.362551)">
		<path id="aR_1_" class="st1" d="M4.4-19c2.5,0,3.4,1.5,3.4,3.9c0,2.5-1.1,3.9-3.4,3.9S1-12.7,1-15C1-17.7,2.1-19,4.4-19z
			 M4.3-12.1c1.7,0,2.1-1.2,2.1-3c0-1.7-0.3-3-2-3s-2.1,1.3-2.1,3S2.7-12.1,4.3-12.1"/>
	</g>
	<g id="bA-link" transform="translate(19.148565, 2.362551)">
		<path id="bA" class="st1" d="M8.4-18c-2.7,0.1-1.5,4.2-1.7,6.7H5.4v-4.8c0-1.2-0.2-2-1.4-1.9c-2.6,0.2-1.5,4.1-1.7,6.7H1l0-7.5
			h1.2c0,0.4,0,1,0.1,1.3c0.4-1.7,3.9-2,4.2,0c0.4-0.8,1.1-1.4,2.3-1.4c3.4-0.1,1.9,4.7,2.2,7.7H9.8v-4.8C9.8-17.2,9.6-18,8.4-18"/>
	</g>
	<g id="bf-link_1_" transform="translate(30.962793, 2.402210)">
		<path id="bf_1_" class="st1" d="M4.6-19c2.2,0,2.8,1.6,2.8,3.9s-0.6,3.9-2.8,4c-1.2,0-1.9-0.5-2.4-1.3l0,4.2H1l0-10.5h1.2l0.1,1.2
			C2.7-18.5,3.4-19,4.6-19z M4.3-12.1c1.6,0,1.8-1.3,1.8-3S5.9-18,4.3-18c-1.7,0-2,1.3-2,3C2.3-13.3,2.7-12.1,4.3-12.1"/>
	</g>
	<g id="aT-link_4_" transform="translate(38.535000, 2.402210)">
		<path id="aT_4_" class="st1" d="M6-12.7c-0.6,0.8-1.2,1.6-2.7,1.6C1.9-11.2,1-12,1-13.4c0-2.5,2.5-2.5,5-2.5
			C6.1-17.3,5.6-18,4.4-18c-1,0-1.6,0.3-1.7,1.2l-1.3-0.1c0.2-1.5,1.3-2.1,3-2.1c1.8,0,2.9,0.8,2.9,2.5v3.3c0,0.8,0.3,1.3,1.1,1.1
			v0.8C7.1-11,6-11.4,6-12.7z M2.3-13.4c0,0.8,0.5,1.3,1.3,1.3C5.2-12.2,6.1-13.2,6-15C4.3-15,2.3-15.2,2.3-13.4"/>
	</g>
	<g id="aW-link_2_" transform="translate(46.860463, 2.402210)">
		<path id="aW_2_" class="st1" d="M4.6-17.8c-3.1-0.6-2.1,3.6-2.3,6.5H1l0-7.5h1.2c0,0.5,0,1.2,0.1,1.5c0.2-1.1,0.9-1.9,2.3-1.6
			V-17.8"/>
	</g>
	<g id="aV-link_4_" transform="translate(51.181775, 2.402210)">
		<path id="aV_4_" class="st1" d="M4.4-19c2.5,0,3.4,1.7,3.3,4.2H2.4c0,1.6,0.6,2.7,2.1,2.7c1,0,1.7-0.5,1.9-1.2l1.1,0.3
			c-0.4,1.1-1.5,1.8-3.1,1.8c-2.3,0-3.5-1.5-3.4-4C1.1-17.5,2.1-19,4.4-19z M6.5-15.8c0.2-2.4-3-3.1-3.8-1.1
			c-0.1,0.3-0.2,0.7-0.2,1.1H6.5"/>
	</g>
</g>
<path id="Path_11_" class="st0" d="M274.8,455.1c3-2.7,7.9-2.7,11,0l71.6,63.7c3,2.7,3,7.1,0,9.8l-71.6,63.7c-3,2.7-7.9,2.7-11,0
	l-71.6-63.7c-3-2.7-3-7.1,0-9.7L274.8,455.1z"/>
<g id="H" transform="translate(217.634880, 534.478365)">
	<g id="bB-link" transform="translate(0.271852, 1.099124)">
		<path id="bB" class="st1" d="M1-18.9c4.7-0.3,8.6,0.3,8.4,4.8c-0.1,3.1-1.7,5-4.8,5H1V-18.9z M2.3-10.2c3.5,0.3,5.8-0.6,5.8-3.9
			s-2.4-4-5.8-3.8V-10.2"/>
	</g>
	<g id="aV-link_5_" transform="translate(9.905602, 3.320036)">
		<path id="aV_5_" class="st1" d="M4.4-19c2.5,0,3.4,1.7,3.3,4.2H2.4c0,1.6,0.6,2.7,2.1,2.7c1,0,1.7-0.5,1.9-1.2l1.1,0.3
			c-0.4,1.1-1.5,1.8-3.1,1.8c-2.3,0-3.5-1.5-3.4-4C1.1-17.5,2.1-19,4.4-19z M6.5-15.8c0.2-2.4-3-3.1-3.8-1.1
			c-0.1,0.3-0.2,0.7-0.2,1.1H6.5"/>
	</g>
	<g id="bC-link" transform="translate(17.319228, 3.478672)">
		<polyline id="bC" class="st1" points="5.2,-11.5 3.7,-11.5 1,-19 2.3,-19 4.5,-12.5 6.7,-19 8.1,-19 		"/>
	</g>
	<g id="aZ-link_2_" transform="translate(25.367176, 0.662874)">
		<path id="aZ_2_" class="st1" d="M1-17.8V-19h1.3v1.2H1z M1-8.6v-7.5h1.3v7.5H1"/>
	</g>
	<g id="aX-link_1_" transform="translate(28.102685, 3.359695)">
		<path id="aX_1_" class="st1" d="M4.3-18c-1.6,0-1.9,1.3-1.9,2.9s0.4,3,1.9,3c1,0,1.6-0.6,1.7-1.5l1.3,0.1C7-12.1,6-11.2,4.3-11.2
			c-2.3,0-3-1.6-3.3-3.9c-0.4-3.7,4-5.2,5.8-2.5c0.2,0.3,0.2,0.6,0.3,0.9l-1.3,0.1C5.7-17.5,5.2-18,4.3-18"/>
	</g>
	<g id="aV-link_6_" transform="translate(35.238796, 3.320036)">
		<path id="aV_6_" class="st1" d="M4.4-19c2.5,0,3.4,1.7,3.3,4.2H2.4c0,1.6,0.6,2.7,2.1,2.7c1,0,1.7-0.5,1.9-1.2l1.1,0.3
			c-0.4,1.1-1.5,1.8-3.1,1.8c-2.3,0-3.5-1.5-3.4-4C1.1-17.5,2.1-19,4.4-19z M6.5-15.8c0.2-2.4-3-3.1-3.8-1.1
			c-0.1,0.3-0.2,0.7-0.2,1.1H6.5"/>
	</g>
</g>
<g id="I" transform="translate(264.212164, 537.231842)">
	<g id="aR-link_2_" transform="translate(0.594676, 0.526900)">
		<path id="aR_2_" class="st1" d="M4.4-19c2.5,0,3.4,1.5,3.4,3.9c0,2.5-1.1,3.9-3.4,3.9S1-12.7,1-15C1-17.7,2.1-19,4.4-19z
			 M4.3-12.1c1.7,0,2.1-1.2,2.1-3c0-1.7-0.3-3-2-3s-2.1,1.3-2.1,3S2.7-12.1,4.3-12.1"/>
	</g>
	<g id="aW-link_3_" transform="translate(8.880494, 0.566559)">
		<path id="aW_3_" class="st1" d="M4.6-17.8c-3.1-0.6-2.1,3.6-2.3,6.5H1l0-7.5h1.2c0,0.5,0,1.2,0.1,1.5c0.2-1.1,0.9-1.9,2.3-1.6
			V-17.8"/>
	</g>
</g>
<g id="J" transform="translate(281.740945, 534.478365)">
	<g id="bD-link" transform="translate(0.271852, 1.138784)">
		<path id="bD" class="st1" d="M1-19c3.4,0,7.6-0.6,7.6,3c0,3.1-3.1,3.2-6.3,3v3.8H1V-19z M2.3-14c2.3,0,4.9,0.4,4.9-2
			c0-2.3-2.7-1.9-4.9-1.9V-14"/>
	</g>
	<g id="aW-link_4_" transform="translate(9.548796, 3.320036)">
		<path id="aW_4_" class="st1" d="M4.6-17.8c-3.1-0.6-2.1,3.6-2.3,6.5H1l0-7.5h1.2c0,0.5,0,1.2,0.1,1.5c0.2-1.1,0.9-1.9,2.3-1.6
			V-17.8"/>
	</g>
	<g id="aR-link_3_" transform="translate(13.909753, 3.280376)">
		<path id="aR_3_" class="st1" d="M4.4-19c2.5,0,3.4,1.5,3.4,3.9c0,2.5-1.1,3.9-3.4,3.9S1-12.7,1-15C1-17.7,2.1-19,4.4-19z
			 M4.3-12.1c1.7,0,2.1-1.2,2.1-3c0-1.7-0.3-3-2-3s-2.1,1.3-2.1,3S2.7-12.1,4.3-12.1"/>
	</g>
	<g id="bC-link_1_" transform="translate(21.283735, 3.478672)">
		<polyline id="bC_1_" class="st1" points="5.2,-11.5 3.7,-11.5 1,-19 2.3,-19 4.5,-12.5 6.7,-19 8.1,-19 		"/>
	</g>
	<g id="aZ-link_3_" transform="translate(29.331682, 0.662874)">
		<path id="aZ_3_" class="st1" d="M1-17.8V-19h1.3v1.2H1z M1-8.6v-7.5h1.3v7.5H1"/>
	</g>
	<g id="bE-link" transform="translate(32.106836, 0.662874)">
		<path id="bE" class="st1" d="M3.8-16.3c1.2,0,1.9,0.5,2.4,1.3l0-4h1.3l0,10.4H6.2C6.2-9,6.2-9.6,6.1-9.9C5.7-9,5-8.5,3.8-8.5
			C1.7-8.5,1-10,1-12.4C1-15,1.9-16.3,3.8-16.3z M4.1-15.4c-1.6,0-1.8,1.3-1.8,3c0,1.6,0.2,2.9,1.8,2.9c1.7,0,2-1.3,2-3
			C6.1-14.2,5.8-15.4,4.1-15.4"/>
	</g>
	<g id="aV-link_7_" transform="translate(39.996204, 3.320036)">
		<path id="aV_7_" class="st1" d="M4.4-19c2.5,0,3.4,1.7,3.3,4.2H2.4c0,1.6,0.6,2.7,2.1,2.7c1,0,1.7-0.5,1.9-1.2l1.1,0.3
			c-0.4,1.1-1.5,1.8-3.1,1.8c-2.3,0-3.5-1.5-3.4-4C1.1-17.5,2.1-19,4.4-19z M6.5-15.8c0.2-2.4-3-3.1-3.8-1.1
			c-0.1,0.3-0.2,0.7-0.2,1.1H6.5"/>
	</g>
	<g id="aW-link_5_" transform="translate(48.321667, 3.320036)">
		<path id="aW_5_" class="st1" d="M4.6-17.8c-3.1-0.6-2.1,3.6-2.3,6.5H1l0-7.5h1.2c0,0.5,0,1.2,0.1,1.5c0.2-1.1,0.9-1.9,2.3-1.6
			V-17.8"/>
	</g>
	<g id="bF-link" transform="translate(52.682623, 1.059465)">
		<path id="bF" class="st1" d="M4.5-19c3.3,0,4.4,3.8,1.8,5.3c-0.8,0.4-1.5,1-1.5,2.1H3.5c0-2.5,3.1-2.2,3.1-4.5
			c0-1.2-0.8-1.7-2.1-1.7c-1.3,0-2.1,0.7-2.2,1.8L1-16.1C1.3-17.9,2.3-19,4.5-19z M3.5-9v-1.4h1.3V-9H3.5"/>
	</g>
</g>
<polygon id="Path_12_" class="st3" points="280.7,637.1 279.8,637.1 279.8,624.9 280.7,624.9 "/>
<polygon id="Path_13_" class="st3" points="280.7,607.8 279.8,607.8 279.8,594.6 280.7,594.6 "/>
<polygon id="Path_14_" class="st3" points="280.7,594.6 279.8,594.6 279.8,594.2 280.7,594.1 "/>
<polygon id="Path_15_" class="st3" points="280.2,650.6 276,637.6 284.5,637.6 "/>
<polygon id="Path_16_" class="st3" points="280.2,652.1 275.4,637.1 285.1,637.1 "/>
<polygon id="Path_17_" class="st3" points="276.6,638 280.2,649.2 283.9,638 "/>
<g id="K" transform="translate(267.606405, 628.096570)">
	<g id="bG-link" transform="translate(0.317160, 0.260617)">
		<polyline id="bG" class="st1" points="6.1,-13.2 6.1,-9.2 4.8,-9.2 4.8,-13.2 1,-19 2.5,-19 5.4,-14.3 8.4,-19 9.9,-19 		"/>
	</g>
	<g id="aV-link_8_" transform="translate(8.761559, 2.402210)">
		<path id="aV_8_" class="st1" d="M4.4-19c2.5,0,3.4,1.7,3.3,4.2H2.4c0,1.6,0.6,2.7,2.1,2.7c1,0,1.7-0.5,1.9-1.2l1.1,0.3
			c-0.4,1.1-1.5,1.8-3.1,1.8c-2.3,0-3.5-1.5-3.4-4C1.1-17.5,2.1-19,4.4-19z M6.5-15.8c0.2-2.4-3-3.1-3.8-1.1
			c-0.1,0.3-0.2,0.7-0.2,1.1H6.5"/>
	</g>
	<g id="bc-link_2_" transform="translate(16.531991, 2.402210)">
		<path id="bc_2_" class="st1" d="M6-17c-0.1-1.3-3.4-1.5-3.4,0c0.6,2.1,4.6,0.5,4.7,3.6S1.3-10.5,1-13.1l1.1-0.2
			c0.2,1.4,3.8,1.8,3.9,0c-0.4-2.2-4.5-0.6-4.7-3.6c-0.2-2.3,3.3-2.5,4.8-1.7c0.5,0.3,0.8,0.8,1,1.4"/>
	</g>
</g>
<path id="Path_19_" class="st0" d="M37.7,282c0-4.1,3.3-7.3,7.3-7.3h113.8c4.1,0,7.3,3.3,7.3,7.3v39.7c0,4.1-3.3,7.3-7.3,7.3H45
	c-4.1,0-7.3-3.3-7.3-7.3V282z"/>
<g id="T" transform="translate(54.203295, 304.514117)">
	<g id="bz-link_1_" transform="translate(0.673966, 1.019806)">
		<path id="bz_1_" class="st1" d="M8.7-16.1c-0.4-1.1-1.4-1.8-2.9-1.8c-2.3,0-3.4,1.6-3.4,3.9c0,2.4,1.1,4,3.5,4
			c1.7,0,2.5-1,3.1-2.1l1.1,0.6c-0.7,1.5-2,2.6-4.2,2.6c-3.2,0-4.6-2-4.8-5.1C0.8-18.1,5-20,8.5-18.4c0.8,0.4,1.2,1,1.5,1.8"/>
	</g>
	<g id="aY-link_1_" transform="translate(11.259198, 0.662874)">
		<path id="aY_1_" class="st1" d="M4.2-15.4c-2.9,0-1.7,4-1.9,6.7H1V-19h1.3l0,4.1c0.5-0.8,1.1-1.4,2.4-1.4c3.5,0,2.1,4.6,2.4,7.7
			H5.8v-4.8C5.8-14.7,5.4-15.4,4.2-15.4"/>
	</g>
	<g id="aT-link_5_" transform="translate(18.752114, 3.320036)">
		<path id="aT_5_" class="st1" d="M6-12.7c-0.6,0.8-1.2,1.6-2.7,1.6C1.9-11.2,1-12,1-13.4c0-2.5,2.5-2.5,5-2.5
			C6.1-17.3,5.6-18,4.4-18c-1,0-1.6,0.3-1.7,1.2l-1.3-0.1c0.2-1.5,1.3-2.1,3-2.1c1.8,0,2.9,0.8,2.9,2.5v3.3c0,0.8,0.3,1.3,1.1,1.1
			v0.8C7.1-11,6-11.4,6-12.7z M2.3-13.4c0,0.8,0.5,1.3,1.3,1.3C5.2-12.2,6.1-13.2,6-15C4.3-15,2.3-15.2,2.3-13.4"/>
	</g>
	<g id="ba-link_3_" transform="translate(27.077577, 3.280376)">
		<path id="ba_3_" class="st1" d="M4.7-19c3.5-0.2,2.1,4.6,2.4,7.7H5.8v-4.8c0-1.2-0.3-1.9-1.5-1.9c-2.9,0.1-1.7,4-1.9,6.7H1l0-7.5
			h1.2c0,0.4,0,1,0.1,1.3C2.7-18.4,3.4-18.9,4.7-19"/>
	</g>
	<g id="bb-link_3_" transform="translate(34.649784, 3.320036)">
		<path id="bb_3_" class="st1" d="M7.4-18.8C7-13.9,9-7.2,3.1-8.5c-0.9-0.2-1.5-0.8-1.7-1.7l1.3-0.2c0.6,1.9,4,1.3,3.5-1.1v-1.2
			c-0.4,0.8-1.1,1.4-2.4,1.4c-2.1,0-2.7-1.6-2.7-3.8c0-2.2,0.6-3.8,2.8-3.9c1.1,0,1.9,0.6,2.3,1.4c0-0.4,0-0.9,0.1-1.3H7.4z
			 M4.1-12.2c1.4,0,2-1.3,2-2.9c0-1.7-0.6-3-2-3c-1.5,0-1.8,1.3-1.8,3S2.5-12.2,4.1-12.2"/>
	</g>
	<g id="aV-link_9_" transform="translate(42.539151, 3.320036)">
		<path id="aV_9_" class="st1" d="M4.4-19c2.5,0,3.4,1.7,3.3,4.2H2.4c0,1.6,0.6,2.7,2.1,2.7c1,0,1.7-0.5,1.9-1.2l1.1,0.3
			c-0.4,1.1-1.5,1.8-3.1,1.8c-2.3,0-3.5-1.5-3.4-4C1.1-17.5,2.1-19,4.4-19z M6.5-15.8c0.2-2.4-3-3.1-3.8-1.1
			c-0.1,0.3-0.2,0.7-0.2,1.1H6.5"/>
	</g>
</g>
<g id="U" transform="translate(108.080934, 304.514117)">
	<g id="aU-link_2_" transform="translate(0.634321, 0.980147)">
		<path id="aU_2_" class="st1" d="M7.7-16.5c-0.2-1.9-4.9-2.1-4.9,0.1c0.6,3,6.3,0.6,6.5,4.7c0.1,3.1-4.8,3.5-6.9,2.2
			c-0.7-0.4-1.1-1-1.3-1.8l1.3-0.3c0.2,2.2,5.6,2.5,5.6,0c0-3.1-6.1-0.6-6.4-4.7c-0.2-3.3,5.7-3.3,7.1-1.3c0.2,0.3,0.3,0.6,0.4,1"/>
	</g>
	<g id="aZ-link_4_" transform="translate(10.466296, 0.662874)">
		<path id="aZ_4_" class="st1" d="M1-17.8V-19h1.3v1.2H1z M1-8.6v-7.5h1.3v7.5H1"/>
	</g>
	<g id="ba-link_4_" transform="translate(13.598256, 3.280376)">
		<path id="ba_4_" class="st1" d="M4.7-19c3.5-0.2,2.1,4.6,2.4,7.7H5.8v-4.8c0-1.2-0.3-1.9-1.5-1.9c-2.9,0.1-1.7,4-1.9,6.7H1l0-7.5
			h1.2c0,0.4,0,1,0.1,1.3C2.7-18.4,3.4-18.9,4.7-19"/>
	</g>
	<g id="bb-link_4_" transform="translate(21.170463, 3.320036)">
		<path id="bb_4_" class="st1" d="M7.4-18.8C7-13.9,9-7.2,3.1-8.5c-0.9-0.2-1.5-0.8-1.7-1.7l1.3-0.2c0.6,1.9,4,1.3,3.5-1.1v-1.2
			c-0.4,0.8-1.1,1.4-2.4,1.4c-2.1,0-2.7-1.6-2.7-3.8c0-2.2,0.6-3.8,2.8-3.9c1.1,0,1.9,0.6,2.3,1.4c0-0.4,0-0.9,0.1-1.3H7.4z
			 M4.1-12.2c1.4,0,2-1.3,2-2.9c0-1.7-0.6-3-2-3c-1.5,0-1.8,1.3-1.8,3S2.5-12.2,4.1-12.2"/>
	</g>
	<g id="aQ-link_4_" transform="translate(29.456281, 0.662874)">
		<polyline id="aQ_4_" class="st1" points="1,-8.6 1,-19 2.3,-19 2.3,-8.6 1,-8.6 		"/>
	</g>
	<g id="aV-link_10_" transform="translate(32.191790, 3.320036)">
		<path id="aV_10_" class="st1" d="M4.4-19c2.5,0,3.4,1.7,3.3,4.2H2.4c0,1.6,0.6,2.7,2.1,2.7c1,0,1.7-0.5,1.9-1.2l1.1,0.3
			c-0.4,1.1-1.5,1.8-3.1,1.8c-2.3,0-3.5-1.5-3.4-4C1.1-17.5,2.1-19,4.4-19z M6.5-15.8c0.2-2.4-3-3.1-3.8-1.1
			c-0.1,0.3-0.2,0.7-0.2,1.1H6.5"/>
	</g>
</g>
<g id="V" transform="translate(85.641829, 321.646861)">
	<g id="bK-link" transform="translate(0.079290, 1.178443)">
		<polyline id="bK" class="st1" points="6.4,-9.2 5,-9.2 1,-19 2.4,-19 5.7,-10.4 9,-19 10.4,-19 		"/>
	</g>
	<g id="aZ-link_5_" transform="translate(10.188781, 0.662874)">
		<path id="aZ_5_" class="st1" d="M1-17.8V-19h1.3v1.2H1z M1-8.6v-7.5h1.3v7.5H1"/>
	</g>
	<g id="aV-link_11_" transform="translate(12.924290, 3.320036)">
		<path id="aV_11_" class="st1" d="M4.4-19c2.5,0,3.4,1.7,3.3,4.2H2.4c0,1.6,0.6,2.7,2.1,2.7c1,0,1.7-0.5,1.9-1.2l1.1,0.3
			c-0.4,1.1-1.5,1.8-3.1,1.8c-2.3,0-3.5-1.5-3.4-4C1.1-17.5,2.1-19,4.4-19z M6.5-15.8c0.2-2.4-3-3.1-3.8-1.1
			c-0.1,0.3-0.2,0.7-0.2,1.1H6.5"/>
	</g>
	<g id="bL-link" transform="translate(20.258627, 3.478672)">
		<polyline id="bL" class="st1" points="9.2,-11.5 7.8,-11.5 6.2,-18 4.6,-11.5 3.1,-11.5 1,-19 2.3,-19 3.8,-12.5 5.5,-19 6.9,-19 
			8.5,-12.5 10.2,-19 11.4,-19 		"/>
	</g>
</g>
<line id="Path_20_" class="st2" x1="275.1" y1="219.4" x2="275.1" y2="259.7"/>
<polygon id="Path_21_" class="st3" points="275.5,219.4 274.6,219.4 274.6,218.9 275.5,218.9 "/>
<polygon id="Path_22_" class="st4" points="275.1,273.2 270.8,260.1 279.3,260.1 "/>
<line id="Path_23_" class="st2" x1="280.2" y1="329.5" x2="280.2" y2="438.1"/>
<polygon id="Path_24_" class="st3" points="280.7,329.5 279.8,329.5 279.8,329.1 280.7,329.1 "/>
<polygon id="Path_25_" class="st4" points="280.2,451.6 276,438.5 284.5,438.5 "/>
<line id="Path_26_" class="st2" x1="210.4" y1="301.9" x2="181.2" y2="301.9"/>
<polygon id="Path_27_" class="st3" points="210.8,302.3 210.4,302.3 210.4,301.4 210.8,301.4 "/>
<polygon id="Path_28_" class="st4" points="167.6,301.9 180.7,297.6 180.7,306.1 "/>
<path id="Path_29_" class="st2" d="M101.9,274.2v-71.5c0-6.1,4.9-11,11-11h82.9"/>
<polygon id="Path_30_" class="st3" points="102.4,274.7 101.5,274.7 101.5,274.2 102.4,274.2 "/>
<polygon id="Path_31_" class="st4" points="209.3,191.7 196.3,196 196.3,187.5 "/>
<path id="Path_32_" class="st0" d="M613.7,386.8c0-4.1,3.3-7.3,7.3-7.3h106.6c4.1,0,7.3,3.3,7.3,7.3v39.7c0,4-3.3,7.3-7.3,7.3H621
	c-4.1,0-7.3-3.3-7.3-7.3V386.8z"/>
<g id="W" transform="translate(623.816331, 409.280843)">
	<g id="bM-link" transform="translate(0.039645, 1.178443)">
		<path id="bM" class="st1" d="M9.1-9.2L8-12H3.5L2.4-9.2H1L5-19h1.5l3.9,9.8H9.1z M7.6-13.1L5.7-18c-0.5,1.8-1.2,3.3-1.8,4.9H7.6"
			/>
	</g>
	<g id="bE-link_1_" transform="translate(10.109491, 0.662874)">
		<path id="bE_1_" class="st1" d="M3.8-16.3c1.2,0,1.9,0.5,2.4,1.3l0-4h1.3l0,10.4H6.2C6.2-9,6.2-9.6,6.1-9.9C5.7-9,5-8.5,3.8-8.5
			C1.7-8.5,1-10,1-12.4C1-15,1.9-16.3,3.8-16.3z M4.1-15.4c-1.6,0-1.8,1.3-1.8,3c0,1.6,0.2,2.9,1.8,2.9c1.7,0,2-1.3,2-3
			C6.1-14.2,5.8-15.4,4.1-15.4"/>
	</g>
	<g id="bE-link_2_" transform="translate(18.038503, 0.662874)">
		<path id="bE_2_" class="st1" d="M3.8-16.3c1.2,0,1.9,0.5,2.4,1.3l0-4h1.3l0,10.4H6.2C6.2-9,6.2-9.6,6.1-9.9C5.7-9,5-8.5,3.8-8.5
			C1.7-8.5,1-10,1-12.4C1-15,1.9-16.3,3.8-16.3z M4.1-15.4c-1.6,0-1.8,1.3-1.8,3c0,1.6,0.2,2.9,1.8,2.9c1.7,0,2-1.3,2-3
			C6.1-14.2,5.8-15.4,4.1-15.4"/>
	</g>
</g>
<g id="X" transform="translate(654.224093, 410.459285)">
	<polyline id="bN" class="st1" points="1,-9.2 1,-10.2 3.5,-10.2 3.5,-17.8 1.3,-16.2 1.3,-17.4 3.6,-19 4.8,-19 4.8,-10.2 
		7.2,-10.2 7.2,-9.2 1,-9.2 	"/>
</g>
<g id="Y" transform="translate(665.047195, 410.198668)">
	<g id="bz-link_2_" transform="translate(0.673966, 0.101981)">
		<path id="bz_2_" class="st1" d="M8.7-16.1c-0.4-1.1-1.4-1.8-2.9-1.8c-2.3,0-3.4,1.6-3.4,3.9c0,2.4,1.1,4,3.5,4
			c1.7,0,2.5-1,3.1-2.1l1.1,0.6c-0.7,1.5-2,2.6-4.2,2.6c-3.2,0-4.6-2-4.8-5.1C0.8-18.1,5-20,8.5-18.4c0.8,0.4,1.2,1,1.5,1.8"/>
	</g>
	<g id="aR-link_4_" transform="translate(10.862747, 2.362551)">
		<path id="aR_4_" class="st1" d="M4.4-19c2.5,0,3.4,1.5,3.4,3.9c0,2.5-1.1,3.9-3.4,3.9S1-12.7,1-15C1-17.7,2.1-19,4.4-19z
			 M4.3-12.1c1.7,0,2.1-1.2,2.1-3c0-1.7-0.3-3-2-3s-2.1,1.3-2.1,3S2.7-12.1,4.3-12.1"/>
	</g>
	<g id="bA-link_1_" transform="translate(19.148565, 2.362551)">
		<path id="bA_1_" class="st1" d="M8.4-18c-2.7,0.1-1.5,4.2-1.7,6.7H5.4v-4.8c0-1.2-0.2-2-1.4-1.9c-2.6,0.2-1.5,4.1-1.7,6.7H1l0-7.5
			h1.2c0,0.4,0,1,0.1,1.3c0.4-1.7,3.9-2,4.2,0c0.4-0.8,1.1-1.4,2.3-1.4c3.4-0.1,1.9,4.7,2.2,7.7H9.8v-4.8C9.8-17.2,9.6-18,8.4-18"/>
	</g>
	<g id="bf-link_2_" transform="translate(30.962793, 2.402210)">
		<path id="bf_2_" class="st1" d="M4.6-19c2.2,0,2.8,1.6,2.8,3.9s-0.6,3.9-2.8,4c-1.2,0-1.9-0.5-2.4-1.3l0,4.2H1l0-10.5h1.2l0.1,1.2
			C2.7-18.5,3.4-19,4.6-19z M4.3-12.1c1.6,0,1.8-1.3,1.8-3S5.9-18,4.3-18c-1.7,0-2,1.3-2,3C2.3-13.3,2.7-12.1,4.3-12.1"/>
	</g>
	<g id="aT-link_6_" transform="translate(38.535000, 2.402210)">
		<path id="aT_6_" class="st1" d="M6-12.7c-0.6,0.8-1.2,1.6-2.7,1.6C1.9-11.2,1-12,1-13.4c0-2.5,2.5-2.5,5-2.5
			C6.1-17.3,5.6-18,4.4-18c-1,0-1.6,0.3-1.7,1.2l-1.3-0.1c0.2-1.5,1.3-2.1,3-2.1c1.8,0,2.9,0.8,2.9,2.5v3.3c0,0.8,0.3,1.3,1.1,1.1
			v0.8C7.1-11,6-11.4,6-12.7z M2.3-13.4c0,0.8,0.5,1.3,1.3,1.3C5.2-12.2,6.1-13.2,6-15C4.3-15,2.3-15.2,2.3-13.4"/>
	</g>
	<g id="aW-link_6_" transform="translate(46.860463, 2.402210)">
		<path id="aW_6_" class="st1" d="M4.6-17.8c-3.1-0.6-2.1,3.6-2.3,6.5H1l0-7.5h1.2c0,0.5,0,1.2,0.1,1.5c0.2-1.1,0.9-1.9,2.3-1.6
			V-17.8"/>
	</g>
	<g id="aV-link_12_" transform="translate(51.181775, 2.402210)">
		<path id="aV_12_" class="st1" d="M4.4-19c2.5,0,3.4,1.7,3.3,4.2H2.4c0,1.6,0.6,2.7,2.1,2.7c1,0,1.7-0.5,1.9-1.2l1.1,0.3
			c-0.4,1.1-1.5,1.8-3.1,1.8c-2.3,0-3.5-1.5-3.4-4C1.1-17.5,2.1-19,4.4-19z M6.5-15.8c0.2-2.4-3-3.1-3.8-1.1
			c-0.1,0.3-0.2,0.7-0.2,1.1H6.5"/>
	</g>
</g>
<g id="Z" transform="translate(661.187465, 426.413586)">
	<g id="aZ-link_6_" transform="translate(0.033981, 0.662874)">
		<path id="aZ_6_" class="st1" d="M1-17.8V-19h1.3v1.2H1z M1-8.6v-7.5h1.3v7.5H1"/>
	</g>
	<g id="be-link_1_" transform="translate(2.412685, 1.773330)">
		<path id="be_1_" class="st1" d="M3.1-11.6c-0.1,1,0.7,1.2,1.5,0.9v1c-1.3,0.4-2.8,0.2-2.8-1.5v-5H1v-0.9h1L2.3-19h0.8v1.7h1.4v0.9
			H3.1V-11.6"/>
	</g>
	<g id="aV-link_13_" transform="translate(6.733997, 3.320036)">
		<path id="aV_13_" class="st1" d="M4.4-19c2.5,0,3.4,1.7,3.3,4.2H2.4c0,1.6,0.6,2.7,2.1,2.7c1,0,1.7-0.5,1.9-1.2l1.1,0.3
			c-0.4,1.1-1.5,1.8-3.1,1.8c-2.3,0-3.5-1.5-3.4-4C1.1-17.5,2.1-19,4.4-19z M6.5-15.8c0.2-2.4-3-3.1-3.8-1.1
			c-0.1,0.3-0.2,0.7-0.2,1.1H6.5"/>
	</g>
	<g id="bA-link_2_" transform="translate(15.059460, 3.280376)">
		<path id="bA_2_" class="st1" d="M8.4-18c-2.7,0.1-1.5,4.2-1.7,6.7H5.4v-4.8c0-1.2-0.2-2-1.4-1.9c-2.6,0.2-1.5,4.1-1.7,6.7H1l0-7.5
			h1.2c0,0.4,0,1,0.1,1.3c0.4-1.7,3.9-2,4.2,0c0.4-0.8,1.1-1.4,2.3-1.4c3.4-0.1,1.9,4.7,2.2,7.7H9.8v-4.8C9.8-17.2,9.6-18,8.4-18"/>
	</g>
</g>
<line id="Path_33_" class="st2" x1="570.3" y1="406.7" x2="598.7" y2="406.7"/>
<polygon id="Path_34_" class="st3" points="570.3,407.1 569.8,407.1 569.8,406.2 570.3,406.2 "/>
<polygon id="Path_35_" class="st4" points="612.2,406.7 599.1,410.9 599.1,402.4 "/>
<path id="Path_36_" class="st0" d="M613.7,497c0-4.1,3.3-7.3,7.3-7.3h106.6c4.1,0,7.3,3.3,7.3,7.3v39.7c0,4-3.3,7.3-7.3,7.3H621
	c-4.1,0-7.3-3.3-7.3-7.3V497z"/>
<g id="aa-link" transform="translate(633.277342, 527.986279)">
	<g id="aa">
		<g id="bO-link" transform="translate(0.271852, 1.178443)">
			<polyline id="bO" class="st1" points="1,-9.2 1,-19 8.4,-19 8.4,-17.9 2.3,-17.9 2.3,-14.8 8,-14.8 8,-13.7 2.3,-13.7 2.3,-10.2 
				8.7,-10.2 8.7,-9.2 1,-9.2 			"/>
		</g>
		<g id="bE-link_3_" transform="translate(9.191991, 0.662874)">
			<path id="bE_3_" class="st1" d="M3.8-16.3c1.2,0,1.9,0.5,2.4,1.3l0-4h1.3l0,10.4H6.2C6.2-9,6.2-9.6,6.1-9.9C5.7-9,5-8.5,3.8-8.5
				C1.7-8.5,1-10,1-12.4C1-15,1.9-16.3,3.8-16.3z M4.1-15.4c-1.6,0-1.8,1.3-1.8,3c0,1.6,0.2,2.9,1.8,2.9c1.7,0,2-1.3,2-3
				C6.1-14.2,5.8-15.4,4.1-15.4"/>
		</g>
		<g id="aZ-link_7_" transform="translate(17.477809, 0.662874)">
			<path id="aZ_7_" class="st1" d="M1-17.8V-19h1.3v1.2H1z M1-8.6v-7.5h1.3v7.5H1"/>
		</g>
		<g id="be-link_2_" transform="translate(19.856512, 1.773330)">
			<path id="be_2_" class="st1" d="M3.1-11.6c-0.1,1,0.7,1.2,1.5,0.9v1c-1.3,0.4-2.8,0.2-2.8-1.5v-5H1v-0.9h1L2.3-19h0.8v1.7h1.4
				v0.9H3.1V-11.6"/>
		</g>
	</g>
</g>
<g id="ab-link" transform="translate(660.864641, 528.904105)">
	<g id="ab">
		<g id="bP-link" transform="translate(0.673966, 0.101981)">
			<path id="bP" class="st1" d="M4.7-15.4c1.9,0,2.9,1.2,2.9,3.1c0,2.1-1.1,3.4-3.2,3.4C1.9-8.8,1.2-11,1-13.7
				c-0.2-3.6,2-6.4,5.3-4.8c0.6,0.3,0.9,0.8,1.1,1.5l-1.2,0.2C6-18.3,3.5-18.2,2.9-17c-0.4,0.8-0.6,1.7-0.6,2.9
				C2.7-14.8,3.5-15.4,4.7-15.4z M4.4-9.9c1.3,0,1.9-0.9,1.9-2.3s-0.6-2.2-2-2.2c-1.1,0-2,0.6-1.9,1.9C2.5-11,3-9.9,4.4-9.9"/>
		</g>
		<g id="bQ-link" transform="translate(8.642623, 1.846982)">
			<polyline id="bQ" class="st1" points="5,-15 5,-12 3.9,-12 3.9,-15 1,-15 1,-16 3.9,-16 3.9,-19 5,-19 5,-16 7.9,-16 7.9,-15 
				5,-15 			"/>
		</g>
	</g>
</g>
<g id="ac-link" transform="translate(681.083623, 527.986279)">
	<g id="ac">
		<g id="bR-link" transform="translate(0.198225, 0.623215)">
			<path id="bR" class="st1" d="M4.8-17.9c-1.2-0.4-1.7,0.4-1.5,1.7h1.5v0.9H3.3v6.6H2.1v-6.6H1v-0.9h1.1c-0.3-2.1,0.7-3.3,2.7-2.7
				V-17.9"/>
		</g>
		<g id="aZ-link_8_" transform="translate(4.915988, 0.662874)">
			<path id="aZ_8_" class="st1" d="M1-17.8V-19h1.3v1.2H1z M1-8.6v-7.5h1.3v7.5H1"/>
		</g>
		<g id="aQ-link_5_" transform="translate(8.047948, 0.662874)">
			<polyline id="aQ_5_" class="st1" points="1,-8.6 1,-19 2.3,-19 2.3,-8.6 1,-8.6 			"/>
		</g>
		<g id="be-link_3_" transform="translate(10.426651, 1.773330)">
			<path id="be_3_" class="st1" d="M3.1-11.6c-0.1,1,0.7,1.2,1.5,0.9v1c-1.3,0.4-2.8,0.2-2.8-1.5v-5H1v-0.9h1L2.3-19h0.8v1.7h1.4
				v0.9H3.1V-11.6"/>
		</g>
		<g id="aV-link_14_" transform="translate(14.747963, 3.320036)">
			<path id="aV_14_" class="st1" d="M4.4-19c2.5,0,3.4,1.7,3.3,4.2H2.4c0,1.6,0.6,2.7,2.1,2.7c1,0,1.7-0.5,1.9-1.2l1.1,0.3
				c-0.4,1.1-1.5,1.8-3.1,1.8c-2.3,0-3.5-1.5-3.4-4C1.1-17.5,2.1-19,4.4-19z M6.5-15.8c0.2-2.4-3-3.1-3.8-1.1
				c-0.1,0.3-0.2,0.7-0.2,1.1H6.5"/>
		</g>
		<g id="aW-link_7_" transform="translate(23.073426, 3.320036)">
			<path id="aW_7_" class="st1" d="M4.6-17.8c-3.1-0.6-2.1,3.6-2.3,6.5H1l0-7.5h1.2c0,0.5,0,1.2,0.1,1.5c0.2-1.1,0.9-1.9,2.3-1.6
				V-17.8"/>
		</g>
		<g id="bc-link_3_" transform="translate(27.236157, 3.320036)">
			<path id="bc_3_" class="st1" d="M6-17c-0.1-1.3-3.4-1.5-3.4,0c0.6,2.1,4.6,0.5,4.7,3.6S1.3-10.5,1-13.1l1.1-0.2
				c0.2,1.4,3.8,1.8,3.9,0c-0.4-2.2-4.5-0.6-4.7-3.6c-0.2-2.3,3.3-2.5,4.8-1.7c0.5,0.3,0.8,0.8,1,1.4"/>
		</g>
	</g>
</g>
<line id="Path_37_" class="st2" x1="674.4" y1="434.3" x2="674.4" y2="474.6"/>
<polygon id="Path_38_" class="st3" points="674.8,434.3 673.9,434.3 673.9,433.8 674.8,433.8 "/>
<polygon id="Path_39_" class="st4" points="674.4,488.1 670.1,475 678.6,475 "/>
<path id="Path_40_" class="st2" d="M613.2,516.8h-96.6c-6.1,0-11-4.9-11-11v-56.9"/>
<polygon id="Path_41_" class="st3" points="613.7,517.2 613.2,517.2 613.2,516.3 613.7,516.3 "/>
<polygon id="Path_42_" class="st4" points="505.6,435.3 509.9,448.4 501.4,448.4 "/>
<path id="Path_43_" class="st2" d="M280.7,406.1h18.6c0.1,0,0.3,0.1,0.3,0.3c0,0.1,0.1,0.3,0.2,0.3h126.6"/>
<line id="Path_44_" class="st2" x1="280.7" y1="406.1" x2="280.3" y2="406.1"/>
<polygon id="Path_45_" class="st4" points="439.9,406.7 426.8,410.9 426.8,402.4 "/>
<path id="Path_46_" class="st0" d="M445,302.5c0-4.1,3.3-7.3,7.3-7.3h106.6c4.1,0,7.3,3.3,7.3,7.3v39.7c0,4-3.3,7.3-7.3,7.3H452.3
	c-4.1,0-7.3-3.3-7.3-7.3V302.5z"/>
<g id="ad-link" transform="translate(479.381649, 324.952562)">
	<g id="ad">
		<g id="bB-link_1_" transform="translate(0.271852, 1.099124)">
			<path id="bB_1_" class="st1" d="M1-18.9c4.7-0.3,8.6,0.3,8.4,4.8c-0.1,3.1-1.7,5-4.8,5H1V-18.9z M2.3-10.2
				c3.5,0.3,5.8-0.6,5.8-3.9s-2.4-4-5.8-3.8V-10.2"/>
		</g>
		<g id="aV-link_15_" transform="translate(9.905602, 3.320036)">
			<path id="aV_15_" class="st1" d="M4.4-19c2.5,0,3.4,1.7,3.3,4.2H2.4c0,1.6,0.6,2.7,2.1,2.7c1,0,1.7-0.5,1.9-1.2l1.1,0.3
				c-0.4,1.1-1.5,1.8-3.1,1.8c-2.3,0-3.5-1.5-3.4-4C1.1-17.5,2.1-19,4.4-19z M6.5-15.8c0.2-2.4-3-3.1-3.8-1.1
				c-0.1,0.3-0.2,0.7-0.2,1.1H6.5"/>
		</g>
		<g id="aQ-link_6_" transform="translate(18.231065, 0.662874)">
			<polyline id="aQ_6_" class="st1" points="1,-8.6 1,-19 2.3,-19 2.3,-8.6 1,-8.6 			"/>
		</g>
		<g id="aV-link_16_" transform="translate(20.966574, 3.320036)">
			<path id="aV_16_" class="st1" d="M4.4-19c2.5,0,3.4,1.7,3.3,4.2H2.4c0,1.6,0.6,2.7,2.1,2.7c1,0,1.7-0.5,1.9-1.2l1.1,0.3
				c-0.4,1.1-1.5,1.8-3.1,1.8c-2.3,0-3.5-1.5-3.4-4C1.1-17.5,2.1-19,4.4-19z M6.5-15.8c0.2-2.4-3-3.1-3.8-1.1
				c-0.1,0.3-0.2,0.7-0.2,1.1H6.5"/>
		</g>
		<g id="be-link_4_" transform="translate(28.538781, 1.773330)">
			<path id="be_4_" class="st1" d="M3.1-11.6c-0.1,1,0.7,1.2,1.5,0.9v1c-1.3,0.4-2.8,0.2-2.8-1.5v-5H1v-0.9h1L2.3-19h0.8v1.7h1.4
				v0.9H3.1V-11.6"/>
		</g>
		<g id="aV-link_17_" transform="translate(32.860093, 3.320036)">
			<path id="aV_17_" class="st1" d="M4.4-19c2.5,0,3.4,1.7,3.3,4.2H2.4c0,1.6,0.6,2.7,2.1,2.7c1,0,1.7-0.5,1.9-1.2l1.1,0.3
				c-0.4,1.1-1.5,1.8-3.1,1.8c-2.3,0-3.5-1.5-3.4-4C1.1-17.5,2.1-19,4.4-19z M6.5-15.8c0.2-2.4-3-3.1-3.8-1.1
				c-0.1,0.3-0.2,0.7-0.2,1.1H6.5"/>
		</g>
	</g>
</g>
<g id="ae-link" transform="translate(524.497730, 325.870388)">
	<g id="ae" transform="translate(0.152917, 0.260617)">
		<polyline id="bN_1_" class="st1" points="1,-9.2 1,-10.2 3.5,-10.2 3.5,-17.8 1.3,-16.2 1.3,-17.4 3.6,-19 4.8,-19 4.8,-10.2 
			7.2,-10.2 7.2,-9.2 1,-9.2 		"/>
	</g>
</g>
<g id="af-link" transform="translate(460.286889, 343.003131)">
	<g id="af">
		<g id="bz-link_3_" transform="translate(0.673966, 0.101981)">
			<path id="bz_3_" class="st1" d="M8.7-16.1c-0.4-1.1-1.4-1.8-2.9-1.8c-2.3,0-3.4,1.6-3.4,3.9c0,2.4,1.1,4,3.5,4
				c1.7,0,2.5-1,3.1-2.1l1.1,0.6c-0.7,1.5-2,2.6-4.2,2.6c-3.2,0-4.6-2-4.8-5.1C0.8-18.1,5-20,8.5-18.4c0.8,0.4,1.2,1,1.5,1.8"/>
		</g>
		<g id="aR-link_5_" transform="translate(10.862747, 2.362551)">
			<path id="aR_5_" class="st1" d="M4.4-19c2.5,0,3.4,1.5,3.4,3.9c0,2.5-1.1,3.9-3.4,3.9S1-12.7,1-15C1-17.7,2.1-19,4.4-19z
				 M4.3-12.1c1.7,0,2.1-1.2,2.1-3c0-1.7-0.3-3-2-3s-2.1,1.3-2.1,3S2.7-12.1,4.3-12.1"/>
		</g>
		<g id="bA-link_3_" transform="translate(19.148565, 2.362551)">
			<path id="bA_3_" class="st1" d="M8.4-18c-2.7,0.1-1.5,4.2-1.7,6.7H5.4v-4.8c0-1.2-0.2-2-1.4-1.9c-2.6,0.2-1.5,4.1-1.7,6.7H1
				l0-7.5h1.2c0,0.4,0,1,0.1,1.3c0.4-1.7,3.9-2,4.2,0c0.4-0.8,1.1-1.4,2.3-1.4c3.4-0.1,1.9,4.7,2.2,7.7H9.8v-4.8
				C9.8-17.2,9.6-18,8.4-18"/>
		</g>
		<g id="bf-link_3_" transform="translate(30.962793, 2.402210)">
			<path id="bf_3_" class="st1" d="M4.6-19c2.2,0,2.8,1.6,2.8,3.9s-0.6,3.9-2.8,4c-1.2,0-1.9-0.5-2.4-1.3l0,4.2H1l0-10.5h1.2
				l0.1,1.2C2.7-18.5,3.4-19,4.6-19z M4.3-12.1c1.6,0,1.8-1.3,1.8-3S5.9-18,4.3-18c-1.7,0-2,1.3-2,3C2.3-13.3,2.7-12.1,4.3-12.1"/>
		</g>
		<g id="aT-link_7_" transform="translate(38.535000, 2.402210)">
			<path id="aT_7_" class="st1" d="M6-12.7c-0.6,0.8-1.2,1.6-2.7,1.6C1.9-11.2,1-12,1-13.4c0-2.5,2.5-2.5,5-2.5
				C6.1-17.3,5.6-18,4.4-18c-1,0-1.6,0.3-1.7,1.2l-1.3-0.1c0.2-1.5,1.3-2.1,3-2.1c1.8,0,2.9,0.8,2.9,2.5v3.3c0,0.8,0.3,1.3,1.1,1.1
				v0.8C7.1-11,6-11.4,6-12.7z M2.3-13.4c0,0.8,0.5,1.3,1.3,1.3C5.2-12.2,6.1-13.2,6-15C4.3-15,2.3-15.2,2.3-13.4"/>
		</g>
		<g id="aW-link_8_" transform="translate(46.860463, 2.402210)">
			<path id="aW_8_" class="st1" d="M4.6-17.8c-3.1-0.6-2.1,3.6-2.3,6.5H1l0-7.5h1.2c0,0.5,0,1.2,0.1,1.5c0.2-1.1,0.9-1.9,2.3-1.6
				V-17.8"/>
		</g>
		<g id="aV-link_18_" transform="translate(51.181775, 2.402210)">
			<path id="aV_18_" class="st1" d="M4.4-19c2.5,0,3.4,1.7,3.3,4.2H2.4c0,1.6,0.6,2.7,2.1,2.7c1,0,1.7-0.5,1.9-1.2l1.1,0.3
				c-0.4,1.1-1.5,1.8-3.1,1.8c-2.3,0-3.5-1.5-3.4-4C1.1-17.5,2.1-19,4.4-19z M6.5-15.8c0.2-2.4-3-3.1-3.8-1.1
				c-0.1,0.3-0.2,0.7-0.2,1.1H6.5"/>
		</g>
	</g>
</g>
<g id="Z-link" transform="translate(523.724651, 342.085306)">
	<g id="Z_1_">
		<g id="aZ-link_9_" transform="translate(0.033981, 0.662874)">
			<path id="aZ_9_" class="st1" d="M1-17.8V-19h1.3v1.2H1z M1-8.6v-7.5h1.3v7.5H1"/>
		</g>
		<g id="be-link_5_" transform="translate(2.412685, 1.773330)">
			<path id="be_5_" class="st1" d="M3.1-11.6c-0.1,1,0.7,1.2,1.5,0.9v1c-1.3,0.4-2.8,0.2-2.8-1.5v-5H1v-0.9h1L2.3-19h0.8v1.7h1.4
				v0.9H3.1V-11.6"/>
		</g>
		<g id="aV-link_19_" transform="translate(6.733997, 3.320036)">
			<path id="aV_19_" class="st1" d="M4.4-19c2.5,0,3.4,1.7,3.3,4.2H2.4c0,1.6,0.6,2.7,2.1,2.7c1,0,1.7-0.5,1.9-1.2l1.1,0.3
				c-0.4,1.1-1.5,1.8-3.1,1.8c-2.3,0-3.5-1.5-3.4-4C1.1-17.5,2.1-19,4.4-19z M6.5-15.8c0.2-2.4-3-3.1-3.8-1.1
				c-0.1,0.3-0.2,0.7-0.2,1.1H6.5"/>
		</g>
		<g id="bA-link_4_" transform="translate(15.059460, 3.280376)">
			<path id="bA_4_" class="st1" d="M8.4-18c-2.7,0.1-1.5,4.2-1.7,6.7H5.4v-4.8c0-1.2-0.2-2-1.4-1.9c-2.6,0.2-1.5,4.1-1.7,6.7H1
				l0-7.5h1.2c0,0.4,0,1,0.1,1.3c0.4-1.7,3.9-2,4.2,0c0.4-0.8,1.1-1.4,2.3-1.4c3.4-0.1,1.9,4.7,2.2,7.7H9.8v-4.8
				C9.8-17.2,9.6-18,8.4-18"/>
		</g>
	</g>
</g>
<line id="Path_47_" class="st2" x1="505.6" y1="379" x2="505.6" y2="364.5"/>
<polygon id="Path_48_" class="st3" points="506.1,379.5 505.2,379.5 505.2,379 506.1,379 "/>
<polygon id="Path_49_" class="st4" points="505.6,351 509.9,364.1 501.4,364.1 "/>
<line id="Path_50_" class="st2" x1="532" y1="350" x2="532" y2="364.4"/>
<polygon id="Path_51_" class="st3" points="532.5,350 531.6,350 531.6,349.5 532.5,349.5 "/>
<polygon id="Path_52_" class="st4" points="532,378 527.8,364.9 536.3,364.9 "/>
<path id="Path_53_" class="st0" d="M613.7,302.5c0-4.1,3.3-7.3,7.3-7.3h106.6c4.1,0,7.3,3.3,7.3,7.3v39.7c0,4-3.3,7.3-7.3,7.3H621
	c-4.1,0-7.3-3.3-7.3-7.3V302.5z"/>
<g id="ad-link_1_" transform="translate(644.179734, 333.518934)">
	<g id="ad_1_">
		<g id="bB-link_2_" transform="translate(0.271852, 1.099124)">
			<path id="bB_2_" class="st1" d="M1-18.9c4.7-0.3,8.6,0.3,8.4,4.8c-0.1,3.1-1.7,5-4.8,5H1V-18.9z M2.3-10.2
				c3.5,0.3,5.8-0.6,5.8-3.9s-2.4-4-5.8-3.8V-10.2"/>
		</g>
		<g id="aV-link_20_" transform="translate(9.905602, 3.320036)">
			<path id="aV_20_" class="st1" d="M4.4-19c2.5,0,3.4,1.7,3.3,4.2H2.4c0,1.6,0.6,2.7,2.1,2.7c1,0,1.7-0.5,1.9-1.2l1.1,0.3
				c-0.4,1.1-1.5,1.8-3.1,1.8c-2.3,0-3.5-1.5-3.4-4C1.1-17.5,2.1-19,4.4-19z M6.5-15.8c0.2-2.4-3-3.1-3.8-1.1
				c-0.1,0.3-0.2,0.7-0.2,1.1H6.5"/>
		</g>
		<g id="aQ-link_7_" transform="translate(18.231065, 0.662874)">
			<polyline id="aQ_7_" class="st1" points="1,-8.6 1,-19 2.3,-19 2.3,-8.6 1,-8.6 			"/>
		</g>
		<g id="aV-link_21_" transform="translate(20.966574, 3.320036)">
			<path id="aV_21_" class="st1" d="M4.4-19c2.5,0,3.4,1.7,3.3,4.2H2.4c0,1.6,0.6,2.7,2.1,2.7c1,0,1.7-0.5,1.9-1.2l1.1,0.3
				c-0.4,1.1-1.5,1.8-3.1,1.8c-2.3,0-3.5-1.5-3.4-4C1.1-17.5,2.1-19,4.4-19z M6.5-15.8c0.2-2.4-3-3.1-3.8-1.1
				c-0.1,0.3-0.2,0.7-0.2,1.1H6.5"/>
		</g>
		<g id="be-link_6_" transform="translate(28.538781, 1.773330)">
			<path id="be_6_" class="st1" d="M3.1-11.6c-0.1,1,0.7,1.2,1.5,0.9v1c-1.3,0.4-2.8,0.2-2.8-1.5v-5H1v-0.9h1L2.3-19h0.8v1.7h1.4
				v0.9H3.1V-11.6"/>
		</g>
		<g id="aV-link_22_" transform="translate(32.860093, 3.320036)">
			<path id="aV_22_" class="st1" d="M4.4-19c2.5,0,3.4,1.7,3.3,4.2H2.4c0,1.6,0.6,2.7,2.1,2.7c1,0,1.7-0.5,1.9-1.2l1.1,0.3
				c-0.4,1.1-1.5,1.8-3.1,1.8c-2.3,0-3.5-1.5-3.4-4C1.1-17.5,2.1-19,4.4-19z M6.5-15.8c0.2-2.4-3-3.1-3.8-1.1
				c-0.1,0.3-0.2,0.7-0.2,1.1H6.5"/>
		</g>
	</g>
</g>
<g id="ag-link" transform="translate(688.378314, 333.518934)">
	<g id="ag">
		<g id="bM-link_1_" transform="translate(0.039645, 1.178443)">
			<path id="bM_1_" class="st1" d="M9.1-9.2L8-12H3.5L2.4-9.2H1L5-19h1.5l3.9,9.8H9.1z M7.6-13.1L5.7-18c-0.5,1.8-1.2,3.3-1.8,4.9
				H7.6"/>
		</g>
		<g id="aQ-link_8_" transform="translate(10.466296, 0.662874)">
			<polyline id="aQ_8_" class="st1" points="1,-8.6 1,-19 2.3,-19 2.3,-8.6 1,-8.6 			"/>
		</g>
		<g id="aQ-link_9_" transform="translate(13.598256, 0.662874)">
			<polyline id="aQ_9_" class="st1" points="1,-8.6 1,-19 2.3,-19 2.3,-8.6 1,-8.6 			"/>
		</g>
	</g>
</g>
<line id="Path_54_" class="st2" x1="566.7" y1="322.3" x2="598.7" y2="322.3"/>
<polygon id="Path_55_" class="st3" points="566.7,322.8 566.3,322.8 566.3,321.9 566.7,321.9 "/>
<polygon id="Path_56_" class="st4" points="612.2,322.3 599.1,326.6 599.1,318.1 "/>
<path id="Path_57_" class="st0" d="M613.7,218.2c0-4.1,3.3-7.3,7.3-7.3h106.6c4.1,0,7.3,3.3,7.3,7.3v39.7c0,4.1-3.3,7.3-7.3,7.3H621
	c-4.1,0-7.3-3.3-7.3-7.3V218.2z"/>
<g id="ah-link" transform="translate(629.907512, 241.542107)">
	<g id="ah">
		<g id="bS-link" transform="translate(0.271852, 0.260617)">
			<polyline id="bS" class="st1" points="7.3,-9.2 2.1,-17.5 2.1,-9.2 1,-9.2 1,-19 2.5,-19 7.8,-10.6 7.7,-19 9,-19 9,-9.2 
				7.3,-9.2 			"/>
		</g>
		<g id="aR-link_6_" transform="translate(9.945247, 2.362551)">
			<path id="aR_6_" class="st1" d="M4.4-19c2.5,0,3.4,1.5,3.4,3.9c0,2.5-1.1,3.9-3.4,3.9S1-12.7,1-15C1-17.7,2.1-19,4.4-19z
				 M4.3-12.1c1.7,0,2.1-1.2,2.1-3c0-1.7-0.3-3-2-3s-2.1,1.3-2.1,3S2.7-12.1,4.3-12.1"/>
		</g>
	</g>
</g>
<g id="ai-link" transform="translate(651.151601, 240.624282)">
	<g id="ai">
		<g id="bz-link_4_" transform="translate(0.673966, 1.019806)">
			<path id="bz_4_" class="st1" d="M8.7-16.1c-0.4-1.1-1.4-1.8-2.9-1.8c-2.3,0-3.4,1.6-3.4,3.9c0,2.4,1.1,4,3.5,4
				c1.7,0,2.5-1,3.1-2.1l1.1,0.6c-0.7,1.5-2,2.6-4.2,2.6c-3.2,0-4.6-2-4.8-5.1C0.8-18.1,5-20,8.5-18.4c0.8,0.4,1.2,1,1.5,1.8"/>
		</g>
		<g id="aQ-link_10_" transform="translate(11.219552, 0.662874)">
			<polyline id="aQ_10_" class="st1" points="1,-8.6 1,-19 2.3,-19 2.3,-8.6 1,-8.6 			"/>
		</g>
		<g id="aV-link_23_" transform="translate(13.955062, 3.320036)">
			<path id="aV_23_" class="st1" d="M4.4-19c2.5,0,3.4,1.7,3.3,4.2H2.4c0,1.6,0.6,2.7,2.1,2.7c1,0,1.7-0.5,1.9-1.2l1.1,0.3
				c-0.4,1.1-1.5,1.8-3.1,1.8c-2.3,0-3.5-1.5-3.4-4C1.1-17.5,2.1-19,4.4-19z M6.5-15.8c0.2-2.4-3-3.1-3.8-1.1
				c-0.1,0.3-0.2,0.7-0.2,1.1H6.5"/>
		</g>
		<g id="aT-link_8_" transform="translate(21.884074, 3.320036)">
			<path id="aT_8_" class="st1" d="M6-12.7c-0.6,0.8-1.2,1.6-2.7,1.6C1.9-11.2,1-12,1-13.4c0-2.5,2.5-2.5,5-2.5
				C6.1-17.3,5.6-18,4.4-18c-1,0-1.6,0.3-1.7,1.2l-1.3-0.1c0.2-1.5,1.3-2.1,3-2.1c1.8,0,2.9,0.8,2.9,2.5v3.3c0,0.8,0.3,1.3,1.1,1.1
				v0.8C7.1-11,6-11.4,6-12.7z M2.3-13.4c0,0.8,0.5,1.3,1.3,1.3C5.2-12.2,6.1-13.2,6-15C4.3-15,2.3-15.2,2.3-13.4"/>
		</g>
		<g id="aW-link_9_" transform="translate(30.209537, 3.320036)">
			<path id="aW_9_" class="st1" d="M4.6-17.8c-3.1-0.6-2.1,3.6-2.3,6.5H1l0-7.5h1.2c0,0.5,0,1.2,0.1,1.5c0.2-1.1,0.9-1.9,2.3-1.6
				V-17.8"/>
		</g>
	</g>
</g>
<g id="aj-link" transform="translate(690.009425, 240.624282)">
	<g id="aj">
		<g id="bD-link_1_" transform="translate(0.271852, 1.138784)">
			<path id="bD_1_" class="st1" d="M1-19c3.4,0,7.6-0.6,7.6,3c0,3.1-3.1,3.2-6.3,3v3.8H1V-19z M2.3-14c2.3,0,4.9,0.4,4.9-2
				c0-2.3-2.7-1.9-4.9-1.9V-14"/>
		</g>
		<g id="aT-link_9_" transform="translate(9.152346, 3.320036)">
			<path id="aT_9_" class="st1" d="M6-12.7c-0.6,0.8-1.2,1.6-2.7,1.6C1.9-11.2,1-12,1-13.4c0-2.5,2.5-2.5,5-2.5
				C6.1-17.3,5.6-18,4.4-18c-1,0-1.6,0.3-1.7,1.2l-1.3-0.1c0.2-1.5,1.3-2.1,3-2.1c1.8,0,2.9,0.8,2.9,2.5v3.3c0,0.8,0.3,1.3,1.1,1.1
				v0.8C7.1-11,6-11.4,6-12.7z M2.3-13.4c0,0.8,0.5,1.3,1.3,1.3C5.2-12.2,6.1-13.2,6-15C4.3-15,2.3-15.2,2.3-13.4"/>
		</g>
		<g id="be-link_7_" transform="translate(16.724552, 1.773330)">
			<path id="be_7_" class="st1" d="M3.1-11.6c-0.1,1,0.7,1.2,1.5,0.9v1c-1.3,0.4-2.8,0.2-2.8-1.5v-5H1v-0.9h1L2.3-19h0.8v1.7h1.4
				v0.9H3.1V-11.6"/>
		</g>
		<g id="aY-link_2_" transform="translate(21.481960, 0.662874)">
			<path id="aY_2_" class="st1" d="M4.2-15.4c-2.9,0-1.7,4-1.9,6.7H1V-19h1.3l0,4.1c0.5-0.8,1.1-1.4,2.4-1.4c3.5,0,2.1,4.6,2.4,7.7
				H5.8v-4.8C5.8-14.7,5.4-15.4,4.2-15.4"/>
		</g>
	</g>
</g>
<g id="ak-link" transform="translate(648.540691, 257.757025)">
	<g id="ak">
		<g id="bT-link" transform="translate(0.271852, 1.178443)">
			<polyline id="bT" class="st1" points="2.3,-17.9 2.3,-14.2 7.8,-14.2 7.8,-13.1 2.3,-13.1 2.3,-9.2 1,-9.2 1,-19 7.9,-19 
				7.9,-17.9 2.3,-17.9 			"/>
		</g>
		<g id="aR-link_7_" transform="translate(8.359444, 3.280376)">
			<path id="aR_7_" class="st1" d="M4.4-19c2.5,0,3.4,1.5,3.4,3.9c0,2.5-1.1,3.9-3.4,3.9S1-12.7,1-15C1-17.7,2.1-19,4.4-19z
				 M4.3-12.1c1.7,0,2.1-1.2,2.1-3c0-1.7-0.3-3-2-3s-2.1,1.3-2.1,3S2.7-12.1,4.3-12.1"/>
		</g>
		<g id="aW-link_10_" transform="translate(16.645262, 3.320036)">
			<path id="aW_10_" class="st1" d="M4.6-17.8c-3.1-0.6-2.1,3.6-2.3,6.5H1l0-7.5h1.2c0,0.5,0,1.2,0.1,1.5c0.2-1.1,0.9-1.9,2.3-1.6
				V-17.8"/>
		</g>
		<g id="bL-link_1_" transform="translate(20.371898, 3.478672)">
			<polyline id="bL_1_" class="st1" points="9.2,-11.5 7.8,-11.5 6.2,-18 4.6,-11.5 3.1,-11.5 1,-19 2.3,-19 3.8,-12.5 5.5,-19 
				6.9,-19 8.5,-12.5 10.2,-19 11.4,-19 			"/>
		</g>
		<g id="aT-link_10_" transform="translate(31.234645, 3.320036)">
			<path id="aT_10_" class="st1" d="M6-12.7c-0.6,0.8-1.2,1.6-2.7,1.6C1.9-11.2,1-12,1-13.4c0-2.5,2.5-2.5,5-2.5
				C6.1-17.3,5.6-18,4.4-18c-1,0-1.6,0.3-1.7,1.2l-1.3-0.1c0.2-1.5,1.3-2.1,3-2.1c1.8,0,2.9,0.8,2.9,2.5v3.3c0,0.8,0.3,1.3,1.1,1.1
				v0.8C7.1-11,6-11.4,6-12.7z M2.3-13.4c0,0.8,0.5,1.3,1.3,1.3C5.2-12.2,6.1-13.2,6-15C4.3-15,2.3-15.2,2.3-13.4"/>
		</g>
		<g id="aW-link_11_" transform="translate(39.560108, 3.320036)">
			<path id="aW_11_" class="st1" d="M4.6-17.8c-3.1-0.6-2.1,3.6-2.3,6.5H1l0-7.5h1.2c0,0.5,0,1.2,0.1,1.5c0.2-1.1,0.9-1.9,2.3-1.6
				V-17.8"/>
		</g>
		<g id="bE-link_4_" transform="translate(43.921065, 0.662874)">
			<path id="bE_4_" class="st1" d="M3.8-16.3c1.2,0,1.9,0.5,2.4,1.3l0-4h1.3l0,10.4H6.2C6.2-9,6.2-9.6,6.1-9.9C5.7-9,5-8.5,3.8-8.5
				C1.7-8.5,1-10,1-12.4C1-15,1.9-16.3,3.8-16.3z M4.1-15.4c-1.6,0-1.8,1.3-1.8,3c0,1.6,0.2,2.9,1.8,2.9c1.7,0,2-1.3,2-3
				C6.1-14.2,5.8-15.4,4.1-15.4"/>
		</g>
	</g>
</g>
<line id="Path_58_" class="st2" x1="674.4" y1="294.7" x2="674.4" y2="280.2"/>
<polygon id="Path_59_" class="st3" points="674.8,295.1 673.9,295.1 673.9,294.7 674.8,294.7 "/>
<polygon id="Path_60_" class="st4" points="674.4,266.7 678.6,279.7 670.1,279.7 "/>
<path id="Path_61_" class="st0" d="M37.7,659.5c0-4.1,3.3-7.3,7.3-7.3h113.8c4.1,0,7.3,3.3,7.3,7.3v39.7c0,4.1-3.3,7.3-7.3,7.3H45
	c-4.1,0-7.3-3.3-7.3-7.3V659.5z"/>
<g id="T-link" transform="translate(47.860085, 681.942335)">
	<g id="T_1_">
		<g id="bz-link_5_" transform="translate(0.673966, 1.019806)">
			<path id="bz_5_" class="st1" d="M8.7-16.1c-0.4-1.1-1.4-1.8-2.9-1.8c-2.3,0-3.4,1.6-3.4,3.9c0,2.4,1.1,4,3.5,4
				c1.7,0,2.5-1,3.1-2.1l1.1,0.6c-0.7,1.5-2,2.6-4.2,2.6c-3.2,0-4.6-2-4.8-5.1C0.8-18.1,5-20,8.5-18.4c0.8,0.4,1.2,1,1.5,1.8"/>
		</g>
		<g id="aY-link_3_" transform="translate(11.259198, 0.662874)">
			<path id="aY_3_" class="st1" d="M4.2-15.4c-2.9,0-1.7,4-1.9,6.7H1V-19h1.3l0,4.1c0.5-0.8,1.1-1.4,2.4-1.4c3.5,0,2.1,4.6,2.4,7.7
				H5.8v-4.8C5.8-14.7,5.4-15.4,4.2-15.4"/>
		</g>
		<g id="aT-link_11_" transform="translate(18.752114, 3.320036)">
			<path id="aT_11_" class="st1" d="M6-12.7c-0.6,0.8-1.2,1.6-2.7,1.6C1.9-11.2,1-12,1-13.4c0-2.5,2.5-2.5,5-2.5
				C6.1-17.3,5.6-18,4.4-18c-1,0-1.6,0.3-1.7,1.2l-1.3-0.1c0.2-1.5,1.3-2.1,3-2.1c1.8,0,2.9,0.8,2.9,2.5v3.3c0,0.8,0.3,1.3,1.1,1.1
				v0.8C7.1-11,6-11.4,6-12.7z M2.3-13.4c0,0.8,0.5,1.3,1.3,1.3C5.2-12.2,6.1-13.2,6-15C4.3-15,2.3-15.2,2.3-13.4"/>
		</g>
		<g id="ba-link_5_" transform="translate(27.077577, 3.280376)">
			<path id="ba_5_" class="st1" d="M4.7-19c3.5-0.2,2.1,4.6,2.4,7.7H5.8v-4.8c0-1.2-0.3-1.9-1.5-1.9c-2.9,0.1-1.7,4-1.9,6.7H1l0-7.5
				h1.2c0,0.4,0,1,0.1,1.3C2.7-18.4,3.4-18.9,4.7-19"/>
		</g>
		<g id="bb-link_5_" transform="translate(34.649784, 3.320036)">
			<path id="bb_5_" class="st1" d="M7.4-18.8C7-13.9,9-7.2,3.1-8.5c-0.9-0.2-1.5-0.8-1.7-1.7l1.3-0.2c0.6,1.9,4,1.3,3.5-1.1v-1.2
				c-0.4,0.8-1.1,1.4-2.4,1.4c-2.1,0-2.7-1.6-2.7-3.8c0-2.2,0.6-3.8,2.8-3.9c1.1,0,1.9,0.6,2.3,1.4c0-0.4,0-0.9,0.1-1.3H7.4z
				 M4.1-12.2c1.4,0,2-1.3,2-2.9c0-1.7-0.6-3-2-3c-1.5,0-1.8,1.3-1.8,3S2.5-12.2,4.1-12.2"/>
		</g>
		<g id="aV-link_24_" transform="translate(42.539151, 3.320036)">
			<path id="aV_24_" class="st1" d="M4.4-19c2.5,0,3.4,1.7,3.3,4.2H2.4c0,1.6,0.6,2.7,2.1,2.7c1,0,1.7-0.5,1.9-1.2l1.1,0.3
				c-0.4,1.1-1.5,1.8-3.1,1.8c-2.3,0-3.5-1.5-3.4-4C1.1-17.5,2.1-19,4.4-19z M6.5-15.8c0.2-2.4-3-3.1-3.8-1.1
				c-0.1,0.3-0.2,0.7-0.2,1.1H6.5"/>
		</g>
	</g>
</g>
<g id="al-link" transform="translate(102.655224, 681.942335)">
	<g id="al">
		<g id="bx-link_1_" transform="translate(0.271852, 1.138784)">
			<path id="bx_1_" class="st1" d="M9-16.1c0,1.6-0.9,2.5-2.4,2.8l2.8,4.2H7.9l-2.6-4.1H2.3v4.1H1V-19C4.5-18.8,9.1-19.8,9-16.1z
				 M2.3-14.2c2.4-0.1,5.4,0.5,5.4-1.9c0-2.4-3.2-1.7-5.4-1.8V-14.2"/>
		</g>
		<g id="aT-link_12_" transform="translate(9.905602, 3.320036)">
			<path id="aT_12_" class="st1" d="M6-12.7c-0.6,0.8-1.2,1.6-2.7,1.6C1.9-11.2,1-12,1-13.4c0-2.5,2.5-2.5,5-2.5
				C6.1-17.3,5.6-18,4.4-18c-1,0-1.6,0.3-1.7,1.2l-1.3-0.1c0.2-1.5,1.3-2.1,3-2.1c1.8,0,2.9,0.8,2.9,2.5v3.3c0,0.8,0.3,1.3,1.1,1.1
				v0.8C7.1-11,6-11.4,6-12.7z M2.3-13.4c0,0.8,0.5,1.3,1.3,1.3C5.2-12.2,6.1-13.2,6-15C4.3-15,2.3-15.2,2.3-13.4"/>
		</g>
		<g id="ba-link_6_" transform="translate(18.231065, 3.280376)">
			<path id="ba_6_" class="st1" d="M4.7-19c3.5-0.2,2.1,4.6,2.4,7.7H5.8v-4.8c0-1.2-0.3-1.9-1.5-1.9c-2.9,0.1-1.7,4-1.9,6.7H1l0-7.5
				h1.2c0,0.4,0,1,0.1,1.3C2.7-18.4,3.4-18.9,4.7-19"/>
		</g>
		<g id="by-link_1_" transform="translate(26.160077, 0.662874)">
			<polyline id="by_1_" class="st1" points="5.7,-8.6 3.2,-12.1 2.3,-11.3 2.3,-8.6 1,-8.6 1,-19 2.3,-19 2.3,-12.5 5.6,-16.2 
				7,-16.2 4,-12.9 7.2,-8.6 5.7,-8.6 			"/>
		</g>
		<g id="aZ-link_10_" transform="translate(33.296188, 0.662874)">
			<path id="aZ_10_" class="st1" d="M1-17.8V-19h1.3v1.2H1z M1-8.6v-7.5h1.3v7.5H1"/>
		</g>
		<g id="ba-link_7_" transform="translate(36.428148, 3.280376)">
			<path id="ba_7_" class="st1" d="M4.7-19c3.5-0.2,2.1,4.6,2.4,7.7H5.8v-4.8c0-1.2-0.3-1.9-1.5-1.9c-2.9,0.1-1.7,4-1.9,6.7H1l0-7.5
				h1.2c0,0.4,0,1,0.1,1.3C2.7-18.4,3.4-18.9,4.7-19"/>
		</g>
		<g id="bb-link_6_" transform="translate(44.000355, 3.320036)">
			<path id="bb_6_" class="st1" d="M7.4-18.8C7-13.9,9-7.2,3.1-8.5c-0.9-0.2-1.5-0.8-1.7-1.7l1.3-0.2c0.6,1.9,4,1.3,3.5-1.1v-1.2
				c-0.4,0.8-1.1,1.4-2.4,1.4c-2.1,0-2.7-1.6-2.7-3.8c0-2.2,0.6-3.8,2.8-3.9c1.1,0,1.9,0.6,2.3,1.4c0-0.4,0-0.9,0.1-1.3H7.4z
				 M4.1-12.2c1.4,0,2-1.3,2-2.9c0-1.7-0.6-3-2-3c-1.5,0-1.8,1.3-1.8,3S2.5-12.2,4.1-12.2"/>
		</g>
	</g>
</g>
<g id="am-link" transform="translate(85.483248, 699.992903)">
	<g id="am">
		<g id="bU-link" transform="translate(0.317160, 0.260617)">
			<polyline id="bU" class="st1" points="5.7,-17.9 5.7,-9.2 4.4,-9.2 4.4,-17.9 1,-17.9 1,-19 9.1,-19 9.1,-17.9 5.7,-17.9 			"/>
		</g>
		<g id="bV-link" transform="translate(7.929012, 2.560847)">
			<path id="bV" class="st1" d="M8.1-19l-3.4,8.8c-0.6,1.1-1.5,2-3.2,1.7v-1c1.5,0.2,2.1-0.8,2.5-2L1-19h1.3l2.3,6.2L6.7-19H8.1"/>
		</g>
		<g id="bf-link_4_" transform="translate(15.937315, 2.402210)">
			<path id="bf_4_" class="st1" d="M4.6-19c2.2,0,2.8,1.6,2.8,3.9s-0.6,3.9-2.8,4c-1.2,0-1.9-0.5-2.4-1.3l0,4.2H1l0-10.5h1.2
				l0.1,1.2C2.7-18.5,3.4-19,4.6-19z M4.3-12.1c1.6,0,1.8-1.3,1.8-3S5.9-18,4.3-18c-1.7,0-2,1.3-2,3C2.3-13.3,2.7-12.1,4.3-12.1"/>
		</g>
		<g id="aV-link_25_" transform="translate(23.509522, 2.402210)">
			<path id="aV_25_" class="st1" d="M4.4-19c2.5,0,3.4,1.7,3.3,4.2H2.4c0,1.6,0.6,2.7,2.1,2.7c1,0,1.7-0.5,1.9-1.2l1.1,0.3
				c-0.4,1.1-1.5,1.8-3.1,1.8c-2.3,0-3.5-1.5-3.4-4C1.1-17.5,2.1-19,4.4-19z M6.5-15.8c0.2-2.4-3-3.1-3.8-1.1
				c-0.1,0.3-0.2,0.7-0.2,1.1H6.5"/>
		</g>
	</g>
</g>
<line id="Path_62_" class="st2" x1="215.6" y1="679.3" x2="181.2" y2="679.3"/>
<polygon id="Path_63_" class="st3" points="216,679.8 215.5,679.8 215.5,678.9 216,678.9 "/>
<polygon id="Path_64_" class="st4" points="167.6,679.3 180.7,675.1 180.7,683.6 "/>
<path id="Path_65_" class="st2" d="M37.2,679.3H12c-6.1,0-11-4.9-11-11V202.7c0-6.1,4.9-11,11-11h183.8"/>
<polygon id="Path_66_" class="st3" points="37.7,679.8 37.2,679.8 37.2,678.9 37.7,678.9 "/>
<polygon id="Path_67_" class="st4" points="209.3,191.7 196.3,196 196.3,187.5 "/>
<polygon id="Path_68_" class="st3" points="250.9,164.6 250,164.6 250,164.1 250.9,164.1 "/>
<text transform="matrix(1 0 0 1 236.7224 28.7816)" class="st5 st6 st7">Original User Flow</text>
</svg>
