<svg id="Layer_1" data-name="Layer 1" xmlns="http://www.w3.org/2000/svg" viewBox="0 0 1520.63 707"><defs><style>.cls-1{fill:#d7e4f3;stroke:#000;stroke-opacity:0;stroke-width:2px;}.cls-2{fill:#333;}.cls-10,.cls-3{fill:none;}.cls-3,.cls-5{stroke:#666;}.cls-4,.cls-5{fill:#666;}.cls-6,.cls-7{isolation:isolate;}.cls-7{font-size:30px;fill:#5e5e5e;font-family:Quicksand-Bold, Quicksand;font-weight:700;}.cls-8{letter-spacing:-0.01em;}.cls-9{letter-spacing:0em;}.cls-10{stroke:#ff1269;stroke-linecap:round;stroke-miterlimit:10;}</style></defs><path id="Path" class="cls-1" d="M210.83,77.44a7.35,7.35,0,0,1,7.34-7.35H331.94a7.37,7.37,0,0,1,7.34,7.35v40.38a7.34,7.34,0,0,1-7.34,7.34H218.17a7.33,7.33,0,0,1-7.34-7.34Z"/><g id="i"><g id="aL-link"><polyline id="aL" class="cls-2" points="261.15 100.94 261.15 96.07 256.1 96.07 256.1 100.94 253.72 100.94 253.72 89.55 256.1 89.55 256.1 94.1 261.15 94.1 261.15 89.55 263.44 89.55 263.44 100.94 261.15 100.94"/></g><g id="aM-link"><path id="aM" class="cls-2" d="M269.55,92c2.93,0,4.4,1.65,4.4,4.55s-1.61,4.54-4.45,4.54-4.36-1.65-4.36-4.54S266.7,92,269.55,92Zm-.05,7.53c1.61,0,2.06-1.29,2.06-3,0-1.84-.45-3-2-3s-2.06,1.2-2.06,3,.46,3,2,3"/></g><g id="aN-link"><path id="aN" class="cls-2" d="M284.64,93.73c-2.43.41-1.29,4.59-1.56,7.21h-2.25V96c.05-1.23-.23-2.24-1.33-2.29-2.43.46-1.24,4.59-1.51,7.21h-2.3l0-8.72h2.15a10.48,10.48,0,0,0,.14,1.74c.46-2.43,4.63-2.57,4.95,0,.6-1,1.11-2,2.71-1.93,3.76,0,2.34,5.33,2.62,8.91H286V96c-.05-1.14-.23-2.2-1.33-2.29"/></g><g id="aO-link"><path id="aO" class="cls-2" d="M297.71,98.73a3.68,3.68,0,0,1-3.76,2.39c-2.75-.09-4.08-1.7-4.08-4.59S291.24,92,294,92s3.8,2.07,3.85,5h-5.6c0,1.42.37,2.52,1.79,2.57a1.41,1.41,0,0,0,1.56-1Zm-2.06-3.16c.23-2.11-2.62-2.9-3.21-1a3.09,3.09,0,0,0-.19,1h3.4"/></g></g><line id="Path-2" data-name="Path" class="cls-3" x1="275.06" y1="125.62" x2="275.06" y2="149.53"/><polygon id="Path-3" data-name="Path" class="cls-4" points="275.52 125.65 274.6 125.65 274.6 125.16 275.52 125.16 275.52 125.65"/><polygon id="Path-4" data-name="Path" class="cls-5" points="275.06 163.08 270.8 149.99 279.31 149.99 275.06 163.08"/><path id="Path-5" data-name="Path" class="cls-1" d="M210.83,171.91a7.33,7.33,0,0,1,7.34-7.34H331.94a7.34,7.34,0,0,1,7.34,7.34v39.67a7.35,7.35,0,0,1-7.34,7.34H218.17a7.34,7.34,0,0,1-7.34-7.34Z"/><g id="j"><g id="aP-link"><path id="aP" class="cls-2" d="M235.58,195.11c-3.25,0-4.79-1.9-5-5.11-.2-4.25,4-6.11,7.65-4.4a3.3,3.3,0,0,1,1.47,1.7l-1.27.36a3.09,3.09,0,0,0-3-1.59c-2.41,0-3.48,1.55-3.48,3.93s1.15,4,3.6,4a4.51,4.51,0,0,0,3.14-1.07v-1.78h-2.94V190h4.16v3.41a5.92,5.92,0,0,1-4.36,1.66"/></g><g id="aQ-link"><polyline id="aQ" class="cls-2" points="241.97 194.96 241.97 184.6 243.24 184.6 243.24 194.96 241.97 194.96"/></g><g id="aR-link"><path id="aR" class="cls-2" d="M248.11,187.26c2.46,0,3.37,1.47,3.37,3.93s-1.07,3.92-3.41,3.92-3.29-1.54-3.33-3.92C244.74,188.57,245.85,187.26,248.11,187.26Zm0,6.9c1.75,0,2.1-1.23,2.1-3s-.31-3-2-3-2.1,1.27-2.1,3,.4,2.93,2,3"/></g><g id="aS-link"><path id="aS" class="cls-2" d="M256.64,187.26c2.1,0,2.73,1.55,2.77,3.89,0,2.62-.91,4-2.77,4a2.28,2.28,0,0,1-2.34-1.34l-.08,1.19H253l0-10.36h1.27v4A2.23,2.23,0,0,1,256.64,187.26Zm-.32,6.9c1.58,0,1.78-1.35,1.78-3s-.2-3-1.78-2.94-2,1.27-2,3,.39,2.89,2,2.89"/></g><g id="aT-link"><path id="aT" class="cls-2" d="M265.59,193.53a2.92,2.92,0,0,1-2.69,1.58,2.11,2.11,0,0,1-2.3-2.26c0-2.53,2.5-2.5,5-2.5.11-1.38-.36-2.14-1.63-2.14-.95,0-1.63.28-1.67,1.23l-1.3-.12c.19-1.46,1.3-2.06,3-2.06s2.85.79,2.85,2.54v3.25c0,.79.28,1.27,1.11,1.07v.8C266.71,195.27,265.52,194.84,265.59,193.53Zm-3.68-.68a1.19,1.19,0,0,0,1.27,1.31c1.62-.12,2.49-1.15,2.38-2.93-1.71.08-3.65-.2-3.65,1.62"/></g><g id="aQ-link-2" data-name="aQ-link"><polyline id="aQ-2" data-name="aQ" class="cls-2" points="268.88 194.96 268.88 184.6 270.15 184.6 270.15 194.96 268.88 194.96"/></g></g><g id="k"><g id="aU-link"><path id="aU" class="cls-2" d="M282.36,187.46c-.19-1.9-4.87-2.14-4.91.08.55,3,6.26.55,6.46,4.72.12,3.09-4.8,3.45-6.94,2.18a2.86,2.86,0,0,1-1.31-1.82l1.31-.28c.2,2.22,5.59,2.5,5.59,0,0-3.1-6.14-.56-6.42-4.68-.2-3.25,5.75-3.33,7.1-1.35a3.71,3.71,0,0,1,.43,1"/></g><g id="aV-link"><path id="aV" class="cls-2" d="M288.51,187.26c2.5,0,3.41,1.67,3.33,4.21h-5.35c0,1.58.55,2.65,2.1,2.69a1.84,1.84,0,0,0,1.94-1.15l1.11.32a3,3,0,0,1-3.05,1.78c-2.3,0-3.49-1.46-3.45-4S286.17,187.26,288.51,187.26Zm2.06,3.21a2,2,0,0,0-3.84-1.11,2.9,2.9,0,0,0-.24,1.11h4.08"/></g><g id="aT-link-2" data-name="aT-link"><path id="aT-2" data-name="aT" class="cls-2" d="M298.06,193.53a2.92,2.92,0,0,1-2.69,1.58,2.11,2.11,0,0,1-2.3-2.26c0-2.53,2.5-2.5,4.95-2.5.12-1.38-.35-2.14-1.62-2.14-.95,0-1.63.28-1.67,1.23l-1.3-.12c.19-1.46,1.3-2.06,3-2.06s2.85.79,2.85,2.54v3.25c0,.79.28,1.27,1.11,1.07v.8C299.17,195.27,298,194.84,298.06,193.53Zm-3.68-.68a1.19,1.19,0,0,0,1.27,1.31c1.62-.12,2.49-1.15,2.37-2.93-1.7.08-3.64-.2-3.64,1.62"/></g><g id="aW-link"><path id="aW" class="cls-2" d="M304.92,188.49c-3.09-.63-2.1,3.61-2.26,6.47h-1.27l0-7.54h1.19a9.56,9.56,0,0,0,.08,1.55c.24-1.07.92-1.95,2.3-1.63v1.15"/></g><g id="aX-link"><path id="aX" class="cls-2" d="M308.93,188.25c-1.59,0-1.91,1.31-1.91,2.9s.36,3,1.91,3a1.57,1.57,0,0,0,1.7-1.5l1.27.07a2.72,2.72,0,0,1-2.93,2.42c-2.34,0-3-1.62-3.25-3.92-.4-3.69,4-5.2,5.82-2.54a3.17,3.17,0,0,1,.28.87l-1.27.12a1.52,1.52,0,0,0-1.62-1.39"/></g><g id="aY-link"><path id="aY" class="cls-2" d="M316.46,188.25c-2.85,0-1.74,4.05-1.94,6.71h-1.27V184.6h1.27l0,4.09a2.51,2.51,0,0,1,2.42-1.43c3.52,0,2.1,4.6,2.37,7.7H318v-4.8c.07-1.27-.32-1.95-1.55-1.91"/></g></g><path id="Path-6" data-name="Path" class="cls-1" d="M210.83,282.05a7.34,7.34,0,0,1,7.34-7.35H342.31a7.34,7.34,0,0,1,7.34,7.35v39.67a7.34,7.34,0,0,1-7.34,7.34H218.17a7.34,7.34,0,0,1-7.34-7.34Z"/><g id="l"><g id="aU-link-2" data-name="aU-link"><path id="aU-2" data-name="aU" class="cls-2" d="M230.88,297.6c-.2-1.9-4.88-2.14-4.92.08.56,3,6.27.55,6.47,4.72.12,3.09-4.8,3.45-6.94,2.18a2.83,2.83,0,0,1-1.31-1.83l1.31-.27c.2,2.22,5.59,2.5,5.59,0,0-3.1-6.15-.56-6.42-4.68-.2-3.25,5.74-3.33,7.09-1.35a3.72,3.72,0,0,1,.44,1"/></g><g id="aZ-link"><path id="aZ" class="cls-2" d="M234,295.93v-1.19h1.27v1.19Zm0,9.16v-7.53h1.27v7.53H234"/></g><g id="ba-link"><path id="ba" class="cls-2" d="M240.83,297.4c3.53-.16,2.1,4.6,2.38,7.69h-1.27V300.3c0-1.23-.32-1.95-1.55-1.91-2.85.08-1.74,4.05-1.94,6.7h-1.27l0-7.53h1.19a6.36,6.36,0,0,0,.08,1.27,2.52,2.52,0,0,1,2.42-1.43"/></g><g id="bb-link"><path id="bb" class="cls-2" d="M251.14,297.56c-.4,5,1.62,11.62-4.36,10.35A2.27,2.27,0,0,1,245,306.2l1.27-.19c.6,1.86,4,1.27,3.53-1.11v-1.19a2.51,2.51,0,0,1-2.42,1.42c-2.14,0-2.69-1.62-2.69-3.8s.63-3.85,2.81-3.89a2.54,2.54,0,0,1,2.34,1.39,12.72,12.72,0,0,1,.08-1.27Zm-3.29,6.66c1.43,0,2-1.27,2-2.89s-.55-3-2-3-1.83,1.35-1.83,3,.24,2.89,1.83,2.89"/></g><g id="aQ-link-3" data-name="aQ-link"><polyline id="aQ-3" data-name="aQ" class="cls-2" points="253 305.09 253 294.74 254.27 294.74 254.27 305.09 253 305.09"/></g><g id="aV-link-2" data-name="aV-link"><path id="aV-2" data-name="aV" class="cls-2" d="M259.15,297.4c2.49,0,3.41,1.67,3.33,4.2h-5.35c0,1.59.55,2.66,2.1,2.7a1.84,1.84,0,0,0,1.94-1.15l1.11.32a3,3,0,0,1-3,1.78c-2.3,0-3.49-1.46-3.45-4S256.81,297.4,259.15,297.4Zm2.06,3.21a2,2,0,0,0-3.85-1.11,2.9,2.9,0,0,0-.23,1.11h4.08"/></g></g><g id="m"><g id="aW-link-2" data-name="aW-link"><path id="aW-2" data-name="aW" class="cls-2" d="M271.6,298.63c-3.1-.63-2.11,3.61-2.26,6.46h-1.27l0-7.53h1.19a9.56,9.56,0,0,0,.08,1.55,1.8,1.8,0,0,1,2.3-1.63v1.15"/></g><g id="aV-link-3" data-name="aV-link"><path id="aV-3" data-name="aV" class="cls-2" d="M275.76,297.4c2.5,0,3.41,1.67,3.33,4.2h-5.35c0,1.59.55,2.66,2.1,2.7a1.84,1.84,0,0,0,1.94-1.15l1.11.32a3,3,0,0,1-3.05,1.78c-2.3,0-3.49-1.46-3.45-4S273.42,297.4,275.76,297.4Zm2.06,3.21A2,2,0,0,0,274,299.5a3.11,3.11,0,0,0-.23,1.11h4.08"/></g><g id="bc-link"><path id="bc" class="cls-2" d="M285.07,299.42c-.11-1.35-3.4-1.5-3.44,0,.59,2.11,4.55.48,4.71,3.57s-5.94,2.94-6.22.32l1.11-.2c.16,1.43,3.84,1.79,3.88,0-.39-2.22-4.48-.59-4.67-3.57-.16-2.26,3.25-2.5,4.83-1.66a1.93,1.93,0,0,1,1,1.38"/></g><g id="bd-link"><path id="bd" class="cls-2" d="M290.19,305.25c-3.53.16-2.14-4.6-2.42-7.69H289v4.76c0,1.23.28,2,1.55,1.94,2.85-.08,1.78-4,2-6.7h1.23l0,7.53h-1.19a6.67,6.67,0,0,0-.08-1.3,2.48,2.48,0,0,1-2.38,1.46"/></g><g id="aQ-link-4" data-name="aQ-link"><polyline id="aQ-4" data-name="aQ" class="cls-2" points="295.74 305.09 295.74 294.74 297.01 294.74 297.01 305.09 295.74 305.09"/></g><g id="be-link"><path id="be" class="cls-2" d="M300.26,303.23c-.08.95.71,1.15,1.51.87v.95c-1.31.4-2.78.2-2.78-1.54v-5h-.87v-.91h.95l.36-1.71h.83v1.71h1.39v.91h-1.39v4.76"/></g></g><g id="n"><g id="bf-link"><path id="bf" class="cls-2" d="M310.41,297.4c2.18,0,2.77,1.63,2.77,3.89s-.63,3.88-2.77,4A2.43,2.43,0,0,1,308,303.9l0,4.17H306.8l0-10.51H308l.08,1.19A2.35,2.35,0,0,1,310.41,297.4Zm-.32,6.9c1.59,0,1.78-1.35,1.78-3s-.23-2.9-1.78-2.94-2,1.27-2,3,.4,2.89,2,2.89"/></g><g id="aT-link-3" data-name="aT-link"><path id="aT-3" data-name="aT" class="cls-2" d="M319.37,303.67a3,3,0,0,1-2.7,1.58,2.11,2.11,0,0,1-2.3-2.26c0-2.54,2.5-2.5,5-2.5.12-1.38-.36-2.14-1.63-2.14-.95,0-1.62.28-1.66,1.23l-1.31-.12c.2-1.46,1.31-2.06,3-2.06s2.86.79,2.86,2.54v3.25c0,.79.27,1.27,1.11,1.07v.79C320.48,305.41,319.29,305,319.37,303.67Zm-3.69-.68A1.2,1.2,0,0,0,317,304.3c1.62-.12,2.5-1.15,2.38-2.93-1.71.08-3.65-.2-3.65,1.62"/></g><g id="bb-link-2" data-name="bb-link"><path id="bb-2" data-name="bb" class="cls-2" d="M328.72,297.56c-.39,5,1.63,11.62-4.36,10.35a2.26,2.26,0,0,1-1.74-1.71l1.27-.19c.59,1.86,4,1.27,3.53-1.11v-1.19a2.51,2.51,0,0,1-2.42,1.42c-2.14,0-2.7-1.62-2.7-3.8s.64-3.85,2.82-3.89a2.54,2.54,0,0,1,2.34,1.39c0-.4,0-.91.07-1.27Zm-3.29,6.66c1.43,0,2-1.27,2-2.89s-.56-3-2-3-1.82,1.35-1.82,3,.24,2.89,1.82,2.89"/></g><g id="aV-link-4" data-name="aV-link"><path id="aV-4" data-name="aV" class="cls-2" d="M333.6,297.4c2.5,0,3.41,1.67,3.33,4.2h-5.35c0,1.59.55,2.66,2.1,2.7a1.84,1.84,0,0,0,1.94-1.15l1.11.32a3,3,0,0,1-3.05,1.78c-2.3,0-3.49-1.46-3.45-4S331.26,297.4,333.6,297.4Zm2.06,3.21a2,2,0,0,0-3.84-1.11,2.9,2.9,0,0,0-.24,1.11h4.08"/></g></g><path id="Path-7" data-name="Path" class="cls-1" d="M216,659.47a7.34,7.34,0,0,1,7.34-7.34H337.13a7.36,7.36,0,0,1,7.34,7.34v39.67a7.36,7.36,0,0,1-7.34,7.35H223.36a7.34,7.34,0,0,1-7.34-7.35Z"/><g id="F"><g id="bx-link"><path id="bx" class="cls-2" d="M259.78,675.5a2.62,2.62,0,0,1-2.38,2.78l2.78,4.24h-1.51l-2.58-4.08h-3v4.08h-1.31v-9.83C255.22,672.81,259.86,671.85,259.78,675.5ZM253,677.41c2.38-.08,5.43.51,5.43-1.87s-3.17-1.66-5.43-1.78v3.65"/></g><g id="aT-link-4" data-name="aT-link"><path id="aT-4" data-name="aT" class="cls-2" d="M266.4,681.09a2.92,2.92,0,0,1-2.69,1.59,2.11,2.11,0,0,1-2.3-2.26c0-2.54,2.49-2.5,4.95-2.5.12-1.39-.35-2.14-1.62-2.14-1,0-1.63.28-1.67,1.23l-1.31-.12c.2-1.47,1.31-2.06,3-2.06s2.85.79,2.85,2.54v3.25c0,.79.28,1.27,1.11,1.07v.79C267.51,682.84,266.32,682.4,266.4,681.09Zm-3.69-.67a1.2,1.2,0,0,0,1.27,1.31c1.63-.12,2.5-1.15,2.38-2.94-1.7.08-3.65-.19-3.65,1.63"/></g><g id="ba-link-2" data-name="ba-link"><path id="ba-2" data-name="ba" class="cls-2" d="M273.38,674.83c3.53-.16,2.1,4.6,2.38,7.69h-1.27v-4.8c0-1.23-.32-1.94-1.55-1.9-2.85.08-1.74,4-1.94,6.7h-1.27l0-7.53h1.19a6.41,6.41,0,0,0,.08,1.27,2.5,2.5,0,0,1,2.42-1.43"/></g><g id="by-link"><polyline id="by" class="cls-2" points="282.34 682.52 279.8 679.07 278.89 679.83 278.89 682.52 277.62 682.52 277.62 672.17 278.89 672.17 278.89 678.64 282.18 674.99 283.65 674.99 280.59 678.24 283.85 682.52 282.34 682.52"/></g><g id="aZ-link-2" data-name="aZ-link"><path id="aZ-2" data-name="aZ" class="cls-2" d="M284.76,673.36v-1.19H286v1.19Zm0,9.16V675H286v7.53h-1.27"/></g><g id="ba-link-3" data-name="ba-link"><path id="ba-3" data-name="ba" class="cls-2" d="M291.58,674.83c3.52-.16,2.1,4.6,2.37,7.69h-1.26v-4.8c0-1.23-.32-1.94-1.55-1.9-2.85.08-1.74,4-1.94,6.7h-1.27l0-7.53h1.19a6.41,6.41,0,0,0,.08,1.27,2.49,2.49,0,0,1,2.42-1.43"/></g><g id="bb-link-3" data-name="bb-link"><path id="bb-3" data-name="bb" class="cls-2" d="M301.88,675c-.39,5,1.63,11.62-4.36,10.35a2.26,2.26,0,0,1-1.74-1.71l1.27-.2c.59,1.87,4,1.27,3.53-1.11v-1.19a2.5,2.5,0,0,1-2.42,1.43c-2.14,0-2.7-1.62-2.7-3.8s.64-3.85,2.82-3.89a2.54,2.54,0,0,1,2.34,1.39,12.63,12.63,0,0,1,.07-1.27Zm-3.29,6.66c1.43,0,2-1.27,2-2.89s-.56-3-2-3-1.82,1.35-1.82,3,.24,2.89,1.82,2.89"/></g><g id="bc-link-2" data-name="bc-link"><path id="bc-2" data-name="bc" class="cls-2" d="M308.15,676.85c-.12-1.35-3.41-1.51-3.45,0,.59,2.1,4.56.48,4.72,3.57s-5.95,2.94-6.23.32l1.11-.2c.16,1.43,3.85,1.78,3.89,0-.4-2.22-4.48-.6-4.68-3.57-.16-2.26,3.25-2.5,4.84-1.67a2,2,0,0,1,.95,1.39"/></g></g><path id="Path-8" data-name="Path" class="cls-1" d="M441.4,386.82a7.34,7.34,0,0,1,7.34-7.35H562.51a7.34,7.34,0,0,1,7.34,7.35v39.66a7.35,7.35,0,0,1-7.34,7.35H448.74a7.35,7.35,0,0,1-7.34-7.35Z"/><g id="G"><g id="bz-link"><path id="bz" class="cls-2" d="M484.75,402.76a2.79,2.79,0,0,0-2.89-1.78c-2.34,0-3.45,1.58-3.45,3.92s1.15,4,3.53,4a3.31,3.31,0,0,0,3.09-2.06l1.07.55a4.36,4.36,0,0,1-4.24,2.62c-3.17,0-4.64-2-4.8-5.12-.24-4.12,3.93-6.06,7.41-4.4a3.21,3.21,0,0,1,1.55,1.83"/></g><g id="aR-link-2" data-name="aR-link"><path id="aR-2" data-name="aR" class="cls-2" d="M490.58,402.17c2.46,0,3.37,1.46,3.37,3.92s-1.07,3.93-3.41,3.93-3.29-1.55-3.33-3.93C487.21,403.48,488.32,402.17,490.58,402.17Zm0,6.9c1.74,0,2.1-1.23,2.1-3s-.32-3-2-3-2.1,1.27-2.1,3,.39,2.94,2,3"/></g><g id="bA-link-4" data-name="bA-link"><path id="bA-4" data-name="bA" class="cls-2" d="M502.87,403.16c-2.66.12-1.51,4.16-1.74,6.7H499.9v-4.8c0-1.15-.2-2-1.39-1.9-2.62.16-1.51,4.12-1.75,6.7h-1.22l0-7.53h1.19a6.3,6.3,0,0,0,.07,1.26c.4-1.74,3.93-2,4.25,0a2.42,2.42,0,0,1,2.3-1.42c3.37-.08,1.86,4.72,2.18,7.69h-1.23v-4.8c0-1.15-.2-1.94-1.39-1.9"/></g><g id="bf-link-2" data-name="bf-link"><path id="bf-2" data-name="bf" class="cls-2" d="M511,402.17c2.18,0,2.77,1.62,2.77,3.88s-.63,3.89-2.77,4a2.43,2.43,0,0,1-2.38-1.35l0,4.17h-1.27l0-10.51h1.23l.08,1.19A2.32,2.32,0,0,1,511,402.17Zm-.32,6.9c1.59,0,1.78-1.35,1.78-3s-.23-2.89-1.78-2.93-2,1.27-2,3,.39,2.9,2,2.9"/></g><g id="aT-link-5" data-name="aT-link"><path id="aT-5" data-name="aT" class="cls-2" d="M519.92,408.43a2.94,2.94,0,0,1-2.7,1.59,2.11,2.11,0,0,1-2.3-2.26c0-2.54,2.5-2.5,5-2.5.12-1.39-.36-2.14-1.63-2.14-1,0-1.62.28-1.66,1.23l-1.31-.12c.2-1.47,1.31-2.06,3-2.06s2.86.79,2.86,2.54V408c0,.79.27,1.27,1.11,1.07v.79C521,410.18,519.84,409.74,519.92,408.43Zm-3.69-.67a1.2,1.2,0,0,0,1.27,1.31c1.62-.12,2.5-1.15,2.38-2.94-1.71.08-3.65-.2-3.65,1.63"/></g><g id="aW-link-3" data-name="aW-link"><path id="aW-3" data-name="aW" class="cls-2" d="M526.78,403.4c-3.1-.64-2.11,3.61-2.26,6.46h-1.27l0-7.53h1.19a9.43,9.43,0,0,0,.08,1.54,1.8,1.8,0,0,1,2.3-1.62v1.15"/></g><g id="aV-link-5" data-name="aV-link"><path id="aV-5" data-name="aV" class="cls-2" d="M530.94,402.17c2.5,0,3.41,1.66,3.33,4.2h-5.35c0,1.59.55,2.66,2.1,2.7a1.85,1.85,0,0,0,1.94-1.15l1.11.32A3,3,0,0,1,531,410c-2.3,0-3.49-1.47-3.45-4S528.6,402.17,530.94,402.17Zm2.06,3.21a2,2,0,0,0-3.85-1.11,3.06,3.06,0,0,0-.23,1.11H533"/></g></g><path id="Path-9" data-name="Path" class="cls-1" d="M274.75,455.08a8.5,8.5,0,0,1,11,0l71.6,63.68a6.38,6.38,0,0,1,0,9.76l-71.6,63.68a8.45,8.45,0,0,1-11,0l-71.6-63.67a6.38,6.38,0,0,1,0-9.75Z"/><g id="H"><g id="bB-link-4" data-name="bB-link"><path id="bB-4" data-name="bB" class="cls-2" d="M218.91,516.66c4.67-.28,8.56.31,8.44,4.84-.12,3.09-1.7,5-4.8,5h-3.64Zm1.31,8.76c3.52.32,5.78-.63,5.78-3.92s-2.38-4-5.78-3.77v7.69"/></g><g id="aV-link-6" data-name="aV-link"><path id="aV-6" data-name="aV" class="cls-2" d="M232,518.8c2.5,0,3.41,1.66,3.33,4.2h-5.35c0,1.59.55,2.66,2.1,2.7a1.85,1.85,0,0,0,1.94-1.15l1.11.32a3,3,0,0,1-3.05,1.78c-2.3,0-3.49-1.47-3.45-4S229.61,518.8,232,518.8ZM234,522a2,2,0,0,0-3.84-1.11,2.85,2.85,0,0,0-.24,1.11H234"/></g><g id="bC-link-3" data-name="bC-link"><polyline id="bC-3" data-name="bC" class="cls-2" points="240.2 526.49 238.69 526.49 235.95 518.96 237.3 518.96 239.44 525.5 241.66 518.96 243.01 518.96"/></g><g id="aZ-link-3" data-name="aZ-link"><path id="aZ-3" data-name="aZ" class="cls-2" d="M244,517.33v-1.19h1.27v1.19Zm0,9.16V519h1.27v7.53H244"/></g><g id="aX-link-2" data-name="aX-link"><path id="aX-2" data-name="aX" class="cls-2" d="M250,519.79c-1.59,0-1.9,1.31-1.9,2.9s.35,3,1.9,3a1.58,1.58,0,0,0,1.7-1.51l1.27.08a2.72,2.72,0,0,1-2.93,2.42c-2.34,0-3-1.63-3.25-3.93a3.26,3.26,0,0,1,5.83-2.53,3.4,3.4,0,0,1,.27.87l-1.27.12a1.51,1.51,0,0,0-1.62-1.39"/></g><g id="aV-link-7" data-name="aV-link"><path id="aV-7" data-name="aV" class="cls-2" d="M257.28,518.8c2.5,0,3.41,1.66,3.33,4.2h-5.35c0,1.59.56,2.66,2.1,2.7a1.86,1.86,0,0,0,1.95-1.15l1.11.32a3,3,0,0,1-3.06,1.78c-2.3,0-3.49-1.47-3.45-4S254.94,518.8,257.28,518.8Zm2.06,3.21a2,2,0,0,0-3.84-1.11,2.85,2.85,0,0,0-.24,1.11h4.08"/></g></g><g id="I-2" data-name="I"><g id="aR-link-3" data-name="aR-link"><path id="aR-3" data-name="aR" class="cls-2" d="M269.18,518.8c2.45,0,3.37,1.47,3.37,3.92s-1.07,3.93-3.41,3.93-3.29-1.55-3.33-3.93C265.81,520.11,266.92,518.8,269.18,518.8Zm0,6.9c1.74,0,2.1-1.23,2.1-3s-.32-3-2-3-2.1,1.27-2.1,3,.39,2.94,2,3"/></g><g id="aW-link-4" data-name="aW-link"><path id="aW-4" data-name="aW" class="cls-2" d="M277.66,520c-3.09-.64-2.1,3.61-2.26,6.46h-1.27l0-7.53h1.19a9.43,9.43,0,0,0,.08,1.54c.24-1.07.91-1.94,2.3-1.62V520"/></g></g><g id="J-2" data-name="J"><g id="bD-link-2" data-name="bD-link"><path id="bD-2" data-name="bD" class="cls-2" d="M283,516.66c3.45,0,7.57-.6,7.57,3,0,3.09-3.05,3.17-6.26,3v3.84H283Zm1.31,5c2.26,0,4.92.44,4.92-2s-2.7-1.86-4.92-1.9v3.88"/></g><g id="aW-link-5" data-name="aW-link"><path id="aW-5" data-name="aW" class="cls-2" d="M295.86,520c-3.09-.64-2.1,3.61-2.26,6.46h-1.27l0-7.53h1.19a9.43,9.43,0,0,0,.08,1.54c.24-1.07.91-1.94,2.3-1.62V520"/></g><g id="aR-link-4" data-name="aR-link"><path id="aR-4" data-name="aR" class="cls-2" d="M300,518.8c2.46,0,3.37,1.47,3.37,3.92s-1.07,3.93-3.41,3.93-3.29-1.55-3.33-3.93C296.65,520.11,297.76,518.8,300,518.8Zm0,6.9c1.75,0,2.1-1.23,2.1-3s-.32-3-2-3-2.1,1.27-2.1,3,.4,2.94,2,3"/></g><g id="bC-link-4" data-name="bC-link"><polyline id="bC-4" data-name="bC" class="cls-2" points="308.27 526.49 306.76 526.49 304.02 518.96 305.37 518.96 307.51 525.5 309.73 518.96 311.08 518.96"/></g><g id="aZ-link-4" data-name="aZ-link"><path id="aZ-4" data-name="aZ" class="cls-2" d="M312.07,517.33v-1.19h1.27v1.19Zm0,9.16V519h1.27v7.53h-1.27"/></g><g id="bE-link-2" data-name="bE-link"><path id="bE-2" data-name="bE" class="cls-2" d="M317.62,518.8a2.49,2.49,0,0,1,2.38,1.31l0-4h1.27l0,10.35h-1.19a10.91,10.91,0,0,0-.12-1.23,2.24,2.24,0,0,1-2.34,1.39c-2.1,0-2.73-1.55-2.77-3.89C314.85,520.15,315.76,518.8,317.62,518.8Zm.36,1c-1.59,0-1.82,1.35-1.82,3s.23,2.94,1.78,2.94,2-1.27,2-3-.35-2.94-2-2.9"/></g><g id="aV-link-8" data-name="aV-link"><path id="aV-8" data-name="aV" class="cls-2" d="M326.15,518.8c2.49,0,3.41,1.66,3.33,4.2h-5.36c0,1.59.56,2.66,2.11,2.7a1.85,1.85,0,0,0,1.94-1.15l1.11.32a3,3,0,0,1-3,1.78c-2.3,0-3.49-1.47-3.45-4S323.81,518.8,326.15,518.8Zm2.06,3.21a2,2,0,0,0-3.85-1.11,2.85,2.85,0,0,0-.24,1.11h4.09"/></g><g id="aW-link-6" data-name="aW-link"><path id="aW-6" data-name="aW" class="cls-2" d="M334.63,520c-3.09-.64-2.1,3.61-2.26,6.46H331.1l0-7.53h1.19a9.43,9.43,0,0,0,.08,1.54c.24-1.07.91-1.94,2.3-1.62V520"/></g><g id="bF-link-3" data-name="bF-link"><path id="bF-3" data-name="bF" class="cls-2" d="M338.91,516.54c3.33,0,4.4,3.84,1.79,5.27a2.46,2.46,0,0,0-1.55,2.06h-1.23c0-2.49,3.05-2.18,3.05-4.52,0-1.19-.83-1.66-2.06-1.7a2,2,0,0,0-2.22,1.82l-1.27-.08A3.12,3.12,0,0,1,338.91,516.54Zm-1,10V525.1h1.35v1.39h-1.35"/></g></g><polygon id="Path-10" data-name="Path" class="cls-4" points="280.7 637.1 279.78 637.1 279.78 624.89 280.7 624.89 280.7 637.1"/><polygon id="Path-11" data-name="Path" class="cls-4" points="280.7 607.77 279.78 607.77 279.78 594.6 280.7 594.6 280.7 607.77"/><polygon id="Path-12" data-name="Path" class="cls-4" points="280.7 594.62 279.78 594.62 279.78 594.19 280.7 594.1 280.7 594.62"/><polygon id="Path-13" data-name="Path" class="cls-4" points="280.24 650.65 275.98 637.56 284.51 637.56 280.24 650.65"/><polygon id="Path-14" data-name="Path" class="cls-4" points="280.24 652.13 275.35 637.1 285.12 637.1 280.24 652.13"/><polygon id="Path-15" data-name="Path" class="cls-4" points="276.62 638.02 280.24 649.16 283.86 638.02 276.62 638.02"/><g id="K-2" data-name="K"><g id="bG-link"><polyline id="bG" class="cls-2" points="274.04 615.11 274.04 619.19 272.69 619.19 272.69 615.11 268.92 609.36 270.39 609.36 273.36 614.04 276.34 609.36 277.8 609.36"/></g><g id="aV-link-9" data-name="aV-link"><path id="aV-9" data-name="aV" class="cls-2" d="M280.78,611.5c2.5,0,3.41,1.66,3.33,4.2h-5.35c0,1.59.55,2.66,2.1,2.7a1.85,1.85,0,0,0,1.94-1.15l1.11.32a3,3,0,0,1-3.05,1.78c-2.3,0-3.49-1.47-3.45-4S278.44,611.5,280.78,611.5Zm2.06,3.21A2,2,0,0,0,279,613.6a2.86,2.86,0,0,0-.23,1.11h4.08"/></g><g id="bc-link-5" data-name="bc-link"><path id="bc-5" data-name="bc" class="cls-2" d="M290.09,613.52c-.11-1.35-3.41-1.51-3.45,0,.6,2.1,4.56.48,4.72,3.57s-5.94,2.94-6.22.32l1.11-.2c.16,1.43,3.84,1.78,3.88,0-.39-2.22-4.48-.6-4.67-3.57-.16-2.26,3.25-2.5,4.83-1.67a2,2,0,0,1,.95,1.39"/></g></g><path id="Path-16" data-name="Path" class="cls-1" d="M37.7,282.05A7.34,7.34,0,0,1,45,274.7H158.81a7.34,7.34,0,0,1,7.34,7.35v39.67a7.34,7.34,0,0,1-7.34,7.34H45a7.34,7.34,0,0,1-7.34-7.34Z"/><g id="T"><g id="bz-link-2" data-name="bz-link"><path id="bz-2" data-name="bz" class="cls-2" d="M63.61,289.43a2.81,2.81,0,0,0-2.9-1.79c-2.34,0-3.45,1.59-3.45,3.93s1.15,4,3.53,4a3.33,3.33,0,0,0,3.1-2.07l1.07.56a4.38,4.38,0,0,1-4.25,2.62c-3.17,0-4.63-2-4.79-5.12-.24-4.12,3.92-6.07,7.41-4.4A3.26,3.26,0,0,1,64.88,289"/></g><g id="aY-link-2" data-name="aY-link"><path id="aY-2" data-name="aY" class="cls-2" d="M69.67,289.83c-2.85,0-1.74,4-1.94,6.7H66.46V286.18h1.27l0,4.08a2.52,2.52,0,0,1,2.42-1.43c3.53,0,2.1,4.6,2.38,7.7H71.22v-4.8c.08-1.27-.32-1.94-1.55-1.9"/></g><g id="aT-link-6" data-name="aT-link"><path id="aT-6" data-name="aT" class="cls-2" d="M79,295.1a3,3,0,0,1-2.7,1.59A2.11,2.11,0,0,1,74,294.43c0-2.54,2.49-2.5,5-2.5.12-1.39-.36-2.14-1.62-2.14-1,0-1.63.27-1.67,1.23l-1.31-.12c.2-1.47,1.31-2.07,3-2.07s2.86.8,2.86,2.54v3.25c0,.8.28,1.27,1.11,1.08v.79C80.1,296.85,78.91,296.41,79,295.1Zm-3.69-.67a1.19,1.19,0,0,0,1.27,1.3c1.63-.11,2.5-1.15,2.38-2.93-1.7.08-3.65-.2-3.65,1.63"/></g><g id="ba-link-5" data-name="ba-link"><path id="ba-5" data-name="ba" class="cls-2" d="M86,288.83c3.53-.15,2.1,4.6,2.38,7.7H87.08v-4.8c0-1.23-.32-1.94-1.55-1.9-2.85.07-1.74,4-1.94,6.7H82.32l0-7.54h1.19a6.36,6.36,0,0,0,.08,1.27A2.52,2.52,0,0,1,86,288.83"/></g><g id="bb-link-5" data-name="bb-link"><path id="bb-5" data-name="bb" class="cls-2" d="M96.28,289c-.4,5,1.62,11.62-4.37,10.35a2.25,2.25,0,0,1-1.74-1.7l1.27-.2c.59,1.86,4,1.27,3.53-1.11v-1.19a2.52,2.52,0,0,1-2.42,1.43c-2.14,0-2.7-1.63-2.7-3.81s.64-3.85,2.82-3.89A2.56,2.56,0,0,1,95,290.26c0-.39,0-.91.08-1.27ZM93,295.66c1.42,0,2-1.27,2-2.9s-.56-3-2-3-1.83,1.34-1.83,3,.24,2.9,1.83,2.9"/></g><g id="aV-link-10" data-name="aV-link"><path id="aV-10" data-name="aV" class="cls-2" d="M101.15,288.83c2.5,0,3.41,1.67,3.33,4.21H99.13c0,1.58.56,2.66,2.1,2.69a1.83,1.83,0,0,0,1.94-1.15l1.11.32a3,3,0,0,1-3,1.79c-2.3,0-3.49-1.47-3.45-4S98.81,288.83,101.15,288.83Zm2.06,3.22a2,2,0,0,0-3.84-1.11,2.81,2.81,0,0,0-.24,1.11h4.08"/></g></g><g id="U"><g id="aU-link-3" data-name="aU-link"><path id="aU-3" data-name="aU" class="cls-2" d="M116.42,289c-.2-1.9-4.88-2.14-4.92.08.55,3,6.26.56,6.46,4.72.12,3.09-4.8,3.45-6.94,2.18a2.79,2.79,0,0,1-1.3-1.82l1.3-.28c.2,2.22,5.59,2.5,5.59,0,0-3.09-6.14-.55-6.42-4.68-.2-3.25,5.75-3.33,7.1-1.35a3.85,3.85,0,0,1,.43,1"/></g><g id="aZ-link-5" data-name="aZ-link"><path id="aZ-5" data-name="aZ" class="cls-2" d="M119.55,287.37v-1.19h1.27v1.19Zm0,9.16V289h1.27v7.54h-1.27"/></g><g id="ba-link-6" data-name="ba-link"><path id="ba-6" data-name="ba" class="cls-2" d="M126.37,288.83c3.52-.15,2.1,4.6,2.37,7.7h-1.26v-4.8c0-1.23-.32-1.94-1.55-1.9-2.85.07-1.74,4-1.94,6.7h-1.27l0-7.54h1.19a6.36,6.36,0,0,0,.08,1.27,2.51,2.51,0,0,1,2.42-1.43"/></g><g id="bb-link-6" data-name="bb-link"><path id="bb-6" data-name="bb" class="cls-2" d="M136.67,289c-.39,5,1.63,11.62-4.36,10.35a2.25,2.25,0,0,1-1.74-1.7l1.27-.2c.59,1.86,4,1.27,3.53-1.11v-1.19a2.52,2.52,0,0,1-2.42,1.43c-2.14,0-2.7-1.63-2.7-3.81s.64-3.85,2.82-3.89a2.56,2.56,0,0,1,2.34,1.39c0-.39,0-.91.07-1.27Zm-3.29,6.67c1.43,0,2-1.27,2-2.9s-.56-3-2-3-1.82,1.34-1.82,3,.24,2.9,1.82,2.9"/></g><g id="aQ-link-5" data-name="aQ-link"><polyline id="aQ-5" data-name="aQ" class="cls-2" points="138.54 296.53 138.54 286.18 139.81 286.18 139.81 296.53 138.54 296.53"/></g><g id="aV-link-11" data-name="aV-link"><path id="aV-11" data-name="aV" class="cls-2" d="M144.68,288.83c2.5,0,3.41,1.67,3.33,4.21h-5.35c0,1.58.56,2.66,2.1,2.69a1.83,1.83,0,0,0,1.94-1.15l1.11.32a3,3,0,0,1-3.05,1.79c-2.3,0-3.49-1.47-3.45-4S142.34,288.83,144.68,288.83Zm2.06,3.22a2,2,0,0,0-3.84-1.11,2.81,2.81,0,0,0-.24,1.11h4.08"/></g></g><g id="V"><g id="bK-link"><polyline id="bK" class="cls-2" points="92.07 313.66 90.72 313.66 86.72 303.82 88.11 303.82 91.4 312.47 94.69 303.82 96.12 303.82"/></g><g id="aZ-link-6" data-name="aZ-link"><path id="aZ-6" data-name="aZ" class="cls-2" d="M96.83,304.5v-1.19H98.1v1.19Zm0,9.16v-7.53H98.1v7.53H96.83"/></g><g id="aV-link-12" data-name="aV-link"><path id="aV-12" data-name="aV" class="cls-2" d="M103,306c2.49,0,3.41,1.66,3.33,4.2H101c0,1.59.56,2.66,2.1,2.7a1.85,1.85,0,0,0,2-1.15l1.11.31a3,3,0,0,1-3.06,1.79c-2.29,0-3.48-1.47-3.44-4S100.64,306,103,306Zm2.06,3.21a2,2,0,0,0-3.85-1.11,2.85,2.85,0,0,0-.24,1.11H105"/></g><g id="bL-link"><polyline id="bL" class="cls-2" points="115.11 313.66 113.68 313.66 112.09 307.16 110.47 313.66 109.04 313.66 106.9 306.13 108.17 306.13 109.72 312.63 111.42 306.13 112.77 306.13 114.39 312.63 116.06 306.13 117.29 306.13"/></g></g><line id="Path-17" data-name="Path" class="cls-3" x1="275.06" y1="219.38" x2="275.06" y2="259.67"/><polygon id="Path-18" data-name="Path" class="cls-4" points="275.52 219.39 274.6 219.39 274.6 218.93 275.52 218.93 275.52 219.39"/><polygon id="Path-19" data-name="Path" class="cls-5" points="275.06 273.22 270.8 260.13 279.31 260.13 275.06 273.22"/><line id="Path-20" data-name="Path" class="cls-3" x1="280.24" y1="329.52" x2="280.24" y2="438.1"/><polygon id="Path-21" data-name="Path" class="cls-4" points="280.7 329.53 279.78 329.53 279.78 329.07 280.7 329.07 280.7 329.53"/><polygon id="Path-22" data-name="Path" class="cls-5" points="280.24 451.63 275.98 438.55 284.51 438.55 280.24 451.63"/><line id="Path-23" data-name="Path" class="cls-3" x1="210.37" y1="301.87" x2="181.18" y2="301.87"/><polygon id="Path-24" data-name="Path" class="cls-4" points="210.83 302.33 210.35 302.33 210.35 301.41 210.81 301.41 210.83 302.33"/><polygon id="Path-25" data-name="Path" class="cls-5" points="167.64 301.87 180.72 297.62 180.72 306.14 167.64 301.87"/><path id="Path-26" data-name="Path" class="cls-3" d="M101.93,274.25v-71.5a11,11,0,0,1,11-11h82.86"/><polygon id="Path-27" data-name="Path" class="cls-4" points="102.38 274.7 101.47 274.7 101.47 274.25 102.38 274.25 102.38 274.7"/><polygon id="Path-28" data-name="Path" class="cls-5" points="209.34 191.73 196.25 196 196.25 187.48 209.34 191.73"/><path id="Path-29" data-name="Path" class="cls-1" d="M613.71,386.82a7.33,7.33,0,0,1,7.34-7.35H727.66a7.34,7.34,0,0,1,7.34,7.35v39.66a7.35,7.35,0,0,1-7.34,7.35H621.05a7.35,7.35,0,0,1-7.34-7.35Z"/><g id="W"><g id="bM-link"><path id="bM" class="cls-2" d="M632.94,401.29l-1.11-2.85h-4.48l-1.11,2.85h-1.38l4-9.83h1.51l3.92,9.83Zm-1.5-3.92-1.87-4.88c-.47,1.79-1.23,3.25-1.82,4.88h3.69"/></g><g id="bE-link-3" data-name="bE-link"><path id="bE-3" data-name="bE" class="cls-2" d="M637.7,393.6a2.52,2.52,0,0,1,2.38,1.31l0-4h1.27l0,10.35h-1.19a10.5,10.5,0,0,0-.12-1.22,2.26,2.26,0,0,1-2.34,1.38c-2.1,0-2.73-1.54-2.77-3.88C634.93,395,635.84,393.6,637.7,393.6Zm.36.95c-1.59,0-1.83,1.35-1.83,3s.24,2.93,1.79,2.93,2-1.27,2-3-.36-2.94-2-2.9"/></g><g id="bE-link-4" data-name="bE-link"><path id="bE-4" data-name="bE" class="cls-2" d="M645.63,393.6a2.52,2.52,0,0,1,2.38,1.31l0-4h1.27l0,10.35h-1.19a10.5,10.5,0,0,0-.12-1.22,2.26,2.26,0,0,1-2.34,1.38c-2.1,0-2.74-1.54-2.78-3.88C642.85,395,643.77,393.6,645.63,393.6Zm.36.95c-1.59,0-1.83,1.35-1.83,3s.24,2.93,1.79,2.93,2-1.27,2-3-.36-2.94-2-2.9"/></g></g><g id="X"><polyline id="bN" class="cls-2" points="655.22 401.3 655.22 400.22 657.76 400.22 657.76 392.69 655.54 394.24 655.54 393.08 657.84 391.46 658.99 391.46 658.99 400.22 661.41 400.22 661.41 401.3 655.22 401.3"/></g><g id="Y"><g id="bz-link-3" data-name="bz-link"><path id="bz-3" data-name="bz" class="cls-2" d="M674.45,394.2a2.79,2.79,0,0,0-2.89-1.79c-2.34,0-3.45,1.59-3.45,3.93s1.15,4,3.53,4a3.31,3.31,0,0,0,3.09-2.06l1.07.56a4.36,4.36,0,0,1-4.24,2.61c-3.17,0-4.64-2-4.8-5.11-.24-4.13,3.93-6.07,7.41-4.4a3.19,3.19,0,0,1,1.55,1.82"/></g><g id="aR-link-5" data-name="aR-link"><path id="aR-5" data-name="aR" class="cls-2" d="M680.28,393.6c2.46,0,3.37,1.47,3.37,3.93s-1.07,3.92-3.41,3.92-3.29-1.54-3.33-3.92C676.91,394.91,678,393.6,680.28,393.6Zm0,6.9c1.74,0,2.1-1.23,2.1-3s-.32-3-2-3-2.1,1.27-2.1,3,.39,2.93,2,3"/></g><g id="bA-link-7" data-name="bA-link"><path id="bA-7" data-name="bA" class="cls-2" d="M692.57,394.59c-2.66.12-1.51,4.17-1.74,6.7H689.6V396.5c0-1.15-.2-2-1.39-1.91-2.62.16-1.51,4.13-1.75,6.7h-1.22l0-7.53h1.19a6.4,6.4,0,0,0,.07,1.27c.4-1.75,3.93-2,4.25,0a2.43,2.43,0,0,1,2.3-1.43c3.37-.08,1.86,4.72,2.18,7.69H694V396.5c0-1.15-.2-1.95-1.39-1.91"/></g><g id="bf-link-4" data-name="bf-link"><path id="bf-4" data-name="bf" class="cls-2" d="M700.66,393.6c2.18,0,2.77,1.63,2.77,3.89s-.63,3.88-2.77,4a2.42,2.42,0,0,1-2.38-1.35l0,4.17h-1.27l0-10.51h1.23l.08,1.19A2.34,2.34,0,0,1,700.66,393.6Zm-.32,6.9c1.59,0,1.78-1.35,1.78-3s-.23-2.9-1.78-2.94-2,1.27-2,3,.39,2.89,2,2.89"/></g><g id="aT-link-7" data-name="aT-link"><path id="aT-7" data-name="aT" class="cls-2" d="M709.62,399.87a3,3,0,0,1-2.7,1.58,2.11,2.11,0,0,1-2.3-2.26c0-2.54,2.5-2.5,5-2.5.12-1.38-.36-2.14-1.63-2.14-1,0-1.62.28-1.66,1.23l-1.31-.12c.2-1.46,1.31-2.06,3-2.06s2.86.79,2.86,2.54v3.25c0,.79.27,1.27,1.11,1.07v.8C710.73,401.61,709.54,401.18,709.62,399.87Zm-3.69-.68a1.2,1.2,0,0,0,1.27,1.31c1.62-.12,2.5-1.15,2.38-2.93-1.71.08-3.65-.2-3.65,1.62"/></g><g id="aW-link-7" data-name="aW-link"><path id="aW-7" data-name="aW" class="cls-2" d="M716.48,394.83c-3.1-.63-2.11,3.61-2.26,6.46H713l0-7.53h1.19a9.56,9.56,0,0,0,.08,1.55,1.8,1.8,0,0,1,2.3-1.63v1.15"/></g><g id="aV-link-13" data-name="aV-link"><path id="aV-13" data-name="aV" class="cls-2" d="M720.64,393.6c2.5,0,3.41,1.67,3.33,4.2h-5.35c0,1.59.55,2.66,2.1,2.7a1.84,1.84,0,0,0,1.94-1.15l1.11.32a3,3,0,0,1-3,1.78c-2.3,0-3.49-1.46-3.45-4S718.3,393.6,720.64,393.6Zm2.06,3.21a2,2,0,0,0-3.85-1.11,3.11,3.11,0,0,0-.23,1.11h4.08"/></g></g><g id="Z"><g id="aZ-link-7" data-name="aZ-link"><path id="aZ-7" data-name="aZ" class="cls-2" d="M662.22,409.27v-1.19h1.27v1.19Zm0,9.16v-7.54h1.27v7.54h-1.27"/></g><g id="be-link-5" data-name="be-link"><path id="be-5" data-name="be" class="cls-2" d="M666.74,416.56c-.08,1,.71,1.15,1.51.88v.95c-1.31.39-2.78.2-2.78-1.55v-5h-.87v-.91h.95l.36-1.7h.83v1.7h1.39v.91h-1.39v4.76"/></g><g id="aV-link-14" data-name="aV-link"><path id="aV-14" data-name="aV" class="cls-2" d="M672.33,410.73c2.5,0,3.41,1.67,3.33,4.21h-5.35c0,1.58.55,2.65,2.1,2.69a1.84,1.84,0,0,0,1.94-1.15l1.11.32a3,3,0,0,1-3.05,1.79c-2.3,0-3.49-1.47-3.45-4S670,410.73,672.33,410.73Zm2.06,3.22a2,2,0,0,0-3.84-1.11,2.81,2.81,0,0,0-.24,1.11h4.08"/></g><g id="bA-link-8" data-name="bA-link"><path id="bA-8" data-name="bA" class="cls-2" d="M684.62,411.73c-2.66.11-1.51,4.16-1.74,6.7h-1.23v-4.8c0-1.15-.2-2-1.39-1.9-2.62.15-1.51,4.12-1.74,6.7h-1.23l0-7.54h1.19a6.36,6.36,0,0,0,.08,1.27c.39-1.74,3.92-2,4.24,0a2.43,2.43,0,0,1,2.3-1.43c3.37-.08,1.86,4.72,2.18,7.7H686v-4.8c0-1.15-.2-1.94-1.39-1.9"/></g></g><line id="Path-30" data-name="Path" class="cls-3" x1="570.31" y1="406.65" x2="598.66" y2="406.65"/><polygon id="Path-31" data-name="Path" class="cls-4" points="570.31 407.11 569.85 407.11 569.85 406.19 570.31 406.19 570.31 407.11"/><polygon id="Path-32" data-name="Path" class="cls-5" points="612.21 406.65 599.12 410.9 599.12 402.38 612.21 406.65"/><path id="Path-33" data-name="Path" class="cls-1" d="M613.71,497a7.33,7.33,0,0,1,7.34-7.35H727.66A7.34,7.34,0,0,1,735,497v39.66a7.35,7.35,0,0,1-7.34,7.35H621.05a7.35,7.35,0,0,1-7.34-7.35Z"/><g id="aa-link"><g id="aa"><g id="bO-link"><polyline id="bO" class="cls-2" points="634.55 520 634.55 510.17 641.96 510.17 641.96 511.27 635.86 511.27 635.86 514.41 641.57 514.41 641.57 515.48 635.86 515.48 635.86 518.93 642.28 518.93 642.28 520 634.55 520"/></g><g id="bE-link-6" data-name="bE-link"><path id="bE-6" data-name="bE" class="cls-2" d="M646.24,512.31a2.49,2.49,0,0,1,2.38,1.31l0-4h1.27l0,10.35H648.7a10.69,10.69,0,0,0-.12-1.23,2.26,2.26,0,0,1-2.34,1.39c-2.1,0-2.73-1.55-2.77-3.89C643.47,513.65,644.38,512.31,646.24,512.31Zm.36,1c-1.58,0-1.82,1.35-1.82,3s.24,2.94,1.78,2.94,2-1.27,2-3-.35-2.93-2-2.89"/></g><g id="aZ-link-8" data-name="aZ-link"><path id="aZ-8" data-name="aZ" class="cls-2" d="M651.76,510.84v-1.19H653v1.19Zm0,9.16v-7.54H653V520h-1.26"/></g><g id="be-link-7" data-name="be-link"><path id="be-7" data-name="be" class="cls-2" d="M656.27,518.14c-.07,1,.72,1.15,1.51.87v1c-1.31.4-2.77.2-2.77-1.55v-5h-.88v-.92h1l.35-1.7h.83v1.7h1.39v.92h-1.39v4.76"/></g></g></g><g id="ab-link"><g id="ab"><g id="bP-link"><path id="bP" class="cls-2" d="M666.23,513.65c1.9,0,2.93,1.19,2.93,3.14,0,2.1-1.11,3.37-3.17,3.37-2.58,0-3.29-2.18-3.41-4.84-.2-3.57,2-6.42,5.27-4.84a2.26,2.26,0,0,1,1.07,1.55l-1.23.24c-.2-1.59-2.65-1.51-3.25-.24a6.8,6.8,0,0,0-.59,2.93A2.46,2.46,0,0,1,666.23,513.65Zm-.28,5.48c1.35,0,1.94-.91,1.94-2.3s-.63-2.22-2-2.22a1.75,1.75,0,0,0-1.94,1.94c0,1.43.59,2.58,2,2.58"/></g><g id="bQ-link"><polyline id="bQ" class="cls-2" points="674.47 515.76 674.47 518.73 673.44 518.73 673.44 515.76 670.51 515.76 670.51 514.73 673.44 514.73 673.44 511.75 674.47 511.75 674.47 514.73 677.4 514.73 677.4 515.76 674.47 515.76"/></g></g></g><g id="ac-link"><g id="ac"><g id="bR-link"><path id="bR" class="cls-2" d="M686.09,510.72c-1.23-.36-1.67.4-1.51,1.74h1.51v.92h-1.51V520h-1.23v-6.62h-1.07v-.92h1.07c-.28-2.06.68-3.25,2.74-2.69v1"/></g><g id="aZ-link-9" data-name="aZ-link"><path id="aZ-9" data-name="aZ" class="cls-2" d="M687,510.84v-1.19h1.27v1.19Zm0,9.16v-7.54h1.27V520H687"/></g><g id="aQ-link-6" data-name="aQ-link"><polyline id="aQ-6" data-name="aQ" class="cls-2" points="690.13 520 690.13 509.65 691.4 509.65 691.4 520 690.13 520"/></g><g id="be-link-8" data-name="be-link"><path id="be-8" data-name="be" class="cls-2" d="M694.65,518.14c-.08,1,.71,1.15,1.51.87v1c-1.31.4-2.78.2-2.78-1.55v-5h-.87v-.92h1l.36-1.7h.83v1.7H696v.92h-1.39v4.76"/></g><g id="aV-link-15" data-name="aV-link"><path id="aV-15" data-name="aV" class="cls-2" d="M700.24,512.31c2.5,0,3.41,1.66,3.33,4.2h-5.35c0,1.59.55,2.66,2.1,2.7a1.84,1.84,0,0,0,1.94-1.15l1.11.31a3,3,0,0,1-3,1.79c-2.3,0-3.49-1.47-3.45-4S697.9,512.31,700.24,512.31Zm2.06,3.21a2,2,0,0,0-3.84-1.11,2.85,2.85,0,0,0-.24,1.11h4.08"/></g><g id="aW-link-8" data-name="aW-link"><path id="aW-8" data-name="aW" class="cls-2" d="M708.73,513.54c-3.1-.64-2.11,3.6-2.26,6.46H705.2l0-7.54h1.19a9.5,9.5,0,0,0,.08,1.55,1.8,1.8,0,0,1,2.3-1.62v1.15"/></g><g id="bc-link-6" data-name="bc-link"><path id="bc-6" data-name="bc" class="cls-2" d="M714.28,514.33c-.12-1.35-3.41-1.51-3.45,0,.59,2.1,4.56.47,4.71,3.57s-5.94,2.93-6.22.32l1.11-.2c.16,1.42,3.85,1.78,3.89,0-.4-2.22-4.48-.6-4.68-3.57-.16-2.26,3.25-2.5,4.83-1.67a2,2,0,0,1,1,1.39"/></g></g></g><line id="Path-34" data-name="Path" class="cls-3" x1="674.35" y1="434.29" x2="674.35" y2="474.58"/><polygon id="Path-35" data-name="Path" class="cls-4" points="674.81 434.3 673.89 434.3 673.89 433.84 674.81 433.84 674.81 434.3"/><polygon id="Path-36" data-name="Path" class="cls-5" points="674.35 488.13 670.1 475.03 678.6 475.03 674.35 488.13"/><path id="Path-37" data-name="Path" class="cls-3" d="M613.25,516.79H516.64a11,11,0,0,1-11-11V448.87"/><polygon id="Path-38" data-name="Path" class="cls-4" points="613.71 517.25 613.23 517.25 613.23 516.33 613.69 516.33 613.71 517.25"/><polygon id="Path-39" data-name="Path" class="cls-5" points="505.63 435.31 509.88 448.4 501.37 448.4 505.63 435.31"/><path id="Path-40" data-name="Path" class="cls-3" d="M280.7,406.14h18.55a.26.26,0,0,1,.26.25.26.26,0,0,0,.25.26H426.37"/><line id="Path-41" data-name="Path" class="cls-3" x1="280.71" y1="406.14" x2="280.25" y2="406.14"/><polygon id="Path-42" data-name="Path" class="cls-5" points="439.91 406.65 426.83 410.9 426.83 402.38 439.91 406.65"/><path id="Path-43" data-name="Path" class="cls-1" d="M445,302.49a7.34,7.34,0,0,1,7.34-7.35H558.93a7.34,7.34,0,0,1,7.34,7.35v39.67a7.35,7.35,0,0,1-7.34,7.34H452.32a7.35,7.35,0,0,1-7.34-7.34Z"/><g id="ad-link"><g id="ad"><g id="bB-link-7" data-name="bB-link"><path id="bB-7" data-name="bB" class="cls-2" d="M480.65,307.13c4.68-.28,8.57.32,8.45,4.84-.12,3.09-1.71,5-4.8,5h-3.65ZM482,315.9c3.53.31,5.79-.64,5.79-3.93s-2.38-4-5.79-3.77v7.7"/></g><g id="aV-link-16" data-name="aV-link"><path id="aV-16" data-name="aV" class="cls-2" d="M493.7,309.27c2.49,0,3.41,1.67,3.33,4.21h-5.36c0,1.58.56,2.65,2.11,2.69a1.84,1.84,0,0,0,1.94-1.15l1.11.32a3,3,0,0,1-3.05,1.79c-2.3,0-3.49-1.47-3.45-4S491.36,309.27,493.7,309.27Zm2.06,3.22a2,2,0,0,0-3.85-1.12,2.91,2.91,0,0,0-.24,1.12h4.09"/></g><g id="aQ-link-7" data-name="aQ-link"><polyline id="aQ-7" data-name="aQ" class="cls-2" points="498.61 316.97 498.61 306.62 499.88 306.62 499.88 316.97 498.61 316.97"/></g><g id="aV-link-17" data-name="aV-link"><path id="aV-17" data-name="aV" class="cls-2" d="M504.76,309.27c2.5,0,3.41,1.67,3.33,4.21h-5.35c0,1.58.55,2.65,2.1,2.69a1.84,1.84,0,0,0,1.94-1.15l1.11.32a3,3,0,0,1-3.05,1.79c-2.3,0-3.49-1.47-3.45-4S502.42,309.27,504.76,309.27Zm2.06,3.22a2,2,0,0,0-3.85-1.12,2.92,2.92,0,0,0-.23,1.12h4.08"/></g><g id="be-link-9" data-name="be-link"><path id="be-9" data-name="be" class="cls-2" d="M511.06,315.1c-.08.95.71,1.15,1.51.88v.95c-1.31.39-2.78.2-2.78-1.55v-5h-.87v-.91h.95l.36-1.7h.83v1.7h1.39v.91h-1.39v4.76"/></g><g id="aV-link-18" data-name="aV-link"><path id="aV-18" data-name="aV" class="cls-2" d="M516.65,309.27c2.5,0,3.41,1.67,3.33,4.21h-5.35c0,1.58.55,2.65,2.1,2.69a1.83,1.83,0,0,0,1.94-1.15l1.11.32a3,3,0,0,1-3,1.79c-2.3,0-3.49-1.47-3.45-4S514.31,309.27,516.65,309.27Zm2.06,3.22a2,2,0,0,0-3.84-1.12,2.91,2.91,0,0,0-.24,1.12h4.08"/></g></g></g><g id="ae-link"><g id="ae"><polyline id="bN-2" data-name="bN" class="cls-2" points="525.65 316.97 525.65 315.9 528.19 315.9 528.19 308.36 525.97 309.91 525.97 308.76 528.27 307.13 529.42 307.13 529.42 315.9 531.84 315.9 531.84 316.97 525.65 316.97"/></g></g><g id="af-link"><g id="af"><g id="bz-link-4" data-name="bz-link"><path id="bz-4" data-name="bz" class="cls-2" d="M469.69,327a2.79,2.79,0,0,0-2.89-1.78c-2.34,0-3.45,1.58-3.45,3.92s1.15,4,3.53,4a3.32,3.32,0,0,0,3.09-2.06l1.07.55a4.36,4.36,0,0,1-4.24,2.62c-3.17,0-4.64-2-4.8-5.12-.24-4.12,3.93-6.07,7.41-4.4a3.22,3.22,0,0,1,1.55,1.82"/></g><g id="aR-link-6" data-name="aR-link"><path id="aR-6" data-name="aR" class="cls-2" d="M475.52,326.41c2.46,0,3.37,1.46,3.37,3.92s-1.07,3.93-3.41,3.93-3.29-1.55-3.33-3.93C472.15,327.71,473.26,326.41,475.52,326.41Zm0,6.9c1.74,0,2.1-1.23,2.1-3s-.32-3-2-3-2.1,1.27-2.1,3,.39,2.94,2,3"/></g><g id="bA-link-9" data-name="bA-link"><path id="bA-9" data-name="bA" class="cls-2" d="M487.81,327.4c-2.66.12-1.51,4.16-1.74,6.7h-1.23v-4.8c0-1.15-.2-2-1.39-1.9-2.62.16-1.51,4.12-1.75,6.7h-1.22l0-7.54h1.18a7.14,7.14,0,0,0,.08,1.27c.4-1.74,3.93-2,4.25,0a2.42,2.42,0,0,1,2.3-1.42c3.37-.08,1.86,4.71,2.18,7.69H489.2v-4.8c0-1.15-.2-1.94-1.39-1.9"/></g><g id="bf-link-5" data-name="bf-link"><path id="bf-5" data-name="bf" class="cls-2" d="M495.9,326.41c2.18,0,2.77,1.62,2.77,3.88s-.63,3.89-2.77,4a2.43,2.43,0,0,1-2.38-1.35l0,4.16h-1.27l0-10.51h1.23l.08,1.19A2.33,2.33,0,0,1,495.9,326.41Zm-.32,6.9c1.59,0,1.78-1.35,1.78-3s-.23-2.89-1.78-2.93-2,1.27-2,3,.39,2.9,2,2.9"/></g><g id="aT-link-8" data-name="aT-link"><path id="aT-8" data-name="aT" class="cls-2" d="M504.86,332.67a3,3,0,0,1-2.7,1.59,2.11,2.11,0,0,1-2.3-2.26c0-2.54,2.5-2.5,5-2.5.12-1.39-.36-2.14-1.63-2.14-.95,0-1.62.27-1.66,1.23l-1.31-.12c.2-1.47,1.31-2.06,3-2.06s2.86.79,2.86,2.53v3.26c0,.79.27,1.26,1.11,1.07v.79C506,334.42,504.78,334,504.86,332.67Zm-3.69-.67a1.2,1.2,0,0,0,1.27,1.31c1.62-.12,2.5-1.15,2.38-2.94-1.71.08-3.65-.2-3.65,1.63"/></g><g id="aW-link-9" data-name="aW-link"><path id="aW-9" data-name="aW" class="cls-2" d="M511.72,327.63c-3.1-.63-2.11,3.61-2.26,6.47h-1.27l0-7.54h1.19a9.56,9.56,0,0,0,.08,1.55,1.81,1.81,0,0,1,2.3-1.63v1.15"/></g><g id="aV-link-19" data-name="aV-link"><path id="aV-19" data-name="aV" class="cls-2" d="M515.88,326.41c2.5,0,3.41,1.66,3.33,4.2h-5.35c0,1.59.55,2.66,2.1,2.7a1.85,1.85,0,0,0,1.94-1.15l1.11.31a3,3,0,0,1-3,1.79c-2.3,0-3.49-1.47-3.45-4S513.54,326.41,515.88,326.41Zm2.06,3.21a2,2,0,0,0-3.85-1.11,3,3,0,0,0-.23,1.11h4.08"/></g></g></g><g id="Z-link"><g id="Z-2" data-name="Z"><g id="aZ-link-10" data-name="aZ-link"><path id="aZ-10" data-name="aZ" class="cls-2" d="M524.76,324.94v-1.19H526v1.19Zm0,9.16v-7.54H526v7.54h-1.27"/></g><g id="be-link-10" data-name="be-link"><path id="be-10" data-name="be" class="cls-2" d="M529.28,332.24c-.08.95.71,1.15,1.5.87v.95c-1.3.4-2.77.2-2.77-1.55v-5h-.87v-.92h1l.36-1.7h.83v1.7h1.39v.92h-1.39v4.76"/></g><g id="aV-link-20" data-name="aV-link"><path id="aV-20" data-name="aV" class="cls-2" d="M534.87,326.41c2.5,0,3.41,1.66,3.33,4.2h-5.35c0,1.59.55,2.66,2.1,2.7a1.85,1.85,0,0,0,1.94-1.15l1.11.31a3,3,0,0,1-3,1.79c-2.3,0-3.49-1.47-3.45-4S532.53,326.41,534.87,326.41Zm2.06,3.21a2,2,0,0,0-3.85-1.11,3,3,0,0,0-.23,1.11h4.08"/></g><g id="bA-link-10" data-name="bA-link"><path id="bA-10" data-name="bA" class="cls-2" d="M547.16,327.4c-2.66.12-1.51,4.16-1.75,6.7h-1.23v-4.8c0-1.15-.19-2-1.38-1.9-2.62.16-1.51,4.12-1.75,6.7h-1.23l0-7.54H541a6.31,6.31,0,0,0,.08,1.27c.4-1.74,3.93-2,4.24,0a2.43,2.43,0,0,1,2.3-1.42c3.37-.08,1.87,4.71,2.18,7.69h-1.22v-4.8c0-1.15-.2-1.94-1.39-1.9"/></g></g></g><line id="Path-44" data-name="Path" class="cls-3" x1="505.63" y1="379.02" x2="505.63" y2="364.53"/><polygon id="Path-45" data-name="Path" class="cls-4" points="506.08 379.47 505.17 379.47 505.17 379 506.08 379 506.08 379.47"/><polygon id="Path-46" data-name="Path" class="cls-5" points="505.63 350.98 509.88 364.07 501.37 364.07 505.63 350.98"/><line id="Path-47" data-name="Path" class="cls-3" x1="532.05" y1="349.97" x2="532.05" y2="364.43"/><polygon id="Path-48" data-name="Path" class="cls-4" points="532.51 349.97 531.59 349.97 531.59 349.51 532.51 349.51 532.51 349.97"/><polygon id="Path-49" data-name="Path" class="cls-5" points="532.05 377.99 527.79 364.89 536.31 364.89 532.05 377.99"/><path id="Path-50" data-name="Path" class="cls-1" d="M613.71,302.49a7.33,7.33,0,0,1,7.34-7.35H727.66a7.34,7.34,0,0,1,7.34,7.35v39.67a7.35,7.35,0,0,1-7.34,7.34H621.05a7.34,7.34,0,0,1-7.34-7.34Z"/><g id="ad-link-2" data-name="ad-link"><g id="ad-2" data-name="ad"><g id="bB-link-8" data-name="bB-link"><path id="bB-8" data-name="bB" class="cls-2" d="M645.45,315.7c4.68-.28,8.56.31,8.45,4.84-.12,3.09-1.71,5-4.8,5h-3.65Zm1.31,8.76c3.53.32,5.79-.63,5.79-3.92s-2.38-4-5.79-3.77v7.69"/></g><g id="aV-link-21" data-name="aV-link"><path id="aV-21" data-name="aV" class="cls-2" d="M658.49,317.84c2.5,0,3.41,1.66,3.34,4.2h-5.36c0,1.59.56,2.66,2.1,2.7a1.86,1.86,0,0,0,1.95-1.15l1.11.32a3,3,0,0,1-3.06,1.78c-2.3,0-3.48-1.47-3.45-4S656.16,317.84,658.49,317.84Zm2.07,3.21a2,2,0,0,0-3.85-1.11,2.9,2.9,0,0,0-.24,1.11h4.09"/></g><g id="aQ-link-8" data-name="aQ-link"><polyline id="aQ-8" data-name="aQ" class="cls-2" points="663.41 325.53 663.41 315.18 664.68 315.18 664.68 325.53 663.41 325.53"/></g><g id="aV-link-22" data-name="aV-link"><path id="aV-22" data-name="aV" class="cls-2" d="M669.56,317.84c2.49,0,3.41,1.66,3.33,4.2h-5.36c0,1.59.56,2.66,2.11,2.7a1.85,1.85,0,0,0,1.94-1.15l1.11.32a3,3,0,0,1-3.05,1.78c-2.3,0-3.49-1.47-3.45-4S667.22,317.84,669.56,317.84Zm2.06,3.21a2,2,0,0,0-3.85-1.11,2.9,2.9,0,0,0-.24,1.11h4.09"/></g><g id="be-link-11" data-name="be-link"><path id="be-11" data-name="be" class="cls-2" d="M675.86,323.67c-.08.95.71,1.15,1.51.87v.95c-1.31.4-2.78.2-2.78-1.54v-5h-.87V318h.95l.36-1.71h.83V318h1.39v.91h-1.39v4.76"/></g><g id="aV-link-23" data-name="aV-link"><path id="aV-23" data-name="aV" class="cls-2" d="M681.45,317.84c2.5,0,3.41,1.66,3.33,4.2h-5.35c0,1.59.55,2.66,2.1,2.7a1.85,1.85,0,0,0,1.94-1.15l1.11.32a3,3,0,0,1-3.05,1.78c-2.3,0-3.49-1.47-3.45-4S679.11,317.84,681.45,317.84Zm2.06,3.21a2,2,0,0,0-3.84-1.11,2.9,2.9,0,0,0-.24,1.11h4.08"/></g></g></g><g id="ag-link"><g id="ag"><g id="bM-link-2" data-name="bM-link"><path id="bM-2" data-name="bM" class="cls-2" d="M697.51,325.53l-1.11-2.85h-4.48l-1.11,2.85h-1.39l4-9.83h1.51l3.92,9.83ZM696,321.61l-1.86-4.88c-.48,1.78-1.23,3.25-1.83,4.88H696"/></g><g id="aQ-link-9" data-name="aQ-link"><polyline id="aQ-9" data-name="aQ" class="cls-2" points="699.85 325.53 699.85 315.18 701.11 315.18 701.11 325.53 699.85 325.53"/></g><g id="aQ-link-10" data-name="aQ-link"><polyline id="aQ-10" data-name="aQ" class="cls-2" points="702.98 325.53 702.98 315.18 704.25 315.18 704.25 325.53 702.98 325.53"/></g></g></g><line id="Path-51" data-name="Path" class="cls-3" x1="566.73" y1="322.32" x2="598.66" y2="322.32"/><polygon id="Path-52" data-name="Path" class="cls-4" points="566.75 322.78 566.29 322.78 566.29 321.86 566.75 321.86 566.75 322.78"/><polygon id="Path-53" data-name="Path" class="cls-5" points="612.21 322.32 599.12 326.57 599.12 318.07 612.21 322.32"/><path id="Path-54" data-name="Path" class="cls-1" d="M613.71,218.17a7.33,7.33,0,0,1,7.34-7.35H727.66a7.33,7.33,0,0,1,7.34,7.35v39.65a7.33,7.33,0,0,1-7.34,7.34H621.05a7.33,7.33,0,0,1-7.34-7.34Z"/><g id="ah-link"><g id="ah"><g id="bS-link"><polyline id="bS" class="cls-2" points="637.52 232.64 632.29 224.27 632.33 232.64 631.18 232.64 631.18 222.8 632.73 222.8 638 231.25 637.92 222.8 639.15 222.8 639.15 232.64 637.52 232.64"/></g><g id="aR-link-7" data-name="aR-link"><path id="aR-7" data-name="aR" class="cls-2" d="M644.22,224.94c2.46,0,3.37,1.47,3.37,3.93s-1.07,3.93-3.41,3.93-3.29-1.55-3.33-3.93C640.85,226.25,642,224.94,644.22,224.94Zm0,6.91c1.75,0,2.1-1.23,2.1-3s-.31-3-2-3-2.1,1.27-2.1,3,.4,2.94,2,3"/></g></g></g><g id="ai-link"><g id="ai"><g id="bz-link-5" data-name="bz-link"><path id="bz-5" data-name="bz" class="cls-2" d="M660.56,225.54a2.81,2.81,0,0,0-2.9-1.79c-2.34,0-3.45,1.59-3.45,3.93s1.15,4,3.53,4a3.3,3.3,0,0,0,3.09-2.07l1.07.56a4.36,4.36,0,0,1-4.24,2.62c-3.17,0-4.64-2-4.79-5.12-.24-4.12,3.92-6.07,7.41-4.4a3.26,3.26,0,0,1,1.55,1.82"/></g><g id="aQ-link-11" data-name="aQ-link"><polyline id="aQ-11" data-name="aQ" class="cls-2" points="663.37 232.64 663.37 222.29 664.64 222.29 664.64 232.64 663.37 232.64"/></g><g id="aV-link-24" data-name="aV-link"><path id="aV-24" data-name="aV" class="cls-2" d="M669.52,224.94c2.49,0,3.41,1.67,3.33,4.21h-5.36c0,1.58.56,2.66,2.11,2.7a1.85,1.85,0,0,0,1.94-1.16l1.11.32a3,3,0,0,1-3,1.79c-2.3,0-3.49-1.47-3.45-4S667.18,224.94,669.52,224.94Zm2.06,3.22a2,2,0,0,0-3.85-1.11,2.81,2.81,0,0,0-.24,1.11h4.09"/></g><g id="aT-link-9" data-name="aT-link"><path id="aT-9" data-name="aT" class="cls-2" d="M679.07,231.21a3,3,0,0,1-2.7,1.59,2.11,2.11,0,0,1-2.29-2.26c0-2.54,2.49-2.5,4.95-2.5.12-1.39-.36-2.14-1.62-2.14-1,0-1.63.27-1.67,1.23l-1.31-.12c.2-1.47,1.31-2.07,3-2.07s2.85.8,2.85,2.54v3.25c0,.8.28,1.27,1.11,1.08v.79C680.18,233,679,232.52,679.07,231.21Zm-3.69-.67a1.2,1.2,0,0,0,1.27,1.31c1.63-.12,2.5-1.16,2.38-2.94-1.7.08-3.65-.2-3.65,1.63"/></g><g id="aW-link-10" data-name="aW-link"><path id="aW-10" data-name="aW" class="cls-2" d="M685.93,226.17c-3.09-.63-2.1,3.61-2.26,6.47H682.4l0-7.54h1.19a9.56,9.56,0,0,0,.08,1.55,1.81,1.81,0,0,1,2.3-1.63v1.15"/></g></g></g><g id="aj-link"><g id="aj"><g id="bD-link-3" data-name="bD-link"><path id="bD-3" data-name="bD" class="cls-2" d="M691.28,222.8c3.45,0,7.57-.59,7.57,3,0,3.09-3.05,3.17-6.26,3v3.85h-1.31Zm1.31,5c2.26,0,4.92.44,4.92-2s-2.7-1.87-4.92-1.91v3.89"/></g><g id="aT-link-10" data-name="aT-link"><path id="aT-10" data-name="aT" class="cls-2" d="M705.2,231.21a3,3,0,0,1-2.7,1.59,2.12,2.12,0,0,1-2.3-2.26c0-2.54,2.5-2.5,5-2.5.12-1.39-.36-2.14-1.63-2.14-.95,0-1.62.27-1.66,1.23l-1.31-.12c.2-1.47,1.31-2.07,3-2.07s2.86.8,2.86,2.54v3.25c0,.8.27,1.27,1.11,1.08v.79C706.31,233,705.12,232.52,705.2,231.21Zm-3.69-.67a1.2,1.2,0,0,0,1.27,1.31c1.62-.12,2.5-1.16,2.38-2.94-1.71.08-3.65-.2-3.65,1.63"/></g><g id="be-link-12" data-name="be-link"><path id="be-12" data-name="be" class="cls-2" d="M709.87,230.77c-.07,1,.72,1.15,1.51.88v.95c-1.31.4-2.77.2-2.77-1.55v-5h-.88v-.92h1l.35-1.7h.83v1.7h1.39V226h-1.39v4.75"/></g><g id="aY-link-3" data-name="aY-link"><path id="aY-3" data-name="aY" class="cls-2" d="M715.7,225.94c-2.85,0-1.74,4-1.94,6.7h-1.27V222.29h1.27l0,4.08a2.52,2.52,0,0,1,2.42-1.43c3.53,0,2.1,4.6,2.38,7.7h-1.27v-4.8c.08-1.27-.32-1.94-1.55-1.9"/></g></g></g><g id="ak-link"><g id="ak"><g id="bT-link"><polyline id="bT" class="cls-2" points="651.12 241.05 651.12 244.69 656.59 244.69 656.59 245.81 651.12 245.81 651.12 249.77 649.81 249.77 649.81 239.94 656.75 239.94 656.75 241.05 651.12 241.05"/></g><g id="aR-link-8" data-name="aR-link"><path id="aR-8" data-name="aR" class="cls-2" d="M661.27,242.08c2.46,0,3.37,1.46,3.37,3.92s-1.07,3.93-3.41,3.93-3.29-1.55-3.33-3.93C657.9,243.39,659,242.08,661.27,242.08Zm0,6.9c1.74,0,2.1-1.23,2.1-3s-.32-3-2-3-2.1,1.27-2.1,3,.39,2.94,2,3"/></g><g id="aW-link-11" data-name="aW-link"><path id="aW-11" data-name="aW" class="cls-2" d="M669.75,243.31c-3.09-.64-2.1,3.61-2.26,6.46h-1.26l0-7.53h1.19a9.48,9.48,0,0,0,.07,1.54,1.81,1.81,0,0,1,2.3-1.62v1.15"/></g><g id="bL-link-2" data-name="bL-link"><polyline id="bL-2" data-name="bL" class="cls-2" points="678.12 249.77 676.69 249.77 675.11 243.27 673.48 249.77 672.05 249.77 669.91 242.24 671.18 242.24 672.73 248.74 674.43 242.24 675.78 242.24 677.41 248.74 679.07 242.24 680.3 242.24"/></g><g id="aT-link-11" data-name="aT-link"><path id="aT-11" data-name="aT" class="cls-2" d="M685.81,248.34a2.93,2.93,0,0,1-2.7,1.59,2.11,2.11,0,0,1-2.29-2.26c0-2.54,2.49-2.5,4.95-2.5.12-1.39-.36-2.14-1.62-2.14-1,0-1.63.28-1.67,1.23l-1.31-.12c.2-1.47,1.31-2.06,3-2.06s2.86.79,2.86,2.54v3.25c0,.79.28,1.27,1.11,1.07v.79C686.92,250.09,685.73,249.65,685.81,248.34Zm-3.69-.67a1.2,1.2,0,0,0,1.27,1.31c1.63-.12,2.5-1.15,2.38-2.94-1.7.08-3.65-.2-3.65,1.63"/></g><g id="aW-link-12" data-name="aW-link"><path id="aW-12" data-name="aW" class="cls-2" d="M692.67,243.31c-3.09-.64-2.1,3.61-2.26,6.46h-1.27l0-7.53h1.19a9.43,9.43,0,0,0,.08,1.54c.24-1.07.91-1.94,2.3-1.62v1.15"/></g><g id="bE-link-13" data-name="bE-link"><path id="bE-13" data-name="bE" class="cls-2" d="M696.24,242.08a2.5,2.5,0,0,1,2.38,1.31l0-4h1.26l0,10.35h-1.19a10.81,10.81,0,0,0-.11-1.23,2.27,2.27,0,0,1-2.34,1.39c-2.1,0-2.74-1.55-2.78-3.89C693.46,243.43,694.37,242.08,696.24,242.08Zm.35.95c-1.58,0-1.82,1.35-1.82,3s.24,2.94,1.78,2.94,2-1.27,2-3-.36-2.93-2-2.89"/></g></g></g><line id="Path-55" data-name="Path" class="cls-3" x1="674.35" y1="294.69" x2="674.35" y2="280.21"/><polygon id="Path-56" data-name="Path" class="cls-4" points="674.81 295.14 673.89 295.14 673.89 294.69 674.81 294.69 674.81 295.14"/><polygon id="Path-57" data-name="Path" class="cls-5" points="674.35 266.65 678.6 279.74 670.1 279.74 674.35 266.65"/><path id="Path-58" data-name="Path" class="cls-1" d="M37.7,659.47A7.34,7.34,0,0,1,45,652.13H158.81a7.34,7.34,0,0,1,7.34,7.34v39.67a7.34,7.34,0,0,1-7.34,7.35H45a7.34,7.34,0,0,1-7.34-7.35Z"/><g id="T-link"><g id="T-2" data-name="T"><g id="bz-link-6" data-name="bz-link"><path id="bz-6" data-name="bz" class="cls-2" d="M57.26,666.86a2.79,2.79,0,0,0-2.89-1.79c-2.34,0-3.45,1.59-3.45,3.93s1.15,4,3.53,4a3.31,3.31,0,0,0,3.09-2.06l1.07.56a4.36,4.36,0,0,1-4.24,2.61c-3.17,0-4.64-2-4.8-5.11-.23-4.13,3.93-6.07,7.42-4.4a3.17,3.17,0,0,1,1.54,1.82"/></g><g id="aY-link-4" data-name="aY-link"><path id="aY-4" data-name="aY" class="cls-2" d="M63.33,667.25c-2.85,0-1.74,4-1.94,6.71H60.12V663.61h1.27l0,4.08a2.51,2.51,0,0,1,2.42-1.43c3.53,0,2.1,4.6,2.38,7.7H64.88v-4.8c.08-1.27-.32-1.95-1.55-1.91"/></g><g id="aT-link-12" data-name="aT-link"><path id="aT-12" data-name="aT" class="cls-2" d="M72.65,672.53a3,3,0,0,1-2.7,1.58,2.11,2.11,0,0,1-2.3-2.26c0-2.53,2.5-2.49,5-2.49.12-1.39-.36-2.15-1.63-2.15-1,0-1.62.28-1.66,1.23L68,668.32c.2-1.46,1.31-2.06,3-2.06s2.86.8,2.86,2.54v3.25c0,.8.27,1.27,1.11,1.07v.8C73.76,674.27,72.57,673.84,72.65,672.53ZM69,671.85a1.2,1.2,0,0,0,1.27,1.31c1.62-.12,2.5-1.15,2.38-2.93-1.71.08-3.65-.2-3.65,1.62"/></g><g id="ba-link-11" data-name="ba-link"><path id="ba-11" data-name="ba" class="cls-2" d="M79.62,666.26c3.53-.16,2.11,4.6,2.38,7.7H80.73v-4.8c0-1.23-.31-1.95-1.54-1.91-2.86.08-1.75,4-1.94,6.71H76l0-7.54h1.19a6.36,6.36,0,0,0,.08,1.27,2.5,2.5,0,0,1,2.41-1.43"/></g><g id="bb-link-9" data-name="bb-link"><path id="bb-9" data-name="bb" class="cls-2" d="M89.93,666.42c-.39,5,1.63,11.62-4.36,10.35a2.25,2.25,0,0,1-1.74-1.7l1.27-.2c.59,1.86,4,1.27,3.52-1.11v-1.19A2.5,2.5,0,0,1,86.21,674c-2.15,0-2.7-1.63-2.7-3.81s.63-3.85,2.81-3.89a2.55,2.55,0,0,1,2.34,1.39,12.72,12.72,0,0,1,.08-1.27Zm-3.29,6.66c1.43,0,2-1.27,2-2.89s-.55-3-2-3-1.82,1.35-1.82,3,.24,2.89,1.82,2.89"/></g><g id="aV-link-25" data-name="aV-link"><path id="aV-25" data-name="aV" class="cls-2" d="M94.81,666.26c2.5,0,3.41,1.67,3.33,4.21H92.79c0,1.58.55,2.65,2.1,2.69A1.84,1.84,0,0,0,96.83,672l1.11.32a3,3,0,0,1-3,1.78c-2.3,0-3.49-1.46-3.45-4S92.47,666.26,94.81,666.26Zm2.06,3.21A2,2,0,0,0,93,668.36a3.11,3.11,0,0,0-.23,1.11h4.08"/></g></g></g><g id="al-link-2" data-name="al-link"><g id="al-2" data-name="al"><g id="bx-link-2" data-name="bx-link"><path id="bx-2" data-name="bx" class="cls-2" d="M112,666.94a2.62,2.62,0,0,1-2.38,2.77l2.77,4.25h-1.51l-2.57-4.09h-3.05V674h-1.31v-9.84C107.42,664.24,112.05,663.29,112,666.94Zm-6.74,1.9c2.37-.08,5.43.52,5.43-1.86s-3.17-1.67-5.43-1.79v3.65"/></g><g id="aT-link-13" data-name="aT-link"><path id="aT-13" data-name="aT" class="cls-2" d="M118.6,672.53a3,3,0,0,1-2.7,1.58,2.11,2.11,0,0,1-2.3-2.26c0-2.53,2.5-2.49,5-2.49.12-1.39-.36-2.15-1.63-2.15-1,0-1.62.28-1.66,1.23l-1.31-.12c.2-1.46,1.31-2.06,3-2.06s2.85.8,2.85,2.54v3.25c0,.8.28,1.27,1.11,1.07v.8C119.71,674.27,118.52,673.84,118.6,672.53Zm-3.69-.68a1.19,1.19,0,0,0,1.27,1.31c1.62-.12,2.5-1.15,2.38-2.93-1.71.08-3.65-.2-3.65,1.62"/></g><g id="ba-link-12" data-name="ba-link"><path id="ba-12" data-name="ba" class="cls-2" d="M125.57,666.26c3.53-.16,2.1,4.6,2.38,7.7h-1.27v-4.8c0-1.23-.31-1.95-1.54-1.91-2.86.08-1.75,4-2,6.71h-1.26l0-7.54h1.19a7.26,7.26,0,0,0,.07,1.27,2.52,2.52,0,0,1,2.42-1.43"/></g><g id="by-link-2" data-name="by-link"><polyline id="by-2" data-name="by" class="cls-2" points="134.53 673.96 132 670.51 131.08 671.26 131.08 673.96 129.81 673.96 129.81 663.61 131.08 663.61 131.08 670.07 134.37 666.42 135.84 666.42 132.79 669.67 136.04 673.96 134.53 673.96"/></g><g id="aZ-link-11" data-name="aZ-link"><path id="aZ-11" data-name="aZ" class="cls-2" d="M137,664.79v-1.18h1.27v1.18Zm0,9.17v-7.54h1.27V674H137"/></g><g id="ba-link-13" data-name="ba-link"><path id="ba-13" data-name="ba" class="cls-2" d="M143.77,666.26c3.53-.16,2.1,4.6,2.38,7.7h-1.27v-4.8c0-1.23-.32-1.95-1.55-1.91-2.85.08-1.74,4-1.94,6.71h-1.27l0-7.54h1.19a6.36,6.36,0,0,0,.08,1.27,2.52,2.52,0,0,1,2.42-1.43"/></g><g id="bb-link-10" data-name="bb-link"><path id="bb-10" data-name="bb" class="cls-2" d="M154.08,666.42c-.4,5,1.62,11.62-4.36,10.35a2.27,2.27,0,0,1-1.75-1.7l1.27-.2c.6,1.86,4,1.27,3.53-1.11v-1.19a2.52,2.52,0,0,1-2.42,1.43c-2.14,0-2.69-1.63-2.69-3.81s.63-3.85,2.81-3.89a2.56,2.56,0,0,1,2.34,1.39,12.72,12.72,0,0,1,.08-1.27Zm-3.29,6.66c1.42,0,2-1.27,2-2.89s-.56-3-2-3-1.83,1.35-1.83,3,.24,2.89,1.83,2.89"/></g></g></g><g id="am-link-2" data-name="am-link"><g id="am-2" data-name="am"><g id="bU-link"><polyline id="bU" class="cls-2" points="91.52 682.36 91.52 691.09 90.17 691.09 90.17 682.36 86.8 682.36 86.8 681.25 94.89 681.25 94.89 682.36 91.52 682.36"/></g><g id="bV-link"><path id="bV" class="cls-2" d="M101.47,683.55l-3.41,8.77A2.69,2.69,0,0,1,94.85,694v-1c1.54.24,2.1-.79,2.54-2l-3-7.5h1.35L98,689.74l2.14-6.19h1.31"/></g><g id="bf-link-6" data-name="bf-link"><path id="bf-6" data-name="bf" class="cls-2" d="M106.07,683.4c2.18,0,2.77,1.62,2.77,3.88s-.63,3.89-2.77,4a2.44,2.44,0,0,1-2.38-1.35l0,4.16h-1.27l0-10.51h1.23l.08,1.19A2.34,2.34,0,0,1,106.07,683.4Zm-.32,6.9c1.59,0,1.78-1.35,1.78-3s-.23-2.89-1.78-2.93-2,1.27-2,3,.4,2.9,2,2.9"/></g><g id="aV-link-26" data-name="aV-link"><path id="aV-26" data-name="aV" class="cls-2" d="M113.4,683.4c2.5,0,3.41,1.66,3.33,4.2h-5.35c0,1.59.56,2.66,2.1,2.7a1.84,1.84,0,0,0,1.94-1.15l1.11.31a3,3,0,0,1-3,1.79c-2.3,0-3.49-1.47-3.45-4S111.06,683.4,113.4,683.4Zm2.06,3.21a2,2,0,0,0-3.84-1.11,2.81,2.81,0,0,0-.24,1.11h4.08"/></g></g></g><line id="Path-59" data-name="Path" class="cls-3" x1="215.56" y1="679.31" x2="181.18" y2="679.31"/><polygon id="Path-60" data-name="Path" class="cls-4" points="216.02 679.77 215.54 679.77 215.54 678.85 216.02 678.85 216.02 679.77"/><polygon id="Path-61" data-name="Path" class="cls-5" points="167.64 679.31 180.72 675.05 180.72 683.56 167.64 679.31"/><path id="Path-62" data-name="Path" class="cls-3" d="M37.24,679.31H12a11,11,0,0,1-11-11V202.75a11,11,0,0,1,11-11H195.79"/><polygon id="Path-63" data-name="Path" class="cls-4" points="37.7 679.77 37.24 679.77 37.24 678.85 37.7 678.85 37.7 679.77"/><polygon id="Path-64" data-name="Path" class="cls-5" points="209.34 191.73 196.25 196 196.25 187.48 209.34 191.73"/><polygon id="Path-65" data-name="Path" class="cls-4" points="250.93 164.56 250.01 164.56 250.01 164.11 250.93 164.11 250.93 164.56"/><g id="Original-Flow" class="cls-6"><text class="cls-7" transform="translate(151.53 43.54)">Original User F<tspan class="cls-8" x="213.3" y="0">l</tspan><tspan x="221.1" y="0">ow</tspan></text></g><path class="cls-1" d="M1105.33,161a9.28,9.28,0,0,1,9.29-9.29h144a9.28,9.28,0,0,1,9.29,9.29v51.09a9.29,9.29,0,0,1-9.29,9.29h-144a9.29,9.29,0,0,1-9.29-9.29Z"/><g id="e"><path id="G-2" data-name="G" class="cls-2" d="M1169,190.75V184.6h-6.38v6.15h-3V176.36h3v5.74H1169v-5.74h2.91v14.39H1169"/><path id="H-2" data-name="H" class="cls-2" d="M1179.65,179.49c3.71,0,5.57,2.09,5.57,5.75s-2,5.75-5.63,5.75-5.52-2.09-5.52-5.75S1176.05,179.49,1179.65,179.49Zm-.06,9.52c2,0,2.61-1.62,2.61-3.77,0-2.32-.58-3.78-2.49-3.78s-2.62,1.51-2.62,3.78c0,2.09.58,3.77,2.5,3.77"/><path id="I-3" data-name="I" class="cls-2" d="M1198.75,181.64c-3.08.52-1.63,5.8-2,9.11h-2.85v-6.21c.06-1.57-.29-2.84-1.68-2.9-3.08.58-1.57,5.8-1.92,9.11h-2.9l-.06-11h2.73a12.72,12.72,0,0,0,.17,2.21c.58-3.08,5.87-3.25,6.27,0,.76-1.28,1.4-2.5,3.43-2.44,4.76.06,3,6.74,3.31,11.26h-2.85v-6.21c-.06-1.45-.29-2.79-1.68-2.9"/><path id="J-3" data-name="J" class="cls-2" d="M1215.3,188a4.68,4.68,0,0,1-4.76,3c-3.49-.12-5.17-2.15-5.17-5.81s1.74-5.69,5.22-5.69,4.82,2.61,4.88,6.27h-7.08c0,1.8.46,3.19,2.26,3.25a1.79,1.79,0,0,0,2-1.28Zm-2.62-4c.29-2.67-3.31-3.66-4.06-1.22a3.73,3.73,0,0,0-.23,1.22h4.29"/></g><path class="cls-3" d="M1186.61,222v20.7a13.93,13.93,0,0,1-13.93,13.94h-245a13.93,13.93,0,0,0-13.94,13.93v2.26"/><path class="cls-4" d="M1187.2,222H1186v-.58h1.17Z"/><path class="cls-5" d="M913.73,290l-5.38-16.57h10.77Z"/><path class="cls-1" d="M832.45,301.14a9.28,9.28,0,0,1,9.29-9.29h144a9.28,9.28,0,0,1,9.29,9.29v50.18a9.28,9.28,0,0,1-9.29,9.29h-144a9.28,9.28,0,0,1-9.29-9.29Z"/><g id="f-2" data-name="f"><path id="K-3" data-name="K" class="cls-2" d="M855.1,307c4.37.05,9.59-.75,9.59,3.77,0,3.91-3.87,4-7.93,3.81v4.87H855.1Zm1.66,6.27c2.86,0,6.22.56,6.22-2.5s-3.41-2.36-6.22-2.41v4.91"/><path id="L-2" data-name="L" class="cls-2" d="M870.66,309.72c3.16,0,4.31,2.11,4.21,5.32H868.1c0,2,.7,3.36,2.66,3.41a2.34,2.34,0,0,0,2.46-1.45l1.4.4c-.55,1.4-1.85,2.26-3.86,2.26-2.91,0-4.42-1.86-4.37-5S867.7,309.72,870.66,309.72Zm2.61,4.07a2.58,2.58,0,0,0-4.87-1.41,3.64,3.64,0,0,0-.3,1.41h5.17"/><path id="M-2" data-name="M" class="cls-2" d="M881.4,311.28c-3.92-.8-2.66,4.56-2.86,8.18h-1.61l0-9.54h1.51a12.17,12.17,0,0,0,.1,2c.3-1.35,1.15-2.46,2.91-2.06v1.46"/><path id="N-2" data-name="N" class="cls-2" d="M886.71,307.72c-1.55-.46-2.1.5-1.9,2.2h1.9v1.16h-1.9v8.38h-1.56v-8.38H881.9v-1.16h1.35c-.35-2.61.86-4.11,3.46-3.41v1.21"/><path id="O" class="cls-2" d="M891.68,309.72c3.11-.05,4.27,1.86,4.27,5s-1.36,5-4.32,5-4.16-2-4.21-5C887.42,311.38,888.82,309.72,891.68,309.72Zm0,8.73c2.21.05,2.66-1.55,2.66-3.76s-.4-3.76-2.56-3.76-2.66,1.6-2.66,3.76.5,3.71,2.56,3.76"/><path id="M-3" data-name="M" class="cls-2" d="M902.42,311.28c-3.91-.8-2.66,4.56-2.86,8.18H898l-.05-9.54h1.51a12.17,12.17,0,0,0,.1,2c.3-1.35,1.15-2.46,2.91-2.06v1.46"/><path id="P" class="cls-2" d="M913.21,311c-3.36.15-1.91,5.27-2.21,8.48h-1.56v-6.07c0-1.46-.25-2.51-1.75-2.41-3.31.2-1.91,5.22-2.21,8.48h-1.56l0-9.54h1.51a8.19,8.19,0,0,0,.1,1.61c.5-2.21,5-2.51,5.37,0a3.08,3.08,0,0,1,2.91-1.81c4.26-.1,2.36,6,2.76,9.74H915v-6.07c0-1.46-.25-2.46-1.75-2.41"/><path id="Q" class="cls-2" d="M924.75,317.65c-.76,1.05-1.56,2.06-3.41,2a2.68,2.68,0,0,1-2.91-2.86c0-3.21,3.16-3.16,6.27-3.16.15-1.76-.45-2.71-2.06-2.71-1.2.05-2.06.35-2.11,1.55l-1.65-.15c.25-1.85,1.65-2.61,3.81-2.61s3.61,1,3.61,3.21v4.12c0,1,.35,1.6,1.41,1.35v1C926.15,319.86,924.65,319.31,924.75,317.65Zm-4.67-.85a1.51,1.51,0,0,0,1.61,1.65c2-.15,3.16-1.45,3-3.71-2.16.1-4.62-.25-4.62,2.06"/><path id="R" class="cls-2" d="M933.58,309.72c4.46-.2,2.66,5.82,3,9.74H935v-6.07c0-1.56-.4-2.46-2-2.41-3.62.1-2.21,5.11-2.46,8.48H929l-.05-9.54h1.51a8.19,8.19,0,0,0,.1,1.61,3.16,3.16,0,0,1,3.06-1.81"/><path id="S" class="cls-2" d="M942.56,311c-2,0-2.41,1.65-2.41,3.66s.45,3.76,2.41,3.76a2,2,0,0,0,2.16-1.9l1.6.1a3.44,3.44,0,0,1-3.71,3.06c-3,0-3.81-2.06-4.11-5-.51-4.67,5.06-6.57,7.37-3.21a4,4,0,0,1,.35,1.1l-1.6.15a1.92,1.92,0,0,0-2.06-1.75"/><path id="L-3" data-name="L" class="cls-2" d="M951.79,309.72c3.16,0,4.32,2.11,4.22,5.32h-6.78c0,2,.71,3.36,2.66,3.41a2.33,2.33,0,0,0,2.46-1.45l1.41.4a3.79,3.79,0,0,1-3.87,2.26c-2.91,0-4.41-1.86-4.36-5S948.83,309.72,951.79,309.72Zm2.61,4.07a2.58,2.58,0,0,0-4.87-1.41,3.64,3.64,0,0,0-.3,1.41h5.17"/></g><g id="g-3" data-name="g"><path id="T-3" data-name="T" class="cls-2" d="M973.57,319.36a3.74,3.74,0,0,1-3.87-.91c-2,2-7.47,1.61-7.22-2.25.15-2.16,1.45-3.07,3-3.82-1.25-2-.85-5.72,2.36-5.42,1.75.15,3,.76,3,2.51,0,2.21-2,2.66-3.56,3.46a20.51,20.51,0,0,0,2.55,3.62,9.72,9.72,0,0,0,1.51-3.62l1.3.41a13,13,0,0,1-1.9,4.11,2.82,2.82,0,0,0,2.86.75Zm-6.88-7.48c1.26-.5,2.61-.9,2.81-2.41a1.48,1.48,0,0,0-1.65-1.45C965.74,308,965.89,310.53,966.69,311.88Zm-2.76,4.26c-.15,2.56,3.57,2.92,4.92,1.41a23,23,0,0,1-2.81-4,3,3,0,0,0-2.11,2.6"/></g><g id="h-3" data-name="h"><path id="U-2" data-name="U" class="cls-2" d="M892.71,328.54c4.06,0,6.17,2.31,6.17,6.32,0,3.61-1.75,5.87-5,6.32.36,1.51,1.51,2.41,3.47,2v1.15a3.82,3.82,0,0,1-5.17-3.06c-3.66-.3-5.62-2.56-5.62-6.42S888.65,328.54,892.71,328.54Zm0,11.39c3.16,0,4.47-2.06,4.47-5.07s-1.46-5-4.47-5-4.47,2-4.47,5,1.41,5,4.47,5.07"/><path id="V-2" data-name="V" class="cls-2" d="M904,341.33c-4.47.2-2.71-5.82-3.06-9.73h1.6v6c0,1.56.36,2.51,2,2.46,3.61-.1,2.26-5.07,2.51-8.48h1.56l.05,9.53h-1.51a8.61,8.61,0,0,0-.1-1.65,3.13,3.13,0,0,1-3,1.85"/><path id="Q-2" data-name="Q" class="cls-2" d="M916.84,339.33a3.72,3.72,0,0,1-3.41,2,2.68,2.68,0,0,1-2.91-2.86c0-3.21,3.16-3.16,6.27-3.16.16-1.75-.45-2.71-2-2.71-1.21,0-2.06.35-2.11,1.56L911,334c.26-1.86,1.66-2.61,3.82-2.61s3.61,1,3.61,3.21v4.11c0,1,.35,1.61,1.41,1.36v1C918.25,341.53,916.74,341,916.84,339.33Zm-4.66-.86a1.51,1.51,0,0,0,1.6,1.66c2.06-.15,3.17-1.46,3-3.71-2.15.1-4.61-.26-4.61,2.05"/><path id="W-2" data-name="W" class="cls-2" d="M921,341.13V328h1.6v13.09H921"/><path id="X-2" data-name="X" class="cls-2" d="M925,329.54V328h1.61v1.5Zm0,11.59V331.6h1.61v9.53H925"/><path id="Y-2" data-name="Y" class="cls-2" d="M930.69,338.77c-.1,1.21.91,1.46,1.91,1.11v1.2c-1.66.5-3.51.25-3.51-1.95v-6.38H928V331.6h1.21l.45-2.16h1.05v2.16h1.76v1.15h-1.76v6"/><path id="Z-3" data-name="Z" class="cls-2" d="M941.73,331.6l-4.31,11.09a3.41,3.41,0,0,1-4.07,2.1v-1.2c2,.3,2.66-1,3.21-2.51l-3.76-9.48h1.71l2.86,7.83,2.71-7.83h1.65"/></g><path class="cls-1" d="M1006.63,301.14a9.28,9.28,0,0,1,9.29-9.29h144a9.28,9.28,0,0,1,9.29,9.29v50.18a9.28,9.28,0,0,1-9.29,9.29h-144a9.28,9.28,0,0,1-9.29-9.29Z"/><g id="i-4" data-name="i"><path id="aa-2" data-name="aa" class="cls-2" d="M1031.84,330.29l.1-10.93c-1.15,3.81-2.71,7.27-4,10.93h-1.16l-4.06-10.93,0,10.93h-1.45V317.85h2.2l3.87,10.59c1-3.77,2.56-7,3.81-10.59h2.16v12.44h-1.51"/><path id="O-2" data-name="O" class="cls-2" d="M1039.82,320.56c3.11-.05,4.27,1.86,4.27,5s-1.36,5-4.32,5-4.16-1.95-4.21-5C1035.56,322.22,1037,320.56,1039.82,320.56Zm0,8.73c2.21,0,2.66-1.55,2.66-3.76s-.4-3.77-2.56-3.77-2.66,1.61-2.66,3.77.5,3.71,2.56,3.76"/><path id="ab-2" data-name="ab" class="cls-2" d="M1050.61,320.56c2.66,0,3.46,2,3.51,4.92,0,3.31-1.15,5-3.51,5-1.56-.05-2.46-.55-3-1.7l-.1,1.5H1046l0-13.09h1.61v5.07A2.81,2.81,0,0,1,1050.61,320.56Zm-.4,8.73c2,0,2.25-1.71,2.25-3.76s-.25-3.77-2.25-3.72-2.56,1.61-2.56,3.82.5,3.66,2.56,3.66"/><path id="X-3" data-name="X" class="cls-2" d="M1056.08,318.7v-1.5h1.6v1.5Zm0,11.59v-9.53h1.6v9.53h-1.6"/><path id="W-3" data-name="W" class="cls-2" d="M1060,330.29V317.2h1.61v13.09H1060"/><path id="L-4" data-name="L" class="cls-2" d="M1067.82,320.56c3.16,0,4.31,2.11,4.21,5.32h-6.77c0,2,.7,3.36,2.66,3.41a2.34,2.34,0,0,0,2.46-1.45l1.4.4c-.55,1.4-1.85,2.25-3.86,2.25-2.91,0-4.42-1.85-4.37-5S1064.86,320.56,1067.82,320.56Zm2.61,4.06a2.58,2.58,0,0,0-4.87-1.4,3.63,3.63,0,0,0-.3,1.4h5.17"/></g><g id="j-4" data-name="j"><path id="ac-2" data-name="ac" class="cls-2" d="M1088.49,321.31a3.55,3.55,0,0,0-3.66-2.26c-3,0-4.37,2-4.37,5s1.46,5.07,4.47,5.07c2.16,0,3.11-1.2,3.91-2.61l1.36.7a5.53,5.53,0,0,1-5.37,3.31c-4,0-5.87-2.5-6.07-6.47-.3-5.22,5-7.67,9.38-5.57a4.13,4.13,0,0,1,2,2.31"/><path id="O-3" data-name="O" class="cls-2" d="M1095.87,320.56c3.11-.05,4.26,1.86,4.26,5s-1.35,5-4.31,5-4.17-1.95-4.22-5C1091.6,322.22,1093,320.56,1095.87,320.56Zm0,8.73c2.2,0,2.66-1.55,2.66-3.76s-.41-3.77-2.56-3.77-2.66,1.61-2.66,3.77.5,3.71,2.56,3.76"/><path id="ad-3" data-name="ad" class="cls-2" d="M1106.3,330.29h-1.9l-3.47-9.53h1.71l2.71,8.28,2.81-8.28h1.7"/><path id="L-5" data-name="L" class="cls-2" d="M1114.93,320.56c3.16,0,4.32,2.11,4.22,5.32h-6.78c0,2,.71,3.36,2.66,3.41a2.33,2.33,0,0,0,2.46-1.45l1.41.4c-.56,1.4-1.86,2.25-3.87,2.25-2.91,0-4.41-1.85-4.36-5S1112,320.56,1114.93,320.56Zm2.61,4.06a2.58,2.58,0,0,0-4.87-1.4,3.63,3.63,0,0,0-.3,1.4h5.17"/><path id="M-4" data-name="M" class="cls-2" d="M1125.67,322.12c-3.91-.81-2.66,4.56-2.86,8.17h-1.61l0-9.53h1.51a12.24,12.24,0,0,0,.1,2c.3-1.36,1.15-2.46,2.91-2.06v1.46"/><path id="Q-3" data-name="Q" class="cls-2" d="M1133,328.49c-.76,1.05-1.56,2.06-3.42,2a2.68,2.68,0,0,1-2.91-2.86c-.05-3.21,3.16-3.16,6.28-3.16.15-1.75-.46-2.71-2.06-2.71-1.21.05-2.06.36-2.11,1.56l-1.65-.15c.25-1.86,1.65-2.61,3.81-2.61s3.61,1,3.61,3.21v4.12c0,1,.35,1.6,1.41,1.35v1C1134.4,330.7,1132.9,330.14,1133,328.49Zm-4.67-.86a1.51,1.51,0,0,0,1.6,1.66c2.06-.15,3.17-1.45,3-3.71-2.16.1-4.62-.25-4.62,2.05"/><path id="ae-2" data-name="ae" class="cls-2" d="M1144.84,320.76c-.5,6.27,2.05,14.7-5.52,13.1a2.86,2.86,0,0,1-2.21-2.16l1.61-.25c.75,2.36,5,1.6,4.46-1.41v-1.5a3.17,3.17,0,0,1-3.06,1.8c-2.71,0-3.41-2-3.41-4.81s.8-4.87,3.56-4.92a3.21,3.21,0,0,1,3,1.76c0-.51,0-1.16.1-1.61Zm-4.17,8.43c1.81,0,2.51-1.61,2.51-3.66s-.7-3.77-2.51-3.77-2.31,1.71-2.31,3.77.31,3.66,2.31,3.66"/><path id="L-6" data-name="L" class="cls-2" d="M1151,320.56c3.16,0,4.31,2.11,4.21,5.32h-6.77c0,2,.7,3.36,2.66,3.41a2.34,2.34,0,0,0,2.46-1.45l1.4.4c-.55,1.4-1.85,2.25-3.86,2.25-2.91,0-4.42-1.85-4.37-5S1148.05,320.56,1151,320.56Zm2.61,4.06a2.58,2.58,0,0,0-4.87-1.4,3.63,3.63,0,0,0-.3,1.4h5.17"/></g><path class="cls-1" d="M1180.81,301.14a9.28,9.28,0,0,1,9.29-9.29h144a9.28,9.28,0,0,1,9.29,9.29v50.18a9.28,9.28,0,0,1-9.29,9.29h-144a9.28,9.28,0,0,1-9.29-9.29Z"/><g id="k-4" data-name="k"><path id="af-2" data-name="af" class="cls-2" d="M1236.2,321.41a3.32,3.32,0,0,1-3,3.52l3.51,5.36h-1.9l-3.26-5.16h-3.87v5.16H1226V317.85C1230.43,318,1236.3,316.8,1236.2,321.41Zm-8.53,2.41c3-.1,6.88.65,6.88-2.36s-4-2.1-6.88-2.25v4.61"/><path id="Q-4" data-name="Q" class="cls-2" d="M1244.58,328.49a3.7,3.7,0,0,1-3.41,2,2.67,2.67,0,0,1-2.91-2.86c0-3.21,3.16-3.16,6.27-3.16.15-1.75-.45-2.71-2.06-2.71-1.2.05-2,.36-2.1,1.56l-1.66-.15c.25-1.86,1.66-2.61,3.81-2.61s3.62,1,3.62,3.21v4.12c-.05,1,.35,1.6,1.4,1.35v1C1246,330.7,1244.48,330.14,1244.58,328.49Zm-4.66-.86a1.51,1.51,0,0,0,1.6,1.66c2.06-.15,3.16-1.45,3-3.71-2.16.1-4.61-.25-4.61,2.05"/><path id="R-2" data-name="R" class="cls-2" d="M1253.41,320.56c4.47-.2,2.66,5.82,3,9.73h-1.6v-6.07c0-1.55-.4-2.46-2-2.41-3.61.1-2.21,5.12-2.46,8.48h-1.6l0-9.53h1.5a8.19,8.19,0,0,0,.1,1.61,3.17,3.17,0,0,1,3.06-1.81"/><path id="ag-2" data-name="ag" class="cls-2" d="M1264.75,330.29l-3.21-4.36-1.15.95v3.41h-1.61V317.2h1.61v8.18l4.16-4.62h1.86l-3.87,4.12,4.12,5.41h-1.91"/><path id="X-4" data-name="X" class="cls-2" d="M1267.81,318.7v-1.5h1.61v1.5Zm0,11.59v-9.53h1.61v9.53h-1.61"/><path id="R-3" data-name="R" class="cls-2" d="M1276.44,320.56c4.47-.2,2.66,5.82,3,9.73h-1.6v-6.07c0-1.55-.4-2.46-2-2.41-3.61.1-2.21,5.12-2.46,8.48h-1.6l0-9.53h1.5a8.19,8.19,0,0,0,.1,1.61,3.17,3.17,0,0,1,3.06-1.81"/><path id="ae-3" data-name="ae" class="cls-2" d="M1289.49,320.76c-.5,6.27,2.06,14.7-5.52,13.1a2.86,2.86,0,0,1-2.21-2.16l1.61-.25c.75,2.36,5,1.6,4.46-1.41v-1.5a3.17,3.17,0,0,1-3.06,1.8c-2.71,0-3.41-2-3.41-4.81s.8-4.87,3.56-4.92a3.21,3.21,0,0,1,3,1.76c0-.51,0-1.16.1-1.61Zm-4.17,8.43c1.81,0,2.51-1.61,2.51-3.66s-.7-3.77-2.51-3.77-2.3,1.71-2.3,3.77.3,3.66,2.3,3.66"/><path id="ah-2" data-name="ah" class="cls-2" d="M1297.42,323.12c-.15-1.71-4.32-1.91-4.37,0,.75,2.66,5.77.6,6,4.51s-7.52,3.72-7.88.41l1.41-.25c.2,1.8,4.87,2.25,4.92,0-.51-2.81-5.67-.76-5.92-4.52-.21-2.86,4.11-3.16,6.12-2.11a2.53,2.53,0,0,1,1.2,1.76"/></g><path class="cls-1" d="M1355,301.14a9.28,9.28,0,0,1,9.29-9.29h144a9.28,9.28,0,0,1,9.29,9.29v50.18a9.28,9.28,0,0,1-9.29,9.29h-144a9.28,9.28,0,0,1-9.29-9.29Z"/><g id="l-7" data-name="l"><path id="ac-3" data-name="ac" class="cls-2" d="M1419.41,321.31a3.54,3.54,0,0,0-3.66-2.26c-3,0-4.37,2-4.37,5s1.46,5.07,4.47,5.07c2.16,0,3.11-1.2,3.91-2.61l1.36.7a5.52,5.52,0,0,1-5.37,3.31c-4,0-5.87-2.5-6.07-6.47-.3-5.22,5-7.67,9.38-5.57a4.05,4.05,0,0,1,2,2.31"/><path id="W-4" data-name="W" class="cls-2" d="M1423,330.29V317.2h1.6v13.09H1423"/><path id="Q-5" data-name="Q" class="cls-2" d="M1432.81,328.49a3.71,3.71,0,0,1-3.41,2,2.67,2.67,0,0,1-2.91-2.86c0-3.21,3.16-3.16,6.27-3.16.15-1.75-.45-2.71-2.06-2.71-1.2.05-2,.36-2.11,1.56l-1.65-.15c.25-1.86,1.65-2.61,3.81-2.61s3.62,1,3.62,3.21v4.12c-.06,1,.35,1.6,1.4,1.35v1C1434.21,330.7,1432.71,330.14,1432.81,328.49Zm-4.67-.86a1.52,1.52,0,0,0,1.61,1.66c2.06-.15,3.16-1.45,3-3.71-2.16.1-4.62-.25-4.62,2.05"/><path id="X-5" data-name="X" class="cls-2" d="M1437,318.7v-1.5h1.61v1.5Zm0,11.59v-9.53h1.61v9.53H1437"/><path id="P-2" data-name="P" class="cls-2" d="M1450.27,321.81c-3.36.16-1.91,5.27-2.21,8.48h-1.55v-6.07c0-1.45-.25-2.51-1.76-2.41-3.31.21-1.91,5.22-2.21,8.48H1441l0-9.53h1.5a8.19,8.19,0,0,0,.1,1.61c.51-2.21,5-2.51,5.37,0a3.07,3.07,0,0,1,2.91-1.81c4.27-.1,2.36,6,2.76,9.73H1452v-6.07c0-1.45-.25-2.46-1.76-2.41"/><path id="ah-3" data-name="ah" class="cls-2" d="M1461.51,323.12c-.15-1.71-4.32-1.91-4.37,0,.76,2.66,5.77.6,6,4.51s-7.53,3.72-7.88.41l1.4-.25c.2,1.8,4.87,2.25,4.92,0-.5-2.81-5.67-.76-5.92-4.52-.2-2.86,4.11-3.16,6.12-2.11a2.53,2.53,0,0,1,1.2,1.76"/></g><path class="cls-3" d="M1186.61,222v20.7a13.93,13.93,0,0,1-13.93,13.94h-70.83a13.93,13.93,0,0,0-13.94,13.93v2.26"/><path class="cls-4" d="M1187.2,222H1186v-.58h1.17Z"/><path class="cls-5" d="M1087.91,290l-5.38-16.57h10.77Z"/><path class="cls-3" d="M1186.61,222v20.7a13.94,13.94,0,0,0,13.94,13.94h47.61a13.92,13.92,0,0,1,13.93,13.93v2.26"/><path class="cls-4" d="M1187.2,222H1186v-.58h1.17Z"/><path class="cls-5" d="M1262.09,290l-5.39-16.57h10.78Z"/><path class="cls-3" d="M1186.61,222v20.7a13.94,13.94,0,0,0,13.94,13.94h221.79a13.92,13.92,0,0,1,13.93,13.93v2.26"/><path class="cls-4" d="M1187.2,222H1186v-.58h1.17Z"/><path class="cls-5" d="M1436.27,290l-5.39-16.57h10.78Z"/><path class="cls-1" d="M1355,416a9.28,9.28,0,0,1,9.29-9.29h144a9.28,9.28,0,0,1,9.29,9.29v78.26a9.3,9.3,0,0,1-9.29,9.29h-144a9.3,9.3,0,0,1-9.29-9.29Z"/><g id="m-5" data-name="m"><path id="ai-2" data-name="ai" class="cls-2" d="M1395.83,459.05V446.6h9.39V448h-7.73v4h7.23v1.36h-7.23v4.36h8.13v1.36h-9.79"/><path id="aj-2" data-name="aj" class="cls-2" d="M1410.64,449.31a3.18,3.18,0,0,1,3,1.66l-.05-5h1.6l0,13.1h-1.5a13.55,13.55,0,0,0-.15-1.56,2.88,2.88,0,0,1-3,1.76c-2.66,0-3.47-2-3.52-4.92C1407.12,451,1408.28,449.31,1410.64,449.31Zm.45,1.21c-2,0-2.31,1.7-2.31,3.76s.3,3.71,2.26,3.71,2.56-1.6,2.56-3.81-.46-3.71-2.51-3.66"/><path id="X-6" data-name="X" class="cls-2" d="M1417.61,447.46V446h1.61v1.51Zm0,11.59v-9.54h1.61v9.54h-1.61"/><path id="Y-3" data-name="Y" class="cls-2" d="M1423.33,456.69c-.1,1.2.9,1.45,1.91,1.1V459c-1.66.5-3.52.25-3.52-2v-6.37h-1.1v-1.16h1.2l.46-2.16h1v2.16h1.76v1.16h-1.76v6"/></g><g id="n-3" data-name="n"><path id="ak-2" data-name="ak" class="cls-2" d="M1433.57,448v4.61h6.92V454h-6.92v5h-1.66V446.6h8.78V448h-7.12"/><path id="X-7" data-name="X" class="cls-2" d="M1442.6,447.46V446h1.6v1.51Zm0,11.59v-9.54h1.6v9.54h-1.6"/><path id="W-5" data-name="W" class="cls-2" d="M1446.56,459.05V446h1.61v13.1h-1.61"/><path id="Y-4" data-name="Y" class="cls-2" d="M1452.28,456.69c-.1,1.2.9,1.45,1.91,1.1V459c-1.66.5-3.51.25-3.51-2v-6.37h-1.11v-1.16h1.21l.45-2.16h1v2.16H1454v1.16h-1.76v6"/><path id="L-8" data-name="L" class="cls-2" d="M1459.36,449.31c3.16,0,4.31,2.11,4.21,5.32h-6.77c0,2,.7,3.36,2.66,3.41a2.33,2.33,0,0,0,2.45-1.45l1.41.4a3.78,3.78,0,0,1-3.86,2.26c-2.91,0-4.42-1.86-4.37-5S1456.4,449.31,1459.36,449.31Zm2.6,4.07a2.57,2.57,0,0,0-4.86-1.41,3.64,3.64,0,0,0-.3,1.41H1462"/><path id="M-6" data-name="M" class="cls-2" d="M1470.09,450.87c-3.91-.81-2.66,4.56-2.86,8.18h-1.6l-.05-9.54h1.5a12.24,12.24,0,0,0,.1,2c.3-1.36,1.16-2.46,2.91-2.06v1.46"/><path id="ah-4" data-name="ah" class="cls-2" d="M1477.12,451.87c-.15-1.71-4.32-1.91-4.37,0,.76,2.66,5.77.6,6,4.52s-7.52,3.71-7.87.4l1.4-.25c.2,1.8,4.87,2.25,4.92,0-.5-2.81-5.67-.76-5.92-4.52-.2-2.86,4.11-3.16,6.12-2.11a2.53,2.53,0,0,1,1.2,1.76"/></g><path class="cls-3" d="M1397.14,361.19v26.44"/><path class="cls-4" d="M1397.72,361.22h-1.16v-.61h1.16Z"/><path class="cls-5" d="M1397.14,404.79l-5.38-16.57h10.77Z"/><path class="cls-3" d="M1474.56,406.09V379.63"/><path class="cls-4" d="M1475.14,406.67H1474v-.61h1.16Z"/><path class="cls-5" d="M1474.56,362.49l5.38,16.56h-10.75Z"/><path class="cls-1" d="M832.45,416a9.28,9.28,0,0,1,9.29-9.29h144A9.28,9.28,0,0,1,995,416v78.26a9.3,9.3,0,0,1-9.29,9.29h-144a9.3,9.3,0,0,1-9.29-9.29Z"/><g id="m-7" data-name="m"><path id="ai-3" data-name="ai" class="cls-2" d="M840.21,437.37V424.93h9.38v1.4h-7.73v4h7.23v1.35h-7.23V436H850v1.35h-9.78"/><path id="aj-3" data-name="aj" class="cls-2" d="M855,427.64a3.18,3.18,0,0,1,3,1.65l0-5h1.6l0,13.1h-1.5a14,14,0,0,0-.15-1.56,2.86,2.86,0,0,1-3,1.76c-2.66,0-3.46-2-3.51-4.92C851.5,429.34,852.65,427.64,855,427.64Zm.45,1.2c-2,0-2.31,1.71-2.31,3.76s.3,3.72,2.26,3.72c2.11,0,2.56-1.61,2.56-3.82s-.45-3.71-2.51-3.66"/><path id="X-8" data-name="X" class="cls-2" d="M862,425.78v-1.51h1.61v1.51Zm0,11.59v-9.53h1.61v9.53H862"/><path id="Y-5" data-name="Y" class="cls-2" d="M867.7,435c-.1,1.21.91,1.46,1.91,1.11v1.2c-1.66.5-3.51.25-3.51-2V429H865v-1.15h1.21l.45-2.16h1.05v2.16h1.76V429H867.7v6"/></g><g id="o-4" data-name="o"><path id="ak-3" data-name="ak" class="cls-2" d="M877.94,426.33V431h6.92v1.4h-6.92v5h-1.66V424.93h8.78v1.4h-7.12"/><path id="X-9" data-name="X" class="cls-2" d="M887,425.78v-1.51h1.6v1.51Zm0,11.59v-9.53h1.6v9.53H887"/><path id="W-6" data-name="W" class="cls-2" d="M890.93,437.37v-13.1h1.61v13.1h-1.61"/><path id="Y-6" data-name="Y" class="cls-2" d="M896.65,435c-.1,1.21.91,1.46,1.91,1.11v1.2c-1.66.5-3.51.25-3.51-2V429h-1.11v-1.15h1.21l.45-2.16h1v2.16h1.76V429h-1.76v6"/><path id="L-9" data-name="L" class="cls-2" d="M903.73,427.64c3.16,0,4.31,2.1,4.21,5.31h-6.77c0,2,.7,3.37,2.66,3.42a2.35,2.35,0,0,0,2.46-1.46l1.4.4c-.55,1.41-1.86,2.26-3.86,2.26-2.91,0-4.42-1.86-4.37-5S900.77,427.64,903.73,427.64Zm2.61,4.06a2.58,2.58,0,0,0-4.87-1.4,3.63,3.63,0,0,0-.3,1.4h5.17"/><path id="M-8" data-name="M" class="cls-2" d="M914.47,429.19c-3.92-.8-2.66,4.57-2.86,8.18H910l0-9.53h1.5a12.11,12.11,0,0,0,.1,2c.31-1.35,1.16-2.46,2.92-2.05v1.45"/><path id="ah-5" data-name="ah" class="cls-2" d="M921.49,430.19c-.15-1.7-4.32-1.9-4.37,0,.76,2.66,5.77.61,6,4.52s-7.53,3.71-7.88.4l1.4-.25c.2,1.81,4.87,2.26,4.92,0-.5-2.81-5.67-.75-5.92-4.51-.2-2.86,4.11-3.17,6.12-2.11a2.51,2.51,0,0,1,1.2,1.75"/></g><g id="p-3" data-name="p"><path id="N-4" data-name="N" class="cls-2" d="M933.83,425.63c-1.55-.45-2.1.5-1.9,2.21h1.9V429h-1.9v8.38h-1.56V429H929v-1.15h1.35c-.35-2.61.85-4.12,3.46-3.42v1.21"/><path id="O-5" data-name="O" class="cls-2" d="M938.8,427.64c3.11-.05,4.26,1.85,4.26,5s-1.35,5-4.31,5-4.16-2-4.21-5C934.54,429.29,935.94,427.64,938.8,427.64Zm0,8.73c2.21.05,2.66-1.56,2.66-3.77s-.4-3.76-2.56-3.76-2.66,1.61-2.66,3.76.5,3.72,2.56,3.77"/><path id="M-9" data-name="M" class="cls-2" d="M949.54,429.19c-3.92-.8-2.66,4.57-2.86,8.18h-1.61l-.05-9.53h1.51a12.11,12.11,0,0,0,.1,2c.3-1.35,1.15-2.46,2.91-2.05v1.45"/></g><g id="q-6" data-name="q"><path id="ab-3" data-name="ab" class="cls-2" d="M960.58,427.64c2.66,0,3.46,1.95,3.51,4.91,0,3.31-1.16,5-3.51,5-1.56-.05-2.46-.55-3-1.71l-.1,1.51H956l0-13.1h1.61v5.07A2.82,2.82,0,0,1,960.58,427.64Zm-.41,8.73c2,0,2.26-1.71,2.26-3.77s-.25-3.76-2.26-3.71-2.55,1.61-2.55,3.81.5,3.67,2.55,3.67"/><path id="O-6" data-name="O" class="cls-2" d="M969.86,427.64c3.11-.05,4.26,1.85,4.26,5s-1.35,5-4.31,5-4.17-2-4.22-5C965.59,429.29,967,427.64,969.86,427.64Zm-.05,8.73c2.21.05,2.66-1.56,2.66-3.77s-.4-3.76-2.56-3.76-2.66,1.61-2.66,3.76.5,3.72,2.56,3.77"/><path id="Y-7" data-name="Y" class="cls-2" d="M977.84,435c-.1,1.21.9,1.46,1.9,1.11v1.2c-1.65.5-3.51.25-3.51-2V429h-1.1v-1.15h1.2l.45-2.16h1.06v2.16h1.75V429h-1.75v6"/><path id="al-3" data-name="al" class="cls-2" d="M985.21,428.89c-3.61,0-2.21,5.12-2.46,8.48h-1.6v-13.1h1.6l0,5.17a3.19,3.19,0,0,1,3.06-1.8c4.47,0,2.66,5.82,3,9.73h-1.6V431.3c.1-1.61-.4-2.46-2-2.41"/></g><g id="r-4" data-name="r"><path id="am-3" data-name="am" class="cls-2" d="M850.47,449.56c-.25-2.41-6.17-2.71-6.22.1.7,3.77,7.92.71,8.17,6,.15,3.92-6.07,4.37-8.78,2.76a3.57,3.57,0,0,1-1.65-2.3l1.65-.36c.25,2.81,7.08,3.17,7.08-.05,0-3.91-7.78-.7-8.13-5.92-.25-4.11,7.27-4.21,9-1.7a4.74,4.74,0,0,1,.55,1.25"/><path id="X-10" data-name="X" class="cls-2" d="M854.43,447.46V446H856v1.51Zm0,11.59v-9.54H856v9.54h-1.61"/><path id="R-5" data-name="R" class="cls-2" d="M863.06,449.31c4.47-.2,2.66,5.82,3,9.74h-1.6V453c0-1.55-.41-2.45-2-2.4-3.61.1-2.21,5.11-2.46,8.48h-1.61l-.05-9.54h1.51a8.19,8.19,0,0,0,.1,1.61,3.17,3.17,0,0,1,3.06-1.81"/><path id="ae-4" data-name="ae" class="cls-2" d="M876.11,449.51c-.51,6.27,2,14.7-5.52,13.1a2.86,2.86,0,0,1-2.21-2.16l1.6-.25c.76,2.36,5,1.61,4.47-1.41v-1.5a3.17,3.17,0,0,1-3.06,1.81c-2.71,0-3.41-2.06-3.41-4.82s.8-4.87,3.56-4.92a3.21,3.21,0,0,1,3,1.76c0-.5,0-1.16.1-1.61Zm-4.17,8.43c1.81,0,2.51-1.6,2.51-3.66s-.7-3.76-2.51-3.76c-2,0-2.31,1.7-2.31,3.76s.3,3.66,2.31,3.66"/><path id="W-7" data-name="W" class="cls-2" d="M878.46,459.05V446h1.61v13.1h-1.61"/><path id="L-10" data-name="L" class="cls-2" d="M886.24,449.31c3.16,0,4.32,2.11,4.22,5.32h-6.78c0,2,.71,3.36,2.66,3.41a2.33,2.33,0,0,0,2.46-1.45l1.41.4a3.79,3.79,0,0,1-3.87,2.26c-2.91,0-4.41-1.86-4.36-5S883.28,449.31,886.24,449.31Zm2.61,4.07A2.58,2.58,0,0,0,884,452a3.64,3.64,0,0,0-.3,1.41h5.17"/></g><g id="s-2" data-name="s"><path id="T-4" data-name="T" class="cls-2" d="M908,459a3.74,3.74,0,0,1-3.87-.91c-2,2-7.47,1.61-7.22-2.26.15-2.15,1.45-3.06,3-3.81-1.26-2-.85-5.72,2.36-5.42,1.75.15,3,.75,3,2.51,0,2.21-2,2.66-3.56,3.46a20.51,20.51,0,0,0,2.55,3.62,9.72,9.72,0,0,0,1.51-3.62l1.3.4a13,13,0,0,1-1.9,4.12,2.82,2.82,0,0,0,2.86.75Zm-6.88-7.48c1.26-.5,2.61-.9,2.81-2.41a1.48,1.48,0,0,0-1.65-1.45C900.19,447.61,900.34,450.11,901.14,451.47Zm-2.76,4.26c-.15,2.56,3.57,2.91,4.92,1.41a23.1,23.1,0,0,1-2.81-4,3,3,0,0,0-2.11,2.61"/></g><g id="t-5" data-name="t"><path id="ac-4" data-name="ac" class="cls-2" d="M924,450.06a3.53,3.53,0,0,0-3.66-2.25c-3,0-4.36,2-4.36,5s1.45,5.07,4.46,5.07c2.16,0,3.11-1.2,3.91-2.61l1.36.7a5.52,5.52,0,0,1-5.37,3.32c-4,0-5.87-2.51-6.07-6.48-.3-5.21,5-7.67,9.38-5.57a4.09,4.09,0,0,1,2,2.31"/><path id="O-7" data-name="O" class="cls-2" d="M931.35,449.31c3.11-.05,4.26,1.86,4.26,5s-1.35,5-4.31,5-4.17-2-4.22-5C927.08,451,928.49,449.31,931.35,449.31ZM931.3,458c2.21,0,2.66-1.55,2.66-3.76s-.4-3.76-2.56-3.76-2.66,1.6-2.66,3.76.5,3.71,2.56,3.76"/><path id="P-4" data-name="P" class="cls-2" d="M946.9,450.57c-3.36.15-1.9,5.26-2.2,8.48h-1.56V453c0-1.45-.25-2.5-1.76-2.4-3.31.2-1.9,5.21-2.2,8.48h-1.56l0-9.54h1.51a8.19,8.19,0,0,0,.1,1.61c.5-2.21,5-2.51,5.37,0a3.06,3.06,0,0,1,2.91-1.81c4.26-.1,2.35,6,2.75,9.74h-1.55V453c0-1.45-.25-2.45-1.76-2.4"/><path id="an-2" data-name="an" class="cls-2" d="M957.14,449.31c2.76.05,3.51,2.06,3.51,4.92s-.8,4.92-3.51,5a3.08,3.08,0,0,1-3-1.71l0,5.27h-1.61l-.05-13.3h1.56l.1,1.51A3,3,0,0,1,957.14,449.31Zm-.4,8.73c2,0,2.26-1.7,2.26-3.76s-.31-3.66-2.26-3.71c-2.11,0-2.56,1.6-2.56,3.81s.5,3.66,2.56,3.66"/><path id="Q-7" data-name="Q" class="cls-2" d="M968.48,457.24a3.73,3.73,0,0,1-3.41,2,2.68,2.68,0,0,1-2.91-2.86c0-3.21,3.16-3.16,6.27-3.16.15-1.76-.45-2.71-2.06-2.71-1.2.05-2.06.35-2.11,1.55l-1.65-.15c.25-1.86,1.65-2.61,3.81-2.61s3.61,1,3.61,3.21v4.12c0,1,.36,1.6,1.41,1.35v1C969.88,459.45,968.38,458.9,968.48,457.24Zm-4.67-.85a1.51,1.51,0,0,0,1.61,1.65c2.06-.15,3.16-1.45,3-3.71-2.16.1-4.62-.25-4.62,2.06"/><path id="M-10" data-name="M" class="cls-2" d="M977.16,450.87c-3.91-.81-2.66,4.56-2.86,8.18h-1.61l-.05-9.54h1.51a12.24,12.24,0,0,0,.1,2c.3-1.36,1.15-2.46,2.91-2.06v1.46"/><path id="L-11" data-name="L" class="cls-2" d="M982.43,449.31c3.16,0,4.31,2.11,4.21,5.32h-6.77c0,2,.7,3.36,2.66,3.41a2.34,2.34,0,0,0,2.46-1.45l1.4.4a3.78,3.78,0,0,1-3.86,2.26c-2.91,0-4.42-1.86-4.37-5S979.47,449.31,982.43,449.31Zm2.61,4.07a2.58,2.58,0,0,0-4.87-1.41,3.64,3.64,0,0,0-.3,1.41H985"/></g><g id="u-3" data-name="u"><path id="ao-2" data-name="ao" class="cls-2" d="M897.33,480.72h-1.71l-5.06-12.44h1.75l4.17,10.94,4.16-10.94h1.81"/><path id="X-11" data-name="X" class="cls-2" d="M903.35,469.13v-1.5H905v1.5Zm0,11.59v-9.53H905v9.53h-1.61"/><path id="L-12" data-name="L" class="cls-2" d="M911.13,471c3.16,0,4.31,2.1,4.21,5.32h-6.77c0,2,.7,3.36,2.66,3.41a2.33,2.33,0,0,0,2.46-1.46l1.4.4c-.55,1.41-1.85,2.26-3.86,2.26-2.91,0-4.42-1.85-4.37-5S908.17,471,911.13,471Zm2.61,4.06a2.58,2.58,0,0,0-4.87-1.4,3.63,3.63,0,0,0-.3,1.4h5.17"/><path id="ap-2" data-name="ap" class="cls-2" d="M926.48,480.72h-1.8l-2-8.23-2.06,8.23h-1.8l-2.71-9.53h1.6l2,8.23,2.16-8.23h1.7l2.06,8.23,2.11-8.23h1.55"/><path id="ah-6" data-name="ah" class="cls-2" d="M935.91,473.55c-.15-1.71-4.31-1.91-4.36,0,.75,2.66,5.77.6,6,4.51s-7.53,3.71-7.88.4l1.41-.25c.2,1.81,4.86,2.26,4.92,0-.51-2.81-5.67-.75-5.93-4.51-.2-2.86,4.12-3.16,6.13-2.11a2.51,2.51,0,0,1,1.2,1.76"/></g><path class="cls-3" d="M875.38,361.19v26.46"/><path class="cls-4" d="M876,361.22H874.8v-.61H876Z"/><path class="cls-5" d="M875.38,404.79,870,388.22h10.77Z"/><path class="cls-3" d="M955.89,406.09V379.65"/><path class="cls-4" d="M956.47,406.67H955.3v-.61h1.17Z"/><path class="cls-5" d="M955.89,362.49l5.38,16.56H950.51Z"/><path class="cls-1" d="M1180.81,416a9.28,9.28,0,0,1,9.29-9.29h144a9.28,9.28,0,0,1,9.29,9.29v78.26a9.3,9.3,0,0,1-9.29,9.29h-144a9.3,9.3,0,0,1-9.29-9.29Z"/><g id="m-11" data-name="m"><path id="ai-4" data-name="ai" class="cls-2" d="M1221.65,459.05V446.6H1231V448h-7.73v4h7.23v1.36h-7.23v4.36h8.13v1.36h-9.79"/><path id="aj-4" data-name="aj" class="cls-2" d="M1236.46,449.31a3.18,3.18,0,0,1,3,1.66l0-5h1.6l0,13.1h-1.5a13.55,13.55,0,0,0-.15-1.56,2.87,2.87,0,0,1-3,1.76c-2.66,0-3.47-2-3.52-4.92C1232.94,451,1234.1,449.31,1236.46,449.31Zm.45,1.21c-2,0-2.31,1.7-2.31,3.76s.3,3.71,2.26,3.71c2.11,0,2.56-1.6,2.56-3.81s-.45-3.71-2.51-3.66"/><path id="X-12" data-name="X" class="cls-2" d="M1243.43,447.46V446H1245v1.51Zm0,11.59v-9.54H1245v9.54h-1.61"/><path id="Y-8" data-name="Y" class="cls-2" d="M1249.15,456.69c-.1,1.2.9,1.45,1.91,1.1V459c-1.66.5-3.51.25-3.51-2v-6.37h-1.11v-1.16h1.21l.45-2.16h1.05v2.16h1.76v1.16h-1.76v6"/></g><g id="n-5" data-name="n"><path id="ak-4" data-name="ak" class="cls-2" d="M1259.39,448v4.61h6.92V454h-6.92v5h-1.66V446.6h8.78V448h-7.12"/><path id="X-13" data-name="X" class="cls-2" d="M1268.42,447.46V446h1.6v1.51Zm0,11.59v-9.54h1.6v9.54h-1.6"/><path id="W-8" data-name="W" class="cls-2" d="M1272.38,459.05V446H1274v13.1h-1.61"/><path id="Y-9" data-name="Y" class="cls-2" d="M1278.1,456.69c-.1,1.2.91,1.45,1.91,1.1V459c-1.66.5-3.51.25-3.51-2v-6.37h-1.11v-1.16h1.21l.45-2.16h1v2.16h1.76v1.16h-1.76v6"/><path id="L-13" data-name="L" class="cls-2" d="M1285.18,449.31c3.16,0,4.31,2.11,4.21,5.32h-6.77c0,2,.7,3.36,2.66,3.41a2.35,2.35,0,0,0,2.46-1.45l1.4.4a3.78,3.78,0,0,1-3.86,2.26c-2.91,0-4.42-1.86-4.37-5S1282.22,449.31,1285.18,449.31Zm2.61,4.07a2.58,2.58,0,0,0-4.87-1.41,3.64,3.64,0,0,0-.3,1.41h5.17"/><path id="M-12" data-name="M" class="cls-2" d="M1295.91,450.87c-3.91-.81-2.66,4.56-2.86,8.18h-1.6l0-9.54h1.5a12.24,12.24,0,0,0,.1,2c.3-1.36,1.16-2.46,2.91-2.06v1.46"/><path id="ah-7" data-name="ah" class="cls-2" d="M1302.94,451.87c-.15-1.71-4.32-1.91-4.37,0,.76,2.66,5.77.6,6,4.52s-7.52,3.71-7.87.4l1.4-.25c.2,1.8,4.87,2.25,4.92,0-.5-2.81-5.67-.76-5.92-4.52-.2-2.86,4.11-3.16,6.12-2.11a2.53,2.53,0,0,1,1.2,1.76"/></g><path class="cls-3" d="M1298.05,361.19v26.46"/><path class="cls-4" d="M1298.64,361.22h-1.17v-.61h1.17Z"/><path class="cls-5" d="M1298.05,404.79l-5.37-16.57h10.76Z"/><path class="cls-3" d="M1228.38,406.09V379.65"/><path class="cls-4" d="M1229,406.67h-1.16v-.61H1229Z"/><path class="cls-5" d="M1228.38,362.49l5.39,16.56H1223Z"/><path class="cls-1" d="M1006.63,416a9.28,9.28,0,0,1,9.29-9.29h144a9.28,9.28,0,0,1,9.29,9.29v78.26a9.3,9.3,0,0,1-9.29,9.29h-144a9.3,9.3,0,0,1-9.29-9.29Z"/><g id="m-13" data-name="m"><path id="ai-5" data-name="ai" class="cls-2" d="M1014.39,437.37V424.93h9.38v1.4H1016v4h7.23v1.35H1016V436h8.13v1.35h-9.78"/><path id="aj-5" data-name="aj" class="cls-2" d="M1029.19,427.64a3.18,3.18,0,0,1,3,1.65l0-5h1.6l0,13.1h-1.5a14,14,0,0,0-.15-1.56,2.86,2.86,0,0,1-3,1.76c-2.66,0-3.47-2-3.52-4.92C1025.67,429.34,1026.83,427.64,1029.19,427.64Zm.45,1.2c-2,0-2.31,1.71-2.31,3.76s.3,3.72,2.26,3.72c2.11,0,2.56-1.61,2.56-3.82s-.45-3.71-2.51-3.66"/><path id="X-14" data-name="X" class="cls-2" d="M1036.16,425.78v-1.51h1.61v1.51Zm0,11.59v-9.53h1.61v9.53h-1.61"/><path id="Y-10" data-name="Y" class="cls-2" d="M1041.88,435c-.1,1.21.9,1.46,1.91,1.11v1.2c-1.66.5-3.51.25-3.51-2V429h-1.11v-1.15h1.21l.45-2.16h1.05v2.16h1.76V429h-1.76v6"/></g><g id="o-8" data-name="o"><path id="ak-5" data-name="ak" class="cls-2" d="M1052.12,426.33V431H1059v1.4h-6.92v5h-1.66V424.93h8.78v1.4h-7.12"/><path id="X-15" data-name="X" class="cls-2" d="M1061.15,425.78v-1.51h1.6v1.51Zm0,11.59v-9.53h1.6v9.53h-1.6"/><path id="W-9" data-name="W" class="cls-2" d="M1065.11,437.37v-13.1h1.61v13.1h-1.61"/><path id="Y-11" data-name="Y" class="cls-2" d="M1070.83,435c-.1,1.21.91,1.46,1.91,1.11v1.2c-1.66.5-3.51.25-3.51-2V429h-1.11v-1.15h1.21l.45-2.16h1v2.16h1.76V429h-1.76v6"/><path id="L-14" data-name="L" class="cls-2" d="M1077.91,427.64c3.16,0,4.31,2.1,4.21,5.31h-6.77c0,2,.7,3.37,2.66,3.42a2.35,2.35,0,0,0,2.46-1.46l1.4.4c-.55,1.41-1.86,2.26-3.86,2.26-2.91,0-4.42-1.86-4.37-5S1075,427.64,1077.91,427.64Zm2.61,4.06a2.58,2.58,0,0,0-4.87-1.4,3.63,3.63,0,0,0-.3,1.4h5.17"/><path id="M-14" data-name="M" class="cls-2" d="M1088.64,429.19c-3.91-.8-2.65,4.57-2.86,8.18h-1.6l0-9.53h1.5a12.11,12.11,0,0,0,.1,2c.31-1.35,1.16-2.46,2.91-2.05v1.45"/><path id="ah-8" data-name="ah" class="cls-2" d="M1095.67,430.19c-.15-1.7-4.32-1.9-4.37,0,.76,2.66,5.77.61,6,4.52s-7.52,3.71-7.87.4l1.4-.25c.2,1.81,4.87,2.26,4.92,0-.5-2.81-5.67-.75-5.92-4.51-.2-2.86,4.11-3.17,6.12-2.11a2.51,2.51,0,0,1,1.2,1.75"/></g><g id="p-5" data-name="p"><path id="N-6" data-name="N" class="cls-2" d="M1108,425.63c-1.55-.45-2.11.5-1.9,2.21h1.9V429h-1.9v8.38h-1.56V429h-1.35v-1.15h1.35c-.35-2.61.85-4.12,3.46-3.42v1.21"/><path id="O-9" data-name="O" class="cls-2" d="M1113,427.64c3.11-.05,4.26,1.85,4.26,5s-1.35,5-4.31,5-4.17-2-4.22-5C1108.71,429.29,1110.12,427.64,1113,427.64Zm0,8.73c2.21.05,2.66-1.56,2.66-3.77s-.4-3.76-2.56-3.76-2.66,1.61-2.66,3.76.5,3.72,2.56,3.77"/><path id="M-15" data-name="M" class="cls-2" d="M1123.72,429.19c-3.92-.8-2.66,4.57-2.86,8.18h-1.61l0-9.53h1.51a12.11,12.11,0,0,0,.1,2c.3-1.35,1.15-2.46,2.91-2.05v1.45"/></g><g id="q-8" data-name="q"><path id="ab-4" data-name="ab" class="cls-2" d="M1134.76,427.64c2.65,0,3.46,1.95,3.51,4.91,0,3.31-1.16,5-3.51,5-1.56-.05-2.46-.55-3-1.71l-.1,1.51h-1.55l0-13.1h1.6v5.07A2.84,2.84,0,0,1,1134.76,427.64Zm-.41,8.73c2,0,2.26-1.71,2.26-3.77s-.25-3.76-2.26-3.71-2.56,1.61-2.56,3.81.51,3.67,2.56,3.67"/><path id="O-10" data-name="O" class="cls-2" d="M1144,427.64c3.11-.05,4.26,1.85,4.26,5s-1.35,5-4.31,5-4.17-2-4.22-5C1139.77,429.29,1141.18,427.64,1144,427.64Zm0,8.73c2.21.05,2.66-1.56,2.66-3.77s-.4-3.76-2.56-3.76-2.66,1.61-2.66,3.76.5,3.72,2.56,3.77"/><path id="Y-12" data-name="Y" class="cls-2" d="M1152,435c-.1,1.21.9,1.46,1.9,1.11v1.2c-1.65.5-3.51.25-3.51-2V429h-1.1v-1.15h1.2l.45-2.16H1152v2.16h1.75V429H1152v6"/><path id="al-4" data-name="al" class="cls-2" d="M1159.39,428.89c-3.61,0-2.21,5.12-2.46,8.48h-1.6v-13.1h1.6l0,5.17a3.18,3.18,0,0,1,3.06-1.8c4.47,0,2.66,5.82,3,9.73h-1.6V431.3c.1-1.61-.4-2.46-2-2.41"/></g><g id="r-6" data-name="r"><path id="am-4" data-name="am" class="cls-2" d="M1024.65,449.56c-.25-2.41-6.18-2.71-6.23.1.71,3.77,7.93.71,8.18,6,.15,3.92-6.07,4.37-8.78,2.76a3.57,3.57,0,0,1-1.65-2.3l1.65-.36c.25,2.81,7.08,3.17,7.08-.05,0-3.91-7.78-.7-8.13-5.92-.25-4.11,7.27-4.21,9-1.7a4.74,4.74,0,0,1,.55,1.25"/><path id="X-16" data-name="X" class="cls-2" d="M1028.61,447.46V446h1.61v1.51Zm0,11.59v-9.54h1.61v9.54h-1.61"/><path id="R-7" data-name="R" class="cls-2" d="M1037.24,449.31c4.47-.2,2.66,5.82,3,9.74h-1.61V453c0-1.55-.4-2.45-2-2.4-3.61.1-2.21,5.11-2.46,8.48h-1.61l0-9.54h1.51a8.19,8.19,0,0,0,.1,1.61,3.16,3.16,0,0,1,3.06-1.81"/><path id="ae-5" data-name="ae" class="cls-2" d="M1050.29,449.51c-.51,6.27,2,14.7-5.52,13.1a2.86,2.86,0,0,1-2.21-2.16l1.6-.25c.76,2.36,5,1.61,4.47-1.41v-1.5a3.18,3.18,0,0,1-3.06,1.81c-2.71,0-3.41-2.06-3.41-4.82s.8-4.87,3.56-4.92a3.22,3.22,0,0,1,3,1.76c0-.5,0-1.16.1-1.61Zm-4.17,8.43c1.81,0,2.51-1.6,2.51-3.66s-.7-3.76-2.51-3.76-2.31,1.7-2.31,3.76.3,3.66,2.31,3.66"/><path id="W-10" data-name="W" class="cls-2" d="M1052.64,459.05V446h1.61v13.1h-1.61"/><path id="L-15" data-name="L" class="cls-2" d="M1060.42,449.31c3.16,0,4.32,2.11,4.22,5.32h-6.78c0,2,.7,3.36,2.66,3.41a2.33,2.33,0,0,0,2.46-1.45l1.4.4c-.55,1.4-1.85,2.26-3.86,2.26-2.91,0-4.41-1.86-4.36-5S1057.46,449.31,1060.42,449.31Zm2.61,4.07a2.58,2.58,0,0,0-4.87-1.41,3.64,3.64,0,0,0-.3,1.41H1063"/></g><g id="s-3" data-name="s"><path id="T-6" data-name="T" class="cls-2" d="M1082.2,459a3.74,3.74,0,0,1-3.87-.91c-2,2-7.47,1.61-7.22-2.26.15-2.15,1.45-3.06,3-3.81-1.26-2-.85-5.72,2.36-5.42,1.75.15,3,.75,3,2.51,0,2.21-2,2.66-3.57,3.46a21.1,21.1,0,0,0,2.56,3.62,9.72,9.72,0,0,0,1.51-3.62l1.3.4a13,13,0,0,1-1.9,4.12,2.82,2.82,0,0,0,2.86.75Zm-6.88-7.48c1.26-.5,2.61-.9,2.81-2.41a1.48,1.48,0,0,0-1.65-1.45C1074.37,447.61,1074.52,450.11,1075.32,451.47Zm-2.76,4.26c-.15,2.56,3.57,2.91,4.92,1.41a23.1,23.1,0,0,1-2.81-4,3,3,0,0,0-2.11,2.61"/></g><g id="t-7" data-name="t"><path id="ac-5" data-name="ac" class="cls-2" d="M1098.15,450.06a3.53,3.53,0,0,0-3.66-2.25c-3,0-4.37,2-4.37,5s1.46,5.07,4.47,5.07c2.16,0,3.11-1.2,3.91-2.61l1.36.7a5.52,5.52,0,0,1-5.37,3.32c-4,0-5.87-2.51-6.07-6.48-.3-5.21,5-7.67,9.38-5.57a4.12,4.12,0,0,1,2,2.31"/><path id="O-11" data-name="O" class="cls-2" d="M1105.53,449.31c3.11-.05,4.26,1.86,4.26,5s-1.35,5-4.31,5-4.17-2-4.22-5C1101.26,451,1102.67,449.31,1105.53,449.31Zm0,8.73c2.21,0,2.66-1.55,2.66-3.76s-.4-3.76-2.56-3.76-2.66,1.6-2.66,3.76.5,3.71,2.56,3.76"/><path id="P-6" data-name="P" class="cls-2" d="M1121.08,450.57c-3.36.15-1.9,5.26-2.21,8.48h-1.55V453c0-1.45-.25-2.5-1.76-2.4-3.31.2-1.9,5.21-2.2,8.48h-1.56l0-9.54h1.51a8.19,8.19,0,0,0,.1,1.61c.5-2.21,5-2.51,5.36,0a3.08,3.08,0,0,1,2.91-1.81c4.27-.1,2.36,6,2.76,9.74h-1.55V453c0-1.45-.25-2.45-1.76-2.4"/><path id="an-3" data-name="an" class="cls-2" d="M1131.32,449.31c2.76.05,3.51,2.06,3.51,4.92s-.8,4.92-3.51,5a3.08,3.08,0,0,1-3-1.71l0,5.27h-1.61l0-13.3h1.56l.1,1.51A3,3,0,0,1,1131.32,449.31Zm-.4,8.73c2,0,2.25-1.7,2.25-3.76s-.3-3.66-2.25-3.71c-2.11,0-2.56,1.6-2.56,3.81s.5,3.66,2.56,3.66"/><path id="Q-9" data-name="Q" class="cls-2" d="M1142.66,457.24a3.73,3.73,0,0,1-3.41,2,2.68,2.68,0,0,1-2.91-2.86c0-3.21,3.16-3.16,6.27-3.16.15-1.76-.45-2.71-2.06-2.71-1.2.05-2.06.35-2.11,1.55l-1.65-.15c.25-1.86,1.65-2.61,3.81-2.61s3.61,1,3.61,3.21v4.12c0,1,.35,1.6,1.41,1.35v1C1144.06,459.45,1142.56,458.9,1142.66,457.24Zm-4.67-.85a1.51,1.51,0,0,0,1.61,1.65c2.05-.15,3.16-1.45,3-3.71-2.16.1-4.62-.25-4.62,2.06"/><path id="M-16" data-name="M" class="cls-2" d="M1151.34,450.87c-3.92-.81-2.66,4.56-2.86,8.18h-1.61l0-9.54h1.51a12.24,12.24,0,0,0,.1,2c.3-1.36,1.15-2.46,2.91-2.06v1.46"/><path id="L-16" data-name="L" class="cls-2" d="M1156.61,449.31c3.16,0,4.31,2.11,4.21,5.32h-6.77c0,2,.7,3.36,2.66,3.41a2.35,2.35,0,0,0,2.46-1.45l1.4.4a3.78,3.78,0,0,1-3.86,2.26c-2.91,0-4.42-1.86-4.37-5S1153.65,449.31,1156.61,449.31Zm2.61,4.07a2.58,2.58,0,0,0-4.87-1.41,3.64,3.64,0,0,0-.3,1.41h5.17"/></g><g id="u-4" data-name="u"><path id="ao-3" data-name="ao" class="cls-2" d="M1071.51,480.72h-1.71l-5.06-12.44h1.75l4.17,10.94,4.16-10.94h1.81"/><path id="X-17" data-name="X" class="cls-2" d="M1077.53,469.13v-1.5h1.61v1.5Zm0,11.59v-9.53h1.61v9.53h-1.61"/><path id="L-17" data-name="L" class="cls-2" d="M1085.31,471c3.16,0,4.31,2.1,4.21,5.32h-6.77c0,2,.7,3.36,2.66,3.41a2.33,2.33,0,0,0,2.46-1.46l1.4.4c-.55,1.41-1.85,2.26-3.86,2.26-2.91,0-4.42-1.85-4.37-5S1082.35,471,1085.31,471Zm2.61,4.06a2.58,2.58,0,0,0-4.87-1.4,3.63,3.63,0,0,0-.3,1.4h5.17"/><path id="ap-3" data-name="ap" class="cls-2" d="M1100.66,480.72h-1.81l-2-8.23-2.06,8.23H1093l-2.7-9.53h1.6l2,8.23,2.15-8.23h1.71l2.06,8.23,2.11-8.23h1.55"/><path id="ah-9" data-name="ah" class="cls-2" d="M1110.09,473.55c-.15-1.71-4.31-1.91-4.36,0,.75,2.66,5.77.6,6,4.51s-7.53,3.71-7.88.4l1.41-.25c.2,1.81,4.86,2.26,4.91,0-.5-2.81-5.67-.75-5.92-4.51-.2-2.86,4.12-3.16,6.13-2.11a2.51,2.51,0,0,1,1.2,1.76"/></g><path class="cls-3" d="M1050.34,361.19v26.46"/><path class="cls-4" d="M1050.92,361.22h-1.16v-.61h1.16Z"/><path class="cls-5" d="M1050.34,404.79,1045,388.22h10.77Z"/><path class="cls-3" d="M1124.65,406.09V379.65"/><path class="cls-4" d="M1125.23,406.67h-1.16v-.61h1.16Z"/><path class="cls-5" d="M1124.65,362.49l5.39,16.56h-10.77Z"/><g id="Original-Flow-2" data-name="Original-Flow" class="cls-6"><text class="cls-7" transform="translate(1085.01 43.54)">New User F<tspan class="cls-8" x="162.18" y="0">l</tspan><tspan class="cls-9" x="169.98" y="0">ow</tspan></text></g><line class="cls-10" x1="784.95" y1="687.78" x2="784.95" y2="19.22"/></svg>