<?xml version="1.0" encoding="UTF-8"?>
<svg width="300px" height="499px" viewBox="0 0 300 499" version="1.1" xmlns="http://www.w3.org/2000/svg" xmlns:xlink="http://www.w3.org/1999/xlink">
    <!-- Generator: Sketch 64 (93537) - https://sketch.com -->
    <title>Group 11</title>
    <desc>Created with Sketch.</desc>
    <g id="Page-1" stroke="none" stroke-width="1" fill="none" fill-rule="evenodd">
        <g id="STI" transform="translate(-570.000000, -9339.000000)">
            <g id="Group-11" transform="translate(570.000000, 9339.000000)">
                <rect id="Rectangle-Copy-6" fill="#FFFFFF" x="0" y="0" width="300" height="499" rx="4"></rect>
                <g id="filter2" transform="translate(28.000000, 19.000000)">
                    <g id="Mobile-Providers" transform="translate(0.000000, 142.000000)">
                        <g id="Group-36" transform="translate(0.000000, 22.524272)" fill="#EAEDF4">
                            <rect id="Rectangle-3" x="0" y="0" width="243" height="93.4757282" rx="2"></rect>
                        </g>
                        <g id="Group-37" transform="translate(4.520930, 25.902913)">
                            <g id="provider">
                                <g id="Group-3">
                                    <path d="M67.8139535,0.563106796 L4.52093023,0.563106796 C3.42856238,0.563106796 2.43960889,1.00430192 1.72374737,1.71761794 C1.00788584,2.43093394 0.565116279,3.41637084 0.565116279,4.50485437 L0.565116279,22.5242718 C0.565116279,23.6127554 1.00788584,24.5981923 1.72374737,25.3115082 C2.43960889,26.0248243 3.42856238,26.4660194 4.52093023,26.4660194 L67.8139535,26.4660194 C68.9063213,26.4660194 69.8952748,26.0248243 70.6111363,25.3115082 C71.3269979,24.5981923 71.7697674,23.6127554 71.7697674,22.5242718 L71.7697674,4.50485437 C71.7697674,3.41637084 71.3269979,2.43093394 70.6111363,1.71761794 C69.8952748,1.00430192 68.9063213,0.563106796 67.8139535,0.563106796 Z" id="Rectangle" stroke="#DCDDE4" fill="#FFFFFF" fill-rule="nonzero"></path>
                                    <text id="AT&amp;T" fill="#34384F" font-family="Gotham-Light, Gotham" font-size="12" font-weight="300">
                                        <tspan x="20.344186" y="18.0145631">AT&amp;T</tspan>
                                    </text>
                                    <rect id="Rectangle-5" fill="#1E8FE1" fill-rule="nonzero" x="6.78139535" y="7.88349515" width="11.3023256" height="11.2621359" rx="1"></rect>
                                </g>
                                <g id="ic_close" transform="translate(58.772093, 10.699029)" fill="#979797" fill-rule="nonzero">
                                    <path d="M3.78385077,3.37779711 L6.68674409,0.485705662 C6.80028399,0.379403584 6.80706249,0.202233455 6.70030108,0.0891820387 C6.59523431,-0.0238693772 6.41560402,-0.0306187155 6.30206412,0.0756833622 C6.29698024,0.0807453659 6.29189636,0.084120035 6.28850711,0.0891820387 L3.3856138,2.98127349 L0.489498983,0.095931377 C0.382737582,-0.0188073735 0.204801915,-0.0238693772 0.0912620126,0.0807453659 C-0.0222778895,0.187047443 -0.0290563911,0.364217573 0.0777050093,0.477268989 C0.0827888856,0.482330992 0.0861781364,0.487392997 0.0912620126,0.490767666 L2.99246071,3.38285911 L0.0895673872,6.27157589 C-0.0239725149,6.37787797 -0.0307510165,6.5550481 0.076010384,6.66809951 C0.182771784,6.78115093 0.360707452,6.78790027 0.474247354,6.68159819 C0.47933123,6.67653618 0.484415107,6.67316152 0.487804358,6.66809951 L3.39069767,3.77600807 L6.29359099,6.66809951 C6.40035239,6.78115093 6.57828806,6.78790027 6.69182796,6.68159819 C6.80536786,6.57529611 6.81214637,6.39812598 6.70538496,6.28507456 C6.70030108,6.28001256 6.69691183,6.27495056 6.69182796,6.27157589 L3.78385077,3.37779711 Z" id="Shape"></path>
                                </g>
                            </g>
                            <g id="Group" transform="translate(74.595349, 0.000000)">
                                <g id="provider">
                                    <g id="Group-3">
                                        <path d="M81.3767442,0.563106796 L4.52093023,0.563106796 C3.42856238,0.563106796 2.43960889,1.00430192 1.72374737,1.71761794 C1.00788584,2.43093394 0.565116279,3.41637084 0.565116279,4.50485437 L0.565116279,22.5242718 C0.565116279,23.6127554 1.00788584,24.5981923 1.72374737,25.3115082 C2.43960889,26.0248243 3.42856238,26.4660194 4.52093023,26.4660194 L81.3767442,26.4660194 C82.469112,26.4660194 83.4580655,26.0248243 84.173927,25.3115082 C84.8897886,24.5981923 85.3325581,23.6127554 85.3325581,22.5242718 L85.3325581,4.50485437 C85.3325581,3.41637084 84.8897886,2.43093394 84.173927,1.71761794 C83.4580655,1.00430192 82.469112,0.563106796 81.3767442,0.563106796 Z" id="Rectangle" stroke="#DCDDE4" fill="#FFFFFF" fill-rule="nonzero"></path>
                                        <text id="Verizon" fill="#34384F" font-family="Gotham-Light, Gotham" font-size="12" font-weight="300">
                                            <tspan x="20.344186" y="18.0145631">Verizon</tspan>
                                        </text>
                                        <rect id="Rectangle-5" fill="#1E8FE1" fill-rule="nonzero" x="6.78139535" y="7.88349515" width="11.3023256" height="11.2621359" rx="1"></rect>
                                    </g>
                                    <g id="ic_close" transform="translate(72.334884, 10.699029)" fill="#979797" fill-rule="nonzero">
                                        <path d="M3.78385077,3.37779711 L6.68674409,0.485705662 C6.80028399,0.379403584 6.80706249,0.202233455 6.70030108,0.0891820387 C6.59523431,-0.0238693772 6.41560402,-0.0306187155 6.30206412,0.0756833622 C6.29698024,0.0807453659 6.29189636,0.084120035 6.28850711,0.0891820387 L3.3856138,2.98127349 L0.489498983,0.095931377 C0.382737582,-0.0188073735 0.204801915,-0.0238693772 0.0912620126,0.0807453659 C-0.0222778895,0.187047443 -0.0290563911,0.364217573 0.0777050093,0.477268989 C0.0827888856,0.482330992 0.0861781364,0.487392997 0.0912620126,0.490767666 L2.99246071,3.38285911 L0.0895673872,6.27157589 C-0.0239725149,6.37787797 -0.0307510165,6.5550481 0.076010384,6.66809951 C0.182771784,6.78115093 0.360707452,6.78790027 0.474247354,6.68159819 C0.47933123,6.67653618 0.484415107,6.67316152 0.487804358,6.66809951 L3.39069767,3.77600807 L6.29359099,6.66809951 C6.40035239,6.78115093 6.57828806,6.78790027 6.69182796,6.68159819 C6.80536786,6.57529611 6.81214637,6.39812598 6.70538496,6.28507456 C6.70030108,6.28001256 6.69691183,6.27495056 6.69182796,6.27157589 L3.78385077,3.37779711 Z" id="Shape"></path>
                                    </g>
                                </g>
                                <path d="M7.91162791,7.88349515 L16.9534884,7.88349515 C17.5776985,7.88349515 18.0837209,8.38771815 18.0837209,9.00970874 L18.0837209,18.0194175 C18.0837209,18.641408 17.5776985,19.1456311 16.9534884,19.1456311 L7.91162791,19.1456311 C7.2874177,19.1456311 6.78139535,18.641408 6.78139535,18.0194175 L6.78139535,9.00970874 C6.78139535,8.38771815 7.2874177,7.88349515 7.91162791,7.88349515 Z" id="Rectangle-5" fill="#C30016" fill-rule="nonzero"></path>
                            </g>
                            <g id="Group-Copy" transform="translate(0.000000, 29.281553)">
                                <g id="provider">
                                    <g id="Group-3">
                                        <path d="M72.9,0.563106796 L4.52093023,0.563106796 C3.42856238,0.563106796 2.43960889,1.00430192 1.72374737,1.71761794 C1.00788584,2.43093394 0.565116279,3.41637084 0.565116279,4.50485437 L0.565116279,22.5242718 C0.565116279,23.6127554 1.00788584,24.5981923 1.72374737,25.3115082 C2.43960889,26.0248243 3.42856238,26.4660194 4.52093023,26.4660194 L72.9,26.4660194 C73.9923678,26.4660194 74.9813213,26.0248243 75.6971828,25.3115082 C76.4130444,24.5981923 76.855814,23.6127554 76.855814,22.5242718 L76.855814,4.50485437 C76.855814,3.41637084 76.4130444,2.43093394 75.6971828,1.71761794 C74.9813213,1.00430192 73.9923678,0.563106796 72.9,0.563106796 Z" id="Rectangle" stroke="#DCDDE4" fill="#FFFFFF" fill-rule="nonzero"></path>
                                        <text id="Sprint" fill="#34384F" font-family="Gotham-Light, Gotham" font-size="12" font-weight="300">
                                            <tspan x="20.344186" y="18.0145631">Sprint</tspan>
                                        </text>
                                        <rect id="Rectangle-5" fill="#1E8FE1" fill-rule="nonzero" x="6.78139535" y="7.88349515" width="11.3023256" height="11.2621359" rx="1"></rect>
                                    </g>
                                    <g id="ic_close" transform="translate(63.858140, 10.699029)" fill="#979797" fill-rule="nonzero">
                                        <path d="M3.78385077,3.37779711 L6.68674409,0.485705662 C6.80028399,0.379403584 6.80706249,0.202233455 6.70030108,0.0891820387 C6.59523431,-0.0238693772 6.41560402,-0.0306187155 6.30206412,0.0756833622 C6.29698024,0.0807453659 6.29189636,0.084120035 6.28850711,0.0891820387 L3.3856138,2.98127349 L0.489498983,0.095931377 C0.382737582,-0.0188073735 0.204801915,-0.0238693772 0.0912620126,0.0807453659 C-0.0222778895,0.187047443 -0.0290563911,0.364217573 0.0777050093,0.477268989 C0.0827888856,0.482330992 0.0861781364,0.487392997 0.0912620126,0.490767666 L2.99246071,3.38285911 L0.0895673872,6.27157589 C-0.0239725149,6.37787797 -0.0307510165,6.5550481 0.076010384,6.66809951 C0.182771784,6.78115093 0.360707452,6.78790027 0.474247354,6.68159819 C0.47933123,6.67653618 0.484415107,6.67316152 0.487804358,6.66809951 L3.39069767,3.77600807 L6.29359099,6.66809951 C6.40035239,6.78115093 6.57828806,6.78790027 6.69182796,6.68159819 C6.80536786,6.57529611 6.81214637,6.39812598 6.70538496,6.28507456 C6.70030108,6.28001256 6.69691183,6.27495056 6.69182796,6.27157589 L3.78385077,3.37779711 Z" id="Shape"></path>
                                    </g>
                                </g>
                                <rect id="Rectangle-5" fill="#FDB319" fill-rule="nonzero" x="6.21627907" y="7.88349515" width="12.4325581" height="11.2621359" rx="1"></rect>
                            </g>
                            <g id="Group-Copy-2" transform="translate(80.246512, 29.281553)">
                                <g id="provider">
                                    <g id="Group-3">
                                        <path d="M92.6790698,0.563106796 L4.52093023,0.563106796 C3.42856238,0.563106796 2.43960889,1.00430192 1.72374737,1.71761794 C1.00788584,2.43093394 0.565116279,3.41637084 0.565116279,4.50485437 L0.565116279,22.5242718 C0.565116279,23.6127554 1.00788584,24.5981923 1.72374737,25.3115082 C2.43960889,26.0248243 3.42856238,26.4660194 4.52093023,26.4660194 L92.6790698,26.4660194 C93.7714376,26.4660194 94.7603911,26.0248243 95.4762526,25.3115082 C96.1921142,24.5981923 96.6348837,23.6127554 96.6348837,22.5242718 L96.6348837,4.50485437 C96.6348837,3.41637084 96.1921142,2.43093394 95.4762526,1.71761794 C94.7603911,1.00430192 93.7714376,0.563106796 92.6790698,0.563106796 Z" id="Rectangle" stroke="#DCDDE4" fill="#FFFFFF" fill-rule="nonzero"></path>
                                        <text id="T-Mobile" fill="#34384F" font-family="Gotham-Light, Gotham" font-size="12" font-weight="300">
                                            <tspan x="20.344186" y="18.0145631">T-Mobile</tspan>
                                        </text>
                                        <rect id="Rectangle-5" fill="#1E8FE1" fill-rule="nonzero" x="6.78139535" y="7.88349515" width="11.3023256" height="11.2621359" rx="1"></rect>
                                    </g>
                                    <g id="ic_close" transform="translate(83.637209, 10.699029)" fill="#979797" fill-rule="nonzero">
                                        <path d="M3.78385077,3.37779711 L6.68674409,0.485705662 C6.80028399,0.379403584 6.80706249,0.202233455 6.70030108,0.0891820387 C6.59523431,-0.0238693772 6.41560402,-0.0306187155 6.30206412,0.0756833622 C6.29698024,0.0807453659 6.29189636,0.084120035 6.28850711,0.0891820387 L3.3856138,2.98127349 L0.489498983,0.095931377 C0.382737582,-0.0188073735 0.204801915,-0.0238693772 0.0912620126,0.0807453659 C-0.0222778895,0.187047443 -0.0290563911,0.364217573 0.0777050093,0.477268989 C0.0827888856,0.482330992 0.0861781364,0.487392997 0.0912620126,0.490767666 L2.99246071,3.38285911 L0.0895673872,6.27157589 C-0.0239725149,6.37787797 -0.0307510165,6.5550481 0.076010384,6.66809951 C0.182771784,6.78115093 0.360707452,6.78790027 0.474247354,6.68159819 C0.47933123,6.67653618 0.484415107,6.67316152 0.487804358,6.66809951 L3.39069767,3.77600807 L6.29359099,6.66809951 C6.40035239,6.78115093 6.57828806,6.78790027 6.69182796,6.68159819 C6.80536786,6.57529611 6.81214637,6.39812598 6.70538496,6.28507456 C6.70030108,6.28001256 6.69691183,6.27495056 6.69182796,6.27157589 L3.78385077,3.37779711 Z" id="Shape"></path>
                                    </g>
                                </g>
                                <rect id="Rectangle-5" fill="#DE5AD0" fill-rule="nonzero" x="5.65116279" y="7.88349515" width="12.4325581" height="11.2621359" rx="1"></rect>
                            </g>
                            <g id="Group-Copy-3" transform="translate(0.000000, 58.563107)">
                                <g id="provider">
                                    <g id="Group-3">
                                        <path d="M108.502326,0.563106796 L4.52093023,0.563106796 C3.42856238,0.563106796 2.43960889,1.00430192 1.72374737,1.71761794 C1.00788584,2.43093394 0.565116279,3.41637084 0.565116279,4.50485437 L0.565116279,22.5242718 C0.565116279,23.6127554 1.00788584,24.5981923 1.72374737,25.3115082 C2.43960889,26.0248243 3.42856238,26.4660194 4.52093023,26.4660194 L108.502326,26.4660194 C109.594693,26.4660194 110.583647,26.0248243 111.299508,25.3115082 C112.01537,24.5981923 112.45814,23.6127554 112.45814,22.5242718 L112.45814,4.50485437 C112.45814,3.41637084 112.01537,2.43093394 111.299508,1.71761794 C110.583647,1.00430192 109.594693,0.563106796 108.502326,0.563106796 Z" id="Rectangle" stroke="#DCDDE4" fill="#FFFFFF" fill-rule="nonzero"></path>
                                        <text id="US-Cellular" fill="#34384F" font-family="Gotham-Light, Gotham" font-size="12" font-weight="300">
                                            <tspan x="20.344186" y="18.0145631">US Cellular</tspan>
                                        </text>
                                        <rect id="Rectangle-5" fill="#1E8FE1" fill-rule="nonzero" x="6.78139535" y="7.88349515" width="11.3023256" height="11.2621359" rx="1"></rect>
                                    </g>
                                    <g id="ic_close" transform="translate(99.460465, 10.699029)" fill="#979797" fill-rule="nonzero">
                                        <path d="M3.78385077,3.37779711 L6.68674409,0.485705662 C6.80028399,0.379403584 6.80706249,0.202233455 6.70030108,0.0891820387 C6.59523431,-0.0238693772 6.41560402,-0.0306187155 6.30206412,0.0756833622 C6.29698024,0.0807453659 6.29189636,0.084120035 6.28850711,0.0891820387 L3.3856138,2.98127349 L0.489498983,0.095931377 C0.382737582,-0.0188073735 0.204801915,-0.0238693772 0.0912620126,0.0807453659 C-0.0222778895,0.187047443 -0.0290563911,0.364217573 0.0777050093,0.477268989 C0.0827888856,0.482330992 0.0861781364,0.487392997 0.0912620126,0.490767666 L2.99246071,3.38285911 L0.0895673872,6.27157589 C-0.0239725149,6.37787797 -0.0307510165,6.5550481 0.076010384,6.66809951 C0.182771784,6.78115093 0.360707452,6.78790027 0.474247354,6.68159819 C0.47933123,6.67653618 0.484415107,6.67316152 0.487804358,6.66809951 L3.39069767,3.77600807 L6.29359099,6.66809951 C6.40035239,6.78115093 6.57828806,6.78790027 6.69182796,6.68159819 C6.80536786,6.57529611 6.81214637,6.39812598 6.70538496,6.28507456 C6.70030108,6.28001256 6.69691183,6.27495056 6.69182796,6.27157589 L3.78385077,3.37779711 Z" id="Shape"></path>
                                    </g>
                                </g>
                                <path d="M6.78139535,7.88349515 L16.9534884,7.88349515 C17.5776985,7.88349515 18.0837209,8.38771815 18.0837209,9.00970874 L18.0837209,18.0194175 C18.0837209,18.641408 17.5776985,19.1456311 16.9534884,19.1456311 L6.78139535,19.1456311 C6.15718514,19.1456311 5.65116279,18.641408 5.65116279,18.0194175 L5.65116279,9.00970874 C5.65116279,8.38771815 6.15718514,7.88349515 6.78139535,7.88349515 Z" id="Rectangle-5" fill="#2EE2C6" fill-rule="nonzero"></path>
                            </g>
                        </g>
                        <g id="ic_expand" transform="translate(226.046512, 36.038835)" fill="#84869C">
                            <path d="M7.91162791,3.89205811 C7.91162791,4.05534086 7.84636922,4.21084824 7.72771704,4.32553493 C7.48448009,4.56462752 7.08897285,4.56462752 6.84375836,4.32553493 L3.94864539,1.49141295 L1.05155487,4.32553493 C0.798430236,4.55685215 0.402922998,4.54324526 0.167596192,4.29443345 C-0.0558653974,4.05922854 -0.0558653974,3.69184236 0.167596192,3.45663745 L3.5017222,0.179319449 C3.74495916,-0.0597731458 4.1404664,-0.0597731458 4.38568089,0.179319449 L7.71980689,3.45663745 C7.8404366,3.57132414 7.90965037,3.72683152 7.91162791,3.89205811 Z" id="Shape" transform="translate(3.955814, 2.252427) rotate(-180.000000) translate(-3.955814, -2.252427) "></path>
                        </g>
                        <g id="Choose-Providers" fill="#84869C" font-family="Gotham-Light, Gotham" font-size="12" font-weight="300">
                            <text>
                                <tspan x="0" y="12.9466019">Choose Providers</tspan>
                            </text>
                        </g>
                    </g>
                    <g id="default-dropdowns" transform="translate(0.000000, 286.000000)">
                        <g id="Manufacturer" transform="translate(1.129032, 64.261146)">
                            <g id="Mobile-Providers-Copy">
                                <g id="Group-36">
                                    <path d="M2.25806452,0 L240.483871,0 C241.730965,0 242.741935,1.00949808 242.741935,2.25477707 L242.741935,31.566879 C242.741935,32.812158 241.730965,33.8216561 240.483871,33.8216561 L2.25806452,33.8216561 C1.01096992,33.8216561 0,32.812158 0,31.566879 L0,2.25477707 C0,1.00949808 1.01096992,0 2.25806452,0 Z" id="Rectangle-3" fill="#EAEDF4" fill-rule="nonzero"></path>
                                    <text id="All-Devices" fill="#242F4E" font-family="Gotham-Light, Gotham" font-size="14" font-weight="300">
                                        <tspan x="11.4500913" y="21.3471338">All Devices</tspan>
                                    </text>
                                </g>
                            </g>
                        </g>
                        <g id="Date-Range" transform="translate(1.129032, 143.178344)">
                            <g id="Group-6">
                                <rect id="Rectangle" fill="#EAEDF4" fill-rule="nonzero" x="0.822517641" y="0" width="118.854901" height="33.8216561" rx="2"></rect>
                                <g id="2018" transform="translate(10.161290, 9.019108)" fill="#242F4E" font-family="Gotham-Light, Gotham" font-size="14" font-weight="300">
                                    <text>
                                        <tspan x="0" y="14.0191083">2018</tspan>
                                    </text>
                                </g>
                                <g id="ic_expand" transform="translate(103.306452, 14.656051)" fill="#84869C" fill-rule="nonzero">
                                    <path d="M7.90322581,3.89611857 C7.90322581,4.05957167 7.83803642,4.21524128 7.71951025,4.33004762 C7.47653162,4.56938965 7.0814444,4.56938965 6.83649033,4.33004762 L3.94445195,1.49296889 L1.05043812,4.33004762 C0.797582308,4.56160617 0.402495097,4.54798508 0.167418206,4.29891369 C-0.0558060687,4.0634634 -0.0558060687,3.69569394 0.167418206,3.46024365 L3.4980034,0.179506527 C3.74098203,-0.0598355052 4.13606925,-0.0598355052 4.38102332,0.179506527 L7.71160851,3.46024365 C7.83211011,3.57504999 7.90125037,3.7307196 7.90322581,3.89611857 Z" id="Shape" transform="translate(3.951613, 2.254777) rotate(-180.000000) translate(-3.951613, -2.254777) "></path>
                                </g>
                            </g>
                        </g>
                        <g id="Date-Range" transform="translate(0.000000, 103.719745)">
                            <g id="Group-6" transform="translate(1.086022, 0.000000)">
                                <rect id="Rectangle" fill="#EAEDF4" fill-rule="nonzero" x="0.547337029" y="0" width="242.237609" height="33.8216561" rx="2"></rect>
                                <g id="2018" transform="translate(9.032258, 9.019108)" fill="#242F4E" font-family="Gotham-Light, Gotham" font-size="14" font-weight="300">
                                    <text id="All-Technologies">
                                        <tspan x="0" y="14.0191083">All Technologies</tspan>
                                    </text>
                                </g>
                                <g id="ic_expand" transform="translate(226.413978, 14.656051)" fill="#84869C" fill-rule="nonzero">
                                    <path d="M7.90322581,3.89611857 C7.90322581,4.05957167 7.83803642,4.21524128 7.71951025,4.33004762 C7.47653162,4.56938965 7.0814444,4.56938965 6.83649033,4.33004762 L3.94445195,1.49296889 L1.05043812,4.33004762 C0.797582308,4.56160617 0.402495097,4.54798508 0.167418206,4.29891369 C-0.0558060687,4.0634634 -0.0558060687,3.69569394 0.167418206,3.46024365 L3.4980034,0.179506527 C3.74098203,-0.0598355052 4.13606925,-0.0598355052 4.38102332,0.179506527 L7.71160851,3.46024365 C7.83211011,3.57504999 7.90125037,3.7307196 7.90322581,3.89611857 Z" id="Shape" transform="translate(3.951613, 2.254777) rotate(-180.000000) translate(-3.951613, -2.254777) "></path>
                                </g>
                            </g>
                        </g>
                        <g id="Metric-Type" transform="translate(125.322581, 143.178344)">
                            <g id="Group-6-Copy">
                                <path d="M3.18558441,0 L117.419355,0 C118.666449,0 119.677419,1.00949808 119.677419,2.25477707 L119.677419,31.566879 C119.677419,32.812158 118.666449,33.8216561 117.419355,33.8216561 L3.18558441,33.8216561 C1.93848981,33.8216561 0.927519894,32.812158 0.927519894,31.566879 L0.927519894,2.25477707 C0.927519894,1.00949808 1.93848981,0 3.18558441,0 Z" id="Rectangle" fill="#EAEDF4" fill-rule="nonzero"></path>
                                <text id="Mean" fill="#242F4E" font-family="Gotham-Light, Gotham" font-size="14" font-weight="300">
                                    <tspan x="11.4584764" y="21.910828">Mean</tspan>
                                </text>
                                <g id="ic_expand" transform="translate(99.306795, 14.656051)" fill="#84869C" fill-rule="nonzero">
                                    <path d="M8.91214935,3.89611857 C8.91214935,4.05957167 8.83863792,4.21524128 8.70498075,4.33004762 C8.43098357,4.56938965 7.9854597,4.56938965 7.70923489,4.33004762 L4.44800011,1.49296889 L1.18453772,4.33004762 C0.899402432,4.56160617 0.453878556,4.54798508 0.188791849,4.29891369 C-0.0629291412,4.0634634 -0.0629291412,3.69569394 0.188791849,3.46024365 L3.94455813,0.179506527 C4.21855532,-0.0598355052 4.66407919,-0.0598355052 4.94030399,0.179506527 L8.69607027,3.46024365 C8.83195506,3.57504999 8.90992174,3.7307196 8.91214935,3.89611857 Z" id="Shape" transform="translate(4.456075, 2.254777) rotate(-180.000000) translate(-4.456075, -2.254777) "></path>
                                </g>
                            </g>
                        </g>
                        <g id="Data-Filters" transform="translate(2.258065, 0.000000)" fill="#84869C" font-family="Gotham-Light, Gotham" font-size="12" font-weight="300">
                            <text>
                                <tspan x="0" y="12.955414">Data Filters</tspan>
                            </text>
                        </g>
                        <g id="Search-location" transform="translate(1.129032, 24.802548)">
                            <path d="M2.60745585,0 L239.749592,0 C240.996688,0 242.007657,1.00949808 242.007657,2.25477707 L242.007657,31.566879 C242.007657,32.812158 240.996688,33.8216561 239.749592,33.8216561 L2.60745585,33.8216561 C1.36036126,33.8216561 0.349391343,32.812158 0.349391343,31.566879 L0.349391343,2.25477707 C0.349391343,1.00949808 1.36036126,0 2.60745585,0 Z" id="Rectangle" fill="#EAEDF4"></path>
                            <g id="2018" transform="translate(7.903226, 6.764331)" fill="#979797" font-family="Gotham-Light, Gotham" font-size="14" font-weight="300">
                                <text id="Search-United-States">
                                    <tspan x="0.989247316" y="14.5828025">Search United States</tspan>
                                </text>
                            </g>
                        </g>
                    </g>
                    <g id="mobile-toggle" transform="translate(1.000000, 0.000000)">
                        <g id="Group-6-Copy-5">
                            <path d="M2.26168224,0 L239.738318,0 C240.98741,0 242,1.01482123 242,2.26666667 L242,31.7333333 C242,32.9851788 240.98741,34 239.738318,34 L2.26168224,34 C1.01258963,34 0,32.9851788 0,31.7333333 L0,2.26666667 C0,1.01482123 1.01258963,0 2.26168224,0 Z" id="Rectangle" fill="#EAEDF4" fill-rule="nonzero"></path>
                            <path d="M0,0 L118.738318,0 C119.98741,0 121,1.01482123 121,2.26666667 L121,31.7333333 C121,32.9851788 119.98741,34 118.738318,34 L0,34 L0,34 L0,0 Z" id="Rectangle-4" fill="#DBDEE6" fill-rule="nonzero" transform="translate(60.500000, 17.000000) rotate(-180.000000) translate(-60.500000, -17.000000) "></path>
                            <text id="Fixed" fill="#979797" font-family="Gotham-Light, Gotham" font-size="14" font-weight="300">
                                <tspan x="159.448598" y="22">Fixed</tspan>
                            </text>
                            <text id="Mobile" fill="#242F4E" font-family="Gotham-Light, Gotham" font-size="14" font-weight="300">
                                <tspan x="31.6635514" y="22">Mobile</tspan>
                            </text>
                        </g>
                    </g>
                    <g id="Group-2" transform="translate(2.000000, 60.000000)">
                        <g id="Compare-Options" transform="translate(1.127962, 0.000000)" fill="#84869C" font-family="Gotham-Light, Gotham" font-size="12" font-weight="300">
                            <text>
                                <tspan x="0" y="12.9">Compare Options</tspan>
                            </text>
                        </g>
                        <rect id="Rectangle-20" fill="#EAEDF4" fill-rule="nonzero" x="0" y="22.4" width="238" height="33.6" rx="2"></rect>
                        <path d="M8.01465266e-15,22.4 L119,22.4 C120.245912,22.4 121.255924,23.4028822 121.255924,24.64 L121.255924,53.76 C121.255924,54.9971178 120.245912,56 119,56 L8.01465266e-15,56 L8.01465266e-15,56 L8.01465266e-15,22.4 Z" id="Rectangle-4" fill="#DBDEE6" fill-rule="nonzero" transform="translate(60.627962, 39.200000) rotate(-180.000000) translate(-60.627962, -39.200000) "></path>
                        <g id="location" opacity="0.5" transform="translate(166.938389, 29.120000)" fill="#242F4E" fill-rule="nonzero">
                            <path d="M10.1516588,0 C4.54505244,0 0,4.51296972 0,10.08 C0,15.6470302 4.54505244,20.16 10.1516588,20.16 C15.758265,20.16 20.3033175,15.6470302 20.3033175,10.08 C20.296924,4.51560145 15.7556147,0.0063484358 10.1516588,0 Z M18.8530806,9.37728 L14.7576114,9.37728 C14.6705971,6.19776 13.9628815,3.5136 12.8781043,1.8432 C16.2119551,2.93643951 18.5645387,5.90290365 18.8530806,9.37728 Z M10.1516588,18.75456 C8.70722275,18.75456 7.10616114,15.39072 6.95533649,10.78272 L13.3363792,10.78272 C13.1971564,15.39072 11.5960948,18.75456 10.1516588,18.75456 Z M6.95533649,9.37728 C7.10616114,4.76928 8.69562086,1.40544 10.1516588,1.40544 C11.6076966,1.40544 13.1971564,4.76928 13.3479811,9.37728 L6.95533649,9.37728 Z M7.42521327,1.8432 C6.34043602,3.5136 5.63272038,6.19776 5.54570616,9.37728 L1.45023697,9.37728 C1.73877888,5.90290365 4.09136246,2.93643951 7.42521327,1.8432 Z M1.45023697,10.78272 L5.54570616,10.78272 C5.63852132,13.96224 6.34623696,16.6464 7.42521327,18.3168 C4.09136246,17.2235605 1.73877888,14.2570963 1.45023697,10.78272 L1.45023697,10.78272 Z M12.8781043,18.3168 C13.9628815,16.6464 14.6705971,13.96224 14.7576114,10.78272 L18.8530806,10.78272 C18.5645387,14.2570963 16.2119551,17.2235605 12.8781043,18.3168 L12.8781043,18.3168 Z" id="Shape"></path>
                        </g>
                        <g id="Providers" transform="translate(36.094787, 30.240000)" fill="#242F4E" font-family="Gotham-Light, Gotham" font-size="14" font-weight="300">
                            <text>
                                <tspan x="0.563981043" y="13.96">Providers</tspan>
                            </text>
                        </g>
                        <g id="Group-4" opacity="0.5" transform="translate(134.227488, 29.120000)" fill="#242F4E" fill-rule="nonzero">
                            <path d="M12.3980149,20.16 L3.39345426,20.16 C1.52308547,20.16 0,18.61272 0,16.71264 L0,3.44736 C0,1.54728 1.52308547,0 3.39345426,0 L12.3980149,0 C14.2683837,0 15.7914692,1.54728 15.7914692,3.44736 L15.7914692,16.71264 C15.7914692,18.61272 14.2683837,20.16 12.3980149,20.16 Z M3.39345426,1.40616 C2.28710879,1.40616 1.38417213,2.32344 1.38417213,3.44736 L1.38417213,16.71264 C1.38417213,17.83656 2.28710879,18.75384 3.39345426,18.75384 L12.3980149,18.75384 C13.5043604,18.75384 14.4072971,17.83656 14.4072971,16.71264 L14.4072971,3.44736 C14.4072971,2.32344 13.5043604,1.40616 12.3980149,1.40616 L3.39345426,1.40616 Z" id="Shape"></path>
                            <path d="M7.40166856,15.68 L9.51776272,15.68 C9.86733774,15.68 10.1516588,15.9311765 10.1516588,16.24 C10.1516588,16.5488235 9.86733774,16.8 9.51776272,16.8 L7.40166856,16.8 C7.05209354,16.8 6.76777251,16.5488235 6.76777251,16.24 C6.76777251,15.9311765 7.05209354,15.68 7.40166856,15.68 Z" id="Shape"></path>
                        </g>
                        <g id="mobile-provider" stroke-linecap="round" stroke-linejoin="round" transform="translate(11.843602, 31.360000)" stroke="#242F4E">
                            <path d="M14.7018578,16.8 L8.45971564,0 M2.21757346,16.8 L8.45971564,0 M10.1629384,4.58304 L4.50056872,10.6568 M6.75649289,4.58304 L12.4188626,10.6568 M4.50056872,10.6568 L14.2292417,15.60384 M12.4188626,10.6568 L2.66199052,15.60384 M16.9194313,0 C16.9153889,2.88985286 15.4011062,5.57054048 12.9196777,7.08064 M3.99975355,7.08064 C1.51832502,5.57054048 0.00404243309,2.88985286 0,4.4408921e-16 M12.0240758,4.66592 C13.6308236,3.64741126 14.6115627,1.89268909 14.6319242,4.4408921e-16 M2.28637915,0 C2.3069878,1.89290568 3.28817674,3.64767406 4.89535545,4.66592 M5.79434123,2.2512 C5.05101284,1.73529281 4.5978442,0.900168814 4.57275829,2.22044605e-16 M11.12509,2.2512 C11.8684184,1.73529281 12.3215871,0.900168814 12.346673,0" id="Shape"></path>
                        </g>
                        <path d="M206.456156,42.2315089 C206.248475,42.342814 206.062154,42.4106293 205.916341,42.5282202 C205.691359,42.7096404 205.492407,42.9234095 205.285497,43.1266002 C204.785936,43.6172522 204.179942,43.7502255 203.511309,43.6291595 C202.743946,43.490207 202.30389,42.9825883 202.100113,42.2709103 C201.841603,41.3681023 201.839703,40.4501674 202.097699,39.5475128 C202.517321,38.0795938 204.22312,37.6475072 205.318767,38.7180905 C205.514022,38.9088627 205.699163,39.1126155 205.911412,39.2825372 C206.05707,39.399106 206.241596,39.4675346 206.456258,39.5830813 C206.456258,39.314324 206.456309,39.1201789 206.456258,38.9260848 C206.45595,37.3166582 206.455539,35.7072826 206.455385,34.097907 C206.455333,33.6990382 206.510116,33.6454299 206.916542,33.6454299 C208.636051,33.6453276 210.355662,33.6453787 212.07517,33.6453787 L212.347541,33.6453787 C212.367873,33.6222796 212.388152,33.5991805 212.408433,33.5761325 C212.259078,33.3579173 212.120813,33.1310143 211.95662,32.9245531 C211.8354,32.772109 211.686097,32.6399023 211.539361,32.509893 C210.670595,31.7395473 210.641588,29.7897662 212.390258,29.3063198 C213.289776,29.0576465 214.202388,29.0581064 215.102676,29.306422 C216.843595,29.7866489 216.832094,31.7400073 215.93658,32.5300792 C215.732493,32.7101706 215.540319,32.9080975 215.369144,33.1190048 C215.256344,33.2580595 215.190883,33.4351868 215.076595,33.6462987 L215.446619,33.6462987 C217.16623,33.6462987 218.885789,33.6460431 220.605297,33.6465031 C220.974603,33.6466052 221.037087,33.7090546 221.037139,34.0750635 C221.037395,35.7866986 221.037292,37.4982317 221.037292,39.2098158 L221.037292,39.5851766 C221.254676,39.4670746 221.43843,39.3972151 221.584551,39.2806973 C221.790485,39.1164994 221.969875,38.9190325 222.158353,38.733524 C223.240292,37.6686644 224.9024,38.0421854 225.368229,39.4792375 C225.674794,40.4248197 225.659032,41.3937056 225.369358,42.3462891 C224.878012,43.9618994 222.954161,43.9721714 222.166928,43.0921559 C221.974342,42.8768025 221.760707,42.6762183 221.535313,42.4953091 C221.402697,42.388859 221.227927,42.3343818 221.037447,42.2391745 C221.037447,43.3176279 221.037447,44.3388445 221.037497,45.3601121 C221.037497,46.1690415 221.038422,46.9780221 221.037087,47.7869515 C221.036574,48.0958769 220.973064,48.1587351 220.658591,48.1588884 C218.75081,48.1599826 216.843081,48.1603705 214.9353,48.1595017 C214.643008,48.1593484 214.561168,48.0615348 214.582835,47.7653856 C214.615283,47.3216472 214.7957,46.9458776 215.104473,46.6291333 C215.247411,46.4825152 215.396098,46.3413652 215.541295,46.1968935 C216.401126,45.3417145 216.10488,44.1372892 214.936071,43.8012276 C214.121728,43.5670678 213.291163,43.5716161 212.481185,43.8206471 C211.411467,44.1495031 211.121844,45.3401304 211.898808,46.1433362 C212.053041,46.3027814 212.216259,46.453539 212.372597,46.6110424 C212.697695,46.9385185 212.884171,47.3295684 212.912256,47.7922664 C212.92848,48.0594396 212.846743,48.1580708 212.583459,48.1583263 C210.650059,48.1599826 208.716606,48.1602682 206.783155,48.1582752 C206.523567,48.1579685 206.45672,48.0776326 206.456566,47.7861339 C206.455744,46.0575321 206.456156,44.3289302 206.456156,42.6003795 L206.456156,42.2315089 Z" id="Fill-1" stroke="#8B90A5"></path>
                    </g>
                </g>
            </g>
        </g>
    </g>
</svg>