<?xml version="1.0" encoding="UTF-8"?>
<svg width="1440px" height="384px" viewBox="0 0 1440 384" version="1.1" xmlns="http://www.w3.org/2000/svg" xmlns:xlink="http://www.w3.org/1999/xlink">
    <!-- Generator: Sketch 64 (93537) - https://sketch.com -->
    <title>Group 57</title>
    <desc>Created with Sketch.</desc>
    <g id="Page-1" stroke="none" stroke-width="1" fill="none" fill-rule="evenodd">
        <g id="STI" transform="translate(0.000000, -683.000000)">
            <g id="Group-2" transform="translate(0.000000, 317.000000)">
                <g id="Group-57" transform="translate(0.000000, 366.000000)">
                    <path d="M800.585317,215.563866 L767.284342,215.563866 L767.284342,197.683996 C773.042782,197.508481 800.247549,196.680832 800.585317,196.669911 L800.585317,215.563866 Z M774.308828,188.180464 L774.308828,196.690193 C772.29392,196.751818 770.211146,196.815003 768.072208,196.879749 L774.308828,188.180464 Z M767.284342,175.577733 L774.231601,186.949521 L767.284342,196.640269 L767.284342,175.577733 Z M767.284342,173.029261 L774.308828,177.126943 L774.308828,185.580507 L767.284342,174.080789 L767.284342,173.029261 Z M782.812316,190.282739 L782.812316,196.431991 C781.010366,196.486596 779.114808,196.544321 777.139684,196.603606 L782.812316,190.282739 Z M775.088893,178.391428 L782.515892,189.445729 L776.062414,196.636368 C775.738687,196.646509 775.41652,196.65665 775.088893,196.666011 L775.088893,178.391428 Z M782.812316,182.086596 L782.812316,188.487809 L775.740247,177.961612 L782.812316,182.086596 Z M791.509261,192.526986 L791.509261,196.166769 C789.527116,196.227614 787.307831,196.2947 784.888069,196.368806 L791.509261,192.526986 Z M783.592381,183.151385 L790.732316,192.076108 L783.592381,196.218254 L783.592381,183.151385 Z M791.509261,187.160139 L791.509261,191.797625 L784.551861,183.10146 L791.509261,187.160139 Z M792.289326,187.614917 L798.852793,191.443476 L798.852793,195.942891 C797.245079,195.992035 795.014093,196.0599 792.289326,196.143367 L792.289326,187.614917 Z M765.809239,176.85002 L764.456607,176.85002 L764.456607,175.984147 L765.809239,173.788264 L765.809239,176.85002 Z M764.456607,184.258297 L765.809239,184.258297 L765.809239,181.044429 L764.456607,181.044429 L764.456607,184.258297 Z M764.456607,187.543931 L765.809239,187.543931 L765.809239,185.038362 L764.456607,185.038362 L764.456607,187.543931 Z M765.809239,196.948394 C765.360702,196.961655 764.909824,196.975697 764.456607,196.988958 L764.456607,188.323996 L765.809239,188.323996 L765.809239,196.948394 Z M765.809239,215.563866 L764.456607,215.563866 L764.456607,197.769023 C764.909044,197.755762 765.361482,197.74172 765.809239,197.728459 L765.809239,215.563866 Z M763.579814,175.919402 L757.309651,186.09769 L757.309651,177.09652 C759.749694,176.030171 761.920615,175.032468 763.579814,174.250843 L763.579814,175.919402 Z M763.579814,195.988134 L757.577213,187.149998 L763.422241,177.662067 L763.422241,180.654397 C763.422241,180.780767 763.486986,180.888416 763.579814,180.960182 L763.579814,195.988134 Z M763.579814,215.563866 L605.910735,215.563866 L605.910735,197.778384 C623.775003,198.320529 644.523952,198.945361 660.263324,199.41028 C660.278145,199.41184 660.291406,199.41964 660.305447,199.41964 C660.318709,199.41964 660.33119,199.41418 660.344451,199.41262 C673.629738,199.804992 683.310345,200.081135 684.649716,200.095177 C684.678579,200.102197 684.706661,200.112338 684.737863,200.112338 C685.667701,200.112338 695.519142,199.831515 709.147658,199.429781 C709.160139,199.430561 709.17262,199.436022 709.185101,199.436022 C709.199142,199.436022 709.212403,199.428221 709.226444,199.426661 C724.965816,198.963302 745.715545,198.33769 763.579814,197.796325 L763.579814,215.563866 Z M605.034722,174.480182 L604.458254,173.544884 C604.639229,173.631471 604.831125,173.722739 605.034722,173.819467 L605.034722,174.480182 Z M605.034722,176.833638 L603.682089,176.833638 L603.682089,173.771883 L605.034722,175.967766 L605.034722,176.833638 Z M603.685209,180.247983 L605.034722,180.247983 L605.034722,177.613703 L603.685209,177.613703 L603.685209,180.247983 Z M603.682089,184.241915 L605.034722,184.241915 L605.034722,181.028048 L603.682089,181.028048 L603.682089,184.241915 Z M603.682089,187.527549 L605.034722,187.527549 L605.034722,185.02198 L603.682089,185.02198 L603.682089,187.527549 Z M605.034722,196.971796 C604.581504,196.957755 604.130626,196.944494 603.682089,196.930453 L603.682089,188.307614 L605.034722,188.307614 L605.034722,196.971796 Z M605.034722,215.563866 L603.682089,215.563866 L603.682089,197.711298 C604.129846,197.725339 604.582284,197.7386 605.034722,197.752641 L605.034722,215.563866 Z M612.181677,188.127419 L612.181677,197.187874 C610.142587,197.126249 608.1308,197.065404 606.150995,197.006119 L612.181677,188.127419 Z M605.910735,180.943021 C606.004342,180.871255 606.068308,180.764386 606.068308,180.638015 L606.068308,177.646466 L611.913335,187.133616 L605.910735,195.970973 L605.910735,180.943021 Z M605.910735,174.235242 C607.570713,175.016087 609.741634,176.01379 612.181677,177.080139 L612.181677,186.081309 L605.910735,175.903021 L605.910735,174.235242 Z M620.49093,190.195372 L620.49093,197.439835 C618.074288,197.366509 615.671688,197.293963 613.29795,197.222197 L620.49093,190.195372 Z M612.961742,177.419467 C613.137257,177.495133 613.313551,177.57158 613.491406,177.648026 L620.388741,189.205469 L612.961742,196.460074 L612.961742,177.419467 Z M620.49093,180.492923 L620.49093,187.855177 L614.709088,178.166769 C616.568763,178.950735 618.524386,179.744841 620.49093,180.492923 L620.49093,180.492923 Z M628.801742,190.582284 L628.801742,197.690236 C626.418644,197.61847 624.030865,197.545924 621.653226,197.474938 L628.801742,190.582284 Z M621.270995,181.434462 L628.462414,189.824841 L621.270995,196.758839 L621.270995,181.434462 Z M628.801742,183.282436 L628.801742,189.022154 L621.962912,181.042869 C624.310128,181.905621 626.639402,182.683346 628.801742,183.282436 L628.801742,183.282436 Z M636.724862,192.257083 L636.724862,197.928936 C634.529759,197.862631 632.315935,197.796325 630.09275,197.729239 L636.724862,192.257083 Z M629.581807,184.093703 L636.358232,191.548784 L629.581807,197.13951 L629.581807,184.093703 Z M631.036628,183.852663 C633.109261,184.324602 634.987658,184.782501 636.724862,185.216997 L636.724862,190.792901 L630.242522,183.662327 C630.510085,183.727073 630.776087,183.792598 631.036628,183.852663 L631.036628,183.852663 Z M645.228351,193.158059 L645.228351,198.183237 C642.889716,198.113811 640.505837,198.042046 638.093876,197.969499 L645.228351,193.158059 Z M637.504927,185.413573 C637.77795,185.482219 638.050973,185.550865 638.316195,185.61795 L644.825057,192.488763 L637.504927,197.425794 L637.504927,185.413573 Z M640.41769,186.156195 C642.164256,186.603952 643.743107,187.006466 645.228351,187.359055 L645.228351,191.780464 L639.733573,185.98068 C639.962912,186.039185 640.193811,186.09925 640.41769,186.156195 L640.41769,186.156195 Z M652.765339,193.718145 L652.765339,198.407896 C650.790215,198.349391 648.765946,198.288546 646.701114,198.226921 L652.765339,193.718145 Z M646.008416,187.936303 L652.508698,192.93652 L646.008416,197.769803 L646.008416,187.936303 Z M652.765339,188.635242 L652.765339,192.149434 L647.081785,187.77795 C649.099814,188.211666 650.950128,188.511211 652.765339,188.635242 L652.765339,188.635242 Z M660.108871,194.009889 L660.108871,198.625534 C658.17821,198.568589 656.174223,198.509304 654.108611,198.448459 L660.108871,194.009889 Z M653.545404,188.682826 C653.558665,188.683606 653.572706,188.685166 653.585967,188.685166 L659.477798,193.506748 L653.545404,197.893833 L653.545404,188.682826 Z M660.108871,188.770973 L660.108871,193.015307 L654.862154,188.722609 C656.192165,188.747571 658.015177,188.763952 660.108871,188.770973 L660.108871,188.770973 Z M666.872815,193.910041 L666.872815,198.824451 C665.116888,198.773746 663.266574,198.718362 661.334353,198.662197 L666.872815,193.910041 Z M660.888936,189.288156 L666.255783,193.41158 L660.888936,198.015523 L660.888936,189.288156 Z M666.872815,188.776433 L666.872815,192.901417 L661.502067,188.775653 C663.194028,188.779554 665.01782,188.779554 666.872815,188.776433 L666.872815,188.776433 Z M674.796715,194.385101 L674.796715,199.05379 C672.859814,198.998405 670.689673,198.936 668.322956,198.867354 L674.796715,194.385101 Z M667.65288,189.256953 L674.123519,193.90146 L667.65288,198.382154 L667.65288,189.256953 Z M674.796715,188.751471 L674.796715,193.424841 L668.317495,188.774093 C670.527419,188.768633 672.741244,188.760832 674.796715,188.751471 L674.796715,188.751471 Z M675.57678,189.21327 L683.687896,194.452186 L675.57678,198.676238 L675.57678,189.21327 Z M684.233161,188.696867 L684.294787,193.914722 L676.288979,188.744451 C680.119099,188.725729 683.184754,188.703887 684.233161,188.696867 L684.233161,188.696867 Z M684.33613,197.413313 L684.346271,199.310431 C683.284602,199.29015 680.49041,199.215263 676.449673,199.101374 L684.307268,195.008373 L684.33613,197.413313 Z M693.183627,188.761612 L685.097473,193.876498 L685.070171,188.713248 C686.1412,188.721049 689.277842,188.742111 693.183627,188.761612 L693.183627,188.761612 Z M692.863801,199.122436 C688.908871,199.233985 686.178644,199.307311 685.138817,199.327593 L685.116195,197.431255 L685.103714,195.084039 L692.863801,199.122436 Z M685.616217,194.471688 L693.914548,189.22185 L693.914548,198.789348 L685.616217,194.471688 Z M694.694613,194.404602 L701.051363,198.886856 C698.729889,198.954722 696.599532,199.015567 694.694613,199.070171 L694.694613,194.404602 Z M701.837668,189.274115 L701.837668,198.486683 L695.363129,193.921742 L701.837668,189.274115 Z M694.694613,188.767853 C696.753985,188.777993 698.967809,188.785794 701.173833,188.790475 L694.694613,193.442002 L694.694613,188.767853 Z M702.617733,193.927203 L708.156975,198.678579 C706.224754,198.735523 704.37366,198.790128 702.617733,198.841612 L702.617733,193.927203 Z M708.601612,189.305317 L708.601612,198.031905 L703.235545,193.427961 L708.601612,189.305317 Z M702.617733,188.793595 C704.474288,188.795935 706.29808,188.796715 707.989261,188.792815 L702.617733,192.918579 L702.617733,188.793595 Z M709.381677,194.027051 L715.381157,198.464841 C713.315545,198.525686 711.313118,198.584971 709.381677,198.642696 L709.381677,194.027051 Z M709.381677,188.788134 C711.476932,188.779554 713.300724,188.764732 714.629174,188.73899 L709.381677,193.031688 L709.381677,188.788134 Z M715.904581,188.701547 C715.918622,188.701547 715.931883,188.699987 715.945924,188.699987 L715.945924,197.910995 L710.01353,193.523129 L715.904581,188.701547 Z M716.725989,193.735307 L722.789434,198.244082 C720.725382,198.305707 718.700334,198.365772 716.725989,198.424277 L716.725989,193.735307 Z M723.482912,187.952685 L723.482912,197.786964 L716.98185,192.953681 L723.482912,187.952685 Z M716.725989,188.652403 C718.5412,188.528373 720.391515,188.227268 722.409543,187.794332 L716.725989,192.166596 L716.725989,188.652403 Z M724.262977,193.17522 L731.397452,197.986661 C728.985491,198.059207 726.601612,198.130193 724.262977,198.199619 L724.262977,193.17522 Z M724.262977,187.374657 C725.747441,187.022847 727.326293,186.620334 729.072858,186.172576 C729.297517,186.115632 729.528416,186.056347 729.757755,185.997842 L724.262977,191.796845 L724.262977,187.374657 Z M731.175133,185.635112 C731.440355,185.567246 731.713378,185.4986 731.986401,185.429954 L731.986401,197.442956 L724.665491,192.505144 L731.175133,185.635112 Z M732.766466,192.274245 L739.398579,197.745621 C737.175393,197.812706 734.961569,197.879792 732.766466,197.945317 L732.766466,192.274245 Z M739.909521,184.111645 L739.909521,197.155892 L733.133096,191.565166 L739.909521,184.111645 Z M732.766466,185.233378 C734.502891,184.799662 736.382067,184.341764 738.45392,183.869044 C738.714462,183.809759 738.982024,183.744234 739.249586,183.677928 L732.766466,190.810063 L732.766466,185.233378 Z M740.689586,190.598665 L747.838102,197.4921 C745.460464,197.563866 743.071905,197.635632 740.689586,197.706618 L740.689586,190.598665 Z M748.219554,181.451623 L748.219554,196.77522 L741.028134,189.841222 L748.219554,181.451623 Z M740.689586,183.299597 C742.851926,182.698947 745.1812,181.922002 747.528416,181.05925 L740.689586,189.038535 L740.689586,183.299597 Z M748.999619,190.213313 L756.193378,197.239359 C753.81964,197.311125 751.41704,197.383671 748.999619,197.456997 L748.999619,190.213313 Z M748.999619,180.509304 C750.966943,179.761222 752.922566,178.967896 754.782241,178.183151 L748.999619,187.873118 L748.999619,180.509304 Z M755.999922,177.664407 C756.177777,177.587961 756.354072,177.512295 756.529586,177.435848 L756.529586,196.477235 L749.101807,189.222631 L755.999922,177.664407 Z M757.309651,188.145361 L763.339554,197.022501 C761.360529,197.083346 759.348741,197.144191 757.309651,197.205816 L757.309651,188.145361 Z M764.456607,180.264364 L765.805339,180.264364 L765.805339,177.630085 L764.456607,177.630085 L764.456607,180.264364 Z M764.456607,173.836628 C764.660204,173.7399 764.85132,173.648633 765.033075,173.561265 L764.456607,174.496563 L764.456607,173.836628 Z M602.206206,174.064407 L595.18172,185.564126 L595.18172,177.109001 L602.206206,173.01132 L602.206206,174.064407 Z M602.206206,196.623887 L595.259727,186.93314 L602.206206,175.561352 L602.206206,196.623887 Z M602.206206,215.563866 L569.686076,215.563866 L569.686076,196.676932 C569.823367,196.680832 569.962219,196.685512 570.112771,196.690193 C570.189218,196.718275 570.281265,196.719055 570.360052,196.697213 C573.449109,196.792381 579.065577,196.963216 586.200052,197.180854 C586.228914,197.187094 586.257777,197.196455 586.288199,197.196455 C586.309261,197.196455 586.327203,197.187874 586.346704,197.184754 C591.068438,197.328286 596.447766,197.4921 602.206206,197.666834 L602.206206,215.563866 Z M570.637755,191.426314 L577.202002,187.596975 L577.202002,196.125426 C574.476455,196.042739 572.246249,195.974873 570.637755,195.924949 L570.637755,191.426314 Z M577.982067,192.509824 L584.601699,196.350865 C582.181937,196.276758 579.963432,196.209673 577.982067,196.148828 L577.982067,192.509824 Z M585.898167,183.135003 L585.898167,196.201872 L578.759012,192.058947 L585.898167,183.135003 Z M577.982067,187.142197 L584.940247,183.083519 L577.982067,191.781244 L577.982067,187.142197 Z M586.678232,190.266358 L592.350865,196.587224 C590.37574,196.527159 588.480182,196.468654 586.678232,196.41405 L586.678232,190.266358 Z M594.401655,178.374267 L594.401655,196.648849 C594.074808,196.638709 593.751861,196.630128 593.428134,196.619987 L586.974657,189.428568 L594.401655,178.374267 Z M586.678232,182.069434 L593.751081,177.943671 L586.678232,188.470648 L586.678232,182.069434 Z M595.18172,188.164082 L601.41834,196.861807 C599.279402,196.797062 597.197408,196.733876 595.18172,196.673031 L595.18172,188.164082 Z M1080.62865,186.69834 L1080.62865,195.279055 L1075.94826,195.279055 L1075.94826,182.798015 L1061.90709,182.798015 L1061.90709,143.0147 L1050.98618,143.0147 L1050.98618,111.032035 L1046.30579,111.032035 L1046.30579,92.3104745 L1032.84577,92.3104745 L1030.45877,91.5304095 L1023.68391,91.5304095 L1023.68391,111.032035 L1016.66332,111.032035 L1016.66332,143.0147 L1006.52248,143.0147 L1006.52248,180.45782 L984.680659,180.45782 L984.680659,193.718925 L879.371883,193.718925 L879.371883,175.77743 L876.251623,175.77743 L876.251623,171.09704 L874.840485,171.09704 L870.066488,165.636585 L867.679489,165.636585 L863.169153,171.09704 L860.650323,171.09704 L860.650323,174.997365 L857.530063,174.997365 L857.530063,195.279055 L851.289543,195.279055 L800.585317,195.279055 L800.585317,195.889846 C800.311515,195.898427 799.997148,195.907788 799.632858,195.918709 L799.632858,191.219597 C799.632858,191.080745 799.559532,190.952815 799.439402,190.882609 L766.972316,171.943411 C766.858427,171.876325 766.718015,171.871645 766.601005,171.93093 C766.511298,171.976173 761.788784,174.328069 755.754202,176.921785 C755.653573,176.923346 755.559965,176.963129 755.487419,177.035675 C749.968459,179.400832 743.404212,181.939944 738.279965,183.109261 C736.184711,183.586661 734.287593,184.049239 732.535567,184.487636 C732.486423,184.465794 732.433378,184.451753 732.376433,184.451753 C732.252403,184.451753 732.147094,184.512598 732.076108,184.603086 C731.74146,184.686553 731.413833,184.769239 731.090106,184.851926 C730.981677,184.832425 730.872468,184.858947 730.783541,184.929933 C730.129066,185.096087 729.493313,185.25912 728.878622,185.417473 C723.482912,186.802089 719.584147,187.802912 715.743107,187.930063 C710.060334,188.119619 685.304191,187.935523 684.703541,187.930063 C684.675458,187.923822 684.648936,187.913681 684.618514,187.913681 L684.615393,187.913681 C684.364992,187.916022 659.471558,188.104797 653.748221,187.913681 C649.906401,187.785751 646.007636,186.784927 640.611146,185.400312 C639.997235,185.242739 639.362262,185.080485 638.707788,184.913551 C638.61964,184.842566 638.509651,184.816823 638.402002,184.835545 C638.077495,184.753638 637.749868,184.670171 637.41522,184.585924 C637.344234,184.496217 637.238925,184.435372 637.114895,184.435372 C637.05795,184.435372 637.004126,184.448633 636.955762,184.471255 C635.202956,184.032078 633.305837,183.569499 631.210583,183.0921 C626.087116,181.923562 619.522869,179.382891 614.003129,177.019294 C613.930583,176.945967 613.837755,176.906964 613.737907,176.904624 C607.702544,174.310908 602.98003,171.959792 602.889543,171.914548 C602.771753,171.856043 602.632121,171.859944 602.518232,171.927029 L570.051146,190.865447 C569.931016,190.934873 569.85769,191.063584 569.85769,191.202436 L569.85769,195.901547 C568.571363,195.861764 567.352121,195.687029 567.345101,195.901547 C567.344321,195.93977 513.521395,195.901547 513.521395,195.901547 L513.521395,185.13821 L513.521395,179.677755 L508.841005,179.677755 L508.841005,178.89769 L503.38055,178.89769 L503.38055,172.65717 L498.70016,172.65717 L498.70016,123.513075 L494.901244,123.513075 L494.01119,121.17288 L492.45964,121.17288 L492.45964,119.01834 L482.185404,112.592165 L477.155545,112.592165 L467.992121,118.832685 L465.93743,118.832685 L465.93743,121.17288 L463.597235,121.17288 L463.597235,123.513075 L459.69691,123.513075 L459.69691,179.677755 L437.075025,179.677755 L437.075025,89.9702795 L397.29171,89.9702795 L397.29171,91.5304095 L394.357885,91.5304095 L389.49106,91.5304095 L389.49106,93.8706046 L386.3708,93.8706046 L386.3708,174.997365 L382.470475,174.997365 L382.470475,182.01795 L380.13028,182.01795 L380.13028,180.45782 L375.449889,180.45782 L375.449889,158.828178 L374.669824,158.386661 L374.669824,157.05587 L358.288459,157.05587 L358.288459,157.835935 L349.707744,157.835935 L349.707744,178.117625 L284.511471,178.117625 L284.511471,327.649846 L1175.24274,327.649846 L1175.24274,186.69834 L1140.50332,186.69834 L1140.50332,146.305794 L1107.537,146.305794 L1107.537,186.69834 L1080.62865,186.69834 Z" id="Fill-1" fill="#373950"></path>
                    <g id="Group-19" transform="translate(0.000000, 0.029642)" fill="#464A62">
                        <path d="M85.019987,60.8322774 L89.772143,60.8322774 C89.5459242,60.9313456 89.3867909,61.1560043 89.3867909,61.4173261 L89.3867909,64.5095038 L88.0466392,65.8746176 L88.0466392,62.975896 C88.0466392,62.6248667 87.7595753,62.3370228 87.407766,62.3370228 L87.384364,62.3370228 C87.0325547,62.3370228 86.7447107,62.6248667 86.7447107,62.975896 L86.7447107,65.7287454 L85.4053391,64.3636316 L85.4053391,61.4173261 C85.4053391,61.1560043 85.2462059,60.9313456 85.019987,60.8322774 L85.019987,60.8322774 Z M82.7632589,61.6716273 L82.7632589,60.8322774 L84.4887627,60.8322774 C84.2625439,60.9313456 84.1034106,61.1560043 84.1034106,61.4173261 L84.1034106,63.0375211 L82.7632589,61.6716273 Z M90.6887194,63.1833933 L90.6887194,61.4173261 C90.6887194,61.1560043 90.5288061,60.9313456 90.3033673,60.8322774 L92.028091,60.8322774 L92.028091,61.8174995 L90.6887194,63.1833933 Z M828.412576,142.773426 L835.015827,142.773426 C834.70146,142.911497 834.479922,143.223523 834.479922,143.586254 L834.479922,147.882072 L832.618687,149.77841 L832.618687,145.751714 C832.618687,145.263393 832.218514,144.864 831.730193,144.864 L831.69821,144.864 C831.209109,144.864 830.809716,145.263393 830.809716,145.751714 L830.809716,149.577153 L828.947701,147.680035 L828.947701,143.586254 C828.947701,143.223523 828.726163,142.911497 828.412576,142.773426 L828.412576,142.773426 Z M825.277495,143.939623 L825.277495,142.773426 L827.674635,142.773426 C827.361049,142.911497 827.13951,143.223523 827.13951,143.586254 L827.13951,145.836741 L825.277495,143.939623 Z M836.288893,146.038778 L836.288893,143.586254 C836.288893,143.223523 836.067354,142.911497 835.752988,142.773426 L838.150908,142.773426 L838.150908,144.14244 L836.288893,146.038778 Z M1400.76187,108.585517 L1400.76187,94.8750943 L1394.98471,94.8750943 C1394.98471,94.8750943 1396.13999,104.508897 1386.12551,104.880208 C1374.57821,105.307684 1375.34033,94.8750943 1375.34033,94.8750943 L1369.56239,94.8750943 L1369.56239,108.214986 L1363.78445,108.214986 L1363.78445,142.304607 L1359.54792,142.304607 L1359.54792,133.782397 L1354.15533,130.077088 L1354.15533,124.519125 L1352.22935,124.519125 L1352.22935,129.335246 L1346.45141,125.629937 L1336.8215,132.300273 L1336.8215,127.112841 L1334.1256,127.112841 L1332.58497,127.112841 L1332.58497,130.81815 L1329.88907,130.81815 L1329.88907,141.563545 L1281.35576,141.563545 L1281.35576,110.438171 L1278.27372,110.438171 L1278.27372,116.366665 L1248.61487,116.366665 L1248.61487,110.807922 L1246.11086,110.807922 L1246.11086,155.459623 L1227.04452,137.117174 L1209.32612,154.163155 L1209.32612,110.807922 L1205.85951,110.807922 L1205.85951,117.848789 L1176.97058,117.848789 L1176.97058,110.807922 L1173.88933,110.807922 L1173.88933,247.359081 L1161.48785,247.359081 L1161.48785,233.634618 L1154.81362,233.634618 L1154.81362,221.595874 L1147.63468,221.595874 L1143.00655,215.157218 L1134.79091,222.707467 L1134.79091,226.411996 L1130.61912,226.411996 L1130.61912,243.26608 L977.235718,243.26608 L971.283042,243.26608 L971.283042,212.338843 L969.356282,214.191497 L969.356282,207.890912 L967.431081,207.890912 L967.431081,214.931779 L962.038492,216.785213 L962.038492,209.373816 L960.112511,209.373816 L960.112511,206.7801 L958.571883,206.7801 L958.571883,209.744347 C958.571883,210.855939 957.031255,209.744347 957.031255,209.744347 L957.031255,217.525495 L945.475372,221.971866 L945.475372,283.483112 L941.623411,283.483112 L941.623411,229.383263 L928.527679,234.200165 L928.527679,230.494856 L926.986271,230.494856 L926.986271,235.312537 L913.889759,240.129439 L913.889759,234.200165 L911.964559,234.200165 L911.964559,231.606449 L910.423931,231.606449 L910.423931,234.200165 L908.112598,234.200165 L908.112598,240.49919 L897.712771,244.575809 L897.712771,283.483112 L893.86081,283.483112 L893.86081,258.286232 L863.045902,258.286232 L863.045902,249.763242 L866.127159,249.763242 L866.127159,248.281118 L849.950171,248.281118 L849.950171,250.504303 L852.646076,250.504303 L852.646076,258.286232 L845.327506,258.286232 L845.327506,283.853642 L835.066531,283.853642 L833.937777,157.207749 C833.995502,157.159385 834.029044,157.125062 834.029044,157.125062 L833.936997,157.125062 L833.884732,151.244932 L834.479922,150.638821 L834.479922,151.919688 C834.479922,152.408009 834.880095,152.807402 835.368416,152.807402 L835.400399,152.807402 C835.889499,152.807402 836.288893,152.408009 836.288893,151.919688 L836.288893,148.795528 L838.150908,146.89841 L838.150908,149.212082 C838.150908,149.701183 838.550301,150.100576 839.038622,150.100576 L839.070605,150.100576 C839.559705,150.100576 839.959099,149.701183 839.959099,149.212082 L839.959099,145.055896 L841.821114,143.158778 L841.821114,147.046622 C841.821114,147.534943 842.220507,147.935116 842.708828,147.935116 L842.74159,147.935116 C843.229911,147.935116 843.630085,147.534943 843.630085,147.046622 L843.630085,138.713967 C843.630085,138.224867 843.229911,137.825473 842.74159,137.825473 L842.708828,137.825473 C842.220507,137.825473 841.821114,138.224867 841.821114,138.713967 L841.821114,140.884888 C841.805512,140.884108 841.791471,140.878648 841.77587,140.878648 L839.959099,140.878648 C839.959099,140.390327 839.558925,139.991714 839.070605,139.991714 L839.038622,139.991714 C838.550301,139.991714 838.150908,140.390327 838.150908,140.878648 L825.222111,140.878648 C825.105881,140.523718 824.782154,140.261616 824.389781,140.261616 L824.357018,140.261616 C823.964646,140.261616 823.640919,140.523718 823.523909,140.878648 L821.85067,140.878648 C821.766423,140.878648 821.686076,140.893469 821.607289,140.912971 L821.607289,138.713967 C821.607289,138.224867 821.207896,137.825473 820.719575,137.825473 L820.686813,137.825473 C820.198492,137.825473 819.798319,138.224867 819.798319,138.713967 L819.798319,147.046622 C819.798319,147.534943 820.198492,147.935116 820.686813,147.935116 L820.719575,147.935116 C821.207896,147.935116 821.607289,147.534943 821.607289,147.046622 L821.607289,142.955961 L823.468524,144.853079 L823.468524,149.483545 C823.468524,149.971086 823.868698,150.371259 824.357018,150.371259 L824.389781,150.371259 C824.878102,150.371259 825.277495,149.971086 825.277495,149.483545 L825.277495,146.696373 L827.13951,148.593491 L827.13951,151.919688 C827.13951,152.408009 827.538904,152.807402 828.027224,152.807402 L828.059987,152.807402 C828.548308,152.807402 828.947701,152.408009 828.947701,151.919688 L828.947701,150.436004 L829.379077,150.875181 L829.339294,157.125062 L829.257387,157.125062 C829.257387,157.125062 829.288589,157.156264 829.338514,157.199168 L828.536607,283.853642 L754.809543,283.853642 L754.809543,267.920815 L744.024364,267.920815 L744.024364,254.209612 L739.017127,250.504303 L739.017127,242.723155 L737.091146,242.723155 L737.091146,249.763242 L733.239185,247.540056 L723.224711,253.0988 L723.224711,259.397824 L712.05418,259.397824 L712.05418,267.920815 L708.202219,267.920815 L708.202219,284.965235 L683.561525,284.965235 L683.561525,270.555094 L667.709824,270.555094 L667.709824,259.318258 L662.824277,259.318258 L653.654613,248.3092 L638.508871,259.185647 L638.508871,270.555094 L615.982934,270.555094 L615.982934,315.5001 L612.645816,315.5001 L612.645816,307.474011 L605.13691,307.474011 L605.13691,293.027207 L580.107744,293.027207 L580.107744,307.474011 L572.598839,307.474011 L572.598839,286.606492 L553.41002,286.606492 L553.41002,223.201248 L535.889759,223.201248 L535.889759,171.835528 L527.546964,171.835528 L527.546964,142.94192 L508.702934,142.94192 L505.120875,140.533859 L495.008893,140.533859 L495.008893,172.637434 L484.997538,172.637434 L484.997538,223.201248 L468.311168,223.201248 L468.311168,230.100143 L436.607766,230.100143 L436.607766,236.373426 L436.607766,253.375723 L422.424624,253.375723 L422.424624,226.087489 L418.253616,226.087489 L418.253616,218.0614 L415.518709,218.0614 L408.349131,209.232624 L404.761612,209.232624 L397.996108,218.0614 L393.224451,218.0614 L393.224451,223.680208 L389.052663,223.680208 L389.052663,255.783783 L379.875198,255.783783 L379.875198,262.203718 L377.37275,262.203718 L377.37275,254.981096 L370.697733,254.981096 L370.697733,250.967662 L364.858167,250.967662 L364.858167,238.929699 L356.515372,238.929699 L356.515372,150.643502 L352.193811,150.643502 L350.999532,145.82738 L349.006466,145.82738 L349.006466,141.834228 L335.076065,129.775983 L328.304321,129.775983 L315.954332,142.617413 L313.131276,142.617413 L313.131276,145.82738 L310.628048,145.82738 L310.628048,149.840815 L304.787701,149.840815 L304.787701,191.606275 L274.753638,191.606275 L274.692793,42.4617465 L267.736173,42.4617465 L267.736173,24.251909 L256.572663,24.251909 L256.572663,0.750890574 L238.77548,0.750890574 L238.29028,24.251909 L229.878059,24.251909 L229.878059,13.2015081 L227.61275,13.2015081 L227.61275,24.251909 L221.14133,24.251909 L221.14133,16.1587346 L219.523476,16.1587346 L219.523476,24.251909 L210.139294,24.251909 L210.139294,42.4617465 L204.404256,42.4617465 L204.404256,210.50257 L177.954592,210.50257 L177.954592,201.116048 L115.812273,174.683545 L115.812273,151.956351 L119.406813,151.70985 L116.967549,149.362635 L89.6933564,149.362635 L88.9967584,71.220403 C89.0373218,71.1868602 89.0615038,71.1618982 89.0615038,71.1618982 L88.9959783,71.1618982 L88.9577551,66.9292654 L89.3867909,66.4932091 L89.3867909,67.4144659 C89.3867909,67.7670553 89.6746349,68.0548992 90.0256641,68.0548992 L90.0490661,68.0548992 C90.4008754,68.0548992 90.6887194,67.7670553 90.6887194,67.4144659 L90.6887194,65.1670986 L92.028091,63.8019848 L92.028091,65.4666436 C92.028091,65.8184529 92.315935,66.1062969 92.6677443,66.1062969 L92.6911463,66.1062969 C93.0429556,66.1062969 93.3300195,65.8184529 93.3300195,65.4666436 L93.3300195,62.4743142 L94.6701712,61.1092004 L94.6701712,63.9080737 C94.6701712,64.259883 94.9580152,64.547727 95.3090444,64.547727 L95.3324464,64.547727 C95.6842557,64.547727 95.9720997,64.259883 95.9720997,63.9080737 L95.9720997,57.9101538 C95.9720997,57.5591246 95.6842557,57.2712806 95.3324464,57.2712806 L95.3090444,57.2712806 C94.9580152,57.2712806 94.6701712,57.5591246 94.6701712,57.9101538 L94.6701712,59.4734041 C94.6592503,59.4726241 94.6491094,59.4687237 94.6381885,59.4687237 L93.3300195,59.4687237 C93.3300195,59.1176945 93.0421755,58.8298505 92.6911463,58.8298505 L92.6677443,58.8298505 C92.3167151,58.8298505 92.0288711,59.1176945 92.028091,59.4687237 L82.7234756,59.4687237 C82.6400087,59.2136425 82.4067692,59.0248667 82.1243857,59.0248667 L82.1009837,59.0248667 C81.8186002,59.0248667 81.5853608,59.2136425 81.5011138,59.4687237 L80.2966934,59.4687237 C80.2366284,59.4687237 80.1781235,59.4796446 80.1219588,59.4936858 L80.1219588,57.9101538 C80.1219588,57.5591246 79.8341148,57.2712806 79.4823055,57.2712806 L79.4596836,57.2712806 C79.1070943,57.2712806 78.8200303,57.5591246 78.8200303,57.9101538 L78.8200303,63.9080737 C78.8200303,64.259883 79.1070943,64.547727 79.4596836,64.547727 L79.4823055,64.547727 C79.8341148,64.547727 80.1219588,64.259883 80.1219588,63.9080737 L80.1219588,60.9641083 L81.4613304,62.3292221 L81.4613304,65.6608797 C81.4613304,66.0134691 81.7491744,66.3013131 82.1009837,66.3013131 L82.1243857,66.3013131 C82.475415,66.3013131 82.7632589,66.0134691 82.7632589,65.6608797 L82.7632589,63.6553326 L84.1034106,65.0212264 L84.1034106,67.4144659 C84.1034106,67.7670553 84.3912546,68.0548992 84.7430639,68.0548992 L84.7656858,68.0548992 C85.1174951,68.0548992 85.4053391,67.7670553 85.4053391,67.4144659 L85.4053391,66.3473369 L85.7150249,66.6640433 L85.6869426,71.1618982 L85.6276576,71.1618982 C85.6276576,71.1618982 85.6502795,71.18452 85.6861625,71.2157226 L85.1916013,149.362635 L51.3578418,149.362635 L51.3578418,120.583697 L55.2098028,120.583697 L55.2098028,118.607012 L34.6667909,118.607012 L34.6667909,102.797434 L22.3402037,102.797434 L22.3402037,92.6690704 L18.7456641,92.6690704 L18.7456641,89.2110423 L16.691753,89.2110423 L16.691753,92.6690704 L11.8124464,92.6690704 L11.8124464,84.0228299 L10.5284594,84.0228299 L10.5284594,92.6690704 L5.13586999,92.6690704 L5.13586999,101.315311 L-7.80065005e-05,101.315311 L-7.80065005e-05,383.012386 L1439.60443,383.012386 L1439.60443,108.585517 L1400.76187,108.585517 Z" id="Fill-17"></path>
                    </g>
                    <path d="M84.084143,57.3287714 C84.084143,56.9683814 83.7916186,56.6735168 83.4335688,56.6735168 C83.075519,56.6735168 82.7829946,56.9683814 82.7829946,57.3287714 L82.7829946,59.5535168 L84.084143,59.5535168 L84.084143,57.3287714 Z" id="Fill-20" fill="#464A62"></path>
                    <path d="M88.0469512,57.3287714 C88.0469512,56.9683814 87.7544269,56.6735168 87.396377,56.6735168 C87.0383272,56.6735168 86.7450228,56.9683814 86.7450228,57.3287714 L86.7450228,59.5535168 L88.0469512,59.5535168 L88.0469512,57.3287714 Z" id="Fill-22" fill="#464A62"></path>
                    <path d="M92.0093694,57.3287714 C92.0093694,56.9683814 91.7168451,56.6735168 91.3587952,56.6735168 C91.0007454,56.6735168 90.707441,56.9683814 90.707441,57.3287714 L90.707441,59.5535168 L92.0093694,59.5535168 L92.0093694,57.3287714 Z" id="Fill-24" fill="#464A62"></path>
                    <path d="M827.112832,138.079931 C827.112832,137.579129 826.706418,137.170375 826.208737,137.170375 C825.711055,137.170375 825.303861,137.579129 825.303861,138.079931 L825.303861,141.171328 L827.112832,141.171328 L827.112832,138.079931 Z" id="Fill-26" fill="#464A62"></path>
                    <path d="M832.618609,138.079931 C832.618609,137.579129 832.211415,137.170375 831.713733,137.170375 C831.216832,137.170375 830.809638,137.579129 830.809638,138.079931 L830.809638,141.171328 L832.618609,141.171328 L832.618609,138.079931 Z" id="Fill-28" fill="#464A62"></path>
                    <path d="M838.124074,138.079931 C838.124074,137.579129 837.71766,137.170375 837.219978,137.170375 C836.722297,137.170375 836.315103,137.579129 836.315103,138.079931 L836.315103,141.171328 L838.124074,141.171328 L838.124074,138.079931 Z" id="Fill-30" fill="#464A62"></path>
                    <g id="Group-3" transform="translate(501.222657, 91.008165)" fill="#464A62">
                        <path d="M18.7098592,33.3772568 C18.9922427,33.0410488 19.4204984,32.4661408 19.6623185,32.0995103 C19.6623185,32.0995103 22.2895775,28.1063575 22.2895775,25.1569317 C22.2895775,19.0529231 17.2995016,14.1041907 11.1447887,14.1041907 C4.98929577,14.1041907 -2.84217094e-14,19.0529231 -2.84217094e-14,25.1569317 C-2.84217094e-14,28.1055775 2.62569881,32.0979502 2.62569881,32.0979502 C2.86673889,32.4645807 3.29499458,33.0394886 3.57737811,33.3756966 L10.6299458,41.7699762 C10.9123294,42.1061842 11.3741278,42.1061842 11.6565114,41.7707562 L18.7098592,33.3772568 Z" id="Fill-32"></path>
                        <path d="M10.9926761,4.11523294 C13.2232435,4.11523294 15.3145496,5.01860689 16.8645228,6.59656444 C17.2205765,6.95904665 17.2153652,7.54153511 16.852883,7.89758885 C16.4904008,8.2536426 15.9079123,8.2484313 15.5518586,7.8859491 C14.343061,6.65532694 12.7223469,5.95523294 10.9926761,5.95523294 C9.39200311,5.95523294 7.88283293,6.55541858 6.70344687,7.62784362 C6.32752246,7.96967465 5.74566671,7.9420365 5.40383569,7.56611209 C5.06200466,7.19018768 5.08964281,6.60833194 5.46556722,6.26650091 C6.97914791,4.89019007 8.92778197,4.11523294 10.9926761,4.11523294 Z" id="Stroke-38"></path>
                        <path d="M10.9926761,7.62045504 C12.3046877,7.62045504 13.5354878,8.14942322 14.45034,9.07217909 C14.8080737,9.4330034 14.8055683,10.0155098 14.444744,10.3732435 C14.0839197,10.7309773 13.5014133,10.7284719 13.1436795,10.3676476 C12.5693216,9.78832757 11.8064297,9.46045504 10.9926761,9.46045504 C10.3688419,9.46045504 9.77504608,9.6526061 9.2709254,10.0062255 L9.08620015,10.1463416 C8.69301092,10.4681643 8.11337924,10.4103103 7.79155655,10.0171211 C7.46973386,9.62393183 7.52758787,9.04430015 7.9207771,8.72247746 C8.78638492,8.01398339 9.86052992,7.62045504 10.9926761,7.62045504 Z" id="Stroke-39"></path>
                        <path d="M10.9929881,-1.13686838e-13 C14.2990885,-1.13686838e-13 17.3994657,1.34250461 19.6958927,3.68753324 C20.0513934,4.0505578 20.0452941,4.63303765 19.6822696,4.98853839 C19.319245,5.34403913 18.7367652,5.33793987 18.3812644,4.9749153 C16.4261095,2.97838144 13.797134,1.84 10.9929881,1.84 C8.32254009,1.84 5.81017127,2.87128703 3.88441174,4.70031554 C3.51599578,5.05022595 2.9336772,5.03522423 2.5837668,4.66680827 C2.23385639,4.29839231 2.24885811,3.71607373 2.61727407,3.36616333 C4.88046791,1.21664986 7.84440818,-1.13686838e-13 10.9929881,-1.13686838e-13 Z" id="Stroke-40"></path>
                    </g>
                    <g id="Group-3-Copy" transform="translate(408.000000, 56.000000)" fill="#464A62">
                        <path d="M10.9121929,19.0455128 C11.0768881,18.8528299 11.3266606,18.5233466 11.4676979,18.3132284 C11.4676979,18.3132284 13,16.024728 13,14.3343939 C13,10.836149 10.0896269,8 6.5,8 C2.90991811,8 0,10.836149 0,14.3343939 C0,16.0242809 1.53139217,18.3123343 1.53139217,18.3123343 C1.67197452,18.5224525 1.92174704,18.8519358 2.08644222,19.0446187 L6.19972702,23.8554319 C6.3644222,24.0481148 6.63375796,24.0481148 6.79845314,23.855879 L10.9121929,19.0455128 Z" id="Fill-32"></path>
                        <path d="M6.41008729,3 C7.71520065,3 8.93883167,3.44654898 9.84572678,4.22655301 C10.0540552,4.40573247 10.051006,4.69366377 9.83891631,4.86966556 C9.62682662,5.04566735 9.28601044,5.04309134 9.07768206,4.86391188 C8.37041005,4.25560005 7.4221242,3.90953488 6.41008729,3.90953488 C5.47352756,3.90953488 4.59050643,4.2062141 3.90044323,4.73632713 C3.68048845,4.90529846 3.34004248,4.89163658 3.14003586,4.70581247 C2.94002925,4.51998836 2.95620044,4.23236983 3.17615521,4.06339851 C4.06175694,3.38307094 5.20191003,3 6.41008729,3 Z" id="Stroke-38"></path>
                        <path d="M5.91165163,4 C6.64733685,4 7.33748429,4.3503729 7.85047002,4.96157912 C8.05106232,5.20057849 8.04965747,5.58641351 7.84733219,5.82336577 C7.64500691,6.06031803 7.31837768,6.05865853 7.11778538,5.81965916 C6.79572523,5.43593472 6.36794829,5.21876164 5.91165163,5.21876164 C5.56184864,5.21876164 5.22888909,5.34603683 4.94621313,5.58026384 L4.84263201,5.67307264 C4.62215873,5.88623848 4.29714143,5.84791769 4.11668556,5.58748077 C3.93622969,5.32704384 3.96867021,4.94311294 4.18914349,4.7299471 C4.67451639,4.26066155 5.27682251,4 5.91165163,4 Z" id="Stroke-39"></path>
                        <path d="M5.91393005,0 C7.78944039,0 9.5482464,0.766966592 10.8509813,2.10667046 C11.0526526,2.31406469 11.0491925,2.6468327 10.8432531,2.84992861 C10.6373137,3.05302452 10.30688,3.04954003 10.1052088,2.8421458 C8.99607336,1.70153536 7.5046877,1.05118338 5.91393005,1.05118338 C4.39901758,1.05118338 2.9737815,1.64035282 1.88132167,2.68526825 C1.67232381,2.88517042 1.34198161,2.87660001 1.14348171,2.6661257 C0.944981823,2.45565139 0.953492114,2.12297551 1.16248998,1.92307334 C2.44637215,0.695066362 4.1277792,0 5.91393005,0 Z" id="Stroke-40"></path>
                    </g>
                    <path d="M512.215411,98.6279957 C513.527811,98.6279957 514.758729,99.1572676 515.673421,100.080849 C516.030962,100.441865 516.028145,101.02437 515.667129,101.381911 C515.306113,101.739451 514.723608,101.736634 514.366068,101.375619 C513.791967,100.795938 513.029277,100.467996 512.215411,100.467996 C511.592131,100.467996 510.998328,100.660416 510.493822,101.014404 L510.308935,101.154662 C509.915745,101.476485 509.336114,101.418631 509.014291,101.025442 C508.692468,100.632253 508.750322,100.052621 509.143512,99.7307982 C510.00946,99.0220251 511.083609,98.6279957 512.215411,98.6279957 Z" id="Stroke-37" fill="#464A62"></path>
                    <path d="M75.8477251,58.8577299 C76.2086472,58.5000949 76.7911529,58.5027596 77.1487879,58.8636817 C77.4766201,59.194527 77.5017003,59.711564 77.2256018,60.0709094 L77.1428361,60.1647446 C76.8734056,60.4317213 76.7225829,60.7825347 76.7225829,61.1571744 C76.7225829,61.4267317 76.8002454,61.6836555 76.9446988,61.9065665 L77.0392988,62.0360605 C77.3612563,62.4291394 77.3036011,63.0087908 76.9105223,63.3307484 C76.5174435,63.6527059 75.937792,63.5950508 75.6158345,63.201972 C75.1448285,62.6269196 74.8825829,61.9110598 74.8825829,61.1571744 C74.8825829,60.2841107 75.2346363,59.465235 75.8477251,58.8577299 Z" id="Stroke-41" fill="#464A62"></path>
                    <path d="M74.3951573,57.4396178 C74.757605,57.0835289 75.3400939,57.0886837 75.6961828,57.4511313 C76.0522718,57.813579 76.047117,58.3960679 75.6846693,58.7521568 C75.0338269,59.391581 74.6642254,60.2466871 74.6642254,61.1576425 C74.6642254,62.0024275 74.9805222,62.7974741 75.5474495,63.419449 C75.8897299,63.7949643 75.8627878,64.3768527 75.4872725,64.7191331 C75.1117573,65.0614136 74.5298689,65.0344714 74.1875884,64.6589562 C73.3156658,63.7023713 72.8242254,62.4670824 72.8242254,61.1576425 C72.8242254,59.7456648 73.3971775,58.4200892 74.3951573,57.4396178 Z" id="Stroke-42" fill="#464A62"></path>
                    <path d="M75.8474911,58.858042 C76.2084132,58.5004069 76.7909189,58.5030716 77.1485539,58.8639938 C77.506189,59.2249159 77.5035243,59.8074216 77.1426021,60.1650566 C76.8731715,60.4320334 76.7223489,60.7828467 76.7223489,61.1574865 C76.7223489,61.4268872 76.799929,61.6834762 76.9447448,61.9070384 L77.0396198,62.0370508 C77.3612027,62.4304362 77.3029954,63.0100325 76.9096101,63.3316154 C76.5162247,63.6531984 75.9366284,63.5949911 75.6150455,63.2016057 C75.1442923,62.6257438 74.8823489,61.9109921 74.8823489,61.1574865 C74.8823489,60.2844227 75.2344023,59.465547 75.8474911,58.858042 Z" id="Stroke-43" fill="#464A62"></path>
                    <path d="M72.6875129,55.7763102 C73.0505499,55.4208221 73.6330295,55.4269418 73.9885176,55.7899788 C74.3440056,56.1530158 74.337886,56.7354954 73.974849,57.0909835 C72.8741202,58.1688237 72.247974,59.6146587 72.247974,61.1577205 C72.247974,62.6275427 72.8153283,64.0095145 73.8233262,65.0701639 C74.1733507,65.4384715 74.1585294,66.0207947 73.7902218,66.3708192 C73.4219142,66.7208437 72.839591,66.7060223 72.4895665,66.3377147 C71.1607975,64.9395393 70.407974,63.105798 70.407974,61.1577205 C70.407974,59.1126613 71.2382747,57.195413 72.6875129,55.7763102 Z" id="Stroke-44" fill="#464A62"></path>
                    <path d="M98.2475362,58.8066817 C98.640615,58.4847242 99.2202665,58.5423794 99.542224,58.9354582 C100.01323,59.5105106 100.275476,60.2263703 100.275476,60.9802557 C100.275476,61.8533194 99.9234222,62.6721951 99.3103334,63.2797002 C98.9494113,63.6373352 98.3669056,63.6346705 98.0092706,63.2737484 C97.6814384,62.9429031 97.6563582,62.4258661 97.9324567,62.0665207 L98.0152224,61.9726855 C98.2846529,61.7057088 98.4354756,61.3548955 98.4354756,60.9802557 C98.4354756,60.7106984 98.3578131,60.4537746 98.2133597,60.2308636 L98.1187597,60.1013696 C97.7968022,59.7082908 97.8544574,59.1286393 98.2475362,58.8066817 Z" id="Stroke-45" fill="#464A62"></path>
                    <path d="M99.6715085,57.4177172 C100.047387,57.0758357 100.629246,57.1033959 100.971128,57.4792744 C101.842275,58.4370491 102.333833,59.6720126 102.333833,60.9798657 C102.333833,62.3918433 101.760881,63.7174189 100.762901,64.6978903 C100.400454,65.0539792 99.8179646,65.0488245 99.4618757,64.6863768 C99.1057867,64.3239292 99.1109415,63.7414402 99.4733892,63.3853513 C100.124232,62.7459272 100.493833,61.890821 100.493833,60.9798657 C100.493833,60.1364762 100.177206,59.3409997 99.6099512,58.7173366 C99.2680698,58.341458 99.2956299,57.7595986 99.6715085,57.4177172 Z" id="Stroke-46" fill="#464A62"></path>
                    <path d="M98.2484484,58.8058147 C98.6418338,58.4842317 99.2214301,58.5424391 99.543013,58.9358244 C100.013766,59.5116863 100.27571,60.226438 100.27571,60.9799437 C100.27571,61.8523222 99.923473,62.670957 99.3111629,63.2787976 C98.9505669,63.6367615 98.368059,63.6346278 98.0100951,63.2740318 C97.6521312,62.9134358 97.654265,62.3309279 98.014861,61.972964 C98.2845679,61.7052258 98.4357096,61.3539566 98.4357096,60.9799437 C98.4357096,60.7105429 98.3581295,60.453954 98.2133137,60.2303917 L98.1184388,60.1003793 C97.7968558,59.706994 97.8550631,59.1273977 98.2484484,58.8058147 Z" id="Stroke-47" fill="#464A62"></path>
                    <path d="M101.368595,55.7661869 C101.737137,55.416409 102.31945,55.4316201 102.669228,55.8001619 C103.997114,57.1992824 104.749616,59.0328087 104.749616,60.9797096 C104.749616,63.0247688 103.919316,64.9420172 102.470078,66.36112 C102.107041,66.716608 101.524561,66.7104883 101.169073,66.3474513 C100.813585,65.9844143 100.819705,65.4019347 101.182742,65.0464467 C102.28347,63.9686064 102.909616,62.5227714 102.909616,60.9797096 C102.909616,59.5107935 102.342351,58.1286101 101.33462,57.0668197 C100.984842,56.6982779 101.000053,56.1159648 101.368595,55.7661869 Z" id="Stroke-48" fill="#464A62"></path>
                    <path d="M816.715302,137.564676 C817.076468,137.207288 817.658972,137.210351 818.01636,137.571518 C818.373748,137.932685 818.370684,138.515189 818.009518,138.872577 C817.644388,139.233886 817.438379,139.713287 817.438379,140.224173 C817.438379,140.610221 817.555233,140.977415 817.771095,141.290944 L817.869617,141.421926 C818.191674,141.814923 818.134166,142.394589 817.741168,142.716646 C817.348171,143.038703 816.768505,142.981195 816.446448,142.588197 C815.901495,141.923207 815.598379,141.09589 815.598379,140.224173 C815.598379,139.214782 816.005743,138.26681 816.715302,137.564676 Z" id="Stroke-49" fill="#464A62"></path>
                    <path d="M814.944658,135.837619 C815.307113,135.481538 815.889602,135.486705 816.245683,135.849161 C816.601764,136.211616 816.596597,136.794105 816.234142,137.150186 C815.402509,137.967194 814.930548,139.05893 814.930548,140.224173 C814.930548,141.304086 815.33495,142.320862 816.059245,143.116856 C816.401202,143.492665 816.373761,144.07453 815.997952,144.416488 C815.622143,144.758446 815.040278,144.731005 814.69832,144.355196 C813.669825,143.224888 813.090548,141.768428 813.090548,140.224173 C813.090548,138.557858 813.765894,136.995654 814.944658,135.837619 Z" id="Stroke-50" fill="#464A62"></path>
                    <path d="M816.715146,137.565066 C817.076312,137.207678 817.658816,137.210741 818.016204,137.571908 C818.34381,137.902978 818.368536,138.420032 818.092191,138.779188 L818.009361,138.872967 C817.644232,139.234276 817.438223,139.713677 817.438223,140.224563 C817.438223,140.610029 817.555139,140.977319 817.771268,141.291552 L817.869917,141.422873 C818.191667,141.816122 818.133704,142.395743 817.740455,142.717493 C817.347206,143.039242 816.767585,142.98128 816.445836,142.588031 C815.901229,141.922399 815.598223,141.095386 815.598223,140.224563 C815.598223,139.215172 816.005587,138.2672 816.715146,137.565066 Z" id="Stroke-51" fill="#464A62"></path>
                    <path d="M812.863874,133.811618 C813.226985,133.456205 813.809463,133.462445 814.164876,133.825556 C814.520289,134.188667 814.514049,134.771145 814.150938,135.126558 C812.771949,136.476313 811.986583,138.289883 811.986583,140.224407 C811.986583,142.066328 812.698122,143.798945 813.961742,145.13031 C814.311526,145.498846 814.296324,146.081159 813.927788,146.430943 C813.559252,146.780727 812.976938,146.765525 812.627155,146.396988 C811.04346,144.728389 810.146583,142.544471 810.146583,140.224407 C810.146583,137.787837 811.136157,135.502709 812.863874,133.811618 Z" id="Stroke-52" fill="#464A62"></path>
                    <path d="M846.085302,137.515778 C846.478299,137.193721 847.057965,137.25123 847.380022,137.644227 C847.924975,138.309218 848.228091,139.136534 848.228091,140.008251 C848.228091,141.018177 847.820923,141.965421 847.111169,142.667749 C846.750002,143.025137 846.167498,143.022073 845.81011,142.660906 C845.452722,142.29974 845.455786,141.717236 845.816953,141.359848 C846.182324,140.998299 846.388091,140.519599 846.388091,140.008251 C846.388091,139.567054 846.235465,139.150481 845.956853,138.810499 C845.634796,138.417501 845.692305,137.837835 846.085302,137.515778 Z" id="Stroke-53" fill="#464A62"></path>
                    <path d="M847.828236,135.816896 C848.203903,135.474782 848.785779,135.501982 849.127893,135.877649 C850.156493,137.007129 850.735922,138.463732 850.735922,140.008173 C850.735922,141.674811 850.060292,143.237915 848.881545,144.39499 C848.518945,144.750923 847.936458,144.745519 847.580525,144.382919 C847.224591,144.020319 847.229995,143.437832 847.592596,143.081899 C848.423771,142.266004 848.895922,141.17366 848.895922,140.008173 C848.895922,138.928234 848.491503,137.911582 847.767483,137.116553 C847.425369,136.740886 847.452569,136.15901 847.828236,135.816896 Z" id="Stroke-54" fill="#464A62"></path>
                    <path d="M846.086015,137.514932 C846.479264,137.193183 847.058885,137.251145 847.380634,137.644394 C847.925242,138.310025 848.228247,139.137039 848.228247,140.007861 C848.228247,141.017787 847.821079,141.965031 847.111325,142.667359 C846.750158,143.024747 846.167654,143.021683 845.810266,142.660516 C845.452878,142.29935 845.455942,141.716846 845.817109,141.359458 C846.18248,140.997909 846.388247,140.519209 846.388247,140.007861 C846.388247,139.567329 846.23554,139.150536 845.956553,138.809552 C845.634804,138.416302 845.692766,137.836682 846.086015,137.514932 Z" id="Stroke-55" fill="#464A62"></path>
                    <path d="M849.898682,133.801404 C850.267218,133.45162 850.849532,133.466822 851.199316,133.835358 C852.782806,135.503743 853.679887,137.688386 853.679887,140.007939 C853.679887,142.44502 852.690525,144.729431 850.962596,146.420729 C850.599485,146.776142 850.017007,146.769901 849.661594,146.406791 C849.306181,146.04368 849.312421,145.461202 849.675532,145.105789 C851.05475,143.75581 851.839887,141.942949 851.839887,140.007939 C851.839887,138.166504 851.128128,136.43317 849.864728,135.102037 C849.514944,134.733501 849.530146,134.151188 849.898682,133.801404 Z" id="Stroke-56" fill="#464A62"></path>
                </g>
            </g>
        </g>
    </g>
</svg>