<?xml version="1.0" encoding="UTF-8"?>
<svg width="300px" height="432px" viewBox="0 0 300 432" version="1.1" xmlns="http://www.w3.org/2000/svg" xmlns:xlink="http://www.w3.org/1999/xlink">
    <!-- Generator: Sketch 64 (93537) - https://sketch.com -->
    <title>Group 12</title>
    <desc>Created with Sketch.</desc>
    <g id="Page-1" stroke="none" stroke-width="1" fill="none" fill-rule="evenodd">
        <g id="STI" transform="translate(-925.000000, -9339.000000)">
            <g id="Group-12" transform="translate(925.000000, 9339.000000)">
                <rect id="Rectangle-Copy-7" fill="#FFFFFF" x="0" y="0" width="300" height="432" rx="4"></rect>
                <g id="filter3" transform="translate(28.000000, 19.000000)">
                    <g id="default-dropdowns" transform="translate(0.000000, 193.000000)">
                        <g id="Manufacturer" transform="translate(0.000000, 39.476744)">
                            <g id="Mobile-Providers-Copy">
                                <path d="M2.27906977,0 L242.72093,0 C243.979625,0 245,1.00996231 245,2.25581395 L245,31.5813953 C245,32.827247 243.979625,33.8372093 242.72093,33.8372093 L2.27906977,33.8372093 C1.02037429,33.8372093 0,32.827247 0,31.5813953 L0,2.25581395 C0,1.00996231 1.02037429,0 2.27906977,0 Z" id="Rectangle-3" stroke="#CCD0DD" stroke-width="0.5" fill="#F9F9FD" fill-rule="nonzero"></path>
                                <text id="All-Devices" fill="#34384F" font-family="Gotham-Light, Gotham" font-size="12" font-weight="300">
                                    <tspan x="11.5566037" y="21.4186047">All Devices</tspan>
                                </text>
                            </g>
                            <g id="carrot" transform="translate(224.488372, 14.662791)" fill="#5E5F73" fill-rule="nonzero">
                                <path d="M7.97674419,4.46186373 C7.97674419,4.62539199 7.91094839,4.7811332 7.79131965,4.89599233 C7.54608075,5.13544442 7.1473183,5.13544442 6.90008559,4.89599233 L3.98114452,2.05760894 L1.06020964,4.89599233 C0.805001678,5.12765736 0.406239237,5.11403001 0.168975585,4.86484408 C-0.0563251949,4.62928552 -0.0563251949,4.26134693 0.168975585,4.02578836 L3.53054296,0.743542564 C3.77578187,0.504090467 4.17454431,0.504090467 4.42177702,0.743542564 L7.7833444,4.02578836 C7.90496695,4.14064751 7.97475038,4.2963887 7.97674419,4.46186373 Z" id="Shape" transform="translate(3.988372, 2.819767) rotate(-180.000000) translate(-3.988372, -2.819767) "></path>
                            </g>
                        </g>
                        <g id="Date-Range" transform="translate(0.000000, 119.558140)">
                            <g id="Group-6">
                                <path d="M2.27906977,0 L242.72093,0 C243.979625,0 245,1.00996231 245,2.25581395 L245,31.5813953 C245,32.827247 243.979625,33.8372093 242.72093,33.8372093 L2.27906977,33.8372093 C1.02037429,33.8372093 0,32.827247 0,31.5813953 L0,2.25581395 C0,1.00996231 1.02037429,0 2.27906977,0 Z" id="Rectangle" stroke="#CCD0DD" stroke-width="0.5" fill="#F9F9FD" fill-rule="nonzero"></path>
                                <text id="Dec-2018" fill="#26273B" font-family="Gotham-Light, Gotham" font-size="12" font-weight="300">
                                    <tspan x="9.11627907" y="18.5988372">Dec 2018</tspan>
                                </text>
                                <g id="carrot" transform="translate(227.337209, 14.662791)" fill="#5E5F73" fill-rule="nonzero">
                                    <path d="M7.97674419,4.46186373 C7.97674419,4.62539199 7.91094839,4.7811332 7.79131965,4.89599233 C7.54608075,5.13544442 7.1473183,5.13544442 6.90008559,4.89599233 L3.98114452,2.05760894 L1.06020964,4.89599233 C0.805001678,5.12765736 0.406239237,5.11403001 0.168975585,4.86484408 C-0.0563251949,4.62928552 -0.0563251949,4.26134693 0.168975585,4.02578836 L3.53054296,0.743542564 C3.77578187,0.504090467 4.17454431,0.504090467 4.42177702,0.743542564 L7.7833444,4.02578836 C7.90496695,4.14064751 7.97475038,4.2963887 7.97674419,4.46186373 Z" id="Shape" transform="translate(3.988372, 2.819767) rotate(-180.000000) translate(-3.988372, -2.819767) "></path>
                                </g>
                            </g>
                        </g>
                        <g id="Date-Range" transform="translate(0.000000, 159.598837)">
                            <g id="Group-6">
                                <path d="M2.27906977,0 L242.72093,0 C243.979625,0 245,1.00996231 245,2.25581395 L245,31.5813953 C245,32.827247 243.979625,33.8372093 242.72093,33.8372093 L2.27906977,33.8372093 C1.02037429,33.8372093 0,32.827247 0,31.5813953 L0,2.25581395 C0,1.00996231 1.02037429,0 2.27906977,0 Z" id="Rectangle" stroke="#CCD0DD" stroke-width="0.5" fill="#F9F9FD" fill-rule="nonzero"></path>
                                <text id="Mean" fill="#26273B" font-family="Gotham-Light, Gotham" font-size="12" font-weight="300">
                                    <tspan x="9.11627907" y="18.5988372">Mean</tspan>
                                </text>
                                <g id="carrot" transform="translate(227.337209, 14.662791)" fill="#5E5F73" fill-rule="nonzero">
                                    <path d="M7.97674419,4.46186373 C7.97674419,4.62539199 7.91094839,4.7811332 7.79131965,4.89599233 C7.54608075,5.13544442 7.1473183,5.13544442 6.90008559,4.89599233 L3.98114452,2.05760894 L1.06020964,4.89599233 C0.805001678,5.12765736 0.406239237,5.11403001 0.168975585,4.86484408 C-0.0563251949,4.62928552 -0.0563251949,4.26134693 0.168975585,4.02578836 L3.53054296,0.743542564 C3.77578187,0.504090467 4.17454431,0.504090467 4.42177702,0.743542564 L7.7833444,4.02578836 C7.90496695,4.14064751 7.97475038,4.2963887 7.97674419,4.46186373 Z" id="Shape" transform="translate(3.988372, 2.819767) rotate(-180.000000) translate(-3.988372, -2.819767) "></path>
                                </g>
                            </g>
                        </g>
                        <g id="Date-Range" transform="translate(0.000000, 78.953488)">
                            <g id="Group-6">
                                <path d="M2.27906977,0 L242.72093,0 C243.979625,0 245,1.00996231 245,2.25581395 L245,31.5813953 C245,32.827247 243.979625,33.8372093 242.72093,33.8372093 L2.27906977,33.8372093 C1.02037429,33.8372093 0,32.827247 0,31.5813953 L0,2.25581395 C0,1.00996231 1.02037429,0 2.27906977,0 Z" id="Rectangle" stroke="#CCD0DD" stroke-width="0.5" fill="#F9F9FD" fill-rule="nonzero"></path>
                                <text id="All-Technologies" fill="#26273B" font-family="Gotham-Light, Gotham" font-size="12" font-weight="300">
                                    <tspan x="9.11627907" y="18.5988372">All Technologies</tspan>
                                </text>
                                <g id="carrot" transform="translate(227.337209, 14.662791)" fill="#5E5F73" fill-rule="nonzero">
                                    <path d="M7.97674419,4.46186373 C7.97674419,4.62539199 7.91094839,4.7811332 7.79131965,4.89599233 C7.54608075,5.13544442 7.1473183,5.13544442 6.90008559,4.89599233 L3.98114452,2.05760894 L1.06020964,4.89599233 C0.805001678,5.12765736 0.406239237,5.11403001 0.168975585,4.86484408 C-0.0563251949,4.62928552 -0.0563251949,4.26134693 0.168975585,4.02578836 L3.53054296,0.743542564 C3.77578187,0.504090467 4.17454431,0.504090467 4.42177702,0.743542564 L7.7833444,4.02578836 C7.90496695,4.14064751 7.97475038,4.2963887 7.97674419,4.46186373 Z" id="Shape" transform="translate(3.988372, 2.819767) rotate(-180.000000) translate(-3.988372, -2.819767) "></path>
                                </g>
                            </g>
                        </g>
                        <g id="Search-location">
                            <path d="M2.63171126,0 L241.979821,0 C243.238517,0 244.258891,1.00996231 244.258891,2.25581395 L244.258891,31.5813953 C244.258891,32.827247 243.238517,33.8372093 241.979821,33.8372093 L2.63171126,33.8372093 C1.37301578,33.8372093 0.352641495,32.827247 0.352641495,31.5813953 L0.352641495,2.25581395 C0.352641495,1.00996231 1.37301578,0 2.63171126,0 Z" id="Rectangle" stroke="#CCD0DD" stroke-width="0.5" fill="#F9F9FD"></path>
                            <g id="Search-Location" transform="translate(7.976744, 7.895349)" fill="#6D7085" font-family="Gotham-Light, Gotham" font-size="12" font-weight="300">
                                <text id="United-States">
                                    <tspan x="0.998449617" y="13.5232558">United States</tspan>
                                </text>
                            </g>
                            <g id="carrot" transform="translate(223.918605, 14.662791)" fill="#5E5F73" fill-rule="nonzero">
                                <path d="M7.97674419,4.46186373 C7.97674419,4.62539199 7.91094839,4.7811332 7.79131965,4.89599233 C7.54608075,5.13544442 7.1473183,5.13544442 6.90008559,4.89599233 L3.98114452,2.05760894 L1.06020964,4.89599233 C0.805001678,5.12765736 0.406239237,5.11403001 0.168975585,4.86484408 C-0.0563251949,4.62928552 -0.0563251949,4.26134693 0.168975585,4.02578836 L3.53054296,0.743542564 C3.77578187,0.504090467 4.17454431,0.504090467 4.42177702,0.743542564 L7.7833444,4.02578836 C7.90496695,4.14064751 7.97475038,4.2963887 7.97674419,4.46186373 Z" id="Shape" transform="translate(3.988372, 2.819767) rotate(-180.000000) translate(-3.988372, -2.819767) "></path>
                            </g>
                        </g>
                    </g>
                    <g id="mobile-toggle" transform="translate(1.008230, 0.000000)">
                        <g id="Group">
                            <g id="left-toggle">
                                <path d="M2.28029691,0 L214.34791,0 C215.607282,0 216.628207,1.01482123 216.628207,2.26666667 L216.628207,31.7333333 C216.628207,32.9851788 215.607282,34 214.34791,34 L2.28029691,34 C1.0209237,34 0,32.9851788 0,31.7333333 L0,2.26666667 C0,1.01482123 1.0209237,0 2.28029691,0 Z" id="Rectangle" stroke="#CCD0DD" stroke-width="0.5" fill="#F9F9FD"></path>
                                <path d="M1.14014846,1.13333333 L107.173955,1.13333333 C108.433328,1.13333333 109.454252,2.14815457 109.454252,3.4 L109.454252,30.6 C109.454252,31.8518454 108.433328,32.8666667 107.173955,32.8666667 L1.14014846,32.8666667 L1.14014846,32.8666667 L1.14014846,1.13333333 Z" id="Rectangle-4" stroke="#CCD0DD" stroke-width="2" fill="#CCD0DD" transform="translate(55.297200, 17.000000) rotate(-180.000000) translate(-55.297200, -17.000000) "></path>
                                <text id="Fixed" fill="#6D7085" font-family="Gotham-Light, Gotham" font-size="12" font-weight="300">
                                    <tspan x="145.042276" y="22.0666667">Fixed</tspan>
                                </text>
                                <text id="Mobile" fill="#34384F" font-family="Gotham-Book, Gotham" font-size="12" font-weight="300">
                                    <tspan x="28.5037114" y="22.0666667">Mobile</tspan>
                                </text>
                            </g>
                            <rect id="Rectangle-12" stroke="#CCD0DD" stroke-width="0.5" fill="#F9F9FD" x="221.1888" y="0" width="22.8029691" height="34" rx="2"></rect>
                            <path d="M236.01073,19.7833298 C236.01073,19.9476447 235.944899,20.1041352 235.825206,20.2195469 C235.579835,20.460151 235.180857,20.460151 234.933492,20.2195469 L232.012979,17.367508 L229.090471,20.2195469 C228.835126,20.4523265 228.436149,20.4386336 228.198758,20.1882488 C227.973336,19.951557 227.973336,19.5818483 228.198758,19.3451565 L231.562135,16.0471197 C231.807506,15.8065157 232.206483,15.8065157 232.453849,16.0471197 L235.817226,19.3451565 C235.938914,19.4605681 236.008735,19.6170587 236.01073,19.7833298 Z" id="Shape" fill="#84869C" fill-rule="nonzero" transform="translate(232.020211, 18.133333) rotate(-180.000000) translate(-232.020211, -18.133333) "></path>
                        </g>
                    </g>
                    <g id="Sprint-&amp;-ATT" transform="translate(0.000000, 55.000000)">
                        <g id="Group">
                            <g id="Mobile-Providers">
                                <g id="Group-36" transform="translate(0.000000, 21.518072)" fill="#F9F9FD" fill-rule="nonzero" stroke="#CCD0DD" stroke-width="0.5">
                                    <path d="M2.27906977,0 L242.72093,0 C243.979625,0 245,1.01410201 245,2.26506024 L245,70.2168675 C245,71.4678257 243.979625,72.4819277 242.72093,72.4819277 L2.27906977,72.4819277 C1.02037429,72.4819277 0,71.4678257 0,70.2168675 L0,2.26506024 C0,1.01410201 1.02037429,0 2.27906977,0 Z" id="Rectangle-3"></path>
                                </g>
                                <g id="ic_expand" transform="translate(227.906977, 32.843373)" fill="#84869C" fill-rule="nonzero">
                                    <path d="M7.97674419,3.91388727 C7.97674419,4.07808581 7.91094839,4.23446538 7.79131965,4.3497953 C7.54608075,4.59022888 7.1473183,4.59022888 6.90008559,4.3497953 L3.98114452,1.49977775 L1.06020964,4.3497953 C0.805001678,4.5824099 0.406239237,4.56872669 0.168975585,4.31851938 C-0.0563251949,4.08199529 -0.0563251949,3.71254858 0.168975585,3.47602449 L3.53054296,0.180325187 C3.77578187,-0.0601083919 4.17454431,-0.0601083919 4.42177702,0.180325187 L7.7833444,3.47602449 C7.90496695,3.59135442 7.97475038,3.74773398 7.97674419,3.91388727 Z" id="Shape" transform="translate(3.988372, 2.265060) rotate(-180.000000) translate(-3.988372, -2.265060) "></path>
                                </g>
                                <text id="Compare" fill="#6D7085" font-family="Gotham-Light, Gotham" font-size="12" font-weight="300">
                                    <tspan x="0" y="12.9939759">Compare</tspan>
                                </text>
                            </g>
                            <g id="no-color" transform="translate(6.837209, 29.445783)">
                                <g id="Group-3-Copy-2">
                                    <rect id="Rectangle" stroke="#C3C9DD" fill="#FFFFFF" fill-rule="nonzero" x="0.569767442" y="0.56626506" width="61.5348837" height="26.0481928" rx="4"></rect>
                                    <text id="AT&amp;T" fill="#34384F" font-family="Gotham-Light, Gotham" font-size="12" font-weight="300">
                                        <tspan x="6.8372093" y="17.5240964">AT&amp;T</tspan>
                                    </text>
                                    <g id="x" transform="translate(50.139535, 11.325301)" fill="#5E5F73" fill-rule="nonzero">
                                        <path d="M0.16688102,0.165855196 C0.389389046,-0.0552850654 0.750145837,-0.0552850654 0.972653864,0.165855196 L0.972653864,0.165855196 L3.41860465,2.59689157 L5.86455544,0.165855196 C6.08706347,-0.0552850654 6.44782025,-0.0552850654 6.67032828,0.165855196 C6.89283631,0.386995457 6.89283631,0.745534663 6.67032828,0.966674925 L4.22425581,3.39759036 L6.67032828,5.8285058 C6.86811319,6.02507492 6.89008929,6.33020617 6.73625659,6.5509002 L6.67032828,6.62932553 C6.44782025,6.85046579 6.08706347,6.85046579 5.86455544,6.62932553 L5.86455544,6.62932553 L3.41860465,4.19828916 L0.972653864,6.62932553 C0.750145837,6.85046579 0.389389046,6.85046579 0.16688102,6.62932553 C-0.0556270067,6.40818526 -0.0556270067,6.04964607 0.16688102,5.8285058 L2.61295349,3.39759036 L0.16688102,0.966674925 C-0.0309038926,0.770105803 -0.052879994,0.464974554 0.100952716,0.244280515 L0.16688102,0.165855196 Z" id="Combined-Shape"></path>
                                    </g>
                                </g>
                            </g>
                            <g id="no-color" transform="translate(73.500000, 29.445783)">
                                <g id="Group-3-Copy-2">
                                    <rect id="Rectangle" stroke="#C3C9DD" fill="#FFFFFF" fill-rule="nonzero" x="0.569767442" y="0.56626506" width="77.4783762" height="26.0481928" rx="4"></rect>
                                    <text id="Verizon" fill="#34384F" font-family="Gotham-Light, Gotham" font-size="12" font-weight="300">
                                        <tspan x="6.8372093" y="17.5240964">Verizon</tspan>
                                    </text>
                                    <g id="x" transform="translate(66.083027, 11.325301)" fill="#5E5F73" fill-rule="nonzero">
                                        <path d="M0.16688102,0.165855196 C0.389389046,-0.0552850654 0.750145837,-0.0552850654 0.972653864,0.165855196 L0.972653864,0.165855196 L3.41860465,2.59689157 L5.86455544,0.165855196 C6.08706347,-0.0552850654 6.44782025,-0.0552850654 6.67032828,0.165855196 C6.89283631,0.386995457 6.89283631,0.745534663 6.67032828,0.966674925 L4.22425581,3.39759036 L6.67032828,5.8285058 C6.86811319,6.02507492 6.89008929,6.33020617 6.73625659,6.5509002 L6.67032828,6.62932553 C6.44782025,6.85046579 6.08706347,6.85046579 5.86455544,6.62932553 L5.86455544,6.62932553 L3.41860465,4.19828916 L0.972653864,6.62932553 C0.750145837,6.85046579 0.389389046,6.85046579 0.16688102,6.62932553 C-0.0556270067,6.40818526 -0.0556270067,6.04964607 0.16688102,5.8285058 L2.61295349,3.39759036 L0.16688102,0.966674925 C-0.0309038926,0.770105803 -0.052879994,0.464974554 0.100952716,0.244280515 L0.16688102,0.165855196 Z" id="Combined-Shape"></path>
                                    </g>
                                </g>
                            </g>
                            <g id="no-color" transform="translate(6.837209, 61.156627)">
                                <g id="Group-3-Copy-2">
                                    <rect id="Rectangle" stroke="#C3C9DD" fill="#FFFFFF" fill-rule="nonzero" x="0.569767442" y="0.56626506" width="65.9330885" height="26.0481928" rx="4"></rect>
                                    <text id="Sprint" fill="#34384F" font-family="Gotham-Light, Gotham" font-size="12" font-weight="300">
                                        <tspan x="6.8372093" y="17.5240964">Sprint</tspan>
                                    </text>
                                    <g id="x" transform="translate(54.537740, 11.325301)" fill="#5E5F73" fill-rule="nonzero">
                                        <path d="M0.16688102,0.165855196 C0.389389046,-0.0552850654 0.750145837,-0.0552850654 0.972653864,0.165855196 L0.972653864,0.165855196 L3.41860465,2.59689157 L5.86455544,0.165855196 C6.08706347,-0.0552850654 6.44782025,-0.0552850654 6.67032828,0.165855196 C6.89283631,0.386995457 6.89283631,0.745534663 6.67032828,0.966674925 L4.22425581,3.39759036 L6.67032828,5.8285058 C6.86811319,6.02507492 6.89008929,6.33020617 6.73625659,6.5509002 L6.67032828,6.62932553 C6.44782025,6.85046579 6.08706347,6.85046579 5.86455544,6.62932553 L5.86455544,6.62932553 L3.41860465,4.19828916 L0.972653864,6.62932553 C0.750145837,6.85046579 0.389389046,6.85046579 0.16688102,6.62932553 C-0.0556270067,6.40818526 -0.0556270067,6.04964607 0.16688102,5.8285058 L2.61295349,3.39759036 L0.16688102,0.966674925 C-0.0309038926,0.770105803 -0.052879994,0.464974554 0.100952716,0.244280515 L0.16688102,0.165855196 Z" id="Combined-Shape"></path>
                                    </g>
                                </g>
                            </g>
                            <g id="no-color" transform="translate(76.918605, 61.156627)">
                                <g id="Group-3-Copy-2">
                                    <rect id="Rectangle" stroke="#C3C9DD" fill="#FFFFFF" fill-rule="nonzero" x="0.569767442" y="0.56626506" width="85.1752346" height="26.0481928" rx="4"></rect>
                                    <text id="T-Mobile" fill="#34384F" font-family="Gotham-Light, Gotham" font-size="12" font-weight="300">
                                        <tspan x="6.8372093" y="17.5240964">T-Mobile</tspan>
                                    </text>
                                    <g id="x" transform="translate(73.779886, 11.325301)" fill="#5E5F73" fill-rule="nonzero">
                                        <path d="M0.16688102,0.165855196 C0.389389046,-0.0552850654 0.750145837,-0.0552850654 0.972653864,0.165855196 L0.972653864,0.165855196 L3.41860465,2.59689157 L5.86455544,0.165855196 C6.08706347,-0.0552850654 6.44782025,-0.0552850654 6.67032828,0.165855196 C6.89283631,0.386995457 6.89283631,0.745534663 6.67032828,0.966674925 L4.22425581,3.39759036 L6.67032828,5.8285058 C6.86811319,6.02507492 6.89008929,6.33020617 6.73625659,6.5509002 L6.67032828,6.62932553 C6.44782025,6.85046579 6.08706347,6.85046579 5.86455544,6.62932553 L5.86455544,6.62932553 L3.41860465,4.19828916 L0.972653864,6.62932553 C0.750145837,6.85046579 0.389389046,6.85046579 0.16688102,6.62932553 C-0.0556270067,6.40818526 -0.0556270067,6.04964607 0.16688102,5.8285058 L2.61295349,3.39759036 L0.16688102,0.966674925 C-0.0309038926,0.770105803 -0.052879994,0.464974554 0.100952716,0.244280515 L0.16688102,0.165855196 Z" id="Combined-Shape"></path>
                                    </g>
                                </g>
                            </g>
                        </g>
                    </g>
                    <text id="View-by" fill="#6D7085" font-family="Gotham-Light, Gotham" font-size="12" font-weight="300">
                        <tspan x="2.01646091" y="179">View by</tspan>
                    </text>
                    <g id="no-color" transform="translate(114.938272, 197.000000)">
                        <g id="Group-3-Copy-2">
                            <rect id="Rectangle" stroke="#C3C9DD" fill="#FFFFFF" fill-rule="nonzero" x="0.568745384" y="0.5625" width="87.2176035" height="25.875" rx="4"></rect>
                            <text id="California" fill="#34384F" font-family="Gotham-Light, Gotham" font-size="12" font-weight="300">
                                <tspan x="6.8249446" y="17.4375">California</tspan>
                            </text>
                            <g id="x" transform="translate(75.842696, 11.250000)" fill="#5E5F73" fill-rule="nonzero">
                                <path d="M0.166581666,0.164752435 C0.388690554,-0.0549174786 0.748800213,-0.0549174786 0.970909102,0.164752435 L0.970909102,0.164752435 L3.4124723,2.579625 L5.8540355,0.164752435 C6.0761444,-0.0549174786 6.43625404,-0.0549174786 6.65836294,0.164752435 C6.88047183,0.384422349 6.88047183,0.740577651 6.65836294,0.960247565 L4.21667827,3.375 L6.65836294,5.78975244 C6.85579306,5.98501458 6.87772974,6.28811703 6.72417298,6.50734369 L6.65836294,6.58524756 C6.43625404,6.80491748 6.0761444,6.80491748 5.8540355,6.58524756 L5.8540355,6.58524756 L3.4124723,4.170375 L0.970909102,6.58524756 C0.748800213,6.80491748 0.388690554,6.80491748 0.166581666,6.58524756 C-0.0555272221,6.36557764 -0.0555272221,6.00942235 0.166581666,5.78975244 L2.60826633,3.375 L0.166581666,0.960247565 C-0.0308484567,0.764985419 -0.052785137,0.461882968 0.100771625,0.242656309 L0.166581666,0.164752435 Z" id="Combined-Shape"></path>
                            </g>
                        </g>
                    </g>
                    <g id="no-color" transform="translate(4.032922, 196.000000)">
                        <g id="Group-3-Copy-2">
                            <rect id="Rectangle" stroke="#C3C9DD" fill="#FFFFFF" fill-rule="nonzero" x="0.568470362" y="0.5625" width="105.825246" height="25.875" rx="4"></rect>
                            <text id="Washington" fill="#34384F" font-family="Gotham-Light, Gotham" font-size="12" font-weight="300">
                                <tspan x="6.82164434" y="17.4375">Washington</tspan>
                            </text>
                            <g id="x" transform="translate(94.455838, 11.250000)" fill="#5E5F73" fill-rule="nonzero">
                                <path d="M0.166501114,0.164752435 C0.388502599,-0.0549174786 0.748438124,-0.0549174786 0.97043961,0.164752435 L0.97043961,0.164752435 L3.41082217,2.579625 L5.85120473,0.164752435 C6.07320622,-0.0549174786 6.43314173,-0.0549174786 6.65514322,0.164752435 C6.87714471,0.384422349 6.87714471,0.740577651 6.65514322,0.960247565 L4.21463926,3.375 L6.65514322,5.78975244 C6.85247788,5.98501458 6.87440395,6.28811703 6.72092144,6.50734369 L6.65514322,6.58524756 C6.43314173,6.80491748 6.07320622,6.80491748 5.85120473,6.58524756 L5.85120473,6.58524756 L3.41082217,4.170375 L0.97043961,6.58524756 C0.748438124,6.80491748 0.388502599,6.80491748 0.166501114,6.58524756 C-0.0555003714,6.36557764 -0.0555003714,6.00942235 0.166501114,5.78975244 L2.60700508,3.375 L0.166501114,0.960247565 C-0.0308335397,0.764985419 -0.0527596123,0.461882968 0.100722896,0.242656309 L0.166501114,0.164752435 Z" id="Combined-Shape"></path>
                            </g>
                        </g>
                    </g>
                </g>
            </g>
        </g>
    </g>
</svg>