<?xml version="1.0" encoding="UTF-8"?>
<svg width="300px" height="342px" viewBox="0 0 300 342" version="1.1" xmlns="http://www.w3.org/2000/svg" xmlns:xlink="http://www.w3.org/1999/xlink">
    <!-- Generator: Sketch 64 (93537) - https://sketch.com -->
    <title>Group 10</title>
    <desc>Created with Sketch.</desc>
    <g id="Page-1" stroke="none" stroke-width="1" fill="none" fill-rule="evenodd">
        <g id="STI" transform="translate(-215.000000, -9339.000000)">
            <g id="Group-10" transform="translate(215.000000, 9339.000000)">
                <rect id="Rectangle" fill="#FFFFFF" x="0" y="0" width="300" height="342" rx="4"></rect>
                <g id="filter1" transform="translate(28.000000, 27.000000)">
                    <g id="Group-35" transform="translate(1.134259, 1.000000)">
                        <text id="Mobile" fill="#34384F" font-family="Gotham-Book, Gotham" font-size="14" font-weight="300">
                            <tspan x="10.2083333" y="13.0740741">Mobile</tspan>
                        </text>
                        <text id="Fixed" fill="#ACAEBF" font-family="Gotham-Light, Gotham" font-size="14" font-weight="300">
                            <tspan x="87.337963" y="13.0740741">Fixed</tspan>
                        </text>
                        <line x1="0.56712963" y1="23.3865741" x2="242.164352" y2="23.3865741" id="Line-4" stroke="#E7E8ED" stroke-linecap="square"></line>
                        <line x1="7.37268519" y1="22.2523148" x2="69.7569444" y2="22.2523148" id="Line-5" stroke="#272A3E" stroke-width="2" stroke-linecap="square"></line>
                    </g>
                    <g id="Group-6" transform="translate(0.000000, 248.402778)">
                        <rect id="Rectangle" fill="#EAEDF4" fill-rule="nonzero" x="0.826325593" y="0" width="127.34497" height="34.0277778" rx="2"></rect>
                        <g id="Sep-2018" transform="translate(10.208333, 9.074074)" fill="#34384F" font-family="Gotham-Light, Gotham" font-size="11" font-weight="300">
                            <text id="Sep-2017-2018">
                                <tspan x="0" y="11.9398148">Sep 2017-2018</tspan>
                            </text>
                        </g>
                        <g id="ic_expand" transform="translate(111.157407, 14.745370)" fill="#84869C" fill-rule="nonzero">
                            <path d="M7.93981481,3.91986296 C7.93981481,4.0843122 7.87432363,4.24093053 7.75524873,4.35643654 C7.51114519,4.5972372 7.11422887,4.5972372 6.86814075,4.35643654 L3.9627133,1.5020676 L1.05530126,4.35643654 C0.801274818,4.58940629 0.4043585,4.57570219 0.16819329,4.32511287 C-0.0560644302,4.08822765 -0.0560644302,3.71821687 0.16819329,3.48133165 L3.51419786,0.180600506 C3.7583014,-0.060200165 4.15521772,-0.060200165 4.40130583,0.180600506 L7.7473104,3.48133165 C7.86836988,3.59683768 7.93783024,3.75345599 7.93981481,3.91986296 Z" id="Shape" transform="translate(3.969907, 2.268519) rotate(-180.000000) translate(-3.969907, -2.268519) "></path>
                        </g>
                    </g>
                    <g id="Group-6-Copy" transform="translate(136.111111, 248.402778)">
                        <path d="M3.09484411,0 L104.351852,0 C105.60472,0 106.62037,1.01565034 106.62037,2.26851852 L106.62037,31.7592593 C106.62037,33.0121274 105.60472,34.0277778 104.351852,34.0277778 L3.09484411,34.0277778 C1.84197593,34.0277778 0.826325593,33.0121274 0.826325593,31.7592593 L0.826325593,2.26851852 C0.826325593,1.01565034 1.84197593,0 3.09484411,0 Z" id="Rectangle" fill="#EAEDF4" fill-rule="nonzero"></path>
                        <g id="Mean" transform="translate(10.208333, 9.074074)" fill="#34384F" font-family="Gotham-Light, Gotham" font-size="11" font-weight="300">
                            <text>
                                <tspan x="0" y="11.9398148">Mean</tspan>
                            </text>
                        </g>
                        <g id="ic_expand" transform="translate(88.472222, 14.745370)" fill="#84869C" fill-rule="nonzero">
                            <path d="M7.93981481,3.91986296 C7.93981481,4.0843122 7.87432363,4.24093053 7.75524873,4.35643654 C7.51114519,4.5972372 7.11422887,4.5972372 6.86814075,4.35643654 L3.9627133,1.5020676 L1.05530126,4.35643654 C0.801274818,4.58940629 0.4043585,4.57570219 0.16819329,4.32511287 C-0.0560644302,4.08822765 -0.0560644302,3.71821687 0.16819329,3.48133165 L3.51419786,0.180600506 C3.7583014,-0.060200165 4.15521772,-0.060200165 4.40130583,0.180600506 L7.7473104,3.48133165 C7.86836988,3.59683768 7.93783024,3.75345599 7.93981481,3.91986296 Z" id="Shape" transform="translate(3.969907, 2.268519) rotate(-180.000000) translate(-3.969907, -2.268519) "></path>
                        </g>
                    </g>
                    <g id="Group-3" transform="translate(1.134259, 83.935185)">
                        <rect id="Rectangle" fill="#EAEDF4" fill-rule="nonzero" x="0" y="0" width="66.9212963" height="22.6851852" rx="10"></rect>
                        <g id="ic_close" transform="translate(51.041667, 7.939815)" fill="#979797" fill-rule="nonzero">
                            <path d="M3.79733156,3.40192808 L6.71056708,0.489175542 C6.82451149,0.382114042 6.83131414,0.20367821 6.72417237,0.089819155 C6.61873128,-0.0240399 6.43846102,-0.0308374555 6.3245166,0.076224044 C6.31941461,0.0813222106 6.31431262,0.0847209883 6.3109113,0.089819155 L3.39767579,3.0025717 L0.49124293,0.0966167105 C0.384101168,-0.0189417333 0.205531566,-0.0240399 0.0915871535,0.0813222106 C-0.0223572594,0.18838371 -0.0291599109,0.366819542 0.0779818504,0.480678597 C0.0830838391,0.485776764 0.0864851649,0.490874931 0.0915871535,0.494273709 L3.003122,3.40702625 L0.0898864906,6.31638001 C-0.0240579222,6.42344151 -0.0308605737,6.60187735 0.0762811876,6.7157364 C0.183422949,6.82959545 0.361992551,6.83639301 0.475936964,6.72933151 C0.481038953,6.72423334 0.486140941,6.72083457 0.489542267,6.7157364 L3.40277778,3.80298386 L6.31601329,6.7157364 C6.42315505,6.82959545 6.60172465,6.83639301 6.71566906,6.72933151 C6.82961348,6.62227001 6.83641613,6.44383418 6.72927436,6.32997512 C6.72417237,6.32487695 6.72077105,6.31977879 6.71566906,6.31638001 L3.79733156,3.40192808 Z" id="Shape"></path>
                        </g>
                        <rect id="Rectangle-5" fill="#1E8FE1" fill-rule="nonzero" x="8.50694444" y="5.6712963" width="11.3425926" height="11.3425926" rx="1"></rect>
                        <text id="ATT" fill="#34384F" font-family="Gotham-Light, Gotham" font-size="11" font-weight="300">
                            <tspan x="22.1180556" y="14.775463">ATT</tspan>
                        </text>
                    </g>
                    <g id="Group-3-Copy-3" transform="translate(1.134259, 112.291667)">
                        <rect id="Rectangle" fill="#EAEDF4" fill-rule="nonzero" x="0" y="0" width="97.5462963" height="22.6851852" rx="10"></rect>
                        <rect id="Rectangle-5" fill="#DE5AD0" fill-rule="nonzero" x="8.50694444" y="5.6712963" width="11.3425926" height="11.3425926" rx="1"></rect>
                        <g id="T-Mobile" transform="translate(22.685185, 4.402778)" fill="#34384F" font-family="Gotham-Light, Gotham" font-size="11" font-weight="300">
                            <text>
                                <tspan x="0" y="11.5069444">T-Mobile</tspan>
                            </text>
                        </g>
                        <g id="ic_close" transform="translate(81.666667, 8.506944)" fill="#979797" fill-rule="nonzero">
                            <path d="M3.79733156,3.40192808 L6.71056708,0.489175542 C6.82451149,0.382114042 6.83131414,0.20367821 6.72417237,0.089819155 C6.61873128,-0.0240399 6.43846102,-0.0308374555 6.3245166,0.076224044 C6.31941461,0.0813222106 6.31431262,0.0847209883 6.3109113,0.089819155 L3.39767579,3.0025717 L0.49124293,0.0966167105 C0.384101168,-0.0189417333 0.205531566,-0.0240399 0.0915871535,0.0813222106 C-0.0223572594,0.18838371 -0.0291599109,0.366819542 0.0779818504,0.480678597 C0.0830838391,0.485776764 0.0864851649,0.490874931 0.0915871535,0.494273709 L3.003122,3.40702625 L0.0898864906,6.31638001 C-0.0240579222,6.42344151 -0.0308605737,6.60187735 0.0762811876,6.7157364 C0.183422949,6.82959545 0.361992551,6.83639301 0.475936964,6.72933151 C0.481038953,6.72423334 0.486140941,6.72083457 0.489542267,6.7157364 L3.40277778,3.80298386 L6.31601329,6.7157364 C6.42315505,6.82959545 6.60172465,6.83639301 6.71566906,6.72933151 C6.82961348,6.62227001 6.83641613,6.44383418 6.72927436,6.32997512 C6.72417237,6.32487695 6.72077105,6.31977879 6.71566906,6.31638001 L3.79733156,3.40192808 Z" id="Shape"></path>
                        </g>
                    </g>
                    <g id="Group-3-Copy-4" transform="translate(103.217593, 112.291667)">
                        <rect id="Rectangle" fill="#EAEDF4" fill-rule="nonzero" x="0" y="0" width="110.023148" height="22.6851852" rx="10"></rect>
                        <rect id="Rectangle-5" fill="#2EE2C6" fill-rule="nonzero" x="8.50694444" y="5.6712963" width="11.3425926" height="11.3425926" rx="1"></rect>
                        <g id="US-Cellular" transform="translate(22.685185, 3.402778)" fill="#34384F" font-family="Gotham-Light, Gotham" font-size="11" font-weight="300">
                            <text>
                                <tspan x="0" y="11.9398148">US Cellular</tspan>
                            </text>
                        </g>
                        <g id="ic_close" transform="translate(94.710648, 8.506944)" fill="#979797" fill-rule="nonzero">
                            <path d="M3.79733156,3.40192808 L6.71056708,0.489175542 C6.82451149,0.382114042 6.83131414,0.20367821 6.72417237,0.089819155 C6.61873128,-0.0240399 6.43846102,-0.0308374555 6.3245166,0.076224044 C6.31941461,0.0813222106 6.31431262,0.0847209883 6.3109113,0.089819155 L3.39767579,3.0025717 L0.49124293,0.0966167105 C0.384101168,-0.0189417333 0.205531566,-0.0240399 0.0915871535,0.0813222106 C-0.0223572594,0.18838371 -0.0291599109,0.366819542 0.0779818504,0.480678597 C0.0830838391,0.485776764 0.0864851649,0.490874931 0.0915871535,0.494273709 L3.003122,3.40702625 L0.0898864906,6.31638001 C-0.0240579222,6.42344151 -0.0308605737,6.60187735 0.0762811876,6.7157364 C0.183422949,6.82959545 0.361992551,6.83639301 0.475936964,6.72933151 C0.481038953,6.72423334 0.486140941,6.72083457 0.489542267,6.7157364 L3.40277778,3.80298386 L6.31601329,6.7157364 C6.42315505,6.82959545 6.60172465,6.83639301 6.71566906,6.72933151 C6.82961348,6.62227001 6.83641613,6.44383418 6.72927436,6.32997512 C6.72417237,6.32487695 6.72077105,6.31977879 6.71566906,6.31638001 L3.79733156,3.40192808 Z" id="Shape"></path>
                        </g>
                    </g>
                    <g id="Group-3-Copy-2" transform="translate(164.467593, 83.935185)">
                        <rect id="Rectangle" fill="#EAEDF4" fill-rule="nonzero" x="0" y="0" width="80.5324074" height="22.6851852" rx="10"></rect>
                        <g id="ic_close" transform="translate(65.219907, 7.939815)" fill="#979797" fill-rule="nonzero">
                            <path d="M3.79733156,3.40192808 L6.71056708,0.489175542 C6.82451149,0.382114042 6.83131414,0.20367821 6.72417237,0.089819155 C6.61873128,-0.0240399 6.43846102,-0.0308374555 6.3245166,0.076224044 C6.31941461,0.0813222106 6.31431262,0.0847209883 6.3109113,0.089819155 L3.39767579,3.0025717 L0.49124293,0.0966167105 C0.384101168,-0.0189417333 0.205531566,-0.0240399 0.0915871535,0.0813222106 C-0.0223572594,0.18838371 -0.0291599109,0.366819542 0.0779818504,0.480678597 C0.0830838391,0.485776764 0.0864851649,0.490874931 0.0915871535,0.494273709 L3.003122,3.40702625 L0.0898864906,6.31638001 C-0.0240579222,6.42344151 -0.0308605737,6.60187735 0.0762811876,6.7157364 C0.183422949,6.82959545 0.361992551,6.83639301 0.475936964,6.72933151 C0.481038953,6.72423334 0.486140941,6.72083457 0.489542267,6.7157364 L3.40277778,3.80298386 L6.31601329,6.7157364 C6.42315505,6.82959545 6.60172465,6.83639301 6.71566906,6.72933151 C6.82961348,6.62227001 6.83641613,6.44383418 6.72927436,6.32997512 C6.72417237,6.32487695 6.72077105,6.31977879 6.71566906,6.31638001 L3.79733156,3.40192808 Z" id="Shape"></path>
                        </g>
                        <rect id="Rectangle-5" fill="#FDB319" fill-rule="nonzero" x="9.07407407" y="5.6712963" width="11.3425926" height="11.3425926" rx="1"></rect>
                        <g id="Sprint" transform="translate(22.685185, 3.268519)" fill="#34384F" font-family="Gotham-Light, Gotham" font-size="11" font-weight="300">
                            <text>
                                <tspan x="0.56712963" y="11.5069444">Sprint</tspan>
                            </text>
                        </g>
                    </g>
                    <g id="Group-3-Copy" transform="translate(70.324074, 83.935185)">
                        <rect id="Rectangle" fill="#EAEDF4" fill-rule="nonzero" x="0" y="0" width="90.7407407" height="22.6851852" rx="10"></rect>
                        <rect id="Rectangle-5" fill="#C30016" fill-rule="nonzero" x="10.2083333" y="5.6712963" width="11.3425926" height="11.3425926" rx="1"></rect>
                        <g id="ic_close" transform="translate(74.861111, 7.939815)" fill="#979797" fill-rule="nonzero">
                            <path d="M3.79733156,3.40192808 L6.71056708,0.489175542 C6.82451149,0.382114042 6.83131414,0.20367821 6.72417237,0.089819155 C6.61873128,-0.0240399 6.43846102,-0.0308374555 6.3245166,0.076224044 C6.31941461,0.0813222106 6.31431262,0.0847209883 6.3109113,0.089819155 L3.39767579,3.0025717 L0.49124293,0.0966167105 C0.384101168,-0.0189417333 0.205531566,-0.0240399 0.0915871535,0.0813222106 C-0.0223572594,0.18838371 -0.0291599109,0.366819542 0.0779818504,0.480678597 C0.0830838391,0.485776764 0.0864851649,0.490874931 0.0915871535,0.494273709 L3.003122,3.40702625 L0.0898864906,6.31638001 C-0.0240579222,6.42344151 -0.0308605737,6.60187735 0.0762811876,6.7157364 C0.183422949,6.82959545 0.361992551,6.83639301 0.475936964,6.72933151 C0.481038953,6.72423334 0.486140941,6.72083457 0.489542267,6.7157364 L3.40277778,3.80298386 L6.31601329,6.7157364 C6.42315505,6.82959545 6.60172465,6.83639301 6.71566906,6.72933151 C6.82961348,6.62227001 6.83641613,6.44383418 6.72927436,6.32997512 C6.72417237,6.32487695 6.72077105,6.31977879 6.71566906,6.31638001 L3.79733156,3.40192808 Z" id="Shape"></path>
                        </g>
                        <g id="Verizon" transform="translate(22.685185, 3.268519)" fill="#34384F" font-family="Gotham-Light, Gotham" font-size="11" font-weight="300">
                            <text>
                                <tspan x="0.56712963" y="11.5069444">Verizon</tspan>
                            </text>
                        </g>
                    </g>
                    <g id="Group-36" transform="translate(1.134259, 39.699074)">
                        <rect id="Rectangle-3" fill="#EAEDF4" fill-rule="nonzero" x="0" y="0" width="243.865741" height="34.0277778" rx="2"></rect>
                        <text id="Top-Providers" fill="#34384F" font-family="Gotham-Light, Gotham" font-size="11" font-weight="300">
                            <tspan x="27.7893519" y="21.0138889">Top Providers</tspan>
                        </text>
                        <g id="ic_search" transform="translate(217.777778, 7.561729)" fill="#5E5F73" fill-rule="nonzero">
                            <path d="M16.8353195,15.1422941 L12.528419,10.9951162 C14.9505175,8.07156104 14.4515994,3.81351795 11.419712,1.48124364 C8.38356031,-0.855136798 3.95726056,-0.374721138 1.53516206,2.548834 C-0.886936455,5.47238913 -0.388018276,9.7304322 2.64386912,12.0627066 C5.2109524,14.0336425 8.84836442,14.0336425 11.4154477,12.0627066 L15.7223483,16.2098844 C16.0592246,16.4767821 16.5538785,16.4316147 16.8310553,16.1072316 C17.0741179,15.8280156 17.0741179,15.42151 16.8353195,15.1422941 Z M7.03179054,12.0914494 C3.98284612,12.0914494 1.50957651,9.70990162 1.50957651,6.77402814 C1.50957651,3.83815465 3.98284612,1.45250082 7.03179054,1.45250082 C10.080735,1.45250082 12.5540046,3.83404854 12.5540046,6.76992202 C12.5540046,9.7057955 10.0849992,12.0914494 7.03179054,12.0914494 L7.03179054,12.0914494 Z" id="Shape"></path>
                        </g>
                    </g>
                    <g id="network" stroke-linecap="round" stroke-linejoin="round" transform="translate(7.939815, 48.773148)" stroke="#5E5F73">
                        <path d="M13.7983395,15.8796296 L7.93981481,0 M2.08129012,15.8796296 L7.93981481,0 M9.53836419,4.33196296 L4.22398148,10.0729784 M6.34126544,4.33196296 L11.6556481,10.0729784 M4.22398148,10.0729784 L13.3547685,14.749 M11.6556481,10.0729784 L2.49839507,14.749 M15.8796296,0 C15.8758356,2.73153531 14.4546149,5.26536427 12.1256852,6.69273456 M3.75394444,6.69273456 C1.42501473,5.26536427 0.00379400107,2.73153531 0,4.4408921e-16 M11.2851235,4.41030247 C12.7931269,3.44759166 13.7135935,1.78900011 13.7327037,4.4408921e-16 M2.14586729,4.4408921e-16 C2.16520941,1.78920484 3.08609834,3.44784006 4.59450618,4.41030247 M5.43824382,2.12787037 C4.74059746,1.64022661 4.3152788,0.85085401 4.29173456,2.22044605e-16 M10.4413858,2.12787037 C11.1390322,1.64022661 11.5643508,0.85085401 11.5878951,0" id="Shape"></path>
                    </g>
                    <g id="RAN-Toggle" transform="translate(0.000000, 206.435185)">
                        <g id="Group-2">
                            <rect id="Rectangle-3" fill="#EAEDF4" fill-rule="nonzero" x="0" y="0" width="242.731481" height="34.0277778" rx="2"></rect>
                            <path d="M2.26851852,0 L57.3930755,0 L57.3930755,0 L57.3930755,34.0277778 L2.26851852,34.0277778 C1.01565034,34.0277778 0,33.0121274 0,31.7592593 L0,2.26851852 C0,1.01565034 1.01565034,0 2.26851852,0 Z" id="Rectangle-3" fill="#CCD0DD" fill-rule="nonzero"></path>
                            <text id="4G-LTE" fill="#84869C" font-family="Gotham-Light, Gotham" font-size="11" font-weight="300">
                                <tspan x="71.2692901" y="21.0138889">4G LTE</tspan>
                            </text>
                            <text id="All" fill="#34384F" font-family="Gotham-Light, Gotham" font-size="11" font-weight="300">
                                <tspan x="20.4166667" y="21.0138889">All</tspan>
                            </text>
                            <text id="3G" fill="#84869C" font-family="Gotham-Light, Gotham" font-size="11" font-weight="300">
                                <tspan x="150.478395" y="21.0138889">3G</tspan>
                            </text>
                            <text id="2G" fill="#84869C" font-family="Gotham-Light, Gotham" font-size="11" font-weight="300">
                                <tspan x="202.465278" y="21.0138889">2G</tspan>
                            </text>
                        </g>
                    </g>
                    <g id="Sample-toggle" transform="translate(0.000000, 164.467593)">
                        <g id="Group-41">
                            <rect id="Rectangle-12" fill="#EAEDF4" fill-rule="nonzero" x="0" y="0" width="242.731481" height="34.0277778" rx="2"></rect>
                            <path d="M2.26851852,0 L120.231481,0 L120.231481,0 L120.231481,34.0277778 L2.26851852,34.0277778 C1.01565034,34.0277778 0,33.0121274 0,31.7592593 L0,2.26851852 C0,1.01565034 1.01565034,0 2.26851852,0 Z" id="Rectangle-3" fill="#CCD0DD" fill-rule="nonzero"></path>
                            <text id="Samples" fill="#34384F" font-family="Gotham-Light, Gotham" font-size="11" font-weight="300">
                                <tspan x="29.4907407" y="21.0138889">Samples</tspan>
                            </text>
                            <text id="Tests" fill="#84869C" font-family="Gotham-Light, Gotham" font-size="11" font-weight="300">
                                <tspan x="162.199074" y="21.0138889">Tests</tspan>
                            </text>
                        </g>
                    </g>
                </g>
            </g>
        </g>
    </g>
</svg>