<?xml version="1.0" encoding="utf-8"?>
<!-- Generator: Adobe Illustrator 19.2.1, SVG Export Plug-In . SVG Version: 6.00 Build 0)  -->
<svg version="1.1" id="Layer_1" xmlns="http://www.w3.org/2000/svg" xmlns:xlink="http://www.w3.org/1999/xlink" x="0px" y="0px"
	 width="327.8px" height="111.9px" viewBox="0 0 327.8 111.9" enable-background="new 0 0 327.8 111.9" xml:space="preserve">
<path fill="#FFFFFF" d="M42.5,31.7c2.1-0.3,4-0.5,5.6-0.7c1.4-0.2,2.7-0.4,3.9-0.5c0.1,1.3,0.2,2.5,0.3,3.8c0.1,1.4,0.3,2.7,0.5,3.9
	c0.2,1.2,0.4,2.3,0.7,3.3c0.3,1,0.6,1.9,0.9,2.5c0.1,0.3,0.3,0.5,0.5,0.6c0.2,0.1,0.5,0.2,0.8,0.2c0.4,0,0.8-0.2,1.1-0.4
	c0.3-0.3,0.4-0.6,0.4-1c0-0.3-0.1-0.5-0.2-0.7c-0.3-0.5-0.5-1.3-0.8-2.1c-0.2-0.9-0.4-1.9-0.6-3c-0.2-1.1-0.3-2.4-0.4-3.7
	c-0.1-1.2-0.2-2.4-0.2-3.7c0.9-0.1,1.7-0.2,2.4-0.3l2.2-0.3c0.6-0.1,1.1-0.1,1.6-0.2c0.4-0.1,0.8-0.1,1.1-0.1c0.4-0.1,0.7-0.2,1-0.5
	c0.3-0.3,0.4-0.6,0.4-1c0-0.4-0.2-0.8-0.5-1.1c-0.3-0.3-0.6-0.4-1-0.4c-0.1,0-0.1,0-2,0.2c-1.1,0.1-3.1,0.3-5.5,0.6
	c0-0.2,0-0.3-0.1-0.5c-0.1-0.4-0.1-0.7-0.1-1.1v-2.1c0-1.2,0.1-2.4,0.2-3.5c0.1-0.7,0.1-1.5,0.1-2.2c0.1-1.3,0.2-2.4,0.3-3.6
	c0-0.5,0.1-1.1,0.1-1.6c0.1-1.2,0.2-2.3,0.3-3.3l0.1-0.7c0.1-1,0.2-1.6,0.2-2c0.1-0.2,0.3-0.4,0.5-0.7c0.2-0.4,0.3-0.7,0.3-1.1
	c0-0.5-0.2-0.9-0.5-1.2c-0.3-0.3-0.7-0.5-1.1-0.5c-0.7,0-1.2,0.3-1.5,0.9c-0.2,0.4-0.4,0.9-0.5,1.4c-0.3,0.6-0.8,1.3-1.3,2.1
	c-0.5,0.9-1.2,1.9-1.8,2.9c-0.7,1.1-1.4,2.2-2.2,3.5c-0.8,1.2-1.6,2.5-2.4,3.7c-0.8,1.2-1.6,2.5-2.5,3.7c-0.8,1.2-1.6,2.4-2.4,3.4
	c-0.5,0.6-1,1.4-1.6,2.2c-0.6,0.8-1.3,1.6-2.1,2.5c-1.7,0.2-3.3,0.3-4.8,0.4c-4.2,0.2-8,0.1-11-0.3c-1.9-0.3-3.5-0.6-4.8-1.1
	c-1.2-0.5-2.2-1.1-2.8-1.8c-0.6-0.7-0.9-1.4-0.9-2.3c0-0.5,0.1-1,0.3-1.4c0.2-0.5,0.5-0.9,0.8-1.2c0.3-0.3,0.5-0.6,0.8-0.8
	c0.2-0.2,0.4-0.3,0.4-0.4c0.2-0.1,0.4-0.3,0.5-0.5c0.1-0.2,0.2-0.4,0.2-0.7c0-0.4-0.2-0.8-0.5-1.1c-0.7-0.6-1.5-0.5-2.5,0.3
	c-0.5,0.4-0.9,0.9-1.4,1.5c-0.4,0.6-0.8,1.3-1.1,2c-0.3,0.8-0.5,1.5-0.5,2.3c0,1.7,0.5,3.1,1.6,4.2c1,1.1,2.4,2,4,2.6
	c1.6,0.6,3.6,1.1,5.7,1.4c3.2,0.4,6.8,0.5,10.4,0.3c0.8,0,1.6-0.1,2.4-0.1c-1,0.9-2.1,1.8-3.2,2.7c-1.5,1.2-3.2,2.3-5,3.2
	c-1.8,0.9-3.7,1.7-5.6,2.3c-2,0.6-4.1,0.9-6.2,0.9c-1.6,0-2.9-0.1-4.1-0.4c-1.1-0.3-2.1-0.6-2.8-1c-0.7-0.4-1.3-0.7-1.6-1
	c-0.4-0.3-0.6-0.5-0.6-0.5c-0.5-0.6-1.5-0.6-2.1,0c-0.3,0.3-0.4,0.7-0.4,1.1c0,0.4,0.1,0.8,0.4,1c0,0,0.3,0.3,0.8,0.7
	c0.5,0.4,1.2,0.8,2.1,1.3c0.9,0.5,2.1,0.9,3.5,1.2c1.4,0.4,3.1,0.6,5,0.6c4.2,0,8.5-1.1,12.7-3.2c4.1-2.1,8.1-5.2,11.9-9.3
	C39.6,32.1,41.1,31.9,42.5,31.7z M51.9,25.6c0,0.6,0,1.2,0,1.8L47.8,28c-1.7,0.2-3.6,0.5-5.7,0.8c-0.4,0-0.7,0.1-1.1,0.1
	c0.2-0.2,0.4-0.5,0.6-0.7c0.4-0.6,0.9-1.2,1.3-1.8c0.8-1.2,1.7-2.5,2.7-3.9c0.9-1.4,1.9-2.8,2.8-4.2c0.9-1.4,1.8-2.8,2.7-4.1l1.2-2
	c-0.1,1.2-0.2,2.5-0.2,3.9c-0.1,2.2-0.1,4.6-0.1,7.1C51.9,24.1,51.9,24.9,51.9,25.6z"/>
<path fill="#FFFFFF" d="M121.6,10.9c-1-1.8-2.3-3.3-4.1-4.5c-1.7-1.2-3.8-2.2-6.2-2.8c-2.4-0.6-5-1-7.8-1c-2.6,0-5.1,0.2-7.5,0.7
	c-2.4,0.4-4.7,1.1-6.8,1.8c-2.1,0.8-4,1.8-5.8,2.9c-1.7,1.1-3.2,2.4-4.5,3.7c-1.3,1.4-2.2,2.8-2.9,4.4c-0.7,1.6-1.1,3.2-1.1,4.9
	c0,1.6,0.3,3,0.8,4.2c0.6,1.2,1.3,2.3,2.3,3.2c1,0.9,2.1,1.6,3.3,2c1.3,0.5,2.6,0.7,4,0.7c1.5,0,2.8-0.2,4-0.5
	c1.2-0.3,2.1-0.7,3-1.1c0.8-0.4,1.4-0.8,1.9-1.2c0.4-0.4,0.7-0.6,0.7-0.6c0.3-0.3,0.5-0.6,0.5-1.1c0-0.4-0.2-0.8-0.5-1.1
	c-0.6-0.6-1.5-0.6-2.1,0c-0.1,0-0.2,0.2-0.5,0.4c-0.3,0.2-0.8,0.5-1.4,0.8c-0.6,0.3-1.4,0.6-2.3,0.8c-0.9,0.3-2,0.4-3.1,0.4
	c-1,0-1.9-0.2-2.8-0.4c-0.9-0.3-1.7-0.7-2.3-1.3c-0.7-0.6-1.2-1.3-1.6-2.2c-0.4-0.9-0.6-1.9-0.6-3.1c0-1.4,0.3-2.7,0.9-4
	c0.6-1.3,1.5-2.5,2.6-3.6c1.1-1.1,2.4-2.2,4-3.2c1.6-1,3.3-1.8,5.2-2.5c1.9-0.7,4-1.2,6.1-1.6c2.2-0.4,4.4-0.6,6.8-0.6
	c2.4,0,4.7,0.3,6.7,0.8c2,0.5,3.8,1.3,5.2,2.2c1.4,1,2.6,2.2,3.4,3.6c0.8,1.4,1.2,3,1.2,4.8c0,1.8-0.3,3.4-1,4.7
	c-0.7,1.4-1.7,2.5-2.9,3.5c-1.2,1-2.8,1.7-4.5,2.2c-1.8,0.5-3.8,0.7-5.9,0.7c-0.4,0-0.8,0.2-1.1,0.4c-0.1,0.1-0.1,0.2-0.2,0.3
	c0-0.2,0-0.4,0-0.6v-3.3c0-1.4,0-2.6,0.1-3.6c0.1-1.2,0.3-2.2,0.6-3.2c0.3-1,0.7-1.9,1.3-2.8c0.6-0.9,1.3-1.7,2.2-2.4l0,0
	c0.2-0.1,0.3-0.3,0.4-0.5c0.2-0.2,0.2-0.5,0.2-0.8c0-0.4-0.2-0.8-0.5-1.1c-0.3-0.3-0.6-0.4-1-0.4c-0.1,0-0.3,0-0.4,0.1
	c-0.1,0-0.2,0.1-0.4,0.2c-1.3,0.9-2.3,1.9-3,3c-0.7,1.1-1.3,2.3-1.7,3.6c-0.4,1.2-0.6,2.5-0.7,3.8c-0.1,1.2-0.2,2.4-0.2,3.7v3.3
	c0,1.9-0.1,3.8-0.4,5.6c-0.3,1.7-0.8,3.2-1.5,4.5c-0.7,1.2-1.7,2.2-2.9,3c-1.2,0.7-2.8,1.1-4.8,1.1c-1.7,0-3.3-0.4-4.6-1.1
	c-1.4-0.7-2.6-1.9-3.7-3.4c-0.1-0.2-0.3-0.3-0.5-0.5c-0.6-0.4-1.4-0.3-1.9,0.2c-0.3,0.3-0.4,0.6-0.4,1c0,0.1,0,0.3,0.1,0.4
	c0,0.1,0.1,0.2,0.1,0.3c0.6,0.9,1.2,1.7,2,2.5c0.8,0.7,1.7,1.4,2.6,1.9c0.9,0.5,1.9,0.9,3,1.2c1,0.3,2.1,0.4,3.2,0.4
	c2.4,0,4.5-0.5,6.1-1.4c1.6-0.9,2.9-2.1,3.9-3.7c1-1.6,1.7-3.3,2.1-5.3c0.3-1.4,0.4-2.8,0.5-4.2c0.1,0.2,0.2,0.3,0.3,0.4
	c0.3,0.2,0.7,0.4,1.1,0.4c2.5,0,4.9-0.3,6.9-1c2.1-0.6,3.9-1.6,5.5-2.8c1.5-1.2,2.7-2.7,3.6-4.4c0.8-1.7,1.3-3.7,1.3-5.9
	C123.1,14.7,122.6,12.7,121.6,10.9z"/>
<path fill="#FFFFFF" d="M141.3,25.2c0.8,0,1.5-0.3,2.1-0.8c0.6-0.6,0.8-1.3,0.8-2.1c0-0.4-0.1-0.8-0.2-1.1c-0.1-0.3-0.4-0.7-0.6-0.9
	c-0.3-0.3-0.6-0.5-0.9-0.6c-0.7-0.3-1.6-0.3-2.3,0c-0.3,0.1-0.7,0.4-0.9,0.6c-0.3,0.3-0.5,0.6-0.6,0.9c-0.1,0.4-0.2,0.7-0.2,1.1
	c0,0.8,0.3,1.5,0.8,2.1C139.9,24.9,140.5,25.2,141.3,25.2z M141,22.3c0-0.1,0-0.2,0.1-0.3l0,0c0.1-0.1,0.2-0.1,0.3-0.1
	c0.1,0,0.2,0,0.3,0.1s0.1,0.2,0.1,0.3c0,0.1,0,0.2-0.1,0.3c-0.2,0.2-0.4,0.2-0.6,0C141,22.5,141,22.4,141,22.3z"/>
<path fill="#FFFFFF" d="M174.6,40.1c0.3-0.4,0.6-0.8,0.8-1.2c0,0.1,0.1,0.2,0.1,0.2c0.7,1.5,1.6,2.7,2.6,3.5
	c1.1,0.9,2.3,1.3,3.6,1.3c0.8,0,1.5-0.2,2.2-0.6c0.6-0.4,1.3-0.8,1.8-1.4c0.5-0.5,1-1.1,1.5-1.8c0,0.1,0,0.1,0,0.2
	c0.2,0.8,0.6,1.5,1,2.2c0.5,0.6,1,1.1,1.7,1.5c1.2,0.7,2.9,0.8,4.4,0.1c0.6-0.3,1.2-0.7,1.8-1.2c0.6-0.5,1.1-1.1,1.6-1.7
	c0.5-0.6,0.9-1.2,1.4-1.9c0.4-0.6,0.8-1.2,1.1-1.8c0.3-0.6,0.6-1.1,0.8-1.5l0.1-0.1c0.6-1.5,1.1-2.5,1.5-3.1
	c0.1-0.1,0.1-0.2,0.2-0.2c0,0.3,0,0.6,0,1c0,0.3,0,0.7-0.1,1.2c0,0.5-0.1,1-0.1,1.6l-0.2,1.7c-0.1,0.6-0.1,1.1-0.2,1.6l-0.1,1.3
	c0,0.4-0.1,0.6-0.1,0.8c0,0.7,0.2,1.3,0.6,1.7c0.4,0.4,0.9,0.6,1.6,0.6c0.5,0,0.9-0.2,1.4-0.5c0.4-0.3,0.8-0.9,1.2-1.7
	c0.2-0.4,0.4-0.9,0.7-1.4c0.3-0.6,0.6-1.2,1-1.8c0.4-0.6,0.7-1.3,1.1-1.9c0.4-0.6,0.8-1.2,1.2-1.7c0.4-0.5,0.7-0.9,1.1-1.2
	c0.4-0.3,0.6-0.4,0.6-0.4c0,0,0.1,0,0.2,0.1c0,0,0.1,0.2,0.1,0.8c0,0.3,0,0.7,0,1c0,0.4-0.1,0.7-0.1,1.1c0,0.4-0.1,0.7-0.1,1.1
	c0,0.3,0,0.7,0,0.9c0,0.6,0.1,1.3,0.2,1.9c0.1,0.7,0.3,1.3,0.6,1.8c0.3,0.6,0.8,1,1.3,1.4c0.6,0.4,1.3,0.5,2.2,0.5
	c0.8,0,1.5-0.2,2.3-0.6c0.7-0.4,1.3-0.8,1.9-1.4c0.4-0.4,0.8-0.8,1.2-1.3c0.2,0.6,0.5,1.1,0.9,1.6c0.4,0.5,0.9,0.9,1.5,1.1
	c1.2,0.6,2.8,0.6,4.3-0.2c0.4-0.2,0.8-0.5,1.1-0.8c0,0.7,0,1.3,0,2.1c0,1.1,0,2.3,0,3.5c-0.7,0.8-1.3,1.6-2,2.6
	c-0.6,1-1.3,2-1.8,3.1c-0.6,1.1-1.1,2.2-1.5,3.3c-0.5,1.1-0.8,2.3-1.2,3.4c-0.3,1.1-0.6,2.2-0.7,3.2c-0.2,1-0.3,2-0.3,2.9
	c0,1.8,0.4,3.1,1,4.1c0.7,1,1.8,1.6,3.1,1.6c0.9,0,1.7-0.2,2.4-0.7c0.7-0.5,1.2-1.1,1.7-1.9c0.4-0.8,0.8-1.7,1.1-2.7
	c0.3-1,0.5-2.1,0.7-3.3c0.2-1.2,0.3-2.4,0.3-3.7c0.1-1.3,0.1-2.6,0.1-3.9c0-1.3,0-2.5,0-3.6c0-1,0-2.1,0-3.1
	c2.1-2.7,3.9-5.1,5.3-7.2c1.4-2.2,2.6-4.2,3.3-6c0.1-0.2,0.1-0.4,0.1-0.6c0-0.4-0.1-0.8-0.4-1c-0.5-0.5-1.3-0.6-1.9-0.2
	c-0.2,0.1-0.4,0.4-0.5,0.6c-1.1,2.5-3.1,5.7-5.9,9.4c0-0.7,0-1.4,0-2.1l0.1-3c0-0.9,0-1.5,0.1-2.1l0-0.5c0-0.2,0-0.4,0-0.4
	c0-0.4-0.1-0.7-0.4-1c-0.5-0.6-1.5-0.7-2.1-0.1c-0.3,0.2-0.5,0.6-0.5,0.9c-0.1,0.9-0.3,1.6-0.6,2.2c-0.3,0.6-0.6,1.1-0.9,1.5
	c-0.3,0.4-0.7,0.7-1.1,0.9c-0.3,0.2-0.7,0.3-0.9,0.3c-0.6,0-1-0.2-1.3-0.6c-0.3-0.4-0.5-1-0.5-1.8c0-1,0.2-1.9,0.5-2.7
	c0.3-0.7,0.8-1.3,1.3-1.8c0.5-0.5,1-0.8,1.6-1c0.9-0.4,1.8-0.4,2.3-0.2c0.2,0.1,0.4,0.1,0.5,0.2c0.2,0.1,0.3,0.2,0.4,0.3
	c0.1,0.1,0.2,0.2,0.3,0.2c0.7,0.6,1.5,0.5,2.1,0c0.3-0.3,0.4-0.7,0.4-1c0-0.4-0.1-0.7-0.4-1.1c0,0-0.1-0.1-0.3-0.3
	c-0.2-0.2-0.5-0.4-0.8-0.6c-0.4-0.2-0.8-0.4-1.3-0.5c-1.2-0.4-2.8-0.3-4.4,0.3c-0.9,0.4-1.8,0.9-2.5,1.7c-0.6,0.6-1.1,1.2-1.5,2
	c0,0,0,0,0,0c-0.2,0.2-0.4,0.4-0.6,0.7c-0.2,0.4-0.5,1-0.9,1.8c-0.4,0.7-0.8,1.4-1.4,2.1c-0.5,0.7-1.1,1.3-1.7,1.8
	c-0.5,0.4-1.1,0.7-1.6,0.7c-0.3,0-0.5-0.1-0.6-0.2c-0.2-0.1-0.3-0.3-0.4-0.5c-0.1-0.2-0.2-0.5-0.2-0.9c0-0.4-0.1-0.8-0.1-1.2
	c0-0.3,0-0.7,0-1l0.2-2.2c0-0.3,0-0.6,0-0.9c0-1.1-0.2-2-0.7-2.8c-0.5-0.8-1.4-1.2-2.4-1.2c-0.5,0-1.1,0.2-1.7,0.5
	c-0.6,0.3-1.1,0.8-1.7,1.5c-0.5,0.6-1,1.3-1.5,2c-0.5,0.7-0.9,1.4-1.3,2.1c-0.4,0.6-0.7,1.2-1,1.8c0-0.5,0.1-1.1,0.1-1.6
	c0.1-0.8,0.1-1.5,0.2-2.2c0-0.7,0.1-1.2,0.1-1.5c0-0.5,0-0.9-0.1-1.3c-0.1-0.4-0.2-0.9-0.4-1.2c-0.2-0.4-0.5-0.7-0.8-1
	c-0.4-0.3-0.8-0.4-1.3-0.4c-0.8,0-1.7,0.5-2.5,1.5c-0.7,0.9-1.5,2.3-2.3,4.3l0,0.1c-0.5,1-1,1.9-1.5,2.7c-0.5,0.9-1.1,1.6-1.6,2.2
	c-0.5,0.6-1,1.1-1.5,1.4c-0.7,0.5-1.3,0.5-2,0.3c-0.2-0.1-0.5-0.2-0.7-0.5c-0.2-0.3-0.4-0.6-0.6-1.1c-0.2-0.5-0.3-1.2-0.3-2.1
	c0-0.7,0-1.4,0.1-2.2c0-0.8,0.1-1.6,0.2-2.3l0.2-1.9c0-0.6,0.1-0.9,0.1-1c0-0.4-0.1-0.7-0.4-1c-0.6-0.6-1.6-0.6-2.1-0.1
	c-0.3,0.3-0.4,0.6-0.5,0.9c-0.2,1.3-0.3,2.8-0.4,4.2c-0.1,0.1-0.1,0.2-0.2,0.3c-0.2,0.4-0.4,1-0.8,1.7c-0.4,0.7-0.8,1.4-1.3,2.1
	c-0.5,0.7-1,1.3-1.6,1.8c-1,0.8-1.9,0.8-2.7,0.3c-0.4-0.3-0.8-0.6-1.2-1.1c-0.4-0.5-0.7-1.1-1-1.7c-0.3-0.6-0.5-1.3-0.7-1.9
	c0.3-0.4,0.5-0.9,0.8-1.5c0.4-0.7,0.7-1.6,1.1-2.6c0.4-1,0.7-2.1,1.1-3.2s0.7-2.3,0.9-3.6l0.2-0.8c0.2-0.9,0.5-1.9,0.6-2.9l0.1-0.6
	c0.1-0.8,0.2-1.7,0.3-2.5h12.7c0.5,0,0.8-0.3,1-0.5c0.3-0.3,0.5-0.7,0.5-1.1c0-0.4-0.2-0.8-0.5-1c-0.3-0.2-0.6-0.4-1-0.4h-13
	c-0.1-0.6-0.1-0.9-0.2-1.2l-0.1-0.2c-0.1-0.6-0.3-1.1-0.6-1.5c-0.3-0.5-0.6-0.8-1-1.1c-0.8-0.6-2-0.5-2.9,0c-0.4,0.3-0.8,0.6-1.2,1
	c-0.3,0.4-0.6,0.9-0.9,1.5l-0.1,0.3c-0.2,0.3-0.3,0.6-0.4,1.2h-9.5c-0.3,0-0.7,0-1,0.3c-0.3,0.3-0.5,0.6-0.5,1
	c0,0.4,0.1,0.9,0.5,1.2c0.2,0.2,0.6,0.5,1,0.5h8.9l0,0.1c-0.1,0.7-0.2,1.2-0.3,1.9c-0.1,1-0.2,1.8-0.2,2.7c-0.1,0.9-0.1,1.7-0.1,2.5
	c0,0.8,0,1.5,0,2c0,2.3,0.2,4.5,0.5,6.5c0.1,0.4,0.1,0.7,0.2,1.1c-0.2,0.4-0.4,0.8-0.7,1.4c-0.4,0.7-0.8,1.4-1.4,2.1
	c-0.5,0.7-1.1,1.3-1.7,1.8c-0.5,0.4-1.1,0.7-1.6,0.7c-0.3,0-0.5-0.1-0.6-0.2c-0.2-0.1-0.3-0.3-0.4-0.5c-0.1-0.2-0.2-0.5-0.2-0.9
	c0-0.4-0.1-0.8-0.1-1.2c0-0.3,0-0.7,0-1l0.2-2.2c0-0.3,0-0.6,0-0.9c0-1.1-0.2-2-0.7-2.8c-0.5-0.8-1.4-1.2-2.4-1.2
	c-0.5,0-1.1,0.2-1.7,0.5c-0.6,0.3-1.1,0.8-1.7,1.5c-0.5,0.6-1,1.3-1.5,2c-0.5,0.7-0.9,1.4-1.3,2.1c-0.4,0.6-0.7,1.2-1,1.8
	c0-0.5,0.1-1.1,0.1-1.6c0.1-0.8,0.1-1.5,0.2-2.2c0-0.7,0.1-1.2,0.1-1.5c0-0.5,0-0.9-0.1-1.3c-0.1-0.4-0.2-0.9-0.4-1.2
	c-0.2-0.4-0.5-0.7-0.8-1c-0.4-0.3-0.8-0.4-1.3-0.4c-0.8,0-1.7,0.5-2.5,1.5c-0.7,0.9-1.5,2.3-2.3,4.3l0,0.1c-0.5,1-1,1.9-1.5,2.7
	c-0.5,0.9-1.1,1.6-1.6,2.2c-0.5,0.6-1,1.1-1.5,1.4c-0.7,0.5-1.3,0.5-2,0.3c-0.2-0.1-0.5-0.2-0.7-0.5c-0.2-0.3-0.4-0.6-0.6-1.1
	c-0.2-0.5-0.3-1.2-0.3-2.1c0-0.7,0-1.4,0.1-2.2c0-0.8,0.1-1.6,0.2-2.3l0.2-1.9c0-0.6,0.1-0.9,0.1-1c0-0.4-0.1-0.7-0.4-1
	c-0.6-0.6-1.6-0.6-2.1-0.1c-0.3,0.3-0.4,0.6-0.5,0.9c-0.2,1.4-0.3,2.8-0.4,4.3c0,0.1-0.1,0.1-0.1,0.2c-0.2,0.3-0.3,0.7-0.6,1.2
	c-0.2,0.4-0.5,0.9-0.8,1.4c-0.3,0.5-0.6,1-1,1.4c-0.3,0.5-0.7,0.9-1.1,1.2c-0.4,0.3-0.7,0.6-1.1,0.8c-0.8,0.5-1.7,0.3-2.2-0.2
	c-0.3-0.4-0.6-0.9-0.7-1.4c-0.2-0.6-0.3-1.1-0.3-1.7c-0.1-0.6-0.1-1.1-0.1-1.4c0-0.4-0.2-0.7-0.4-1c-0.6-0.6-1.5-0.6-2-0.1
	c-0.3,0.2-0.5,0.6-0.5,0.9c-0.1,0.9-0.3,1.6-0.6,2.2c-0.3,0.6-0.6,1.1-1,1.5c-0.3,0.4-0.7,0.7-1,0.9c-0.8,0.4-1.4,0.3-1.7,0.1
	c-0.2-0.1-0.4-0.3-0.5-0.5c-0.1-0.2-0.2-0.5-0.3-0.8c-0.1-0.3-0.1-0.6-0.1-0.9c0-1,0.2-1.9,0.5-2.6c0.3-0.7,0.7-1.3,1.2-1.8
	c0.5-0.5,1-0.8,1.5-1c0.9-0.4,1.8-0.4,2.4-0.2c0.3,0.1,0.5,0.2,0.7,0.2c0.2,0.1,0.3,0.2,0.4,0.2c0.1,0.1,0.2,0.1,0.2,0.2
	c0.6,0.6,1.5,0.6,2.1,0c0.3-0.3,0.4-0.7,0.4-1c0-0.4-0.1-0.7-0.4-1.1c0,0-0.1-0.1-0.3-0.3c-0.2-0.2-0.5-0.4-0.8-0.5
	c-0.4-0.2-0.8-0.4-1.3-0.5c-1.2-0.4-2.8-0.3-4.4,0.3c-0.9,0.4-1.8,0.9-2.5,1.7c-0.8,0.7-1.4,1.7-1.9,2.8c-0.5,1.1-0.7,2.4-0.7,3.8
	c0,0.7,0.1,1.4,0.3,2.1c0.2,0.6,0.5,1.2,0.9,1.7c0.4,0.5,0.9,0.9,1.5,1.1c1.4,0.6,3.1,0.6,4.7-0.6c0.6-0.5,1.2-1,1.7-1.7
	c0.3,0.7,0.8,1.3,1.3,1.8c0.8,0.7,1.8,1.1,2.9,1.1c0.8,0,1.6-0.2,2.3-0.6c0.7-0.4,1.3-0.8,1.9-1.4c0.6-0.5,1.1-1.2,1.6-1.8
	c0,0,0,0,0-0.1c0,0.1,0,0.2,0.1,0.2c0.2,0.8,0.6,1.5,1,2.2c0.5,0.6,1,1.1,1.7,1.5c1.2,0.7,2.9,0.8,4.4,0.1c0.6-0.3,1.2-0.7,1.8-1.2
	c0.6-0.5,1.1-1.1,1.6-1.7c0.5-0.6,0.9-1.2,1.4-1.9c0.4-0.6,0.8-1.2,1.1-1.8c0.3-0.6,0.6-1.1,0.8-1.5l0.1-0.1
	c0.6-1.5,1.1-2.5,1.5-3.1c0.1-0.1,0.1-0.2,0.2-0.2c0,0.3,0,0.6,0,1c0,0.3,0,0.7-0.1,1.2c0,0.5-0.1,1-0.1,1.6l-0.2,1.7
	c-0.1,0.6-0.1,1.1-0.2,1.6l-0.1,1.3c0,0.4-0.1,0.6-0.1,0.8c0,0.7,0.2,1.3,0.6,1.7c0.4,0.4,0.9,0.6,1.6,0.6c0.5,0,0.9-0.2,1.4-0.5
	c0.4-0.3,0.8-0.9,1.2-1.7c0.2-0.4,0.4-0.9,0.7-1.4c0.3-0.6,0.6-1.2,1-1.8c0.4-0.6,0.7-1.3,1.1-1.9c0.4-0.6,0.8-1.2,1.2-1.7
	c0.4-0.5,0.7-0.9,1.1-1.2c0.4-0.3,0.6-0.4,0.6-0.4c0,0,0.1,0,0.2,0.1c0,0,0.1,0.2,0.1,0.8c0,0.3,0,0.7,0,1c0,0.4-0.1,0.7-0.1,1.1
	c0,0.4-0.1,0.7-0.1,1.1c0,0.3,0,0.7,0,0.9c0,0.6,0.1,1.3,0.2,1.9c0.1,0.7,0.3,1.3,0.6,1.8c0.3,0.6,0.8,1,1.3,1.4
	c0.6,0.4,1.3,0.5,2.2,0.5c0.8,0,1.5-0.2,2.3-0.6c0.7-0.4,1.3-0.8,1.9-1.4C173.6,41.4,174.1,40.8,174.6,40.1z M178.5,14.2
	c0.1-0.1,0.2-0.2,0.3-0.3c0,0.1,0.1,0.1,0.1,0.3c0.1,0.3,0.2,0.5,0.3,1.1h-1.3C178.1,14.8,178.2,14.4,178.5,14.2L178.5,14.2z
	 M179.1,21.2c-0.2,1.2-0.4,2.5-0.7,3.9c-0.3,1.3-0.6,2.6-1.1,4c-0.2,0.7-0.5,1.4-0.7,2.1c0-0.2,0-0.4-0.1-0.6
	c-0.1-0.9-0.1-1.9-0.1-3.1c0-2.3,0.1-4.2,0.2-5.8v0c0.1-1.4,0.3-2.6,0.5-3.5h2.2C179.3,19.1,179.2,20.1,179.1,21.2z M229.6,57.1
	c0,0.5,0.1,1,0.1,1.6c0,0.4,0,0.7,0,1.1c0,0.6,0,1.3-0.1,1.9c-0.1,1-0.2,2-0.3,2.9c-0.2,1-0.4,1.8-0.6,2.4c-0.3,0.7-0.6,1.2-0.9,1.6
	c-0.3,0.3-0.6,0.5-1.1,0.5c-0.1,0-0.2,0-0.4-0.1c-0.1,0-0.2-0.1-0.3-0.3c-0.1-0.2-0.2-0.4-0.3-0.7c-0.1-0.3-0.2-0.8-0.2-1.4
	c0-1,0.1-2.1,0.4-3.4c0.2-1.3,0.6-2.6,1.1-3.9c0.5-1.3,1-2.7,1.7-4l0.3-0.6c0.2-0.5,0.5-0.9,0.7-1.4c0,0.1,0,0.2,0,0.3
	c0,0.8,0,1.5,0,2.3C229.5,56.3,229.5,56.7,229.6,57.1z"/>
<path fill="#FFFFFF" d="M190.4,19.6L190.4,19.6c-0.7-0.3-1.6-0.3-2.3,0c-0.3,0.1-0.7,0.4-0.9,0.6c-0.3,0.3-0.5,0.6-0.6,0.9
	c-0.1,0.4-0.2,0.7-0.2,1.1c0,0.8,0.3,1.5,0.8,2.1c0.6,0.6,1.3,0.8,2.1,0.8c0.8,0,1.5-0.3,2.1-0.8c0.6-0.6,0.8-1.3,0.8-2.1
	c0-0.4-0.1-0.8-0.2-1.1c-0.1-0.3-0.4-0.7-0.6-0.9C191.1,20,190.8,19.7,190.4,19.6z M189.7,22.3c0,0.1,0,0.2-0.1,0.3l0,0
	c-0.2,0.2-0.4,0.2-0.6,0c-0.1-0.1-0.1-0.2-0.1-0.3c0-0.1,0-0.2,0.1-0.3c0.1-0.1,0.2-0.1,0.3-0.1c0.1,0,0.2,0,0.3,0.1
	S189.7,22.2,189.7,22.3z"/>
<path fill="#FFFFFF" d="M323.9,15.6L323.9,15.6c-0.3-0.3-0.7-0.3-1-0.3h-13c-0.1-0.6-0.1-0.9-0.2-1.2l-0.1-0.2
	c-0.1-0.6-0.3-1.1-0.6-1.5c-0.3-0.5-0.6-0.8-1-1.1c-0.8-0.6-2-0.5-2.9,0c-0.4,0.3-0.8,0.6-1.2,1c-0.3,0.4-0.6,0.9-0.9,1.5l-0.1,0.3
	c-0.2,0.3-0.3,0.6-0.4,1.2h-9.5c-0.3,0-0.7,0-1,0.3c-0.3,0.3-0.5,0.6-0.5,1c0,0.4,0.1,0.9,0.5,1.2c0.2,0.2,0.6,0.5,1,0.5h8.9l0,0.1
	c-0.1,0.7-0.2,1.2-0.3,1.9c-0.1,1-0.2,1.8-0.2,2.7c-0.1,0.9-0.1,1.7-0.1,2.5c0,0.8,0,1.5,0,2c0,2.3,0.2,4.5,0.5,6.5
	c0.1,0.4,0.1,0.7,0.2,1c-0.1,0.2-0.3,0.5-0.4,0.8c-0.2,0.4-0.5,0.9-0.8,1.4c-0.3,0.5-0.6,1-1,1.4c-0.3,0.5-0.7,0.9-1.1,1.2
	c-0.4,0.3-0.7,0.6-1.1,0.8c-0.8,0.5-1.7,0.3-2.2-0.2c-0.3-0.4-0.6-0.9-0.7-1.4c-0.2-0.6-0.3-1.1-0.3-1.7c-0.1-0.6-0.1-1.1-0.1-1.4
	c0-0.4-0.2-0.7-0.4-1c-0.6-0.6-1.5-0.6-2-0.1c-0.3,0.2-0.5,0.6-0.5,0.9c-0.1,0.9-0.3,1.6-0.6,2.2c-0.3,0.6-0.6,1.1-1,1.5
	c-0.3,0.4-0.7,0.7-1,0.9c-0.8,0.4-1.4,0.3-1.7,0.1c-0.2-0.1-0.4-0.3-0.5-0.5c-0.1-0.2-0.2-0.5-0.3-0.8c-0.1-0.3-0.1-0.6-0.1-0.9
	c0-1,0.2-1.9,0.5-2.6c0.3-0.7,0.7-1.3,1.2-1.8c0.5-0.5,1-0.8,1.5-1c0.9-0.4,1.8-0.4,2.4-0.2c0.3,0.1,0.5,0.2,0.7,0.2
	c0.2,0.1,0.3,0.2,0.4,0.2c0.1,0.1,0.2,0.1,0.2,0.2c0.6,0.6,1.5,0.6,2.1,0c0.3-0.3,0.4-0.7,0.4-1c0-0.4-0.1-0.7-0.4-1.1
	c0,0-0.1-0.1-0.3-0.3c-0.2-0.2-0.5-0.4-0.8-0.5c-0.4-0.2-0.8-0.4-1.3-0.5c-1.2-0.4-2.8-0.3-4.4,0.3c-0.9,0.4-1.8,0.9-2.5,1.7
	c-0.6,0.6-1.1,1.3-1.5,2.1c-0.3,0.2-0.5,0.4-0.6,0.7c-0.1,0.3-0.3,0.7-0.5,1.1c-0.2,0.4-0.5,0.9-0.8,1.4c-0.3,0.5-0.6,0.9-1,1.4
	c-0.4,0.5-0.7,0.9-1.1,1.3c-0.4,0.4-0.8,0.7-1.1,0.9c-0.6,0.3-1.3,0.4-1.6,0.1c-0.2-0.1-0.3-0.3-0.4-0.6c-0.1-0.3-0.2-0.6-0.2-1
	c0-0.4-0.1-0.8-0.1-1.2c0-0.7,0-1.4,0.1-2.1c0.1-0.7,0.1-1.3,0.1-1.7c0-0.5-0.1-1-0.2-1.5c-0.1-0.5-0.3-0.9-0.6-1.3
	c-0.3-0.4-0.6-0.7-1-0.9c-0.8-0.4-2-0.5-3.1,0.1c-0.6,0.3-1.1,0.8-1.7,1.5c-0.5,0.6-1,1.3-1.5,2.1c-0.5,0.7-0.9,1.5-1.4,2.2
	c-0.3,0.6-0.7,1.2-1,1.7V35c0.7-1.2,1.2-2.4,1.8-3.6c0.2-0.5,0.5-1,0.7-1.6c0.9-2,1.6-3.9,2.2-5.6c0.6-1.8,1.1-3.7,1.5-5.9
	c0.1-0.3,0.1-0.6,0.1-0.9l0-0.3c0.1-0.2,0.1-0.4,0.1-0.6c0-0.1,0-0.1,0-0.2c0.2-1.4,0.3-2.9,0.3-4.3c0-1-0.1-2-0.2-3
	c-0.1-1-0.4-1.8-0.7-2.6c-0.3-0.8-0.8-1.4-1.4-1.8c-0.6-0.5-1.3-0.7-2.2-0.7c-1,0-1.9,0.5-2.6,1.4c-0.6,0.9-1.1,2.1-1.5,3.6
	c-0.4,1.5-0.7,3.3-0.8,5.5c0,0.1,0,0.3,0,0.5c0,0,0,0.1,0,0.1h-5.3c-0.1-0.6-0.1-0.9-0.2-1.2l-0.1-0.2c-0.1-0.6-0.3-1.1-0.6-1.5
	c-0.3-0.5-0.6-0.8-1-1.1c-0.8-0.6-2-0.5-2.9,0c-0.4,0.3-0.8,0.6-1.2,1c-0.3,0.4-0.6,0.9-0.9,1.5l-0.1,0.3c-0.2,0.3-0.3,0.6-0.4,1.2
	h-9.5c-0.3,0-0.7,0-1,0.3c-0.3,0.3-0.5,0.6-0.5,1c0,0.4,0.1,0.9,0.5,1.2c0.2,0.2,0.6,0.5,1,0.5h8.9l0,0.1c-0.1,0.7-0.2,1.2-0.3,1.9
	c-0.1,1-0.2,1.8-0.2,2.7c-0.1,0.9-0.1,1.7-0.1,2.5c0,0.8,0,1.5,0,2c0,2.3,0.2,4.5,0.5,6.5c0.4,2,0.9,3.7,1.6,5.2
	c0.7,1.5,1.6,2.7,2.6,3.5c1.1,0.9,2.3,1.3,3.6,1.3c0.8,0,1.5-0.2,2.2-0.6c0.6-0.4,1.3-0.8,1.8-1.4l0.1-0.1c0.5-0.5,1-1,1.4-1.5v0.9
	c0,0.6,0,1.3,0.4,1.8c0.4,0.6,0.9,0.9,1.6,0.9c0.4,0,0.8-0.1,1.3-0.5c0.4-0.3,0.8-0.8,1.3-1.7l0.2-0.4c0.1-0.3,0.3-0.6,0.5-1
	c0.3-0.6,0.6-1.2,1-1.8c0.4-0.6,0.7-1.3,1.1-2c0.4-0.6,0.8-1.2,1.2-1.7c0.4-0.5,0.7-0.9,1.1-1.2c0.6-0.5,0.7-0.3,0.7-0.3
	c0,0,0.1,0.2,0.1,0.8c0,0.2,0,0.4,0,0.7c0,0.3-0.1,0.6-0.1,1c0,0.4-0.1,0.7-0.1,1.1c0,0.4,0,0.7,0,1.1c0,0.6,0.1,1.3,0.2,2
	c0.1,0.7,0.3,1.3,0.6,1.9c0.3,0.6,0.7,1.1,1.3,1.5c0.6,0.4,1.3,0.6,2.2,0.6c0.8,0,1.5-0.2,2.3-0.6c0.7-0.4,1.3-0.8,1.9-1.4
	c0.4-0.4,0.8-0.8,1.2-1.3c0.2,0.6,0.5,1.1,0.9,1.6c0.4,0.5,0.9,0.9,1.5,1.1c1.4,0.6,3.1,0.6,4.7-0.6c0.6-0.5,1.2-1,1.7-1.7
	c0.3,0.7,0.8,1.3,1.3,1.8c0.8,0.7,1.8,1.1,2.9,1.1c0.8,0,1.6-0.2,2.3-0.6c0.7-0.4,1.3-0.8,1.9-1.4c0.6-0.5,1.1-1.2,1.6-1.8
	c0.3-0.4,0.6-0.9,0.9-1.3c0,0.1,0.1,0.2,0.1,0.2c0.7,1.5,1.6,2.7,2.6,3.5c1.1,0.9,2.3,1.3,3.6,1.3c0.8,0,1.5-0.2,2.2-0.6
	c0.6-0.4,1.3-0.8,1.8-1.4c0.6-0.5,1.1-1.2,1.5-1.8c0.4-0.6,0.8-1.3,1.2-1.9c0.3-0.6,0.6-1.1,0.8-1.6c0.2-0.4,0.3-0.7,0.4-0.9
	c0.1-0.2,0.1-0.4,0.1-0.6c0-0.4-0.1-0.7-0.4-1c-0.3-0.3-0.7-0.5-1.1-0.5c-0.6,0-1.1,0.3-1.4,0.9c-0.2,0.4-0.4,1-0.8,1.7
	c-0.4,0.7-0.8,1.4-1.3,2.1c-0.5,0.7-1,1.3-1.6,1.8c-1,0.8-1.9,0.8-2.7,0.3c-0.4-0.3-0.8-0.6-1.2-1.1c-0.4-0.5-0.7-1.1-1-1.7
	c-0.3-0.6-0.5-1.3-0.7-1.9c0.3-0.4,0.5-0.9,0.8-1.5c0.4-0.7,0.7-1.6,1.1-2.6c0.4-1,0.7-2.1,1.1-3.2s0.7-2.3,0.9-3.6
	c0.2-0.8,0.2-1.6,0.3-2.3c0-0.5,0.1-0.9,0.1-1.4c0.1-0.9,0.1-1.7,0-2.4c0-0.2,0-0.4,0-0.6h13.4c0.5,0,0.8-0.3,1-0.5
	c0.3-0.3,0.5-0.7,0.5-1.1C324.4,16.2,324.2,15.8,323.9,15.6z M306.2,14.2c0.1-0.1,0.2-0.2,0.3-0.3c0,0.1,0.1,0.1,0.1,0.3
	c0.1,0.3,0.2,0.5,0.3,1.1h-1.3C305.8,14.8,305.9,14.4,306.2,14.2L306.2,14.2z M304.8,18.3h2.2c0,0.9-0.1,1.9-0.2,3
	c-0.2,1.2-0.4,2.5-0.7,3.9c-0.3,1.3-0.6,2.6-1.1,4c-0.2,0.7-0.5,1.4-0.7,2.1c0-0.2,0-0.4-0.1-0.6c-0.1-0.9-0.1-1.9-0.1-3.2
	c0-2.3,0.1-4.1,0.2-5.7C304.4,20.3,304.6,19.2,304.8,18.3z M270.2,12.1c0,1-0.1,2.2-0.2,3.1h-3.4c0.1-0.9,0.2-1.8,0.3-2.7v0
	c0.1-1.2,0.3-2.2,0.5-3.1c0.2-0.9,0.4-1.5,0.7-2c0.1-0.2,0.3-0.5,0.6-0.5c0.2,0,0.5,0.1,0.7,0.5c0.2,0.4,0.4,0.9,0.6,1.5
	c0.1,0.6,0.2,1.2,0.2,1.8C270.2,11.4,270.2,11.9,270.2,12.1z M269.5,19c-0.2,0.8-0.3,1.8-0.6,2.6c-0.5,1.7-0.9,3-1.5,4.4
	c-0.2,0.5-0.5,1-0.7,1.5c-0.1,0.1-0.1,0.2-0.2,0.4c0-0.5,0-1,0-1.5c0-0.7-0.1-1.3-0.1-2.1c0-0.5,0-1,0-1.5c0-0.8,0-1.6,0-2.4
	c0-0.4,0-0.7,0-1c0-0.4,0-0.8,0-1.2h3.1C269.6,18.5,269.5,18.8,269.5,19z M254.7,14.2c0.1-0.1,0.2-0.2,0.3-0.3
	c0,0.1,0.1,0.1,0.1,0.3c0.1,0.3,0.2,0.5,0.3,1.1h-1.3C254.3,14.8,254.5,14.4,254.7,14.2L254.7,14.2z M255.3,21.2
	c-0.2,1.2-0.4,2.5-0.7,3.9c-0.3,1.3-0.6,2.6-1.1,4c-0.2,0.7-0.5,1.4-0.7,2.1c0-0.2,0-0.4-0.1-0.6c-0.1-0.9-0.1-1.9-0.1-3.2
	c0-2.3,0.1-4.1,0.2-5.7c0.1-1.4,0.3-2.6,0.5-3.5h2.2C255.5,19.1,255.5,20.1,255.3,21.2z M263.4,21.7c-0.1,2.6-0.1,5.4-0.1,8.4l0,4.3
	c-0.1,0.1-0.1,0.2-0.2,0.3c-0.2,0.4-0.4,1-0.8,1.7c-0.4,0.7-0.8,1.4-1.3,2.1c-0.5,0.7-1,1.3-1.6,1.8c-1,0.8-1.9,0.8-2.7,0.3
	c-0.4-0.3-0.8-0.6-1.2-1.1c-0.4-0.5-0.7-1.1-1-1.7c-0.3-0.6-0.5-1.3-0.7-1.9c0.3-0.4,0.5-0.9,0.8-1.5c0.4-0.7,0.7-1.6,1.1-2.6
	c0.4-1,0.7-2.1,1.1-3.2s0.7-2.3,0.9-3.6c0.2-1.1,0.4-2.2,0.6-3.7c0.1-1,0.2-2,0.2-3h5C263.5,19.3,263.4,20.7,263.4,21.7z
	 M265.5,38.6c0-0.4,0-0.8,0-1.2c0-0.4,0-0.9,0-1.3c0-0.4,0-0.8,0-1.1c0,0,0,0,0,0l0,4.6l0,0C265.5,39.2,265.5,38.9,265.5,38.6z
	 M264.2,16.3L264.2,16.3L264.2,16.3C264.2,16.3,264.2,16.3,264.2,16.3z"/>
<path fill="#FFFFFF" d="M159.5,98.5c-0.2-0.2-0.5-0.5-1.1-0.5c-0.3,0-0.5,0.1-0.7,0.2c-0.2,0.1-0.4,0.3-0.6,0.6
	c-0.3,0.6-0.7,1.2-1.1,2c-0.4,0.7-0.9,1.5-1.5,2.1c-0.5,0.7-1.1,1.2-1.8,1.7c-0.6,0.4-1.2,0.6-1.8,0.6c-0.2,0-0.4,0-0.7-0.1
	c-0.2-0.1-0.4-0.2-0.7-0.4c-0.2-0.2-0.4-0.5-0.5-0.8c-0.1-0.3-0.2-0.8-0.2-1.4c0-0.4,0-0.9,0.1-1.3c0.1-0.5,0.1-0.9,0.2-1.4
	c0.1-0.5,0.1-0.9,0.2-1.4c0.1-0.5,0.1-0.9,0.1-1.3c0-1.2-0.3-2-1-2.5c-0.8-0.6-1.9-0.8-3.5-0.8c-0.1,0-0.3,0-0.4,0
	c0-0.2,0-0.5-0.1-0.8c-0.1-0.5-0.2-1-0.3-1.4c-0.2-0.5-0.4-0.9-0.7-1.3c-0.7-0.8-1.8-0.9-2.8,0.1c-0.4,0.4-0.7,0.9-1,1.4
	c-0.3,0.5-0.5,1.1-0.7,1.6c-0.2,0.6-0.3,1-0.3,1.4c0,0.5,0.1,0.9,0.4,1.3c0.2,0.3,0.5,0.5,0.9,0.7c0.3,0.1,0.7,0.2,1,0.2
	c0.1,0,0.2,0,0.3,0c-0.1,0.5-0.2,0.8-0.3,1.1c-0.1,0.2-0.1,0.4-0.2,0.5c-0.1,0.1-0.1,0.2-0.2,0.3c-0.4,0.8-0.8,1.6-1.2,2.4
	c-0.4,0.8-0.9,1.5-1.5,2.2c-0.5,0.6-1.1,1.1-1.8,1.5c-1.2,0.7-3,0.7-4,0.1c-0.3-0.2-0.6-0.4-0.9-0.6c0.5-0.3,1-0.6,1.4-0.9
	c0.6-0.5,1.2-1,1.6-1.6c0.5-0.6,0.8-1.2,1.1-1.9c0.3-0.7,0.4-1.4,0.4-2.2c0-0.6-0.1-1.2-0.3-1.7c-0.2-0.5-0.5-0.9-0.9-1.3
	c-0.4-0.3-0.8-0.6-1.2-0.8c-1.2-0.5-2.5-0.3-3.5,0.2c-0.6,0.4-1.2,0.8-1.6,1.5c-0.4,0.6-0.8,1.3-1,2.1c-0.1,0.2-0.1,0.4-0.1,0.6l0,0
	c-0.1,0.1-0.2,0.3-0.3,0.4l0,0.1c0,0,0,0.1-0.1,0.2c-0.1,0.1-0.2,0.2-0.3,0.4c-0.1,0.1-0.3,0.3-0.5,0.4c-0.2,0.1-0.4,0.1-0.6,0.1
	c-0.5,0-1-0.1-1.4-0.4c-0.4-0.3-0.8-0.6-1.1-1.1c-0.3-0.4-0.6-0.9-0.9-1.4c-0.2-0.5-0.5-1-0.6-1.5c-0.2-0.4-0.3-0.8-0.3-1.1
	c0-0.2-0.1-0.3-0.1-0.4l0,0c-0.1-0.4-0.3-0.7-0.5-0.9c-0.6-0.5-1.5-0.4-2,0.2c-0.3,0.3-0.4,0.7-0.4,1.1c0,0.2,0,0.4,0,0.5
	c0,0.2,0,0.3,0,0.5c0,0.8-0.1,1.6-0.2,2.4c-0.2,0.8-0.4,1.6-0.6,2.3c-0.3,0.7-0.6,1.4-0.9,2c-0.3,0.6-0.6,1.1-0.9,1.6
	c-0.3,0.4-0.6,0.8-0.8,1c-0.2,0.2-0.3,0.2-0.3,0.2c-0.1,0-0.2-0.1-0.4-0.4c-0.3-0.3-0.6-0.8-0.9-1.4c-0.3-0.6-0.5-1.3-0.7-2.2
	c-0.2-0.8-0.3-1.8-0.3-2.8c0-0.8,0.1-1.4,0.2-1.8c0.1-0.4,0.2-0.6,0.2-0.6c0.1-0.2,0.2-0.4,0.2-0.7c0-0.4-0.1-0.7-0.4-1
	c-0.4-0.5-1.3-0.6-1.9-0.3c-0.2,0.1-0.4,0.3-0.5,0.5c0,0.1-0.1,0.2-0.4,1.1c-0.2,0.7-0.3,1.6-0.3,2.8c0,0.1,0,0.2,0,0.3l0,0
	c-0.4,0.8-0.8,1.6-1.2,2.4c-0.4,0.8-0.9,1.5-1.5,2.2c-0.5,0.6-1.1,1.1-1.8,1.5c-1.2,0.7-3,0.7-4,0.1c-0.3-0.2-0.6-0.4-0.9-0.6
	c0.5-0.3,1-0.6,1.4-0.9c0.6-0.5,1.2-1,1.6-1.6c0.5-0.6,0.8-1.2,1.1-1.9c0.3-0.7,0.4-1.4,0.4-2.2c0-0.6-0.1-1.2-0.3-1.7
	c-0.2-0.5-0.5-0.9-0.9-1.3c-0.4-0.3-0.8-0.6-1.2-0.8c-1.2-0.5-2.5-0.3-3.5,0.2c-0.6,0.4-1.2,0.8-1.6,1.5c-0.4,0.6-0.8,1.3-1,2.1
	c-0.2,0.8-0.3,1.7-0.3,2.6c0,0.9,0.1,1.8,0.4,2.7c-1.2,0.4-2.4,0.5-3.7,0.4c-0.5,0-0.9,0.2-1.1,0.4c0-0.3,0.1-0.6,0.1-0.9
	c0.2-1.7,0.5-3.5,0.8-5.4c0.3-1.9,0.6-3.8,0.9-5.7c0.3-1.9,0.6-3.8,0.9-5.5c0.3-1.7,0.6-3.3,0.9-4.6c0.3-1.4,0.5-2.4,0.7-3.1
	c0.4-1.4,0.9-2.7,1.4-3.7c0.6-1,1.2-1.9,1.8-2.5c0.6-0.7,1.2-1.2,1.9-1.6c0.6-0.4,1.3-0.7,1.9-0.9c0.6-0.2,1.1-0.3,1.6-0.4
	c1-0.1,1.6-0.1,1.8-0.1c0.1,0,0.2,0,0.2,0c0.3,0,0.8-0.1,1.2-0.4l0.1-0.1c0.2-0.2,0.6-0.5,0.6-1V68c0-0.5-0.3-1-0.9-1.3
	c-0.4-0.2-1.1-0.3-1.7-0.3c-1.7,0-3.3,0.3-4.7,0.9c-1.4,0.6-2.7,1.4-3.7,2.5c-1.1,1-2,2.3-2.7,3.6c-0.7,1.4-1.3,2.9-1.7,4.4
	c-0.2,0.7-0.4,1.6-0.6,2.6c-0.2,1.1-0.4,2.3-0.7,3.6c-0.3,1.4-0.5,2.8-0.8,4.4c-0.3,1.5-0.5,3.1-0.8,4.7c-0.3,1.6-0.5,3.2-0.7,4.8
	c-0.1,0.8-0.2,1.6-0.3,2.4c-0.3-0.7-0.5-1.5-0.8-2.3c-0.5-1.6-1.1-3.2-1.7-4.9c-0.6-1.7-1.2-3.4-1.9-5.2c-0.6-1.8-1.2-3.5-1.8-5.1
	c-0.6-1.6-1.2-3.2-1.7-4.7l-1.4-3.9c-0.4-1.1-0.7-2-1-2.7c-0.3-0.7-0.4-1.1-0.5-1.3c-0.3-0.6-0.7-1-1.4-1c-0.5,0-0.9,0.2-1.1,0.5
	c-0.3,0.3-0.4,0.7-0.4,1.1v0.5v0.1c0,0.5,0,1.4-0.1,2.5c-0.1,1.4-0.2,2.8-0.5,4.4c-0.3,1.8-0.7,3.8-1.2,5.9
	c-0.5,2.2-1.3,4.5-2.2,6.9c-0.9,2.3-1.9,4.3-3.1,5.9c-1.2,1.6-2.4,3-3.7,4.1c-1.3,1.1-2.6,1.9-3.9,2.6c-1.3,0.6-2.6,1.1-3.8,1.4
	c-1.2,0.3-2.3,0.5-3.2,0.6c-1,0.1-1.7,0.1-2.3,0.1c-1.5,0-2.9-0.2-4.2-0.6c-1.3-0.4-2.5-1-3.4-1.7c-1-0.7-1.7-1.6-2.3-2.6
	c-0.6-1-0.8-2.1-0.8-3.3c0-1.1,0.3-2.1,0.8-3c0.5-0.9,1.2-1.8,2.1-2.5c0.9-0.7,1.9-1.3,3-1.7c1.1-0.4,2.3-0.6,3.5-0.6
	c1.5,0,2.7,0.2,3.7,0.6c1,0.4,1.9,0.9,2.5,1.4c0.6,0.5,1.1,1,1.4,1.4c0.3,0.4,0.4,0.6,0.5,0.7c0.3,0.5,0.7,0.8,1.3,0.8
	c0.4,0,0.8-0.2,1.1-0.5c0.3-0.3,0.4-0.6,0.4-1c0-0.3-0.1-0.5-0.2-0.8L59.5,92c-0.2-0.3-0.5-0.7-0.9-1.1c-0.4-0.4-0.9-0.9-1.4-1.3
	c-0.6-0.5-1.3-0.9-2.1-1.3c-0.8-0.4-1.7-0.7-2.7-1c-1-0.3-2.2-0.4-3.5-0.4c-1.6,0-3.1,0.3-4.5,0.8c-1.4,0.5-2.7,1.3-3.9,2.2
	c-1.1,1-2,2.1-2.7,3.4c-0.7,1.3-1,2.7-1,4.2c0,1.7,0.4,3.2,1,4.6c0.7,1.4,1.7,2.6,2.9,3.5c1.2,1,2.7,1.7,4.4,2.3
	c1.7,0.5,3.5,0.8,5.5,0.8c0.6,0,1.4,0,2.5-0.1c1.1-0.1,2.3-0.3,3.6-0.7c1.3-0.4,2.8-0.9,4.3-1.6c1.5-0.7,3.1-1.7,4.6-2.9
	c1.5-1.2,2.9-2.8,4.3-4.6c1.3-1.8,2.5-4,3.5-6.6c0.6-1.7,1.2-3.3,1.6-4.8c0.5-1.5,0.8-3,1.2-4.4c0.3-1.4,0.6-2.7,0.7-3.9
	c0.1-0.4,0.1-0.8,0.2-1.2l1.1,3c0.7,1.9,1.4,3.9,2.2,5.9c0.7,2.1,1.5,4.2,2.3,6.3c0.8,2.1,1.5,4.1,2.1,6s1.2,3.6,1.7,5
	c0.5,1.5,0.9,2.7,1.1,3.5c0.1,0.4,0.3,0.6,0.6,0.8c0.6,0.4,1.4,0.4,1.9-0.2c0.2-0.3,0.4-0.6,0.4-0.9c0.1-0.5,0.1-1.2,0.2-1.8
	c0.2,0.5,0.6,0.9,1.3,1c1.7,0.1,3.4-0.1,5-0.7c0.6,0.8,1.3,1.4,2.2,1.9c0.9,0.5,2,0.7,3.2,0.7c1.9,0,3.7-0.8,5.2-2.2
	c0.8-0.7,1.5-1.7,2.2-2.8c0.3,0.7,0.6,1.3,0.9,1.9c0.5,0.9,1.1,1.6,1.7,2c0.6,0.5,1.2,0.8,1.9,0.8h0c0.5,0,1.1-0.3,1.7-0.9
	c0.6-0.5,1.2-1.2,1.8-2c0.6-0.8,1.1-1.8,1.6-2.9c0.4-0.8,0.6-1.6,0.9-2.4c0.1,0.1,0.2,0.3,0.3,0.4c0.4,0.5,0.8,0.9,1.2,1.2
	c0.5,0.4,1,0.7,1.6,0.9c1.1,0.5,2.5,0.5,3.5,0.1c0,0,0.1,0,0.1-0.1c0,0.2,0.1,0.4,0.2,0.7c0.3,1,0.7,1.8,1.3,2.6
	c0.6,0.8,1.3,1.4,2.2,1.9c0.9,0.5,2,0.7,3.2,0.7c1.9,0,3.7-0.8,5.2-2.2c1.5-1.4,2.8-3.4,4-6.1l0.1-0.1c0-0.1,0.1-0.2,0.2-0.4
	c0.1-0.2,0.2-0.5,0.3-0.8c0.1-0.3,0.2-0.7,0.3-1.1c0.1-0.3,0.1-0.6,0.2-1.1c0,0,0.1-0.2,0.1-0.2c0.1,0,0.3-0.3,0.4-0.3h0.8
	c0.4,0,0.6,0.3,0.6,0.4c0,0,0.1,0.3,0.1,0.6c0,0.8-0.1,1.6-0.3,2.5c-0.2,0.9-0.3,1.8-0.3,2.8c0,0.9,0.1,1.7,0.4,2.4
	c0.3,0.7,0.6,1.3,1.1,1.8c0.5,0.5,1,0.9,1.6,1.2c0.6,0.3,1.3,0.4,2,0.4c1.1,0,2.1-0.3,3.1-0.9c0.9-0.6,1.7-1.3,2.4-2.1
	c0.7-0.8,1.3-1.7,1.9-2.6c0.5-0.9,1-1.7,1.4-2.5c0.1-0.2,0.2-0.4,0.2-0.7C159.9,99.1,159.8,98.8,159.5,98.5z M106.5,68L106.5,68
	C106.5,68.1,106.5,68.1,106.5,68L106.5,68z M98.4,101.9c0-0.1,0-0.2-0.1-0.4c-0.1-0.3-0.1-0.6-0.1-0.9c0-0.5,0-1,0.1-1.5
	c0.1-0.5,0.2-0.9,0.4-1.3c0.2-0.4,0.4-0.6,0.7-0.9c0.2-0.2,0.5-0.3,0.9-0.3c0.2,0,0.4,0.1,0.6,0.3c0.2,0.2,0.3,0.5,0.3,0.9
	c0,0.4-0.1,0.8-0.2,1.2c-0.2,0.4-0.4,0.8-0.7,1.2c-0.3,0.4-0.6,0.7-1.1,1.1C99,101.5,98.7,101.7,98.4,101.9z M130,101.9
	c0-0.1,0-0.2-0.1-0.4c-0.1-0.3-0.1-0.6-0.1-0.9c0-0.5,0-1,0.1-1.5c0.1-0.5,0.2-0.9,0.4-1.3c0.2-0.4,0.4-0.6,0.7-0.9
	c0.2-0.2,0.5-0.3,0.9-0.3c0.2,0,0.4,0.1,0.6,0.3c0.2,0.2,0.3,0.5,0.3,0.9c0,0.4-0.1,0.8-0.2,1.2c-0.2,0.4-0.4,0.8-0.7,1.2
	c-0.3,0.4-0.6,0.7-1.1,1.1C130.6,101.5,130.3,101.7,130,101.9z"/>
<path fill="#FFFFFF" d="M245.1,90c0.8,0,1.5-0.3,2.1-0.8c0.6-0.6,0.8-1.3,0.8-2.1c0-0.4-0.1-0.8-0.2-1.1c-0.1-0.3-0.4-0.7-0.6-0.9
	c-0.3-0.3-0.6-0.5-0.9-0.6c-0.7-0.3-1.6-0.3-2.3,0c-0.3,0.1-0.7,0.4-0.9,0.6c-0.3,0.3-0.5,0.6-0.6,0.9c-0.1,0.4-0.2,0.7-0.2,1.1
	c0,0.8,0.3,1.5,0.8,2.1C243.7,89.7,244.3,90,245.1,90z M244.7,87.1c0-0.1,0-0.2,0.1-0.3l0,0c0.1-0.1,0.2-0.1,0.3-0.1
	c0.1,0,0.2,0,0.3,0.1s0.1,0.2,0.1,0.3c0,0.1,0,0.2-0.1,0.3c-0.2,0.2-0.4,0.2-0.6,0C244.8,87.3,244.7,87.2,244.7,87.1z"/>
<path fill="#FFFFFF" d="M283.9,99c-0.3-0.3-0.6-0.5-1.1-0.5c-0.3,0-0.9,0.1-1.2,0.9c-0.4,0.9-0.8,1.7-1.3,2.6
	c-0.5,0.9-1.1,1.6-1.7,2.3c-0.6,0.6-1.2,1-2,1.4l-0.2,0.1c-0.5,0.3-1,0.4-1.5,0.4c0.2-0.2,0.3-0.4,0.4-0.7c0.3-0.8,0.5-1.5,0.5-2.3
	c0-0.6-0.1-1.2-0.3-1.8c-0.2-0.6-0.5-1.2-0.8-1.8c-0.3-0.6-0.7-1.3-1.1-2.1c-0.4-0.7-0.8-1.6-1.1-2.5c0.1-0.4,0.1-0.7,0.2-0.9
	c0.1-0.3,0.1-0.6,0.1-0.9c0-0.6-0.1-1.1-0.4-1.6c-0.3-0.5-0.8-0.7-1.4-0.7c-0.6,0-1.1,0.3-1.4,0.8c-0.3,0.4-0.5,1-0.5,1.7
	c0,0.3,0,0.7,0.1,1c0,0.3,0.1,0.6,0.2,1c-0.1,0.7-0.3,1.3-0.5,1.9c-0.2,0.5-0.4,1.2-0.8,1.9c-0.1,0.1-0.2,0.2-0.3,0.4
	c-0.4,0.8-0.8,1.6-1.2,2.4c-0.4,0.8-0.9,1.5-1.5,2.2c-0.5,0.6-1.1,1.1-1.8,1.5c-1.2,0.7-3,0.7-4,0.1c-0.3-0.2-0.6-0.4-0.9-0.6
	c0.5-0.3,1-0.6,1.4-0.9c0.6-0.5,1.2-1,1.6-1.6c0.5-0.6,0.8-1.2,1.1-1.9c0.3-0.7,0.4-1.4,0.4-2.2c0-0.6-0.1-1.2-0.3-1.7
	c-0.2-0.5-0.5-0.9-0.9-1.3c-0.4-0.3-0.8-0.6-1.2-0.8c-1.2-0.5-2.5-0.3-3.5,0.2c-0.6,0.4-1.2,0.8-1.6,1.5c-0.4,0.6-0.8,1.3-1,2.1
	c-0.1,0.2-0.1,0.4-0.1,0.6l0,0c-0.1,0.1-0.1,0.2-0.2,0.3c-0.5,1.1-1.1,2.1-1.6,2.9c-0.5,0.9-1.1,1.6-1.6,2.2c-0.5,0.6-1,1.1-1.5,1.4
	c-0.7,0.5-1.3,0.5-2,0.3c-0.2-0.1-0.5-0.2-0.7-0.5c-0.2-0.3-0.4-0.6-0.6-1.1c-0.2-0.5-0.3-1.2-0.3-2.1c0-0.7,0-1.4,0.1-2.2
	c0-0.8,0.1-1.6,0.2-2.3l0.2-1.9c0-0.6,0.1-0.9,0.1-1c0-0.4-0.1-0.7-0.4-1c-0.6-0.6-1.6-0.6-2.1-0.1c-0.3,0.3-0.4,0.6-0.5,0.9
	c-0.2,1.4-0.3,2.8-0.4,4.3l0,0.1c-0.3,0.6-0.7,1.2-1.1,2c-0.4,0.7-0.9,1.5-1.5,2.1c-0.5,0.7-1.1,1.2-1.8,1.7
	c-0.6,0.4-1.2,0.6-1.8,0.6c-0.2,0-0.4,0-0.7-0.1c-0.2-0.1-0.4-0.2-0.7-0.4c-0.2-0.2-0.4-0.5-0.5-0.8c-0.1-0.3-0.2-0.8-0.2-1.4
	c0-0.4,0-0.9,0.1-1.3c0.1-0.5,0.1-0.9,0.2-1.4c0.1-0.5,0.1-0.9,0.2-1.4c0.1-0.5,0.1-0.9,0.1-1.3c0-1.2-0.3-2-1-2.5
	c-0.8-0.6-1.9-0.8-3.5-0.8c-0.1,0-0.3,0-0.4,0c0-0.2,0-0.5-0.1-0.8c-0.1-0.5-0.2-1-0.3-1.4c-0.2-0.5-0.4-0.9-0.7-1.3
	c-0.7-0.8-1.8-0.9-2.8,0.1c-0.4,0.4-0.7,0.9-1,1.4c-0.1,0.2-0.2,0.3-0.2,0.5c0-0.6,0.1-1.2,0.1-1.8c0-2.5-0.4-4.9-1.3-7
	c-0.8-2.1-2-4-3.4-5.7c-1.4-1.7-3.1-3.1-5-4.4c-1.9-1.2-4-2.3-6.1-3.1c-2.1-0.8-4.4-1.4-6.7-1.8c-2.3-0.4-4.5-0.6-6.7-0.6
	c-3.2,0-6.1,0.3-8.7,0.9c-2.6,0.6-4.9,1.5-6.8,2.6c-1.9,1.1-3.4,2.6-4.4,4.2c-1.1,1.7-1.6,3.6-1.6,5.6c0,1.1,0.2,2.2,0.5,3.1
	c0.3,0.9,0.7,1.8,1.2,2.5c0.5,0.7,1.1,1.4,1.7,1.9c0.6,0.5,1.2,1,1.8,1.3c0.6,0.4,1.2,0.6,1.8,0.8c1.1,0.3,1.8,0.4,2.5-0.1
	c0.2-0.2,0.5-0.5,0.5-1.1c0-0.3-0.1-0.6-0.3-0.9c-0.2-0.3-0.5-0.5-0.9-0.6l-0.5-0.2c-0.3-0.1-0.7-0.3-1.1-0.5
	c-0.4-0.2-0.9-0.5-1.4-0.9c-0.5-0.4-1-0.8-1.4-1.3c-0.4-0.5-0.8-1.1-1-1.8c-0.3-0.7-0.4-1.5-0.4-2.4c0-1.6,0.4-3.1,1.3-4.3
	c0.9-1.3,2.2-2.4,3.8-3.3c1.7-0.9,3.7-1.6,6-2.1c2.3-0.5,5-0.7,7.8-0.7c2.1,0,4.2,0.2,6.3,0.6c2.1,0.4,4.1,1,6,1.8
	c1.9,0.8,3.7,1.7,5.3,2.9c1.6,1.1,3.1,2.4,4.2,3.9c1.2,1.4,2.1,3.1,2.8,4.8c0.7,1.8,1,3.7,1,5.7c0,2-0.4,3.9-1,5.7
	c-0.7,1.8-1.7,3.4-3,4.7c-1.3,1.3-3,2.4-4.9,3.2c-3.7,1.5-8.6,1.6-13.4,0.2c-2.2-0.6-4.4-1.6-6.5-2.8c0.6-0.8,1.1-1.7,1.5-2.6
	c0.5-1.1,0.9-2.2,1.2-3.4c0.3-1.1,0.6-2.3,0.8-3.5c0.2-1.2,0.4-2.3,0.6-3.3c0.2-1.3,0.4-2.5,0.7-3.7c0.2-1.1,0.5-2.2,0.9-3.2
	c0.4-1,0.8-1.9,1.4-2.6c0.5-0.8,1.3-1.4,2.1-1.9c0.5-0.3,0.8-0.7,0.8-1.3c0-0.5-0.2-0.9-0.5-1.1c-0.5-0.4-1-0.5-1.7-0.2
	c-1.2,0.7-2.2,1.6-3,2.7c-0.8,1-1.4,2.2-1.8,3.4c-0.5,1.2-0.8,2.5-1.1,3.9c-0.3,1.4-0.5,2.7-0.7,4.2c-0.2,1.4-0.5,2.8-0.8,4.3
	c-0.3,1.4-0.7,2.8-1.3,4.1c-0.4,1-0.9,2-1.6,2.8c-5.5-2.9-10.3-3.9-13.7-2.8c-0.9,0.3-1.7,0.7-2.4,1.2c-0.7,0.5-1.2,1.1-1.6,1.7
	c-0.4,0.7-0.6,1.4-0.6,2.2c0,0.9,0.2,1.7,0.7,2.4c0.4,0.7,1,1.3,1.8,1.8c0.7,0.5,1.6,0.9,2.6,1.1c1,0.3,2.1,0.4,3.2,0.4
	c2.1,0,4.1-0.4,6-1.2c1.7-0.7,3.3-1.8,4.7-3c1.1,0.7,2.3,1.3,3.4,1.9c1.3,0.6,2.7,1.1,4,1.5c1.4,0.4,2.7,0.7,4.1,0.9
	c1.4,0.2,2.7,0.3,3.9,0.3c2.7,0,5.2-0.5,7.4-1.4c2.2-0.9,4.2-2.2,5.8-3.7c1.6-1.6,2.9-3.5,3.8-5.7c0.3-0.7,0.5-1.4,0.7-2.1
	c0.1,0.2,0.1,0.3,0.2,0.4c0.2,0.3,0.5,0.5,0.9,0.7c0.3,0.1,0.7,0.2,1,0.2c0.1,0,0.2,0,0.3,0c-0.1,0.5-0.2,0.8-0.3,1.1
	c-0.1,0.3-0.2,0.6-0.2,0.7c-0.1,0.1-0.1,0.2-0.1,0.2c-0.1,0.1-0.1,0.3-0.1,0.5c0,0.4,0.2,0.8,0.5,1.1c0.3,0.3,0.6,0.4,1,0.4
	c0.6,0,1.1-0.3,1.4-0.9c0-0.1,0.1-0.2,0.2-0.4c0.1-0.2,0.2-0.5,0.3-0.8c0.1-0.3,0.2-0.7,0.3-1.1c0.1-0.3,0.1-0.6,0.2-1.1
	c0,0,0.1,0,0.1,0c0.1,0,0.3,0,0.4,0c0.3,0,0.6,0,0.8,0c0.4,0,0.6,0.1,0.6,0.2c0,0,0.1,0.2,0.1,0.5c0,0.8-0.1,1.6-0.3,2.4
	c-0.2,0.9-0.3,1.8-0.3,2.7c0,0.9,0.1,1.7,0.4,2.4c0.3,0.7,0.6,1.3,1.1,1.8c0.5,0.5,1,0.9,1.6,1.2c0.6,0.3,1.3,0.4,2,0.4
	c1.1,0,2.1-0.3,3.1-0.9c0.9-0.6,1.7-1.3,2.4-2.1c0.3-0.3,0.6-0.7,0.8-1.1c0,0.1,0.1,0.2,0.1,0.4c0.2,0.8,0.6,1.5,1,2.2
	c0.5,0.6,1,1.1,1.7,1.5c1.2,0.7,2.9,0.8,4.4,0.1c0.6-0.3,1.2-0.7,1.8-1.2c0.6-0.5,1.1-1.1,1.6-1.7c0.4-0.5,0.8-1,1.1-1.5
	c0.3,0.8,0.7,1.5,1.1,2.1c0.6,0.8,1.3,1.4,2.2,1.9c0.9,0.5,2,0.7,3.2,0.7c1.9,0,3.7-0.8,5.2-2.2c0.2-0.2,0.5-0.5,0.7-0.8
	c0,0.2,0.1,0.4,0.2,0.6c0.7,1,1.6,1.8,2.7,2.2c1.1,0.4,2.2,0.7,3.5,0.7c1,0,2-0.2,2.9-0.5c0.9-0.3,1.7-0.7,2.4-1.2
	c0.7-0.5,1.4-1.1,2-1.7c0.6-0.6,1.1-1.3,1.5-1.9c0.4-0.7,0.8-1.3,1.1-1.9c0.3-0.6,0.6-1.2,0.8-1.6c0.1-0.2,0.1-0.4,0.1-0.6
	C284.2,99.7,284.1,99.3,283.9,99z M185,104.9c-1.4,0.6-3,0.8-4.6,0.8c-0.9,0-1.7-0.1-2.4-0.3c-0.7-0.2-1.2-0.4-1.7-0.7
	c-0.4-0.3-0.7-0.5-0.9-0.9c-0.2-0.3-0.3-0.6-0.3-0.9c0-0.3,0.1-0.6,0.3-0.9c0.2-0.3,0.5-0.6,0.9-0.8c0.4-0.3,0.9-0.5,1.5-0.6
	c0.6-0.2,1.2-0.2,1.9-0.2c1.2,0,2.6,0.2,4.1,0.7c1.3,0.4,2.8,1,4.3,1.8C187.3,103.8,186.2,104.4,185,104.9z M257,102.4
	c0-0.1,0-0.2-0.1-0.4c-0.1-0.3-0.1-0.6-0.1-0.9c0-0.5,0-1,0.1-1.5c0.1-0.5,0.2-0.9,0.4-1.3c0.2-0.4,0.4-0.6,0.7-0.9
	c0.2-0.2,0.5-0.3,0.9-0.3c0.2,0,0.4,0.1,0.6,0.3c0.2,0.2,0.3,0.5,0.3,0.9c0,0.4-0.1,0.8-0.2,1.2c-0.2,0.4-0.4,0.8-0.7,1.2
	c-0.3,0.4-0.6,0.7-1.1,1.1C257.6,102.1,257.3,102.3,257,102.4z M272.6,104.1c-0.1,0.2-0.2,0.5-0.3,0.7c-0.1,0.2-0.3,0.4-0.5,0.5
	c-0.3,0.2-0.8,0.3-1.3,0.1c-0.2-0.1-0.3-0.1-0.4-0.2c-0.1-0.1-0.3-0.2-0.4-0.2c0,0,0,0-0.1,0l-0.1-0.1c-0.3-0.3-0.8-0.5-1.3-0.4
	c0.7-1,1.4-2.2,2-3.6c0.1-0.1,0.2-0.3,0.3-0.5c0.2-0.4,0.3-0.7,0.5-1c0.1,0.1,0.2,0.3,0.2,0.4c0.3,0.5,0.5,0.9,0.7,1.3
	c0.2,0.4,0.4,0.8,0.5,1.2c0.1,0.4,0.2,0.8,0.2,1.2C272.7,103.6,272.7,103.9,272.6,104.1z"/>
</svg>
