<?xml version="1.0" encoding="utf-8"?>
<!-- Generator: Adobe Illustrator 19.2.1, SVG Export Plug-In . SVG Version: 6.00 Build 0)  -->
<svg version="1.1" id="Layer_1" xmlns="http://www.w3.org/2000/svg" xmlns:xlink="http://www.w3.org/1999/xlink" x="0px" y="0px"
	 width="430.5px" height="160.5px" viewBox="0 0 430.5 160.5" enable-background="new 0 0 430.5 160.5" xml:space="preserve">
<path fill="#FFFFFF" d="M61.3,44.7c1.2,0.6,1,1.6,0.7,2.7c-0.9,3.4-2.2,6.7-3.4,10c-0.7,1.7-1.6,3.3-2.4,4.9c-0.2,0.3-0.5,0.7-0.8,1
	c-4.2,2.7-11.7,4.4-15-1c-0.4-0.6-1.2-0.7-1.6-1.4c-1.4-4.3-2.9-8.5-4.3-12.8c-0.3-0.9-0.7-4.4-2.1-3.8c-3,1.1-6.1,2.1-9.2,2.9
	c-4.6,1.2-4.2,1.8-4.2,6.2c-0.1,5.9-1,14.7-3.6,20c-1.2,2.2-1.5,6.7-4.8,6.2c-3.4-0.5-3.3-5.3-3-7.8c-0.1-0.3-0.1-0.6,0-1
	c2.4-5.9,3.1,4.2,3.5,5c2.8-8.9,4.1-18.2,5.6-27.4c-4,0.6-8.1,0.2-11.5-2c-0.3-0.1-0.5-0.2-0.7-0.4c-1.3-1.2-2.7-2.3-3.9-3.5
	C0.3,42.2,0.1,42,0,41.8c0.2-0.2,0.5-0.4,0.8-0.4c2.1-0.2,4.2-0.3,6,0.9c1.1,0.6,10.7,4.8,11,1c1.3-5.2,1.8-10.7,3.5-15.8
	c1-3.1,1.5-11,4.1-13.1c2.5-1.8,4.8-1,7.3-2.2c2-0.8,3.8-0.5,5.5,0.7c2.9,1.9,2.2,6.3,2.6,9.3c0.8,3.8,1.6,7.6,2.5,11.4
	c0.2,0.7,0.2,2.2,1.3,1.8l4.7-1.8c1.3-0.5,3.6,0.3,4.2,1.6c0.6,1.8-1.8,1.5-2.7,1c-0.7-0.3-1.4-0.3-2.2,0.2c-1,0.6-2.1,1.2-3.1,1.7
	c-0.6,0.3-0.8,0.7-0.6,1.3c0.6,2.5,1.2,5,1.7,7.5c0.4,1.6-0.6,2.3-0.9,3.8c-0.3,1.5,0.2,3.9,0.3,5.3c0,1,0.1,2.1-0.1,3.1
	c-0.2,0.6-0.1,1.1,0.3,1.5c1.1,1.1,4.1,3.9,5.9,2.4c5-4,6.9-11.4,8.9-17.4C61.2,45.3,61.3,45,61.3,44.7C62,45.1,61.3,45,61.3,44.7z
	 M21.1,44.1c4,0.2,7.7-1.8,11.4-3c-2-7.3-3.4-14.7-6-21.8c-0.3,0.6-0.6,1.2-0.9,1.8C23,28.9,22,36.2,21.1,44.1
	C22.1,44.2,21.2,43.1,21.1,44.1z"/>
<path fill="#FFFFFF" d="M79.8,65.9c-0.3-3.2-0.8-6.7,0.1-9.9c1.8-5.6-0.2-14-0.6-19.7c-0.4-6-0.6-12.2-1.2-18.1
	c-0.3-2.8-3.3-15-0.3-16.5c1.9-1.1,3.9-1.2,6-0.3c4.5,2,4.3,7.4,4.8,11.6c0,0.1,0.1,0.2,0.2,0.4c0.7-1.1,1.4-2.1,2-3.2
	c1.7-3,3.8-5.8,6.5-7.9c3.3-2.7,8.3-2.5,12.1-1.1c2.7,0.9,4.5,2.7,5.4,5.2c2.8,6.5,3.5,12.1,2.8,19.1c0.2-0.1,0.4-0.1,0.6-0.2
	c0.1,0.1,0.2,0.2,0.2,0.3c-0.3,0.4-0.7,0.9-1,1.3c-1.1,2.2-1.3,5.1-3.2,6.7c-0.2,0.2-0.5,0.4-0.7,0.4c-1.7,0.7-3.1,1.9-4.6,3
	c-0.5,0.6-1.1,1.2-1.7,1.7c-2,0.9-4.1,1.5-6.2,2.3c-0.8,0.3-1.6,0.7-2.4,1.1c-0.9,0.5-1.9,0.6-3,0.1c-0.8-0.3-1.6-0.6-2.4-0.9
	c-0.4-0.2-0.7-0.4-1-0.7c-0.6-0.6-0.7-1.3-0.3-2.1c0.4-1.2,1.1-2.2,2.1-2.9c1.4-1.2,3.3-1.9,5-2.6c1.9-0.9,3.7-1.8,5.7-2.6
	c2.6-0.9,2.6-9.8,2.7-11.6c0.4-5.1-1-9.5-2.5-14.3c-0.2-0.6-0.7-2-1.5-2c-1.6,0.4-3.1,0.9-4.5,1.7c-3.9,2.8-6.3,6.9-8.2,11.3
	c-0.6,1.2-1.7,2.9-1,4.2c0.1,0.2,0.1,0.6,0,1c-0.8,3.1-0.2,6.5,0,9.7c0.2,3.3-0.7,6.4-0.5,9.7c0.2,2.7,0.8,5.4,0.8,8.2
	c0,3.2-0.8,6.4-1.1,9.6c0.1,0.3,0,0.6-0.2,0.9c-1.8,2.5,0.5,9.1-4.7,7.4c-1.1-0.4-2.3-0.5-3.7-0.2C80,66,79.8,65.9,79.8,65.9
	C79.6,64.6,79.8,65.9,79.8,65.9z M93.5,38.9c0,0.9,2.6,0.2,2.9,0c1.8-1.2,3.6-2.6,5.2-4c0.3-0.3,0.7-0.7,1-1
	c-1.8,0.6-3.5,1.2-5.2,1.8c-0.1,0-0.1,0.1-0.3,0.2C95.8,36.8,94.7,37.9,93.5,38.9C93.5,39,94.1,38.4,93.5,38.9z"/>
<g>
	<path fill="#FFFFFF" d="M304,53c-0.6-0.2-1.2-0.1-1.7,0.3c-3.2,3.6-6.4,7.2-10,10.5c-0.5,0.4-1,0.8-1.6,1.2
		c0.2-1.5,0.8-2.7,1.1-4.1c0.3-1,0.5-2.1,0.7-3.1c0.5-1.7,0.8-3.3,0.6-5.1c-0.7-4.4,2.7-7.9-0.9-11.8c-0.8-0.5-1.5-1.1-2.2-1.7
		c-1.4-1.4-4.4-1.5-4.8,0.8c-0.2,1.2-0.3,2.3-0.3,3.5c-0.1,1.5-0.9,2.6-0.7,4c0.5,2.1-0.4,5.7-0.7,7.8c-0.3,1.6-1.1,3.1-2.2,4.4
		c-0.5,0.5-1,0.9-1.5,1.4c-0.8,0.9-1.7,1.5-2.8,1.8c-1.4,0.3-2-0.2-2-1.4c0.2-2.9-0.3-4.9,0.8-7.8c0.2-0.8,0.5-1.7,0.8-2.5
		c0.9-2.3,2.1-4.5,3.2-6.8c0.4-0.8,1.5-4.3,1.9-4.7c0.8-0.7,1.6,0.3,2.1-0.3c0.7-0.7,0-1.6-0.4-2.1c-0.9-1.2-1.5-2.2-3.1-2.4
		c-0.4-0.3-0.9-0.5-1.4-0.5h-0.3c-0.2,0.1-0.4,0.3-0.6,0.4c-1.7,1.7-3.6,3.2-5,5.3c-1.7,2.2-3,4.2-3.9,6.7c-0.1,0.4-0.2,0.7-0.4,1.1
		c-0.5,0.7-0.4,1.1-0.6,1.8c-0.1,0.2-0.2,0.5-0.2,0.7c-0.8,1.9-1.9,3.7-2.7,5.6c-0.6,1.6-6.5,5.4-6.5,5.9v-2.9v-0.8
		c0-2,0.4-4.2,0.7-6.2c0.1-0.2,0.1-0.4,0.1-0.4c0.3-0.6,0.6-1.5,0.8-2.4c0.1-0.6,0.2-1.1,0.3-1.7c0.3-1,0.4-2,0.1-3
		c-0.6-1.6-1.3-2.9-2.3-3.9c-4.1-5.3-8.7-2-12.5,1.3c0.1-0.7,0.1-1.4,0-2.1c0-1.3-1.4-3.1-2.4-3.8c-1.7-1.3-4.1-3.3-6.5-2.1
		c-1,0.3-1.4,0.9-1.4,1.9c0.1,0.8,0.1,1.6,0,2.4c-0.1,1.4-0.2,2.8-0.3,4.2c0.1,0.5,0.1,0.9,0.1,1.4c0,1.3-0.1,2.6-0.2,3.9
		c0,1.3,0.1,2.6,0.1,3.9c-0.1,0.8-0.1,1.5-0.2,2.2c-1.6,2.9-4.5,8.9-8.1,9.5c-0.5,0.1-1,0.3-1.5,0.5c0.1-0.6,0.4-1,1-1.2
		c0.9,0,1-1.2,1-1.7c0.1-1.7-0.1-5.4,1.2-6.8v-1c0-0.9,0-1.8-0.1-2.7c0.2-1.9,0.4-4.2,0-6l-0.3-1c0-0.7-0.1-1.4-0.3-2.1
		c-0.9-1.1-1.4-2.3-2.8-2.9c-2.2-0.8-5-1.6-5.7,1.5c-0.1,0.3-0.1,0.7-0.2,1c-0.2,0.9-0.3,1.7-0.4,2.6c-0.3,1.7-0.4,3.6-0.5,5.3
		c-0.2,0.4-0.4,0.7-0.7,1.1c-1.2,1.7-2.3,3.4-3.5,5.2c-0.3,0.7-0.7,1.3-1.2,1.9c-1.9,2.5-4,4.9-6.5,6.8c-0.2,0.1-0.4,0.2-0.6,0.3
		c0.1-1.1,0.2-2.2,0.3-3.3c0.1-1.6,0.5-3.2,0.5-4.7c0-0.9,0-1.9,0-2.8c0.2-1.1,0-2.3,0-3.7v-3.9c0-1.1-0.2-16.3,0.2-16.3h1.9
		c0.4,0,0.8,0,1.2,0c1,0,2,0.1,3.1,0.1c0.6,0.2,0.8,0,0.5-0.6c0.7-0.3,0.8-0.7,0.2-1.1c-0.5-0.3-1-0.5-1.6-0.6
		c-1.6-0.5-3.4-0.4-5.1,0c-0.5,0.1-0.7-0.1-0.8-0.5c0-0.4-0.1-0.8-0.3-1.1c-0.9-1.3-0.6-3.4-1-4.8c-0.3-1.3-0.7-2.5-1.1-3.8
		c-0.2-0.5-0.4-1-0.6-1.6c-0.8-1.7-4.8-3.5-5.2-0.5c0.1,0.4,0.1,0.8,0,1.1c0,3.3-0.1,6.6-0.4,9.9c0,0.5-0.1,1-0.2,1.5
		c-0.4-0.1-0.8-0.1-1.2,0c-1.2,0-2.4,0.1-3.7,0.1c-1.4,0.3-2.5,0.6-3.9,1.1v0.3c0,0.3,2.7,0.5,2.5,0.5c1.1,0.1,4.1-0.6,5,0
		c1.1,0.7,0.5,0.4,1,1.7c0.7,2-0.3,5.5-0.3,7.6c-0.4,2-0.3,4-0.3,6c0.1,1,0.1,2,0.1,2.9c-1.1,0.3-0.8,1.5-1.2,2.3
		c-0.8,2.1-2,4-2.9,6c-0.5,1.4-6.9,5.9-6.9,5.9v-2.9v-0.8c0-2,0.7-4.2,1-6.2c0.1-0.2,0.2-0.4,0.2-0.4c0.3-0.6,0.6-1.5,0.9-2.4
		c0.1-0.6,0.2-1.1,0.3-1.7c0.3-1,0.4-2,0.1-3c-0.6-1.6-1.3-2.9-2.3-3.9c-4.1-5.3-8.7-2-12.5,1.3c0.1-0.7,0.1-1.4,0-2.1
		c0-1.3-1.4-3.1-2.4-3.8c-1.7-1.3-4.1-3.3-6.5-2.1c-1,0.3-1.4,0.9-1.4,1.9c0.1,0.8,0.1,1.6,0,2.4c-0.1,1.4-0.2,2.8-0.3,4.2
		c0.1,0.5,0.1,0.9,0.1,1.4c0,1.3-0.1,2.6-0.2,3.9c0,1.3,0.1,2.6,0.1,3.9c-0.1,0.8-0.1,1.5-0.2,2.2c-1.6,2.9-4.5,8.9-8.1,9.5
		c-0.5,0.1-1,0.3-1.5,0.5c0.1-0.6,0.4-1,1-1.2c0.9,0,1-1.2,1-1.7c0.1-2.3,0.8-4.6,0.8-6.8v-1c0.2-0.9,0.2-1.8,0.3-2.7
		c0.1-1.6,0.2-4.4-0.1-6l-0.1-1c0.1-0.7,0-1.4-0.3-2.1c-0.9-1.1-1.4-2.3-2.8-2.9c-2.2-0.8-5-1.6-5.7,1.5c-0.1,0.3-0.1,0.7-0.2,1
		c-0.2,0.9-0.3,1.7-0.4,2.6c-0.4,1.9-0.4,4-0.6,6c-1.5,3.1-3.2,5.9-5.1,8.9c-1.3,2.5-3.1,5.7-6.1,6.3c-0.6-0.6-1.1-1.2-1.7-1.8
		c0.6-0.7,1.2-1.5,1.7-2.3c0.1-0.1,0.1-0.2,0.2-0.3c0.3-1.1,0.6-2.1,1.1-3.1c1-1.4,1.2-3.2,1.7-4.8c0.2-1.1,0.3-2.1,0.4-3.2
		c0.2-1.5,0.2-3,0.4-4.5c0-1.4,0.3-2.6,0.2-4c-0.3-2-0.9-3.6-2.5-4.8c-0.8-0.6-1.6-0.9-2.6-0.9c-1.3-0.3-2.3,0.1-3.1,1
		c-0.4,0.7-0.8,1.4-1.2,2.1c-0.7-0.5-1.4-0.9-2.1-1.4c-0.8-0.6-1.8-0.8-2.9-0.3c-2.8,0.8-4.7,2.6-6.7,4.6c-0.3,0.3-0.6,0.7-0.9,1
		c-1.3,2-2.1,4.2-3,6.4c-0.5,1.6-1.2,3.2-1.4,4.9c-1,5,2.4,11.2,8,9.9c4.3-1,5.9-7,7.5-10.9c0,0.1,0,0.1,0,0.1v1.2v1.3
		c0,1,0,2,0.1,3.1c0.1,3.6,3,10.1,7.4,7.9c2.2-0.8,4.3-2.9,5.4-4.9c0.7-1.1,1.4-2.2,2.2-3.3c0.3-0.4,0.5-0.8,0.8-1.2
		c0.7-1.4,1.4-2.7,2.1-4c0,0.2,0,0.4,0,0.5c0.2,1.9-0.1,3.7,0.4,5.6c0.2,0.9,0.4,1.9,0.6,2.8c0.6,1.7,1.7,3.2,3.3,3.9
		c1.1,0.4,2.1,0.5,3.2,0.3c0.9-0.1,1.7-0.3,2.6-0.6c0,0,0,0,0.1,0c2.1-0.8,4.2-4.5,5.4-6.3c0.5-0.8,0.8-1.8,1.3-2.6
		c0,0.2,0,0.4,0,0.5c0.2,1.1,0.3,2.2,0.3,3.3c0.1,0.9,0.1,1.8-0.1,2.6c0,1.8,2.9,1.7,4.1,2.4c1.2,0.6,4.5,1.8,5.1-0.3
		c0.2-0.9,0.4-1.8,0.6-2.7c0-1.3,0.2-2.6,0.2-3.9c-0.1-0.8-0.1-1.5-0.2-2.3c-0.1-0.7-0.1-1.5-0.2-2.2c-0.1-0.8-0.2-1.7-0.1-2.5
		c0.2-1.3,0.4-2.5,0.7-3.8c0.4-2.3,1.5-4.3,3.1-6.1c0.3-0.5,0.7-0.8,1.2-1c0.7-0.2,1.4-0.4,2.2-0.4c0.4-0.2,0.6,0,0.4,0.4
		c0,0.5-0.1,1.1-0.3,1.6c-0.4,0.8-0.8,1.7-1.2,2.5c-0.6,1.7-1.1,3.4-1.7,5.2c-0.3,0.9-0.5,1.8-0.6,2.8c-0.2,0.9-0.3,1.9-0.4,2.8
		c0.4,4.1,2,7,5.9,8.7c0.9,0.6,1.9,0.6,2.9,0.3c0.6-0.2,1.1-0.3,1.7-0.5c0.4-0.1,0.8-0.3,1.2-0.4c0.7-0.3,1.3-0.6,1.9-1
		c1.3-0.8,2.5-1.8,3.1-3.2c0.4-0.7,0.9-1.3,1.3-2c0.6-1.1,1.1-2.2,1.7-3.2c0.3-0.5,0.3-0.9,0.5-1.3c-0.1,1.5-0.2,2.9-0.2,4.4
		c0.1,1,0.2,2.1,0.3,3.1c0.2,4.3,4.5,5.9,7.9,7.3c1.1,0.5,2,0.4,2.9-0.4c3.5-2.9,7.2-7,9.3-11.1c0.2-0.5,0.4-0.9,0.7-1.4
		c0.5-0.8,1-1.6,1.5-2.4c0,0.5,0,1,0,1.4c0.2,1.9-0.1,3.7,0.4,5.6c0.2,0.9,0.4,1.9,0.6,2.8c0.6,1.7,1.7,3.2,3.3,3.9
		c1.1,0.4,2.1,0.5,3.2,0.3c0.9-0.1,1.7-0.3,2.6-0.6c0,0,0,0,0.1,0c2.1-0.8,4.2-4.5,5.4-6.3c0.5-0.8,0.8-1.8,1.3-2.6
		c0,0.2,0,0.4,0,0.5c0.2,1.1,0.3,2.2,0.3,3.3c0.1,0.9,0.1,1.8-0.1,2.6c0,1.8,2.9,1.7,4.1,2.4c1.2,0.6,4.5,1.8,5.1-0.3
		c0-0.9,0-1.8,0-2.7c0-1.4,0.7-2.5,0.7-3.9c0-0.8-0.1-1.5-0.1-2.3c-0.1-0.7-0.1-1.5-0.2-2.2c-0.1-0.8-0.2-1.7-0.1-2.5
		c0.2-1.3,0.4-2.5,0.7-3.8c0.4-2.3,1.5-4.3,3.1-6.1c0.3-0.5,0.7-0.8,1.2-1c0.7-0.2,1.4-0.4,2.2-0.4c0.4-0.2,0.6,0,0.4,0.4
		c0,0.5-0.1,1.1-0.3,1.6c-0.4,0.8-0.8,1.7-1.2,2.5c-0.6,1.7-1.1,3.4-1.7,5.2c-0.3,0.9-0.5,1.8-0.6,2.8c-0.2,0.9-0.3,1.9-0.4,2.8
		c0.4,4.1,2,7,5.9,8.7c0.9,0.6,1.9,0.6,2.9,0.3c0.6-0.2,1.1-0.3,1.7-0.5c0.4-0.1,0.8-0.3,1.2-0.4c0.7-0.3,1.3-0.6,1.9-1
		c1.3-0.8,2.5-1.8,3.1-3.2c0.4-0.7,0.9-1.3,1.3-2c0.4-0.8,0.8-1.5,1.2-2.3c-0.1,1.5,0.6,3.8,1.3,5c2.8,3.7,4.9,5.6,9.6,6.3
		c0.9,0.2,1.4-0.2,1.7-1c0-0.4,0.2-0.7,0.6-0.8c0.3-0.1,0.4-0.2,0.4-0.3c0.6-0.7,1.9-1.2,2.1-2.2c0.1,0.2,0.4,0.4,0.4,0.6v2.2
		c-0.9,0.4-0.7,5.5-0.9,6.4c0,0.3-0.2,0.7-0.5,1c-4.1,3.6-8.2,6.7-7.8,12.6c0,0.1,0,0.2,0.1,0.3l1.6,2.4c1.7,2.6,5.3,2.5,6.6-0.3
		c0.2-0.5,0.4-0.9,0.5-1.4c0.7-1.1,2.5-1.8,2.8-3.1c1.4-3.5,1.2-8.1,2.1-11.8c0-0.2,0.1-0.3,0.3-0.4c2-1.6,4-3.3,5.9-4.9
		c0.8-0.8,1.6-1.6,2.2-2.5C297.5,61.5,304.1,53.1,304,53C303.4,52.8,304.1,53.1,304,53z M128.5,42.6c-0.3,6.2-3.8,14.5-8.6,18.7
		c-0.9,0.6-2.4,0.3-3.1-0.5c-3.5-4.4,0-11.7,2.3-16.2c0.1-0.4,0.3-0.7,0.5-1c0.6-0.9,1.2-1.8,1.8-2.6c1.3-1.5,2.9-2.6,4.7-1.4
		c0.3,0.4,0.6,0.7,1.1,0.8c0.4,0,0.8,0,1.2,0C128.5,41.5,128.5,42,128.5,42.6C128.4,43.3,128.5,42,128.5,42.6z M282.4,76.3
		c0,0.4-0.1,0.9-0.1,1.4c0,1.4-0.1,2.8-0.3,4.2c-0.2,1.7-0.4,4.9-3,4.1c-1.6-0.3-2.1-1.6-3.1-2.7c-0.1-0.1-0.2-0.2-0.2-0.3
		c0-0.6,0.1-1.3,0.3-1.9c0.1-0.3,0.3-0.5,0.5-0.6c0.4-0.2,0.7-0.5,1-0.8c0.9-0.9,1.8-1.7,2.7-2.5c0.1-0.1,0.3-0.2,0.3-0.3l1.8-1.8
		l0.1,0.1C282.4,75.4,282.4,75.9,282.4,76.3C282.3,76.7,282.4,75.9,282.4,76.3z"/>
</g>
<g>
	<path fill="#FFFFFF" d="M163.8,122.9c0.3-0.9,0.5-1.7,0.7-2.4l0.3-0.3c0.4-0.5,0.7-1,1-1.5c0.1-0.2,1.9-4.3,0.6-3.1l-1.8,2.9
		c-4.3,6.7-7.5,14-11.4,20.9c-0.4,1-0.9,2-1.4,3c-0.1-0.1-0.1-0.2-0.2-0.3c-0.1-0.1-0.1-0.1-0.1-0.2c-0.4-1-0.8-2.1-1.1-3.3
		c-1.7-4.7-2.9-10.5-5.9-14.6c-1-1.2-1.8-2.3-3.3-2.7c-0.5-0.2-1-0.4-1.5-0.4c-1.1-0.3-2.1-0.3-3.1,0.1c-1.2,0.5-3.7,1.2-2.6,3
		c0.4,0.6,0.7,1.3,1,2c0.3,0.7,0.6,1.4,0.9,2.1c0.5,1.1,0.9,2.1,1.4,3.2c-2.1,3.5-4.3,6.9-6.5,10.3c-0.9,1.5-2.2,2.6-3.6,3.7
		c-1.4,1.2-3.6,3-5.5,3.2c-0.9,0.3-1.8,0.3-2.8,0.3c-1.3-0.1-2.1-0.9-2.9-1.8c0-0.1-0.1-0.2-0.1-0.3c0.4-0.8,0.6-1.7,0.7-2.6
		c0.2-1.2,0.5-2.3,0.9-3.4c0.1-0.6,0.4-1,0.8-1.2c0.8-0.5,1.6-1,2.4-1.6c1-0.8,1.9-1.5,2.9-2.3c1.4-1.1,2.2-3,3.8-3.8l0.3-0.3
		c0.3-0.6,0.6-1.2,1-1.7c0.2-0.3,0.4-0.7,0.6-1c0.1-0.1,0.2-0.3,0.3-0.4c0.2-0.3,0.3-0.7,0.3-1.1c0.2-0.6,0.3-1.2,0.3-1.8
		c0-0.1-0.1-0.2-0.1-0.3c-0.3-0.5-0.5-1-0.8-1.5c-0.2-0.5-0.4-0.8-0.4-1.1c-0.2-0.6-0.7-1.1-1.3-1.6c-0.5-0.3-1.1-0.4-1.7-0.4
		c-0.7-0.2-1.3-0.1-1.9,0.2c-0.8,0.1-1.6,0.5-2.2,1.1c-0.1,0.1-0.3,0.2-0.5,0.3c-0.7,0.3-1.3,0.7-1.8,1.1c-0.8,0.6-1.5,1.4-2.2,2.2
		c-0.7,0.5-1.2,1.3-1.6,2c-1,1.7-2,3.3-2.7,5.1c-0.5,1.1-0.8,2.2-1,3.3c-0.1,0.2-0.2,0.5-0.3,0.7c-0.1,0.5-0.2,0.9-0.2,1.4l-0.5,2.9
		c0,0.1,0,0.1,0.1,0.1c-0.1,1.7,0.5,3.2,1.2,4.7c0.1,0.1,0.2,0.3,0.2,0.4c-0.9,2.4-2.5,5.7-5,6.6c-1,0.4-1.6,0.1-2-0.9
		c-0.2-0.5-0.6-1-1.1-1.6c-0.5-0.3-0.6-0.8-0.3-1.4c1.1-2-0.5-4.8-0.3-7c0-4.8-0.2-8.8,0.3-13.6c0.4-3,0.3-6,0.3-9v-3.3
		c0-2.7-0.8-4.8-1.2-7.4c-0.2-2-1.2-3.7-3-5c-0.4-0.3-0.8-0.7-1.1-1.2c-0.6-1.3-1.2-2.5-1.8-3.8c-0.8-1.6-2.7-3.2-4.6-3.2
		c-4.5,0.4-7.4,3.3-9.3,7.3c-1.6,2.7-2.6,5.9-3.8,8.8c-0.1-1.1-0.3-2.3-0.5-3.4c-0.6-2.3-1.3-4.6-1.9-6.9c-0.3-1.1-0.7-2.1-1.2-3.1
		c-1-1.9-2.7-3.2-5-3.9c-0.9-0.2-1.7-0.2-2.6-0.1c-6.3,0-8.5,8.6-10.3,13.1c0.9,1.1,2.4,0.4,3.1-0.6c1.2-1.7,2.3-3.6,3.6-5.3
		c3.8,15.6,3.6,31.1,3.6,47c0.1,1.8,0,3.6,0.1,5.4c0.4,1.1,0.2,2.1-0.5,3.1c-0.2,0.5-0.3,1.1-0.3,1.7c1.7-0.1,3.5-0.1,5.1,0.7
		c0.7,0.3,1.5,0.5,2.5,0.6c1.3,0.1,2-0.4,2.4-1.7c0.2-1.8,0.6-3.5,0.9-5.3c0.2-0.7,0.4-1.5,0.5-2.3c0-3.6,0.9-6.4,1.7-9.9
		c0.2-0.6,0.4-1.3,0.4-2.2c0.2-4-0.2-7.8-0.2-11.8c-0.1-1.3-0.1-2.6-0.2-3.9c-0.2-1.1-0.2-2.2-0.1-3.2c1.2-6.4,3.2-15.2,9.3-18.9
		c0.2,0.5,0.5,1,0.6,1.5c0.9,6.1,1.8,12.7,1.8,18.8c0,0.6,0,1.2,0,1.7c1,3.8-0.3,7.7,0.1,11.6c0.4,3.9,1.5,7.9,3,11.5
		c0.9,2.7,2.3,4.9,4.5,6.6c0.9,0.5,1.8,1.1,2.7,1.6c5.4,2.4,9.2-0.2,11.1-5.9c0.8,1,1.8,2,3,2.5c1.4,0.6,2.9,1,4.5,0.8
		c0.5-0.1,1-0.1,1.6-0.2c0.2,0,0.5-0.1,1-0.2c0.5-0.2,1-0.4,1.6-0.5c0.4-0.3,0.8-0.5,1.2-0.8c1.6-1,2.9-1.8,3.8-3.5
		c0.2-0.6,0.5-1.1,1-1.5c0.9-0.8,1.6-1.8,2.2-2.9c0.2-0.3,0.4-0.6,0.6-1c0.2-0.8,0.7-1.4,1.3-1.9c0.2-0.1,0.3-0.2,0.4-0.5l0.5-1.3
		c0.1-0.3,0.2-0.6,0.3-1c0-0.5,0.1-0.8,0.4-1.1c0.4-0.4,0.8-0.7,1.2-1.2c0.3,1.1,0.6,2.3,0.9,3.4c1.1,3.1,2.1,6.1,3.3,9.2
		c1.8,3.7,3.8,3.6,7.8,4.3c0.9,0.1,1.6-0.1,2.3-0.6c0.7-0.3,0.9-0.8,0.8-1.5c-0.1-0.4-0.2-0.7-0.3-1.1c0.1-0.5,0.2-0.9,0.3-1.4
		c0.2-0.9,0.3-1.8,0.5-2.7c0.7-1.3,1.3-2.7,2-4l2.9-5.2c0.6-1.1,1.2-2.3,1.7-3.4l2.9-5.2C163.4,124.2,163.6,123.6,163.8,122.9
		C164.1,122,163.6,123.6,163.8,122.9z M120,134.1c0.5-1.1,1-2.2,1.5-3.3c0.8-0.8,1.5-2.4,2.1-3.4c0.2-0.2,0.4-0.3,0.6-0.4
		c0.6-0.3,1.1-0.7,1.7-1c0.2-0.2,0.5-0.3,0.7-0.5c0.2,0.5,0.6,0.7,1.2,0.5c0,0.5-0.1,0.9-0.3,1.4c-0.6,1.7-1.1,3.4-2.4,4.7
		c-1,1.1-2.1,2.2-3.3,3.1c-0.8,0.7-1.7,1.3-2.6,1.8l-0.3,0.2C119.2,136.1,119.6,135,120,134.1C120.1,133.8,119.6,135,120,134.1z"/>
	<path fill="#FFFFFF" d="M214.7,134.4c-0.1,0.2-0.2,0.4-0.3,0.7c-1.4,2.2-2.8,4.4-4.2,6.6c-0.9,1.3-1.9,2.5-2.9,3.8
		c-0.9,0.9-6.5,6.3-6.5,3.1v-0.2c0-0.5,1.1-1.5,1.2-2.4c0.1-0.6-0.7-1.7-0.3-2.2c0.2-0.3,0.1-1.4,0.1-1.6c0-1.5-0.3-2.8,0.6-4
		c1.8-2.1,5.3-6.6,4.7-9.6c-0.3-2.2-2.9-5-5.3-5h-0.2c-1.1,0-2.2,0.6-3.2,1.2c-0.4,0.4-0.8,0.7-1.3,1c-0.5,0.2-1,0.3-1.6,0.4
		c-0.5,0.2-0.9,0.1-1.3-0.3c-0.2-0.3-0.4-0.6-0.5-1c-0.3-0.5-0.5-1-0.5-1.6c0.5-1.1,0.9-2.1,1.3-3.2c0.8-2.1,2.2-5.8,1.1-8
		c-0.5-1.1-1.8-3.6-3.5-1.9c-0.9,0.6-1.6,1.4-2.3,2.3c-1.2,1.6-1.8,3.6-1.8,5.6c-0.2,2-0.1,4.7,1,6.5c1.4,1.9,0.2,3.5-0.5,5.8
		c-0.1,0.2-0.2,0.4-0.3,0.6c-0.1,0-0.2,0.1-0.3,0.2c-2.2,3.6-4.4,7.1-6.7,10.6c-0.9,1.5-2.2,2.6-3.6,3.7c-1.4,1.2-3.6,3-5.5,3.2
		c-0.9,0.3-1.8,0.3-2.8,0.3c-1.3-0.1-2.1-0.9-2.9-1.8c0-0.1-0.1-0.2-0.1-0.3c0.4-0.8,0.6-1.7,0.7-2.6c0.2-1.2,0.5-2.3,0.9-3.4
		c0.1-0.6,0.4-1,0.8-1.2c0.8-0.5,1.6-1,2.4-1.6c1-0.8,1.9-1.5,2.9-2.3c1.4-1.1,2.2-3,3.8-3.8l0.3-0.3c0.3-0.6,0.6-1.2,1-1.7
		c0.2-0.3,0.4-0.7,0.6-1c0.1-0.1,0.2-0.3,0.3-0.4c0.2-0.3,0.3-0.7,0.3-1.1c0.2-0.6,0.3-1.2,0.3-1.8c0-0.1-0.1-0.2-0.1-0.3
		c-0.3-0.5-0.5-1-0.8-1.5c-0.2-0.5-0.4-0.8-0.4-1.1c-0.2-0.6-0.7-1.1-1.3-1.6c-0.5-0.3-1.1-0.4-1.7-0.4c-0.7-0.2-1.3-0.1-1.9,0.2
		c-0.8,0.1-1.6,0.5-2.2,1.1c-0.1,0.1-0.3,0.2-0.5,0.3c-0.7,0.3-1.3,0.7-1.8,1.1c-0.8,0.6-1.5,1.4-2.2,2.2c-0.7,0.5-1.2,1.3-1.6,2
		c-1,1.7-2,3.3-2.7,5.1c-0.5,1.1-0.8,2.2-1,3.3c-0.1,0.2-0.2,0.5-0.3,0.7c-0.1,0.5-0.2,0.9-0.2,1.4l-0.5,2.9c0,0.1,0,0.1,0.1,0.1
		c-0.1,1.7,0.5,3.2,1.2,4.7c0.3,0.6,0.7,1.2,1.1,1.7c0.9,1.1,1.9,2.2,3.2,2.8c1.4,0.6,2.9,1,4.5,0.8c0.5-0.1,1-0.1,1.6-0.2
		c0.2,0,0.5-0.1,1-0.2c0.5-0.2,1-0.4,1.6-0.5c0.4-0.3,0.8-0.5,1.2-0.8c1.6-1,2.9-1.8,3.8-3.5c0.2-0.6,0.5-1.1,1-1.5
		c0.9-0.8,1.6-1.8,2.2-2.9c0.2-0.3,0.4-0.6,0.6-1c0.2-0.8,0.7-1.4,1.3-1.9c0.2-0.1,0.3-0.2,0.4-0.5l0.2-0.5c0.1-0.1,0.2-0.3,0.3-0.5
		c1.5-2.3,2.9-5,3.8-7.6c0.4-0.8,0.7-1.6,1-2.4c0.3,0.3,0.6,0.7,0.9,1c0.6,0.5,4,1.5,3.7,2.5c-0.1,0.4-0.2,0.8-0.3,1.1
		c-0.2,1-0.4,2-0.5,3.1c-0.1,1.4-0.2,2.9-0.2,4.3c0,1.3-0.2,3,0,4.3c0.3,3.1,1.7,5.4,4.1,7c0.5,0.4,1,0.8,1.6,1
		c1.1,0.3,2.2,0.1,3.4-0.7c0.6-0.4,1.1-0.8,1.7-1.1c2.5-1.7,3.6-4.1,5.7-6.1c1-0.9,1.6-2,2.2-3.2c0.5-1.1,1-2.2,1.4-3.3
		c0.1-0.2,0.1-0.5,0.1-1c0-0.1,0.2-1.3,0.2-1.7l-0.2-0.1C214.9,134,214.8,134.2,214.7,134.4C214.6,134.6,214.8,134.2,214.7,134.4z
		 M170.6,134.1c0.5-1.1,1-2.2,1.5-3.3c0.8-0.8,1.5-2.4,2.1-3.4c0.2-0.2,0.4-0.3,0.6-0.4c0.6-0.3,1.1-0.7,1.7-1
		c0.2-0.2,0.5-0.3,0.7-0.5c0.2,0.5,0.6,0.7,1.2,0.5c0,0.5-0.1,0.9-0.3,1.4c-0.6,1.7-1.1,3.4-2.4,4.7c-1,1.1-2.1,2.2-3.3,3.1
		c-0.8,0.7-1.7,1.3-2.6,1.8l-0.3,0.2C169.9,136.1,170.2,135,170.6,134.1C170.8,133.8,170.2,135,170.6,134.1z M192.7,119.4
		c-0.5-2.3,0.6-4.5,1.1-6.6C195.3,114.2,193.6,118.1,192.7,119.4C192.6,118.8,192.9,119.1,192.7,119.4z"/>
	<path fill="#FFFFFF" d="M348.3,133.4c0.3-0.2,0.5-0.6,0.7-1c0.3-0.6,0.1-1.1-0.3-1.5c-0.2-0.1-0.3-0.1-0.5,0.1
		c-2.2,3.6-4.4,7.1-6.7,10.6c-0.9,1.5-2.2,2.6-3.6,3.7c-1.4,1.2-3.6,3-5.5,3.2c-0.9,0.3-1.8,0.3-2.8,0.3c-1.3-0.1-2.1-0.9-2.9-1.8
		c0-0.1-0.1-0.2-0.1-0.3c0.4-0.8,0.6-1.7,0.7-2.6c0.2-1.2,0.5-2.3,0.9-3.4c0.1-0.6,0.4-1,0.8-1.2c0.8-0.5,1.6-1,2.4-1.6
		c1-0.8,1.9-1.5,2.9-2.3c1.4-1.1,2.2-3,3.8-3.8l0.3-0.3c0.3-0.6,0.6-1.2,1-1.7c0.2-0.3,0.4-0.7,0.6-1c0.1-0.1,0.2-0.3,0.3-0.4
		c0.2-0.3,0.3-0.7,0.3-1.1c0.2-0.6,0.3-1.2,0.3-1.8c0-0.1-0.1-0.2-0.1-0.3c-0.3-0.5-0.5-1-0.8-1.5c-0.2-0.5-0.4-0.8-0.4-1.1
		c-0.2-0.6-0.7-1.1-1.3-1.6c-0.5-0.3-1.1-0.4-1.7-0.4c-0.7-0.2-1.3-0.1-1.9,0.2c-0.8,0.1-1.6,0.5-2.2,1.1c-0.1,0.1-0.3,0.2-0.5,0.3
		c-0.7,0.3-1.3,0.7-1.8,1.1c-0.8,0.6-1.5,1.4-2.2,2.2c-0.7,0.5-1.2,1.3-1.6,2c-1,1.7-2,3.3-2.7,5.1c-0.5,1.1-0.8,2.2-1,3.3
		c-0.1,0.2-0.2,0.5-0.3,0.7c-0.1,0.4-0.2,0.8-0.2,1.2c-1.7,3.1-4.8,10.1-8.8,10.7c-0.5,0.1-1,0.3-1.5,0.5c0.1-0.6,0.4-1,1-1.2
		c0.9,0,1-1.2,1-1.7c0.1-2.2,0.4-4.6,0.4-6.8v-1c0.7-0.3,0.5-2.1,0.5-2.7c0.2-2,0.7-4,0.3-6l-0.3-1c0-0.7-0.1-1.4-0.4-2.1
		c-0.9-1.1-1.5-2.3-2.8-2.9c-2.2-0.8-5-1.6-5.7,1.5c-0.1,0.3-0.1,0.7-0.2,1c-0.2,0.9-0.3,1.7-0.4,2.6c-0.5,2.3-0.6,4.7-0.7,7
		c-1.3,2.1-2.6,4.2-3.9,6.2c-0.9,1.3-1.9,2.5-2.9,3.8c-0.8,0.8-6.5,6.3-6.5,3.1v-0.2c2.5-0.7,0.4-3.2,1.5-4.6
		c0.5-0.4,0.7-0.9,0.5-1.6c-1.6-0.7-1.2-2.9-0.3-4c1.8-2.1,5.4-6.5,4.8-9.6c-0.3-2.2-2.9-5-5.3-5h-0.2c-1.1,0-2.2,0.6-3.2,1.2
		c-0.4,0.4-0.8,0.7-1.3,1c-0.5,0.2-1,0.3-1.6,0.4c-0.5,0.2-0.9,0.1-1.3-0.3c-0.2-0.3-0.4-0.6-0.5-1c-0.3-0.5-0.5-1-0.5-1.6
		c0.5-1.1,0.9-2.1,1.3-3.2c0.8-2.1,2.1-5.8,1.1-8c-0.5-1.1-1.8-3.6-3.5-1.9c-0.9,0.6-1.6,1.4-2.3,2.3c-1.2,1.6-1.8,3.6-1.8,5.6
		c-0.2,2-0.1,4.7,1,6.5c1.1,1.5,0.8,1.4,0.2,3.3c-2.4,2.1-4.9,4.1-7.4,6.2c-0.1-0.1-0.2-0.1-0.2-0.1c0,0-0.1-0.1-0.2-0.1
		c0.1-0.3,0.2-0.6,0.2-0.7c0.3-1.6,0.9-3.1,1.1-4.7c0.2-2.8,0.3-5.7,0.2-8.6c0-2.7,1-6.6-0.6-9c-2.8-3.8-5.1-7.3-8.6-10.5
		c-1.5-1.5-3.3-2.9-5.5-3.3c-1.7-0.5-3.3-0.2-4.8,0.7c-3.3,2.3-6.8,4.4-10.1,6.7c-0.9-4.4,2-10.9-3.8-13c-4.4-1.6-9,2-12,4.9
		c-0.1,0.3-0.1,0.8,0,1.2c0.1,0.3,0.1,0.6,0.3,1c1.6,5.5,1.7,12.9,1.7,18.7c0.1,2.1-0.1,4.2-0.1,6.4c-0.2,0.8-0.3,1.6-0.3,2.4
		c0,3.5,0,6.7-0.3,10.1c-0.5,3-3.6,20.2,0.7,20.8c1.8,0.4,1.7-2.4,3.1-2.9c1-0.5,2-1.2,2.8-2c1.9-1.7,2.9-4,3.8-6.3
		c1.5-3.1,1.8-6.9,1.4-10.3c-0.1-1.7-0.4-3.3-0.6-5c-0.2-0.3-0.1-0.6,0.2-0.8c2.6-3.2,3.3-6.6,3.2-10.7c-0.1-1.4-0.2-2.7-0.1-4.1
		c0-2.2-0.3-5.1,1-6.9c1.5-2.2,5.8-4.2,8-5.8c1.7-1.1,5.1-1.2,6.8-0.1c1.6,1.2,2,3.2,2.4,5c1.2,5.3-0.2,11.9-1,17.3
		c-0.4,2.7-1.1,5.4-1.8,8.1c-0.6,2.5-0.9,7.6-2.9,9.6c-3.3,2.6-6.9,5.1-10.2,7.8c-0.8,0.7-3.6,4.9-2,5.9c2.3,2.5,5.4,1.5,8.3,0.8
		c3.5-0.6,3.8-2.4,6-4.6c2.1-2.1,5.1-1.8,7.2-3.8c1.8-2.3,3.5-4.7,3.9-7.7c0.1-1.2,0.6-2.2,1.6-3c3.2-1.7,5.4-4.8,8-7.3
		c0,0,0,0.1,0,0.1c-0.8,2.1-2,4-2.8,6.1c-0.3,0.3-0.4,0.7-0.5,1.1c0.3,0.1,0.6,0.1,0.9-0.2c0.2-0.1,0.3-0.3,0.4-0.5
		c1.5-2.3,2.9-5,3.8-7.6c0.2-0.4,0.4-0.9,0.6-1.3c0.5-0.2,0.5-0.3,0.2-0.5c0.1-0.3,0.2-0.5,0.2-0.7c0.3,0.3,0.6,0.7,0.9,1
		c0.6,0.5,4,1.5,3.7,2.5c-0.1,0.4-0.2,0.8-0.3,1.1c-0.2,1-0.4,2-0.5,3.1c-0.1,1.4-0.2,2.9-0.2,4.3c0,1.3-0.2,3,0.1,4.3
		c0.3,3.1,1.7,5.4,4.1,7c0.5,0.4,1,0.8,1.6,1c2.1,0.5,3.5-0.9,5.1-1.8c2.5-1.7,3.6-4.1,5.7-6.1c1-0.9,1.6-2,2.2-3.2
		c0.3-0.5,0.5-0.9,0.7-1.4c0.1,1.7-0.1,3.3,0.4,5c0.2,0.9,0.4,1.9,0.6,2.8c0.6,1.7,1.7,3.2,3.3,3.9c1.1,0.4,2.1,0.5,3.2,0.3
		c0.9-0.1,1.7-0.3,2.6-0.6c0,0,0,0,0.1,0c2.1-0.8,4.2-4.5,5.4-6.3c0.5-0.9,0.9-2,1.4-2.9l0,0c0,0.1,0,0.1,0.1,0.1
		c-0.1,1.7,0.5,3.2,1.2,4.7c0.3,0.6,0.7,1.2,1.1,1.7c0.9,1.1,1.9,2.2,3.2,2.8c1.4,0.6,2.9,1,4.5,0.8c0.5-0.1,1-0.1,1.6-0.2
		c0.2,0,0.5-0.1,1-0.2c0.5-0.2,1-0.4,1.6-0.5c0.4-0.3,0.8-0.5,1.2-0.8c1.6-1,2.9-1.8,3.8-3.5c0.2-0.6,0.5-1.1,1-1.5
		c0.9-0.8,1.6-1.8,2.2-2.9c0.2-0.3,0.4-0.6,0.6-1c0.2-0.8,0.7-1.4,1.3-1.9c0.2-0.1,0.3-0.2,0.4-0.5l0.5-1.3c0.1-0.3,0.2-0.6,0.3-1
		c0-0.5,0.1-0.8,0.4-1.1C347.7,133.9,348,133.6,348.3,133.4C348.7,133.2,348,133.6,348.3,133.4z M330.8,134.1c0.5-1.1,1-2.2,1.5-3.3
		c0.8-0.8,1.5-2.4,2.1-3.4c0.2-0.2,0.4-0.3,0.6-0.4c0.6-0.3,1.1-0.7,1.7-1c0.2-0.2,0.5-0.3,0.7-0.5c0.2,0.5,0.6,0.7,1.2,0.5
		c0,0.5-0.1,0.9-0.3,1.4c-0.6,1.7-1.1,3.4-2.4,4.7c-1,1.1-2.1,2.2-3.3,3.1c-0.8,0.7-1.7,1.3-2.6,1.8l-0.3,0.2
		C330,136.1,330.4,135,330.8,134.1C330.9,133.8,330.4,135,330.8,134.1z M254.2,146.6c-1.3,2-2.2,4.1-4,5.7c-0.6,0.6-1.1,1.4-1.6,2.3
		c-1.1,1.7-1.8,2.1-3.7,1.2c0.6-2.9,2.2-5.4,4.5-7.2c1-1,2.4-1.3,3.6-1.8c0.3-0.2,0.8-0.6,1.3-1
		C254.3,146.2,254.3,146.5,254.2,146.6C253.6,147.6,254.3,146.5,254.2,146.6z M282.8,119.4c-0.5-2.3,0.6-4.5,1.1-6.6
		C285.3,114.2,283.6,118.1,282.8,119.4C282.7,118.8,283,119.1,282.8,119.4z"/>
	<path fill="#FFFFFF" d="M376.3,135.9c-0.2-0.2-0.4-0.2-0.7-0.3c-0.1,0.4-0.3,0.8-0.5,1.1c-1.9,3.1-3.8,6.2-6.6,8.6
		c-1,0.9-1.9,1.7-3.2,1.9l-0.8,0.3l0.5-0.5c1.7-1.7,3.8-3.4,3.6-6c0-0.5-0.1-1-0.3-1.5c-0.5-2-1.4-3.3-2.9-4.7c-1.7-2-3.7-4-5.9-5.4
		c-1.6-1.2-3.3-2.2-4.6-3.8c-2.9-3.2,3.8-6.1,1-9c-1.8-1.5-4.4-1.5-6.2,0.1c-1.9,1.9-3.7,2.9-2.4,6.3c0.5,1.6,1.5,3,2.6,4.3l0.7,0.7
		c0.4,0.4,0.6,0.6,0.7,0.6c3.1,3.1,6.9,5.8,7.9,10.4c0.7,3.2-0.4,7.6-3.7,8.9c-0.2,0-0.3,0.1-0.4,0.3c-0.6,0.9-1.5,1.3-2.6,1.2
		c-0.5-0.1-0.8-0.2-1-0.3c-1-0.2-2-0.6-2.8-1.2c-0.6-0.1-0.9,0.2-0.9,0.9c0.2,0.5,0.6,0.8,1.1,1c0.2,0,0.4,0.1,0.5,0.3
		c0.8,0.3,2.4,1.4,3,0.4h0.2c0.2,0.8,0.8,0.6,1.5,0.5c1.9,0,3.7-0.8,5.5-0.8c1.1-0.2,1.5-0.6,2.4-1c0.7,0.1,1.4,0.1,2.2,0
		c0.9-0.2,1.8-0.3,2.7-0.5c0.6-0.4,1.1-0.8,1.6-1.3c2.2-1.4,3.5-3.4,4.8-5.6c1.1-1.5,1.9-3.2,2.8-4.8
		C376.3,136.6,376.4,136.3,376.3,135.9C376.2,135.8,376.5,136.1,376.3,135.9z"/>
</g>
<g>
	<path fill="#FFFFFF" d="M430.2,44.4c-0.1,0.1-0.2,0.2-0.2,0.3c-0.6,2-1.7,3.7-2.8,5.4c-1.2,1.7-2.3,3.4-3.5,5.2
		c-0.3,0.7-0.7,1.3-1.2,1.9c-1.9,2.5-4,4.9-6.5,6.8c-0.2,0.1-0.4,0.2-0.6,0.3c0.1-1.1,0.2-2.2,0.3-3.3c0.1-1.6,0.1-3.2,0.1-4.7
		c0-0.9,0-1.9,0-2.8c0.2-1.1,0-2.3,0-3.7v-3.9c0-1.1-0.3-16.3,0.6-16.3h1.9c0.4,0,0.8,0,1.2,0c1,0,2,0.1,3.1,0.1
		c0.6,0.2,0.8,0,0.5-0.6c0.7-0.3,0.8-0.7,0.2-1.1c-0.5-0.3-1-0.5-1.6-0.6c-1.6-0.5-3.4-0.4-5.1,0c-0.5,0.1-0.7-0.1-0.8-0.5
		c0-0.4-0.1-0.8-0.3-1.1c-0.9-1.3-0.6-3.4-1-4.8c-0.3-1.3-0.7-2.5-1.1-3.8c-0.2-0.5-0.4-1-0.6-1.6c-0.8-1.7-4.8-3.5-5.2-0.5
		c0.1,0.4,0.1,0.8,0,1.1c0,3.3-0.1,6.6-0.4,9.9c0,0.5-0.1,1-0.2,1.5c-0.4-0.1-0.8-0.1-1.2,0c-1.2,0-2.4,0.1-3.7,0.1
		c-1.5,0.3-2.7,0.6-4.3,1.1v0.3c1.1,0.1,1.6,0.5,2.8,0.5c1.1,0.1,4.2-0.6,5.1,0c1.1,0.7,0.5,0.4,1,1.7c0.7,2-0.3,5.5-0.3,7.6
		c-0.4,1.9-0.5,4.1-0.5,6c-0.1,1.2-0.1,2.5-0.1,3.7c-0.1,0.1-0.2,0.2-0.3,0.3c-1.7,3.4-3.4,6.4-5.4,9.6c-1.3,2.5-3.1,5.7-6.1,6.3
		c-0.6-0.6-1.1-1.2-1.7-1.8c0.6-0.7,1.2-1.5,1.7-2.3c0.1-0.1,0.1-0.2,0.2-0.3c0.3-1.1,0.6-2.1,1.1-3.1c1-1.4,1.2-3.2,1.7-4.8
		c0.2-1.1,0.3-2.1,0.4-3.2c0.2-1.5,0.2-3,0.4-4.5c0-1.4,0.3-2.6,0.2-4c-0.3-2-0.9-3.6-2.5-4.8c-0.8-0.6-1.6-0.9-2.6-0.9
		c-1.3-0.3-2.3,0.1-3.1,1c-0.4,0.7-0.8,1.4-1.2,2.1c-0.7-0.5-1.4-0.9-2.1-1.4c-0.8-0.6-1.8-0.8-2.9-0.3c-2.8,0.8-4.7,2.6-6.7,4.6
		c-0.3,0.3-0.6,0.7-0.9,1c-1.3,2-2.1,4.2-3,6.4c-0.5,1.6-1.2,3.2-1.4,4.9c-0.1,0.4-0.1,0.8-0.2,1.2c-0.4,0.7-0.9,1.3-1.3,2
		c-1.4,2.1-3.1,4-5.2,5.2c-0.9,0.5-1.7,0.8-2.5,1c-0.5,0-0.9-0.2-1.2-0.5c0-0.4,0.1-0.7,0.5-0.8c0.3-0.2,0.6-0.4,0.6-0.5
		c1.1-1.6,1.7-3,2.3-4.9c0.2-0.4,0.4-0.9,0.4-1.4c0.1-1,0.2-2.1,0.3-3.1c-0.2-0.7-0.4-1.3-0.6-2v-3.8c0.3-0.3,0.4-0.7,0.4-1.1
		c-0.1-0.6-0.2-1.3-0.5-1.9c-0.2-0.6-0.5-1.1-0.8-1.7c-2-2.9-4-4.4-7.7-4.7c-0.6,0-1,0.1-1.3,0.3c-1,0.7-1.9,1.5-2.9,2.3
		c-0.6,0.4-1.2,0.9-1.8,1.3c0.2-3.8,0.6-7.6,0.9-11.4c0.8,0.1,1.5-0.1,1.9-0.8c0.9-1.4,1.3-2.9,1.4-4.4c0.1-0.6-0.1-1.4-0.3-2.4
		c-0.4-0.9-0.8-1.8-1.3-2.6c-0.6-1-1.1-2.6-2.3-3.2c-1.2-0.8-2.9-0.7-3.8,0.4c-0.4,0.5-0.7,0.9-0.9,1.5c-0.5,0.8-1,1.7-1.5,2.5
		c-0.4,0.8-0.8,1.5-1.1,2.4c-0.2,0.7-0.5,1.4-0.7,2.1c-0.2,1.1-0.4,2.2-0.6,3.3v0.7c-0.2,1.3-0.4,2.7-0.5,4
		c-0.4,2.8-0.5,5.8-0.7,8.6c-0.5,3.5-0.5,7.2-0.5,10.8c-0.8,1.2-1.6,2.4-2.5,3.6c-0.3,0.7-0.7,1.3-1.2,1.9c-1.9,2.5-4,4.9-6.5,6.8
		c-0.2,0.1-0.4,0.2-0.6,0.3c0.1-1.1,0.2-2.2,0.3-3.3c0.1-1.6,0.2-3.2,0.2-4.7c0-0.9,0-1.9,0-2.8c0.2-1.1,0-2.3,0-3.7v-3.9
		c0-1.1-0.3-16.3,0.5-16.3h1.9c0.4,0,0.8,0,1.2,0c1,0,2,0.1,3.1,0.1c0.6,0.2,0.8,0,0.5-0.6c0.7-0.3,0.8-0.7,0.2-1.1
		c-0.5-0.3-1-0.5-1.6-0.6c-1.6-0.5-3.4-0.4-5.1,0c-0.5,0.1-0.7-0.1-0.8-0.5c0-0.4-0.1-0.8-0.3-1.1c-0.9-1.3-0.6-3.4-1-4.8
		c-0.3-1.3-0.7-2.5-1.1-3.8c-0.2-0.5-0.4-1-0.6-1.6c-0.8-1.7-4.8-3.5-5.2-0.5c0.1,0.4,0.1,0.8,0,1.1c0,3.3-0.1,6.6-0.4,9.9
		c0,0.5-0.1,1-0.2,1.5c-0.4-0.1-0.8-0.1-1.2,0c-1.2,0-2.4,0.1-3.7,0.1c-1.5,0.3-2.7,0.6-4.1,1.1v0.3c1.1,0.1,1.5,0.5,2.7,0.5
		c1.1,0.1,4.2-0.6,5.1,0c1.1,0.7,0.5,0.4,1,1.7c0.7,2-0.3,5.5-0.3,7.6c-0.4,1.9-0.4,4.1-0.4,6c-0.2,2.1-0.1,4.4-0.1,6.5
		c-0.1,1.7,0.1,3.5,0.1,5.2c-0.2,1-0.3,2.1-0.3,3.1c0.2,4.3,4.3,5.9,7.8,7.3c1.1,0.5,2,0.4,2.9-0.4c3.5-2.9,7.2-7,9.3-11.1
		c0.2-0.4,0.4-0.8,0.6-1.2c0,1.1,0.1,2.3,0.2,3.4c0.2,2.2,0.3,4.5,0.5,6.7c0.1,0.7,0.1,1.4,0,2.1c0.5,0,0.8-0.1,0.9-0.2
		c1.7-1.4,5.1,0,5.4-3c0-0.1,0-0.2,0.1-0.3c0.2-0.6,0.6-3,1.3-3.3c0.9-0.3,1.4-0.9,1.4-1.8v-1.9l0.3-5.2c0.2-2.2,0.2-4.8,0-7
		c-0.3-2.1,3-4.3,4.5-5.2c0.5-0.2,0.9-0.5,1.3-0.9c0.1,0.3-0.1,0.6-0.1,1v5.1c0.2,0.7,0.3,1.4,0.4,2.2c-0.2,3.4-0.6,6.7-0.1,10.1
		c0.1,1.3,0.4,2.4,0.7,3.3c0.9,2.5,3.5,5.2,6.5,4.5c0.6,0,1,0,1.3-0.1c0.6-0.1,1.1-0.3,1.6-0.6c0.6-0.5,1.1-1,1.6-1.5
		c1.4-1.3,3.1-2.5,4.1-4.2c1,4.1,4.8,7.5,9.1,5.5c3.1-1.5,5.4-7.4,6.6-10.5c0,0.1,0.3,0.1,0.3,0.1v1.2v1.3c-0.2,1-0.4,2-0.4,3.1
		c0.1,3.6,2.8,10.1,7.2,7.9c2.2-0.8,4.3-2.9,5.4-4.9c0.7-1.1,1.4-2.2,2.2-3.3c0.3-0.4,0.5-0.8,0.8-1.2c0.9-1.7,1.8-3.4,2.6-5.2
		c0,0,0.1,0,0.1,0c-0.1,1.7,0,3.4,0,5.2c-0.2,1-0.2,2.1-0.2,3.1c0.2,4.3,4.3,5.9,7.8,7.3c1.1,0.5,2,0.4,2.9-0.4
		c3.5-2.9,7.2-7,9.3-11.1c0.2-0.5,0.4-0.9,0.7-1.4C427.5,52,431.5,46.7,430.2,44.4C430.1,44.5,430.6,45.1,430.2,44.4z M351.3,24.8
		c0.3-1.1,0.5-2.2,0.8-3.4c0.5,1.4,0.6,6-1.1,6.9C350.9,27.1,351,25.9,351.3,24.8C351.6,23.7,351,25.9,351.3,24.8z M387.8,42.6
		c-0.3,6.2-3.8,14.5-8.6,18.7c-0.9,0.6-2.4,0.3-3.1-0.5c-3.5-4.4,0-11.7,2.3-16.2c0.1-0.4,0.3-0.7,0.5-1c0.6-0.9,1.2-1.8,1.8-2.6
		c1.3-1.5,2.9-2.6,4.7-1.4c0.3,0.4,0.6,0.7,1.1,0.8c0.4,0,0.8,0,1.2,0C387.9,41.5,387.8,42,387.8,42.6
		C387.8,43.3,387.8,42,387.8,42.6z"/>
</g>
</svg>
