<?xml version="1.0" encoding="utf-8"?>
<!-- Generator: Adobe Illustrator 19.2.1, SVG Export Plug-In . SVG Version: 6.00 Build 0)  -->
<svg version="1.1" id="Layer_1" xmlns="http://www.w3.org/2000/svg" xmlns:xlink="http://www.w3.org/1999/xlink" x="0px" y="0px"
	 width="253.8px" height="62.3px" viewBox="0 0 253.8 62.3" enable-background="new 0 0 253.8 62.3" xml:space="preserve">
<path fill="#573B7E" d="M92.4,41c0.6,0,0.9-0.1,1.3-0.1c4.1,0,8.1,0,12.2,0c1.1,0,1.4,0.4,1.4,1.4c-0.1,5.6,0,11.3-0.1,16.9
	c0,1,0.3,1.4,1.4,1.4c2.5-0.1,5,0,7.5,0c1,0,1.4-0.3,1.3-1.3c0-1.6,0-3.3,0-4.9c0-12.5,0-25.1,0-37.6c0-1.8,0-1.8-1.8-1.8
	c-2.1,0-4.2,0-6.3,0c-2,0-2,0-2,1.9c0,4.5,0,9.1,0,13.6c0,0.5,0,0.9,0,1.4c-5,0-9.9,0-14.9,0c0-0.5,0-0.9,0-1.4c0-4.7,0-9.5,0-14.2
	c0-1-0.3-1.4-1.4-1.4c-2.5,0.1-4.9,0-7.4,0c-1,0-1.4,0.3-1.4,1.3c0,14.3,0,28.7,0,43c0,1,0.3,1.3,1.3,1.3c2.3,0,4.7,0,7,0
	c1.8,0,1.8,0,1.8-1.7c0-5.4,0-10.9,0-16.3C92.4,42,92.4,41.6,92.4,41z"/>
<path fill="#573B7E" d="M144.7,58.5c0.1,0.3,0.2,0.5,0.2,0.7c0,1.2,0.6,1.5,1.7,1.5c1.4-0.1,2.7-0.1,4.1,0c1,0,1.3-0.3,1.3-1.3
	c0-9.5,0-19,0-28.5c0-0.9-0.3-1.3-1.2-1.2c-2.4,0-4.9,0-7.3,0c-1.5,0-1.6,0-1.6,1.6c0,6.6,0,13.1,0,19.7c0,0.6,0,1.1-0.7,1.5
	c-1.7,0.8-3.5,1.3-5.4,1.1c-2.1-0.2-2.9-1.1-3.1-3.2c-0.1-0.6-0.1-1.2-0.1-1.8c0-5.8,0-11.7,0-17.5c0-0.7,0-1.4-1.1-1.4
	c-2.7,0-5.4,0-8.1,0c-0.7,0-1,0.3-1,1.1c0,7.1-0.1,14.2,0.1,21.3c0.1,4,1.6,7.3,5.7,8.7c1.7,0.6,3.5,0.8,5.3,0.9
	C137.4,61.7,141.1,60.5,144.7,58.5z"/>
<path fill="#573B7E" d="M70.2,29.4c0-2.7,0-5.2,0-7.7c0-0.8-0.2-1.1-1.1-1.1c-2.6,0-5.2,0-7.9,0c-0.8,0-1.1,0.2-1.1,1.1
	c0.1,1.2,0,2.3,0,3.5c0,1.5,0,3,0,4.5c-1.5,0.4-2.8,0.7-4.2,1c-0.8,0.2-1.1,0.5-1.1,1.3c0.1,1.4,0.1,2.9,0,4.3
	c0,0.9,0.3,1.3,1.2,1.2c1.3-0.1,2.6,0,4,0c0,0.6,0,1,0,1.4c0,4,0,8.1,0,12.1c0.1,5,2.1,8.2,6.2,9.5c3.4,1.1,6.9,1,10.3,0
	c0.4-0.1,0.8-0.7,0.8-1c0.1-1.8,0-3.5,0.1-5.3c0-0.8-0.3-1.1-1.1-1.1c-1,0.1-2,0.1-2.9,0c-2.3-0.2-3.3-1.3-3.3-3.6c0-3.7,0-7.4,0-11
	c0-0.3,0-0.7,0.1-1.1c1.9,0,3.7,0,5.5,0c1.7,0,1.7,0,1.7-1.7c0-1.6,0-3.2,0-4.8c0-1.6-0.1-1.7-1.6-1.7C74,29.4,72.2,29.4,70.2,29.4z
	"/>
<path fill="#573B7E" d="M52,44.9c0-4.7,0-9.4,0-14.1c0-1-0.3-1.4-1.3-1.4c-2.5,0-5,0-7.5,0c-1,0-1.3,0.4-1.3,1.3
	c0,9.4,0,18.9,0,28.3c0,1.1,0.5,1.5,1.6,1.5c2.3,0,4.6,0,6.9,0c1.5,0,1.7-0.1,1.7-1.7C52,54.2,52,49.6,52,44.9z"/>
<path fill="#573B7E" d="M52.4,21.5c0-3-2.4-5.5-5.5-5.5c-3.1,0-5.7,2.4-5.7,5.5c0,3,2.5,5.5,5.6,5.5C49.8,27,52.4,24.5,52.4,21.5z"
	/>
<g>
	<g>
		<path fill="#573B7E" d="M0,37.9c0.2-1.9,0.2-3.8,0.5-5.7c0.5-2.6,1-5.2,1.9-7.6c2.2-5.9,6.5-9.5,12.7-10.7
			c5.6-1.1,11.2-0.8,16.7,0.7c2.9,0.8,2.8,0.9,2.1,3.8c-0.4,1.4-0.7,2.9-1,4.3c-0.2,1.1-0.7,1.3-1.7,1c-3.7-1.2-7.4-1.4-11.3-0.9
			c-4.3,0.5-7.1,2.9-8.4,7c-1.6,5.3-1.6,10.6,0.1,15.8c1.4,4.4,4.4,6.6,9,6.6c1.6,0,3.1-0.2,4.7-0.2c0.7,0,0.9-0.3,0.9-1
			c0-2.5,0-4.9,0-7.4c0-0.7-0.2-1-0.9-1c-1.5,0-3.1,0-4.6,0c-0.9,0-1.3-0.3-1.3-1.2c0.1-2.1,0-4.2,0-6.3c0-0.9,0.4-1.2,1.2-1.2
			c4.8,0,9.6,0,14.4,0c1,0,1.3,0.4,1.3,1.3c0,7.2,0,14.4,0,21.6c0,0.8-0.3,1.3-1,1.6c-4.8,2.5-10,3.4-15.3,2.9
			c-2.8-0.3-5.6-0.7-8.2-1.6C5.5,57.6,2.3,52.6,1,46.4c-0.5-2.2-0.6-4.6-0.8-6.9c-0.1-0.5-0.1-0.9-0.2-1.4C0,38.1,0,38,0,37.9z"/>
		<path fill="#573B7E" d="M92.4,42c0,0.6,0,1.1,0,1.5c0,5.4,0,10.9,0,16.3c0,1.7,0,1.7-1.8,1.7c-2.3,0-4.7,0-7,0
			c-1,0-1.3-0.3-1.3-1.3c0-14.3,0-28.7,0-43c0-1.1,0.4-1.3,1.4-1.3c2.5,0,4.9,0.1,7.4,0c1,0,1.4,0.3,1.4,1.4c0,4.7,0,9.5,0,14.2
			c0,0.4,0,0.8,0,1.4c5,0,9.8,0,14.9,0c0-0.5,0-0.9,0-1.4c0-4.5,0-9.1,0-13.6c0-1.9,0-1.9,2-1.9c2.1,0,4.2,0,6.3,0
			c1.8,0,1.8,0,1.8,1.8c0,12.5,0,25.1,0,37.6c0,1.6,0,3.3,0,4.9c0,1-0.4,1.3-1.3,1.3c-2.5,0-5-0.1-7.5,0c-1,0-1.4-0.4-1.4-1.4
			c0-5.6,0-11.3,0.1-16.9c0-1-0.2-1.4-1.4-1.4c-4.1,0.1-8.1,0-12.2,0C93.3,41.9,92.9,42,92.4,42z"/>
		<path fill="#573B7E" d="M144.7,58.6c-3.6,2-7.2,3.2-11.2,3c-1.8-0.1-3.6-0.4-5.3-0.9c-4.1-1.4-5.6-4.7-5.7-8.7
			c-0.2-7.1-0.1-14.2-0.1-21.3c0-0.7,0.3-1.1,1-1.1c2.7,0,5.4,0,8.1,0c1.1,0,1.1,0.7,1.1,1.4c0,5.8,0,11.7,0,17.5
			c0,0.6,0,1.2,0.1,1.8c0.2,2.1,1,3,3.1,3.2c1.9,0.2,3.7-0.3,5.4-1.1c0.7-0.3,0.7-0.9,0.7-1.5c0-6.6,0-13.1,0-19.7
			c0-1.5,0-1.6,1.6-1.6c2.4,0,4.9,0,7.3,0c0.9,0,1.2,0.3,1.2,1.2c0,9.5,0,19,0,28.5c0,1-0.3,1.3-1.3,1.3c-1.4-0.1-2.7-0.1-4.1,0
			c-1.1,0.1-1.7-0.3-1.7-1.5C144.8,59.1,144.7,58.9,144.7,58.6z"/>
		<path fill="#573B7E" d="M70.2,29.6c2,0,3.8,0,5.6,0c1.6,0,1.6,0.1,1.6,1.7c0,1.6,0,3.2,0,4.8c0,1.7,0,1.7-1.7,1.7
			c-1.8,0-3.6,0-5.5,0c0,0.4-0.1,0.8-0.1,1.1c0,3.7,0,7.4,0,11c0,2.3,1,3.4,3.3,3.6c1,0.1,2,0,2.9,0c0.8,0,1.2,0.2,1.1,1.1
			c0,1.8,0,3.5-0.1,5.3c0,0.4-0.5,0.9-0.8,1c-3.4,0.9-6.9,1-10.3,0c-4-1.3-6.1-4.4-6.2-9.5c-0.1-4,0-8.1,0-12.1c0-0.4,0-0.8,0-1.4
			c-1.4,0-2.7,0-4,0c-0.9,0-1.2-0.3-1.2-1.2c0.1-1.4,0-2.9,0-4.3c0-0.8,0.3-1.2,1.1-1.3c1.3-0.3,2.7-0.6,4.2-1c0-1.5,0-3,0-4.5
			c0-1.2,0-2.4,0-3.5c0-0.8,0.3-1.1,1.1-1.1c2.6,0,5.2,0,7.9,0c0.9,0,1.1,0.3,1.1,1.1C70.2,24.4,70.2,26.9,70.2,29.6z"/>
		<path fill="#573B7E" d="M52,45.9c0,4.7,0,9.3,0,14c0,1.6-0.1,1.7-1.7,1.7c-2.3,0-4.6,0-6.9,0c-1.1,0-1.6-0.4-1.6-1.5
			c0-9.4,0-18.9,0-28.3c0-1,0.4-1.3,1.3-1.3c2.5,0,5,0,7.5,0c1,0,1.3,0.4,1.3,1.4C51.9,36.5,52,41.2,52,45.9z"/>
		<path fill="#573B7E" d="M52.4,21.5c0,3-2.6,5.5-5.6,5.4c-3.1,0-5.6-2.5-5.6-5.5c0-3,2.6-5.5,5.7-5.5C50,16,52.4,18.5,52.4,21.5z"
			/>
		<path fill="#573B7E" d="M187.4,37.7c-0.9-4.2-3.2-7.5-7.6-8.5c-2.2-0.5-4.7-0.4-7-0.2c-1.8,0.2-3.6,1-5.6,1.5c0-0.4,0-0.8,0-1.3
			c0-4.2,0.2-8.5,0.2-12.7c0-1-0.2-1.5-1.3-1.5c-2.5,0.1-5,0-7.5,0c-1,0-1.3,0.4-1.3,1.3c0,2.1,0,4.1,0,6.2c0,12.1,0,24.3,0,36.4
			c0,1.6,0,1.7,1.6,1.7c1.4,0,2.7,0,4.1,0c1.7,0,1.7,0,2-1.7c0-0.2,0.1-0.3,0.1-0.5c4.7,2.5,6.5,3.1,10.2,3.1
			c6.1,0.1,9.9-2.3,11.5-7.8C188.4,48.5,188.6,43.1,187.4,37.7z M178,47.5c-0.1,1.1-0.3,2.3-0.6,3.3c-0.4,1.6-1.6,2.5-3.3,2.7
			c-2,0.2-4-0.1-5.8-0.9c-0.6-0.3-0.8-0.6-0.8-1.2c0-2.1,0-4.1,0-6.2c0-2,0-4.1,0-6.1c0-0.7,0.2-1.2,0.8-1.3c1.5-0.4,3.1-0.9,4.7-1
			c2.3-0.1,3.7,1,4.5,3.2C178.3,42.4,178.2,45,178,47.5z"/>
	</g>
	<path fill="#573B7E" d="M191.9,31.1c-0.1-17.2,13.4-29.8,27.7-31c9.6-0.8,18.2,1.9,25.1,8.8c5.2,5.2,8.3,11.4,9,18.8
		c0.9,9.8-1.8,18.4-8.8,25.4c-6.1,6.1-13.5,9.2-22.1,9.2C205.3,62.3,191.6,47.7,191.9,31.1z M228.4,42.5c2.4,2,2.6,4.6,2.6,7.2
		c0,1.6,0,3.2,0,4.8c0,1.4,0.3,1.5,1.6,1c3.2-1.3,6.1-3.1,8.6-5.6c6.4-6.5,9-14.3,7.5-23.4c-3.2-19-24.9-28-40.6-17.1
		c-4,2.8-7,6.4-8.9,10.8c-3.2,7.4-3.2,14.8,0.2,22.1c3.1,6.7,8.4,11.2,15.4,13.7c1.3,0.5,1.6,0.3,1.7-1.2c0-1.6,0-3.2,0-4.8
		c-0.8,0.1-1.6,0.2-2.3,0.3c-2.9,0.2-5.3-1.2-6.4-3.9c-0.3-0.6-0.6-1.2-0.9-1.8c-0.5-0.8-1.3-1.4-2.1-2c-0.3-0.2-0.8-0.5-0.6-1
		c0.2-0.5,0.7-0.4,1.1-0.4c0.9,0,1.7,0.4,2.4,1c0.6,0.5,1.1,1.1,1.5,1.8c1.6,2.4,4,3.2,6.7,2.1c0.3-0.1,0.7-0.1,0.7-0.4
		c0.3-1.3,1.1-2.3,2-3.3c-2.5-0.3-4.8-0.8-7-1.8c-2.2-1-3.8-2.7-4.9-4.7c-0.4-0.8-0.6-1.3-1.5-1.2c0,0-0.1-0.1-0.1-0.2
		c0.4,0,0.8-0.1,1.1-0.1c0-0.1,0-0.2,0-0.3c-1.2-4.7-1.5-9.2,1.8-13.2c0.3-0.3,0.2-0.6,0.1-1c-0.6-2.1-0.4-4.2,0.2-6.3
		c0.2-0.7,0.6-0.8,1.3-0.7c2.2,0.3,4.2,1.4,6.1,2.6c0.5,0.3,0.8,0.4,1.3,0.3c4-0.9,8-1.3,12-0.1c0.5,0.1,1.1,0,1.6-0.3
		c1.7-1.1,3.5-2.1,5.6-2.4c0.9-0.1,1.4,0.1,1.7,1.1c0.4,1.7,0.6,3.5,0.3,5.2c-0.1,0.5,0,0.9,0.4,1.4c2.1,2.2,2.7,4.9,2.8,7.8
		c0,2.5-0.1,5-0.9,7.6c1.5,0,2.9,0,4.3,0c-1.1,0.2-2.2,0.2-3.3,0.2c-0.8,0-1.3,0.1-1.7,0.9c-0.8,1.5-2,2.6-3.5,3.4
		C233.7,41.7,231.2,42.3,228.4,42.5z M224.2,57.3c-0.3-3.3-0.2-6.7-0.3-10c0-0.3,0.2-0.8-0.3-0.8c-0.5,0-0.4,0.5-0.4,0.8
		c0,0.9,0,1.8,0,2.6c0,2.1,0.1,4.3-0.1,6.4C222.9,57.5,223.3,57.5,224.2,57.3z M220.1,46.7c-0.8,0.8-0.8,1.7-0.8,2.5
		c-0.2,2.5,0.4,5-0.3,7.5c-0.1,0.2,0,0.3,0.2,0.4c0.2,0.1,0.5,0.1,0.6-0.1c0.2-0.3,0.4-0.7,0.4-1C220.1,53,220.1,50,220.1,46.7z
		 M227.2,46.8c0,3.4,0,6.4,0,9.5c0,0.4,0.1,0.7,0.6,0.6c0.3-0.1,0.4-0.3,0.4-0.7c-0.4-2.3-0.1-4.7-0.2-7
		C227.9,48.5,227.8,47.7,227.2,46.8z"/>
</g>
</svg>
