<svg id="Layer_1" data-name="Layer 1" xmlns="http://www.w3.org/2000/svg" width="237.12" height="120" viewBox="0 0 237.12 120">
  <title>tools</title>
  <g>
    <path d="M79.86,50.45c1.56-.18,2.06.56,2.48,1.71,2.4,6.74,4.89,13.46,7.35,20.17.23.62.49,1.21.87,2.14l5-13.59c1.12-3,2.28-6,3.32-9a1.74,1.74,0,0,1,2-1.37c2.18.06,4.37,0,6.82,0-.29.84-.47,1.41-.69,2-4.08,10.08-8.19,20.16-12.23,30.26a2.33,2.33,0,0,1-2.49,1.71c-5.28,0-5.28,0-7.28-4.85-1.64-4-3.28-8-5.13-12q0,13.19,0,26.36a10.38,10.38,0,0,1-.31,2.67,7,7,0,0,1-6.91,5.2q-32.68,0-65.39,0A7.11,7.11,0,0,1,0,94.69Q0,61.92,0,29.13A7.11,7.11,0,0,1,7.12,22q32.78,0,65.56,0a7.14,7.14,0,0,1,7.17,7.24c0,6.38,0,12.76,0,19.14Zm-14.07,23a31.09,31.09,0,0,1-2.63,4,2.65,2.65,0,0,1-2.35.6c-.55-.18-.89-1.27-1.11-2a3.45,3.45,0,0,1,.19-1.66c.53-2.07,1.22-4.1,1.65-6.2.59-2.9,1.42-5.84,1.42-8.77,0-6.7-6.47-10.38-12.15-6.94-2.06,1.25-3.63,3.3-5.41,5a10,10,0,0,0-.75.94l-.28-.13,1.26-6.42c-3.83,0-7.43,0-11,0a1.12,1.12,0,0,0-.86.61c-.52,1.64-1,3.3-1.51,5.29H38C36.64,63.07,35.57,68,34,72.8a8.44,8.44,0,0,1-6.29,5.42c-2.94.74-4.35-.47-3.71-3.4.8-3.68,1.74-7.33,2.64-11,1-3.87,1.94-7.72,2.89-11.51-.25-.18-.34-.3-.43-.3-3.94,0-7.89-.08-11.84-.06a1.32,1.32,0,0,0-1,.7c-.51,1.64-.91,3.32-1.41,5.23h5.44c-.1.69-.14,1.18-.25,1.65-.57,2.35-1.21,4.69-1.72,7.05-.79,3.68-2.22,7.24-1.86,11.11A5.62,5.62,0,0,0,20.84,83c4.34,1.07,7.72-.56,10.49-3.81.46-.54.89-1.11,1.33-1.67l.3.14-1.12,5.12h4.87c2.69,0,2.67,0,3.31-2.59C41.37,74.82,42.7,69.41,44.1,64a9.11,9.11,0,0,1,3.21-5.42,5.3,5.3,0,0,1,5.9-.52c2,1,2.27,3,2,5-.15.94-.37,1.87-.61,2.8-.78,3-1.73,6-2.36,9-1.06,5.14,2.2,8.84,7.45,8.49,4.06-.26,6.3-2.88,7.81-6.34C68.61,74.35,68.6,74.35,65.79,73.48Zm-34.55-31a4.58,4.58,0,0,0-4.51-4.69,4.63,4.63,0,1,0-.1,9.26A4.55,4.55,0,0,0,31.24,42.51Z" style="fill: #f36"/>
    <path d="M184.82,49.83c10.09,0,18,7.69,18,17.48a17.64,17.64,0,0,1-18,17.55c-10.1,0-18-7.7-17.94-17.49A17.6,17.6,0,0,1,184.82,49.83Zm9.86,17.74c.09-6-4.12-10.62-9.82-10.77S175.09,61,175,67s4.09,10.85,9.79,10.91S194.59,73.7,194.68,67.57Z" style="fill: #f36"/>
    <path d="M215,54.51c3-3.11,6.32-4.78,10.52-4.69,6.58.13,11.4,4.67,11.53,11.26.14,7.22,0,14.45.07,21.67,0,1.16-.48,1.46-1.52,1.43-1.58,0-3.16-.07-4.74,0-1.34.07-1.76-.47-1.75-1.78,0-5.58,0-11.17,0-16.76a15.26,15.26,0,0,0-.14-2.87c-.74-4-3.45-6-7.52-5.65a6.89,6.89,0,0,0-6.4,6.89C215,69.94,215,75.87,215,81.79c0,2.37,0,2.38-2.3,2.38-1.47,0-2.94,0-4.4,0-.93,0-1.3-.35-1.3-1.31q0-15.57,0-31.15c0-1,.44-1.25,1.34-1.23,1.69,0,3.38.06,5.07,0,1.17,0,1.68.37,1.6,1.55C215,52.85,215,53.68,215,54.51Z" style="fill: #f36"/>
    <path d="M148.84,53.46a6.28,6.28,0,0,1-7.67,3.91,32.42,32.42,0,0,0-5.62-.9,4.27,4.27,0,0,0-2.37.71,2.5,2.5,0,0,0-.15,4.35,29,29,0,0,0,4.75,2.12c2.25.9,4.6,1.57,6.75,2.64,3.34,1.65,5.3,4.34,5.11,8.24s-1.84,7-5.46,8.68c-5.14,2.4-10.34,1.83-15.43-.16A57.14,57.14,0,0,1,123,80a6,6,0,0,1,7.59-3.37A55.34,55.34,0,0,0,138,78.24a3.12,3.12,0,0,0,2.25-.48c.85-.7,1.87-1.68,2-2.64a3.37,3.37,0,0,0-1.59-2.63A65.7,65.7,0,0,0,134,70a42.54,42.54,0,0,1-4.55-1.79c-7.21-3.62-5.78-12.58-1-15.86,4.15-2.85,8.69-2.93,13.3-1.67A66.91,66.91,0,0,1,148.84,53.46Z" style="fill: #f36"/>
    <path d="M111.15,67.19c0-5,0-10,0-15.07,0-1.25.34-1.73,1.62-1.65a38.71,38.71,0,0,0,4.57,0c1.4-.1,1.86.4,1.85,1.81-.06,8.24,0,16.48,0,24.72,0,1.92,0,3.84,0,5.76,0,1-.39,1.44-1.4,1.42-1.69,0-3.38-.06-5.08,0-1.18,0-1.55-.43-1.54-1.59C111.18,77.46,111.15,72.32,111.15,67.19Z" style="fill: #f36"/>
    <path d="M162.25,67.36c0,5,0,10,0,15.06,0,1.31-.38,1.84-1.72,1.77-1.58-.08-3.16-.06-4.74,0-1.18,0-1.58-.45-1.57-1.6q0-15.22,0-30.46c0-1.25.43-1.72,1.68-1.65a44.09,44.09,0,0,0,4.74,0c1.29-.08,1.63.42,1.61,1.66C162.22,57.2,162.25,62.28,162.25,67.36Z" style="fill: #f36"/>
  </g>
</svg>
