<svg id="Layer_1" data-name="Layer 1" xmlns="http://www.w3.org/2000/svg" width="79.76" height="120" viewBox="0 0 79.76 120">
  <title>tools</title>
  <g>
    <path d="M52.73,9.6c0,.1-.07.12-.07.14-.14,1.6-.14,1.6,1.41,1.6h8c.7,0,.71,0,.71.7v7.88c0,.64,0,.65-.68.65H49.34c-.64,0-.65,0-.65-.67,0-.89,0-1.79,0-2.68,0-.44.09-.62.57-.6.92,0,1.84,0,2.77,0h6.15c.6,0,.61,0,.61-.62,0-1.36.18-1.15-1.13-1.16H49.42c-.75,0-.73.06-.73-.67V6.31c0-.65,0-.66.66-.66q6.38,0,12.73,0c.66,0,.67,0,.67.66,0,.9,0,1.79,0,2.69,0,.59,0,.6-.63.6H52.73Z" style="fill: #666"/>
    <path d="M32.44,20.47c0-1.11,0-2.23,0-3.35,0-.4.16-.48.51-.48h8.92c.64,0,.66,0,.65-.58,0-1.47.2-1.19-1.16-1.19-2.71,0-5.42,0-8.14,0-.76,0-.77,0-.77-.72V6.34c0-.69,0-.69.72-.69q6.31,0,12.64,0c.68,0,.69,0,.69.72s0,1.68,0,2.51.11.72-.68.72H40c-1,0-2.07,0-3.11,0-.38,0-.49.12-.5.49,0,1.26-.06,1.26,1.18,1.26h8.14c.84,0,.78-.06.78.81,0,2.6,0,5.19,0,7.79,0,.38,0,.65-.52.65l-13.34,0S32.59,20.54,32.44,20.47Z" style="fill: #666"/>
    <path d="M16.18,13.15c0-2.28,0-4.56,0-6.83,0-.66,0-.67.66-.67q6.36,0,12.72,0c.66,0,.67,0,.67.65,0,.9,0,1.79,0,2.69,0,.6,0,.61-.61.61h-8c-.45,0-1-.2-1.33.11s-.09.87-.1,1.33c0,1.58,0,3.17,0,4.76,0,.94-.09.84.81.84h8.31a4.47,4.47,0,0,0,.52,0c.33,0,.46.1.46.44q0,1.52,0,3c0,.4-.16.5-.51.47H16.48a.27.27,0,0,1-.3-.32v-7.1Z" style="fill: #666"/>
    <path d="M0,31.3s.38,2.87.58,5.17.41,4,.61,6.25c.25,2.93.5,5.54.75,8.48.21,2.35.41,4.55.62,6.91.25,3,.51,5.84.77,8.8.2,2.39.41,4.73.61,7.12.26,2.93.52,5.84.77,8.77s.51,6,.77,9,.54,6.21.81,9.31c.21,2.33.44,4.65.6,7,0,.61.32.79.85.94q15.68,4.36,31.32,8.78a3.1,3.1,0,0,0,1.76,0l19.74-5.53,11.5-3.23c.74-.21.75-.21.82-.94.22-2.36.43-4.71.64-7.07l.93-11q.49-5.82,1-11.64l.72-8.37L77,60.88c.2-2.3.39-4.61.59-6.91.27-3.07.53-6.15.8-9.22.19-2.25.38-4.16.57-6.4.27-3.11.81-7,.81-7ZM15.71,44.23a1.27,1.27,0,0,0-.76.1h0A1.27,1.27,0,0,1,15.71,44.23ZM31.35,98.15,20,95c-.72-.2-.74-.2-.81-1q-.32-3.36-.6-6.72L18,80.08c-.05-.62-.05-.64.54-.64,3.06,0,6.13,0,9.19,0,.43,0,.59.13.61.58.14,2.25.33,4.49.47,6.74a.7.7,0,0,0,.59.78l10.17,2.8a1.94,1.94,0,0,0,.34,0q0-7.38,0-14.76,0,7.38,0,14.76a14.48,14.48,0,0,0,2.76-.69c2.56-.69,5.12-1.4,7.67-2.1.43-.11.67-.26.7-.79.24-3.8.52-7.6.79-11.4,0-.76,0-.76-.72-.77H43l-3,.05c-.34,0-.69-.05-1-.05H18.71c-.2,0-.4,0-.61,0-.59,0-.6,0-.66-.63s-.13-1.38-.18-2.07c-.2-2.33-.39-4.66-.59-7-.08-1-.11-.79.73-1.21l17.72-8.86.52-.27c-.27-.23-.56-.13-.82-.13H16.9c-.21,0-.41,0-.61,0-.4,0-.57-.13-.61-.53-.25-3.13-.51-6.27-.77-9.4a1.36,1.36,0,0,1,0-.17l1.12,0H63.62c1.45,0,1.31-.23,1.2,1.3-.2,2.64-.47,5.28-.67,7.93a1.35,1.35,0,0,1-.86,1.24c-6.12,3-12.23,9-18.34,12-.27.13-.58,3.44-.86,3.44H62c1.26,0,1.23-2.89,1.11-1.6-.22,2.29-.42,3.15-.62,5.45s-.38,3.88-.58,6.18c-.28,3.22-.56,6.07-.84,9.29-.14,1.58-.27,3-.43,4.56-.08.82-.1.73-.86.94-4.44,1.23-8.89,2.41-13.33,3.64-2.17.6-4.32,1.2-6.48,1.82,0,1.63,0,3.25,0,4.88,0-1.63,0-3.27,0-4.9Z" style="fill: #026fba"/>
  </g>
</svg>
