<svg id="Layer_1" data-name="Layer 1" xmlns="http://www.w3.org/2000/svg" xmlns:xlink="http://www.w3.org/1999/xlink" viewBox="0 0 252.12 120"><defs><style>.cls-1{fill:#ffc517;}.cls-2{fill:#f57e02;}.cls-3{fill:url(#linear-gradient);}.cls-4{fill:#666;}</style><linearGradient id="linear-gradient" x1="-4557.01" y1="-5908.23" x2="-4457.47" y2="-5908.23" gradientTransform="matrix(0.24, 0, 0, -0.24, 1133.97, -1343.5)" gradientUnits="userSpaceOnUse"><stop offset="0" stop-color="#e96f0b"/><stop offset="1" stop-color="#f37901"/></linearGradient></defs><path class="cls-1" d="M32,90.53H6.26A5.72,5.72,0,0,1,.53,84.8V72.44a5.72,5.72,0,0,1,5.73-5.72H22.53V48.63a5.73,5.73,0,0,1,5.73-5.73H46.35V90.38H32Z"/><path class="cls-2" d="M64.43,90.53H46.35V26.62a5.72,5.72,0,0,1,5.73-5.72H64.43a5.72,5.72,0,0,1,5.73,5.72V84.8A5.92,5.92,0,0,1,64.43,90.53Z"/><path class="cls-3" d="M70,66.72V84.8a5.72,5.72,0,0,1-5.73,5.73H46.2V42.9Z"/><path class="cls-4" d="M94.15,70.17l5.54,14.55H89Zm-2.08-4.85L80,97.19h4.5l3.12-8.66h13.51l3.12,8.66h4.5L96.58,65.32Z"/><path class="cls-4" d="M157.55,97.19h4.16V65.32h-4.16Z"/><path class="cls-4" d="M114.94,78.48a8.84,8.84,0,0,1,6.92-3.81c5.55,0,8.32,3.81,8.32,9.36V97.54H126V84.72c0-4.5-2.42-6.24-5.54-6.24-3.47,0-5.89,3.47-5.89,6.59V97.19h-4.16V75h4.16Z"/><path class="cls-4" d="M133.64,90.61c0-4.85,4.51-7.62,9.7-7.62,3.12,0,5.2.69,5.89,1.38v-.69c0-3.46-2.77-5.2-5.54-5.2-2.42,0-4.5,1-5.2,3.12l-3.81-1.73c.7-2.08,3.47-5.2,9-5.2,5.2,0,9.7,3.12,9.7,9.36V97.19h-3.81V94.07h-.35A8.32,8.32,0,0,1,142,97.88c-4.51,0-8.32-2.77-8.32-7.27m15.59-2.77A8.67,8.67,0,0,0,144,86.45c-4.16,0-5.89,2.43-5.89,4.16,0,2.42,2.42,3.46,4.5,3.46,3.12,0,6.58-2.77,6.58-6.23"/><path class="cls-4" d="M167.59,106.89l4.85-11.43-8.66-20.09h4.16l6.58,15.24,6.59-15.24h4.15l-13.51,31.52Z"/><path class="cls-4" d="M228.57,82.64a6.58,6.58,0,0,0-5.89-4.5c-3.47,0-6.58,3.12-6.58,7.62s3.11,7.62,6.58,7.62a6.75,6.75,0,0,0,5.89-4.16L232,91.3a10.18,10.18,0,0,1-9.35,6.24c-5.89,0-10.74-5.2-10.74-11.78,0-6.93,4.85-11.78,10.74-11.78A10.18,10.18,0,0,1,232,80.22Z"/><path class="cls-4" d="M243.46,97.88c5.55,0,8.32-3.11,8.32-6.92,0-8.32-12.13-5.2-12.13-10,0-1.73,1.39-2.77,3.81-2.77s4.85,1,5.89,2.77l2.43-2.43a12.89,12.89,0,0,0-8.66-4.15c-5.2,0-8,3.12-8,6.93,0,8,12.47,5.19,12.47,9.35,0,2.08-1.38,3.46-4.16,3.46s-4.15-1.73-5.54-3.46L234.8,93C236.88,95.11,240,97.88,243.46,97.88Z"/><path class="cls-4" d="M204,97.19h4.16V75H204Z"/><path class="cls-4" d="M205.7,64.28a2.77,2.77,0,1,1,0,5.54,2.77,2.77,0,1,1,0-5.54Z"/><path class="cls-4" d="M199.81,93.73l.7,3.12h-4.16c-3.81,0-5.54-2.78-5.54-6.93V79.18h-4.16V75h4.16V68.44H195V75h4.85v4.16H195V90.61C195,93.73,197.39,93.73,199.81,93.73Z"/><path class="cls-4" d="M101,30.08v5.2h12.12a10.43,10.43,0,0,1-2.77,6.24A12.44,12.44,0,0,1,101,45.33,13.24,13.24,0,0,1,87.84,31.82a13.25,13.25,0,0,1,22.18-10l3.46-3.47c-3.12-2.77-6.93-5.19-12.47-5.19C91,13.11,82.3,21.42,82.3,31.47S91,49.83,101,49.83c5.54,0,9.7-1.73,12.82-5.2a16.36,16.36,0,0,0,4.5-11.78,8.49,8.49,0,0,0-.35-3.11H101Z"/><path class="cls-4" d="M131.84,25.93A11.47,11.47,0,0,0,120.06,37.7a11.47,11.47,0,0,0,11.78,11.78A11.68,11.68,0,0,0,143.62,37.7,11.47,11.47,0,0,0,131.84,25.93Zm0,19c-3.46,0-6.58-3.12-6.58-7.28s3.12-7.27,6.58-7.27,6.58,2.77,6.58,7.27S135.31,45,131.84,45Z"/><path class="cls-4" d="M188.66,28.35a9,9,0,0,0-6.59-2.77c-5.89,0-11.08,5.2-11.08,11.78s5.19,11.78,11.08,11.78a8.17,8.17,0,0,0,6.24-2.77h.35V48.1c0,4.5-2.43,6.93-6.24,6.93a6.63,6.63,0,0,1-5.89-4.16L172,52.6a11.43,11.43,0,0,0,10.39,6.93c6.24,0,11.43-3.46,11.43-12.47V25.58H189v2.77ZM182.77,45c-3.47,0-6.24-3.12-6.24-7.28s2.77-7.27,6.24-7.27S189,33.55,189,37.7,186.23,45,182.77,45Z"/><path class="cls-4" d="M157.48,25.93A11.47,11.47,0,0,0,145.7,37.7a11.47,11.47,0,0,0,11.78,11.78A11.68,11.68,0,0,0,169.26,37.7C169.6,30.78,164.06,25.93,157.48,25.93Zm0,19c-3.47,0-6.59-3.12-6.59-7.28s3.12-7.27,6.59-7.27,6.58,2.77,6.58,7.27S160.94,45,157.48,45Z"/><path class="cls-4" d="M197.66,13.45h5.2v36h-5.2Z"/><path class="cls-4" d="M217.06,45c-2.77,0-4.5-1.39-5.89-3.46l15.94-6.59-.69-1.38c-1-2.77-4.16-7.62-10-7.62-6.23,0-11.08,4.85-11.08,11.77a11.67,11.67,0,0,0,11.77,11.78,12.61,12.61,0,0,0,10.05-5.19L223,41.52c-1.38,2.07-3.11,3.46-5.89,3.46Zm-.34-14.55a4.63,4.63,0,0,1,4.5,2.77l-10.74,4.5C210.48,32.51,214,30.43,216.72,30.43Z"/></svg>