<?xml version="1.0" encoding="utf-8"?>
<!-- Generator: Adobe Illustrator 19.2.1, SVG Export Plug-In . SVG Version: 6.00 Build 0)  -->
<svg version="1.1" id="Layer_1" xmlns="http://www.w3.org/2000/svg" xmlns:xlink="http://www.w3.org/1999/xlink" x="0px" y="0px"
	 width="141.9px" height="116.8px" viewBox="0 0 141.9 116.8" enable-background="new 0 0 141.9 116.8" xml:space="preserve">
<g>
	<path fill="#573B7E" d="M70.4,74.3c-8.4,0-16.8,0-25.2,0c-7.3,0-11.8-4.5-11.9-11.8c0-17,0-34,0-50.9C33.4,4.7,38,0,44.8,0
		C61.9,0,79,0,96.1,0c7,0,11.5,4.6,11.5,11.6c0,16.9,0,33.8,0,50.7c0,7.6-4.4,11.9-12.1,11.9C87.2,74.3,78.8,74.3,70.4,74.3z
		 M55.1,17.6c0,13.3,0,26.3,0,39.3c0.3,0.1,0.6,0.2,0.8,0.2c6.4,0,12.8,0,19.2-0.1c1.5,0,3-0.3,4.5-0.7c4.8-1.2,7.8-4.5,8.1-9
		c0.4-5.6-1.9-10-6.4-11.1c-0.2,0-0.3-0.2-0.5-0.3c0.2-0.2,0.3-0.4,0.5-0.5c4.6-2.6,5.2-6.5,4.5-10.4c-0.7-4.4-3.9-6.5-8-7
		c-2.8-0.4-5.6-0.3-8.4-0.3C64.6,17.6,60,17.6,55.1,17.6z"/>
	<path fill="#573B7E" d="M0,110.7c0-3.8,0-7.4,0-11c0-3.4,0-6.8,0-10.2c0-1.3,0.3-1.9,1.7-1.8c3.6,0.1,7.3,0.1,10.9,0.2
		c2.5,0.1,4.5,1.2,5.2,3.8c0.7,2.5,0.3,4.8-2.3,6.6c2.4,1.3,3.6,3.2,3.6,5.9c0,3.6-2.3,6.2-6.5,6.5C8.6,110.9,4.4,110.7,0,110.7z
		 M4.5,107c2.6,0,5,0.1,7.4,0c1.8-0.1,2.7-1.3,2.7-3c0.1-1.8-0.7-3-2.5-3.2c-2.5-0.2-5-0.1-7.6-0.1C4.5,102.7,4.5,104.7,4.5,107z
		 M4.5,97.1c2.3,0,4.4,0.1,6.5,0c1.5-0.1,2.4-1,2.5-2.6c0.1-1.4-0.3-2.7-1.9-2.8c-2.4-0.2-4.8,0-7.2,0C4.5,93.5,4.5,95.2,4.5,97.1z"
		/>
	<path fill="#573B7E" d="M129.4,109.4c0,2.6,0,4.9,0,7.4c-1.1,0-2,0.1-3-0.1c-0.4-0.1-1.1-0.8-1.1-1.2c-0.1-6.7-0.1-13.5,0-20.2
		c0-0.4,0.5-1.3,0.8-1.3c1.2,0,2.7-0.8,3.4,1.1c2.7-2,5.6-2.2,8.4-0.7c2.9,1.5,3.9,4.2,4,7.3c0,1.3,0,2.6-0.3,3.8
		c-1.4,5.3-6.4,7.3-11.1,4.5C130.1,109.9,129.9,109.7,129.4,109.4z M129.2,102.4c0.2,1,0.3,2.1,0.8,3.1c0.7,1.5,1.9,2.3,3.6,2.3
		c1.6,0,2.8-0.7,3.5-2.2c1-2.2,1-4.5-0.1-6.7c-0.8-1.5-2-2.2-3.7-2.1c-1.8,0.1-3,1.1-3.5,2.7C129.5,100.5,129.4,101.4,129.2,102.4z"
		/>
	<path fill="#573B7E" d="M118.4,110.2c-2.6,0.4-4.7,0.9-6.8,0.9c-2.8,0-4.7-2-4.8-4.5c-0.2-2.9,1.2-4.7,4.1-5.3
		c1.7-0.4,3.5-0.5,5.2-0.9c0.7-0.2,1.2-1,1.8-1.5c-0.6-0.6-1-1.6-1.7-1.8c-1.9-0.7-3.3,0.2-4.7,1.6c-0.8,0.8-2.5,0.7-4.1,1
		c0-2.6,0.9-4.1,2.7-5.1c2.8-1.5,5.9-1.5,8.8-0.3c1.9,0.8,2.9,2.2,2.9,4.4c-0.1,2.5-0.1,5,0,7.5c0,0.6,0.7,1.1,1,1.7
		c0.3,0.6,0.6,1.2,0.6,1.8c0,0.4-0.5,1.2-0.9,1.3C120.9,111.4,119.2,111.5,118.4,110.2z M117.4,103c-1.6,0.3-3.3,0.3-4.7,0.9
		c-0.8,0.3-1.6,1.3-1.7,2.1c-0.1,0.5,1.1,1.5,1.9,1.7C116.1,108.4,117.9,106.7,117.4,103z"/>
	<path fill="#573B7E" d="M37.9,102.5c-0.1,5.5-3.4,8.8-8.8,8.7c-5.1-0.1-8.3-3.7-8.2-9.1c0.1-5.2,3.6-8.7,8.6-8.6
		C34.6,93.5,38,97.1,37.9,102.5z M34.1,102.8c-0.5-1.6-0.6-2.8-1.1-3.8c-1.3-2.6-4.9-2.9-6.7-0.6c-1.6,2.1-1.6,6,0.1,8
		c1.4,1.7,4.1,2,5.5,0.5C32.9,105.7,33.4,104.1,34.1,102.8z"/>
	<path fill="#573B7E" d="M39.7,102.4c0-5.5,3.2-8.9,8.4-8.9c5.1,0,8.6,3.6,8.6,8.9c0,5.4-3.3,8.9-8.5,8.9
		C42.9,111.2,39.8,107.9,39.7,102.4z M43.8,102c0.1,0.9,0.1,1.6,0.2,2.1c0.5,2.3,2,3.7,4.1,3.7c2.1,0,3.8-1.3,4.1-3.6
		c0.2-1.6,0.1-3.3-0.4-4.8c-0.5-1.6-1.9-2.5-3.6-2.5c-1.8,0-3.1,0.8-3.7,2.4C44.1,100.2,44,101.3,43.8,102z"/>
	<path fill="#573B7E" d="M83.1,99c-1.8-0.1-3.7,0.8-4.9-1.4c-0.5-1-3.3-1-4.3-0.3c-0.9,0.6-1,1.5,0,2c0.9,0.5,1.9,0.7,2.9,1
		c1.3,0.4,2.6,0.6,3.9,1.1c1.7,0.6,2.9,1.8,3.1,3.7c0.2,1.9-0.5,3.4-2,4.6c-2.6,2-8.1,2.1-10.7,0.1c-1.5-1.1-2.3-2.6-2.2-4.8
		c1.7,0.3,3.6-1,4.6,1.6c0.6,1.5,4.7,1.6,5.8,0.4c0.9-1,0.4-1.9-0.6-2.3c-1-0.4-2.1-0.6-3.1-0.9c-1.3-0.4-2.8-0.6-4-1.3
		c-3-1.6-3.3-5.6-0.6-7.6c2.5-1.8,7.3-1.9,9.9-0.2C82.3,95.6,83,96.9,83.1,99z"/>
	<path fill="#573B7E" d="M87,97.4c-1.1-0.4-2.6,0.4-2.6-1.7c0-2.2,1.5-1.6,2.7-1.9c0-0.7,0-1.4,0-2.2c0-2.4,1.4-3.3,3.5-2.4
		c0.3,0.1,0.6,0.8,0.7,1.3c0.1,1.1,0,2.2,0,3.2c1.3,0.7,3.5-0.5,3.2,2.2c-0.2,2.3-2,0.9-3.1,1.8c0,2.8-0.1,6,0.1,9.1
		c0,0.5,1.7,0.9,2.8,1.5c0.6,2.4,0.2,2.9-2.7,2.8c-3.2-0.1-4.4-1.1-4.6-4.4c-0.1-2.4,0-4.9-0.1-7.3C87,98.7,87,98,87,97.4z"/>
	<path fill="#573B7E" d="M60.2,97.4c-1.2-0.5-2.7,0.4-2.8-1.7c-0.1-2.3,1.6-1.6,2.8-2c0-0.7,0-1.3,0-2c0-2.8,0.2-3,3-2.6
		c0.4,0.1,1,0.7,1.1,1.2c0.2,1.1,0.1,2.3,0.1,3.4c1.3,0.7,3.5-0.6,3.3,2.2c-0.2,2.4-2.1,0.8-3.3,1.8c0,2.8-0.2,5.8,0.1,8.8
		c0.1,0.6,1.7,1.2,3,2c0.5,2.1,0.1,2.6-2.6,2.6c-3.4,0-4.6-1.2-4.7-4.6C60.2,103.4,60.2,100.5,60.2,97.4z"/>
	<path fill="#573B7E" d="M100.6,110.4c-0.4,0.2-0.5,0.3-0.6,0.3c-3.5,0.4-3.5,0.4-3.5-3.1c0-3.8,0-7.7,0-11.5c0-0.8-0.5-1.9,1-2.1
		c2-0.3,2.7,0,3.1,1.5c1.2-0.6,2.3-1.4,3.5-1.7c2-0.6,2.5-0.1,2.5,1.9c0,0.6-0.1,1.2-0.1,1.7c-5.2,0.8-5.9,1.7-5.9,6.9
		C100.6,106.3,100.6,108.3,100.6,110.4z"/>
	<path fill="#573B7E" d="M69.2,39.1c1.9,0,3.9-0.1,5.8,0c3.5,0.2,5.7,2.4,5.8,5.5c0.2,3.9-1.6,6.5-5.3,6.8
		c-4.2,0.3-8.5,0.2-12.7,0.1c-0.3,0-1-0.7-1-1.1c-0.1-3.4,0-6.8-0.1-10.2c0-1,0.6-1.2,1.4-1.2C65.2,39,67.2,39,69.2,39.1
		C69.2,39,69.2,39.1,69.2,39.1z"/>
	<path fill="#573B7E" d="M68.6,23.2c1.9,0,3.9-0.1,5.8,0c3.2,0.3,4.6,1.9,4.7,5c0.1,3.2-1.5,5.6-4.5,5.8c-3.9,0.3-7.9,0.2-11.8,0.1
		c-0.3,0-0.9-0.8-0.9-1.2c-0.1-2.9-0.1-5.7,0-8.6c0-0.4,0.8-1.2,1.3-1.2C64.9,23,66.8,23.1,68.6,23.2C68.6,23.1,68.6,23.1,68.6,23.2
		z"/>
</g>
</svg>
