<?xml version="1.0" encoding="utf-8"?>
<!-- Generator: Adobe Illustrator 19.2.1, SVG Export Plug-In . SVG Version: 6.00 Build 0)  -->
<svg version="1.1" id="Layer_1" xmlns="http://www.w3.org/2000/svg" xmlns:xlink="http://www.w3.org/1999/xlink" x="0px" y="0px"
	 width="88.7px" height="112.8px" viewBox="0 0 88.7 112.8" enable-background="new 0 0 88.7 112.8" xml:space="preserve">
<g>
	<path fill="#A62E3A" stroke="#69000F" stroke-width="1.5743" stroke-miterlimit="10" d="M76.4,112H0.8V12.3C0.8,6,6,0.8,12.3,0.8
		h75.6v99.7C87.9,106.9,82.7,112,76.4,112z"/>
	<g>
		<path fill="#FEFEFE" d="M19,63.4c0.4-1.6,0.7-3.2,1.1-4.7c1.5-5.7,3.7-11.2,6.3-16.4c1.8-3.6,3.5-7.1,5.8-10.5
			c3-4.4,6.5-8.1,11-10.9c3.8-2.3,7.8-3.7,12.2-4.2c5.3-0.6,10.2,0.6,14.9,3c2.9,1.5,5.5,3.3,7.9,5.5c0.3,0.3,0.3,0.4,0.1,0.8
			c-0.4,0.5-0.7,1-1,1.6c-0.1,0.2-0.2,0.3-0.5,0.1c-1.9-1.7-4.1-2.8-6.7-3.2c-2.3-0.3-4.5-0.1-6.6,0.6c-6.7,2.2-11.7,6.5-15,12.7
			c-2,3.8-3,7.9-3.2,12.2c-0.4,7.8,1,15.3,3.2,22.8c0.7,2.3,1.5,4.5,2.4,6.7c0,0.1,0.1,0.2,0.1,0.3c-0.2,0.1-0.4,0.1-0.6,0.1
			c-9.3,0-18.5,0-27.8,0c-0.2,0-0.3,0-0.5,0c-1.3,0-2.7,0-4,0c-0.3,0-0.4-0.1-0.5-0.4c-0.2-2.1-0.1-4.2,0-6.2
			c0.2-3.2,0.7-6.3,1.3-9.4C19,63.6,19,63.5,19,63.4z"/>
		<path fill="#FEFEFE" d="M21.7,84c0.4,0.1,0.8,0.2,1.2,0.3c2,0.5,3,1.7,3.2,3.7c0.2,1.2-0.1,2.4-0.6,3.5c-0.6,1.2-1.5,1.9-2.9,2.2
			c1.5,1.5,3,3,4.5,4.5c0,0,0,0.1,0,0.1c-1.7,0-3.3,0-5,0c-0.6,0.1-0.9-0.3-1.3-0.7c-0.9-0.9-1.8-1.8-2.7-2.7
			c-0.2,0.2-0.1,0.3-0.1,0.5c0,1,0,2,0,3c0,0.2,0,0.4-0.3,0.4c-1.1,0-2.1,0-3.2,0c-0.2,0-0.3-0.1-0.3-0.3c0-0.1,0-0.2,0-0.3
			c0-4.6,0-9.1,0-13.7c0-0.5,0.1-0.6,0.6-0.6C17.1,84,19.4,83.8,21.7,84z M19.7,90.6c0.5,0,1,0,1.4,0c0.2,0,0.3-0.1,0.3-0.3
			c0-0.7,0-1.3,0-2c0-0.3-0.1-0.3-0.3-0.3c-0.6,0-1.3,0-1.9,0c-1,0-1,0-1,1c0,0.5-0.2,1.2,0.1,1.5C18.6,90.8,19.3,90.5,19.7,90.6z"
			/>
		<path fill="#FEFEFE" d="M11.4,62.9c2,0.2,3.9,0.3,5.9,0.5c0.3,0,0.3,0.2,0.2,0.4c-0.3,2-0.7,3.9-1,5.9c0,0.2-0.1,0.3-0.4,0.3
			c-1.9-0.2-3.7-0.5-5.6-0.7c-0.2,0-0.3-0.1-0.3-0.3c0.2-1.9,0.5-3.8,0.7-5.7C11,63,11.1,62.9,11.4,62.9z"/>
		<path fill="#FEFEFE" d="M41.1,92.5c0,1.8,0,3.5,0,5.3c0,0.4-0.1,0.5-0.5,0.5c-1,0-2,0-3,0c-0.4,0-0.5-0.1-0.4-0.4
			c0-0.6,0-1.1,0-1.7c0-0.3-0.1-0.3-0.3-0.3c-1,0-2,0-3.1,0c-0.3,0-0.4,0.1-0.4,0.4c0,0.6,0,1.2,0,1.8c0,0.4-0.1,0.4-0.4,0.4
			c-1,0-2,0-3,0c-0.4,0-0.5-0.1-0.5-0.5c0-1.4,0-2.9,0-4.3c0-1.8,0-3.6,0-5.5c0-0.5,0-0.9,0.1-1.4c0.4-1.6,1.4-2.5,3.2-2.7
			c1.8-0.2,3.6-0.2,5.4,0.2c1.4,0.3,2.6,1,2.8,2.6c0.1,0.5,0,1,0,1.4C41.1,89.7,41.1,91.1,41.1,92.5z M37.1,89.8
			C37.1,89.8,37.1,89.8,37.1,89.8c0-0.6,0-1.1,0-1.7c0-0.2,0-0.3-0.3-0.3c-1,0-2,0-3,0c-0.2,0-0.3,0.1-0.3,0.3c0,1.1,0,2.3,0,3.4
			c0,0.2,0.1,0.3,0.3,0.3c1,0,2,0,3.1,0c0.2,0,0.3-0.1,0.3-0.3C37.1,90.9,37.1,90.3,37.1,89.8z"/>
		<path fill="#FEFEFE" d="M69,98.4c-1.3,0-2.4,0-3.5,0c-0.3,0-0.4-0.1-0.4-0.4c0-0.9,0-1.8,0-2.7c0-0.3,0.1-0.4,0.4-0.4
			c1.8,0,3.5,0,5.3,0c0.4,0,0.9,0,1.3-0.1c0.4-0.1,0.7-0.4,0.7-0.9c0-0.4-0.4-0.5-0.7-0.6c-0.7-0.2-1.5-0.2-2.2-0.2
			c-1,0-2-0.3-2.9-0.8c-1.2-0.7-2-1.7-2.1-3.1c-0.1-1.3,0-2.6,0.7-3.8c0.6-0.9,1.5-1.3,2.6-1.5c2.4-0.3,4.8-0.1,7.2-0.1
			c0.2,0,0.3,0.1,0.3,0.3c0,1.1,0,2.2,0,3.3c0,0.4-0.2,0.3-0.4,0.3c-1.8,0-3.6,0-5.5,0c-0.4,0-0.6,0.1-0.5,0.5c0,0.9,0,0.9,0.9,0.9
			c0.9,0,1.9,0,2.8,0c1.9,0.1,3,1,3.4,2.8c0.3,1.2,0.2,2.5-0.1,3.7c-0.4,1.6-1.4,2.4-3.3,2.6C71.5,98.5,70.1,98.4,69,98.4z"/>
		<path fill="#FEFEFE" d="M53.2,91.2c0-2.2,0-4.4,0-6.7c0-0.4,0.1-0.4,0.5-0.4c1,0,2,0,3.1,0c0.4,0,0.5,0.1,0.4,0.5
			c0,3.2,0,6.3,0,9.5c0,0.4,0.1,0.5,0.5,0.5c1.6,0,3.1,0,4.7,0c0.4,0,0.5,0.1,0.5,0.5c0,1,0,1.9,0,2.9c0,0.3-0.1,0.4-0.4,0.4
			c-3,0-5.9,0-8.9,0c-0.3,0-0.4-0.1-0.4-0.4C53.2,95.7,53.2,93.5,53.2,91.2C53.2,91.2,53.2,91.2,53.2,91.2z"/>
		<path fill="#FEFEFE" d="M49,91c0,2.2,0,4.4,0,6.6c0,0.4-0.1,0.5-0.5,0.5c-1,0-2.1,0-3.2,0c-0.3,0-0.4-0.1-0.4-0.4
			c0-4.4,0-8.9,0-13.3c0-0.4,0.1-0.4,0.5-0.4c1,0,2.1,0,3.1,0c0.4,0,0.5,0.1,0.5,0.5C49,86.6,49,88.8,49,91C49,91,49,91,49,91z"/>
		<path fill="#FEFEFE" d="M23,44.4c0,0.1-0.1,0.2-0.1,0.3c-0.5,1.4-1,2.7-1.5,4.1C21.4,49,21.3,49.1,21,49c-1.7-0.6-3.4-1.1-5.1-1.6
			c-0.3-0.1-0.4-0.2-0.3-0.5c0.6-1.5,1.1-3,1.6-4.5c0.1-0.3,0.2-0.4,0.5-0.3c1.7,0.7,3.3,1.3,5,2C22.8,44.1,23.1,44.1,23,44.4z"/>
		<path fill="#FEFEFE" d="M56.4,74c-2.2-0.1-4.3-0.2-6.4-0.4c-0.2,0-0.3-0.1-0.3-0.3c-0.4-1.3-0.7-2.6-1.1-3.9
			c-0.1-0.3,0-0.3,0.3-0.3c1.6,0,3.3,0,4.9,0c0.2,0,0.3,0,0.4,0.2C54.9,70.8,55.7,72.3,56.4,74z"/>
		<path fill="#FEFEFE" d="M25,29.3c1.1-1.2,2.2-2.5,3.3-3.7c0.1-0.1,0.2-0.1,0.4,0c1.3,0.9,2.6,1.7,4,2.6c0.2,0.1,0.2,0.2,0,0.4
			c-1,1.2-2,2.4-3,3.6c-0.1,0.2-0.2,0.2-0.4,0.1C27.9,31.3,26.4,30.3,25,29.3z"/>
		<path fill="#FEFEFE" d="M38.3,16.8c1.3-0.7,2.5-1.3,3.8-2c0.2-0.1,0.4-0.1,0.5,0.1c0.9,1,1.8,2,2.7,3c0.2,0.2,0.1,0.2-0.1,0.4
			c-1.2,0.7-2.5,1.4-3.7,2.1c-0.3,0.2-0.3,0-0.5-0.1c-0.7-0.9-1.5-1.8-2.2-2.6C38.8,17.3,38.6,17.1,38.3,16.8z"/>
		<path fill="#FEFEFE" d="M47,53.5c1.6,0.8,3.1,1.6,4.6,2.4c0.1,0.1,0.2,0.2,0.2,0.3c0.1,1.2,0.1,2.3,0.2,3.5c0,0.4-0.1,0.4-0.4,0.2
			c-1.5-0.7-3.1-1.3-4.6-2c-0.2-0.1-0.3-0.1-0.3-0.4C46.9,56.3,47,55,47,53.5z"/>
		<path fill="#FEFEFE" d="M51.4,49c-1.4-1.2-2.7-2.3-4.1-3.5c-0.1-0.1-0.2-0.2-0.1-0.3c0.5-1,1-2,1.6-3.1c1.2,0.9,2.3,1.8,3.4,2.6
			c0.1,0.1,0.2,0.2,0.1,0.3C52.1,46.4,51.8,47.6,51.4,49z"/>
		<path fill="#FEFEFE" d="M56.3,16.3c-0.7,0-1.4,0-2.1,0c-0.3,0-0.4-0.1-0.4-0.3c-0.2-1-0.4-2-0.6-2.9c0-0.2,0-0.4,0.3-0.4
			c1.6,0.1,3.2,0.2,4.8,0.2c0.2,0,0.3,0.1,0.3,0.3c0.1,0.9,0.3,1.8,0.4,2.7c0,0.3-0.1,0.3-0.3,0.4C57.8,16.3,57.1,16.3,56.3,16.3z"
			/>
		<path fill="#FEFEFE" d="M54.8,38.1c-0.6-0.6-1.1-1.2-1.6-1.8c-0.6-0.7-1.2-1.3-1.8-2c-0.2-0.2-0.2-0.3,0-0.5
			c0.7-0.6,1.4-1.3,2.1-1.9c0.2-0.2,0.3-0.2,0.4,0c0.7,1.1,1.4,2.2,2.2,3.2c0.1,0.1,0.2,0.3,0.1,0.4C55.7,36.5,55.3,37.3,54.8,38.1z
			"/>
		<path fill="#FEFEFE" d="M63,28.9c0,0.2-0.1,0.2-0.2,0.3c-0.6,0.5-1.3,1-1.9,1.5c-0.2,0.2-0.3,0.1-0.4-0.1
			c-0.4-0.8-0.8-1.6-1.3-2.3c-0.2-0.3-0.2-0.4,0.2-0.5c0.9-0.2,1.7-0.4,2.6-0.7c0.4-0.1,0.6-0.1,0.7,0.4
			C62.7,27.9,62.8,28.4,63,28.9z"/>
		<path fill="#FEFEFE" d="M70.5,16.6c1.4,1,2.6,1.9,3.9,2.9c0.1,0.1,0.2,0.2,0.1,0.3c-0.2,0.2-0.3,0.5-0.5,0.7
			c-0.1,0.2-0.2,0.2-0.4,0.1c-1-0.6-2-1.1-3.1-1.6c-0.2-0.1-0.2-0.2-0.2-0.4C70.4,17.9,70.4,17.3,70.5,16.6z"/>
		<path fill="#FEFEFE" d="M73.1,27.7c0,0.7,0,0.7-0.7,0.7c-0.8-0.1-1.6-0.2-2.4-0.3c-0.3,0-0.4-0.1-0.4-0.4c0-0.4,0-0.8,0-1.2
			c0-0.3,0.1-0.4,0.4-0.3c0.9,0.2,1.8,0.4,2.8,0.6C73.1,27,73.1,27,73.1,27.7z"/>
	</g>
</g>
</svg>
