<svg id="Layer_1" data-name="Layer 1" xmlns="http://www.w3.org/2000/svg" width="155.78" height="120.95" viewBox="0 0 155.78 120.95">
  <title>tools</title>
  <g>
    <path d="M103.87,78.52h-52A14.23,14.23,0,0,1,37.67,64.27V14.33A14.23,14.23,0,0,1,51.91.08h52a14.24,14.24,0,0,1,14.24,14.25V64.27A14.24,14.24,0,0,1,103.87,78.52Z" style="fill: #ff26be"/>
    <path d="M102.59,75.17H53.19A12.19,12.19,0,0,1,41,63V15.6A12.19,12.19,0,0,1,53.19,3.43h49.37A12.17,12.17,0,0,1,114.73,15.6V63A12.15,12.15,0,0,1,102.59,75.17Z" style="fill: #2e001f"/>
    <path d="M69.48,36.79l9.38,18c.17.27.07.54-.2.54H72.83a.66.66,0,0,1-.71-.44C70,50.5,67.8,46.07,65.55,41.31h-.06c-2,4.49-4.23,9.22-6.37,13.64a.65.65,0,0,1-.61.37H53c-.33,0-.36-.27-.2-.47L62,37.36l-8.89-17.7a.27.27,0,0,1,.21-.47h5.76c.34,0,.47.07.6.37,2.12,4.42,4.26,9,6.27,13.44H66c1.94-4.43,4.09-9,6.17-13.41.16-.27.27-.43.6-.43h5.4c.27,0,.37.2.2.46Zm11,5.46c0-7.81,5.2-13.91,13.45-13.91a14.22,14.22,0,0,1,1.74.07V19.52a.33.33,0,0,1,.33-.33h5.3c.27,0,.33.1.33.27V50.23a23.51,23.51,0,0,0,.17,3.28c0,.2-.06.27-.27.37A20,20,0,0,1,93,55.83C85.7,55.86,80.5,51.37,80.5,42.25Zm15.19-8.58a5.1,5.1,0,0,0-2-.34c-4.22,0-7.17,3.26-7.17,8.65,0,6.17,3,8.65,6.81,8.65a6.3,6.3,0,0,0,2.31-.37Z" style="fill: #ffd9f2"/>
  </g>
  <text transform="translate(7.5 112.9)" style="font-size: 31.20475959777832px;fill: #666;font-family: MyriadPro-Bold, Myriad Pro;font-weight: 700"><tspan style="letter-spacing: -0.013989001778147943em">A</tspan><tspan x="20.03" y="0">do</tspan><tspan x="56.64" y="0" style="letter-spacing: 0.002988701722177021em">b</tspan><tspan x="75.39" y="0">e XD</tspan></text>
</svg>
