<svg id="Layer_1" data-name="Layer 1" xmlns="http://www.w3.org/2000/svg" width="88.68" height="120" viewBox="0 0 88.68 120">
  <title>tools</title>
  <g>
    <path d="M12.33,4.38H87.9a0,0,0,0,1,0,0v99.7a11.54,11.54,0,0,1-11.54,11.54H.79a0,0,0,0,1,0,0V15.92A11.54,11.54,0,0,1,12.33,4.38Z" style="fill: #a62e3a;stroke: #69000f;stroke-miterlimit: 10;stroke-width: 1.57426971948302px"/>
    <g>
      <path d="M19,67c.37-1.58.73-3.16,1.13-4.73a82.16,82.16,0,0,1,6.3-16.41,91.79,91.79,0,0,1,5.79-10.46,36.52,36.52,0,0,1,11-10.88A29.61,29.61,0,0,1,55.5,20.34a25.49,25.49,0,0,1,14.91,3,36,36,0,0,1,7.87,5.46c.29.26.34.44.1.76a17.62,17.62,0,0,0-1,1.56c-.15.23-.23.27-.46.06A12.56,12.56,0,0,0,70.2,28a14.64,14.64,0,0,0-6.64.56,25.4,25.4,0,0,0-15,12.68A28.87,28.87,0,0,0,45.33,53.5c-.45,7.79,1,15.33,3.2,22.75.69,2.26,1.47,4.49,2.37,6.68,0,.1.07.21.11.31a1.06,1.06,0,0,1-.55.06H22.16c-1.34,0-2.69,0-4,0-.34,0-.44-.1-.47-.43a37.15,37.15,0,0,1,0-6.24A71.57,71.57,0,0,1,19,67.21C19,67.15,19,67.08,19,67Z" style="fill: #fefefe"/>
      <path d="M21.67,87.61c.42.1.84.18,1.25.29a4,4,0,0,1,3.2,3.71,6.34,6.34,0,0,1-.58,3.54,3.76,3.76,0,0,1-2.93,2.18l4.5,4.46,0,.13h-5c-.6.07-.95-.31-1.32-.69-.87-.91-1.76-1.8-2.65-2.7-.18.16-.12.32-.12.45v3c0,.22,0,.37-.3.37q-1.61,0-3.21,0c-.21,0-.3-.08-.28-.29v-.29c0-4.56,0-9.11,0-13.66,0-.49.15-.59.61-.58C17.07,87.54,19.38,87.43,21.67,87.61Zm-2,6.53c.54,0,1,0,1.43,0,.21,0,.28-.08.28-.29,0-.67,0-1.35,0-2,0-.26-.09-.34-.34-.33H19.15c-1,0-1,0-1,1,0,.53-.22,1.22.09,1.53S19.26,94.1,19.7,94.14Z" style="fill: #fefefe"/>
      <path d="M11.37,66.53c2,.16,4,.32,5.91.46.31,0,.28.15.24.37q-.51,2.92-1,5.87c0,.22-.12.3-.36.27l-5.57-.68c-.21,0-.28-.09-.25-.3.23-1.89.46-3.79.68-5.68C11,66.61,11.12,66.46,11.37,66.53Z" style="fill: #fefefe"/>
      <path d="M41.09,96.13c0,1.76,0,3.51,0,5.27,0,.38-.1.47-.47.46-1,0-2,0-3,0-.35,0-.45-.11-.44-.45,0-.55,0-1.11,0-1.67,0-.26-.09-.34-.34-.34H33.8c-.27,0-.37.08-.37.36,0,.59,0,1.19,0,1.78,0,.35-.14.39-.43.39-1,0-2,0-3,0-.36,0-.48-.08-.47-.46,0-1.43,0-2.85,0-4.28,0-1.83,0-3.65,0-5.48a6.31,6.31,0,0,1,.14-1.37,3.26,3.26,0,0,1,3.15-2.7,16.32,16.32,0,0,1,5.4.18A3.16,3.16,0,0,1,41,90.46a9.72,9.72,0,0,1,.05,1.43Zm-4-2.79h0c0-.57,0-1.15,0-1.72,0-.25,0-.35-.32-.35-1,0-2,0-3,0-.24,0-.31.07-.31.31q0,1.73,0,3.45c0,.21.07.29.28.29h3.06c.23,0,.31-.07.3-.31C37.13,94.46,37.14,93.9,37.14,93.34Z" style="fill: #fefefe"/>
      <path d="M69,102c-1.29,0-2.4,0-3.5,0-.3,0-.43-.06-.42-.4,0-.89,0-1.77,0-2.66,0-.35.13-.4.43-.4h5.27a4.49,4.49,0,0,0,1.32-.13.86.86,0,0,0,.67-.87c0-.42-.36-.52-.68-.6a9.54,9.54,0,0,0-2.2-.2A6.35,6.35,0,0,1,66.92,96,3.83,3.83,0,0,1,64.82,93a5.56,5.56,0,0,1,.74-3.76,3.49,3.49,0,0,1,2.57-1.45,54.51,54.51,0,0,1,7.23-.12c.19,0,.26.07.26.26,0,1.1,0,2.2,0,3.3,0,.37-.24.27-.43.27-1.83,0-3.65,0-5.48,0-.42,0-.56.08-.54.53,0,.85,0,.85.86.86s1.87,0,2.81,0a3.29,3.29,0,0,1,3.38,2.85,8.37,8.37,0,0,1-.06,3.66c-.38,1.59-1.41,2.36-3.27,2.56C71.52,102.08,70.14,102,69,102Z" style="fill: #fefefe"/>
      <path d="M53.2,94.82c0-2.22,0-4.44,0-6.65,0-.37.14-.43.46-.43,1,0,2,0,3.05,0,.4,0,.45.13.45.48,0,3.15,0,6.3,0,9.46,0,.44.11.54.54.54,1.56,0,3.12,0,4.68,0,.37,0,.52.07.51.48,0,1,0,1.94,0,2.91,0,.3-.08.39-.38.39-3,0-5.92,0-8.87,0-.32,0-.41-.09-.41-.41,0-2.24,0-4.47,0-6.7Z" style="fill: #fefefe"/>
      <path d="M49,94.62q0,3.33,0,6.65c0,.36-.07.48-.45.47-1,0-2.1,0-3.15,0-.31,0-.43-.07-.43-.41Q45,94.66,45,88c0-.37.14-.44.46-.43,1,0,2.07,0,3.1,0,.37,0,.47.09.47.46,0,2.2,0,4.4,0,6.6Z" style="fill: #fefefe"/>
      <path d="M23,48c0,.09-.06.18-.1.27-.48,1.36-1,2.72-1.45,4.08-.1.28-.18.38-.51.27q-2.55-.84-5.11-1.63c-.31-.1-.41-.19-.28-.54.55-1.49,1.08-3,1.6-4.49.11-.29.19-.38.51-.25,1.66.67,3.32,1.31,5,2C22.83,47.74,23.07,47.73,23,48Z" style="fill: #fefefe"/>
      <path d="M56.45,77.54l-6.4-.36c-.2,0-.27-.09-.32-.28-.36-1.31-.72-2.62-1.1-3.93-.09-.3,0-.33.27-.33h4.88c.16,0,.29,0,.37.17C54.9,74.37,55.65,75.91,56.45,77.54Z" style="fill: #fefefe"/>
      <path d="M25,32.93l3.34-3.71c.13-.14.23-.13.38,0l3.95,2.59c.2.13.16.22,0,.38-1,1.18-2,2.38-3,3.58a.25.25,0,0,1-.4.06Z" style="fill: #fefefe"/>
      <path d="M38.35,20.38c1.28-.67,2.55-1.32,3.81-2a.38.38,0,0,1,.54.07c.88,1,1.77,2,2.67,3,.15.16.14.24-.06.36-1.23.69-2.45,1.4-3.66,2.12-.26.15-.35,0-.48-.15L39,21.12Z" style="fill: #fefefe"/>
      <path d="M47.05,57.12l4.56,2.39a.38.38,0,0,1,.22.34c.06,1.16.13,2.33.21,3.49,0,.35-.08.38-.38.25q-2.29-1-4.6-2c-.18-.08-.27-.15-.26-.36C46.89,59.91,47,58.55,47.05,57.12Z" style="fill: #fefefe"/>
      <path d="M51.43,52.6l-4.07-3.46c-.1-.09-.2-.16-.11-.33l1.55-3.1,3.45,2.62c.12.09.19.17.15.33C52.08,50,51.76,51.24,51.43,52.6Z" style="fill: #fefefe"/>
      <path d="M56.27,19.9c-.7,0-1.41,0-2.11,0a.36.36,0,0,1-.43-.34c-.2-1-.4-2-.61-2.94,0-.23,0-.36.28-.35,1.6.08,3.21.16,4.81.22.23,0,.27.13.3.3.14.89.29,1.78.44,2.67,0,.26-.06.34-.31.35C57.85,19.85,57.06,19.89,56.27,19.9Z" style="fill: #fefefe"/>
      <path d="M54.82,41.7,53.2,39.92c-.59-.65-1.18-1.32-1.79-2-.19-.2-.17-.32,0-.5.72-.63,1.43-1.27,2.12-1.92.2-.18.29-.18.44,0,.71,1.09,1.44,2.16,2.16,3.24a.37.37,0,0,1,.05.45C55.75,40.05,55.3,40.85,54.82,41.7Z" style="fill: #fefefe"/>
      <path d="M63,32.46c0,.16-.13.21-.23.29l-1.9,1.48c-.21.17-.3.14-.42-.09-.42-.78-.85-1.56-1.29-2.32-.17-.3-.16-.44.22-.53.87-.2,1.74-.43,2.61-.65.36-.09.58-.05.65.38A14.43,14.43,0,0,0,63,32.46Z" style="fill: #fefefe"/>
      <path d="M70.48,20.15,74.42,23c.14.1.2.19.08.35s-.33.48-.49.73-.18.19-.35.1l-3.08-1.64a.37.37,0,0,1-.21-.44C70.41,21.48,70.44,20.86,70.48,20.15Z" style="fill: #fefefe"/>
      <path d="M73.15,31.33c0,.73,0,.74-.71.67s-1.59-.19-2.39-.26c-.27,0-.38-.11-.36-.39s0-.82,0-1.23.09-.35.35-.29l2.77.64C73.15,30.55,73.14,30.56,73.15,31.33Z" style="fill: #fefefe"/>
    </g>
  </g>
</svg>
