<?xml version="1.0" encoding="utf-8"?>
<!-- Generator: Adobe Illustrator 19.2.1, SVG Export Plug-In . SVG Version: 6.00 Build 0)  -->
<svg version="1.1" id="Layer_1" xmlns="http://www.w3.org/2000/svg" xmlns:xlink="http://www.w3.org/1999/xlink" x="0px" y="0px"
	 width="237.1px" height="79.9px" viewBox="0 0 237.1 79.9" enable-background="new 0 0 237.1 79.9" xml:space="preserve">
<g>
	<path fill="#FF3366" d="M79.9,28.5c1.6-0.2,2.1,0.6,2.5,1.7c2.4,6.7,4.9,13.5,7.4,20.2c0.2,0.6,0.5,1.2,0.9,2.1
		c1.8-4.7,3.4-9.2,5-13.6c1.1-3,2.3-6,3.3-9c0.4-1,0.9-1.4,2-1.4c2.2,0.1,4.4,0,6.8,0c-0.3,0.8-0.5,1.4-0.7,2
		c-4.1,10.1-8.2,20.2-12.2,30.3c-0.5,1.2-1.1,1.7-2.5,1.7c-5.3,0-5.3,0.1-7.3-4.9c-1.6-4-3.3-8-5.1-11.9c0,8.8,0,17.6,0,26.4
		c0,0.9-0.1,1.8-0.3,2.7c-0.9,3.2-3.6,5.2-6.9,5.2c-21.8,0-43.6,0-65.4,0c-4.1,0-7.2-3.1-7.2-7.2C0,50.8,0,29,0,7.1
		C0,3.2,3.2,0,7.1,0C29,0,50.8,0,72.7,0c4,0,7.1,3.2,7.2,7.2c0,6.4,0,12.8,0,19.1C79.9,27,79.9,27.6,79.9,28.5z M65.8,51.5
		c-0.9,1.4-1.6,2.9-2.6,4c-0.5,0.5-1.7,0.8-2.4,0.6c-0.5-0.2-0.9-1.3-1.1-2c-0.1-0.5,0-1.1,0.2-1.7c0.5-2.1,1.2-4.1,1.6-6.2
		c0.6-2.9,1.4-5.8,1.4-8.8c0-6.7-6.5-10.4-12.1-6.9c-2.1,1.2-3.6,3.3-5.4,5c-0.3,0.3-0.5,0.6-0.8,0.9c-0.1,0-0.2-0.1-0.3-0.1
		c0.4-2.1,0.8-4.1,1.3-6.4c-3.8,0-7.4,0-11,0c-0.3,0-0.8,0.3-0.9,0.6c-0.5,1.6-1,3.3-1.5,5.3c2,0,3.7,0,5.8,0
		c-1.4,5.2-2.4,10.2-4,14.9c-0.9,2.8-3.3,4.7-6.3,5.4c-2.9,0.7-4.4-0.5-3.7-3.4c0.8-3.7,1.7-7.3,2.6-11c1-3.9,1.9-7.7,2.9-11.5
		c-0.2-0.2-0.3-0.3-0.4-0.3c-3.9,0-7.9-0.1-11.8-0.1c-0.3,0-0.9,0.4-1,0.7c-0.5,1.6-0.9,3.3-1.4,5.2c1.9,0,3.6,0,5.4,0
		c-0.1,0.7-0.1,1.2-0.3,1.7c-0.6,2.4-1.2,4.7-1.7,7.1c-0.8,3.7-2.2,7.2-1.9,11.1c0.3,2.7,1.8,4.7,4.4,5.3c4.3,1.1,7.7-0.6,10.5-3.8
		c0.5-0.5,0.9-1.1,1.3-1.7c0.1,0,0.2,0.1,0.3,0.1c-0.4,1.6-0.7,3.2-1.1,5.1c1.7,0,3.3,0,4.9,0c2.7,0,2.7,0,3.3-2.6
		c1.3-5.4,2.7-10.8,4.1-16.2c0.5-2.1,1.4-4.1,3.2-5.4c1.8-1.4,3.9-1.6,5.9-0.5c2,1,2.3,3,2,5c-0.1,0.9-0.4,1.9-0.6,2.8
		c-0.8,3-1.7,6-2.4,9c-1.1,5.1,2.2,8.8,7.4,8.5c4.1-0.3,6.3-2.9,7.8-6.3C68.6,52.4,68.6,52.4,65.8,51.5z M31.2,20.5
		c0-2.6-1.9-4.6-4.5-4.7c-2.5-0.1-4.8,2.2-4.8,4.7c0,2.5,2.2,4.6,4.7,4.6C29.2,25.1,31.2,23.1,31.2,20.5z"/>
	<path fill="#FF3366" d="M184.8,27.8c10.1,0,18,7.7,18,17.5c0,9.8-7.9,17.5-18,17.5c-10.1,0-18-7.7-17.9-17.5
		C167,35.5,174.8,27.8,184.8,27.8z M194.7,45.6c0.1-6-4.1-10.6-9.8-10.8c-5.6-0.1-9.8,4.2-9.9,10.2c-0.1,6.2,4.1,10.9,9.8,10.9
		C190.5,56,194.6,51.7,194.7,45.6z"/>
	<path fill="#FF3366" d="M215,32.5c3-3.1,6.3-4.8,10.5-4.7c6.6,0.1,11.4,4.7,11.5,11.3c0.1,7.2,0,14.4,0.1,21.7
		c0,1.2-0.5,1.5-1.5,1.4c-1.6,0-3.2-0.1-4.7,0c-1.3,0.1-1.8-0.5-1.8-1.8c0.1-5.6,0-11.2,0-16.8c0-1,0-1.9-0.1-2.9
		c-0.7-4-3.5-6-7.5-5.7c-3.6,0.3-6.3,3.1-6.4,6.9c-0.1,5.9-0.1,11.9-0.1,17.8c0,2.4,0,2.4-2.3,2.4c-1.5,0-2.9,0-4.4,0
		c-0.9,0-1.3-0.4-1.3-1.3c0-10.4,0-20.8,0-31.2c0-1,0.4-1.3,1.3-1.2c1.7,0,3.4,0.1,5.1,0c1.2,0,1.7,0.4,1.6,1.6
		C215,30.8,215,31.7,215,32.5z"/>
	<path fill="#FF3366" d="M148.8,31.5c-1.5,3.4-4.5,4.7-7.7,3.9c-1.8-0.5-3.7-0.7-5.6-0.9c-0.8-0.1-1.7,0.3-2.4,0.7
		c-1.7,1-1.8,3.3-0.1,4.3c1.5,0.9,3.1,1.5,4.8,2.1c2.2,0.9,4.6,1.6,6.8,2.6c3.3,1.6,5.3,4.3,5.1,8.2c-0.2,3.9-1.8,7-5.5,8.7
		c-5.1,2.4-10.3,1.8-15.4-0.2c-2-0.8-3.9-2-5.7-3c1.4-3.2,4.5-4.3,7.6-3.4c2.4,0.7,4.9,1.2,7.4,1.6c0.7,0.1,1.7,0,2.3-0.5
		c0.9-0.7,1.9-1.7,2-2.6c0.1-0.8-0.8-2.2-1.6-2.6c-2.1-1-4.4-1.7-6.6-2.5c-1.5-0.6-3.1-1.1-4.5-1.8c-7.2-3.6-5.8-12.6-1-15.9
		c4.1-2.8,8.7-2.9,13.3-1.7C144.2,29.3,146.5,30.5,148.8,31.5z"/>
	<path fill="#FF3366" d="M111.2,45.2c0-5,0-10,0-15.1c0-1.2,0.3-1.7,1.6-1.6c1.5,0.1,3.1,0.1,4.6,0c1.4-0.1,1.9,0.4,1.8,1.8
		c-0.1,8.2,0,16.5,0,24.7c0,1.9,0,3.8,0,5.8c0,1-0.4,1.4-1.4,1.4c-1.7,0-3.4-0.1-5.1,0c-1.2,0-1.6-0.4-1.5-1.6
		C111.2,55.5,111.2,50.3,111.2,45.2z"/>
	<path fill="#FF3366" d="M162.2,45.4c0,5,0,10,0,15.1c0,1.3-0.4,1.8-1.7,1.8c-1.6-0.1-3.2-0.1-4.7,0c-1.2,0-1.6-0.5-1.6-1.6
		c0-10.2,0-20.3,0-30.5c0-1.2,0.4-1.7,1.7-1.6c1.6,0.1,3.2,0.1,4.7,0c1.3-0.1,1.6,0.4,1.6,1.7C162.2,35.2,162.2,40.3,162.2,45.4z"/>
</g>
</svg>
