<svg id="Layer_1" data-name="Layer 1" xmlns="http://www.w3.org/2000/svg" viewBox="0 0 237.12 120"><defs><style>.cls-1{fill:#666;}.cls-2{fill:#fdb300;}.cls-3{fill:#ea6c00;}.cls-4{fill:#fdad00;}.cls-5{fill:#fdd231;}.cls-6{fill:#feeeb7;}</style></defs><path id="a" class="cls-1" d="M25.76,104.36l-.06-.75H19.43l0,.84c.39,9.34,6.73,15.53,18,15.53,10.76,0,18.08-5.55,18.08-14,0-4.55-1.59-7.76-4.62-10-2.32-1.69-5.1-2.65-9.72-3.64l-1-.21-1-.21c-8.38-1.75-11-3.26-11-7.77,0-4.67,3.84-7.64,10.28-7.64,6.27,0,10.24,3.8,10.42,9.79l0,.78h6.23l0-.82C54.87,77,48.57,70.75,38.38,70.75c-10,0-16.58,6-16.58,13.69,0,4.53,1.58,7.68,4.61,9.79,2.31,1.61,5,2.46,9.7,3.41l1.45.28c4.46.88,6.43,1.42,8.22,2.45a6.28,6.28,0,0,1,3.34,6c0,5-4.19,7.76-11.52,7.76-7,0-11.37-3.49-11.84-9.75ZM68.65,70v-.8H62.46v50h6.19v-9.44l6.52-6.34L86.8,118.89l.24.32h7.7l-1-1.3L79.55,99.19l13.1-13L94,84.76H85.62l-.23.24L68.65,101.86Zm58.25,34h.77l0-.76c0-.41,0-.82,0-1.23,0-.21,0-.4,0-.57,0-10.17-6.75-17.66-16.74-17.66S94,91.8,94,101.87C94,112.23,100.75,120,111.1,120a16.26,16.26,0,0,0,16.06-11.65l.33-1H121l-.19.54a9.91,9.91,0,0,1-9.64,6.39c-6,0-10.13-4.08-10.88-10.17H126.9Zm-26.78-4.83c1-5.55,5-9.23,10.45-9.23,5.59,0,9.45,3.56,10.3,9.23Zm47.61-9h.8V84.7H141V75.36H134.8V84.7h-6.25v5.47h6.25v19.28c0,6.33,3.29,9.76,9.32,9.76a19.27,19.27,0,0,0,2.72-.17,7.18,7.18,0,0,0,1-.18l.59-.17V113l-1,.21-.87.16a14.57,14.57,0,0,1-1.86.15c-2.64,0-3.71-1.24-3.71-4.35v-19ZM166.92,120a15.7,15.7,0,0,0,16-13.16l.19-1h-6.19l-.16.61c-1.29,4.91-4.79,7.75-9.84,7.75-6.3,0-10.65-5-10.65-12.28s4.34-12.34,10.65-12.34c5.05,0,8.55,2.84,9.84,7.76l.16.6h6.19l-.19-1a15.7,15.7,0,0,0-16-13.16c-9.87,0-16.85,8-16.85,18.11S157.06,120,166.92,120Zm27.75-50v-.8h-6.18v50h6.18V99c0-5.91,3.59-9.38,9-9.38,5.21,0,7.82,3,7.82,8.74v20.87h6.17V97.43c0-8.08-5-13.45-13.21-13.45a13.5,13.5,0,0,0-9.81,3.79V70Z"/><path id="b" class="cls-2" d="M97.77,2.44,118.56.26l20.79,2.18,16.1,21.41L118.56,66.42,81.67,23.85Z"/><path id="c" class="cls-3" d="M96.61,24.11l22,42.31L81.67,24.11Z"/><path id="d" class="cls-3" d="M140.51,24.11,118.56,66.42l36.89-42.31Z"/><path id="e" class="cls-4" d="M96.28,24.11h43.8l-21.9,42.31Z"/><path id="f" class="cls-5" d="M117.8.26,97.41,2.46,96.28,24.11Z"/><path id="g" class="cls-5" d="M118.55.26l20.39,2.2,1.13,21.65Z"/><path id="h" class="cls-4" d="M155.45,24.11,139.31,2.57l1.16,21.54Z"/><path id="i" class="cls-4" d="M81.67,24.11,97.81,2.57,96.65,24.11Z"/><path id="j" class="cls-6" d="M118.18.26,96.28,24.11h43.8Z"/></svg>