<svg id="Layer_1" data-name="Layer 1" xmlns="http://www.w3.org/2000/svg" width="259.73" height="120" viewBox="0 0 259.73 120">
  <title>tools</title>
  <g>
    <path d="M106.76,30.68c1.36.25,2.73.43,4.06.78,9.21,2.36,12.28,10.39,11.63,17-.5,5.12-2.48,9.86-4.21,14.65-.28.8-.62,1.57-.92,2.36-.24.64,0,1,.67,1,1,0,2,0,3,0,.75,0,1,.26.83,1.06-.6,2.21-1.16,4.44-1.73,6.66a1.22,1.22,0,0,1-1.29,1c-8.49,0-17,.13-25.45-.12-4.64-.14-8.68-2-11.23-6.22A17,17,0,0,1,80,58.67a38.34,38.34,0,0,1,4.77-16.61c3.75-6.63,9.37-10.48,17-11.21a4.23,4.23,0,0,0,.68-.17Zm-4.9,35.4v.07c1.42,0,2.84,0,4.26,0a1.53,1.53,0,0,0,1.74-1.3c1.11-4.1,2.37-8.17,3.4-12.29a23.14,23.14,0,0,0,.72-5.79c0-2.92-1.38-5.29-4.26-6.29-4.38-1.51-10.47-.75-13.54,4.59a25.75,25.75,0,0,0-3.43,14.68c.24,3.8,2.36,5.92,6.15,6.29C98.54,66.21,100.21,66.08,101.86,66.08Z" style="fill: #666"/>
    <path d="M0,54.42c.19-1,.36-1.9.56-2.85a17.83,17.83,0,0,1,4.61-8.32c-.31,1.69-.79,3.51-1,5.36A21.26,21.26,0,0,0,8.1,62.77,25.84,25.84,0,0,0,25.45,74.25c5.78,1,11.38.41,16.43-3a17.22,17.22,0,0,0,1.44-1.11,7.18,7.18,0,0,1,1.43-1.06c-.42.68-.8,1.38-1.26,2A20.87,20.87,0,0,1,28.41,80C14.71,81.73,3.34,71.53.81,60.91.47,59.51.27,58.07,0,56.66Z" style="fill: #0868ac"/>
    <path d="M181.36,60.94h-9.94c-1.24,0-1.54.3-1.57,1.56a3.36,3.36,0,0,0,2.85,3.83,16.84,16.84,0,0,0,3.61.39c4.54,0,9.07,0,13.6,0,.74,0,1,.25.87,1-.48,2.34-.94,4.69-1.5,7a1.33,1.33,0,0,1-1,.75c-6.28-.08-12.58.53-18.84-.33A15,15,0,0,1,165.53,74c-3.79-1.62-5.7-5-5.51-9.63a41.59,41.59,0,0,1,3.11-14.07c2.57-6.26,7.36-9.59,14-10.42a24.39,24.39,0,0,1,11.13.78,8.56,8.56,0,0,1,6,7.58c.5,4.12-.44,8.07-1.43,12-.17.68-.69.72-1.27.72Zm-3.46-7.26c1.79,0,3.58,0,5.37,0a1.58,1.58,0,0,0,1.18-.65,3.57,3.57,0,0,0-1.64-4.27,8.2,8.2,0,0,0-2.49-.72c-3.93-.55-7.29,1.21-8.57,4.43-.39,1-.25,1.23.79,1.24Z" style="fill: #666"/>
    <path d="M143.5,75c-3.14,0-6.31.21-9.43,0-5.35-.45-8.2-3.72-8.43-9.09-.17-3.84.7-7.52,1.47-11.23.91-4.36,1.85-8.72,2.78-13.08.26-1.26.45-1.42,1.77-1.43h6.19c1.53,0,1.62.13,1.32,1.64q-1.84,9.18-3.67,18.38a14.62,14.62,0,0,0-.31,2.71c0,2.4,1.17,3.69,3.54,3.79,2,.08,4,0,6,0,.8,0,1.11-.43,1.27-1.16q1.68-7.87,3.4-15.74c.6-2.78,1.24-5.54,1.78-8.32a1.45,1.45,0,0,1,1.68-1.34c2.09,0,4.19,0,6.29,0,1.26,0,1.41.2,1.14,1.45q-2.43,11.51-4.88,23l-2,9.11c-.29,1.35-.41,1.45-1.83,1.45H143.5Z" style="fill: #666"/>
    <path d="M233.27,56.63c.24-.32.49-.63.71-1,4.38-6.42,8.78-12.83,13.12-19.28a2.84,2.84,0,0,1,2.69-1.4c2.87,0,5.75,0,8.62,0,.36,0,.72,0,1.32.09-.33.49-.52.81-.75,1.11Q248.15,50.6,237.32,65a9.7,9.7,0,0,0-1.84,3.79c-.38,1.71-.87,3.4-1.28,5.11a1.38,1.38,0,0,1-1.54,1.25c-2.7,0-5.41,0-8.11,0-.85,0-1.1-.31-.88-1.11.53-2,1.09-4,1.51-6a5.86,5.86,0,0,0,0-2.57c-1.2-4.44-2.48-8.85-3.73-13.26-.3-1.06-.2-1.2.88-1.21,2.71,0,5.42,0,8.12,0a1.34,1.34,0,0,1,1.53,1.24c.32,1.48.67,2.94,1,4.41Z" style="fill: #666"/>
    <path d="M213.83,40.22c3.21,0,6.43,0,9.64,0a13,13,0,0,1,3.1.44,4.78,4.78,0,0,1,3.5,3.47c.32,1.14.61,2.29.87,3.44s.09,1.19-1,1.19H211.51c-1.76,0-1.87.08-2.22,1.77Q206.92,62,204.57,73.38c-.33,1.59-.45,1.71-2.06,1.71-2.2,0-4.4,0-6.6,0-.85,0-1-.3-.87-1.1,1.34-6.26,2.66-12.52,4-18.78,1-4.55,2-9.09,2.94-13.65a1.45,1.45,0,0,1,1.71-1.37c3.38.05,6.76,0,10.14,0Z" style="fill: #666"/>
    <path d="M56.39,89.29H52.53c-.72,0-1.05-.27-.85-1.08.55-2.19,1-4.39,1.55-6.6a1.3,1.3,0,0,1,1.49-1.17c.37,0,.75,0,1.12,0,2,.29,3.24-.74,4.22-2.33a19,19,0,0,0,2-6.22q2.16-9.84,4.29-19.68c.2-.91.6-1.34,1.57-1.33,2.5,0,5,0,7.51,0,.75,0,1.13.18.93,1.08-1.93,8.73-3.8,17.47-5.77,26.2a19,19,0,0,1-3.32,7.43,9.3,9.3,0,0,1-7.46,3.67c-1.14,0-2.3,0-3.44,0Z" style="fill: #666"/>
    <path d="M17.19,39.11c-2.75,8.54,2,16,7.86,19.69,6.18,3.94,14.93,4.57,20.88-1.46a13.2,13.2,0,0,1-7.33,6.94c-7,2.59-13.49,1.54-19.1-3.56a16.53,16.53,0,0,1-5.83-13A13.47,13.47,0,0,1,17.19,39.11Z" style="fill: #0868ac"/>
    <path d="M72.2,48.51H68.35c-.74,0-1-.28-.87-1.06.5-2.1,1-4.21,1.43-6.31A1.25,1.25,0,0,1,70.32,40c2.53,0,5.06,0,7.59,0,.83,0,1.07.31.88,1.13-.48,2.06-.92,4.14-1.35,6.22a1.28,1.28,0,0,1-1.5,1.15C74.7,48.48,73.45,48.51,72.2,48.51Z" style="fill: #666"/>
    <path d="M27.08,36.73c-1,4.81.8,8.61,4.62,11.37s8,3.43,12.31,1.07c-.75,2-3.85,3.49-7,3.63a11.81,11.81,0,0,1-11-7.18C24.66,42.48,25.13,38.66,27.08,36.73Z" style="fill: #0868ac"/>
  </g>
</svg>
