<svg id="Layer_1" data-name="Layer 1" xmlns="http://www.w3.org/2000/svg" width="217.12" height="120" viewBox="0 0 217.12 120">
  <title>tools</title>
  <g>
    <path d="M77.42,21.2h18c-15,25.9-29.84,51.68-44.83,77.66L5.81,21.21H23.75l7.63,13.22q9.35,16.18,18.68,32.38c.44.76.64.88,1.13,0,3-5.28,6.08-10.53,9.12-15.79q6.25-10.86,12.51-21.72C74.37,26.62,76.06,24,77.42,21.2Z" style="fill: #4db987"/>
    <path d="M77.42,21.2c-1.36,2.8-3,5.42-4.6,8.12Q66.58,40.18,60.31,51c-3,5.26-6.11,10.51-9.12,15.79-.49.86-.69.74-1.13,0q-9.31-16.2-18.68-32.38L23.75,21.21c5.33,0,10.65,0,16-.07.67,0,.83.43,1.07.84L50,38l.64,1c.82-1.4,1.59-2.7,2.34-4q3.77-6.51,7.51-13c.25-.42.43-.83,1.08-.82C66.85,21.19,72.14,21.19,77.42,21.2Z" style="fill: #435466"/>
    <path d="M113.54,66.77l4.3-14.62c1.41-4.77,2.85-9.54,4.2-14.33.6-2.15,1.93-2.18,3.43-1.28a1.52,1.52,0,0,1,.74,1.94q-5,16.29-10,32.59A2.56,2.56,0,0,1,113.47,73a2.48,2.48,0,0,1-2.7-2q-5.05-16.35-10.08-32.68c-.31-1,.16-1.66,1.47-2.11s2.17-.16,2.52.94c.77,2.43,1.48,4.87,2.2,7.31q3.15,10.6,6.28,21.21C113.24,65.94,113.33,66.18,113.54,66.77Z" style="fill: #435466"/>
    <path d="M158.13,61.89c-.76,0-1,.12-1.06,1-.22,4.63,3.39,7,8,6.66a9.23,9.23,0,0,0,4-1.44c1.2-.71,1.84-.58,2.45.33s.53,1.69-.56,2.54a11.17,11.17,0,0,1-8,2c-3.91-.29-7.22-1.75-9.15-5.46a6.2,6.2,0,0,1-.74-2.14,30.71,30.71,0,0,1,0-9c.74-4.48,5.07-7.81,9.8-7.79a9.5,9.5,0,0,1,9.44,7.56,8.93,8.93,0,0,1,.15,1.93c0,2.64-1.19,3.82-3.84,3.88-1.75,0-3.5,0-5.25,0C163.38,62,159.88,62,158.13,61.89Zm4.18-2.77h4.79c1.08,0,1.48-.58,1.45-1.6a5.76,5.76,0,0,0-8-5.2A5.82,5.82,0,0,0,157,58.61c.07.57.36.57.76.56C159.27,59.17,162.31,59.14,162.31,59.12Z" style="fill: #435466"/>
    <path d="M148.05,57.42c0,1.95,0,3.89,0,5.83a9.9,9.9,0,0,1-19.79.18c-.09-4.18,0-8.37,0-12.56a1.89,1.89,0,0,1,2-2,2,2,0,0,1,2.14,2c0,4.15,0,8.3,0,12.45a5.92,5.92,0,0,0,4.44,5.8c3.53.9,7-2,7.05-5.94,0-4.07,0-8.14,0-12.22a1.9,1.9,0,0,1,2.1-2.1A1.88,1.88,0,0,1,148.05,51Z" style="fill: #435466"/>
    <path d="M202.69,73.05a13.35,13.35,0,0,1-5.79-1.35,4.58,4.58,0,0,1-2-1.7,1.83,1.83,0,0,1,.44-2.28c.62-.67,1.26-.3,1.82.13a8.92,8.92,0,0,0,7.88,1.54,2.78,2.78,0,0,0,2.39-2.3,3.24,3.24,0,0,0-1.34-3.3,9.06,9.06,0,0,0-2.67-1.25c-1.41-.46-2.84-.85-4.22-1.39-2.29-.91-3.82-2.5-3.92-5.1s.84-5,3.31-6.29c3.61-1.86,7.29-1.51,10.86.22a1.48,1.48,0,0,1,.78,2.34c-.56,1.06-1.17,1.28-2.34.73a9.11,9.11,0,0,0-6.19-.86,3.78,3.78,0,0,0-1.6.83,2.86,2.86,0,0,0,.5,4.9c1.76.94,3.75,1.23,5.61,1.89,3.29,1.16,5,3.39,5.05,6.53a6.2,6.2,0,0,1-4.2,6A12,12,0,0,1,202.69,73.05Z" style="fill: #435466"/>
    <path d="M190.11,63.67c0,4.15,0,8.29,0,12.44a9.93,9.93,0,0,1-1.49,5.2,6.16,6.16,0,0,1-5.39,2.86A1.91,1.91,0,0,1,181.3,83a1.75,1.75,0,0,1,.33-1.91,2,2,0,0,1,1.53-.62,2.62,2.62,0,0,0,2.54-2.22,14.22,14.22,0,0,0,.3-3.62V51.1A2,2,0,0,1,188.66,49a1.79,1.79,0,0,1,1.55,2c0,4.22,0,8.44,0,12.66Z" style="fill: #435466"/>
    <path d="M178.64,67.72a2.61,2.61,0,0,1,0,5.21,2.61,2.61,0,1,1,0-5.21Z" style="fill: #435466"/>
    <path d="M188.07,37.66a2.45,2.45,0,0,1,2.51,2.4,2.55,2.55,0,0,1-5.09-.07A2.47,2.47,0,0,1,188.07,37.66Z" style="fill: #435466"/>
  </g>
</svg>
