<svg id="Layer_1" data-name="Layer 1" xmlns="http://www.w3.org/2000/svg" xmlns:xlink="http://www.w3.org/1999/xlink" viewBox="0 0 253 120"><defs><style>.cls-1{fill:#fff;}.cls-2{font-size:40px;fill:#4a4a4a;font-family:MyriadPro-Regular, Myriad Pro;}.cls-3{letter-spacing:-0.01em;}.cls-4{letter-spacing:0em;}.cls-5{letter-spacing:-0.01em;}.cls-6{mask:url(#mask);}.cls-7{fill:#ee5a24;}</style><mask id="mask" x="86.44" y="2.32" width="80.78" height="80.78" maskUnits="userSpaceOnUse"><g id="mask-2"><polygon id="path-1" class="cls-1" points="86.44 83.1 86.44 2.32 167.22 2.32 167.22 83.1 86.44 83.1"/></g></mask></defs><text class="cls-2" transform="translate(9.88 118.02)">f<tspan class="cls-3" x="11.68" y="0">r</tspan><tspan x="24.36" y="0">eshma</tspan><tspan class="cls-4" x="135.08" y="0">r</tspan><tspan x="148.32" y="0">ke</tspan><tspan class="cls-5" x="187.12" y="0">t</tspan><tspan x="200.12" y="0">er</tspan></text><g id="Color-_-Icon" data-name="Color-&amp;-Icon"><g id="fm-logo-light"><g id="Page-1"><g class="cls-6"><path id="Fill-1" class="cls-7" d="M144.07,47c-1.24,0-2.24-2.79-2.24-6.22s1-6.23,2.24-6.23,2.25,2.79,2.25,6.23-1,6.22-2.25,6.22m-4.19,9.4a.59.59,0,0,1-.8.78l-15.21-7.41a6.44,6.44,0,0,0-.72-.3l1.18,6.69a3,3,0,1,1-5.86,1L117,48.52l-.26,0a7.77,7.77,0,0,1,0-15.44l4.67-.54a7.65,7.65,0,0,0,2.51-.74l15.21-7.41a.59.59,0,0,1,.8.78c-1.34,3-2.26,8.89-2.26,15.63s.92,12.6,2.26,15.62M157.12,2.32H126.83a40.39,40.39,0,1,0,40.39,40.39V12.42a10.1,10.1,0,0,0-10.1-10.1"/></g></g></g></g></svg>