<svg id="Layer_1" data-name="Layer 1" xmlns="http://www.w3.org/2000/svg" width="141.88" height="120" viewBox="0 0 141.88 120">
  <title>tools</title>
  <g>
    <path d="M70.39,75.86c-8.4,0-16.8,0-25.19,0-7.34,0-11.85-4.49-11.86-11.82q0-25.46,0-50.92c0-6.8,4.66-11.48,11.48-11.5q25.65,0,51.29,0c7,0,11.53,4.59,11.55,11.59q0,25.37,0,50.74c0,7.62-4.43,11.91-12.1,11.91Q83,75.88,70.39,75.86ZM55.13,19.19V58.47a4.94,4.94,0,0,0,.81.16c6.39,0,12.78,0,19.16-.07a19.57,19.57,0,0,0,4.48-.72c4.83-1.24,7.76-4.54,8.08-9,.39-5.6-1.86-10-6.45-11.15a2.19,2.19,0,0,1-.48-.3c.22-.24.31-.4.45-.48,4.64-2.56,5.18-6.45,4.52-10.4-.75-4.41-3.93-6.45-8-7a66.64,66.64,0,0,0-8.37-.33C64.63,19.16,60,19.19,55.13,19.19Z" style="fill: #573b7e"/>
    <path d="M0,112.27v-11C0,97.9.08,94.5,0,91.09c0-1.29.28-1.87,1.7-1.82,3.64.13,7.29.07,10.93.24,2.48.11,4.55,1.19,5.24,3.76s.27,4.85-2.28,6.58a6.2,6.2,0,0,1,3.57,5.89c0,3.64-2.28,6.19-6.47,6.47S4.45,112.27,0,112.27Zm4.51-3.7c2.57,0,5,.1,7.37,0,1.76-.1,2.67-1.28,2.73-3s-.7-3-2.5-3.2c-2.49-.21-5-.06-7.6-.06Zm0-9.86c2.32,0,4.44.08,6.55,0a2.49,2.49,0,0,0,2.54-2.57c.08-1.41-.3-2.73-1.87-2.84-2.38-.18-4.78,0-7.22,0Z" style="fill: #573b7e"/>
    <path d="M129.35,111v7.38a15.14,15.14,0,0,1-3-.06,1.71,1.71,0,0,1-1.08-1.2c-.07-6.74-.06-13.48,0-20.23,0-.44.54-1.27.81-1.26,1.18,0,2.73-.85,3.36,1.09a7.45,7.45,0,0,1,8.41-.67c2.85,1.51,3.93,4.19,4,7.29a14.55,14.55,0,0,1-.34,3.79c-1.4,5.3-6.42,7.3-11.14,4.51C130.14,111.48,129.9,111.32,129.35,111Zm-.18-7a17.83,17.83,0,0,0,.78,3.08,3.73,3.73,0,0,0,3.6,2.33,3.61,3.61,0,0,0,3.52-2.16,7.24,7.24,0,0,0-.12-6.67,3.91,3.91,0,0,0-7.21.64C129.48,102.1,129.37,103,129.17,104Z" style="fill: #573b7e"/>
    <path d="M118.35,111.78a47.61,47.61,0,0,1-6.79.91,4.71,4.71,0,0,1-4.82-4.52c-.18-2.85,1.19-4.68,4.13-5.31,1.72-.37,3.5-.45,5.2-.89.68-.17,1.2-1,1.79-1.46-.56-.62-1-1.56-1.68-1.81-2-.72-3.27.18-4.73,1.58-.83.8-2.54.67-4,1-.05-2.59.9-4.15,2.68-5.07a10.17,10.17,0,0,1,8.81-.35,4.3,4.3,0,0,1,2.89,4.4c-.06,2.49-.08,5,0,7.48,0,.58.73,1.12,1,1.72a4.23,4.23,0,0,1,.63,1.81,1.64,1.64,0,0,1-.89,1.27C120.9,113,119.2,113.08,118.35,111.78Zm-.9-7.16a26.12,26.12,0,0,0-4.7.86,3.1,3.1,0,0,0-1.74,2.11c-.07.48,1.11,1.5,1.88,1.69C116.1,110.05,117.88,108.26,117.45,104.62Z" style="fill: #573b7e"/>
    <path d="M37.92,104.05c-.09,5.54-3.37,8.81-8.76,8.73-5.09-.07-8.34-3.66-8.23-9.09.1-5.21,3.56-8.67,8.6-8.61S38,98.73,37.92,104.05Zm-3.84.38A22.85,22.85,0,0,0,33,100.64a4,4,0,0,0-6.7-.62,7.06,7.06,0,0,0,.13,8c1.42,1.65,4.1,2,5.49.47A18.44,18.44,0,0,0,34.08,104.43Z" style="fill: #573b7e"/>
    <path d="M39.75,104c0-5.46,3.24-8.91,8.39-8.92s8.57,3.58,8.57,8.85-3.35,8.85-8.5,8.86C42.91,112.79,39.75,109.5,39.75,104Zm4-.42c.1.94.11,1.55.24,2.14.5,2.31,2,3.69,4.09,3.71a4,4,0,0,0,4.1-3.63,12.27,12.27,0,0,0-.37-4.78,3.53,3.53,0,0,0-3.63-2.52,3.75,3.75,0,0,0-3.74,2.41A16.24,16.24,0,0,0,43.79,103.58Z" style="fill: #573b7e"/>
    <path d="M83.1,100.62c-1.82-.14-3.67.83-4.89-1.4-.53-1-3.28-1-4.28-.31s-1,1.47,0,2a13.61,13.61,0,0,0,2.9,1c1.28.38,2.6.61,3.85,1.06a4.29,4.29,0,0,1,3.09,3.71,4.8,4.8,0,0,1-2,4.6c-2.65,2-8.06,2.07-10.72.12a5.14,5.14,0,0,1-2.2-4.75c1.72.3,3.58-1,4.63,1.59.62,1.54,4.67,1.64,5.77.35.87-1,.38-1.89-.63-2.35a25,25,0,0,0-3.13-.91,22.73,22.73,0,0,1-4-1.28,4.39,4.39,0,0,1-.57-7.55c2.46-1.79,7.34-1.9,9.91-.22A5,5,0,0,1,83.1,100.62Z" style="fill: #573b7e"/>
    <path d="M87,99c-1.07-.43-2.61.38-2.64-1.74s1.46-1.58,2.73-1.91V93.18c0-2.36,1.35-3.32,3.54-2.44.35.14.62.82.66,1.28.1,1.07,0,2.15,0,3.18,1.25.71,3.51-.55,3.25,2.22-.22,2.33-2,.88-3.14,1.76,0,2.85-.12,6,.12,9.07,0,.51,1.66.9,2.8,1.47.6,2.37.19,2.9-2.65,2.85-3.19-.06-4.4-1.15-4.56-4.35-.11-2.43,0-4.86,0-7.29C87,100.28,87,99.63,87,99Z" style="fill: #573b7e"/>
    <path d="M60.25,99.05c-1.16-.54-2.73.38-2.83-1.75-.12-2.31,1.6-1.58,2.82-2v-2c0-2.8.2-3,3-2.61a1.7,1.7,0,0,1,1.09,1.18,23.64,23.64,0,0,1,.06,3.36c1.27.65,3.5-.62,3.28,2.15-.2,2.43-2.13.84-3.26,1.8,0,2.76-.15,5.79.13,8.78.06.65,1.67,1.15,3,2,.51,2.11.15,2.6-2.59,2.6-3.42,0-4.64-1.18-4.68-4.57C60.22,105,60.25,102.06,60.25,99.05Z" style="fill: #573b7e"/>
    <path d="M100.61,112a3,3,0,0,1-.58.26c-3.55.36-3.55.36-3.55-3.14,0-3.83,0-7.66,0-11.49,0-.79-.51-1.91,1-2.11,2-.28,2.68,0,3.12,1.47a21.84,21.84,0,0,1,3.49-1.74c2-.61,2.54-.11,2.52,1.94,0,.59-.09,1.19-.13,1.74-5.16.81-5.88,1.66-5.88,6.87Z" style="fill: #573b7e"/>
    <path d="M69.2,40.66c1.94,0,3.89-.08,5.83,0,3.47.19,5.7,2.36,5.85,5.55.18,3.85-1.64,6.47-5.32,6.75-4.23.33-8.5.17-12.75.13a1.55,1.55,0,0,1-1-1.12c-.08-3.4,0-6.8,0-10.21,0-1,.58-1.17,1.41-1.16,2,0,4,0,6,0Z" style="fill: #573b7e"/>
    <path d="M68.58,24.76c1.94,0,3.9-.14,5.83,0,3.16.29,4.6,1.92,4.69,5,.09,3.21-1.53,5.6-4.53,5.82-3.94.29-7.9.15-11.85.1-.32,0-.89-.76-.9-1.18-.08-2.86-.1-5.72,0-8.57a1.77,1.77,0,0,1,1.27-1.2c1.81-.14,3.64-.06,5.47-.06Z" style="fill: #573b7e"/>
  </g>
</svg>
