<svg id="Layer_1" data-name="Layer 1" xmlns="http://www.w3.org/2000/svg" width="144.65" height="120" viewBox="0 0 144.65 120">
  <title>tools</title>
  <path d="M67.44,5.78c1.47.07,2.94.17,4.39.38,4.68.68,9.14,2,13,4.77a14.25,14.25,0,0,1,6.09,10,21.83,21.83,0,0,1-1.24,10.41,32.06,32.06,0,0,1-5.84,9.88A37.43,37.43,0,0,1,71.3,50.92,50.35,50.35,0,0,1,60.41,54.5a48.45,48.45,0,0,1-6.35,1,33.11,33.11,0,0,1-11.44-.7,15.57,15.57,0,0,1-7.14-4.15,7.67,7.67,0,0,1-2-3.29,2.06,2.06,0,0,1-.12-.92A.71.71,0,0,1,34.56,46c.5.39.87.91,1.34,1.32A13.13,13.13,0,0,0,41,50a20.59,20.59,0,0,0,6.89.83A42.6,42.6,0,0,0,57,49.34a44.14,44.14,0,0,0,13.22-5.85A34.28,34.28,0,0,0,80,34a20,20,0,0,0,3-6.68,10.6,10.6,0,0,0-.38-6.56,7.49,7.49,0,0,0-3.05-3.39,17.42,17.42,0,0,0-5.84-2.23,33,33,0,0,0-7.87-.64A52,52,0,0,0,56,15.81a71.54,71.54,0,0,0-14.38,5A108.88,108.88,0,0,0,27.69,28.5a57.05,57.05,0,0,0-10.07,8.2,27.73,27.73,0,0,0-5,7,17.61,17.61,0,0,0-1.76,6.48,13.67,13.67,0,0,0,2.7,9.09,30.44,30.44,0,0,0,4.75,5.14c2.87,2.55,6,4.78,9,7.17a55.69,55.69,0,0,1,5.81,5.15c.46.48.47.49,1.06.16l13.54-7.4a1.47,1.47,0,0,0,.45-.41,24,24,0,0,1,8.77-7.43,9.23,9.23,0,0,1,3.53-1,4.34,4.34,0,0,1,4.82,3.77,13.94,13.94,0,0,1,0,5.27c0,.07,0,.14,0,.25.25-.19.46-.36.69-.51A2.25,2.25,0,0,1,67.14,69a3.78,3.78,0,0,1,2,.58A1.87,1.87,0,0,1,70,71.94c-.69,2.66-1.4,5.31-2.09,8-.55,2.11-1.06,4.23-1.45,6.37a11.69,11.69,0,0,0-.12,3.78c0,.12,0,.3.14.33s.24-.13.33-.24a20.24,20.24,0,0,0,1.57-2.8c2.32-4.58,4.33-9.31,6.43-14,1.66-3.68,3.27-7.37,4.88-11.07a28.62,28.62,0,0,0,1.55-5,1.82,1.82,0,0,1,1.38-1.48,11.92,11.92,0,0,1,2.52-.47,11,11,0,0,1,3.7.11,2.48,2.48,0,0,1,1.22.66,1,1,0,0,1,.24,1.06,46.43,46.43,0,0,0-1.41,4.62,17.05,17.05,0,0,0-.16,5.43,16.33,16.33,0,0,0,2.07,6.07c0,.08,0,.21.15.23s.14-.12.18-.2c2.6-4.32,5.1-8.69,7.31-13.22a22.65,22.65,0,0,0,1.77-5.18,23.18,23.18,0,0,1,.73-2.42,1.19,1.19,0,0,1,.59-.69,7.26,7.26,0,0,1,2.57-.68,13.78,13.78,0,0,1,3.57-.09,3.22,3.22,0,0,1,1.91.76,1,1,0,0,1,.27,1.12,43.22,43.22,0,0,0-1.41,4.62,14,14,0,0,0-.16,5.28,13.88,13.88,0,0,0,.75,3.41c.67,1.61,1.5,3.15,2.29,4.71.11.24.25.15.4.07a29.73,29.73,0,0,1,6.2-2.14,31.66,31.66,0,0,1,5.22-.71,26.23,26.23,0,0,1,8.9,1,18.63,18.63,0,0,1,9.29,5.9,13.86,13.86,0,0,1,3.23,7.34,9.44,9.44,0,0,1-2.47,7.91,10.37,10.37,0,0,1-3.85,2.61,2.77,2.77,0,0,1-1.17.19.51.51,0,0,1-.51-.33.54.54,0,0,1,.12-.66,3.74,3.74,0,0,1,.76-.54,9.94,9.94,0,0,0,2.92-2.71,7,7,0,0,0,.74-6.69,12,12,0,0,0-5.47-6.31,20.59,20.59,0,0,0-7.06-2.44,32.77,32.77,0,0,0-5.5-.48,26.09,26.09,0,0,0-9.73,1.7c-.31.12-.36.25-.24.55a15.77,15.77,0,0,1,1.07,4.74A8.52,8.52,0,0,1,112,86a17.85,17.85,0,0,1-7.84,5.37,18.71,18.71,0,0,1-2.53.83,3.41,3.41,0,0,1-4.32-2.76,6,6,0,0,1,0-2,16.69,16.69,0,0,1,3.7-7.89A28.78,28.78,0,0,1,105.45,75a.32.32,0,0,0,.1-.48,44.38,44.38,0,0,1-2-4.25,44.31,44.31,0,0,1-1.74-6.51c0-.17-.06-.33-.1-.5-.14.07-.16.21-.22.32a110.72,110.72,0,0,1-7.94,13.56,1.55,1.55,0,0,0-.19,1.71,14.82,14.82,0,0,1,1.33,5.74A10.16,10.16,0,0,1,90,93.55a19.18,19.18,0,0,1-8.93,3.37,10,10,0,0,1-3.27-.09,2.32,2.32,0,0,1-1.89-2,3,3,0,0,1,.51-2,39.4,39.4,0,0,1,2.91-3.77c1.9-2.32,3.93-4.55,5.73-7,.48-.64.93-1.29,1.41-1.92a.39.39,0,0,0,0-.46c-.75-1.6-1.6-3.16-2.27-4.8a38.92,38.92,0,0,1-2-7.2c0-.07,0-.13-.07-.3-.36.9-.69,1.69-1,2.49C79,75.33,76.68,80.58,74,85.68q-2.14,4.14-4.43,8.2a13.51,13.51,0,0,1-3.77,4.42,3.32,3.32,0,0,1-3.41.48,3.75,3.75,0,0,1-2-2.25,10.36,10.36,0,0,1-.66-3.17,24,24,0,0,1,.2-5.22,4.88,4.88,0,0,0,0-.49,4.44,4.44,0,0,0-.45.95,83.55,83.55,0,0,1-4.17,8.82A9,9,0,0,1,53.31,100a5,5,0,0,1-3.79,1,4.83,4.83,0,0,1-3.72-2.45,19.06,19.06,0,0,1-2.59-6.23,19.33,19.33,0,0,1-.64-5.55,35.93,35.93,0,0,1,1.75-10c0-.11.07-.23.11-.34-.14-.1-.24,0-.33.07-2.54,1.36-5,2.83-7.5,4.28-.23.13-.26.22-.14.46A16.72,16.72,0,0,1,38,86.64a25.09,25.09,0,0,1-6.13,20,23.53,23.53,0,0,1-11.47,6.93,20.29,20.29,0,0,1-10.15,0,5.75,5.75,0,0,1-3.06-2.06,10.59,10.59,0,0,1-2.41-6,15.37,15.37,0,0,1,3.45-11,36.08,36.08,0,0,1,7.43-6.74,85,85,0,0,1,11.5-6.87l1.23-.67a12.12,12.12,0,0,0-1.25-1.06c-2.36-1.85-4.85-3.51-7.31-5.21a109.48,109.48,0,0,1-9.56-7.19A36.7,36.7,0,0,1,2.71,58.2,19.34,19.34,0,0,1,.1,51.62c0-.17,0-.37-.1-.52v-2a.29.29,0,0,0,.07-.2,14,14,0,0,1,.41-2.41,28.31,28.31,0,0,1,4-8.68A51.69,51.69,0,0,1,14.17,27,86.74,86.74,0,0,1,29.54,16.58a116.66,116.66,0,0,1,11.77-5.52A76.67,76.67,0,0,1,52.75,7.27c2-.46,4-.84,6.11-1.1,1.6-.2,3.21-.32,4.82-.39ZM32.57,88.39a19.5,19.5,0,0,0-.54-4.5c-.06-.24-.07-.59-.22-.67s-.42.19-.63.31A74.06,74.06,0,0,0,19.46,91.7a18.19,18.19,0,0,0-4.24,5.08,11.11,11.11,0,0,0-1.6,6c.11,2,1.05,3.27,3.36,3.34A10.56,10.56,0,0,0,21.73,105a17.75,17.75,0,0,0,6.4-4.9A17.85,17.85,0,0,0,32.57,88.39Zm17.36-1.82a15.85,15.85,0,0,0,.3,3.05,5.05,5.05,0,0,0,.84,2.25.77.77,0,0,0,1.24.16,4.32,4.32,0,0,0,.62-.66,16.16,16.16,0,0,0,1.62-2.9c1.07-2.29,1.93-4.67,2.86-7a100.12,100.12,0,0,0,3.78-11.19,10.59,10.59,0,0,0,.48-3c0-.59-.3-.86-.9-.89a2.92,2.92,0,0,0-1.3.27A9.48,9.48,0,0,0,56,69.34a26.34,26.34,0,0,0-2.68,4.16A26.69,26.69,0,0,0,49.93,86.57Zm58.26-6.65a6.85,6.85,0,0,0-.31-2c-.1-.35-.12-.35-.4-.1A18,18,0,0,0,102.29,86a3.27,3.27,0,0,0-.19,1.28c0,.38.17.46.52.33l.36-.15A7.79,7.79,0,0,0,108.19,79.92ZM88.6,84a95.39,95.39,0,0,1-6.91,8.09c-.09.1-.24.21-.16.36s.26.1.39.08a2.12,2.12,0,0,0,.45-.12,5.28,5.28,0,0,0,1.23-.68,13,13,0,0,0,4-4A6.28,6.28,0,0,0,88.6,84ZM60.05,87.58l0-.06,0,0v.06Z" style="fill: #cc6799"/>
</svg>
