<svg id="Layer_1" data-name="Layer 1" xmlns="http://www.w3.org/2000/svg" width="155.78" height="120" viewBox="0 0 155.78 120">
  <title>tools_ps</title>
  <g>
    <g>
      <path d="M43.26,6.5h69.26V73.87H43.26Z" style="fill: #001d26"/>
      <path d="M40.11,3.35V77h75.56V3.35ZM43.26,6.5h69.26V73.87H43.26ZM58.37,20.61c0-.23.44-.38.69-.38,2-.1,5-.16,8.13-.16,8.72,0,12.12,4.79,12.12,10.92,0,8-5.8,11.43-12.91,11.43-1.2,0-1.61-.06-2.46-.06V54.45c0,.25-.09.38-.37.38H58.75c-.25,0-.38-.1-.38-.38V20.61ZM64,37.32c.73.06,1.3.06,2.55.06,3.69,0,7.15-1.29,7.15-6.29,0-4-2.49-6-6.67-6-1.26,0-2.46.06-3,.09V37.32Zm27.08-3.74c-2.49,0-3.34,1.25-3.34,2.29s.57,1.92,3.9,3.66c5,2.39,6.49,4.69,6.49,8,0,5-3.84,7.75-9,7.75A13.83,13.83,0,0,1,82.61,54c-.22-.1-.25-.26-.25-.51V48.84c0-.31.16-.41.38-.25a11.69,11.69,0,0,0,6.33,1.86c2.48,0,3.52-1,3.52-2.46,0-1.13-.72-2.14-3.9-3.77-4.47-2.14-6.33-4.32-6.33-7.94,0-4.06,3.18-7.43,8.69-7.43a14.49,14.49,0,0,1,5.63.88.69.69,0,0,1,.32.63v4.32c0,.25-.16.41-.47.31a10.68,10.68,0,0,0-5.48-1.41Z" style="fill: #00c8ff"/>
    </g>
    <text transform="translate(0 113.9)" style="font-size: 31.20475959777832px;fill: #666;font-family: MyriadPro-Bold, Myriad Pro;font-weight: 700">Pho<tspan x="54.42" y="0" style="letter-spacing: -0.004991601305625496em">t</tspan><tspan x="65.72" y="0">oshop</tspan></text>
  </g>
</svg>
