<?xml version="1.0" encoding="utf-8"?>
<!-- Generator: Adobe Illustrator 19.2.1, SVG Export Plug-In . SVG Version: 6.00 Build 0)  -->
<svg version="1.1" id="Layer_1" xmlns="http://www.w3.org/2000/svg" xmlns:xlink="http://www.w3.org/1999/xlink" x="0px" y="0px"
	 width="144.6px" height="108.4px" viewBox="0 0 144.6 108.4" enable-background="new 0 0 144.6 108.4" xml:space="preserve">
<path fill="#CC6799" d="M67.4,0c1.5,0.1,2.9,0.2,4.4,0.4c4.7,0.7,9.1,2,13,4.8c3.4,2.5,5.5,5.8,6.1,10c0.5,3.6,0,7-1.2,10.4
	c-1.3,3.7-3.3,6.9-5.8,9.9c-3.5,4.1-7.7,7.4-12.6,9.7c-3.5,1.6-7.1,2.8-10.9,3.6c-2.1,0.5-4.2,0.8-6.3,1C50.2,50,46.4,50,42.6,49
	c-2.7-0.7-5.1-2.1-7.1-4.1c-0.9-0.9-1.7-2-2-3.3c-0.1-0.3-0.2-0.6-0.1-0.9c0.1-0.7,0.7-0.9,1.2-0.5c0.5,0.4,0.9,0.9,1.3,1.3
	c1.5,1.3,3.2,2.1,5.1,2.7c2.2,0.7,4.6,0.9,6.9,0.8c3.1-0.1,6.1-0.7,9.1-1.4c4.7-1.2,9.1-3.2,13.2-5.8c3.9-2.6,7.2-5.6,9.8-9.5
	c1.4-2.1,2.5-4.3,3-6.7c0.5-2.2,0.5-4.4-0.4-6.6c-0.6-1.5-1.7-2.5-3-3.4c-1.8-1.1-3.8-1.8-5.8-2.2c-2.6-0.6-5.2-0.7-7.9-0.6
	C62.5,8.8,59.2,9.3,56,10c-5,1.1-9.8,2.8-14.4,5c-4.8,2.2-9.5,4.8-13.9,7.7c-3.6,2.4-7.1,5-10.1,8.2c-2,2.1-3.7,4.4-5,7
	c-1,2-1.6,4.2-1.8,6.5c-0.3,3.4,0.8,6.4,2.7,9.1c1.4,1.9,3,3.6,4.8,5.1c2.9,2.5,6,4.8,9,7.2c2,1.6,4,3.3,5.8,5.2
	c0.5,0.5,0.5,0.5,1.1,0.2c4.5-2.5,9-4.9,13.5-7.4c0.2-0.1,0.3-0.2,0.4-0.4c2.4-3.1,5.2-5.7,8.8-7.4c1.1-0.5,2.3-0.9,3.5-1
	c2.6-0.1,4.3,1.2,4.8,3.8c0.4,1.8,0.3,3.5,0,5.3c0,0.1,0,0.1,0,0.2c0.2-0.2,0.5-0.4,0.7-0.5c0.4-0.3,0.8-0.4,1.3-0.4
	c0.7,0,1.4,0.2,2,0.6c0.9,0.5,1.2,1.3,0.9,2.3c-0.7,2.7-1.4,5.3-2.1,8c-0.5,2.1-1.1,4.2-1.4,6.4c-0.2,1.2-0.3,2.5-0.1,3.8
	c0,0.1,0,0.3,0.1,0.3c0.2,0,0.2-0.1,0.3-0.2c0.6-0.9,1.1-1.8,1.6-2.8c2.3-4.6,4.3-9.3,6.4-14c1.7-3.7,3.3-7.4,4.9-11.1
	c0.7-1.6,1.2-3.3,1.5-5c0.2-0.8,0.6-1.2,1.4-1.5c0.8-0.2,1.7-0.4,2.5-0.5c1.2-0.1,2.5-0.2,3.7,0.1c0.5,0.1,0.9,0.3,1.2,0.7
	c0.3,0.3,0.4,0.6,0.2,1.1c-0.5,1.5-1.1,3-1.4,4.6c-0.4,1.8-0.3,3.6-0.2,5.4c0.2,2.2,1.1,4.2,2.1,6.1c0,0.1,0.1,0.2,0.2,0.2
	c0.1,0,0.1-0.1,0.2-0.2c2.6-4.3,5.1-8.7,7.3-13.2c0.8-1.7,1.4-3.4,1.8-5.2c0.2-0.8,0.5-1.6,0.7-2.4c0.1-0.3,0.3-0.5,0.6-0.7
	c0.8-0.4,1.7-0.6,2.6-0.7c1.2-0.1,2.4-0.2,3.6-0.1c0.7,0.1,1.4,0.3,1.9,0.8c0.3,0.3,0.4,0.7,0.3,1.1c-0.5,1.5-1.1,3-1.4,4.6
	c-0.4,1.7-0.4,3.5-0.2,5.3c0.2,1.2,0.3,2.3,0.7,3.4c0.7,1.6,1.5,3.2,2.3,4.7c0.1,0.2,0.2,0.1,0.4,0.1c2-0.9,4.1-1.7,6.2-2.1
	c1.7-0.4,3.5-0.6,5.2-0.7c3-0.2,6,0.1,8.9,1c3.7,1.1,6.8,3,9.3,5.9c1.8,2.1,2.9,4.6,3.2,7.3c0.3,3-0.4,5.7-2.5,7.9
	c-1.1,1.2-2.4,2-3.9,2.6c-0.4,0.1-0.8,0.2-1.2,0.2c-0.2,0-0.4-0.1-0.5-0.3c-0.1-0.2-0.1-0.5,0.1-0.7c0.2-0.2,0.5-0.4,0.8-0.5
	c1.1-0.7,2.2-1.6,2.9-2.7c1.4-2.1,1.6-4.3,0.7-6.7c-1-2.8-2.9-4.8-5.5-6.3c-2.2-1.3-4.6-2-7.1-2.4c-1.8-0.3-3.7-0.5-5.5-0.5
	c-3.3,0-6.6,0.5-9.7,1.7c-0.3,0.1-0.4,0.2-0.2,0.6c0.6,1.5,1,3.1,1.1,4.7c0.1,2.4-0.7,4.4-2.2,6.1c-2.1,2.5-4.7,4.3-7.8,5.4
	c-0.8,0.3-1.7,0.6-2.5,0.8c-2.2,0.5-3.9-0.7-4.3-2.8c-0.1-0.7-0.1-1.3,0-2c0.4-3,1.9-5.5,3.7-7.9c1.3-1.7,2.8-3.2,4.5-4.6
	c0.2-0.2,0.2-0.3,0.1-0.5c-0.7-1.4-1.4-2.8-2-4.3c-0.8-2.1-1.3-4.3-1.7-6.5c0-0.2-0.1-0.3-0.1-0.5c-0.1,0.1-0.2,0.2-0.2,0.3
	c-2.4,4.7-4.9,9.2-7.9,13.6c-0.4,0.6-0.5,1-0.2,1.7c0.8,1.8,1.3,3.7,1.3,5.7c0,3.8-1.6,6.8-4.7,8.9c-2.7,1.9-5.7,3-8.9,3.4
	c-1.1,0.1-2.2,0.2-3.3-0.1c-1-0.2-1.8-1-1.9-1.9c-0.1-0.7,0.1-1.4,0.5-2c0.9-1.3,1.9-2.5,2.9-3.8c1.9-2.3,3.9-4.5,5.7-6.9
	c0.5-0.6,0.9-1.3,1.4-1.9c0.1-0.2,0.1-0.3,0-0.5c-0.8-1.6-1.6-3.2-2.3-4.8c-0.9-2.3-1.5-4.8-2-7.2c0-0.1,0-0.1-0.1-0.3
	c-0.4,0.9-0.7,1.7-1,2.5C79,69.6,76.7,74.8,74,79.9c-1.4,2.8-2.9,5.5-4.4,8.2c-1,1.7-2.2,3.3-3.8,4.4c-1,0.8-2.2,1-3.4,0.5
	c-1-0.4-1.6-1.3-2-2.2c-0.4-1-0.6-2.1-0.7-3.2c-0.1-1.8,0-3.5,0.2-5.2c0-0.1,0-0.3,0-0.5c-0.2,0.4-0.3,0.7-0.5,1
	c-1.3,3-2.6,6-4.2,8.8c-0.6,1-1.2,1.9-2.1,2.6c-1.1,0.9-2.4,1.1-3.8,1c-1.7-0.1-2.8-1.1-3.7-2.4c-1.3-1.9-2.1-4-2.6-6.2
	c-0.4-1.8-0.7-3.7-0.6-5.5c0.2-3.4,0.6-6.7,1.7-10c0-0.1,0.1-0.2,0.1-0.3c-0.1-0.1-0.2,0-0.3,0.1c-2.5,1.4-5,2.8-7.5,4.3
	c-0.2,0.1-0.3,0.2-0.1,0.5c0.8,1.7,1.3,3.5,1.5,5.4c0.2,1.3,0.3,2.7,0.2,4c-0.2,6.1-2.1,11.5-6.3,16c-3.2,3.4-7,5.8-11.5,6.9
	c-3.4,0.9-6.8,0.9-10.2,0c-1.3-0.3-2.2-1.1-3.1-2.1c-1.4-1.8-2.2-3.8-2.4-6c-0.3-4.1,0.9-7.8,3.4-11c2.1-2.7,4.7-4.8,7.4-6.7
	c3.6-2.6,7.5-4.9,11.5-6.9c0.4-0.2,0.8-0.4,1.2-0.7c-0.4-0.4-0.8-0.7-1.3-1.1c-2.4-1.8-4.8-3.5-7.3-5.2c-3.3-2.3-6.5-4.6-9.6-7.2
	c-2.9-2.5-5.5-5.2-7.6-8.5c-1.2-2-2.2-4.2-2.6-6.6c0-0.2,0-0.4-0.1-0.5c0-0.7,0-1.4,0-2c0.1-0.1,0.1-0.1,0.1-0.2
	c0.1-0.8,0.2-1.6,0.4-2.4c0.8-3.1,2.2-6,4-8.7c2.7-4.1,6-7.6,9.7-10.8c4.7-4.1,9.9-7.4,15.4-10.4c3.8-2.1,7.7-3.9,11.8-5.5
	c3.7-1.5,7.5-2.9,11.4-3.8c2-0.5,4.1-0.8,6.1-1.1c1.6-0.2,3.2-0.3,4.8-0.4C64.9,0,66.2,0,67.4,0z M32.6,82.6c0-1.5-0.2-3-0.5-4.5
	c-0.1-0.2-0.1-0.6-0.2-0.7c-0.2-0.1-0.4,0.2-0.6,0.3c-4.1,2.4-8.1,5-11.7,8.2c-1.7,1.5-3.2,3.1-4.2,5.1c-1,1.9-1.7,3.8-1.6,6
	c0.1,2,1.1,3.3,3.4,3.3c1.7,0.1,3.2-0.4,4.7-1.1c2.5-1.1,4.6-2.8,6.4-4.9C31,91,32.6,87.1,32.6,82.6z M49.9,80.8
	c0,0.8,0.1,1.9,0.3,3.1c0.2,0.8,0.3,1.6,0.8,2.2c0.4,0.5,0.8,0.5,1.2,0.2c0.2-0.2,0.4-0.4,0.6-0.7c0.7-0.9,1.2-1.9,1.6-2.9
	c1.1-2.3,1.9-4.7,2.9-7c1.4-3.7,2.8-7.4,3.8-11.2c0.3-1,0.5-2,0.5-3c0-0.6-0.3-0.9-0.9-0.9c-0.5,0-0.9,0.1-1.3,0.3
	c-1.4,0.6-2.5,1.6-3.5,2.7c-1.1,1.3-1.9,2.7-2.7,4.2C51.1,71.7,50,75.9,49.9,80.8z M108.2,74.1c0-0.7-0.1-1.4-0.3-2.1
	c-0.1-0.4-0.1-0.4-0.4-0.1c-2.5,2.3-4.2,5-5.2,8.2c-0.1,0.4-0.2,0.8-0.2,1.3c0,0.4,0.2,0.5,0.5,0.3c0.1,0,0.2-0.1,0.4-0.1
	C106.4,80.3,108.2,77.7,108.2,74.1z M88.6,78.2c-2.1,2.9-4.5,5.5-6.9,8.1c-0.1,0.1-0.2,0.2-0.2,0.4c0.1,0.2,0.3,0.1,0.4,0.1
	c0.2,0,0.3-0.1,0.5-0.1c0.4-0.2,0.8-0.4,1.2-0.7c1.6-1.1,3-2.3,4-4C88.3,80.8,88.7,79.6,88.6,78.2z M60,81.8
	C60,81.8,60,81.8,60,81.8C60,81.8,60,81.8,60,81.8C60,81.8,60,81.8,60,81.8C60,81.8,60,81.8,60,81.8z"/>
</svg>
