<svg id="Layer_1" data-name="Layer 1" xmlns="http://www.w3.org/2000/svg" width="79.87" height="120" viewBox="0 0 79.87 120">
  <title>tools</title>
  <g>
    <path d="M0,24.06A2.22,2.22,0,0,1,.93,24H78.82c1.27,0,1.07-.06,1,1.08-.19,2.41-.43,4.82-.64,7.24-.13,1.58-.25,3.16-.39,4.74q-.32,3.66-.65,7.32c-.13,1.53-.25,3-.38,4.57q-.42,4.69-.83,9.4c-.13,1.52-.25,3-.39,4.56-.21,2.53-.44,5.06-.66,7.59-.19,2.24-.37,4.48-.56,6.72-.21,2.42-.43,4.83-.64,7.24-.14,1.58-.26,3.16-.4,4.74l-.66,7.41c-.12,1.47-.24,2.93-.37,4.4-.1,1.18-.26,2.35-.3,3.53,0,.59-.29.77-.79.91-1.84.49-3.67,1-5.5,1.53q-12.6,3.52-25.21,7.07a5,5,0,0,1-2.84.06c-9.42-2.68-18.86-5.31-28.28-8l-2.75-.76a.66.66,0,0,1-.6-.69c-.13-1.72-.31-3.45-.47-5.17-.21-2.41-.43-4.82-.64-7.24-.13-1.58-.25-3.16-.39-4.74-.21-2.41-.43-4.82-.64-7.24-.15-1.69-.28-3.39-.42-5.08-.2-2.33-.41-4.66-.61-7-.15-1.67-.29-3.34-.43-5l-.63-7.06c-.14-1.61-.26-3.22-.4-4.83-.21-2.38-.43-4.77-.64-7.15-.19-2.21-.37-4.43-.56-6.64q-.33-3.7-.65-7.41C.32,28.11.16,26.1,0,24.06ZM66.27,62.62l-8.66,1.3c-1.71.26-3.41.53-5.13.77-.68.1-.69.06-.71-.6V50.41c0-.18,0-.35,0-.52,0-.34.14-.48.47-.46H66.88c.27,0,.41-.09.44-.39.22-2.55.47-5.11.68-7.67.06-.72,0-.73-.75-.73H43.85c-.8,0-.81,0-.81.8q0,16.38,0,32.75c0,.22-.08.46.13.65.4,0,.8-.09,1.2-.15l12.37-2c.49-.08.55,0,.5.49-.08.86-.2,1.72-.29,2.58-.26,2.43-.5,4.87-.76,7.31-.1.94-.12.93-1,1.18L43.75,87.43c-.7.2-.7.21-.71.93V96c0,.14,0,.29,0,.43s.11.38.37.32l.67-.18,12.16-3.37,6.82-1.9c.3-.08.59-.11.63-.56.14-1.78.33-3.56.49-5.34.26-2.81.49-5.63.75-8.45q.57-6.06,1.15-12.14C66.16,64.11,66.2,63.42,66.27,62.62ZM12.82,81.18a1.74,1.74,0,0,0-.08.78v7.53c0,.78,0,.79.75,1Q24.23,93.41,35,96.33a8.76,8.76,0,0,0,1.77.41,2.54,2.54,0,0,0,.09-1.12q0-26.9,0-53.8c0-.17,0-.34,0-.52,0-.65,0-.66-.68-.66H29.33c-1.35,0-1.21-.18-1.21,1.19q0,21.14,0,42.27c0,.26,0,.52,0,.78s-.14.3-.35.26a4.67,4.67,0,0,1-.5-.14L14.16,81.45A3.41,3.41,0,0,0,12.82,81.18Z" style="fill: #e9ca33"/>
    <path d="M53.56,6H44.12c-.66,0-.68,0-.67.65,0,1.28-.19,1.08,1.09,1.09h8.23c.75,0,.79-.15.79.81,0,2.59,0,5.19,0,7.79,0,.62,0,.63-.61.63H40.13c-.63,0-.64,0-.64-.6,0-.93,0-1.85,0-2.77,0-.49.17-.58.6-.57h8.4c1.31,0,1.14.2,1.15-1.14,0-.63,0-.64-.69-.64h-9.1c-.25,0-.37-.12-.35-.38a2.25,2.25,0,0,0,0-.26V2.7c0-.69,0-.7.73-.7H52.85c.7,0,.7,0,.71.72Z" style="fill: #666"/>
    <path d="M37.32,9.53c0,2.25,0,4.5,0,6.75,0,.64,0,.65-.67.66H27.39c-.6,0-.61,0-.62-.62V13.64c0-.63,0-.63.69-.64H32.3a4.51,4.51,0,0,1,.52,0c.41,0,.56-.11.55-.54,0-1.23,0-2.48,0-3.72v-6c0-.86,0-.78.81-.78H36.5c.91,0,.82,0,.82.86Z" style="fill: #666"/>
  </g>
</svg>
