<?xml version="1.0" encoding="utf-8"?>
<!-- Generator: Adobe Illustrator 19.2.1, SVG Export Plug-In . SVG Version: 6.00 Build 0)  -->
<svg version="1.1" id="Layer_1" xmlns="http://www.w3.org/2000/svg" xmlns:xlink="http://www.w3.org/1999/xlink" x="0px" y="0px"
	 width="79.9px" height="112.3px" viewBox="0 0 79.9 112.3" enable-background="new 0 0 79.9 112.3" xml:space="preserve">
<g>
	<path fill="#E54D26" d="M0,22.1C0.3,21.9,0.7,22,1,22c26,0,51.9,0,77.9,0c1,0,1.1,0,1,1.1c-0.3,3-0.5,6.1-0.8,9.1
		c-0.2,2.3-0.4,4.5-0.6,6.8c-0.2,2.4-0.4,4.8-0.6,7.2c-0.2,2.2-0.4,4.5-0.6,6.7c-0.2,2.4-0.4,4.8-0.6,7.2c-0.2,2.2-0.4,4.4-0.6,6.6
		c-0.2,2.5-0.4,4.9-0.7,7.4c-0.2,2.9-0.5,5.8-0.7,8.6c-0.2,2.5-0.4,4.9-0.7,7.4c-0.2,2.9-0.5,5.8-0.7,8.6c-0.1,1.3-0.2,2.6-0.3,3.9
		c0,0.4-0.2,0.5-0.6,0.6c-1.5,0.4-3,0.9-4.6,1.3c-9,2.5-18,5-27,7.6c-0.6,0.2-1.1,0.1-1.7,0c-10.4-2.9-20.8-5.8-31.2-8.7
		c-0.9-0.3-0.9-0.3-1-1.2C6.6,98.5,6.3,94.8,6,91.1c-0.4-4.7-0.8-9.3-1.2-14C4.4,72.9,4,68.6,3.6,64.4C3.2,60,2.9,55.5,2.5,51.1
		c-0.4-4.3-0.8-8.6-1.1-12.9c-0.3-3-0.5-6.1-0.8-9.1c-0.2-2.2-0.4-4.4-0.6-6.6C0,22.3,0,22.2,0,22.1z M15,38.7
		c0,1.3,0.2,2.6,0.3,3.9c0.2,3.1,0.5,6.2,0.8,9.2c0.2,2.2,0.4,4.3,0.6,6.5c0.3,3.2,0.6,6.3,0.8,9.5c0.1,1.1,0.1,1.1,1.1,1.1
		c10.8,0,21.5,0,32.3,0c0.1,0,0.3,0,0.4,0c0.6,0,0.6,0,0.5,0.6c-0.3,3.8-0.6,7.7-0.8,11.5c0,0.5-0.2,0.7-0.7,0.8
		c-3.3,0.9-6.7,1.8-10,2.8c-0.3,0.1-0.6,0.1-0.9,0c-3.3-0.9-6.7-1.8-10-2.8c-0.4-0.1-0.6-0.3-0.6-0.7c-0.1-2.2-0.3-4.4-0.5-6.6
		c-0.1-0.8,0-0.8-0.9-0.8c-2.9,0-5.8,0-8.8,0c-0.3,0-0.5-0.1-0.8,0.1c0,0.1,0,0.2,0,0.3c0.2,2.6,0.5,5.2,0.7,7.8
		c0.2,2.1,0.4,4.1,0.5,6.2c0.1,0.8,0.1,0.8,0.9,1.1c6.4,1.8,12.8,3.5,19.2,5.3c0.5,0.1,0.9,0.1,1.4,0c2.8-0.8,5.6-1.5,8.4-2.3
		c3.6-1,7.1-2,10.7-2.9c0.8-0.2,0.8-0.2,0.9-1.1c0.2-2.4,0.4-4.8,0.6-7.2c0.2-2.3,0.4-4.7,0.6-7c0.2-2.3,0.4-4.7,0.6-7
		c0.2-2.3,0.4-4.7,0.6-7c0.1-1.2,0.1-1.2-1-1.2c-11.3,0-22.6,0-33.9,0c-1.1,0-0.9,0.1-1-0.9c-0.2-2.7-0.4-5.4-0.6-8
		c-0.1-1.4-0.2-1.2,1.1-1.2c11.8,0,23.5,0,35.3,0c1.2,0,1,0.2,1.2-1.1c0.2-1.4,0.2-2.8,0.4-4.1c0.1-1.4,0.2-2.9,0.4-4.3
		c0-0.6,0-0.6-0.5-0.6c-0.1,0-0.2,0-0.3,0c-16.1,0-32.1,0-48.2,0C15.6,38.6,15.3,38.6,15,38.7z"/>
	<path fill="#666666" d="M49.2,5.7c0.5-0.9,1-1.6,1.4-2.3c0.6-1,1.2-2,1.8-3C52.6,0.1,52.8,0,53.2,0c1.2,0,2.4,0,3.6,0
		c0.7,0,0.7,0,0.7,0.7c0,3.1,0,6.3,0,9.4c0,1.4,0,2.7,0,4.1c0,0.7,0,0.7-0.7,0.7c-1.1,0-2.3,0-3.4,0c-0.9,0-0.8-0.1-0.8-0.7
		c0-1.8,0-3.7,0-5.5c0-0.3,0-0.6,0-0.8c-0.1,0-0.1,0-0.2-0.1c-1.1,1.8-2.2,3.5-3.3,5.4c-1.2-1.9-2.2-3.6-3.3-5.4c-0.1,0-0.1,0-0.2,0
		c0,0.2,0,0.4,0,0.6c0,1.9,0,3.9,0,5.8c0,0.7,0,0.7-0.7,0.7c-1.2,0-2.4,0-3.6,0c-0.5,0-0.6-0.2-0.6-0.6c0-1.5,0-2.9,0-4.4
		c0-3.1,0-6.2,0-9.3c0-0.7,0-0.7,0.7-0.7c1.2,0,2.4,0,3.6,0c0.5,0,0.7,0.2,1,0.6C47,2.2,48,3.9,49.2,5.7z"/>
	<path fill="#666666" d="M22.4,7.5c0,2.2,0,4.4,0,6.7c0,0.8,0,0.8-0.8,0.8c-1.1,0-2.2,0-3.3,0c-0.7,0-0.7,0-0.7-0.7
		c0-1.2,0-2.4,0-3.5c0-0.5-0.2-0.6-0.6-0.6c-1.4,0-2.7,0-4.1,0c-0.6,0-0.6,0-0.6,0.6c0,1.2,0,2.4,0,3.6c0,0.6,0,0.6-0.6,0.6
		c-1.2,0-2.4,0-3.6,0c-0.4,0-0.6-0.1-0.6-0.6c0-4.6,0-9.2,0-13.8C7.4,0,7.5,0,8.1,0c1.2,0,2.4,0,3.6,0c0.5,0,0.6,0.2,0.6,0.6
		c0,1.4,0,2.7,0,4.1c0,0.6,0,0.6,0.6,0.6c1.3,0,2.7,0,4,0c0.7,0,0.7,0,0.7-0.7c0-1.3,0-2.7,0-4c0-0.6,0-0.6,0.7-0.7
		c1.1,0,2.3,0,3.4,0c0.8,0,0.8,0,0.8,0.8C22.4,3.1,22.4,5.3,22.4,7.5z"/>
	<path fill="#666666" d="M31.6,0c2.1,0,4.2,0,6.3,0c0.7,0,0.7,0,0.7,0.6c0,1.2,0,2.4,0,3.6c0,0.5-0.2,0.6-0.6,0.6
		c-1.2,0-2.4,0-3.6,0c-0.7,0-0.7,0-0.7,0.7c0,2.8,0,5.6,0,8.4c0,0.2,0,0.4,0,0.6c0,0.2-0.1,0.4-0.3,0.4c-1.4,0-2.8,0-4.2,0
		C29,15,29,14.8,29,14.6c0-0.4,0-0.8,0-1.1c0-2.6,0-5.3,0-7.9c0-0.7,0-0.7-0.7-0.7c-1,0-2.1,0-3.1,0c-0.5,0-0.6-0.2-0.6-0.6
		c0-1.2,0-2.4,0-3.6c0-0.6,0-0.6,0.6-0.6C27.3,0,29.5,0,31.6,0z"/>
	<path fill="#666666" d="M71.5,10.1c0,1.6,0,3.2,0,4.7C71.3,15,71.1,15,70.9,15c-3.5,0-7,0-10.5,0c-0.7,0-0.7,0-0.7-0.7
		c0-4.5,0-9,0-13.5c0-0.7,0-0.7,0.8-0.7c1.2,0,2.3,0,3.5,0c0.6,0,0.6,0,0.6,0.6c0,2.9,0,5.7,0,8.6c0,1.1-0.1,0.9,0.9,0.9
		C67.4,10.1,69.4,10.1,71.5,10.1z"/>
</g>
</svg>
