<?xml version="1.0" encoding="utf-8"?>
<!-- Generator: Adobe Illustrator 19.2.1, SVG Export Plug-In . SVG Version: 6.00 Build 0)  -->
<svg version="1.1" id="Layer_1" xmlns="http://www.w3.org/2000/svg" xmlns:xlink="http://www.w3.org/1999/xlink" x="0px" y="0px"
	 width="79.8px" height="112.3px" viewBox="0 0 79.8 112.3" enable-background="new 0 0 79.8 112.3" xml:space="preserve">
<g>
	<path fill="#666666" d="M52.7,4c0,0.1-0.1,0.1-0.1,0.1c-0.1,1.6-0.1,1.6,1.4,1.6c2.7,0,5.3,0,8,0c0.7,0,0.7,0,0.7,0.7
		c0,2.6,0,5.3,0,7.9c0,0.6,0,0.6-0.7,0.6c-4.2,0-8.5,0-12.7,0c-0.6,0-0.6,0-0.7-0.7c0-0.9,0-1.8,0-2.7c0-0.4,0.1-0.6,0.6-0.6
		c0.9,0,1.8,0,2.8,0c2,0,4.1,0,6.1,0c0.6,0,0.6,0,0.6-0.6c0-1.4,0.2-1.1-1.1-1.2c-2.7,0-5.5,0-8.2,0c-0.8,0-0.7,0.1-0.7-0.7
		c0-2.6,0-5.3,0-7.9c0-0.6,0-0.7,0.7-0.7c4.2,0,8.5,0,12.7,0c0.7,0,0.7,0,0.7,0.7c0,0.9,0,1.8,0,2.7c0,0.6,0,0.6-0.6,0.6
		c-2.8,0-5.6,0-8.4,0C53.4,4,53,4,52.7,4z"/>
	<path fill="#666666" d="M32.4,14.8c0-1.1,0-2.2,0-3.4c0-0.4,0.2-0.5,0.5-0.5c1.3,0,2.6,0,3.9,0c1.7,0,3.3,0,5,0
		c0.6,0,0.7,0,0.7-0.6c0-1.5,0.2-1.2-1.2-1.2c-2.7,0-5.4,0-8.1,0c-0.8,0-0.8,0-0.8-0.7c0-2.6,0-5.2,0-7.8c0-0.7,0-0.7,0.7-0.7
		c4.2,0,8.4,0,12.6,0c0.7,0,0.7,0,0.7,0.7c0,0.8,0,1.7,0,2.5c0,0.7,0.1,0.7-0.7,0.7c-1.9,0-3.9,0-5.8,0c-1,0-2.1,0-3.1,0
		c-0.4,0-0.5,0.1-0.5,0.5c0,1.3-0.1,1.3,1.2,1.3c2.7,0,5.4,0,8.1,0c0.8,0,0.8-0.1,0.8,0.8c0,2.6,0,5.2,0,7.8c0,0.4,0,0.7-0.5,0.6
		c-4.4,0-8.9,0-13.3,0C32.6,14.9,32.6,14.9,32.4,14.8z"/>
	<path fill="#666666" d="M16.2,7.5c0-2.3,0-4.6,0-6.8c0-0.7,0-0.7,0.7-0.7c4.2,0,8.5,0,12.7,0c0.7,0,0.7,0,0.7,0.7
		c0,0.9,0,1.8,0,2.7c0,0.6,0,0.6-0.6,0.6c-2.7,0-5.4,0-8,0c-0.5,0-1-0.2-1.3,0.1c-0.3,0.3-0.1,0.9-0.1,1.3c0,1.6,0,3.2,0,4.8
		c0,0.9-0.1,0.8,0.8,0.8c2.8,0,5.5,0,8.3,0c0.2,0,0.3,0,0.5,0c0.3,0,0.5,0.1,0.5,0.4c0,1,0,2,0,3c0,0.4-0.2,0.5-0.5,0.5
		c-0.1,0-0.2,0-0.3,0c-4.1,0-8.2,0-12.3,0c-0.2,0-0.4,0-0.6,0c-0.2,0-0.3-0.1-0.3-0.3c0-0.2,0-0.4,0-0.6
		C16.2,11.8,16.2,9.7,16.2,7.5z"/>
	<path fill="#026FBA" d="M0,25.7c0,0,0.4,2.9,0.6,5.2c0.2,2.3,0.4,4,0.6,6.3c0.3,2.9,0.5,5.5,0.8,8.5c0.2,2.4,0.4,4.6,0.6,6.9
		c0.3,3,0.5,5.8,0.8,8.8c0.2,2.4,0.4,4.7,0.6,7.1c0.3,2.9,0.5,5.8,0.8,8.8c0.3,3,0.5,6,0.8,9c0.3,3.1,0.5,6.2,0.8,9.3
		c0.2,2.3,0.4,4.7,0.6,7c0,0.6,0.3,0.8,0.9,0.9c10.4,2.9,20.9,5.8,31.3,8.8c0.6,0.2,1.2,0.1,1.8,0c6.6-1.8,13.2-3.7,19.7-5.5
		c3.8-1.1,7.7-2.2,11.5-3.2c0.7-0.2,0.8-0.2,0.8-0.9c0.2-2.4,0.4-4.7,0.6-7.1c0.3-3.7,0.6-7.3,0.9-11c0.3-3.9,0.7-7.8,1-11.6
		c0.2-2.8,0.5-5.6,0.7-8.4c0.3-3.1,0.5-6.2,0.8-9.2c0.2-2.3,0.4-4.6,0.6-6.9c0.3-3.1,0.5-6.2,0.8-9.2c0.2-2.2,0.4-4.2,0.6-6.4
		c0.3-3.1,0.8-7,0.8-7H0z M15.7,38.6c-0.3,0-0.5,0-0.8,0.1c0,0,0,0,0,0C15.2,38.6,15.5,38.6,15.7,38.6z M31.4,92.5
		c-3.8-1-7.6-2.1-11.3-3.1c-0.7-0.2-0.7-0.2-0.8-1c-0.2-2.2-0.4-4.5-0.6-6.7c-0.2-2.4-0.4-4.8-0.6-7.2c-0.1-0.6-0.1-0.6,0.5-0.6
		c3.1,0,6.1,0,9.2,0c0.4,0,0.6,0.1,0.6,0.6c0.1,2.2,0.3,4.5,0.5,6.7c0,0.4,0.2,0.7,0.6,0.8c3.4,0.9,6.8,1.9,10.2,2.8
		c0.1,0,0.2,0,0.3,0c0-4.9,0-9.8,0-14.8c0,4.9,0,9.8,0,14.8c1-0.1,1.8-0.4,2.8-0.7c2.6-0.7,5.1-1.4,7.7-2.1c0.4-0.1,0.7-0.3,0.7-0.8
		c0.2-3.8,0.5-7.6,0.8-11.4c0.1-0.8,0-0.8-0.7-0.8c-2.7,0-5.4,0-8.1,0c-1,0-2,0-3,0c-0.3,0-0.7,0-1,0c-6.7,0-13.5,0-20.2,0
		c-0.2,0-0.4,0-0.6,0c-0.6,0-0.6,0-0.7-0.6c-0.1-0.7-0.1-1.4-0.2-2.1c-0.2-2.3-0.4-4.7-0.6-7c-0.1-1-0.1-0.8,0.7-1.2
		c5.9-3,11.8-5.9,17.7-8.9c0.2-0.1,0.3-0.2,0.5-0.3c-0.3-0.2-0.6-0.1-0.8-0.1c-6,0-12,0-17.9,0c-0.2,0-0.4,0-0.6,0
		c-0.4,0-0.6-0.1-0.6-0.5c-0.3-3.1-0.5-6.3-0.8-9.4c0-0.1,0-0.1,0-0.2c0.4,0,0.7,0,1.1,0c15.8,0,31.7,0,47.5,0
		c1.4,0,1.3-0.2,1.2,1.3c-0.2,2.6-0.5,5.3-0.7,7.9c0,0.6-0.3,1-0.9,1.2c-6.1,3-12.2,9-18.3,12c-0.3,0.1-0.6,3.4-0.9,3.4
		c0.4,0,0.7,0,1,0c5.6,0,11.3,0,16.9,0c1.3,0,1.2-2.9,1.1-1.6c-0.2,2.3-0.4,3.2-0.6,5.5c-0.2,2.3-0.4,3.9-0.6,6.2
		c-0.3,3.2-0.6,6.1-0.8,9.3c-0.1,1.6-0.3,3-0.4,4.6c-0.1,0.8-0.1,0.7-0.9,0.9c-4.4,1.2-8.9,2.4-13.3,3.6c-2.2,0.6-4.3,1.2-6.5,1.8
		c0,1.6,0,3.3,0,4.9c0-1.6,0-3.3,0-4.9C37.1,94.1,34.2,93.3,31.4,92.5z"/>
</g>
</svg>
