<svg id="Layer_1" data-name="Layer 1" xmlns="http://www.w3.org/2000/svg" width="253.81" height="120" viewBox="0 0 253.81 120">
  <title>tools_github</title>
  <g>
    <g>
      <path d="M0,66.74A56.92,56.92,0,0,1,.51,61a44.38,44.38,0,0,1,1.86-7.6A16.09,16.09,0,0,1,15,42.77a36,36,0,0,1,16.73.71c2.86.79,2.84.87,2.12,3.77-.36,1.45-.74,2.88-1,4.34-.21,1.08-.7,1.31-1.73,1a26.11,26.11,0,0,0-11.25-.91,9.32,9.32,0,0,0-8.38,7,26.66,26.66,0,0,0,.07,15.84c1.36,4.4,4.42,6.55,9,6.61,1.56,0,3.13-.17,4.69-.23.69,0,.94-.32.94-1,0-2.47,0-4.93,0-7.4,0-.7-.22-1-.95-1-1.52,0-3.05,0-4.57,0-.88,0-1.29-.25-1.26-1.21.05-2.11,0-4.22,0-6.34,0-.87.36-1.17,1.19-1.16q7.23,0,14.44,0c1,0,1.3.41,1.29,1.35q0,10.8,0,21.6a1.64,1.64,0,0,1-1,1.64A27.2,27.2,0,0,1,20,90.3a34.13,34.13,0,0,1-8.23-1.64C5.52,86.42,2.3,81.48,1,75.21.52,73,.43,70.64.17,68.35.12,67.89.06,67.44,0,67Z" style="fill: #573b7e"/>
      <path d="M92.35,70.83V88.69c0,1.73,0,1.73-1.77,1.73-2.35,0-4.7,0-7,0-1,0-1.3-.34-1.3-1.31q0-21.48,0-43c0-1.07.41-1.35,1.4-1.33,2.46,0,4.93,0,7.39,0,1,0,1.37.32,1.36,1.35,0,4.74,0,9.48,0,14.21v1.37h14.88v-15c0-1.91,0-1.91,2-1.91h6.34c1.84,0,1.84,0,1.84,1.8V84.21c0,1.64,0,3.29,0,4.93,0,1-.37,1.31-1.33,1.29-2.5,0-5-.05-7.51,0-1,0-1.36-.39-1.36-1.38,0-5.63,0-11.27.06-16.91,0-1-.24-1.41-1.35-1.4-4.07.07-8.15,0-12.22,0C93.3,70.77,92.92,70.81,92.35,70.83Z" style="fill: #573b7e"/>
      <path d="M144.66,87.45a19.93,19.93,0,0,1-11.2,3,21,21,0,0,1-5.29-.9c-4.11-1.36-5.62-4.72-5.71-8.69-.15-7.08,0-14.17-.07-21.25,0-.75.29-1.07,1-1.07,2.71,0,5.41,0,8.11,0,1.07,0,1.05.68,1.05,1.42q0,8.75,0,17.5c0,.58,0,1.17.07,1.75.21,2.15,1,3,3.15,3.23a10.2,10.2,0,0,0,5.44-1.12c.7-.33.66-.87.66-1.46q0-9.87,0-19.73c0-1.54,0-1.58,1.57-1.58,2.42,0,4.85,0,7.28,0,.9,0,1.23.32,1.23,1.24q0,14.26,0,28.53c0,1-.34,1.33-1.3,1.29a40.23,40.23,0,0,0-4.11,0c-1.13.07-1.72-.28-1.72-1.45A2.81,2.81,0,0,0,144.66,87.45Z" style="fill: #573b7e"/>
      <path d="M70.17,58.47h5.65c1.56,0,1.63.08,1.64,1.68V65c0,1.66,0,1.66-1.73,1.67H70.28c0,.45-.09.78-.09,1.12,0,3.68,0,7.36,0,11,0,2.27,1,3.39,3.29,3.57a20.48,20.48,0,0,0,2.93,0c.79,0,1.15.23,1.14,1.06,0,1.76,0,3.52-.06,5.28a1.4,1.4,0,0,1-.82,1,17.77,17.77,0,0,1-10.29,0q-6.06-1.92-6.18-9.49c-.06-4,0-8.06,0-12.09V66.64c-1.41,0-2.73,0-4,0-.93,0-1.24-.34-1.21-1.24q.07-2.17,0-4.35c0-.83.3-1.17,1.1-1.32,1.34-.26,2.66-.63,4.16-1V54.23c0-1.17,0-2.35,0-3.52-.05-.85.31-1.07,1.1-1.06,2.62,0,5.24,0,7.86,0,.85,0,1.07.32,1.06,1.11C70.15,53.26,70.17,55.76,70.17,58.47Z" style="fill: #573b7e"/>
      <path d="M52,74.77c0,4.65,0,9.31,0,14,0,1.58-.1,1.68-1.65,1.69-2.31,0-4.62,0-6.93,0-1.07,0-1.56-.41-1.55-1.53q0-14.14,0-28.29c0-.95.35-1.35,1.31-1.34,2.5,0,5,0,7.51,0,1,0,1.34.42,1.33,1.41C51.94,65.38,52,70.07,52,74.77Z" style="fill: #573b7e"/>
      <path d="M52.38,50.34a5.6,5.6,0,1,1-5.49-5.54A5.55,5.55,0,0,1,52.38,50.34Z" style="fill: #573b7e"/>
      <path d="M187.4,66.52c-.94-4.2-3.19-7.51-7.63-8.47a23.51,23.51,0,0,0-7-.22,38.28,38.28,0,0,0-5.63,1.51V58.08c0-4.23.2-8.45.24-12.68,0-1-.17-1.48-1.29-1.45-2.5.07-4.95,0-7.45,0-1,0-1.29.36-1.27,1.32.05,2.07,0,4.15,0,6.22q0,18.2,0,36.38c0,1.65,0,1.67,1.62,1.68h4.11c1.68,0,1.69,0,2-1.73,0-.15.05-.3.09-.54,4.66,2.5,6.52,3.07,10.17,3.14,6.13.12,9.91-2.34,11.49-7.78A32.3,32.3,0,0,0,187.4,66.52ZM178,76.32a18.68,18.68,0,0,1-.59,3.34,3.51,3.51,0,0,1-3.31,2.7,11.44,11.44,0,0,1-5.83-.92,1.14,1.14,0,0,1-.82-1.23c0-2.07,0-4.15,0-6.22s0-4.07,0-6.1c0-.68.16-1.17.84-1.33a30.61,30.61,0,0,1,4.66-1c2.32-.15,3.73,1,4.49,3.17A18.54,18.54,0,0,1,178,76.32Z" style="fill: #573b7e"/>
    </g>
    <path d="M191.9,60c-.09-17.18,13.39-29.85,27.69-31,9.63-.78,18.15,1.91,25.09,8.82a29.7,29.7,0,0,1,9,18.76c.9,9.76-1.82,18.39-8.81,25.4a30.2,30.2,0,0,1-22.08,9.21A31,31,0,0,1,191.9,60Zm36.45,11.4c2.43,2,2.61,4.56,2.55,7.21,0,1.6,0,3.19,0,4.78,0,1.4.26,1.55,1.58,1a24.65,24.65,0,0,0,8.57-5.57c6.44-6.5,9-14.33,7.51-23.36A26,26,0,0,0,208,38.32a25.27,25.27,0,0,0-8.94,10.84,26.42,26.42,0,0,0,15.59,35.78c1.34.47,1.64.25,1.67-1.17,0-1.59,0-3.18,0-4.79-.83.09-1.57.19-2.31.25a6.21,6.21,0,0,1-6.43-3.85,16.56,16.56,0,0,0-.91-1.78,6.45,6.45,0,0,0-2.06-2c-.34-.23-.77-.51-.58-1s.72-.37,1.12-.36a4,4,0,0,1,2.4,1A7.47,7.47,0,0,1,209.1,73a5.1,5.1,0,0,0,6.66,2.1c.27-.11.66-.15.72-.44a7.67,7.67,0,0,1,2-3.29,22.57,22.57,0,0,1-7-1.83,11.1,11.1,0,0,1-4.92-4.66c-.45-.77-.63-1.26-1.54-1.19,0,0-.06-.08-.13-.17l1.11-.13c0-.14,0-.23,0-.31-1.17-4.65-1.46-9.19,1.82-13.23.28-.34.19-.62.09-1a11.16,11.16,0,0,1,.23-6.27c.23-.73.65-.81,1.29-.72a16,16,0,0,1,6.08,2.57,1.56,1.56,0,0,0,1.35.25c4-.88,8-1.28,12-.14a2,2,0,0,0,1.64-.35,14.17,14.17,0,0,1,5.59-2.4c.94-.14,1.44.07,1.7,1.09a11.4,11.4,0,0,1,.28,5.22,1.34,1.34,0,0,0,.35,1.35,11.06,11.06,0,0,1,2.8,7.76,21.88,21.88,0,0,1-.94,7.56h4.34a14.54,14.54,0,0,1-3.35.19,1.49,1.49,0,0,0-1.65.92,7.9,7.9,0,0,1-3.55,3.45A19.88,19.88,0,0,1,228.35,71.37ZM224.19,86.1c-.32-3.33-.23-6.66-.31-10,0-.28.22-.78-.27-.81s-.38.46-.39.76c0,.87,0,1.75,0,2.63a61.64,61.64,0,0,1-.12,6.38C222.92,86.35,223.29,86.37,224.19,86.1Zm-4.11-10.52a3.35,3.35,0,0,0-.8,2.5c-.16,2.5.4,5-.34,7.49-.07.22,0,.31.18.36s.46.09.57-.11a2.42,2.42,0,0,0,.37-1C220.09,81.79,220.08,78.8,220.08,75.58Zm7.08.08c0,3.37,0,6.44,0,9.51,0,.36.11.7.57.61a.5.5,0,0,0,.38-.67c-.45-2.32-.1-4.67-.2-7A4.19,4.19,0,0,0,227.16,75.66Z" style="fill: #573b7e"/>
  </g>
</svg>
