<svg id="Layer_1" data-name="Layer 1" xmlns="http://www.w3.org/2000/svg" width="217.12" height="79.87" viewBox="0 0 217.12 79.87">
  <title>tools</title>
  <g>
    <path d="M77.42,1.13h18L50.64,78.79,5.81,1.14H23.75q3.83,6.62,7.63,13.23,9.35,16.19,18.68,32.37c.44.77.64.89,1.13,0,3-5.28,6.08-10.53,9.12-15.79Q66.57,20.11,72.82,9.25C74.37,6.55,76.06,3.93,77.42,1.13Z" style="fill: #4db987"/>
    <path d="M77.42,1.13c-1.36,2.8-3,5.42-4.6,8.12Q66.58,20.13,60.31,31c-3,5.26-6.11,10.51-9.12,15.79-.49.87-.69.75-1.13,0q-9.31-16.2-18.68-32.37Q27.57,7.76,23.75,1.14c5.33,0,10.65,0,16-.06.67,0,.83.42,1.07.83l9.21,16,.64,1.05c.82-1.41,1.59-2.71,2.34-4q3.77-6.49,7.51-13c.25-.43.43-.83,1.08-.83C66.85,1.12,72.14,1.12,77.42,1.13Z" style="fill: #435466"/>
    <path d="M113.54,46.7l4.3-14.61c1.41-4.78,2.85-9.54,4.2-14.34.6-2.15,1.93-2.18,3.43-1.27a1.51,1.51,0,0,1,.74,1.94q-5,16.29-10,32.59a2.58,2.58,0,0,1-2.76,1.91,2.49,2.49,0,0,1-2.7-2q-5.05-16.33-10.08-32.68c-.31-1,.16-1.65,1.47-2.1s2.17-.16,2.52.94c.77,2.42,1.48,4.87,2.2,7.31Q110,35,113.16,45.62C113.24,45.87,113.33,46.11,113.54,46.7Z" style="fill: #435466"/>
    <path d="M158.13,41.83c-.76,0-1,.11-1.06,1-.22,4.62,3.39,7,8,6.65a9.11,9.11,0,0,0,4-1.44c1.2-.7,1.84-.58,2.45.33s.53,1.69-.56,2.54a11.18,11.18,0,0,1-8,2.06c-3.91-.3-7.22-1.76-9.15-5.46a6.27,6.27,0,0,1-.74-2.14,30.78,30.78,0,0,1,0-9c.74-4.48,5.07-7.81,9.8-7.79a9.52,9.52,0,0,1,9.44,7.57,8.88,8.88,0,0,1,.15,1.93c0,2.63-1.19,3.82-3.84,3.87-1.75,0-3.5,0-5.25,0C163.38,41.9,159.88,41.88,158.13,41.83Zm4.18-2.77h4.79c1.08,0,1.48-.59,1.45-1.61a5.69,5.69,0,0,0-1.17-3.38A5.84,5.84,0,0,0,157,38.54c.07.57.36.57.76.57C159.27,39.11,162.31,39.07,162.31,39.06Z" style="fill: #435466"/>
    <path d="M148.05,37.36c0,1.94,0,3.88,0,5.82a9.9,9.9,0,0,1-19.79.19c-.09-4.19,0-8.38,0-12.56a1.89,1.89,0,0,1,2-2,2,2,0,0,1,2.14,2c0,4.15,0,8.3,0,12.45a5.93,5.93,0,0,0,4.44,5.81c3.53.89,7-2,7.05-5.94,0-4.08,0-8.15,0-12.22a1.91,1.91,0,0,1,2.1-2.11A1.88,1.88,0,0,1,148.05,31Z" style="fill: #435466"/>
    <path d="M202.69,53a13.5,13.5,0,0,1-5.79-1.35,4.72,4.72,0,0,1-2-1.7,1.82,1.82,0,0,1,.44-2.28c.62-.68,1.26-.31,1.82.13a8.92,8.92,0,0,0,7.88,1.54,2.8,2.8,0,0,0,2.39-2.3,3.25,3.25,0,0,0-1.34-3.31,9,9,0,0,0-2.67-1.24c-1.41-.47-2.84-.86-4.22-1.4-2.29-.9-3.82-2.49-3.92-5.09s.84-5,3.31-6.29c3.61-1.86,7.29-1.52,10.86.22a1.47,1.47,0,0,1,.78,2.33c-.56,1.06-1.17,1.28-2.34.74a9.06,9.06,0,0,0-6.19-.87,3.78,3.78,0,0,0-1.6.83,2.87,2.87,0,0,0,.5,4.91c1.76.93,3.75,1.22,5.61,1.88,3.29,1.16,5,3.39,5.05,6.53a6.22,6.22,0,0,1-4.2,6A12.17,12.17,0,0,1,202.69,53Z" style="fill: #435466"/>
    <path d="M190.11,43.61c0,4.14,0,8.29,0,12.43a9.88,9.88,0,0,1-1.49,5.2,6.17,6.17,0,0,1-5.39,2.87,1.93,1.93,0,0,1-1.92-1.19,1.77,1.77,0,0,1,.33-1.92,2.07,2.07,0,0,1,1.53-.62,2.62,2.62,0,0,0,2.54-2.21,14.26,14.26,0,0,0,.3-3.63V31a2,2,0,0,1,2.66-2.12,1.79,1.79,0,0,1,1.55,2c0,4.22,0,8.45,0,12.67Z" style="fill: #435466"/>
    <path d="M178.64,47.66a2.6,2.6,0,0,1,0,5.2,2.6,2.6,0,1,1,0-5.2Z" style="fill: #435466"/>
    <path d="M188.07,17.59a2.45,2.45,0,0,1,2.51,2.4,2.55,2.55,0,0,1-5.09-.06A2.47,2.47,0,0,1,188.07,17.59Z" style="fill: #435466"/>
  </g>
</svg>
