<svg id="Layer_1" data-name="Layer 1" xmlns="http://www.w3.org/2000/svg" width="140.78" height="116.5" viewBox="0 0 140.78 116.5">
  <title>tools</title>
  <text transform="translate(27.54 109.14)" style="font-size: 31.20475959777832px;fill: #059be3;font-family: Roboto-Light, Roboto"><tspan style="letter-spacing: -0.012690246579505573em">X</tspan><tspan x="18.7" y="0">code</tspan></text>
  <g>
    <path d="M70.45,67.45l-1.2,2.85c-.16.38-.33.74-.49,1.11l-1.94.3-3.33.52-3.89.61L56,73.42l-3.28.52-3.59.56-3.62.58-3.31.51-2.87.46c-.34.06-.35,0-.4-.3-.16-1.13-.34-2.26-.51-3.39,0-.14,0-.28,0-.42s.06-.23-.05-.31,0,0,0-.07.06-.23-.07-.3l0-.12c.09-.12,0-.29.15-.42,1-1,2-2,3-3l.6,3.85c.06.37.06.36.43.3l5.7-.9,6.65-1,6.37-1,6.36-1Z" style="fill: #059be3"/>
    <path d="M38.22,71.26c.13.07.06.19.07.3C38.21,71.47,38.24,71.36,38.22,71.26Z" style="fill: #05a9f2"/>
    <path d="M38.29,71.63c.11.08.05.2.05.31C38.27,71.84,38.3,71.73,38.29,71.63Z" style="fill: #05a9f2"/>
    <g>
      <path d="M80.54,69.55a17.72,17.72,0,0,0-.5,1.72c-.37,1.31-.73,2.62-1.1,3.93a3.83,3.83,0,0,1-2.51,2.56,4.74,4.74,0,0,1-3.36.06c-.62-.21-1.26-.37-1.86-.62a4.53,4.53,0,0,1-2.72-4.28,5.16,5.16,0,0,1,.27-1.51c.16-.37.33-.73.49-1.11l1.2-2.85c.08-.18.17-.35.25-.54.48-1.14,1-2.28,1.45-3.43a.64.64,0,0,0,.08-.14L78.38,49c.41-1,.81-1.93,1.22-2.89s.89-2,1.32-3c.35-.83.73-1.65,1-2.49.23-.52.46-1,.68-1.56q.94-2.15,1.87-4.31l.72.22,4.47,1.4a1,1,0,0,1-.08.37l-.57,2.14c-.23.8-.46,1.61-.68,2.41-.29,1-.56,2.06-.85,3.09-.12.45-.26.89-.38,1.34-.27,1-.54,1.94-.8,2.9-.22.79-.45,1.58-.67,2.37-.27,1-.57,2-.8,2.94a2.09,2.09,0,0,0-.08.23c-.37,1.34-.75,2.67-1.11,4-.2.74-.44,1.48-.6,2.24v0a.64.64,0,0,0-.11.36v0a.15.15,0,0,0,0,.13,0,0,0,0,0,0,0c-.06,0-.05.12-.06.18s0,0,0,0a.25.25,0,0,0-.05.19.76.76,0,0,0-.12.46,1.13,1.13,0,0,0-.19.53c-.31,1.09-.6,2.2-.9,3.3l-.3,1.08c-.1.36-.22.72-.31,1.08C80.85,68.37,80.64,68.94,80.54,69.55Z" style="fill: #424343"/>
      <path d="M99.24,19.79c.16,1,.32,2,.47,2.95l.57,3.57.63,3.86c.19,1.18.37,2.36.56,3.54l.63,3.89.57,3.54c.21,1.3.41,2.59.62,3.89l.57,3.54c.19,1.18.38,2.36.56,3.54s.39,2.39.58,3.59.42,2.57.62,3.86l.57,3.54c.12.72.22,1.44.35,2.16,0,.15,0,.18-.14.2l-2.61.42-3.63.57L96.54,67l-3.62.57-3.6.57-4,.63c-.31,0-.63.08-.94.12.15-.08.17-.24.21-.39.19-.63.38-1.27.55-1.91a8.15,8.15,0,0,0,.38-1.53l.08-.06.3,0,5.29-.84,11.12-1.75c.21,0,.26-.11.22-.32-.18-1.05-.35-2.11-.52-3.17L100.91,52l-1.17-7.24c-.35-2.19-.71-4.38-1.06-6.57l-1.11-6.87c-.26-1.62-.53-3.25-.8-4.88.1,0,.1-.1.12-.16.68-1.88,1.35-3.76,2-5.63C99,20.37,99.13,20.08,99.24,19.79Z" style="fill: #059be3"/>
      <path d="M34.92,49.67c-.1-.64-.21-1.28-.31-1.92-.19-1.23-.37-2.47-.56-3.71s-.42-2.78-.64-4.17c-.16-1.09-.33-2.18-.5-3.28s-.35-2.29-.53-3.44l-.57-3.7-.51-3.33-.57-3.7c0-.19-.05-.38-.08-.56s0-.2.16-.22l2.93-.44,3.73-.58,3.36-.51,3.35-.52,3-.45,3.38-.53,3-.45,3.73-.57,3.39-.52,2.61-.4,3-.46a3.39,3.39,0,0,1,.77-.1c0,.07-.05.11-.09.16L65.33,18c-.62.65-1.26,1.29-1.88,1.93-.08.08-.17.15-.15.28l-.74.12-6.21.94-5.51.85-5.11.77-5.56.86-5.08.77c-.23,0-.3.1-.26.34q.45,2.88.88,5.78c.3,2,.61,3.94.91,5.91s.6,3.9.89,5.85c.21,1.36.41,2.71.62,4.07-.11,0-.16.08-.22.14-.21.23-.41.46-.62.68-.7.71-1.39,1.43-2.07,2.17C35.14,49.55,35.07,49.66,34.92,49.67Z" style="fill: #29b4f4"/>
      <path d="M79.24,6.17A4.75,4.75,0,0,0,78.18,6c-1-.1-1.94-.14-2.91-.19s-1.84,0-2.76,0c-.25,0-.32-.08-.33-.33a.78.78,0,0,1,.45-.86,16.84,16.84,0,0,1,3.69-1.35,29.22,29.22,0,0,1,4-.73c1-.12,2.09-.21,3.14-.27,1.22-.08,2.44-.12,3.67-.1a22.77,22.77,0,0,1,3.4.34,31.42,31.42,0,0,1,5.06,1.34,30.3,30.3,0,0,1,2.94,1.22,20.5,20.5,0,0,1,2.36,1.26.83.83,0,0,1,.26.19s0,.09,0,.14q-.72,2.28-1.46,4.58a2.83,2.83,0,0,1-.45.86,3.68,3.68,0,0,1-4.1,1.24l-5.58-1.81c-.69-.22-1.36-.48-2.07-.64l-.1-.08c.1-.07,0-.13,0-.19a8.38,8.38,0,0,0-.92-1.23,9.67,9.67,0,0,0-3.47-2.3A12.65,12.65,0,0,0,79.24,6.17Z" style="fill: #d5dce0"/>
      <path d="M87.42,10.88c.71.16,1.38.42,2.07.64l5.58,1.81a3.68,3.68,0,0,0,4.1-1.24,2.83,2.83,0,0,0,.45-.86q.73-2.3,1.46-4.58c0-.05,0-.09,0-.14.3.32.49.71.76,1a4.76,4.76,0,0,0,2.24,1.72,1.82,1.82,0,0,0,2-.42c.12-.12.17-.3.31-.4a.66.66,0,0,1,0,.24l-.81,2.52q-.82,2.59-1.67,5.18c0,.12,0,.26-.14.36a2,2,0,0,0-1.42-1.88,4.45,4.45,0,0,0-3.72.59,1.84,1.84,0,0,0-.61.34,7.39,7.39,0,0,0-2.17,2.57.51.51,0,0,1-.26.28c-.06-.17-.22-.15-.34-.19l-3.73-1.17-2.65-.83,0-.15c0-.46-.09-.91-.16-1.36a10.1,10.1,0,0,0-.46-2.1,7.93,7.93,0,0,0-.71-1.8C87.47,11,87.45,10.93,87.42,10.88Z" style="fill: #8fa4ae"/>
      <path d="M88.21,12.85a10.1,10.1,0,0,1,.46,2.1c.07.45.11.9.16,1.36h-.16l-7.12,1.09-9.39,1.45L63.3,20.21c0-.13.07-.2.15-.28.62-.64,1.26-1.28,1.88-1.93L67,16.27c0-.05.09-.09.09-.16l7.89-1.21,7.61-1.17L88,12.9Z" style="fill: #05a9f2"/>
      <path d="M41.37,67.73c-1,1-2,2-3,3-.13.13-.06.3-.15.42q-.41-2.69-.83-5.37c-.26-1.71-.52-3.42-.79-5.14l-.78-5.1L35,50.39c0-.24-.06-.48-.1-.72.15,0,.22-.12.3-.21.68-.74,1.37-1.46,2.07-2.17.21-.22.41-.45.62-.68.06-.06.11-.14.22-.14,0,.17,0,.34.08.51l1.11,7.27c.36,2.31.7,4.62,1,6.93S41,65.54,41.37,67.73Z" style="fill: #05a9f2"/>
      <path d="M102.34,14.87a2,2,0,0,1,1.42,1.88c.11-.1.1-.24.14-.36q.84-2.58,1.67-5.18l.81-2.52a.66.66,0,0,0,0-.24h0s0-.06.06-.1,0-.24.22-.18L110,9.33c.14.05.15.13.1.25-.65,1.85-1.29,3.69-1.93,5.54l-1,2.76c-.12.35-.12.36-.51.24l-3-.88c-.17,0-.25-.09-.21-.3a1.73,1.73,0,0,0-1-1.93C102.43,15,102.35,15,102.34,14.87Z" style="fill: #d5dce0"/>
      <path d="M79.24,6.17a12.65,12.65,0,0,1,3.68.91,9.67,9.67,0,0,1,3.47,2.3,8.38,8.38,0,0,1,.92,1.23c0,.06.11.12,0,.19A20,20,0,0,0,82.5,9.25a31.8,31.8,0,0,0-3.25-.48c-.67-.07-1.35-.12-2-.17-1-.06-2-.1-3-.1-.17,0-.22-.06-.22-.22,0-.72,0-.73.69-.95,1.41-.43,2.84-.81,4.29-1.1Z" style="fill: #7a919c"/>
      <path d="M95.58,18.65a.51.51,0,0,0,.26-.28A7.39,7.39,0,0,1,98,15.8a1.84,1.84,0,0,1,.61-.34c.23,1.29.45,2.57.68,3.86a.76.76,0,0,1-.06.47c-.11.29-.22.58-.32.88-.68,1.87-1.35,3.75-2,5.63,0,.06,0,.15-.12.16-.2-1.26-.41-2.52-.62-3.78s-.43-2.51-.64-3.76Z" style="fill: #0377bc"/>
      <path d="M85.53,65.08a8.15,8.15,0,0,1-.38,1.53c-.17.64-.36,1.28-.55,1.91,0,.15-.06.31-.21.39l-1.47.27-2,.38h-.14c.06-.64.28-1.25.39-1.88a3,3,0,0,0,.17-1l.3-1.08a3.47,3.47,0,0,0,.45-.06Z" style="fill: #0377bc"/>
      <path d="M81.31,66.7a3,3,0,0,1-.17,1c-.11.63-.33,1.24-.39,1.88a.22.22,0,0,0-.21,0c.1-.6.31-1.17.46-1.76C81.09,67.42,81.21,67.06,81.31,66.7Z" style="fill: #049be3"/>
      <path d="M106.47,8.35s0,.08-.06.1S106.41,8.36,106.47,8.35Z" style="fill: #8fa4ae"/>
      <path d="M41.37,67.73q-.49-3.28-1-6.55c-.35-2.31-.69-4.62-1-6.93L38.21,47c0-.17-.06-.34-.08-.51-.21-1.36-.41-2.71-.62-4.07q-.43-2.92-.89-5.85c-.3-2-.61-3.94-.91-5.91s-.58-3.86-.88-5.78c0-.24,0-.31.26-.34l5.08-.77,5.56-.86,5.11-.77,5.51-.85,6.21-.94.74-.12,8.86-1.35,9.39-1.45,7.12-1.09h.16l0,.15a14.83,14.83,0,0,1,0,2.58,2.07,2.07,0,0,1-.09.82h0l-.06,0-3,.48-6.76,1.06-6.47,1-6.74,1-6.07,1-6,.94-6.45,1-5.4.84-2.52.39c-.2,0-.26.1-.21.31s.1.61.14.91l1,6.26c.3,1.93.59,3.85.88,5.78.34,2.2.68,4.41,1,6.61s.67,4.35,1,6.53.67,4.39,1,6.58c.2,1.3.41,2.59.61,3.88.15,1,.32,2.07.46,3.1,0,.19.08.21.26.18L50.15,67l6.39-1L62.42,65l6.34-1,3.39-.53c-.48,1.15-1,2.29-1.45,3.43-.08.19-.17.36-.25.54l-3,.46-6.36,1-6.37,1L48.1,71l-5.7.9c-.37.06-.37.07-.43-.3Z" style="fill: #fcfdfd"/>
      <path d="M72.15,63.48,68.76,64l-6.34,1L56.54,66l-6.39,1-4.83.78c-.18,0-.23,0-.26-.18-.14-1-.31-2.07-.46-3.1a2.39,2.39,0,0,0,.23-.22l7-7c.09-.09.15-.21.31-.19l-.69,8.31.2-.21L54.33,62,57,58.78c.23-.27.23-.27-.09-.4l-1.67-.69c-.9-.38-1.81-.71-2.69-1.13.45-.48,1-.92,1.38-1.42l.23.07c1.18.49,2.36,1,3.53,1.49.23.1.3,0,.39-.16,1-2.51,2-5,3-7.54.24-.65.46-1.31.76-1.93a.64.64,0,0,0,.14-.08c.49-.45,1-.89,1.46-1.35L65,44.12A1,1,0,0,1,65.1,44l-1,2.38-.84,2.05a.69.69,0,0,0,.32,0l5.63-.91L77,46.32c.08,0,.19,0,.23-.06s-.07-.15-.13-.21c-1.25-1.47-2.51-2.92-3.75-4.39a.55.55,0,0,0-.6-.22l-5.88.94c0-.15.11-.22.2-.31,1.57-1.57,3.13-3.14,4.73-4.68.07-.06.12-.14.22-.14l.1.09c1.07,1.32,2.2,2.58,3.26,3.91,1.34,1.67,2.76,3.29,4.22,4.86-.41,1-.81,1.92-1.22,2.89L72.23,63.34A.64.64,0,0,1,72.15,63.48Z" style="fill: #049be3"/>
      <path d="M79.6,46.11c-1.46-1.57-2.88-3.19-4.22-4.86-1.06-1.33-2.19-2.59-3.26-3.91l-.1-.09,0-.09L65.68,29.8A1.75,1.75,0,0,1,66,27.24c.46-.35.93-.68,1.38-1a1.74,1.74,0,0,1,2.55.21L73.75,31l2.07,2.4.06.09c1.41,1.69,2.89,3.33,4.27,5.05.57.72,1.21,1.39,1.82,2.08-.32.84-.7,1.66-1,2.49C80.49,44.08,80,45.09,79.6,46.11Z" style="fill: #fcfdfd"/>
      <path d="M88.73,19.86a2.07,2.07,0,0,0,.09-.82,14.83,14.83,0,0,0,0-2.58l2.65.83,3.73,1.17c.12,0,.28,0,.34.19l-.07.27a.57.57,0,0,0-.11.33l0,0c-.66,2.05-1.41,4.07-2.13,6.1a2.22,2.22,0,0,0-.21.72.87.87,0,0,0-.07.17c-.94,2.93-1.87,5.87-2.81,8.8a7.57,7.57,0,0,1-.43,1.24l-4.47-1.4-.72-.22c.53-1.6,1.07-3.2,1.59-4.8.63-2,1.37-3.88,1.89-5.87a22.62,22.62,0,0,0,.63-3.38A3,3,0,0,0,88.73,19.86Z" style="fill: #d5dce0"/>
      <path d="M88.63,20.65A22.62,22.62,0,0,1,88,24c-.52,2-1.26,3.91-1.89,5.87-.52,1.6-1.06,3.2-1.59,4.8q-.93,2.16-1.87,4.31c-.22.52-.45,1-.68,1.56-.61-.69-1.25-1.36-1.82-2.08-1.38-1.72-2.86-3.36-4.27-5.05l-.06-.09a3,3,0,0,0,.26-.24L88,21.22C88.18,21,88.41,20.84,88.63,20.65Z" style="fill: #049be3"/>
      <path d="M89.71,36.32a7.57,7.57,0,0,0,.43-1.24c.94-2.93,1.87-5.87,2.81-8.8a.87.87,0,0,1,.07-.17,7,7,0,0,0,.19,1.57c.21,1.43.44,2.84.67,4.26.13.77.25,1.53.38,2.29a8.93,8.93,0,0,1-.44,1.53c-.62,2-1.12,3.93-1.68,5.89a2,2,0,0,1-.23.71c-.23-1.22-.46-2.43-.67-3.65,0-.18-.06-.23-.25-.19-.59.12-1.18.21-1.77.32h-.16l.57-2.14A1,1,0,0,0,89.71,36.32Z" style="fill: #0478bd"/>
      <path d="M84.88,53.88c.23-1,.53-2,.8-2.94.22-.79.45-1.58.67-2.37.05,0,.12-.07.14-.12.1-.36.42-.53.67-.75a.9.9,0,0,1,1.12-.17,10,10,0,0,1,1.8,1.22l0,0c-.1.35-.19.7-.29,1q-.75,2.74-1.52,5.47A24.66,24.66,0,0,1,85.05,54Z" style="fill: #8fa4ae"/>
      <path d="M85.05,54a24.66,24.66,0,0,0,3.24,1.31s0,0,0,0a.24.24,0,0,0-.06.08c-.45,1.65-.91,3.29-1.34,5a2.34,2.34,0,0,0-.17.75l-.08.13-1.07.12-2.89.4a.76.76,0,0,1,.12-.46c.07,0,.05-.12.05-.19s0,0,0,0,0-.12.06-.18a0,0,0,0,1,0,0s0-.08,0-.13v0a.44.44,0,0,0,.11-.36v0a.51.51,0,0,0,.09-.16c.45-1.5.88-3,1.34-4.51A13.81,13.81,0,0,1,85.05,54Z" style="fill: #0377bc"/>
      <path d="M82.7,61.79l2.89-.4,1.07-.12,0,.13-1,3.62-.08.06-3.47.48a3.47,3.47,0,0,1-.45.06c.3-1.1.59-2.21.9-3.3A1.13,1.13,0,0,1,82.7,61.79Z" style="fill: #8fa4ae"/>
      <path d="M90.08,48.75a10,10,0,0,0-1.8-1.22.9.9,0,0,0-1.12.17c-.25.22-.57.39-.67.75,0,0-.09.08-.14.12.26-1,.53-1.93.8-2.9.12-.45.26-.89.38-1.34l.12.07c.92-.06,1.83-.25,2.75-.34a4.08,4.08,0,0,1,1-.1l0,.06c-.26,1-.53,2-.79,3A16.79,16.79,0,0,1,90.08,48.75Z" style="fill: #0377bc"/>
      <path d="M87.65,44.4l-.12-.07c.29-1,.56-2.06.85-3.09.22-.8.45-1.61.68-2.41h.16a.88.88,0,0,0,0,.15C88.66,40.79,88.15,42.6,87.65,44.4Z" style="fill: #fcfdfd"/>
      <path d="M85.05,54a13.81,13.81,0,0,0-.53,1.69c-.46,1.5-.89,3-1.34,4.51a.51.51,0,0,1-.09.16c.16-.76.4-1.5.6-2.24.36-1.34.74-2.67,1.11-4a2.09,2.09,0,0,1,.08-.23Z" style="fill: #049be3"/>
      <path d="M83.09,60.38a.44.44,0,0,1-.11.36A.64.64,0,0,1,83.09,60.38Z" style="fill: #049be3"/>
      <path d="M82.93,60.93c0,.06,0,.14-.06.18S82.87,61,82.93,60.93Z" style="fill: #049be3"/>
      <path d="M82.87,61.14c0,.07,0,.14-.05.19A.25.25,0,0,1,82.87,61.14Z" style="fill: #049be3"/>
      <path d="M83,60.76c0,.05,0,.1,0,.13A.15.15,0,0,1,83,60.76Z" style="fill: #049be3"/>
      <path d="M85.61,65l1-3.62,0-.13.08-.13.34,0c3.69-.59,7.38-1.19,11.07-1.77.23,0,.27-.12.23-.32q-.5-3.15-1-6.28c-.33-2.1-.67-4.21-1-6.31s-.71-4.49-1.06-6.73c-.31-1.92-.61-3.83-.91-5.75a2,2,0,0,1,.06-.26c.64-2.12,1.28-4.25,1.91-6.37a2.09,2.09,0,0,0,.21-.91c-.09-.57-.19-1.14-.29-1.71l-.9-5.44a.57.57,0,0,1,.11-.33c.21,1.25.43,2.5.64,3.76s.42,2.52.62,3.78c.27,1.63.54,3.26.8,4.88l1.11,6.87c.35,2.19.71,4.38,1.06,6.57L100.91,52l1.11,6.9c.17,1.06.34,2.12.52,3.17,0,.21,0,.28-.22.32L91.2,64.16,85.91,65Z" style="fill: #fcfdfd"/>
      <path d="M88.63,20.65c-.22.19-.45.37-.65.57L76.08,33.11a3,3,0,0,1-.26.24L73.75,31l-3.87-4.54a1.74,1.74,0,0,0-2.55-.21c-.45.36-.92.69-1.38,1a1.75,1.75,0,0,0-.27,2.56L72,37.16l0,.09c-.1,0-.15.08-.22.14-1.6,1.54-3.16,3.11-4.73,4.68-.09.09-.2.16-.2.31-.34.06-.69.13-1,.17a.27.27,0,0,0-.26.22c-.16.42-.28.86-.48,1.26a1,1,0,0,0-.13.09l-1.58,1.52c-.48.46-1,.9-1.46,1.35a.64.64,0,0,1-.14.08,1,1,0,0,1,.05-.18c.75-1.7,1.35-3.45,2.18-5.11.33-.67.56-1.39.85-2.08.07-.16,0-.19-.12-.25l-4.56-1.92c-.16-.07-.2,0-.27.12-.92,2.2-1.79,4.42-2.73,6.62-.81,1.89-1.53,3.82-2.3,5.72Q54,52.24,53,54.46c-.09.2,0,.28.14.35a3.49,3.49,0,0,1,.74.33c-.43.5-.93.94-1.38,1.42a.5.5,0,0,1-.13,0c-.21-.14-.27,0-.27.17l0,.4c-.16,0-.22.1-.31.19l-7,7a2.39,2.39,0,0,1-.23.22c-.2-1.29-.41-2.58-.61-3.88-.34-2.19-.67-4.39-1-6.58s-.66-4.35-1-6.53-.67-4.41-1-6.61c-.29-1.93-.58-3.85-.88-5.78l-1-6.26c0-.3-.07-.61-.14-.91s0-.28.21-.31l2.52-.39,5.4-.84,6.45-1,6-.94,6.07-1,6.74-1,6.47-1,6.76-1.06,3-.48.06,0h0A3,3,0,0,1,88.63,20.65ZM55.08,44.28c-.15,0-.24,0-.32,0l-5.34.85-2.11.34c-.1,0-.24,0-.21.2.24,1.7.46,3.4.68,5.1,0,.13.06.16.19.13l4.68-.74A.29.29,0,0,0,52.9,50c.12-.33.26-.65.39-1l1.8-4.49C55.11,44.45,55.28,44.27,55.08,44.28Zm11.74-9.63a1.72,1.72,0,0,0-1-1.52c-.56-.27-1.16-.47-1.7-.78a1.71,1.71,0,0,0-2.41.95c-.28.75-.59,1.48-.9,2.21-.08.19-.06.27.14.35l4.46,1.88c.18.07.25,0,.32-.13.32-.81.66-1.62,1-2.43A1.36,1.36,0,0,0,66.82,34.65Z" style="fill: #0cabf2"/>
      <path d="M88.69,19.85l-.06,0Z" style="fill: #d5dce0"/>
      <path d="M53.92,55.14a3.49,3.49,0,0,0-.74-.33c-.19-.07-.23-.15-.14-.35Q54,52.24,54.89,50c.77-1.9,1.49-3.83,2.3-5.72.94-2.2,1.81-4.42,2.73-6.62.07-.15.11-.19.27-.12l4.56,1.92c.13.06.19.09.12.25-.29.69-.52,1.41-.85,2.08-.83,1.66-1.43,3.41-2.18,5.11a1,1,0,0,0-.05.18c-.3.62-.52,1.28-.76,1.93-.93,2.54-2,5-3,7.54-.09.21-.16.26-.39.16-1.17-.51-2.35-1-3.53-1.49Z" style="fill: #fcfdfd"/>
      <path d="M65.1,44c.2-.4.32-.84.48-1.26a.27.27,0,0,1,.26-.22c.34,0,.69-.11,1-.17l5.88-.94a.55.55,0,0,1,.6.22c1.24,1.47,2.5,2.92,3.75,4.39.06.06.17.11.13.21s-.15.05-.23.06l-7.75,1.23-5.63.91a.69.69,0,0,1-.32,0l.84-2.05Z" style="fill: #fcfdfd"/>
      <path d="M52.11,57.1l0-.4c0-.21.06-.31.27-.17a.5.5,0,0,0,.13,0c.88.42,1.79.75,2.69,1.13l1.67.69c.32.13.32.13.09.4L54.33,62,51.62,65.2l-.2.21Z" style="fill: #fcfdfd"/>
      <path d="M95.4,19.25l.9,5.44c.1.57.2,1.14.29,1.71a2.09,2.09,0,0,1-.21.91c-.63,2.12-1.27,4.25-1.91,6.37a2,2,0,0,0-.06.26l-.15.29c-.13-.76-.25-1.52-.38-2.29-.23-1.42-.46-2.83-.67-4.26A7,7,0,0,1,93,26.11a2.22,2.22,0,0,1,.21-.72c.72-2,1.47-4.05,2.13-6.1Z" style="fill: #8fa4ae"/>
      <path d="M94.26,34.23l.15-.29c.3,1.92.6,3.83.91,5.75.35,2.24.71,4.49,1.06,6.73s.67,4.21,1,6.31.67,4.18,1,6.28c0,.2,0,.29-.23.32-3.69.58-7.38,1.18-11.07,1.77l-.34,0a2.34,2.34,0,0,1,.17-.75c.43-1.66.89-3.3,1.34-5a.24.24,0,0,1,.06-.08,6.24,6.24,0,0,1,2.89,2.81,3.61,3.61,0,0,0,.35-.75,10.91,10.91,0,0,0,.54-3.3,7.72,7.72,0,0,0-.37-2.83A5.83,5.83,0,0,0,90.1,48.8l0,0a16.79,16.79,0,0,0,.47-1.68c.26-1,.53-2,.79-3a3.29,3.29,0,0,0,.62-.08c.1,0,.14,0,.12-.16-.08-.38-.14-.76-.21-1.14l0-.28a2,2,0,0,0,.23-.71c.56-2,1.06-3.94,1.68-5.89A8.93,8.93,0,0,0,94.26,34.23Z" style="fill: #059be3"/>
      <path d="M91.91,42.36l0,.28-.12.3a5.18,5.18,0,0,1-.37,1,4.08,4.08,0,0,0-1,.1c-.92.09-1.83.28-2.75.34.5-1.8,1-3.61,1.52-5.41a.88.88,0,0,1,0-.15c.59-.11,1.18-.2,1.77-.32.19,0,.21,0,.25.19C91.45,39.93,91.68,41.14,91.91,42.36Z" style="fill: #8fa4ae"/>
      <path d="M90.1,48.8a5.83,5.83,0,0,1,1.62,2.49,7.72,7.72,0,0,1,.37,2.83,10.91,10.91,0,0,1-.54,3.3,3.61,3.61,0,0,1-.35.75,6.24,6.24,0,0,0-2.89-2.81s0,0,0,0q.76-2.73,1.52-5.47C89.91,49.5,90,49.15,90.1,48.8Z" style="fill: #fcfdfd"/>
      <path d="M91.38,44a5.18,5.18,0,0,0,.37-1l.12-.3c.07.38.13.76.21,1.14,0,.11,0,.15-.12.16a3.29,3.29,0,0,1-.62.08Z" style="fill: #fcfdfd"/>
      <path d="M55.08,44.28c.2,0,0,.17,0,.24L53.29,49c-.13.33-.27.65-.39,1a.29.29,0,0,1-.25.21L48,50.94c-.13,0-.17,0-.19-.13-.22-1.7-.44-3.4-.68-5.1,0-.21.11-.18.21-.2l2.11-.34,5.34-.85C54.84,44.3,54.93,44.3,55.08,44.28Z" style="fill: #fcfdfd"/>
      <path d="M66.82,34.65a1.36,1.36,0,0,1-.11.53c-.33.81-.67,1.62-1,2.43-.07.18-.14.2-.32.13l-4.46-1.88c-.2-.08-.22-.16-.14-.35.31-.73.62-1.46.9-2.21a1.71,1.71,0,0,1,2.41-.95c.54.31,1.14.51,1.7.78A1.72,1.72,0,0,1,66.82,34.65Z" style="fill: #fcfdfd"/>
    </g>
  </g>
</svg>
