<svg id="Layer_1" data-name="Layer 1" xmlns="http://www.w3.org/2000/svg" width="140.78" height="120" viewBox="0 0 140.78 120">
  <title>tools</title>
  <g>
    <path d="M35.33,5.67h70.11V73.86H35.33Z" style="fill: #261300"/>
    <path d="M32.15,2.48V77.05h76.48V2.48Zm3.18,3.19h70.11V73.86H35.33Z" style="fill: #ff7c00"/>
    <path d="M58.69,44.7l-2.51,9.56c-.07.26-.16.32-.48.32H51c-.31,0-.38-.09-.31-.47l9-31.68a10.78,10.78,0,0,0,.31-2.65c0-.22.1-.32.26-.32H67c.22,0,.32.07.38.32L77.53,54.17c.06.25,0,.41-.26.41H72c-.25,0-.41-.06-.48-.28l-2.64-9.6Zm8.86-5.16c-.89-3.54-3-11.25-3.79-15H63.7c-.67,3.73-2.36,10-3.7,15ZM81.89,21.82a3.25,3.25,0,0,1,6.5,0,3,3,0,0,1-3.31,3.25,3,3,0,0,1-3.19-3.25Zm.39,7.24c0-.26.09-.39.38-.39h5c.26,0,.38.1.38.39V54.2c0,.26-.06.38-.38.38H82.72c-.32,0-.41-.16-.41-.41V29.06Z" style="fill: #ff7c00"/>
  </g>
  <text transform="translate(0 114.9)" style="font-size: 31.20475959777832px;fill: #666;font-family: MyriadPro-Bold, Myriad Pro;font-weight: 700"><tspan style="letter-spacing: 0.002988701722177021em">I</tspan><tspan x="8.99" y="0">llust</tspan><tspan x="69.33" y="0" style="letter-spacing: -0.01098465240297523em">r</tspan><tspan x="80.85" y="0" style="letter-spacing: -0.00799595068079821em">a</tspan><tspan x="97.08" y="0" style="letter-spacing: -0.004991601305625496em">t</tspan><tspan x="108.37" y="0">or</tspan></text>
</svg>
