<?xml version="1.0" encoding="utf-8"?>
<!-- Generator: Adobe Illustrator 19.2.1, SVG Export Plug-In . SVG Version: 6.00 Build 0)  -->
<svg version="1.1" id="Layer_1" xmlns="http://www.w3.org/2000/svg" xmlns:xlink="http://www.w3.org/1999/xlink" x="0px" y="0px"
	 width="259.7px" height="58.6px" viewBox="0 0 259.7 58.6" enable-background="new 0 0 259.7 58.6" xml:space="preserve">
<g>
	<path fill="#666666" d="M106.8,0c1.4,0.3,2.7,0.4,4.1,0.8c9.2,2.4,12.3,10.4,11.6,17c-0.5,5.1-2.5,9.9-4.2,14.7
		c-0.3,0.8-0.6,1.6-0.9,2.4c-0.2,0.6,0,1,0.7,1c1,0,2,0,3,0c0.8,0,1,0.3,0.8,1.1c-0.6,2.2-1.2,4.4-1.7,6.7c-0.2,0.7-0.6,1-1.3,1
		c-8.5,0-17,0.1-25.4-0.1c-4.6-0.1-8.7-2-11.2-6.2C80.3,35,79.8,31.6,80,28c0.4-5.9,1.9-11.5,4.8-16.6c3.7-6.6,9.4-10.5,17-11.2
		c0.2,0,0.5-0.1,0.7-0.2C103.9,0,105.3,0,106.8,0z M101.9,35.4C101.9,35.4,101.9,35.4,101.9,35.4c1.4,0.1,2.8,0,4.3,0.1
		c1,0,1.5-0.3,1.7-1.3c1.1-4.1,2.4-8.2,3.4-12.3c0.5-1.9,0.8-3.9,0.7-5.8c0-2.9-1.4-5.3-4.3-6.3c-4.4-1.5-10.5-0.7-13.5,4.6
		c-2.6,4.5-3.8,9.5-3.4,14.7c0.2,3.8,2.4,5.9,6.2,6.3C98.5,35.5,100.2,35.4,101.9,35.4z"/>
	<path fill="#0868AC" d="M0,23.7c0.2-1,0.4-1.9,0.6-2.9c0.7-3.3,2.5-6,4.6-8.3c-0.3,1.7-0.8,3.5-1,5.4c-0.5,5.2,1,9.9,3.9,14.2
		c4.2,6.2,10,10.2,17.3,11.5c5.8,1,11.4,0.4,16.4-3c0.5-0.3,1-0.7,1.4-1.1c0.4-0.4,0.8-0.8,1.4-1.1c-0.4,0.7-0.8,1.4-1.3,2
		c-3.7,5.2-8.7,8-15.1,8.8C14.7,51.1,3.3,40.9,0.8,30.2C0.5,28.8,0.3,27.4,0,26C0,25.2,0,24.5,0,23.7z"/>
	<path fill="#666666" d="M181.4,30.3c-3.3,0-6.6,0-9.9,0c-1.2,0-1.5,0.3-1.6,1.6c-0.1,2.1,0.8,3.4,2.8,3.8c1.2,0.3,2.4,0.4,3.6,0.4
		c4.5,0,9.1,0,13.6,0c0.7,0,1,0.2,0.9,0.9c-0.5,2.3-0.9,4.7-1.5,7c-0.1,0.3-0.7,0.8-1,0.8c-6.3-0.1-12.6,0.5-18.8-0.3
		c-1.3-0.2-2.6-0.6-3.9-1.1c-3.8-1.6-5.7-5-5.5-9.6c0.2-4.9,1.3-9.6,3.1-14.1c2.6-6.3,7.4-9.6,14-10.4c3.7-0.5,7.5-0.5,11.1,0.8
		c3.6,1.2,5.5,3.9,6,7.6c0.5,4.1-0.4,8.1-1.4,12c-0.2,0.7-0.7,0.7-1.3,0.7C188.1,30.3,184.7,30.3,181.4,30.3z M177.9,23
		c1.8,0,3.6,0,5.4,0c0.4,0,1-0.3,1.2-0.7c0.6-1.4-0.2-3.5-1.6-4.3c-0.8-0.4-1.6-0.6-2.5-0.7c-3.9-0.5-7.3,1.2-8.6,4.4
		c-0.4,1-0.2,1.2,0.8,1.2C174.3,23,176.1,23,177.9,23z"/>
	<path fill="#666666" d="M143.5,44.3c-3.1,0-6.3,0.2-9.4,0c-5.3-0.5-8.2-3.7-8.4-9.1c-0.2-3.8,0.7-7.5,1.5-11.2
		c0.9-4.4,1.8-8.7,2.8-13.1c0.3-1.3,0.5-1.4,1.8-1.4c2.1,0,4.1,0,6.2,0c1.5,0,1.6,0.1,1.3,1.6c-1.2,6.1-2.5,12.3-3.7,18.4
		c-0.2,0.9-0.3,1.8-0.3,2.7c0,2.4,1.2,3.7,3.5,3.8c2,0.1,4,0,6,0c0.8,0,1.1-0.4,1.3-1.2c1.1-5.3,2.3-10.5,3.4-15.7
		c0.6-2.8,1.2-5.5,1.8-8.3c0.2-1,0.7-1.3,1.7-1.3c2.1,0,4.2,0,6.3,0c1.3,0,1.4,0.2,1.1,1.4c-1.6,7.7-3.3,15.3-4.9,23
		c-0.6,3-1.3,6.1-2,9.1c-0.3,1.4-0.4,1.5-1.8,1.5c-2.7,0-5.4,0-8.1,0C143.5,44.4,143.5,44.3,143.5,44.3z"/>
	<path fill="#666666" d="M233.3,26c0.2-0.3,0.5-0.6,0.7-1c4.4-6.4,8.8-12.8,13.1-19.3c0.7-1,1.5-1.4,2.7-1.4c2.9,0.1,5.7,0,8.6,0
		c0.4,0,0.7,0,1.3,0.1c-0.3,0.5-0.5,0.8-0.7,1.1c-7.2,9.6-14.4,19.2-21.7,28.8c-0.9,1.2-1.5,2.4-1.8,3.8c-0.4,1.7-0.9,3.4-1.3,5.1
		c-0.2,0.8-0.6,1.3-1.5,1.3c-2.7,0-5.4,0-8.1,0c-0.8,0-1.1-0.3-0.9-1.1c0.5-2,1.1-4,1.5-6c0.2-0.8,0.2-1.8,0-2.6
		c-1.2-4.4-2.5-8.8-3.7-13.3c-0.3-1.1-0.2-1.2,0.9-1.2c2.7,0,5.4,0,8.1,0c0.9,0,1.4,0.4,1.5,1.2c0.3,1.5,0.7,2.9,1,4.4
		C233.1,25.9,233.2,25.9,233.3,26z"/>
	<path fill="#666666" d="M213.8,9.5c3.2,0,6.4,0,9.6,0c1,0,2.1,0.2,3.1,0.4c1.8,0.5,3,1.7,3.5,3.5c0.3,1.1,0.6,2.3,0.9,3.4
		c0.2,1,0.1,1.2-1,1.2c-6.2,0-12.3,0-18.5,0c-1.8,0-1.9,0.1-2.2,1.8c-1.6,7.6-3.1,15.2-4.7,22.8c-0.3,1.6-0.5,1.7-2.1,1.7
		c-2.2,0-4.4,0-6.6,0c-0.9,0-1.1-0.3-0.9-1.1c1.3-6.3,2.7-12.5,4-18.8c1-4.6,2-9.1,2.9-13.6c0.2-1,0.7-1.4,1.7-1.4
		C207.1,9.6,210.4,9.5,213.8,9.5C213.8,9.5,213.8,9.5,213.8,9.5z"/>
	<path fill="#666666" d="M56.4,58.6c-1.3,0-2.6,0-3.9,0c-0.7,0-1.1-0.3-0.9-1.1c0.5-2.2,1.1-4.4,1.6-6.6c0.2-0.8,0.6-1.2,1.5-1.2
		c0.4,0,0.7,0,1.1,0c2,0.3,3.2-0.7,4.2-2.3c1.2-1.9,1.6-4.1,2-6.2c1.4-6.6,2.9-13.1,4.3-19.7c0.2-0.9,0.6-1.3,1.6-1.3
		c2.5,0,5,0,7.5,0c0.8,0,1.1,0.2,0.9,1.1c-1.9,8.7-3.8,17.5-5.8,26.2C70,50.2,69,52.7,67.3,55c-1.9,2.5-4.4,3.5-7.5,3.7
		C58.7,58.7,57.5,58.6,56.4,58.6C56.4,58.6,56.4,58.6,56.4,58.6z"/>
	<path fill="#0868AC" d="M17.2,8.4c-2.8,8.5,2,16,7.9,19.7c6.2,3.9,14.9,4.6,20.9-1.5c-1.6,3.2-3.9,5.7-7.3,6.9
		c-7,2.6-13.5,1.5-19.1-3.6c-3.8-3.5-5.9-7.7-5.8-13C13.7,13.8,15,11.1,17.2,8.4z"/>
	<path fill="#666666" d="M72.2,17.8c-1.3,0-2.6,0-3.8,0c-0.7,0-1.1-0.3-0.9-1.1c0.5-2.1,1-4.2,1.4-6.3c0.2-0.8,0.6-1.1,1.4-1.1
		c2.5,0,5.1,0,7.6,0c0.8,0,1.1,0.3,0.9,1.1c-0.5,2.1-0.9,4.1-1.4,6.2c-0.2,0.8-0.6,1.2-1.5,1.2C74.7,17.8,73.4,17.8,72.2,17.8z"/>
	<path fill="#0868AC" d="M27.1,6.1c-1,4.8,0.8,8.6,4.6,11.4c3.8,2.7,8,3.4,12.3,1.1c-0.8,2-3.9,3.5-7.1,3.6c-5.2,0.2-9.5-3.5-11-7.2
		C24.7,11.8,25.1,8,27.1,6.1z"/>
</g>
</svg>
