<svg id="Layer_1" data-name="Layer 1" xmlns="http://www.w3.org/2000/svg" width="181.59" height="120" viewBox="0 0 181.59 120">
  <title>tools</title>
  <g>
    <g>
      <path d="M92.85,73.73H61c-3.67,0-5.93-2.19-5.92-5.85q0-31,.12-62.12A5.39,5.39,0,0,1,61,0h63.77c3.31,0,5.42,2,5.43,5.34q.14,27.68.17,55.34c0,2.53,0,5.07,0,7.61-.09,3.42-2.17,5.43-5.58,5.43ZM93.44,51a13.62,13.62,0,0,0,8.2-2.73A9.94,9.94,0,0,0,99.92,31.1c-3-1.43-6.18-2.62-9.24-4A2.61,2.61,0,0,1,89,24.29a2.93,2.93,0,0,1,2.39-2.52,10.21,10.21,0,0,1,6,.5c1.25.41,2.21,2.15,3.5,1.5,1.12-.57,1.79-2,2.65-3.09.09-.1.16-.22.26-.32.88-.78.74-1.42-.17-2.12a17.12,17.12,0,0,0-6.2-3.12,15.66,15.66,0,0,0-8.92.2c-4.52,1.44-7.5,5.1-7.7,9.4s2.22,7.79,6.61,9.75c2.63,1.17,5.3,2.24,7.92,3.43,1.4.64,2.41,1.67,2.15,3.37S96,43.74,94.36,44a12.16,12.16,0,0,1-6.61-1c-1.41-.58-2.52-2.54-4-1.91-1.29.56-2.09,2.27-3.11,3.47l-.14.16c-1.24,1-.77,1.69.33,2.48A20.3,20.3,0,0,0,93.44,51Z" style="fill: #666"/>
      <path d="M93.44,51a20.3,20.3,0,0,1-12.58-3.88c-1.1-.79-1.57-1.47-.33-2.48l.14-.16c1-1.2,1.82-2.91,3.11-3.47,1.45-.63,2.56,1.33,4,1.91a12.16,12.16,0,0,0,6.61,1c1.59-.25,2.91-.94,3.19-2.72s-.75-2.73-2.15-3.37c-2.62-1.19-5.29-2.26-7.92-3.43-4.39-2-6.81-5.56-6.61-9.75s3.18-8,7.7-9.4a15.66,15.66,0,0,1,8.92-.2,17.12,17.12,0,0,1,6.2,3.12c.91.7,1,1.34.17,2.12-.1.1-.17.22-.26.32-.86,1.07-1.53,2.52-2.65,3.09-1.29.65-2.25-1.09-3.5-1.5a10.21,10.21,0,0,0-6-.5A2.93,2.93,0,0,0,89,24.29a2.61,2.61,0,0,0,1.67,2.8c3.06,1.39,6.21,2.58,9.24,4a9.94,9.94,0,0,1,1.72,17.21A13.62,13.62,0,0,1,93.44,51Z" style="fill: #fb8002"/>
    </g>
    <text transform="translate(0 112.9)" style="font-size: 31.20475959777832px;fill: #666;font-family: MyriadPro-Bold, Myriad Pro;font-weight: 700">Sublime<tspan x="114.15" y="0" style="letter-spacing: -0.0389939512652625em"> </tspan><tspan x="119.23" y="0" style="letter-spacing: -0.08099225190569771em">T</tspan><tspan x="133.81" y="0" style="letter-spacing: -0.011986102194699467em">e</tspan><tspan x="149.91" y="0" style="letter-spacing: 0.012987551986423705em">x</tspan><tspan x="166.51" y="0">t</tspan></text>
  </g>
</svg>
