<svg id="Layer_1" data-name="Layer 1" xmlns="http://www.w3.org/2000/svg" width="79.86" height="120" viewBox="0 0 79.86 120">
  <title>tools</title>
  <g>
    <path d="M0,25.9a2,2,0,0,1,1-.09H78.85c1,0,1.06,0,1,1.07C79.56,29.93,79.27,33,79,36c-.2,2.27-.37,4.55-.57,6.82S78,47.61,77.8,50s-.37,4.49-.57,6.73c-.2,2.41-.43,4.83-.64,7.24-.19,2.22-.37,4.43-.56,6.64L75.37,78c-.24,2.87-.48,5.75-.73,8.62-.21,2.48-.44,5-.65,7.42-.25,2.87-.49,5.75-.73,8.62-.12,1.3-.25,2.59-.33,3.89,0,.41-.23.52-.56.61-1.53.42-3.05.86-4.58,1.29l-27,7.57a2.88,2.88,0,0,1-1.67,0q-15.6-4.38-31.2-8.73C7,107,7,107,6.9,106.08,6.59,102.37,6.29,98.66,6,95q-.6-7-1.21-14c-.37-4.25-.76-8.5-1.13-12.76-.38-4.42-.74-8.85-1.12-13.28S1.74,46.32,1.36,42c-.26-3-.5-6.1-.76-9.15C.41,30.65.2,28.44,0,26.22,0,26.12,0,26,0,25.9ZM15,42.59c0,1.31.18,2.62.29,3.94.25,3.08.53,6.15.8,9.23.19,2.15.36,4.31.55,6.47.28,3.16.57,6.32.83,9.48.09,1.07.07,1.07,1.12,1.07l32.32,0h.43c.55,0,.57,0,.53.61-.27,3.83-.56,7.65-.8,11.49a.76.76,0,0,1-.67.81q-5,1.35-10,2.75a1.6,1.6,0,0,1-.92,0q-5-1.39-10-2.76a.69.69,0,0,1-.62-.75c-.13-2.19-.32-4.37-.47-6.56-.05-.83,0-.76-.85-.77H18.77c-.25,0-.52-.08-.77.12,0,.1,0,.21,0,.32.22,2.62.45,5.23.68,7.85q.27,3.1.55,6.21c.08.85.1.85.92,1.08L39.3,98.51a2.38,2.38,0,0,0,1.35,0c2.8-.79,5.61-1.55,8.41-2.32l10.66-3c.84-.23.85-.23.93-1.14.22-2.41.43-4.83.64-7.24l.6-7q.3-3.49.62-7c.2-2.33.39-4.66.61-7,.11-1.19.13-1.18-1-1.18H28.22c-1.07,0-.91.09-1-.92-.21-2.67-.38-5.35-.57-8-.1-1.41-.17-1.2,1.13-1.2H63.05c1.17,0,1,.22,1.15-1.06s.25-2.76.37-4.14.25-2.88.35-4.32c0-.57,0-.57-.53-.59H15.87A1.64,1.64,0,0,0,15,42.59Z" style="fill: #e54d26"/>
    <path d="M49.16,9.57l1.43-2.31c.6-1,1.22-2,1.81-2.95a.81.81,0,0,1,.83-.46c1.18,0,2.37,0,3.55,0,.71,0,.72,0,.72.7V18.07c0,.72,0,.72-.69.73-1.12,0-2.25,0-3.38,0-.93,0-.76-.1-.76-.74V11.68l-.16-.06L49.16,17l-3.34-5.4-.16,0V18.1c0,.69,0,.69-.72.7-1.19,0-2.37,0-3.55,0-.47,0-.59-.15-.58-.6,0-1.47,0-3,0-4.42V4.52c0-.65,0-.66.67-.66,1.18,0,2.37,0,3.55,0a1,1,0,0,1,1,.57Z" style="fill: #666"/>
    <path d="M22.37,11.35V18c0,.85,0,.78-.81.78H18.27c-.71,0-.71,0-.71-.69,0-1.19,0-2.37,0-3.55,0-.47-.16-.59-.59-.58-1.36,0-2.72,0-4.07,0-.62,0-.63,0-.63.61,0,1.19,0,2.37,0,3.55,0,.63,0,.64-.59.65-1.22,0-2.43,0-3.64,0-.41,0-.62-.07-.61-.56,0-4.59,0-9.18,0-13.77,0-.6,0-.61.63-.61,1.21,0,2.43,0,3.64,0,.49,0,.57.18.57.6,0,1.36,0,2.72,0,4.07,0,.61,0,.63.62.63h4c.67,0,.68,0,.68-.66,0-1.32,0-2.65,0-4,0-.64,0-.65.67-.65H21.6c.77,0,.77,0,.77.82Z" style="fill: #666"/>
    <path d="M31.6,3.86h6.33c.67,0,.67,0,.68.64,0,1.22,0,2.43,0,3.64,0,.49-.17.57-.59.56-1.19,0-2.37,0-3.55,0-.69,0-.7,0-.7.72v9c0,.24-.07.38-.34.38-1.38,0-2.77,0-4.15,0-.27,0-.34-.17-.33-.4V17.27q0-3.93,0-7.88c0-.69,0-.69-.71-.7-1,0-2.08,0-3.12,0-.47,0-.58-.16-.57-.59,0-1.22,0-2.43,0-3.64,0-.6,0-.61.64-.61Z" style="fill: #666"/>
    <path d="M71.51,14V18.7a1,1,0,0,1-.62.1H60.42c-.7,0-.71,0-.71-.7V4.6c0-.73,0-.74.75-.74h3.46c.61,0,.62,0,.62.63,0,2.85,0,5.71,0,8.56,0,1.07-.09.93.91.93Z" style="fill: #666"/>
  </g>
</svg>
