<svg id="Layer_1" data-name="Layer 1" xmlns="http://www.w3.org/2000/svg" width="140.78" height="120" viewBox="0 0 140.78 120">
  <title>tools</title>
  <text transform="translate(25.04 115.37)" style="font-size: 33.02128601074219px;fill: #059be3;font-family: Roboto-Light, Roboto"><tspan style="letter-spacing: -0.01270191577679784em">X</tspan><tspan x="19.78" y="0">code</tspan></text>
  <g>
    <path d="M70.45,71.25c-.42,1-.84,2-1.27,3l-.51,1.18-2.06.3-3.52.56L59,77l-3.86.61-3.47.55-3.8.6-3.83.6-3.5.55-3,.49c-.37.06-.37,0-.42-.32l-.54-3.59c0-.15,0-.3,0-.45s.05-.24-.06-.33,0,0,0-.07.06-.24-.07-.32l0-.12c.09-.13,0-.31.16-.44,1.07-1,2.13-2.12,3.19-3.18.21,1.36.42,2.72.64,4.08.06.39.06.39.45.32l6-1,7-1.12,6.74-1.07,6.73-1.06Z" style="fill: #059be3"/>
    <path d="M36.35,75.28c.13.08.06.21.07.32C36.34,75.5,36.37,75.39,36.35,75.28Z" style="fill: #05a9f2"/>
    <path d="M36.42,75.67c.11.09,0,.22.06.33C36.4,75.9,36.43,75.78,36.42,75.67Z" style="fill: #05a9f2"/>
    <g>
      <path d="M81.13,73.47c-.23.59-.36,1.22-.53,1.83-.39,1.38-.77,2.77-1.16,4.15a4.05,4.05,0,0,1-2.66,2.71,5,5,0,0,1-3.55.07c-.66-.22-1.33-.4-2-.66A4.79,4.79,0,0,1,68.38,77a5.32,5.32,0,0,1,.29-1.59l.51-1.18c.43-1,.85-2,1.27-3l.27-.57c.51-1.21,1-2.42,1.54-3.63,0,0,.06-.1.08-.15q3.25-7.59,6.5-15.18c.44-1,.86-2,1.29-3s.94-2.15,1.4-3.23c.37-.88.78-1.74,1.11-2.63l.73-1.65c.66-1.52,1.31-3,2-4.57l.76.24,4.73,1.48a1,1,0,0,1-.07.39c-.21.75-.41,1.51-.62,2.26l-.72,2.55c-.3,1.09-.59,2.18-.89,3.27-.13.48-.27.95-.41,1.42l-.84,3.08c-.24.83-.48,1.66-.71,2.5-.28,1-.61,2.06-.84,3.12a1.57,1.57,0,0,0-.09.23c-.4,1.42-.79,2.83-1.18,4.25-.21.78-.46,1.56-.64,2.37h0a.78.78,0,0,0-.12.39v0a.19.19,0,0,0,0,.14,0,0,0,0,0,0,0,.23.23,0,0,0-.06.19s0,0,0,0,0,.12-.06.19a1,1,0,0,0-.13.49,1.25,1.25,0,0,0-.19.56c-.33,1.16-.64,2.33-1,3.49L82,70.46c-.11.38-.24.76-.33,1.14C81.46,72.23,81.24,72.83,81.13,73.47Z" style="fill: #424343"/>
      <path d="M100.92,20.82c.17,1,.33,2.08.5,3.12l.6,3.78.66,4.08.6,3.75.66,4.11c.2,1.25.41,2.5.61,3.75l.66,4.11.6,3.75.6,3.75c.2,1.26.4,2.53.61,3.8l.66,4.08.6,3.75c.12.76.23,1.52.36,2.28,0,.16,0,.19-.15.22l-2.76.44-3.83.6-3.84.61-3.83.6-3.81.6-4.22.67-1,.13a.6.6,0,0,0,.22-.41c.2-.68.4-1.35.58-2a9.74,9.74,0,0,0,.41-1.61l.08-.07.31,0,5.6-.9,11.77-1.85c.22,0,.27-.11.24-.33-.2-1.12-.38-2.24-.56-3.36l-1.17-7.29c-.41-2.56-.83-5.11-1.24-7.67-.37-2.31-.75-4.63-1.12-6.95s-.78-4.84-1.18-7.27l-.84-5.17c.1,0,.1-.1.12-.17.72-2,1.43-4,2.15-5.95C100.69,21.43,100.81,21.13,100.92,20.82Z" style="fill: #059be3"/>
      <path d="M32.86,52.44c-.11-.68-.23-1.35-.33-2l-.6-3.93c-.22-1.47-.44-2.94-.67-4.41-.18-1.16-.36-2.32-.53-3.47s-.37-2.43-.56-3.64-.41-2.62-.61-3.92-.35-2.35-.53-3.53-.41-2.61-.61-3.91c0-.2-.05-.4-.08-.6s0-.21.17-.23l3.1-.47,4-.6c1.18-.19,2.37-.36,3.55-.54l3.55-.55,3.16-.49,3.58-.55,3.15-.48,4-.61,3.58-.54,2.76-.43L66,17a3.76,3.76,0,0,1,.82-.11.27.27,0,0,1-.1.17c-.57.61-1.14,1.23-1.72,1.83s-1.32,1.37-2,2c-.07.08-.17.15-.15.29l-.79.12-6.57,1-5.83.9-5.4.82-5.89.9c-1.79.28-3.58.56-5.38.82-.24,0-.31.11-.27.36.32,2,.62,4.08.93,6.11l1,6.26q.48,3.09,1,6.2c.22,1.43.43,2.86.65,4.3-.11,0-.17.09-.23.15-.22.24-.43.48-.66.71-.74.76-1.47,1.52-2.18,2.3C33.09,52.3,33,52.43,32.86,52.44Z" style="fill: #29b4f4"/>
      <path d="M79.75,6.4a5.22,5.22,0,0,0-1.12-.16c-1-.1-2-.14-3.07-.19s-2,0-2.92,0c-.27,0-.34-.08-.35-.34a.82.82,0,0,1,.47-.92,18.69,18.69,0,0,1,3.91-1.43,30.89,30.89,0,0,1,4.17-.76c1.11-.13,2.21-.23,3.32-.29,1.3-.08,2.59-.13,3.89-.11a24.13,24.13,0,0,1,3.6.36A33.72,33.72,0,0,1,97,3.94a30.14,30.14,0,0,1,3.12,1.29,26,26,0,0,1,2.5,1.33.9.9,0,0,1,.27.21s0,.09,0,.14c-.52,1.61-1,3.23-1.55,4.85a3.18,3.18,0,0,1-.48.91A3.91,3.91,0,0,1,96.5,14l-5.9-1.93c-.73-.23-1.44-.5-2.18-.68l-.12-.08c.11-.07,0-.14,0-.19a8.94,8.94,0,0,0-1-1.31,10.31,10.31,0,0,0-3.67-2.44A13.76,13.76,0,0,0,79.75,6.4Z" style="fill: #d5dce0"/>
      <path d="M88.42,11.38c.74.18,1.45.45,2.18.68L96.5,14a3.91,3.91,0,0,0,4.34-1.32,3.18,3.18,0,0,0,.48-.91c.52-1.62,1-3.24,1.55-4.85,0,0,0-.1,0-.14.31.33.51.74.81,1.1a5,5,0,0,0,2.36,1.82,2,2,0,0,0,2.12-.45c.12-.13.18-.31.33-.42a.57.57,0,0,1,0,.25c-.28.89-.56,1.77-.85,2.66-.59,1.83-1.17,3.66-1.77,5.49,0,.13,0,.27-.15.38a2.11,2.11,0,0,0-1.5-2,4.67,4.67,0,0,0-3.93.63,2,2,0,0,0-.65.35,7.86,7.86,0,0,0-2.3,2.72.49.49,0,0,1-.28.3c-.05-.18-.22-.16-.35-.2l-4-1.24-2.81-.88,0-.16c-.05-.48-.09-1-.16-1.44a10.39,10.39,0,0,0-.49-2.21,9.33,9.33,0,0,0-.75-1.92A1,1,0,0,1,88.42,11.38Z" style="fill: #8fa4ae"/>
      <path d="M89.25,13.48a10.39,10.39,0,0,1,.49,2.21c.07.48.11,1,.16,1.44l-.17,0L82.2,18.3l-9.94,1.53-9.37,1.43c0-.14.08-.21.15-.29.67-.68,1.33-1.36,2-2s1.15-1.22,1.72-1.83a.27.27,0,0,0,.1-.17l8.34-1.28,8.06-1.24,5.8-.88Z" style="fill: #05a9f2"/>
      <path d="M39.68,71.54c-1.06,1.06-2.12,2.13-3.19,3.18-.14.13-.07.31-.16.44-.29-1.9-.59-3.8-.88-5.69s-.56-3.62-.83-5.43-.55-3.6-.83-5.41S33.24,55,33,53.2c0-.25-.07-.51-.1-.76.15,0,.23-.14.32-.23.71-.78,1.44-1.54,2.18-2.3.23-.23.44-.47.66-.71.06-.06.12-.15.23-.15l.09.54,1.17,7.69c.38,2.44.75,4.89,1.12,7.33Z" style="fill: #05a9f2"/>
      <path d="M104.2,15.61a2.11,2.11,0,0,1,1.5,2c.12-.11.11-.25.15-.38.6-1.83,1.18-3.66,1.77-5.49.29-.89.57-1.77.85-2.66a.57.57,0,0,0,0-.25h0s0-.07.06-.11.05-.25.24-.19l3.51,1.23c.14.05.15.13.1.27l-2,5.86-1,2.91c-.13.38-.13.38-.53.26l-3.15-.93c-.17-.05-.27-.1-.22-.32a1.85,1.85,0,0,0-1.1-2.05C104.3,15.71,104.21,15.7,104.2,15.61Z" style="fill: #d5dce0"/>
      <path d="M79.75,6.4a13.76,13.76,0,0,1,3.9,1A10.31,10.31,0,0,1,87.32,9.8a8.94,8.94,0,0,1,1,1.31c0,.05.11.12,0,.19a21.16,21.16,0,0,0-5.09-1.64c-1.14-.22-2.28-.4-3.44-.51C79.05,9.08,78.34,9,77.62,9c-1.05-.07-2.1-.11-3.16-.11-.18,0-.22-.06-.23-.23,0-.77,0-.78.73-1,1.5-.45,3-.86,4.55-1.17Z" style="fill: #7a919c"/>
      <path d="M97,19.61a.49.49,0,0,0,.28-.3,7.86,7.86,0,0,1,2.3-2.72,2,2,0,0,1,.65-.35c.23,1.36.47,2.72.71,4.08a.79.79,0,0,1-.06.5c-.11.31-.23.61-.34.93-.72,2-1.43,4-2.15,5.95,0,.07,0,.16-.12.17l-.66-4c-.22-1.32-.45-2.65-.68-4Z" style="fill: #0377bc"/>
      <path d="M86.42,68.75A9.74,9.74,0,0,1,86,70.36c-.18.68-.38,1.35-.58,2a.6.6,0,0,1-.22.41l-1.56.28-2.15.4h-.14c.06-.68.29-1.33.41-2a3.28,3.28,0,0,0,.18-1l.31-1.15a1.91,1.91,0,0,0,.48-.06Z" style="fill: #0377bc"/>
      <path d="M82,70.46a3.28,3.28,0,0,1-.18,1c-.12.67-.35,1.32-.41,2a.21.21,0,0,0-.23,0c.11-.64.33-1.24.49-1.87C81.71,71.22,81.84,70.84,82,70.46Z" style="fill: #049be3"/>
      <path d="M108.57,8.71s0,.09-.06.11S108.51,8.73,108.57,8.71Z" style="fill: #8fa4ae"/>
      <path d="M39.68,71.54l-1-6.93c-.37-2.44-.74-4.89-1.12-7.33l-1.17-7.69-.09-.54c-.22-1.44-.43-2.87-.65-4.3q-.47-3.11-1-6.2l-1-6.26c-.31-2-.61-4.07-.93-6.11,0-.25,0-.32.27-.36,1.8-.26,3.59-.54,5.38-.82l5.89-.9,5.4-.82,5.83-.9,6.57-1,.79-.12,9.37-1.43L82.2,18.3l7.53-1.15.17,0,0,.16a14.65,14.65,0,0,1,0,2.73,2,2,0,0,1-.1.87h0l-.07,0-3.2.5-7.16,1.13L72.48,23.6l-7.13,1.12-6.42,1-6.34,1-6.82,1.07-5.72.89-2.66.41c-.22,0-.28.11-.22.33s.09.64.14,1l1,6.63.93,6.11c.36,2.34.71,4.67,1.07,7S41,54.73,41.39,57s.71,4.64,1.07,7c.21,1.37.42,2.74.64,4.11.16,1.09.33,2.18.49,3.28,0,.2.08.22.27.19L49,70.74l6.77-1.07,6.22-1,6.7-1.07,3.6-.56c-.52,1.21-1,2.42-1.54,3.63l-.27.57-3.14.49L60.58,72.8l-6.74,1.07L46.8,75l-6,1c-.39.07-.39.07-.45-.32C40.1,74.26,39.89,72.9,39.68,71.54Z" style="fill: #fcfdfd"/>
      <path d="M72.26,67.05l-3.6.56L62,68.68l-6.22,1L49,70.74l-5.11.83c-.19,0-.25,0-.27-.19-.16-1.1-.33-2.19-.49-3.28l.25-.23Q47,64.18,50.72,60.5c.09-.09.16-.22.32-.21l-.72,8.81.2-.23,2.88-3.43,2.81-3.36c.24-.29.24-.29-.09-.43-.59-.24-1.19-.48-1.77-.73-1-.4-1.92-.75-2.85-1.19.47-.51,1-1,1.46-1.51a2.25,2.25,0,0,1,.24.08c1.25.52,2.5,1,3.74,1.58.24.1.32,0,.41-.18,1.06-2.65,2.16-5.29,3.13-8,.26-.68.49-1.38.81-2a.44.44,0,0,0,.15-.08L63,48.17c.56-.53,1.11-1.07,1.66-1.61l.14-.09-1,2.52c-.3.72-.6,1.44-.89,2.17a.61.61,0,0,0,.33,0l6-.95,8.2-1.31c.08,0,.2,0,.23-.06s-.07-.16-.13-.23l-4-4.64a.59.59,0,0,0-.63-.24l-6.22,1c0-.16.12-.23.21-.33,1.66-1.66,3.31-3.32,5-5,.06-.06.12-.15.23-.15l.1.1c1.13,1.4,2.33,2.73,3.45,4.13,1.42,1.77,2.92,3.48,4.46,5.15-.43,1-.85,2-1.29,3q-3.24,7.59-6.5,15.18S72.28,67,72.26,67.05Z" style="fill: #049be3"/>
      <path d="M80.13,48.67c-1.54-1.67-3-3.38-4.46-5.15-1.12-1.4-2.32-2.73-3.45-4.13l-.1-.1-.06-.09q-3.33-3.9-6.65-7.79a1.85,1.85,0,0,1,.28-2.71c.49-.37,1-.72,1.46-1.1a1.85,1.85,0,0,1,2.7.22l4.1,4.8c.72.85,1.46,1.7,2.19,2.54a.53.53,0,0,0,.06.1c1.49,1.79,3.06,3.53,4.52,5.35.6.76,1.28,1.47,1.92,2.2-.33.89-.74,1.75-1.11,2.63C81.07,46.52,80.6,47.59,80.13,48.67Z" style="fill: #fcfdfd"/>
      <path d="M89.79,20.89a2,2,0,0,0,.1-.87,14.65,14.65,0,0,0,0-2.73l2.81.88,4,1.24c.13,0,.3,0,.35.2l-.07.28a.67.67,0,0,0-.12.36l0,0c-.69,2.17-1.49,4.3-2.25,6.45a2.29,2.29,0,0,0-.22.76,1.42,1.42,0,0,0-.08.18l-3,9.32a7.84,7.84,0,0,1-.46,1.31L86.1,36.83l-.76-.24c.56-1.69,1.13-3.38,1.68-5.08.67-2.07,1.45-4.1,2-6.21a23.9,23.9,0,0,0,.67-3.57A2.69,2.69,0,0,0,89.79,20.89Z" style="fill: #d5dce0"/>
      <path d="M89.69,21.73A23.9,23.9,0,0,1,89,25.3c-.55,2.11-1.33,4.14-2,6.21-.55,1.7-1.12,3.39-1.68,5.08-.66,1.52-1.31,3-2,4.57l-.73,1.65c-.64-.73-1.32-1.44-1.92-2.2-1.46-1.82-3-3.56-4.52-5.35a.53.53,0,0,1-.06-.1l.27-.24L89,22.33C89.22,22.11,89.46,21.93,89.69,21.73Z" style="fill: #049be3"/>
      <path d="M90.83,38.31A7.84,7.84,0,0,0,91.29,37l3-9.32a1.42,1.42,0,0,1,.08-.18,7.19,7.19,0,0,0,.19,1.67c.23,1.5.48,3,.72,4.51.13.81.27,1.61.4,2.42a9.32,9.32,0,0,1-.46,1.62C94.52,39.77,94,41.87,93.41,44a2.29,2.29,0,0,1-.25.75c-.24-1.29-.48-2.58-.71-3.86,0-.19-.06-.24-.26-.2-.63.13-1.25.22-1.88.33h-.17c.21-.75.41-1.51.62-2.26A1,1,0,0,0,90.83,38.31Z" style="fill: #0478bd"/>
      <path d="M85.73,56.89c.23-1,.56-2.07.84-3.11.23-.84.47-1.67.71-2.5,0-.05.13-.08.14-.13.11-.39.45-.57.72-.8a.93.93,0,0,1,1.18-.18,10.67,10.67,0,0,1,1.91,1.29v.06c-.1.37-.19.73-.3,1.1-.53,1.93-1.07,3.85-1.61,5.78A26.13,26.13,0,0,1,85.9,57Z" style="fill: #8fa4ae"/>
      <path d="M85.9,57a26.13,26.13,0,0,0,3.43,1.38s0,0,0,.05a.47.47,0,0,0-.06.09c-.48,1.75-1,3.49-1.42,5.24a2.66,2.66,0,0,0-.18.8l-.08.13-1.13.13-3.07.42a1,1,0,0,1,.13-.49c.08,0,0-.12.06-.19s0,0,0,0,.05-.12.06-.19a0,0,0,0,1,0,0c.06,0,0-.09,0-.14v0a.46.46,0,0,0,.12-.39h0a.82.82,0,0,0,.11-.17c.47-1.59.92-3.19,1.41-4.78A16,16,0,0,1,85.9,57Z" style="fill: #0377bc"/>
      <path d="M83.41,65.26l3.07-.42,1.13-.13,0,.14L86.5,68.68l-.08.07-3.68.5a1.91,1.91,0,0,1-.48.06c.32-1.16.63-2.33,1-3.49A1.25,1.25,0,0,1,83.41,65.26Z" style="fill: #8fa4ae"/>
      <path d="M91.23,51.46a10.67,10.67,0,0,0-1.91-1.29.93.93,0,0,0-1.18.18c-.27.23-.61.41-.72.8,0,.05-.09.08-.14.13l.84-3.08c.14-.47.28-.94.41-1.42l.12.08c1-.07,1.94-.26,2.92-.37a4.44,4.44,0,0,1,1-.09l0,.06-.84,3.22A15.62,15.62,0,0,1,91.23,51.46Z" style="fill: #0377bc"/>
      <path d="M88.65,46.86l-.12-.08c.3-1.09.59-2.18.89-3.27L90.14,41h.17a1,1,0,0,1,0,.16C89.72,43,89.19,45,88.65,46.86Z" style="fill: #fcfdfd"/>
      <path d="M85.9,57a16,16,0,0,0-.56,1.78c-.49,1.59-.94,3.19-1.41,4.78a.82.82,0,0,1-.11.17c.18-.81.43-1.59.64-2.37.39-1.42.78-2.83,1.18-4.25a1.57,1.57,0,0,1,.09-.23Z" style="fill: #049be3"/>
      <path d="M83.83,63.76a.46.46,0,0,1-.12.39A.78.78,0,0,1,83.83,63.76Z" style="fill: #049be3"/>
      <path d="M83.66,64.35c0,.07,0,.14-.06.19A.23.23,0,0,1,83.66,64.35Z" style="fill: #049be3"/>
      <path d="M83.6,64.58c0,.07,0,.14-.06.19S83.54,64.63,83.6,64.58Z" style="fill: #049be3"/>
      <path d="M83.71,64.17s0,.11,0,.14A.19.19,0,0,1,83.71,64.17Z" style="fill: #049be3"/>
      <path d="M86.5,68.68l1.08-3.83,0-.14.08-.13.37,0,11.7-1.87c.25,0,.29-.12.25-.34L99,55.67c-.36-2.22-.71-4.45-1.07-6.67-.37-2.38-.75-4.75-1.12-7.13l-1-6.08a2.8,2.8,0,0,1,.06-.28c.67-2.24,1.36-4.49,2-6.74a2.13,2.13,0,0,0,.21-1c-.09-.61-.2-1.21-.3-1.81l-1-5.75a.67.67,0,0,1,.12-.36c.23,1.33.46,2.66.68,4l.66,4L99.15,33q.6,3.65,1.18,7.27c.37,2.32.75,4.64,1.12,6.95.41,2.56.83,5.11,1.24,7.67l1.17,7.29c.18,1.12.36,2.24.56,3.36,0,.22,0,.3-.24.33L92.41,67.76l-5.6.9Z" style="fill: #fcfdfd"/>
      <path d="M89.69,21.73c-.23.2-.47.38-.68.6L76.41,34.92l-.27.24c-.73-.84-1.47-1.69-2.19-2.54l-4.1-4.8a1.85,1.85,0,0,0-2.7-.22c-.47.38-1,.73-1.46,1.1a1.85,1.85,0,0,0-.28,2.71q3.33,3.89,6.65,7.79l.06.09c-.11,0-.17.09-.23.15-1.7,1.63-3.35,3.29-5,5-.09.1-.22.17-.21.33-.37.06-.73.14-1.1.18a.3.3,0,0,0-.27.24,13.46,13.46,0,0,1-.51,1.33l-.14.09c-.55.54-1.1,1.08-1.66,1.61L61.44,49.6a.44.44,0,0,1-.15.08c0-.06,0-.13.05-.19.79-1.79,1.43-3.65,2.31-5.41.35-.7.59-1.46.9-2.19.07-.17,0-.21-.13-.27l-4.82-2c-.17-.07-.22,0-.29.12-1,2.33-1.9,4.69-2.89,7-.86,2-1.62,4-2.43,6.06-.65,1.58-1.3,3.15-2,4.73-.09.21-.05.29.15.36a4.54,4.54,0,0,1,.78.35c-.45.54-1,1-1.46,1.51a.58.58,0,0,1-.14,0c-.22-.15-.28,0-.29.17s0,.28,0,.42-.23.12-.32.21Q47,64.18,43.35,67.87l-.25.23c-.22-1.37-.43-2.74-.64-4.11q-.54-3.48-1.07-7c-.36-2.3-.71-4.61-1.06-6.91s-.71-4.66-1.07-7L38.33,37l-1-6.63c-.05-.32-.07-.65-.14-1s0-.3.22-.33l2.66-.41,5.72-.89,6.82-1.07,6.34-1,6.42-1,7.13-1.12,6.85-1.07,7.16-1.13,3.2-.5.07,0h0A2.69,2.69,0,0,1,89.69,21.73Zm-35.5,25-.33,0-5.66.91L46,48c-.1,0-.24,0-.21.21.25,1.8.48,3.6.72,5.4,0,.14.06.17.2.14L51.62,53a.3.3,0,0,0,.26-.22c.13-.35.27-.69.41-1,.64-1.58,1.28-3.17,1.9-4.76C54.22,46.91,54.4,46.73,54.19,46.73ZM66.61,36.54a1.79,1.79,0,0,0-1.07-1.6c-.59-.29-1.22-.5-1.79-.83a1.8,1.8,0,0,0-2.55,1c-.3.78-.63,1.56-1,2.33-.09.2-.06.29.15.37l4.72,2c.19.08.26,0,.34-.14.34-.86.7-1.71,1-2.57A1.51,1.51,0,0,0,66.61,36.54Z" style="fill: #0cabf2"/>
      <path d="M89.76,20.88l-.07,0Z" style="fill: #d5dce0"/>
      <path d="M53,58.22a4.54,4.54,0,0,0-.78-.35c-.2-.07-.24-.15-.15-.36.66-1.58,1.31-3.15,2-4.73.81-2,1.57-4.06,2.43-6.06,1-2.32,1.92-4.68,2.89-7,.07-.15.12-.19.29-.12l4.82,2c.14.06.2.1.13.27-.31.73-.55,1.49-.9,2.19-.88,1.76-1.52,3.62-2.31,5.41,0,.06,0,.13-.05.19-.32.66-.55,1.36-.81,2-1,2.69-2.07,5.33-3.13,8-.09.23-.17.28-.41.18-1.24-.54-2.49-1.06-3.74-1.58A2.25,2.25,0,0,0,53,58.22Z" style="fill: #fcfdfd"/>
      <path d="M64.79,46.47a13.46,13.46,0,0,0,.51-1.33.3.3,0,0,1,.27-.24c.37,0,.73-.12,1.1-.18l6.22-1a.59.59,0,0,1,.63.24l4,4.64c.06.07.18.13.13.23s-.15.05-.23.06l-8.2,1.31-6,.95a.61.61,0,0,1-.33,0c.29-.73.59-1.45.89-2.17Z" style="fill: #fcfdfd"/>
      <path d="M51,60.29c0-.14,0-.28,0-.42s.07-.32.29-.17a.58.58,0,0,0,.14,0c.93.44,1.9.79,2.85,1.19.58.25,1.18.49,1.77.73.33.14.33.14.09.43L53.4,65.44l-2.88,3.43-.2.23Z" style="fill: #fcfdfd"/>
      <path d="M96.85,20.25l1,5.75c.1.6.21,1.2.3,1.81a2.13,2.13,0,0,1-.21,1c-.67,2.25-1.36,4.5-2,6.74a2.8,2.8,0,0,0-.06.28l-.16.31c-.13-.81-.27-1.61-.4-2.42-.24-1.5-.49-3-.72-4.51a7.19,7.19,0,0,1-.19-1.67,2.29,2.29,0,0,1,.22-.76c.76-2.15,1.56-4.28,2.25-6.45Z" style="fill: #8fa4ae"/>
      <path d="M95.65,36.1l.16-.31,1,6.08c.37,2.38.75,4.75,1.12,7.13.36,2.22.71,4.45,1.07,6.67L100,62.32c0,.22,0,.3-.25.34l-11.7,1.87-.37,0a2.66,2.66,0,0,1,.18-.8c.46-1.75.94-3.49,1.42-5.24a.47.47,0,0,1,.06-.09,6.69,6.69,0,0,1,3.06,3,3.88,3.88,0,0,0,.38-.8,11.79,11.79,0,0,0,.56-3.49,8,8,0,0,0-.39-3,6,6,0,0,0-1.72-2.63v-.06a15.62,15.62,0,0,0,.49-1.78l.84-3.22a4.44,4.44,0,0,0,.65-.08c.11,0,.15-.06.13-.18-.08-.4-.15-.8-.22-1.21l0-.29a2.29,2.29,0,0,0,.25-.75c.59-2.08,1.11-4.18,1.78-6.23A9.32,9.32,0,0,0,95.65,36.1Z" style="fill: #059be3"/>
      <path d="M93.16,44.7l0,.29-.12.32a7.12,7.12,0,0,1-.4,1.09,4.44,4.44,0,0,0-1,.09c-1,.11-1.94.3-2.92.37.54-1.91,1.07-3.82,1.61-5.73a1,1,0,0,0,0-.16c.63-.11,1.25-.2,1.88-.33.2,0,.23,0,.26.2C92.68,42.12,92.92,43.41,93.16,44.7Z" style="fill: #8fa4ae"/>
      <path d="M91.24,51.52A6,6,0,0,1,93,54.15a8,8,0,0,1,.39,3,11.79,11.79,0,0,1-.56,3.49,3.88,3.88,0,0,1-.38.8,6.69,6.69,0,0,0-3.06-3s0,0,0-.05c.54-1.93,1.08-3.85,1.61-5.78C91.05,52.25,91.14,51.89,91.24,51.52Z" style="fill: #fcfdfd"/>
      <path d="M92.6,46.4a7.12,7.12,0,0,0,.4-1.09l.12-.32c.07.41.14.81.22,1.21,0,.12,0,.16-.13.18a4.44,4.44,0,0,1-.65.08Z" style="fill: #fcfdfd"/>
      <path d="M54.19,46.73c.21,0,0,.18,0,.25-.62,1.59-1.26,3.18-1.9,4.76-.14.35-.28.69-.41,1a.3.3,0,0,1-.26.22l-4.95.78c-.14,0-.18,0-.2-.14-.24-1.8-.47-3.6-.72-5.4,0-.21.11-.19.21-.21l2.24-.35,5.66-.91Z" style="fill: #fcfdfd"/>
      <path d="M66.61,36.54a1.51,1.51,0,0,1-.11.56c-.35.86-.71,1.71-1,2.57-.08.19-.15.22-.34.14l-4.72-2c-.21-.08-.24-.17-.15-.37.33-.77.66-1.55,1-2.33a1.8,1.8,0,0,1,2.55-1c.57.33,1.2.54,1.79.83A1.79,1.79,0,0,1,66.61,36.54Z" style="fill: #fcfdfd"/>
    </g>
  </g>
</svg>
