<?xml version="1.0" standalone="no"?>
<!DOCTYPE svg PUBLIC "-//W3C//DTD SVG 20010904//EN"
 "http://www.w3.org/TR/2001/REC-SVG-20010904/DTD/svg10.dtd">
<svg version="1.0" xmlns="http://www.w3.org/2000/svg"
 width="261.000000pt" height="261.000000pt" viewBox="0 0 261.000000 261.000000"
 preserveAspectRatio="xMidYMid meet">
<metadata>
Created by potrace 1.11, written by Peter Selinger 2001-2013
</metadata>
<g transform="translate(0.000000,261.000000) scale(0.100000,-0.100000)"
fill="#000000" stroke="none">
<path d="M1096 2584 c-537 -83 -977 -515 -1071 -1049 -20 -118 -20 -342 0
-460 28 -158 109 -363 178 -449 23 -28 24 -28 54 -13 41 22 87 77 123 147 16
32 86 200 154 372 290 730 495 1195 544 1235 35 30 77 30 96 1 12 -18 13 -32
5 -68 -6 -25 -43 -187 -84 -360 -41 -173 -88 -406 -104 -516 -33 -217 -35
-242 -22 -263 23 -36 183 108 328 296 134 173 304 447 536 863 20 36 46 80 58
98 l21 32 -78 36 c-219 100 -494 136 -738 98z"/>
<path d="M1995 2258 c-92 -142 -216 -399 -268 -555 -72 -217 -98 -356 -104
-569 -6 -196 8 -321 49 -447 28 -88 115 -251 157 -294 50 -52 123 -83 195 -83
98 0 128 14 215 105 172 180 293 417 336 660 20 118 20 342 0 460 -41 235
-161 475 -323 647 -67 71 -177 168 -190 168 -4 0 -34 -42 -67 -92z"/>
<path d="M813 1587 c-61 -144 -139 -334 -173 -422 -90 -233 -186 -452 -221
-507 -34 -53 -114 -128 -135 -128 -8 0 -14 -4 -14 -10 0 -21 195 -211 277
-269 382 -273 891 -317 1313 -114 88 43 93 47 70 56 -159 62 -250 147 -324
299 -96 198 -130 383 -123 658 5 187 22 310 66 479 23 85 23 85 -56 -34 -133
-198 -334 -430 -445 -511 -98 -73 -179 -74 -209 -3 -26 63 -5 275 61 613 16
83 28 151 27 152 -1 2 -53 -115 -114 -259z"/>
</g>
</svg>
